# Blender 5.1.2
# www.blender.org
mtllib arrow.mtl
o 立方体
v -0.507197 0.000053 -0.170993
v -0.507197 -0.000053 -0.170993
v 0.507197 0.000053 -0.170993
v 0.507197 -0.000053 -0.170993
v -0.000000 0.000053 -0.678190
v -0.000000 -0.000053 -0.678190
v 0.257996 -0.000037 -0.187789
v 0.257996 0.000037 -0.187789
v 0.257996 -0.000037 0.460487
v 0.257996 0.000037 0.460487
v -0.257996 -0.000037 -0.187789
v -0.257996 0.000037 -0.187789
v -0.257996 -0.000037 0.460487
v -0.257996 0.000037 0.460487
vn -0.7071 -0.0000 -0.7071
vn 0.7071 -0.0000 -0.7071
vn -0.0000 1.0000 -0.0000
vn -0.0000 -1.0000 -0.0000
vn -0.0000 -0.0000 1.0000
vn -1.0000 -0.0000 -0.0000
vn 1.0000 -0.0000 -0.0000
vn -0.0000 -0.0000 -1.0000
vt 0.074697 0.560162
vt 0.500000 0.985465
vt 0.925303 0.560162
vt 0.283661 0.574246
vt 0.716339 0.574246
vt 0.716339 0.030643
vt 0.283661 0.030643
s 1
usemtl マテリアル
f 2/1/1 1/1/1 5/2/1
f 6/2/2 5/2/2 3/3/2
f 1/1/3 3/3/3 5/2/3
f 6/2/4 4/3/4 2/1/4
f 1/1/5 2/1/5 4/3/5
f 11/4/4 7/5/4 9/6/4
f 9/6/5 10/6/5 14/7/5
f 13/7/6 14/7/6 12/4/6
f 8/5/3 12/4/3 14/7/3
f 7/5/7 8/5/7 10/6/7
f 11/4/8 12/4/8 8/5/8
f 2/1/1 5/2/1 6/2/1
f 6/2/2 3/3/2 4/3/2
f 1/1/5 4/3/5 3/3/5
f 11/4/4 9/6/4 13/7/4
f 9/6/5 14/7/5 13/7/5
f 13/7/6 12/4/6 11/4/6
f 8/5/3 14/7/3 10/6/3
f 7/5/7 10/6/7 9/6/7
f 11/4/8 8/5/8 7/5/8
