# Blender 5.1.2
# www.blender.org
mtllib skydome.mtl
o 球
v 0.000000 1.000000 0.000000
v 0.000000 0.831470 -0.555570
v 0.000000 0.555570 -0.831470
v 0.000000 0.195090 -0.980785
v 0.000000 0.000000 -1.000000
v 0.000000 -0.195090 -0.980785
v 0.000000 -0.555570 -0.831470
v 0.000000 -1.000000 0.000000
v 0.038060 0.980785 -0.191342
v 0.074658 0.923880 -0.375330
v 0.108386 0.831470 -0.544895
v 0.137950 0.707107 -0.693520
v 0.162212 0.555570 -0.815493
v 0.180240 0.382683 -0.906127
v 0.191342 0.195090 -0.961940
v 0.195090 0.000000 -0.980785
v 0.191342 -0.195090 -0.961940
v 0.180240 -0.382683 -0.906127
v 0.162212 -0.555570 -0.815493
v 0.137950 -0.707107 -0.693520
v 0.108386 -0.831470 -0.544895
v 0.074658 -0.923880 -0.375330
v 0.038060 -0.980785 -0.191342
v 0.074658 0.980785 -0.180240
v 0.146447 0.923880 -0.353553
v 0.212608 0.831470 -0.513280
v 0.270598 0.707107 -0.653281
v 0.318190 0.555570 -0.768178
v 0.353553 0.382683 -0.853553
v 0.375330 0.195090 -0.906127
v 0.382683 0.000000 -0.923879
v 0.375330 -0.195090 -0.906127
v 0.353553 -0.382683 -0.853553
v 0.318190 -0.555570 -0.768178
v 0.270598 -0.707107 -0.653281
v 0.212608 -0.831470 -0.513280
v 0.146447 -0.923880 -0.353553
v 0.074658 -0.980785 -0.180240
v 0.108386 0.980785 -0.162212
v 0.212608 0.923880 -0.318190
v 0.308658 0.831470 -0.461940
v 0.392847 0.707107 -0.587938
v 0.461940 0.555570 -0.691342
v 0.513280 0.382683 -0.768178
v 0.544895 0.195090 -0.815493
v 0.555570 0.000000 -0.831469
v 0.544895 -0.195090 -0.815493
v 0.513280 -0.382683 -0.768178
v 0.461940 -0.555570 -0.691342
v 0.392847 -0.707107 -0.587938
v 0.308658 -0.831470 -0.461940
v 0.212608 -0.923880 -0.318190
v 0.108386 -0.980785 -0.162212
v 0.137950 0.980785 -0.137950
v 0.270598 0.923880 -0.270598
v 0.392847 0.831470 -0.392847
v 0.500000 0.707107 -0.500000
v 0.587938 0.555570 -0.587938
v 0.653281 0.382683 -0.653281
v 0.693520 0.195090 -0.693520
v 0.707107 0.000000 -0.707107
v 0.693520 -0.195090 -0.693520
v 0.653281 -0.382683 -0.653281
v 0.587938 -0.555570 -0.587938
v 0.500000 -0.707107 -0.500000
v 0.392847 -0.831470 -0.392847
v 0.270598 -0.923880 -0.270598
v 0.137950 -0.980785 -0.137950
v 0.162212 0.980785 -0.108386
v 0.318190 0.923880 -0.212608
v 0.461940 0.831470 -0.308658
v 0.587938 0.707107 -0.392847
v 0.691342 0.555570 -0.461940
v 0.768178 0.382683 -0.513280
v 0.815493 0.195090 -0.544895
v 0.831470 0.000000 -0.555570
v 0.815493 -0.195090 -0.544895
v 0.768178 -0.382683 -0.513280
v 0.691342 -0.555570 -0.461940
v 0.587938 -0.707107 -0.392847
v 0.461940 -0.831470 -0.308658
v 0.318190 -0.923880 -0.212608
v 0.162212 -0.980785 -0.108386
v 0.180240 0.980785 -0.074658
v 0.353553 0.923880 -0.146447
v 0.513280 0.831470 -0.212607
v 0.653281 0.707107 -0.270598
v 0.768178 0.555570 -0.318190
v 0.853553 0.382683 -0.353553
v 0.906127 0.195090 -0.375330
v 0.923879 0.000000 -0.382683
v 0.906127 -0.195090 -0.375330
v 0.853553 -0.382683 -0.353553
v 0.768178 -0.555570 -0.318190
v 0.653281 -0.707107 -0.270598
v 0.513280 -0.831470 -0.212607
v 0.353553 -0.923880 -0.146447
v 0.180240 -0.980785 -0.074658
v 0.191342 0.980785 -0.038060
v 0.375330 0.923880 -0.074658
v 0.544895 0.831470 -0.108386
v 0.693520 0.707107 -0.137950
v 0.815493 0.555570 -0.162212
v 0.906127 0.382683 -0.180240
v 0.961940 0.195090 -0.191342
v 0.980785 0.000000 -0.195090
v 0.961940 -0.195090 -0.191342
v 0.906127 -0.382683 -0.180240
v 0.815493 -0.555570 -0.162212
v 0.693520 -0.707107 -0.137950
v 0.544895 -0.831470 -0.108386
v 0.375330 -0.923880 -0.074658
v 0.191342 -0.980785 -0.038060
v 0.195090 0.980785 0.000000
v 0.382683 0.923880 0.000000
v 0.555570 0.831470 0.000000
v 0.707107 0.707107 -0.000000
v 0.831469 0.555570 0.000000
v 0.923879 0.382683 -0.000000
v 0.980785 0.195090 0.000000
v 1.000000 0.000000 0.000000
v 0.980785 -0.195090 0.000000
v 0.923879 -0.382683 -0.000000
v 0.831469 -0.555570 0.000000
v 0.707107 -0.707107 -0.000000
v 0.555570 -0.831470 0.000000
v 0.382683 -0.923880 0.000000
v 0.195090 -0.980785 0.000000
v 0.191342 0.980785 0.038060
v 0.375330 0.923880 0.074658
v 0.544895 0.831470 0.108386
v 0.693520 0.707107 0.137950
v 0.815493 0.555570 0.162212
v 0.906127 0.382683 0.180240
v 0.961940 0.195090 0.191342
v 0.980785 0.000000 0.195090
v 0.961940 -0.195090 0.191342
v 0.906127 -0.382683 0.180240
v 0.815493 -0.555570 0.162212
v 0.693520 -0.707107 0.137950
v 0.544895 -0.831470 0.108386
v 0.375330 -0.923880 0.074658
v 0.191342 -0.980785 0.038060
v 0.180240 0.980785 0.074658
v 0.353553 0.923880 0.146447
v 0.513280 0.831470 0.212608
v 0.653281 0.707107 0.270598
v 0.768178 0.555570 0.318190
v 0.853553 0.382683 0.353553
v 0.906127 0.195090 0.375330
v 0.923879 0.000000 0.382683
v 0.906127 -0.195090 0.375330
v 0.853553 -0.382683 0.353553
v 0.768178 -0.555570 0.318190
v 0.653281 -0.707107 0.270598
v 0.513280 -0.831470 0.212608
v 0.353553 -0.923880 0.146447
v 0.180240 -0.980785 0.074658
v 0.162212 0.980785 0.108386
v 0.318190 0.923880 0.212608
v 0.461940 0.831470 0.308658
v 0.587938 0.707107 0.392847
v 0.691341 0.555570 0.461940
v 0.768178 0.382683 0.513280
v 0.815493 0.195090 0.544895
v 0.831469 0.000000 0.555570
v 0.815493 -0.195090 0.544895
v 0.768178 -0.382683 0.513280
v 0.691341 -0.555570 0.461940
v 0.587938 -0.707107 0.392847
v 0.461940 -0.831470 0.308658
v 0.318190 -0.923880 0.212608
v 0.162212 -0.980785 0.108386
v 0.137950 0.980785 0.137950
v 0.270598 0.923880 0.270598
v 0.392847 0.831470 0.392847
v 0.500000 0.707107 0.500000
v 0.587938 0.555570 0.587938
v 0.653281 0.382683 0.653281
v 0.693520 0.195090 0.693520
v 0.707106 0.000000 0.707107
v 0.693520 -0.195090 0.693520
v 0.653281 -0.382683 0.653281
v 0.587938 -0.555570 0.587938
v 0.500000 -0.707107 0.500000
v 0.392847 -0.831470 0.392847
v 0.270598 -0.923880 0.270598
v 0.137950 -0.980785 0.137950
v 0.108386 0.980785 0.162212
v 0.212607 0.923880 0.318190
v 0.308658 0.831470 0.461940
v 0.392847 0.707107 0.587938
v 0.461940 0.555570 0.691342
v 0.513280 0.382683 0.768178
v 0.544895 0.195090 0.815493
v 0.555570 0.000000 0.831469
v 0.544895 -0.195090 0.815493
v 0.513280 -0.382683 0.768178
v 0.461940 -0.555570 0.691342
v 0.392847 -0.707107 0.587938
v 0.308658 -0.831470 0.461940
v 0.212607 -0.923880 0.318190
v 0.108386 -0.980785 0.162212
v 0.074658 0.980785 0.180240
v 0.146447 0.923880 0.353553
v 0.212607 0.831470 0.513280
v 0.270598 0.707107 0.653281
v 0.318189 0.555570 0.768178
v 0.353553 0.382683 0.853553
v 0.375330 0.195090 0.906127
v 0.382683 0.000000 0.923879
v 0.375330 -0.195090 0.906127
v 0.353553 -0.382683 0.853553
v 0.318189 -0.555570 0.768178
v 0.270598 -0.707107 0.653281
v 0.212607 -0.831470 0.513280
v 0.146447 -0.923880 0.353553
v 0.074658 -0.980785 0.180240
v 0.038060 0.980785 0.191342
v 0.074658 0.923880 0.375330
v 0.108386 0.831470 0.544895
v 0.137950 0.707107 0.693520
v 0.162212 0.555570 0.815493
v 0.180240 0.382683 0.906127
v 0.191342 0.195090 0.961939
v 0.195090 0.000000 0.980785
v 0.191342 -0.195090 0.961939
v 0.180240 -0.382683 0.906127
v 0.162212 -0.555570 0.815493
v 0.137950 -0.707107 0.693520
v 0.108386 -0.831470 0.544895
v 0.074658 -0.923880 0.375330
v 0.038060 -0.980785 0.191342
v -0.000000 0.980785 0.195090
v -0.000000 0.923880 0.382683
v -0.000000 0.831470 0.555570
v -0.000000 0.707107 0.707107
v -0.000000 0.555570 0.831469
v 0.000000 0.382683 0.923879
v -0.000000 0.195090 0.980785
v -0.000000 0.000000 0.999999
v -0.000000 -0.195090 0.980785
v 0.000000 -0.382683 0.923879
v -0.000000 -0.555570 0.831469
v -0.000000 -0.707107 0.707107
v -0.000000 -0.831470 0.555570
v -0.000000 -0.923880 0.382683
v -0.000000 -0.980785 0.195090
v -0.038060 0.980785 0.191342
v -0.074658 0.923880 0.375330
v -0.108386 0.831470 0.544895
v -0.137950 0.707107 0.693520
v -0.162212 0.555570 0.815493
v -0.180240 0.382683 0.906127
v -0.191342 0.195090 0.961939
v -0.195091 0.000000 0.980785
v -0.191342 -0.195090 0.961939
v -0.180240 -0.382683 0.906127
v -0.162212 -0.555570 0.815493
v -0.137950 -0.707107 0.693520
v -0.108386 -0.831470 0.544895
v -0.074658 -0.923880 0.375330
v -0.038060 -0.980785 0.191342
v -0.074658 0.980785 0.180240
v -0.146447 0.923880 0.353553
v -0.212608 0.831470 0.513280
v -0.270598 0.707107 0.653281
v -0.318190 0.555570 0.768177
v -0.353553 0.382683 0.853553
v -0.375330 0.195090 0.906127
v -0.382683 0.000000 0.923879
v -0.375330 -0.195090 0.906127
v -0.353553 -0.382683 0.853553
v -0.318190 -0.555570 0.768177
v -0.270598 -0.707107 0.653281
v -0.212608 -0.831470 0.513280
v -0.146447 -0.923880 0.353553
v -0.074658 -0.980785 0.180240
v -0.108386 0.980785 0.162212
v -0.212608 0.923880 0.318190
v -0.308658 0.831470 0.461939
v -0.392847 0.707107 0.587938
v -0.461940 0.555570 0.691341
v -0.513280 0.382683 0.768178
v -0.544895 0.195090 0.815493
v -0.555570 0.000000 0.831469
v -0.544895 -0.195090 0.815493
v -0.513280 -0.382683 0.768178
v -0.461940 -0.555570 0.691341
v -0.392847 -0.707107 0.587938
v -0.308658 -0.831470 0.461939
v -0.212608 -0.923880 0.318190
v -0.108386 -0.980785 0.162212
v -0.137950 0.980785 0.137950
v -0.270598 0.923880 0.270598
v -0.392847 0.831470 0.392847
v -0.500000 0.707107 0.500000
v -0.587938 0.555570 0.587937
v -0.653281 0.382683 0.653281
v -0.693520 0.195090 0.693520
v -0.707106 0.000000 0.707106
v -0.693520 -0.195090 0.693520
v -0.653281 -0.382683 0.653281
v -0.587938 -0.555570 0.587937
v -0.500000 -0.707107 0.500000
v -0.392847 -0.831470 0.392847
v -0.270598 -0.923880 0.270598
v -0.137950 -0.980785 0.137950
v -0.162212 0.980785 0.108386
v -0.318190 0.923880 0.212607
v -0.461940 0.831470 0.308658
v -0.587938 0.707107 0.392847
v -0.691341 0.555570 0.461939
v -0.768177 0.382683 0.513280
v -0.815493 0.195090 0.544895
v -0.831469 0.000000 0.555569
v -0.815493 -0.195090 0.544895
v -0.768177 -0.382683 0.513280
v -0.691341 -0.555570 0.461939
v -0.587938 -0.707107 0.392847
v -0.461940 -0.831470 0.308658
v -0.318190 -0.923880 0.212607
v -0.162212 -0.980785 0.108386
v -0.180240 0.980785 0.074658
v -0.353553 0.923880 0.146447
v -0.513280 0.831470 0.212607
v -0.653281 0.707107 0.270598
v -0.768177 0.555570 0.318189
v -0.853553 0.382683 0.353553
v -0.906127 0.195090 0.375330
v -0.923879 0.000000 0.382683
v -0.906127 -0.195090 0.375330
v -0.853553 -0.382683 0.353553
v -0.768177 -0.555570 0.318189
v -0.653281 -0.707107 0.270598
v -0.513280 -0.831470 0.212607
v -0.353553 -0.923880 0.146447
v -0.180240 -0.980785 0.074658
v -0.191342 0.980785 0.038060
v -0.375330 0.923880 0.074658
v -0.544895 0.831470 0.108386
v -0.693520 0.707107 0.137950
v -0.815493 0.555570 0.162211
v -0.906127 0.382683 0.180240
v -0.961939 0.195090 0.191341
v -0.980784 0.000000 0.195090
v -0.961939 -0.195090 0.191341
v -0.906127 -0.382683 0.180240
v -0.815493 -0.555570 0.162211
v -0.693520 -0.707107 0.137950
v -0.544895 -0.831470 0.108386
v -0.375330 -0.923880 0.074658
v -0.191342 -0.980785 0.038060
v -0.195090 0.980785 -0.000000
v -0.382683 0.923880 -0.000000
v -0.555570 0.831470 -0.000000
v -0.707107 0.707107 -0.000000
v -0.831469 0.555570 -0.000000
v -0.923879 0.382683 -0.000000
v -0.980785 0.195090 -0.000000
v -0.999999 0.000000 -0.000000
v -0.980785 -0.195090 -0.000000
v -0.923879 -0.382683 -0.000000
v -0.831469 -0.555570 -0.000000
v -0.707107 -0.707107 -0.000000
v -0.555570 -0.831470 -0.000000
v -0.382683 -0.923880 -0.000000
v -0.195090 -0.980785 -0.000000
v -0.191342 0.980785 -0.038060
v -0.375330 0.923880 -0.074658
v -0.544895 0.831470 -0.108386
v -0.693520 0.707107 -0.137950
v -0.815493 0.555570 -0.162212
v -0.906127 0.382683 -0.180240
v -0.961939 0.195090 -0.191342
v -0.980784 0.000000 -0.195091
v -0.961939 -0.195090 -0.191342
v -0.906127 -0.382683 -0.180240
v -0.815493 -0.555570 -0.162212
v -0.693520 -0.707107 -0.137950
v -0.544895 -0.831470 -0.108386
v -0.375330 -0.923880 -0.074658
v -0.191342 -0.980785 -0.038060
v -0.180240 0.980785 -0.074658
v -0.353553 0.923880 -0.146447
v -0.513279 0.831470 -0.212607
v -0.653281 0.707107 -0.270598
v -0.768177 0.555570 -0.318190
v -0.853553 0.382683 -0.353553
v -0.906127 0.195090 -0.375330
v -0.923878 0.000000 -0.382683
v -0.906127 -0.195090 -0.375330
v -0.853553 -0.382683 -0.353553
v -0.768177 -0.555570 -0.318190
v -0.653281 -0.707107 -0.270598
v -0.513279 -0.831470 -0.212607
v -0.353553 -0.923880 -0.146447
v -0.180240 -0.980785 -0.074658
v -0.162212 0.980785 -0.108386
v -0.318189 0.923880 -0.212607
v -0.461939 0.831470 -0.308658
v -0.587938 0.707107 -0.392847
v -0.691341 0.555570 -0.461940
v -0.768177 0.382683 -0.513280
v -0.815493 0.195090 -0.544895
v -0.831468 0.000000 -0.555570
v -0.815493 -0.195090 -0.544895
v -0.768177 -0.382683 -0.513280
v -0.691341 -0.555570 -0.461940
v -0.587938 -0.707107 -0.392847
v -0.461939 -0.831470 -0.308658
v -0.318189 -0.923880 -0.212607
v -0.162212 -0.980785 -0.108386
v -0.137950 0.980785 -0.137950
v -0.270598 0.923880 -0.270598
v -0.392847 0.831470 -0.392847
v -0.500000 0.707107 -0.500000
v -0.587937 0.555570 -0.587938
v -0.653281 0.382683 -0.653281
v -0.693519 0.195090 -0.693520
v -0.707106 0.000000 -0.707106
v -0.693519 -0.195090 -0.693520
v -0.653281 -0.382683 -0.653281
v -0.587937 -0.555570 -0.587938
v -0.500000 -0.707107 -0.500000
v -0.392847 -0.831470 -0.392847
v -0.270598 -0.923880 -0.270598
v -0.137950 -0.980785 -0.137950
v -0.108386 0.980785 -0.162212
v -0.212607 0.923880 -0.318190
v -0.308658 0.831470 -0.461939
v -0.392847 0.707107 -0.587938
v -0.461939 0.555570 -0.691341
v -0.513280 0.382683 -0.768177
v -0.544895 0.195090 -0.815493
v -0.555569 0.000000 -0.831469
v -0.544895 -0.195090 -0.815493
v -0.513280 -0.382683 -0.768177
v -0.461939 -0.555570 -0.691341
v -0.392847 -0.707107 -0.587938
v -0.308658 -0.831470 -0.461939
v -0.212607 -0.923880 -0.318190
v -0.108386 -0.980785 -0.162212
v -0.074658 0.980785 -0.180240
v -0.146446 0.923880 -0.353553
v -0.212607 0.831470 -0.513279
v -0.270598 0.707107 -0.653281
v -0.318189 0.555570 -0.768177
v -0.353553 0.382683 -0.853553
v -0.375330 0.195090 -0.906127
v -0.382683 0.000000 -0.923879
v -0.375330 -0.195090 -0.906127
v -0.353553 -0.382683 -0.853553
v -0.318189 -0.555570 -0.768177
v -0.270598 -0.707107 -0.653281
v -0.212607 -0.831470 -0.513279
v -0.146446 -0.923880 -0.353553
v -0.074658 -0.980785 -0.180240
v -0.038060 0.980785 -0.191342
v -0.074658 0.923880 -0.375330
v -0.108386 0.831470 -0.544895
v -0.137950 0.707107 -0.693520
v -0.162211 0.555570 -0.815493
v -0.180240 0.382683 -0.906127
v -0.191341 0.195090 -0.961939
v -0.195090 0.000000 -0.980784
v -0.191341 -0.195090 -0.961939
v -0.180240 -0.382683 -0.906127
v -0.162211 -0.555570 -0.815493
v -0.137950 -0.707107 -0.693520
v -0.108386 -0.831470 -0.544895
v -0.074658 -0.923880 -0.375330
v -0.038060 -0.980785 -0.191342
v 0.000000 0.980785 -0.195090
v 0.000000 0.923880 -0.382683
v 0.000000 0.707107 -0.707107
v 0.000000 0.382683 -0.923879
v 0.000000 -0.382683 -0.923879
v 0.000000 -0.707107 -0.707107
v 0.000000 -0.831470 -0.555570
v 0.000000 -0.923880 -0.382683
v 0.000000 -0.980785 -0.195090
vn -0.0000 -1.0000 -0.0000
vn -0.0000 -0.8286 0.5598
vn -0.0000 -0.5528 0.8333
vn -0.0000 -0.1939 0.9810
vn -0.0000 -0.0000 1.0000
vn -0.0000 0.1939 0.9810
vn -0.0000 0.5528 0.8333
vn -0.0000 1.0000 -0.0000
vn -0.0392 -0.9796 0.1971
vn -0.0757 -0.9217 0.3804
vn -0.1092 -0.8286 0.5490
vn -0.1385 -0.7041 0.6965
vn -0.1626 -0.5528 0.8173
vn -0.1804 -0.3805 0.9070
vn -0.1914 -0.1939 0.9622
vn -0.1951 -0.0000 0.9808
vn -0.1914 0.1939 0.9622
vn -0.1804 0.3805 0.9070
vn -0.1626 0.5528 0.8173
vn -0.1385 0.7041 0.6965
vn -0.1092 0.8286 0.5490
vn -0.0757 0.9217 0.3804
vn -0.0392 0.9796 0.1971
vn -0.0769 -0.9796 0.1857
vn -0.1484 -0.9217 0.3584
vn -0.2142 -0.8286 0.5172
vn -0.2718 -0.7041 0.6561
vn -0.3189 -0.5528 0.7699
vn -0.3539 -0.3805 0.8544
vn -0.3754 -0.1939 0.9063
vn -0.3827 -0.0000 0.9239
vn -0.3754 0.1939 0.9063
vn -0.3539 0.3805 0.8544
vn -0.3189 0.5528 0.7699
vn -0.2718 0.7041 0.6561
vn -0.2142 0.8286 0.5172
vn -0.1484 0.9217 0.3584
vn -0.0769 0.9796 0.1857
vn -0.1117 -0.9796 0.1671
vn -0.2155 -0.9217 0.3225
vn -0.3110 -0.8286 0.4654
vn -0.3945 -0.7041 0.5905
vn -0.4630 -0.5528 0.6929
vn -0.5138 -0.3805 0.7689
vn -0.5450 -0.1939 0.8157
vn -0.5556 -0.0000 0.8315
vn -0.5450 0.1939 0.8157
vn -0.5138 0.3805 0.7689
vn -0.4630 0.5528 0.6929
vn -0.3945 0.7041 0.5905
vn -0.3110 0.8286 0.4654
vn -0.2155 0.9217 0.3225
vn -0.1117 0.9796 0.1671
vn -0.1421 -0.9796 0.1421
vn -0.2743 -0.9217 0.2743
vn -0.3958 -0.8286 0.3958
vn -0.5021 -0.7041 0.5021
vn -0.5893 -0.5528 0.5893
vn -0.6539 -0.3805 0.6539
vn -0.6937 -0.1939 0.6937
vn -0.7071 -0.0000 0.7071
vn -0.6937 0.1939 0.6937
vn -0.6539 0.3805 0.6539
vn -0.5893 0.5528 0.5893
vn -0.5021 0.7041 0.5021
vn -0.3958 0.8286 0.3958
vn -0.2743 0.9217 0.2743
vn -0.1421 0.9796 0.1421
vn -0.1671 -0.9796 0.1117
vn -0.3225 -0.9217 0.2155
vn -0.4654 -0.8286 0.3110
vn -0.5905 -0.7041 0.3945
vn -0.6929 -0.5528 0.4630
vn -0.7689 -0.3805 0.5138
vn -0.8157 -0.1939 0.5450
vn -0.8315 -0.0000 0.5556
vn -0.8157 0.1939 0.5450
vn -0.7689 0.3805 0.5138
vn -0.6929 0.5528 0.4630
vn -0.5905 0.7041 0.3945
vn -0.4654 0.8286 0.3110
vn -0.3225 0.9217 0.2155
vn -0.1671 0.9796 0.1117
vn -0.1857 -0.9796 0.0769
vn -0.3584 -0.9217 0.1484
vn -0.5172 -0.8286 0.2142
vn -0.6561 -0.7041 0.2718
vn -0.7699 -0.5528 0.3189
vn -0.8544 -0.3805 0.3539
vn -0.9063 -0.1939 0.3754
vn -0.9239 -0.0000 0.3827
vn -0.9063 0.1939 0.3754
vn -0.8544 0.3805 0.3539
vn -0.7699 0.5528 0.3189
vn -0.6561 0.7041 0.2718
vn -0.5172 0.8286 0.2142
vn -0.3584 0.9217 0.1484
vn -0.1857 0.9796 0.0769
vn -0.1971 -0.9796 0.0392
vn -0.3804 -0.9217 0.0757
vn -0.5490 -0.8286 0.1092
vn -0.6965 -0.7041 0.1385
vn -0.8173 -0.5528 0.1626
vn -0.9070 -0.3805 0.1804
vn -0.9622 -0.1939 0.1914
vn -0.9808 -0.0000 0.1951
vn -0.9622 0.1939 0.1914
vn -0.9070 0.3805 0.1804
vn -0.8173 0.5528 0.1626
vn -0.6965 0.7041 0.1385
vn -0.5490 0.8286 0.1092
vn -0.3804 0.9217 0.0757
vn -0.1971 0.9796 0.0392
vn -0.2010 -0.9796 -0.0000
vn -0.3879 -0.9217 -0.0000
vn -0.5598 -0.8286 -0.0000
vn -0.7101 -0.7041 -0.0000
vn -0.8333 -0.5528 -0.0000
vn -0.9248 -0.3805 -0.0000
vn -0.9810 -0.1939 -0.0000
vn -1.0000 -0.0000 -0.0000
vn -0.9810 0.1939 -0.0000
vn -0.9248 0.3805 -0.0000
vn -0.8333 0.5528 -0.0000
vn -0.7101 0.7041 -0.0000
vn -0.5598 0.8286 -0.0000
vn -0.3879 0.9217 -0.0000
vn -0.2010 0.9796 -0.0000
vn -0.1971 -0.9796 -0.0392
vn -0.3804 -0.9217 -0.0757
vn -0.5490 -0.8286 -0.1092
vn -0.6965 -0.7041 -0.1385
vn -0.8173 -0.5528 -0.1626
vn -0.9070 -0.3805 -0.1804
vn -0.9622 -0.1939 -0.1914
vn -0.9808 -0.0000 -0.1951
vn -0.9622 0.1939 -0.1914
vn -0.9070 0.3805 -0.1804
vn -0.8173 0.5528 -0.1626
vn -0.6965 0.7041 -0.1385
vn -0.5490 0.8286 -0.1092
vn -0.3804 0.9217 -0.0757
vn -0.1971 0.9796 -0.0392
vn -0.1857 -0.9796 -0.0769
vn -0.3584 -0.9217 -0.1484
vn -0.5172 -0.8286 -0.2142
vn -0.6561 -0.7041 -0.2718
vn -0.7699 -0.5528 -0.3189
vn -0.8544 -0.3805 -0.3539
vn -0.9063 -0.1939 -0.3754
vn -0.9239 -0.0000 -0.3827
vn -0.9063 0.1939 -0.3754
vn -0.8544 0.3805 -0.3539
vn -0.7699 0.5528 -0.3189
vn -0.6561 0.7041 -0.2718
vn -0.5172 0.8286 -0.2142
vn -0.3584 0.9217 -0.1484
vn -0.1857 0.9796 -0.0769
vn -0.1671 -0.9796 -0.1117
vn -0.3225 -0.9217 -0.2155
vn -0.4654 -0.8286 -0.3110
vn -0.5905 -0.7041 -0.3945
vn -0.6929 -0.5528 -0.4630
vn -0.7689 -0.3805 -0.5138
vn -0.8157 -0.1939 -0.5450
vn -0.8315 -0.0000 -0.5556
vn -0.8157 0.1939 -0.5450
vn -0.7689 0.3805 -0.5138
vn -0.6929 0.5528 -0.4630
vn -0.5905 0.7041 -0.3945
vn -0.4654 0.8286 -0.3110
vn -0.3225 0.9217 -0.2155
vn -0.1671 0.9796 -0.1117
vn -0.1421 -0.9796 -0.1421
vn -0.2743 -0.9217 -0.2743
vn -0.3958 -0.8286 -0.3958
vn -0.5021 -0.7041 -0.5021
vn -0.5893 -0.5528 -0.5893
vn -0.6539 -0.3805 -0.6539
vn -0.6937 -0.1939 -0.6937
vn -0.7071 -0.0000 -0.7071
vn -0.6937 0.1939 -0.6937
vn -0.6539 0.3805 -0.6539
vn -0.5893 0.5528 -0.5893
vn -0.5021 0.7041 -0.5021
vn -0.3958 0.8286 -0.3958
vn -0.2743 0.9217 -0.2743
vn -0.1421 0.9796 -0.1421
vn -0.1117 -0.9796 -0.1671
vn -0.2155 -0.9217 -0.3225
vn -0.3110 -0.8286 -0.4654
vn -0.3945 -0.7041 -0.5905
vn -0.4630 -0.5528 -0.6929
vn -0.5138 -0.3805 -0.7689
vn -0.5450 -0.1939 -0.8157
vn -0.5556 -0.0000 -0.8315
vn -0.5450 0.1939 -0.8157
vn -0.5138 0.3805 -0.7689
vn -0.4630 0.5528 -0.6929
vn -0.3945 0.7041 -0.5905
vn -0.3110 0.8286 -0.4654
vn -0.2155 0.9217 -0.3225
vn -0.1117 0.9796 -0.1671
vn -0.0769 -0.9796 -0.1857
vn -0.1484 -0.9217 -0.3584
vn -0.2142 -0.8286 -0.5172
vn -0.2718 -0.7041 -0.6561
vn -0.3189 -0.5528 -0.7699
vn -0.3539 -0.3805 -0.8544
vn -0.3754 -0.1939 -0.9063
vn -0.3827 -0.0000 -0.9239
vn -0.3754 0.1939 -0.9063
vn -0.3539 0.3805 -0.8544
vn -0.3189 0.5528 -0.7699
vn -0.2718 0.7041 -0.6561
vn -0.2142 0.8286 -0.5172
vn -0.1484 0.9217 -0.3584
vn -0.0769 0.9796 -0.1857
vn -0.0392 -0.9796 -0.1971
vn -0.0757 -0.9217 -0.3804
vn -0.1092 -0.8286 -0.5490
vn -0.1385 -0.7041 -0.6965
vn -0.1626 -0.5528 -0.8173
vn -0.1804 -0.3805 -0.9070
vn -0.1914 -0.1939 -0.9622
vn -0.1951 -0.0000 -0.9808
vn -0.1914 0.1939 -0.9622
vn -0.1804 0.3805 -0.9070
vn -0.1626 0.5528 -0.8173
vn -0.1385 0.7041 -0.6965
vn -0.1092 0.8286 -0.5490
vn -0.0757 0.9217 -0.3804
vn -0.0392 0.9796 -0.1971
vn -0.0000 -0.9796 -0.2010
vn -0.0000 -0.9217 -0.3879
vn -0.0000 -0.8286 -0.5598
vn -0.0000 -0.7041 -0.7101
vn -0.0000 -0.5528 -0.8333
vn -0.0000 -0.3805 -0.9248
vn -0.0000 -0.1939 -0.9810
vn -0.0000 -0.0000 -1.0000
vn -0.0000 0.1939 -0.9810
vn -0.0000 0.3805 -0.9248
vn -0.0000 0.5528 -0.8333
vn -0.0000 0.7041 -0.7101
vn -0.0000 0.8286 -0.5598
vn -0.0000 0.9217 -0.3879
vn -0.0000 0.9796 -0.2010
vn 0.0392 -0.9796 -0.1971
vn 0.0757 -0.9217 -0.3804
vn 0.1092 -0.8286 -0.5490
vn 0.1385 -0.7041 -0.6965
vn 0.1626 -0.5528 -0.8173
vn 0.1804 -0.3805 -0.9070
vn 0.1914 -0.1939 -0.9622
vn 0.1951 -0.0000 -0.9808
vn 0.1914 0.1939 -0.9622
vn 0.1804 0.3805 -0.9070
vn 0.1626 0.5528 -0.8173
vn 0.1385 0.7041 -0.6965
vn 0.1092 0.8286 -0.5490
vn 0.0757 0.9217 -0.3804
vn 0.0392 0.9796 -0.1971
vn 0.0769 -0.9796 -0.1857
vn 0.1484 -0.9217 -0.3584
vn 0.2142 -0.8286 -0.5172
vn 0.2718 -0.7041 -0.6561
vn 0.3189 -0.5528 -0.7699
vn 0.3539 -0.3805 -0.8544
vn 0.3754 -0.1939 -0.9063
vn 0.3827 -0.0000 -0.9239
vn 0.3754 0.1939 -0.9063
vn 0.3539 0.3805 -0.8544
vn 0.3189 0.5528 -0.7699
vn 0.2718 0.7041 -0.6561
vn 0.2142 0.8286 -0.5172
vn 0.1484 0.9217 -0.3584
vn 0.0769 0.9796 -0.1857
vn 0.1117 -0.9796 -0.1671
vn 0.2155 -0.9217 -0.3225
vn 0.3110 -0.8286 -0.4654
vn 0.3945 -0.7041 -0.5905
vn 0.4630 -0.5528 -0.6929
vn 0.5138 -0.3805 -0.7689
vn 0.5450 -0.1939 -0.8157
vn 0.5556 -0.0000 -0.8315
vn 0.5450 0.1939 -0.8157
vn 0.5138 0.3805 -0.7689
vn 0.4630 0.5528 -0.6929
vn 0.3945 0.7041 -0.5905
vn 0.3110 0.8286 -0.4654
vn 0.2155 0.9217 -0.3225
vn 0.1117 0.9796 -0.1671
vn 0.1421 -0.9796 -0.1421
vn 0.2743 -0.9217 -0.2743
vn 0.3958 -0.8286 -0.3958
vn 0.5021 -0.7041 -0.5021
vn 0.5893 -0.5528 -0.5893
vn 0.6539 -0.3805 -0.6539
vn 0.6937 -0.1939 -0.6937
vn 0.7071 -0.0000 -0.7071
vn 0.6937 0.1939 -0.6937
vn 0.6539 0.3805 -0.6539
vn 0.5893 0.5528 -0.5893
vn 0.5021 0.7041 -0.5021
vn 0.3958 0.8286 -0.3958
vn 0.2743 0.9217 -0.2743
vn 0.1421 0.9796 -0.1421
vn 0.1671 -0.9796 -0.1117
vn 0.3225 -0.9217 -0.2155
vn 0.4654 -0.8286 -0.3110
vn 0.5905 -0.7041 -0.3945
vn 0.6929 -0.5528 -0.4630
vn 0.7689 -0.3805 -0.5138
vn 0.8157 -0.1939 -0.5450
vn 0.8315 -0.0000 -0.5556
vn 0.8157 0.1939 -0.5450
vn 0.7689 0.3805 -0.5138
vn 0.6929 0.5528 -0.4630
vn 0.5905 0.7041 -0.3945
vn 0.4654 0.8286 -0.3110
vn 0.3225 0.9217 -0.2155
vn 0.1671 0.9796 -0.1117
vn 0.1857 -0.9796 -0.0769
vn 0.3584 -0.9217 -0.1484
vn 0.5172 -0.8286 -0.2142
vn 0.6561 -0.7041 -0.2718
vn 0.7699 -0.5528 -0.3189
vn 0.8544 -0.3805 -0.3539
vn 0.9063 -0.1939 -0.3754
vn 0.9239 -0.0000 -0.3827
vn 0.9063 0.1939 -0.3754
vn 0.8544 0.3805 -0.3539
vn 0.7699 0.5528 -0.3189
vn 0.6561 0.7041 -0.2718
vn 0.5172 0.8286 -0.2142
vn 0.3584 0.9217 -0.1484
vn 0.1857 0.9796 -0.0769
vn 0.1971 -0.9796 -0.0392
vn 0.3804 -0.9217 -0.0757
vn 0.5490 -0.8286 -0.1092
vn 0.6965 -0.7041 -0.1385
vn 0.8173 -0.5528 -0.1626
vn 0.9070 -0.3805 -0.1804
vn 0.9622 -0.1939 -0.1914
vn 0.9808 -0.0000 -0.1951
vn 0.9622 0.1939 -0.1914
vn 0.9070 0.3805 -0.1804
vn 0.8173 0.5528 -0.1626
vn 0.6965 0.7041 -0.1385
vn 0.5490 0.8286 -0.1092
vn 0.3804 0.9217 -0.0757
vn 0.1971 0.9796 -0.0392
vn 0.2010 -0.9796 -0.0000
vn 0.3879 -0.9217 -0.0000
vn 0.5598 -0.8286 -0.0000
vn 0.7101 -0.7041 -0.0000
vn 0.8333 -0.5528 -0.0000
vn 0.9248 -0.3805 -0.0000
vn 0.9810 -0.1939 -0.0000
vn 1.0000 -0.0000 -0.0000
vn 0.9810 0.1939 -0.0000
vn 0.9248 0.3805 -0.0000
vn 0.8333 0.5528 -0.0000
vn 0.7101 0.7041 -0.0000
vn 0.5598 0.8286 -0.0000
vn 0.3879 0.9217 -0.0000
vn 0.2010 0.9796 -0.0000
vn 0.1971 -0.9796 0.0392
vn 0.3804 -0.9217 0.0757
vn 0.5490 -0.8286 0.1092
vn 0.6965 -0.7041 0.1385
vn 0.8173 -0.5528 0.1626
vn 0.9070 -0.3805 0.1804
vn 0.9622 -0.1939 0.1914
vn 0.9808 -0.0000 0.1951
vn 0.9622 0.1939 0.1914
vn 0.9070 0.3805 0.1804
vn 0.8173 0.5528 0.1626
vn 0.6965 0.7041 0.1385
vn 0.5490 0.8286 0.1092
vn 0.3804 0.9217 0.0757
vn 0.1971 0.9796 0.0392
vn 0.1857 -0.9796 0.0769
vn 0.3584 -0.9217 0.1484
vn 0.5172 -0.8286 0.2142
vn 0.6561 -0.7041 0.2718
vn 0.7699 -0.5528 0.3189
vn 0.8544 -0.3805 0.3539
vn 0.9063 -0.1939 0.3754
vn 0.9239 -0.0000 0.3827
vn 0.9063 0.1939 0.3754
vn 0.8544 0.3805 0.3539
vn 0.7699 0.5528 0.3189
vn 0.6561 0.7041 0.2718
vn 0.5172 0.8286 0.2142
vn 0.3584 0.9217 0.1484
vn 0.1857 0.9796 0.0769
vn 0.1671 -0.9796 0.1117
vn 0.3225 -0.9217 0.2155
vn 0.4654 -0.8286 0.3110
vn 0.5905 -0.7041 0.3945
vn 0.6929 -0.5528 0.4630
vn 0.7689 -0.3805 0.5138
vn 0.8157 -0.1939 0.5450
vn 0.8315 -0.0000 0.5556
vn 0.8157 0.1939 0.5450
vn 0.7689 0.3805 0.5138
vn 0.6929 0.5528 0.4630
vn 0.5905 0.7041 0.3945
vn 0.4654 0.8286 0.3110
vn 0.3225 0.9217 0.2155
vn 0.1671 0.9796 0.1117
vn 0.1421 -0.9796 0.1421
vn 0.2743 -0.9217 0.2743
vn 0.3958 -0.8286 0.3958
vn 0.5021 -0.7041 0.5021
vn 0.5893 -0.5528 0.5893
vn 0.6539 -0.3805 0.6539
vn 0.6937 -0.1939 0.6937
vn 0.7071 -0.0000 0.7071
vn 0.6937 0.1939 0.6937
vn 0.6539 0.3805 0.6539
vn 0.5893 0.5528 0.5893
vn 0.5021 0.7041 0.5021
vn 0.3958 0.8286 0.3958
vn 0.2743 0.9217 0.2743
vn 0.1421 0.9796 0.1421
vn 0.1117 -0.9796 0.1671
vn 0.2155 -0.9217 0.3225
vn 0.3110 -0.8286 0.4654
vn 0.3945 -0.7041 0.5905
vn 0.4630 -0.5528 0.6929
vn 0.5138 -0.3805 0.7689
vn 0.5450 -0.1939 0.8157
vn 0.5556 -0.0000 0.8315
vn 0.5450 0.1939 0.8157
vn 0.5138 0.3805 0.7689
vn 0.4630 0.5528 0.6929
vn 0.3945 0.7041 0.5905
vn 0.3110 0.8286 0.4654
vn 0.2155 0.9217 0.3225
vn 0.1117 0.9796 0.1671
vn 0.0769 -0.9796 0.1857
vn 0.1484 -0.9217 0.3584
vn 0.2142 -0.8286 0.5172
vn 0.2718 -0.7041 0.6561
vn 0.3189 -0.5528 0.7699
vn 0.3539 -0.3805 0.8544
vn 0.3754 -0.1939 0.9063
vn 0.3827 -0.0000 0.9239
vn 0.3754 0.1939 0.9063
vn 0.3539 0.3805 0.8544
vn 0.3189 0.5528 0.7699
vn 0.2718 0.7041 0.6561
vn 0.2142 0.8286 0.5172
vn 0.1484 0.9217 0.3584
vn 0.0769 0.9796 0.1857
vn 0.0392 -0.9796 0.1971
vn 0.0757 -0.9217 0.3804
vn 0.1092 -0.8286 0.5490
vn 0.1385 -0.7041 0.6965
vn 0.1626 -0.5528 0.8173
vn 0.1804 -0.3805 0.9070
vn 0.1914 -0.1939 0.9622
vn 0.1951 -0.0000 0.9808
vn 0.1914 0.1939 0.9622
vn 0.1804 0.3805 0.9070
vn 0.1626 0.5528 0.8173
vn 0.1385 0.7041 0.6965
vn 0.1092 0.8286 0.5490
vn 0.0757 0.9217 0.3804
vn 0.0392 0.9796 0.1971
vn -0.0000 -0.9796 0.2010
vn -0.0000 -0.9217 0.3879
vn -0.0000 -0.7041 0.7101
vn -0.0000 -0.3805 0.9248
vn -0.0000 0.3805 0.9248
vn -0.0000 0.7041 0.7101
vn -0.0000 0.8286 0.5598
vn -0.0000 0.9217 0.3879
vn -0.0000 0.9796 0.2010
vt 0.750000 0.812500
vt 0.718750 0.875000
vt 0.750000 0.875000
vt 0.718750 0.312500
vt 0.750000 0.375000
vt 0.750000 0.312500
vt 0.750000 0.750000
vt 0.718750 0.812500
vt 0.750000 0.250000
vt 0.718750 0.687500
vt 0.750000 0.687500
vt 0.718750 0.187500
vt 0.750000 0.187500
vt 0.750000 0.625000
vt 0.718750 0.125000
vt 0.750000 0.125000
vt 0.750000 0.562500
vt 0.718750 0.625000
vt 0.718750 0.062500
vt 0.750000 0.062500
vt 0.718750 0.500000
vt 0.750000 0.500000
vt 0.750000 0.937500
vt 0.718750 0.937500
vt 0.734375 1.000000
vt 0.734375 0.000000
vt 0.718750 0.437500
vt 0.750000 0.437500
vt 0.718750 0.375000
vt 0.687500 0.437500
vt 0.687500 0.875000
vt 0.687500 0.375000
vt 0.687500 0.812500
vt 0.687500 0.750000
vt 0.718750 0.750000
vt 0.718750 0.250000
vt 0.687500 0.312500
vt 0.687500 0.687500
vt 0.687500 0.250000
vt 0.687500 0.625000
vt 0.687500 0.187500
vt 0.718750 0.562500
vt 0.687500 0.062500
vt 0.687500 0.500000
vt 0.687500 0.937500
vt 0.703125 1.000000
vt 0.703125 0.000000
vt 0.656250 0.250000
vt 0.656250 0.625000
vt 0.687500 0.125000
vt 0.656250 0.187500
vt 0.687500 0.562500
vt 0.656250 0.125000
vt 0.656250 0.562500
vt 0.656250 0.937500
vt 0.671875 1.000000
vt 0.671875 0.000000
vt 0.656250 0.062500
vt 0.656250 0.437500
vt 0.656250 0.875000
vt 0.656250 0.375000
vt 0.656250 0.812500
vt 0.656250 0.750000
vt 0.656250 0.312500
vt 0.656250 0.687500
vt 0.625000 0.375000
vt 0.625000 0.812500
vt 0.625000 0.750000
vt 0.625000 0.250000
vt 0.625000 0.625000
vt 0.625000 0.187500
vt 0.625000 0.125000
vt 0.656250 0.500000
vt 0.625000 0.562500
vt 0.625000 0.937500
vt 0.640625 1.000000
vt 0.640625 0.000000
vt 0.625000 0.062500
vt 0.625000 0.437500
vt 0.625000 0.875000
vt 0.593750 0.125000
vt 0.593750 0.625000
vt 0.593750 0.062500
vt 0.625000 0.500000
vt 0.593750 0.562500
vt 0.593750 0.937500
vt 0.609375 1.000000
vt 0.609375 0.000000
vt 0.593750 0.437500
vt 0.593750 0.375000
vt 0.593750 0.875000
vt 0.625000 0.312500
vt 0.593750 0.750000
vt 0.593750 0.250000
vt 0.625000 0.687500
vt 0.562500 0.812500
vt 0.593750 0.812500
vt 0.593750 0.312500
vt 0.562500 0.375000
vt 0.562500 0.750000
vt 0.562500 0.250000
vt 0.593750 0.687500
vt 0.593750 0.187500
vt 0.562500 0.625000
vt 0.562500 0.187500
vt 0.562500 0.125000
vt 0.593750 0.500000
vt 0.562500 0.562500
vt 0.562500 0.937500
vt 0.578125 1.000000
vt 0.578125 0.000000
vt 0.562500 0.062500
vt 0.562500 0.437500
vt 0.562500 0.875000
vt 0.531250 0.625000
vt 0.531250 0.062500
vt 0.562500 0.500000
vt 0.531250 0.562500
vt 0.531250 0.937500
vt 0.546875 1.000000
vt 0.546875 0.000000
vt 0.531250 0.437500
vt 0.531250 0.875000
vt 0.531250 0.375000
vt 0.562500 0.312500
vt 0.531250 0.750000
vt 0.531250 0.250000
vt 0.562500 0.687500
vt 0.531250 0.125000
vt 0.531250 0.312500
vt 0.500000 0.375000
vt 0.500000 0.750000
vt 0.531250 0.812500
vt 0.500000 0.250000
vt 0.531250 0.687500
vt 0.531250 0.187500
vt 0.500000 0.625000
vt 0.500000 0.187500
vt 0.500000 0.062500
vt 0.531250 0.500000
vt 0.500000 0.562500
vt 0.500000 0.937500
vt 0.515625 1.000000
vt 0.515625 0.000000
vt 0.500000 0.437500
vt 0.500000 0.875000
vt 0.500000 0.812500
vt 0.468750 0.062500
vt 0.500000 0.125000
vt 0.500000 0.500000
vt 0.468750 0.562500
vt 0.468750 0.937500
vt 0.484375 1.000000
vt 0.484375 0.000000
vt 0.468750 0.437500
vt 0.468750 0.375000
vt 0.468750 0.875000
vt 0.500000 0.312500
vt 0.468750 0.750000
vt 0.468750 0.250000
vt 0.500000 0.687500
vt 0.468750 0.625000
vt 0.468750 0.125000
vt 0.437500 0.750000
vt 0.468750 0.812500
vt 0.437500 0.250000
vt 0.468750 0.312500
vt 0.468750 0.687500
vt 0.468750 0.187500
vt 0.437500 0.625000
vt 0.437500 0.187500
vt 0.437500 0.062500
vt 0.468750 0.500000
vt 0.437500 0.562500
vt 0.437500 0.937500
vt 0.453125 1.000000
vt 0.453125 0.000000
vt 0.437500 0.437500
vt 0.437500 0.875000
vt 0.437500 0.375000
vt 0.437500 0.812500
vt 0.437500 0.500000
vt 0.406250 0.562500
vt 0.406250 0.937500
vt 0.421875 1.000000
vt 0.421875 0.000000
vt 0.406250 0.062500
vt 0.406250 0.437500
vt 0.406250 0.875000
vt 0.406250 0.375000
vt 0.406250 0.812500
vt 0.437500 0.312500
vt 0.406250 0.750000
vt 0.406250 0.250000
vt 0.437500 0.687500
vt 0.406250 0.625000
vt 0.437500 0.125000
vt 0.406250 0.187500
vt 0.406250 0.125000
vt 0.375000 0.250000
vt 0.406250 0.312500
vt 0.406250 0.687500
vt 0.375000 0.750000
vt 0.375000 0.625000
vt 0.375000 0.187500
vt 0.375000 0.125000
vt 0.406250 0.500000
vt 0.375000 0.562500
vt 0.375000 0.937500
vt 0.390625 1.000000
vt 0.390625 0.000000
vt 0.375000 0.062500
vt 0.375000 0.437500
vt 0.375000 0.875000
vt 0.375000 0.375000
vt 0.375000 0.812500
vt 0.359375 0.000000
vt 0.343750 0.062500
vt 0.343750 0.437500
vt 0.375000 0.500000
vt 0.343750 0.937500
vt 0.343750 0.375000
vt 0.343750 0.875000
vt 0.375000 0.312500
vt 0.343750 0.750000
vt 0.343750 0.250000
vt 0.375000 0.687500
vt 0.343750 0.625000
vt 0.343750 0.125000
vt 0.343750 0.562500
vt 0.359375 1.000000
vt 0.343750 0.187500
vt 0.312500 0.250000
vt 0.312500 0.625000
vt 0.343750 0.687500
vt 0.312500 0.187500
vt 0.312500 0.125000
vt 0.343750 0.500000
vt 0.312500 0.562500
vt 0.312500 0.937500
vt 0.328125 1.000000
vt 0.328125 0.000000
vt 0.312500 0.062500
vt 0.312500 0.437500
vt 0.312500 0.875000
vt 0.312500 0.375000
vt 0.312500 0.812500
vt 0.343750 0.812500
vt 0.343750 0.312500
vt 0.312500 0.750000
vt 0.281250 0.875000
vt 0.281250 0.375000
vt 0.281250 0.812500
vt 0.312500 0.312500
vt 0.281250 0.750000
vt 0.281250 0.250000
vt 0.312500 0.687500
vt 0.281250 0.625000
vt 0.281250 0.187500
vt 0.281250 0.125000
vt 0.312500 0.500000
vt 0.281250 0.562500
vt 0.281250 0.937500
vt 0.296875 1.000000
vt 0.296875 0.000000
vt 0.281250 0.062500
vt 0.281250 0.437500
vt 0.250000 0.625000
vt 0.281250 0.687500
vt 0.250000 0.187500
vt 0.250000 0.062500
vt 0.281250 0.500000
vt 0.250000 0.562500
vt 0.250000 0.937500
vt 0.265625 1.000000
vt 0.265625 0.000000
vt 0.250000 0.437500
vt 0.250000 0.375000
vt 0.250000 0.812500
vt 0.281250 0.312500
vt 0.250000 0.750000
vt 0.250000 0.250000
vt 0.218750 0.375000
vt 0.218750 0.875000
vt 0.250000 0.875000
vt 0.250000 0.312500
vt 0.218750 0.750000
vt 0.218750 0.250000
vt 0.250000 0.687500
vt 0.218750 0.625000
vt 0.218750 0.125000
vt 0.250000 0.125000
vt 0.218750 0.062500
vt 0.250000 0.500000
vt 0.218750 0.562500
vt 0.218750 0.937500
vt 0.234375 1.000000
vt 0.234375 0.000000
vt 0.218750 0.437500
vt 0.187500 0.187500
vt 0.218750 0.187500
vt 0.187500 0.625000
vt 0.187500 0.062500
vt 0.218750 0.500000
vt 0.187500 0.562500
vt 0.187500 0.937500
vt 0.203125 1.000000
vt 0.203125 0.000000
vt 0.187500 0.437500
vt 0.187500 0.375000
vt 0.187500 0.812500
vt 0.218750 0.812500
vt 0.218750 0.312500
vt 0.187500 0.750000
vt 0.187500 0.250000
vt 0.218750 0.687500
vt 0.156250 0.812500
vt 0.187500 0.875000
vt 0.187500 0.312500
vt 0.156250 0.375000
vt 0.156250 0.750000
vt 0.156250 0.250000
vt 0.187500 0.687500
vt 0.156250 0.625000
vt 0.156250 0.125000
vt 0.187500 0.125000
vt 0.156250 0.062500
vt 0.187500 0.500000
vt 0.156250 0.562500
vt 0.156250 0.937500
vt 0.171875 1.000000
vt 0.171875 0.000000
vt 0.156250 0.437500
vt 0.156250 0.875000
vt 0.125000 0.625000
vt 0.125000 0.125000
vt 0.156250 0.500000
vt 0.125000 0.562500
vt 0.125000 0.937500
vt 0.140625 1.000000
vt 0.140625 0.000000
vt 0.125000 0.062500
vt 0.125000 0.437500
vt 0.125000 0.875000
vt 0.125000 0.375000
vt 0.156250 0.312500
vt 0.125000 0.750000
vt 0.125000 0.250000
vt 0.156250 0.687500
vt 0.156250 0.187500
vt 0.125000 0.312500
vt 0.093750 0.375000
vt 0.093750 0.750000
vt 0.125000 0.812500
vt 0.093750 0.250000
vt 0.125000 0.687500
vt 0.125000 0.187500
vt 0.093750 0.625000
vt 0.093750 0.125000
vt 0.093750 0.062500
vt 0.125000 0.500000
vt 0.093750 0.562500
vt 0.093750 0.937500
vt 0.109375 1.000000
vt 0.109375 0.000000
vt 0.093750 0.437500
vt 0.093750 0.875000
vt 0.062500 0.125000
vt 0.093750 0.500000
vt 0.062500 0.562500
vt 0.062500 0.937500
vt 0.078125 1.000000
vt 0.078125 0.000000
vt 0.062500 0.062500
vt 0.062500 0.437500
vt 0.062500 0.875000
vt 0.062500 0.375000
vt 0.062500 0.812500
vt 0.093750 0.812500
vt 0.093750 0.312500
vt 0.062500 0.750000
vt 0.062500 0.250000
vt 0.093750 0.687500
vt 0.093750 0.187500
vt 0.062500 0.625000
vt 0.031250 0.250000
vt 0.062500 0.312500
vt 0.062500 0.687500
vt 0.031250 0.750000
vt 0.062500 0.187500
vt 0.031250 0.625000
vt 0.031250 0.125000
vt 0.062500 0.500000
vt 0.031250 0.562500
vt 0.031250 0.937500
vt 0.046875 1.000000
vt 0.046875 0.000000
vt 0.031250 0.062500
vt 0.031250 0.437500
vt 0.031250 0.875000
vt 0.031250 0.375000
vt 0.000000 0.937500
vt 0.015625 1.000000
vt 0.015625 0.000000
vt 0.000000 0.062500
vt 0.000000 0.437500
vt 0.031250 0.500000
vt 0.000000 0.875000
vt 0.000000 0.375000
vt 0.031250 0.812500
vt 0.031250 0.312500
vt 0.000000 0.750000
vt 0.000000 0.250000
vt 0.031250 0.687500
vt 0.031250 0.187500
vt 0.000000 0.625000
vt 0.000000 0.125000
vt 0.000000 0.562500
vt 1.000000 0.687500
vt 0.968750 0.750000
vt 1.000000 0.750000
vt 1.000000 0.187500
vt 0.968750 0.250000
vt 1.000000 0.250000
vt 0.968750 0.625000
vt 1.000000 0.625000
vt 0.968750 0.125000
vt 1.000000 0.125000
vt 1.000000 0.562500
vt 0.968750 0.062500
vt 1.000000 0.062500
vt 1.000000 0.500000
vt 0.968750 0.562500
vt 1.000000 0.937500
vt 0.968750 0.937500
vt 0.984375 1.000000
vt 0.984375 0.000000
vt 0.968750 0.437500
vt 1.000000 0.437500
vt 1.000000 0.875000
vt 0.968750 0.375000
vt 1.000000 0.375000
vt 1.000000 0.812500
vt 0.968750 0.875000
vt 1.000000 0.312500
vt 0.937500 0.437500
vt 0.968750 0.500000
vt 0.937500 0.937500
vt 0.937500 0.375000
vt 0.968750 0.812500
vt 0.937500 0.875000
vt 0.968750 0.312500
vt 0.937500 0.750000
vt 0.937500 0.250000
vt 0.968750 0.687500
vt 0.968750 0.187500
vt 0.937500 0.625000
vt 0.937500 0.125000
vt 0.937500 0.062500
vt 0.937500 0.562500
vt 0.953125 1.000000
vt 0.953125 0.000000
vt 0.937500 0.187500
vt 0.906250 0.250000
vt 0.906250 0.625000
vt 0.937500 0.687500
vt 0.906250 0.125000
vt 0.937500 0.500000
vt 0.906250 0.562500
vt 0.906250 0.937500
vt 0.921875 1.000000
vt 0.921875 0.000000
vt 0.906250 0.062500
vt 0.906250 0.437500
vt 0.906250 0.875000
vt 0.906250 0.375000
vt 0.937500 0.812500
vt 0.937500 0.312500
vt 0.906250 0.750000
vt 0.875000 0.875000
vt 0.875000 0.375000
vt 0.906250 0.812500
vt 0.906250 0.312500
vt 0.875000 0.750000
vt 0.875000 0.250000
vt 0.906250 0.687500
vt 0.906250 0.187500
vt 0.875000 0.625000
vt 0.875000 0.125000
vt 0.875000 0.062500
vt 0.906250 0.500000
vt 0.875000 0.562500
vt 0.875000 0.937500
vt 0.890625 1.000000
vt 0.890625 0.000000
vt 0.875000 0.437500
vt 0.843750 0.625000
vt 0.875000 0.687500
vt 0.843750 0.125000
vt 0.875000 0.187500
vt 0.875000 0.500000
vt 0.843750 0.562500
vt 0.843750 0.937500
vt 0.859375 1.000000
vt 0.859375 0.000000
vt 0.843750 0.062500
vt 0.843750 0.437500
vt 0.843750 0.875000
vt 0.843750 0.375000
vt 0.875000 0.812500
vt 0.875000 0.312500
vt 0.843750 0.750000
vt 0.843750 0.250000
vt 0.812500 0.375000
vt 0.843750 0.812500
vt 0.812500 0.875000
vt 0.843750 0.312500
vt 0.812500 0.750000
vt 0.812500 0.250000
vt 0.843750 0.687500
vt 0.843750 0.187500
vt 0.812500 0.625000
vt 0.812500 0.125000
vt 0.812500 0.062500
vt 0.843750 0.500000
vt 0.812500 0.562500
vt 0.812500 0.937500
vt 0.828125 1.000000
vt 0.828125 0.000000
vt 0.812500 0.437500
vt 0.781250 0.125000
vt 0.812500 0.187500
vt 0.781250 0.625000
vt 0.812500 0.500000
vt 0.781250 0.562500
vt 0.781250 0.937500
vt 0.796875 1.000000
vt 0.796875 0.000000
vt 0.781250 0.062500
vt 0.781250 0.437500
vt 0.781250 0.875000
vt 0.781250 0.375000
vt 0.812500 0.812500
vt 0.812500 0.312500
vt 0.781250 0.750000
vt 0.781250 0.250000
vt 0.812500 0.687500
vt 0.781250 0.312500
vt 0.781250 0.812500
vt 0.781250 0.687500
vt 0.781250 0.187500
vt 0.781250 0.500000
vt 0.765625 1.000000
vt 0.765625 0.000000
vt 0.000000 0.500000
vt 0.000000 0.812500
vt 0.000000 0.312500
vt 0.000000 0.687500
vt 0.000000 0.187500
s 1
usemtl マテリアル
f 2/1/2 10/2/10 475/3/475
f 19/4/19 478/5/478 7/6/7
f 476/7/476 11/8/11 2/1/2
f 479/9/479 19/4/19 7/6/7
f 13/10/13 476/7/476 3/11/3
f 21/12/21 479/9/479 480/13/480
f 477/14/477 13/10/13 3/11/3
f 22/15/22 480/13/480 481/16/481
f 4/17/4 14/18/14 477/14/477
f 23/19/23 481/16/481 482/20/482
f 16/21/16 4/17/4 5/22/5
f 474/23/474 9/24/9 1/25/1
f 8/26/8 23/19/23 482/20/482
f 17/27/17 5/22/5 6/28/6
f 475/3/475 9/24/9 474/23/474
f 18/29/18 6/28/6 478/5/478
f 32/30/32 16/21/16 17/27/17
f 25/31/25 9/24/9 10/2/10
f 33/32/33 17/27/17 18/29/18
f 26/33/26 10/2/10 11/8/11
f 19/4/19 33/32/33 18/29/18
f 27/34/27 11/8/11 12/35/12
f 20/36/20 34/37/34 19/4/19
f 28/38/28 12/35/12 13/10/13
f 21/12/21 35/39/35 20/36/20
f 29/40/29 13/10/13 14/18/14
f 22/15/22 36/41/36 21/12/21
f 15/42/15 29/40/29 14/18/14
f 38/43/38 22/15/22 23/19/23
f 31/44/31 15/42/15 16/21/16
f 9/24/9 24/45/24 1/46/1
f 8/47/8 38/43/38 23/19/23
f 36/41/36 50/48/50 35/39/35
f 44/49/44 28/38/28 29/40/29
f 37/50/37 51/51/51 36/41/36
f 30/52/30 44/49/44 29/40/29
f 38/43/38 52/53/52 37/50/37
f 31/44/31 45/54/45 30/52/30
f 24/45/24 39/55/39 1/56/1
f 8/57/8 53/58/53 38/43/38
f 47/59/47 31/44/31 32/30/32
f 40/60/40 24/45/24 25/31/25
f 48/61/48 32/30/32 33/32/33
f 41/62/41 25/31/25 26/33/26
f 34/37/34 48/61/48 33/32/33
f 42/63/42 26/33/26 27/34/27
f 35/39/35 49/64/49 34/37/34
f 43/65/43 27/34/27 28/38/28
f 63/66/63 47/59/47 48/61/48
f 56/67/56 40/60/40 41/62/41
f 49/64/49 63/66/63 48/61/48
f 57/68/57 41/62/41 42/63/42
f 65/69/65 49/64/49 50/48/50
f 43/65/43 57/68/57 42/63/42
f 51/51/51 65/69/65 50/48/50
f 59/70/59 43/65/43 44/49/44
f 52/53/52 66/71/66 51/51/51
f 45/54/45 59/70/59 44/49/44
f 53/58/53 67/72/67 52/53/52
f 46/73/46 60/74/60 45/54/45
f 39/55/39 54/75/54 1/76/1
f 8/77/8 68/78/68 53/58/53
f 62/79/62 46/73/46 47/59/47
f 55/80/55 39/55/39 40/60/40
f 82/81/82 66/71/66 67/72/67
f 60/74/60 74/82/74 59/70/59
f 83/83/83 67/72/67 68/78/68
f 61/84/61 75/85/75 60/74/60
f 54/75/54 69/86/69 1/87/1
f 8/88/8 83/83/83 68/78/68
f 77/89/77 61/84/61 62/79/62
f 55/80/55 69/86/69 54/75/54
f 78/90/78 62/79/62 63/66/63
f 56/67/56 70/91/70 55/80/55
f 64/92/64 78/90/78 63/66/63
f 72/93/72 56/67/56 57/68/57
f 80/94/80 64/92/64 65/69/65
f 58/95/58 72/93/72 57/68/57
f 66/71/66 80/94/80 65/69/65
f 74/82/74 58/95/58 59/70/59
f 86/96/86 70/91/70 71/97/71
f 79/98/79 93/99/93 78/90/78
f 87/100/87 71/97/71 72/93/72
f 95/101/95 79/98/79 80/94/80
f 73/102/73 87/100/87 72/93/72
f 81/103/81 95/101/95 80/94/80
f 89/104/89 73/102/73 74/82/74
f 82/81/82 96/105/96 81/103/81
f 75/85/75 89/104/89 74/82/74
f 83/83/83 97/106/97 82/81/82
f 76/107/76 90/108/90 75/85/75
f 69/86/69 84/109/84 1/110/1
f 8/111/8 98/112/98 83/83/83
f 92/113/92 76/107/76 77/89/77
f 85/114/85 69/86/69 70/91/70
f 93/99/93 77/89/77 78/90/78
f 90/108/90 104/115/104 89/104/89
f 113/116/113 97/106/97 98/112/98
f 91/117/91 105/118/105 90/108/90
f 84/109/84 99/119/99 1/120/1
f 8/121/8 113/116/113 98/112/98
f 107/122/107 91/117/91 92/113/92
f 100/123/100 84/109/84 85/114/85
f 108/124/108 92/113/92 93/99/93
f 86/96/86 100/123/100 85/114/85
f 94/125/94 108/124/108 93/99/93
f 102/126/102 86/96/86 87/100/87
f 110/127/110 94/125/94 95/101/95
f 88/128/88 102/126/102 87/100/87
f 96/105/96 110/127/110 95/101/95
f 104/115/104 88/128/88 89/104/89
f 112/129/112 96/105/96 97/106/97
f 109/130/109 123/131/123 108/124/108
f 117/132/117 101/133/101 102/126/102
f 125/134/125 109/130/109 110/127/110
f 103/135/103 117/132/117 102/126/102
f 111/136/111 125/134/125 110/127/110
f 119/137/119 103/135/103 104/115/104
f 112/129/112 126/138/126 111/136/111
f 105/118/105 119/137/119 104/115/104
f 128/139/128 112/129/112 113/116/113
f 106/140/106 120/141/120 105/118/105
f 99/119/99 114/142/114 1/143/1
f 8/144/8 128/139/128 113/116/113
f 122/145/122 106/140/106 107/122/107
f 115/146/115 99/119/99 100/123/100
f 123/131/123 107/122/107 108/124/108
f 116/147/116 100/123/100 101/133/101
f 143/148/143 127/149/127 128/139/128
f 121/150/121 135/151/135 120/141/120
f 114/142/114 129/152/129 1/153/1
f 8/154/8 143/148/143 128/139/128
f 137/155/137 121/150/121 122/145/122
f 115/146/115 129/152/129 114/142/114
f 138/156/138 122/145/122 123/131/123
f 116/147/116 130/157/130 115/146/115
f 124/158/124 138/156/138 123/131/123
f 132/159/132 116/147/116 117/132/117
f 140/160/140 124/158/124 125/134/125
f 118/161/118 132/159/132 117/132/117
f 126/138/126 140/160/140 125/134/125
f 134/162/134 118/161/118 119/137/119
f 142/163/142 126/138/126 127/149/127
f 120/141/120 134/162/134 119/137/119
f 147/164/147 131/165/131 132/159/132
f 155/166/155 139/167/139 140/160/140
f 133/168/133 147/164/147 132/159/132
f 141/169/141 155/166/155 140/160/140
f 149/170/149 133/168/133 134/162/134
f 142/163/142 156/171/156 141/169/141
f 135/151/135 149/170/149 134/162/134
f 158/172/158 142/163/142 143/148/143
f 136/173/136 150/174/150 135/151/135
f 129/152/129 144/175/144 1/176/1
f 8/177/8 158/172/158 143/148/143
f 152/178/152 136/173/136 137/155/137
f 145/179/145 129/152/129 130/157/130
f 153/180/153 137/155/137 138/156/138
f 146/181/146 130/157/130 131/165/131
f 139/167/139 153/180/153 138/156/138
f 151/182/151 165/183/165 150/174/150
f 144/175/144 159/184/159 1/185/1
f 8/186/8 173/187/173 158/172/158
f 167/188/167 151/182/151 152/178/152
f 160/189/160 144/175/144 145/179/145
f 168/190/168 152/178/152 153/180/153
f 161/191/161 145/179/145 146/181/146
f 154/192/154 168/190/168 153/180/153
f 162/193/162 146/181/146 147/164/147
f 170/194/170 154/192/154 155/166/155
f 148/195/148 162/193/162 147/164/147
f 156/171/156 170/194/170 155/166/155
f 164/196/164 148/195/148 149/170/149
f 157/197/157 171/198/171 156/171/156
f 150/174/150 164/196/164 149/170/149
f 158/172/158 172/199/172 157/197/157
f 185/200/185 169/201/169 170/194/170
f 163/202/163 177/203/177 162/193/162
f 171/198/171 185/200/185 170/194/170
f 179/204/179 163/202/163 164/196/164
f 172/199/172 186/205/186 171/198/171
f 165/183/165 179/204/179 164/196/164
f 173/187/173 187/206/187 172/199/172
f 166/207/166 180/208/180 165/183/165
f 159/184/159 174/209/174 1/210/1
f 8/211/8 188/212/188 173/187/173
f 182/213/182 166/207/166 167/188/167
f 175/214/175 159/184/159 160/189/160
f 183/215/183 167/188/167 168/190/168
f 176/216/176 160/189/160 161/191/161
f 169/201/169 183/215/183 168/190/168
f 177/203/177 161/191/161 162/193/162
f 8/217/8 203/218/203 188/212/188
f 197/219/197 181/220/181 182/213/182
f 175/214/175 189/221/189 174/209/174
f 198/222/198 182/213/182 183/215/183
f 176/216/176 190/223/190 175/214/175
f 184/224/184 198/222/198 183/215/183
f 192/225/192 176/216/176 177/203/177
f 200/226/200 184/224/184 185/200/185
f 178/227/178 192/225/192 177/203/177
f 186/205/186 200/226/200 185/200/185
f 194/228/194 178/227/178 179/204/179
f 202/229/202 186/205/186 187/206/187
f 180/208/180 194/228/194 179/204/179
f 203/218/203 187/206/187 188/212/188
f 181/220/181 195/230/195 180/208/180
f 174/209/174 189/221/189 1/231/1
f 201/232/201 215/233/215 200/226/200
f 209/234/209 193/235/193 194/228/194
f 202/229/202 216/236/216 201/232/201
f 195/230/195 209/234/209 194/228/194
f 203/218/203 217/237/217 202/229/202
f 196/238/196 210/239/210 195/230/195
f 189/221/189 204/240/204 1/241/1
f 8/242/8 218/243/218 203/218/203
f 212/244/212 196/238/196 197/219/197
f 205/245/205 189/221/189 190/223/190
f 213/246/213 197/219/197 198/222/198
f 206/247/206 190/223/190 191/248/191
f 199/249/199 213/246/213 198/222/198
f 207/250/207 191/248/191 192/225/192
f 215/233/215 199/249/199 200/226/200
f 193/235/193 207/250/207 192/225/192
f 220/251/220 204/240/204 205/245/205
f 228/252/228 212/244/212 213/246/213
f 221/253/221 205/245/205 206/247/206
f 214/254/214 228/252/228 213/246/213
f 222/255/222 206/247/206 207/250/207
f 230/256/230 214/254/214 215/233/215
f 208/257/208 222/255/222 207/250/207
f 216/236/216 230/256/230 215/233/215
f 224/258/224 208/257/208 209/234/209
f 217/237/217 231/259/231 216/236/216
f 210/239/210 224/258/224 209/234/209
f 218/243/218 232/260/232 217/237/217
f 211/261/211 225/262/225 210/239/210
f 204/240/204 219/263/219 1/264/1
f 8/265/8 233/266/233 218/243/218
f 227/267/227 211/261/211 212/244/212
f 239/268/239 223/269/223 224/258/224
f 232/260/232 246/270/246 231/259/231
f 225/262/225 239/268/239 224/258/224
f 248/271/248 232/260/232 233/266/233
f 226/272/226 240/273/240 225/262/225
f 219/263/219 234/274/234 1/275/1
f 8/276/8 248/271/248 233/266/233
f 242/277/242 226/272/226 227/267/227
f 220/251/220 234/274/234 219/263/219
f 243/278/243 227/267/227 228/252/228
f 236/279/236 220/251/220 221/253/221
f 229/280/229 243/278/243 228/252/228
f 237/281/237 221/253/221 222/255/222
f 245/282/245 229/280/229 230/256/230
f 223/269/223 237/281/237 222/255/222
f 231/259/231 245/282/245 230/256/230
f 258/283/258 242/277/242 243/278/243
f 236/279/236 250/284/250 235/285/235
f 244/286/244 258/283/258 243/278/243
f 252/287/252 236/279/236 237/281/237
f 260/288/260 244/286/244 245/282/245
f 238/289/238 252/287/252 237/281/237
f 246/270/246 260/288/260 245/282/245
f 254/290/254 238/289/238 239/268/239
f 262/291/262 246/270/246 247/292/247
f 240/273/240 254/290/254 239/268/239
f 263/293/263 247/292/247 248/271/248
f 241/294/241 255/295/255 240/273/240
f 234/274/234 249/296/249 1/297/1
f 8/298/8 263/293/263 248/271/248
f 257/299/257 241/294/241 242/277/242
f 235/285/235 249/296/249 234/274/234
f 262/291/262 276/300/276 261/301/261
f 255/295/255 269/302/269 254/290/254
f 278/303/278 262/291/262 263/293/263
f 256/304/256 270/305/270 255/295/255
f 249/296/249 264/306/264 1/307/1
f 8/308/8 278/303/278 263/293/263
f 272/309/272 256/304/256 257/299/257
f 250/284/250 264/306/264 249/296/249
f 273/310/273 257/299/257 258/283/258
f 266/311/266 250/284/250 251/312/251
f 259/313/259 273/310/273 258/283/258
f 267/314/267 251/312/251 252/287/252
f 275/315/275 259/313/259 260/288/260
f 253/316/253 267/314/267 252/287/252
f 261/301/261 275/315/275 260/288/260
f 269/302/269 253/316/253 254/290/254
f 281/317/281 265/318/265 266/311/266
f 274/319/274 288/320/288 273/310/273
f 282/321/282 266/311/266 267/314/267
f 290/322/290 274/319/274 275/315/275
f 268/323/268 282/321/282 267/314/267
f 276/300/276 290/322/290 275/315/275
f 284/324/284 268/323/268 269/302/269
f 292/325/292 276/300/276 277/326/277
f 270/305/270 284/324/284 269/302/269
f 293/327/293 277/326/277 278/303/278
f 271/328/271 285/329/285 270/305/270
f 264/306/264 279/330/279 1/331/1
f 8/332/8 293/327/293 278/303/278
f 287/333/287 271/328/271 272/309/272
f 280/334/280 264/306/264 265/318/265
f 288/320/288 272/309/272 273/310/273
f 285/329/285 299/335/299 284/324/284
f 293/327/293 307/336/307 292/325/292
f 286/337/286 300/338/300 285/329/285
f 279/330/279 294/339/294 1/340/1
f 8/341/8 308/342/308 293/327/293
f 302/343/302 286/337/286 287/333/287
f 295/344/295 279/330/279 280/334/280
f 303/345/303 287/333/287 288/320/288
f 281/317/281 295/344/295 280/334/280
f 289/346/289 303/345/303 288/320/288
f 297/347/297 281/317/281 282/321/282
f 305/348/305 289/346/289 290/322/290
f 283/349/283 297/347/297 282/321/282
f 291/350/291 305/348/305 290/322/290
f 299/335/299 283/349/283 284/324/284
f 307/336/307 291/350/291 292/325/292
f 304/351/304 318/352/318 303/345/303
f 312/353/312 296/354/296 297/347/297
f 320/355/320 304/351/304 305/348/305
f 298/356/298 312/353/312 297/347/297
f 306/357/306 320/355/320 305/348/305
f 314/358/314 298/356/298 299/335/299
f 322/359/322 306/357/306 307/336/307
f 300/338/300 314/358/314 299/335/299
f 323/360/323 307/336/307 308/342/308
f 301/361/301 315/362/315 300/338/300
f 294/339/294 309/363/309 1/364/1
f 8/365/8 323/360/323 308/342/308
f 317/366/317 301/361/301 302/343/302
f 295/344/295 309/363/309 294/339/294
f 318/352/318 302/343/302 303/345/303
f 296/354/296 310/367/310 295/344/295
f 323/360/323 337/368/337 322/359/322
f 316/369/316 330/370/330 315/362/315
f 309/363/309 324/371/324 1/372/1
f 8/373/8 338/374/338 323/360/323
f 332/375/332 316/369/316 317/366/317
f 325/376/325 309/363/309 310/367/310
f 333/377/333 317/366/317 318/352/318
f 326/378/326 310/367/310 311/379/311
f 319/380/319 333/377/333 318/352/318
f 327/381/327 311/379/311 312/353/312
f 335/382/335 319/380/319 320/355/320
f 313/383/313 327/381/327 312/353/312
f 321/384/321 335/382/335 320/355/320
f 329/385/329 313/383/313 314/358/314
f 337/368/337 321/384/321 322/359/322
f 315/362/315 329/385/329 314/358/314
f 350/386/350 334/387/334 335/382/335
f 328/388/328 342/389/342 327/381/327
f 336/390/336 350/386/350 335/382/335
f 344/391/344 328/388/328 329/385/329
f 352/392/352 336/390/336 337/368/337
f 330/370/330 344/391/344 329/385/329
f 338/374/338 352/392/352 337/368/337
f 331/393/331 345/394/345 330/370/330
f 324/371/324 339/395/339 1/396/1
f 8/397/8 353/398/353 338/374/338
f 347/399/347 331/393/331 332/375/332
f 340/400/340 324/371/324 325/376/325
f 348/401/348 332/375/332 333/377/333
f 326/378/326 340/400/340 325/376/325
f 334/387/334 348/401/348 333/377/333
f 342/389/342 326/378/326 327/381/327
f 339/395/339 354/402/354 1/403/1
f 8/404/8 368/405/368 353/398/353
f 362/406/362 346/407/346 347/399/347
f 355/408/355 339/395/339 340/400/340
f 363/409/363 347/399/347 348/401/348
f 341/410/341 355/408/355 340/400/340
f 349/411/349 363/409/363 348/401/348
f 357/412/357 341/410/341 342/389/342
f 365/413/365 349/411/349 350/386/350
f 343/414/343 357/412/357 342/389/342
f 351/415/351 365/413/365 350/386/350
f 359/416/359 343/414/343 344/391/344
f 367/417/367 351/415/351 352/392/352
f 345/394/345 359/416/359 344/391/344
f 353/398/353 367/417/367 352/392/352
f 346/407/346 360/418/360 345/394/345
f 358/419/358 372/420/372 357/421/357
f 366/422/366 380/423/380 365/424/365
f 374/425/374 358/419/358 359/426/359
f 382/427/382 366/422/366 367/428/367
f 360/429/360 374/425/374 359/426/359
f 383/430/383 367/428/367 368/431/368
f 361/432/361 375/433/375 360/429/360
f 354/434/354 369/435/369 1/436/1
f 8/437/8 383/430/383 368/431/368
f 377/438/377 361/432/361 362/439/362
f 355/440/355 369/435/369 354/434/354
f 378/441/378 362/439/362 363/442/363
f 356/443/356 370/444/370 355/440/355
f 364/445/364 378/441/378 363/442/363
f 372/420/372 356/443/356 357/421/357
f 380/423/380 364/445/364 365/424/365
f 392/446/392 376/447/376 377/438/377
f 370/444/370 384/448/384 369/435/369
f 393/449/393 377/438/377 378/441/378
f 371/450/371 385/451/385 370/444/370
f 379/452/379 393/449/393 378/441/378
f 387/453/387 371/450/371 372/420/372
f 395/454/395 379/452/379 380/423/380
f 373/455/373 387/453/387 372/420/372
f 381/456/381 395/454/395 380/423/380
f 389/457/389 373/455/373 374/425/374
f 397/458/397 381/456/381 382/427/382
f 375/433/375 389/457/389 374/425/374
f 398/459/398 382/427/382 383/430/383
f 376/447/376 390/460/390 375/433/375
f 369/435/369 384/448/384 1/461/1
f 8/462/8 398/459/398 383/430/383
f 396/463/396 410/464/410 395/454/395
f 404/465/404 388/466/388 389/457/389
f 412/467/412 396/463/396 397/458/397
f 390/460/390 404/465/404 389/457/389
f 398/459/398 412/467/412 397/458/397
f 391/468/391 405/469/405 390/460/390
f 384/448/384 399/470/399 1/471/1
f 8/472/8 413/473/413 398/459/398
f 407/474/407 391/468/391 392/446/392
f 400/475/400 384/448/384 385/451/385
f 408/476/408 392/446/392 393/449/393
f 386/477/386 400/475/400 385/451/385
f 394/478/394 408/476/408 393/449/393
f 402/479/402 386/477/386 387/453/387
f 410/464/410 394/478/394 395/454/395
f 388/466/388 402/479/402 387/453/387
f 415/480/415 399/470/399 400/475/400
f 423/481/423 407/474/407 408/476/408
f 401/482/401 415/480/415 400/475/400
f 409/483/409 423/481/423 408/476/408
f 417/484/417 401/482/401 402/479/402
f 425/485/425 409/483/409 410/464/410
f 403/486/403 417/484/417 402/479/402
f 411/487/411 425/485/425 410/464/410
f 419/488/419 403/486/403 404/465/404
f 427/489/427 411/487/411 412/467/412
f 405/469/405 419/488/419 404/465/404
f 428/490/428 412/467/412 413/473/413
f 406/491/406 420/492/420 405/469/405
f 399/470/399 414/493/414 1/494/1
f 8/495/8 428/490/428 413/473/413
f 422/496/422 406/491/406 407/474/407
f 434/497/434 418/498/418 419/488/419
f 442/499/442 426/500/426 427/489/427
f 420/492/420 434/497/434 419/488/419
f 428/490/428 442/499/442 427/489/427
f 421/501/421 435/502/435 420/492/420
f 414/493/414 429/503/429 1/504/1
f 8/505/8 443/506/443 428/490/428
f 437/507/437 421/501/421 422/496/422
f 430/508/430 414/493/414 415/480/415
f 438/509/438 422/496/422 423/481/423
f 416/510/416 430/508/430 415/480/415
f 424/511/424 438/509/438 423/481/423
f 432/512/432 416/510/416 417/484/417
f 440/513/440 424/511/424 425/485/425
f 418/498/418 432/512/432 417/484/417
f 426/500/426 440/513/440 425/485/425
f 453/514/453 437/507/437 438/509/438
f 431/515/431 445/516/445 430/508/430
f 439/517/439 453/514/453 438/509/438
f 447/518/447 431/515/431 432/512/432
f 455/519/455 439/517/439 440/513/440
f 433/520/433 447/518/447 432/512/432
f 441/521/441 455/519/455 440/513/440
f 449/522/449 433/520/433 434/497/434
f 457/523/457 441/521/441 442/499/442
f 435/502/435 449/522/449 434/497/434
f 458/524/458 442/499/442 443/506/443
f 436/525/436 450/526/450 435/502/435
f 429/503/429 444/527/444 1/528/1
f 8/529/8 458/524/458 443/506/443
f 452/530/452 436/525/436 437/507/437
f 430/508/430 444/527/444 429/503/429
f 472/531/472 456/532/456 457/523/457
f 450/526/450 464/533/464 449/522/449
f 458/524/458 472/531/472 457/523/457
f 451/534/451 465/535/465 450/526/450
f 444/527/444 459/536/459 1/537/1
f 8/538/8 473/539/473 458/524/458
f 467/540/467 451/534/451 452/530/452
f 460/541/460 444/527/444 445/516/445
f 468/542/468 452/530/452 453/514/453
f 446/543/446 460/541/460 445/516/445
f 454/544/454 468/542/468 453/514/453
f 462/545/462 446/543/446 447/518/447
f 470/546/470 454/544/454 455/519/455
f 448/547/448 462/545/462 447/518/447
f 456/532/456 470/546/470 455/519/455
f 464/533/464 448/547/448 449/522/449
f 7/6/7 468/542/468 469/548/469
f 462/545/462 2/1/2 461/549/461
f 479/9/479 469/548/469 470/546/470
f 463/550/463 476/7/476 462/545/462
f 471/551/471 479/9/479 470/546/470
f 464/533/464 3/11/3 463/550/463
f 481/16/481 471/551/471 472/531/472
f 465/535/465 477/14/477 464/533/464
f 482/20/482 472/531/472 473/539/473
f 466/552/466 4/17/4 465/535/465
f 459/536/459 474/23/474 1/553/1
f 8/554/8 482/20/482 473/539/473
f 6/28/6 466/552/466 467/540/467
f 475/3/475 459/536/459 460/541/460
f 478/5/478 467/540/467 468/542/468
f 461/549/461 475/3/475 460/541/460
f 2/1/2 11/8/11 10/2/10
f 19/4/19 18/29/18 478/5/478
f 476/7/476 12/35/12 11/8/11
f 479/9/479 20/36/20 19/4/19
f 13/10/13 12/35/12 476/7/476
f 21/12/21 20/36/20 479/9/479
f 477/14/477 14/18/14 13/10/13
f 22/15/22 21/12/21 480/13/480
f 4/17/4 15/42/15 14/18/14
f 23/19/23 22/15/22 481/16/481
f 16/21/16 15/42/15 4/17/4
f 17/27/17 16/21/16 5/22/5
f 475/3/475 10/2/10 9/24/9
f 18/29/18 17/27/17 6/28/6
f 32/30/32 31/44/31 16/21/16
f 25/31/25 24/45/24 9/24/9
f 33/32/33 32/30/32 17/27/17
f 26/33/26 25/31/25 10/2/10
f 19/4/19 34/37/34 33/32/33
f 27/34/27 26/33/26 11/8/11
f 20/36/20 35/39/35 34/37/34
f 28/38/28 27/34/27 12/35/12
f 21/12/21 36/41/36 35/39/35
f 29/40/29 28/38/28 13/10/13
f 22/15/22 37/50/37 36/41/36
f 15/42/15 30/52/30 29/40/29
f 38/43/38 37/50/37 22/15/22
f 31/44/31 30/52/30 15/42/15
f 36/41/36 51/51/51 50/48/50
f 44/49/44 43/65/43 28/38/28
f 37/50/37 52/53/52 51/51/51
f 30/52/30 45/54/45 44/49/44
f 38/43/38 53/58/53 52/53/52
f 31/44/31 46/73/46 45/54/45
f 47/59/47 46/73/46 31/44/31
f 40/60/40 39/55/39 24/45/24
f 48/61/48 47/59/47 32/30/32
f 41/62/41 40/60/40 25/31/25
f 34/37/34 49/64/49 48/61/48
f 42/63/42 41/62/41 26/33/26
f 35/39/35 50/48/50 49/64/49
f 43/65/43 42/63/42 27/34/27
f 63/66/63 62/79/62 47/59/47
f 56/67/56 55/80/55 40/60/40
f 49/64/49 64/92/64 63/66/63
f 57/68/57 56/67/56 41/62/41
f 65/69/65 64/92/64 49/64/49
f 43/65/43 58/95/58 57/68/57
f 51/51/51 66/71/66 65/69/65
f 59/70/59 58/95/58 43/65/43
f 52/53/52 67/72/67 66/71/66
f 45/54/45 60/74/60 59/70/59
f 53/58/53 68/78/68 67/72/67
f 46/73/46 61/84/61 60/74/60
f 62/79/62 61/84/61 46/73/46
f 55/80/55 54/75/54 39/55/39
f 82/81/82 81/103/81 66/71/66
f 60/74/60 75/85/75 74/82/74
f 83/83/83 82/81/82 67/72/67
f 61/84/61 76/107/76 75/85/75
f 77/89/77 76/107/76 61/84/61
f 55/80/55 70/91/70 69/86/69
f 78/90/78 77/89/77 62/79/62
f 56/67/56 71/97/71 70/91/70
f 64/92/64 79/98/79 78/90/78
f 72/93/72 71/97/71 56/67/56
f 80/94/80 79/98/79 64/92/64
f 58/95/58 73/102/73 72/93/72
f 66/71/66 81/103/81 80/94/80
f 74/82/74 73/102/73 58/95/58
f 86/96/86 85/114/85 70/91/70
f 79/98/79 94/125/94 93/99/93
f 87/100/87 86/96/86 71/97/71
f 95/101/95 94/125/94 79/98/79
f 73/102/73 88/128/88 87/100/87
f 81/103/81 96/105/96 95/101/95
f 89/104/89 88/128/88 73/102/73
f 82/81/82 97/106/97 96/105/96
f 75/85/75 90/108/90 89/104/89
f 83/83/83 98/112/98 97/106/97
f 76/107/76 91/117/91 90/108/90
f 92/113/92 91/117/91 76/107/76
f 85/114/85 84/109/84 69/86/69
f 93/99/93 92/113/92 77/89/77
f 90/108/90 105/118/105 104/115/104
f 113/116/113 112/129/112 97/106/97
f 91/117/91 106/140/106 105/118/105
f 107/122/107 106/140/106 91/117/91
f 100/123/100 99/119/99 84/109/84
f 108/124/108 107/122/107 92/113/92
f 86/96/86 101/133/101 100/123/100
f 94/125/94 109/130/109 108/124/108
f 102/126/102 101/133/101 86/96/86
f 110/127/110 109/130/109 94/125/94
f 88/128/88 103/135/103 102/126/102
f 96/105/96 111/136/111 110/127/110
f 104/115/104 103/135/103 88/128/88
f 112/129/112 111/136/111 96/105/96
f 109/130/109 124/158/124 123/131/123
f 117/132/117 116/147/116 101/133/101
f 125/134/125 124/158/124 109/130/109
f 103/135/103 118/161/118 117/132/117
f 111/136/111 126/138/126 125/134/125
f 119/137/119 118/161/118 103/135/103
f 112/129/112 127/149/127 126/138/126
f 105/118/105 120/141/120 119/137/119
f 128/139/128 127/149/127 112/129/112
f 106/140/106 121/150/121 120/141/120
f 122/145/122 121/150/121 106/140/106
f 115/146/115 114/142/114 99/119/99
f 123/131/123 122/145/122 107/122/107
f 116/147/116 115/146/115 100/123/100
f 143/148/143 142/163/142 127/149/127
f 121/150/121 136/173/136 135/151/135
f 137/155/137 136/173/136 121/150/121
f 115/146/115 130/157/130 129/152/129
f 138/156/138 137/155/137 122/145/122
f 116/147/116 131/165/131 130/157/130
f 124/158/124 139/167/139 138/156/138
f 132/159/132 131/165/131 116/147/116
f 140/160/140 139/167/139 124/158/124
f 118/161/118 133/168/133 132/159/132
f 126/138/126 141/169/141 140/160/140
f 134/162/134 133/168/133 118/161/118
f 142/163/142 141/169/141 126/138/126
f 120/141/120 135/151/135 134/162/134
f 147/164/147 146/181/146 131/165/131
f 155/166/155 154/192/154 139/167/139
f 133/168/133 148/195/148 147/164/147
f 141/169/141 156/171/156 155/166/155
f 149/170/149 148/195/148 133/168/133
f 142/163/142 157/197/157 156/171/156
f 135/151/135 150/174/150 149/170/149
f 158/172/158 157/197/157 142/163/142
f 136/173/136 151/182/151 150/174/150
f 152/178/152 151/182/151 136/173/136
f 145/179/145 144/175/144 129/152/129
f 153/180/153 152/178/152 137/155/137
f 146/181/146 145/179/145 130/157/130
f 139/167/139 154/192/154 153/180/153
f 151/182/151 166/207/166 165/183/165
f 167/188/167 166/207/166 151/182/151
f 160/189/160 159/184/159 144/175/144
f 168/190/168 167/188/167 152/178/152
f 161/191/161 160/189/160 145/179/145
f 154/192/154 169/201/169 168/190/168
f 162/193/162 161/191/161 146/181/146
f 170/194/170 169/201/169 154/192/154
f 148/195/148 163/202/163 162/193/162
f 156/171/156 171/198/171 170/194/170
f 164/196/164 163/202/163 148/195/148
f 157/197/157 172/199/172 171/198/171
f 150/174/150 165/183/165 164/196/164
f 158/172/158 173/187/173 172/199/172
f 185/200/185 184/224/184 169/201/169
f 163/202/163 178/227/178 177/203/177
f 171/198/171 186/205/186 185/200/185
f 179/204/179 178/227/178 163/202/163
f 172/199/172 187/206/187 186/205/186
f 165/183/165 180/208/180 179/204/179
f 173/187/173 188/212/188 187/206/187
f 166/207/166 181/220/181 180/208/180
f 182/213/182 181/220/181 166/207/166
f 175/214/175 174/209/174 159/184/159
f 183/215/183 182/213/182 167/188/167
f 176/216/176 175/214/175 160/189/160
f 169/201/169 184/224/184 183/215/183
f 177/203/177 176/216/176 161/191/161
f 197/219/197 196/238/196 181/220/181
f 175/214/175 190/223/190 189/221/189
f 198/222/198 197/219/197 182/213/182
f 176/216/176 191/248/191 190/223/190
f 184/224/184 199/249/199 198/222/198
f 192/225/192 191/248/191 176/216/176
f 200/226/200 199/249/199 184/224/184
f 178/227/178 193/235/193 192/225/192
f 186/205/186 201/232/201 200/226/200
f 194/228/194 193/235/193 178/227/178
f 202/229/202 201/232/201 186/205/186
f 180/208/180 195/230/195 194/228/194
f 203/218/203 202/229/202 187/206/187
f 181/220/181 196/238/196 195/230/195
f 201/232/201 216/236/216 215/233/215
f 209/234/209 208/257/208 193/235/193
f 202/229/202 217/237/217 216/236/216
f 195/230/195 210/239/210 209/234/209
f 203/218/203 218/243/218 217/237/217
f 196/238/196 211/261/211 210/239/210
f 212/244/212 211/261/211 196/238/196
f 205/245/205 204/240/204 189/221/189
f 213/246/213 212/244/212 197/219/197
f 206/247/206 205/245/205 190/223/190
f 199/249/199 214/254/214 213/246/213
f 207/250/207 206/247/206 191/248/191
f 215/233/215 214/254/214 199/249/199
f 193/235/193 208/257/208 207/250/207
f 220/251/220 219/263/219 204/240/204
f 228/252/228 227/267/227 212/244/212
f 221/253/221 220/251/220 205/245/205
f 214/254/214 229/280/229 228/252/228
f 222/255/222 221/253/221 206/247/206
f 230/256/230 229/280/229 214/254/214
f 208/257/208 223/269/223 222/255/222
f 216/236/216 231/259/231 230/256/230
f 224/258/224 223/269/223 208/257/208
f 217/237/217 232/260/232 231/259/231
f 210/239/210 225/262/225 224/258/224
f 218/243/218 233/266/233 232/260/232
f 211/261/211 226/272/226 225/262/225
f 227/267/227 226/272/226 211/261/211
f 239/268/239 238/289/238 223/269/223
f 232/260/232 247/292/247 246/270/246
f 225/262/225 240/273/240 239/268/239
f 248/271/248 247/292/247 232/260/232
f 226/272/226 241/294/241 240/273/240
f 242/277/242 241/294/241 226/272/226
f 220/251/220 235/285/235 234/274/234
f 243/278/243 242/277/242 227/267/227
f 236/279/236 235/285/235 220/251/220
f 229/280/229 244/286/244 243/278/243
f 237/281/237 236/279/236 221/253/221
f 245/282/245 244/286/244 229/280/229
f 223/269/223 238/289/238 237/281/237
f 231/259/231 246/270/246 245/282/245
f 258/283/258 257/299/257 242/277/242
f 236/279/236 251/312/251 250/284/250
f 244/286/244 259/313/259 258/283/258
f 252/287/252 251/312/251 236/279/236
f 260/288/260 259/313/259 244/286/244
f 238/289/238 253/316/253 252/287/252
f 246/270/246 261/301/261 260/288/260
f 254/290/254 253/316/253 238/289/238
f 262/291/262 261/301/261 246/270/246
f 240/273/240 255/295/255 254/290/254
f 263/293/263 262/291/262 247/292/247
f 241/294/241 256/304/256 255/295/255
f 257/299/257 256/304/256 241/294/241
f 235/285/235 250/284/250 249/296/249
f 262/291/262 277/326/277 276/300/276
f 255/295/255 270/305/270 269/302/269
f 278/303/278 277/326/277 262/291/262
f 256/304/256 271/328/271 270/305/270
f 272/309/272 271/328/271 256/304/256
f 250/284/250 265/318/265 264/306/264
f 273/310/273 272/309/272 257/299/257
f 266/311/266 265/318/265 250/284/250
f 259/313/259 274/319/274 273/310/273
f 267/314/267 266/311/266 251/312/251
f 275/315/275 274/319/274 259/313/259
f 253/316/253 268/323/268 267/314/267
f 261/301/261 276/300/276 275/315/275
f 269/302/269 268/323/268 253/316/253
f 281/317/281 280/334/280 265/318/265
f 274/319/274 289/346/289 288/320/288
f 282/321/282 281/317/281 266/311/266
f 290/322/290 289/346/289 274/319/274
f 268/323/268 283/349/283 282/321/282
f 276/300/276 291/350/291 290/322/290
f 284/324/284 283/349/283 268/323/268
f 292/325/292 291/350/291 276/300/276
f 270/305/270 285/329/285 284/324/284
f 293/327/293 292/325/292 277/326/277
f 271/328/271 286/337/286 285/329/285
f 287/333/287 286/337/286 271/328/271
f 280/334/280 279/330/279 264/306/264
f 288/320/288 287/333/287 272/309/272
f 285/329/285 300/338/300 299/335/299
f 293/327/293 308/342/308 307/336/307
f 286/337/286 301/361/301 300/338/300
f 302/343/302 301/361/301 286/337/286
f 295/344/295 294/339/294 279/330/279
f 303/345/303 302/343/302 287/333/287
f 281/317/281 296/354/296 295/344/295
f 289/346/289 304/351/304 303/345/303
f 297/347/297 296/354/296 281/317/281
f 305/348/305 304/351/304 289/346/289
f 283/349/283 298/356/298 297/347/297
f 291/350/291 306/357/306 305/348/305
f 299/335/299 298/356/298 283/349/283
f 307/336/307 306/357/306 291/350/291
f 304/351/304 319/380/319 318/352/318
f 312/353/312 311/379/311 296/354/296
f 320/355/320 319/380/319 304/351/304
f 298/356/298 313/383/313 312/353/312
f 306/357/306 321/384/321 320/355/320
f 314/358/314 313/383/313 298/356/298
f 322/359/322 321/384/321 306/357/306
f 300/338/300 315/362/315 314/358/314
f 323/360/323 322/359/322 307/336/307
f 301/361/301 316/369/316 315/362/315
f 317/366/317 316/369/316 301/361/301
f 295/344/295 310/367/310 309/363/309
f 318/352/318 317/366/317 302/343/302
f 296/354/296 311/379/311 310/367/310
f 323/360/323 338/374/338 337/368/337
f 316/369/316 331/393/331 330/370/330
f 332/375/332 331/393/331 316/369/316
f 325/376/325 324/371/324 309/363/309
f 333/377/333 332/375/332 317/366/317
f 326/378/326 325/376/325 310/367/310
f 319/380/319 334/387/334 333/377/333
f 327/381/327 326/378/326 311/379/311
f 335/382/335 334/387/334 319/380/319
f 313/383/313 328/388/328 327/381/327
f 321/384/321 336/390/336 335/382/335
f 329/385/329 328/388/328 313/383/313
f 337/368/337 336/390/336 321/384/321
f 315/362/315 330/370/330 329/385/329
f 350/386/350 349/411/349 334/387/334
f 328/388/328 343/414/343 342/389/342
f 336/390/336 351/415/351 350/386/350
f 344/391/344 343/414/343 328/388/328
f 352/392/352 351/415/351 336/390/336
f 330/370/330 345/394/345 344/391/344
f 338/374/338 353/398/353 352/392/352
f 331/393/331 346/407/346 345/394/345
f 347/399/347 346/407/346 331/393/331
f 340/400/340 339/395/339 324/371/324
f 348/401/348 347/399/347 332/375/332
f 326/378/326 341/410/341 340/400/340
f 334/387/334 349/411/349 348/401/348
f 342/389/342 341/410/341 326/378/326
f 362/406/362 361/555/361 346/407/346
f 355/408/355 354/402/354 339/395/339
f 363/409/363 362/406/362 347/399/347
f 341/410/341 356/556/356 355/408/355
f 349/411/349 364/557/364 363/409/363
f 357/412/357 356/556/356 341/410/341
f 365/413/365 364/557/364 349/411/349
f 343/414/343 358/558/358 357/412/357
f 351/415/351 366/559/366 365/413/365
f 359/416/359 358/558/358 343/414/343
f 367/417/367 366/559/366 351/415/351
f 345/394/345 360/418/360 359/416/359
f 353/398/353 368/405/368 367/417/367
f 346/407/346 361/555/361 360/418/360
f 358/419/358 373/455/373 372/420/372
f 366/422/366 381/456/381 380/423/380
f 374/425/374 373/455/373 358/419/358
f 382/427/382 381/456/381 366/422/366
f 360/429/360 375/433/375 374/425/374
f 383/430/383 382/427/382 367/428/367
f 361/432/361 376/447/376 375/433/375
f 377/438/377 376/447/376 361/432/361
f 355/440/355 370/444/370 369/435/369
f 378/441/378 377/438/377 362/439/362
f 356/443/356 371/450/371 370/444/370
f 364/445/364 379/452/379 378/441/378
f 372/420/372 371/450/371 356/443/356
f 380/423/380 379/452/379 364/445/364
f 392/446/392 391/468/391 376/447/376
f 370/444/370 385/451/385 384/448/384
f 393/449/393 392/446/392 377/438/377
f 371/450/371 386/477/386 385/451/385
f 379/452/379 394/478/394 393/449/393
f 387/453/387 386/477/386 371/450/371
f 395/454/395 394/478/394 379/452/379
f 373/455/373 388/466/388 387/453/387
f 381/456/381 396/463/396 395/454/395
f 389/457/389 388/466/388 373/455/373
f 397/458/397 396/463/396 381/456/381
f 375/433/375 390/460/390 389/457/389
f 398/459/398 397/458/397 382/427/382
f 376/447/376 391/468/391 390/460/390
f 396/463/396 411/487/411 410/464/410
f 404/465/404 403/486/403 388/466/388
f 412/467/412 411/487/411 396/463/396
f 390/460/390 405/469/405 404/465/404
f 398/459/398 413/473/413 412/467/412
f 391/468/391 406/491/406 405/469/405
f 407/474/407 406/491/406 391/468/391
f 400/475/400 399/470/399 384/448/384
f 408/476/408 407/474/407 392/446/392
f 386/477/386 401/482/401 400/475/400
f 394/478/394 409/483/409 408/476/408
f 402/479/402 401/482/401 386/477/386
f 410/464/410 409/483/409 394/478/394
f 388/466/388 403/486/403 402/479/402
f 415/480/415 414/493/414 399/470/399
f 423/481/423 422/496/422 407/474/407
f 401/482/401 416/510/416 415/480/415
f 409/483/409 424/511/424 423/481/423
f 417/484/417 416/510/416 401/482/401
f 425/485/425 424/511/424 409/483/409
f 403/486/403 418/498/418 417/484/417
f 411/487/411 426/500/426 425/485/425
f 419/488/419 418/498/418 403/486/403
f 427/489/427 426/500/426 411/487/411
f 405/469/405 420/492/420 419/488/419
f 428/490/428 427/489/427 412/467/412
f 406/491/406 421/501/421 420/492/420
f 422/496/422 421/501/421 406/491/406
f 434/497/434 433/520/433 418/498/418
f 442/499/442 441/521/441 426/500/426
f 420/492/420 435/502/435 434/497/434
f 428/490/428 443/506/443 442/499/442
f 421/501/421 436/525/436 435/502/435
f 437/507/437 436/525/436 421/501/421
f 430/508/430 429/503/429 414/493/414
f 438/509/438 437/507/437 422/496/422
f 416/510/416 431/515/431 430/508/430
f 424/511/424 439/517/439 438/509/438
f 432/512/432 431/515/431 416/510/416
f 440/513/440 439/517/439 424/511/424
f 418/498/418 433/520/433 432/512/432
f 426/500/426 441/521/441 440/513/440
f 453/514/453 452/530/452 437/507/437
f 431/515/431 446/543/446 445/516/445
f 439/517/439 454/544/454 453/514/453
f 447/518/447 446/543/446 431/515/431
f 455/519/455 454/544/454 439/517/439
f 433/520/433 448/547/448 447/518/447
f 441/521/441 456/532/456 455/519/455
f 449/522/449 448/547/448 433/520/433
f 457/523/457 456/532/456 441/521/441
f 435/502/435 450/526/450 449/522/449
f 458/524/458 457/523/457 442/499/442
f 436/525/436 451/534/451 450/526/450
f 452/530/452 451/534/451 436/525/436
f 430/508/430 445/516/445 444/527/444
f 472/531/472 471/551/471 456/532/456
f 450/526/450 465/535/465 464/533/464
f 458/524/458 473/539/473 472/531/472
f 451/534/451 466/552/466 465/535/465
f 467/540/467 466/552/466 451/534/451
f 460/541/460 459/536/459 444/527/444
f 468/542/468 467/540/467 452/530/452
f 446/543/446 461/549/461 460/541/460
f 454/544/454 469/548/469 468/542/468
f 462/545/462 461/549/461 446/543/446
f 470/546/470 469/548/469 454/544/454
f 448/547/448 463/550/463 462/545/462
f 456/532/456 471/551/471 470/546/470
f 464/533/464 463/550/463 448/547/448
f 7/6/7 478/5/478 468/542/468
f 462/545/462 476/7/476 2/1/2
f 479/9/479 7/6/7 469/548/469
f 463/550/463 3/11/3 476/7/476
f 471/551/471 480/13/480 479/9/479
f 464/533/464 477/14/477 3/11/3
f 481/16/481 480/13/480 471/551/471
f 465/535/465 4/17/4 477/14/477
f 482/20/482 481/16/481 472/531/472
f 466/552/466 5/22/5 4/17/4
f 6/28/6 5/22/5 466/552/466
f 475/3/475 474/23/474 459/536/459
f 478/5/478 6/28/6 467/540/467
f 461/549/461 2/1/2 475/3/475
