# Blender 5.1.2
# www.blender.org
mtllib floor.mtl
o 立方体
v -1.000000 -0.011902 1.000000
v -1.000000 0.011902 1.000000
v -1.000000 -0.011902 -1.000000
v -1.000000 0.011902 -1.000000
v 1.000000 -0.011902 1.000000
v 1.000000 0.011902 1.000000
v 1.000000 -0.011902 -1.000000
v 1.000000 0.011902 -1.000000
vn -1.0000 -0.0000 -0.0000
vn -0.0000 -0.0000 -1.0000
vn 1.0000 -0.0000 -0.0000
vn -0.0000 -0.0000 1.0000
vn -0.0000 -1.0000 -0.0000
vn -0.0000 1.0000 -0.0000
vt 0.040763 0.040763
vt 0.040763 0.959237
vt 0.959237 0.959237
vt 0.959237 0.040763
s 0
usemtl マテリアル
f 2/1/1 3/2/1 1/1/1
f 4/2/2 7/3/2 3/2/2
f 8/3/3 5/4/3 7/3/3
f 6/4/4 1/1/4 5/4/4
f 7/3/5 1/1/5 3/2/5
f 4/2/6 6/4/6 8/3/6
f 2/1/1 4/2/1 3/2/1
f 4/2/2 8/3/2 7/3/2
f 8/3/3 6/4/3 5/4/3
f 6/4/4 2/1/4 1/1/4
f 7/3/5 5/4/5 1/1/5
f 4/2/6 2/1/6 6/4/6
