{
	"asset":{
		"generator":"Khronos glTF Blender I/O v5.1.20",
		"version":"2.0"
	},
	"scene":0,
	"scenes":[
		{
			"name":"Scene",
			"nodes":[
				11
			]
		}
	],
	"nodes":[
		{
			"name":"\u30dc\u30fc\u30f3.001",
			"translation":[
				0,
				1.0000001192092896,
				0
			]
		},
		{
			"name":"\u30dc\u30fc\u30f3.003",
			"rotation":[
				7.020623637998824e-09,
				-2.609035121281522e-08,
				-0.09340482205152512,
				0.9956282377243042
			],
			"translation":[
				2.2351741790771484e-08,
				0.5494251847267151,
				8.881784197001252e-16
			]
		},
		{
			"children":[
				1
			],
			"name":"\u30dc\u30fc\u30f3.002",
			"rotation":[
				5.684179793519206e-09,
				-1.7583985822966497e-08,
				0.7557837963104248,
				0.6548212766647339
			],
			"scale":[
				0.9999998807907104,
				0.9999998807907104,
				1
			],
			"translation":[
				0,
				1.0000001192092896,
				0
			]
		},
		{
			"name":"\u30dc\u30fc\u30f3.005",
			"rotation":[
				2.9643469900975106e-08,
				5.7402139930218254e-08,
				0.10383941233158112,
				0.9945940971374512
			],
			"scale":[
				0.9999999403953552,
				0.9999999403953552,
				1
			],
			"translation":[
				-4.470348713425665e-08,
				0.5307654142379761,
				-7.993605777301127e-15
			]
		},
		{
			"children":[
				3
			],
			"name":"\u30dc\u30fc\u30f3.004",
			"rotation":[
				-8.756564540135514e-08,
				-5.959153881462953e-08,
				-0.7632548809051514,
				0.6460974812507629
			],
			"scale":[
				0.9999998807907104,
				0.9999999403953552,
				1
			],
			"translation":[
				0,
				1.0000001192092896,
				0
			]
		},
		{
			"children":[
				0,
				2,
				4
			],
			"name":"\u30dc\u30fc\u30f3",
			"translation":[
				0,
				0.5235979557037354,
				0
			]
		},
		{
			"name":"\u30dc\u30fc\u30f3.007",
			"rotation":[
				-0.3118179142475128,
				6.797296947524956e-09,
				3.3490746176312314e-08,
				0.9501418471336365
			],
			"scale":[
				1,
				1,
				0.9999999403953552
			],
			"translation":[
				-7.105427357601002e-15,
				0.4779619872570038,
				-8.604228440844963e-15
			]
		},
		{
			"children":[
				6
			],
			"name":"\u30dc\u30fc\u30f3.006",
			"rotation":[
				-0.66470867395401,
				0.24116849899291992,
				0.6647087931632996,
				0.24116860330104828
			],
			"scale":[
				1.0000001192092896,
				1,
				1
			],
			"translation":[
				0,
				0.5235979557037354,
				0
			]
		},
		{
			"name":"\u30dc\u30fc\u30f3.009",
			"rotation":[
				-0.30840522050857544,
				-3.022964278898144e-08,
				1.9304314591295224e-08,
				0.9512550830841064
			],
			"translation":[
				-2.7200464103316335e-15,
				0.47255975008010864,
				7.450580596923828e-09
			]
		},
		{
			"children":[
				8
			],
			"name":"\u30dc\u30fc\u30f3.008",
			"rotation":[
				-0.6670641899108887,
				-0.2345747947692871,
				-0.6670641899108887,
				0.23457492887973785
			],
			"scale":[
				1,
				0.9999998211860657,
				0.9999998807907104
			],
			"translation":[
				0,
				0.5235979557037354,
				0
			]
		},
		{
			"mesh":0,
			"name":"\u7acb\u65b9\u4f53",
			"skin":0
		},
		{
			"children":[
				10,
				5,
				7,
				9
			],
			"name":"\u30a2\u30fc\u30de\u30c1\u30e5\u30a2"
		}
	],
	"animations":[
		{
			"channels":[
				{
					"sampler":0,
					"target":{
						"node":5,
						"path":"translation"
					}
				},
				{
					"sampler":1,
					"target":{
						"node":5,
						"path":"rotation"
					}
				},
				{
					"sampler":2,
					"target":{
						"node":5,
						"path":"scale"
					}
				},
				{
					"sampler":3,
					"target":{
						"node":0,
						"path":"translation"
					}
				},
				{
					"sampler":4,
					"target":{
						"node":0,
						"path":"rotation"
					}
				},
				{
					"sampler":5,
					"target":{
						"node":0,
						"path":"scale"
					}
				},
				{
					"sampler":6,
					"target":{
						"node":2,
						"path":"translation"
					}
				},
				{
					"sampler":7,
					"target":{
						"node":2,
						"path":"rotation"
					}
				},
				{
					"sampler":8,
					"target":{
						"node":2,
						"path":"scale"
					}
				},
				{
					"sampler":9,
					"target":{
						"node":1,
						"path":"translation"
					}
				},
				{
					"sampler":10,
					"target":{
						"node":1,
						"path":"rotation"
					}
				},
				{
					"sampler":11,
					"target":{
						"node":1,
						"path":"scale"
					}
				},
				{
					"sampler":12,
					"target":{
						"node":4,
						"path":"translation"
					}
				},
				{
					"sampler":13,
					"target":{
						"node":4,
						"path":"rotation"
					}
				},
				{
					"sampler":14,
					"target":{
						"node":4,
						"path":"scale"
					}
				},
				{
					"sampler":15,
					"target":{
						"node":3,
						"path":"translation"
					}
				},
				{
					"sampler":16,
					"target":{
						"node":3,
						"path":"rotation"
					}
				},
				{
					"sampler":17,
					"target":{
						"node":3,
						"path":"scale"
					}
				},
				{
					"sampler":18,
					"target":{
						"node":7,
						"path":"translation"
					}
				},
				{
					"sampler":19,
					"target":{
						"node":7,
						"path":"rotation"
					}
				},
				{
					"sampler":20,
					"target":{
						"node":7,
						"path":"scale"
					}
				},
				{
					"sampler":21,
					"target":{
						"node":6,
						"path":"translation"
					}
				},
				{
					"sampler":22,
					"target":{
						"node":6,
						"path":"rotation"
					}
				},
				{
					"sampler":23,
					"target":{
						"node":6,
						"path":"scale"
					}
				},
				{
					"sampler":24,
					"target":{
						"node":9,
						"path":"translation"
					}
				},
				{
					"sampler":25,
					"target":{
						"node":9,
						"path":"rotation"
					}
				},
				{
					"sampler":26,
					"target":{
						"node":9,
						"path":"scale"
					}
				},
				{
					"sampler":27,
					"target":{
						"node":8,
						"path":"translation"
					}
				},
				{
					"sampler":28,
					"target":{
						"node":8,
						"path":"rotation"
					}
				},
				{
					"sampler":29,
					"target":{
						"node":8,
						"path":"scale"
					}
				}
			],
			"name":"\u30a2\u30fc\u30de\u30c1\u30e5\u30a2\u30a2\u30af\u30b7\u30e7\u30f3",
			"samplers":[
				{
					"input":37,
					"interpolation":"STEP",
					"output":38
				},
				{
					"input":39,
					"interpolation":"LINEAR",
					"output":40
				},
				{
					"input":37,
					"interpolation":"STEP",
					"output":41
				},
				{
					"input":37,
					"interpolation":"STEP",
					"output":42
				},
				{
					"input":39,
					"interpolation":"LINEAR",
					"output":43
				},
				{
					"input":37,
					"interpolation":"STEP",
					"output":44
				},
				{
					"input":37,
					"interpolation":"STEP",
					"output":45
				},
				{
					"input":39,
					"interpolation":"LINEAR",
					"output":46
				},
				{
					"input":37,
					"interpolation":"STEP",
					"output":47
				},
				{
					"input":37,
					"interpolation":"STEP",
					"output":48
				},
				{
					"input":39,
					"interpolation":"LINEAR",
					"output":49
				},
				{
					"input":37,
					"interpolation":"STEP",
					"output":50
				},
				{
					"input":37,
					"interpolation":"STEP",
					"output":51
				},
				{
					"input":39,
					"interpolation":"LINEAR",
					"output":52
				},
				{
					"input":37,
					"interpolation":"STEP",
					"output":53
				},
				{
					"input":37,
					"interpolation":"STEP",
					"output":54
				},
				{
					"input":37,
					"interpolation":"STEP",
					"output":55
				},
				{
					"input":37,
					"interpolation":"STEP",
					"output":56
				},
				{
					"input":37,
					"interpolation":"STEP",
					"output":57
				},
				{
					"input":37,
					"interpolation":"STEP",
					"output":58
				},
				{
					"input":37,
					"interpolation":"STEP",
					"output":59
				},
				{
					"input":37,
					"interpolation":"STEP",
					"output":60
				},
				{
					"input":37,
					"interpolation":"STEP",
					"output":61
				},
				{
					"input":37,
					"interpolation":"STEP",
					"output":62
				},
				{
					"input":37,
					"interpolation":"STEP",
					"output":38
				},
				{
					"input":37,
					"interpolation":"STEP",
					"output":63
				},
				{
					"input":37,
					"interpolation":"STEP",
					"output":64
				},
				{
					"input":37,
					"interpolation":"STEP",
					"output":65
				},
				{
					"input":37,
					"interpolation":"STEP",
					"output":66
				},
				{
					"input":37,
					"interpolation":"STEP",
					"output":67
				}
			]
		}
	],
	"materials":[
		{
			"doubleSided":true,
			"name":"\u30de\u30c6\u30ea\u30a2\u30eb.005",
			"pbrMetallicRoughness":{
				"baseColorTexture":{
					"index":0
				},
				"metallicFactor":0,
				"roughnessFactor":0.5
			}
		},
		{
			"doubleSided":true,
			"name":"\u30de\u30c6\u30ea\u30a2\u30eb.004",
			"pbrMetallicRoughness":{
				"baseColorTexture":{
					"index":1
				},
				"metallicFactor":0,
				"roughnessFactor":0.5
			}
		},
		{
			"doubleSided":true,
			"name":"\u30de\u30c6\u30ea\u30a2\u30eb.001",
			"pbrMetallicRoughness":{
				"baseColorTexture":{
					"index":2
				},
				"metallicFactor":0,
				"roughnessFactor":0.5
			}
		},
		{
			"doubleSided":true,
			"name":"\u30de\u30c6\u30ea\u30a2\u30eb",
			"pbrMetallicRoughness":{
				"baseColorTexture":{
					"index":3
				},
				"metallicFactor":0,
				"roughnessFactor":0.5
			}
		},
		{
			"doubleSided":true,
			"name":"\u30de\u30c6\u30ea\u30a2\u30eb.002",
			"pbrMetallicRoughness":{
				"baseColorTexture":{
					"index":4
				},
				"metallicFactor":0,
				"roughnessFactor":0.5
			}
		},
		{
			"doubleSided":true,
			"name":"\u30de\u30c6\u30ea\u30a2\u30eb.003",
			"pbrMetallicRoughness":{
				"baseColorTexture":{
					"index":5
				},
				"metallicFactor":0,
				"roughnessFactor":0.5
			}
		}
	],
	"meshes":[
		{
			"name":"\u7acb\u65b9\u4f53",
			"primitives":[
				{
					"attributes":{
						"POSITION":0,
						"NORMAL":1,
						"TEXCOORD_0":2,
						"JOINTS_0":3,
						"WEIGHTS_0":4
					},
					"indices":5,
					"material":0
				},
				{
					"attributes":{
						"POSITION":6,
						"NORMAL":7,
						"TEXCOORD_0":8,
						"JOINTS_0":9,
						"WEIGHTS_0":10
					},
					"indices":11,
					"material":1
				},
				{
					"attributes":{
						"POSITION":12,
						"NORMAL":13,
						"TEXCOORD_0":14,
						"JOINTS_0":15,
						"WEIGHTS_0":16
					},
					"indices":17,
					"material":2
				},
				{
					"attributes":{
						"POSITION":18,
						"NORMAL":19,
						"TEXCOORD_0":20,
						"JOINTS_0":21,
						"WEIGHTS_0":22
					},
					"indices":23,
					"material":3
				},
				{
					"attributes":{
						"POSITION":24,
						"NORMAL":25,
						"TEXCOORD_0":26,
						"JOINTS_0":27,
						"WEIGHTS_0":28
					},
					"indices":29,
					"material":4
				},
				{
					"attributes":{
						"POSITION":30,
						"NORMAL":31,
						"TEXCOORD_0":32,
						"JOINTS_0":33,
						"WEIGHTS_0":34
					},
					"indices":35,
					"material":5
				}
			]
		}
	],
	"textures":[
		{
			"sampler":0,
			"source":0
		},
		{
			"sampler":0,
			"source":1
		},
		{
			"sampler":0,
			"source":2
		},
		{
			"sampler":0,
			"source":3
		},
		{
			"sampler":0,
			"source":4
		},
		{
			"sampler":0,
			"source":5
		}
	],
	"images":[
		{
			"mimeType":"image/png",
			"name":"playerFace.png",
			"uri":"playerFace.png.png"
		},
		{
			"mimeType":"image/png",
			"name":"playerEyes.png",
			"uri":"playerEyes.png.png"
		},
		{
			"mimeType":"image/png",
			"name":"playerShirt.png",
			"uri":"playerShirt.png.png"
		},
		{
			"mimeType":"image/png",
			"name":"playerOveralls",
			"uri":"playerOveralls.png"
		},
		{
			"mimeType":"image/png",
			"name":"playerHand",
			"uri":"playerHand.png"
		},
		{
			"mimeType":"image/png",
			"name":"playerShoes.png",
			"uri":"playerShoes.png.png"
		}
	],
	"skins":[
		{
			"inverseBindMatrices":36,
			"joints":[
				5,
				0,
				2,
				1,
				4,
				3,
				7,
				6,
				9,
				8
			],
			"name":"\u30a2\u30fc\u30de\u30c1\u30e5\u30a2"
		}
	],
	"accessors":[
		{
			"bufferView":0,
			"componentType":5126,
			"count":248,
			"max":[
				0.9534388184547424,
				3.382081985473633,
				0.7706168293952942
			],
			"min":[
				-0.9534388184547424,
				1.3917077779769897,
				-0.7706168293952942
			],
			"type":"VEC3"
		},
		{
			"bufferView":1,
			"componentType":5126,
			"count":248,
			"type":"VEC3"
		},
		{
			"bufferView":2,
			"componentType":5126,
			"count":248,
			"type":"VEC2"
		},
		{
			"bufferView":3,
			"componentType":5121,
			"count":248,
			"type":"VEC4"
		},
		{
			"bufferView":4,
			"componentType":5126,
			"count":248,
			"type":"VEC4"
		},
		{
			"bufferView":5,
			"componentType":5123,
			"count":372,
			"type":"SCALAR"
		},
		{
			"bufferView":6,
			"componentType":5126,
			"count":281,
			"max":[
				0.834304928779602,
				2.3923301696777344,
				0.768640398979187
			],
			"min":[
				-0.834304928779602,
				1.7686282396316528,
				-0.6591955423355103
			],
			"type":"VEC3"
		},
		{
			"bufferView":7,
			"componentType":5126,
			"count":281,
			"type":"VEC3"
		},
		{
			"bufferView":8,
			"componentType":5126,
			"count":281,
			"type":"VEC2"
		},
		{
			"bufferView":9,
			"componentType":5121,
			"count":281,
			"type":"VEC4"
		},
		{
			"bufferView":10,
			"componentType":5126,
			"count":281,
			"type":"VEC4"
		},
		{
			"bufferView":11,
			"componentType":5123,
			"count":468,
			"type":"SCALAR"
		},
		{
			"bufferView":12,
			"componentType":5126,
			"count":128,
			"max":[
				1.444746971130371,
				1.690090298652649,
				0.5663411021232605
			],
			"min":[
				-1.444746971130371,
				1.1975305080413818,
				-0.590009868144989
			],
			"type":"VEC3"
		},
		{
			"bufferView":13,
			"componentType":5126,
			"count":128,
			"type":"VEC3"
		},
		{
			"bufferView":14,
			"componentType":5126,
			"count":128,
			"type":"VEC2"
		},
		{
			"bufferView":15,
			"componentType":5121,
			"count":128,
			"type":"VEC4"
		},
		{
			"bufferView":16,
			"componentType":5126,
			"count":128,
			"type":"VEC4"
		},
		{
			"bufferView":17,
			"componentType":5123,
			"count":453,
			"type":"SCALAR"
		},
		{
			"bufferView":18,
			"componentType":5126,
			"count":215,
			"max":[
				0.697754979133606,
				1.7011884450912476,
				0.5994551181793213
			],
			"min":[
				-0.697754979133606,
				-0.39378559589385986,
				-0.700817883014679
			],
			"type":"VEC3"
		},
		{
			"bufferView":19,
			"componentType":5126,
			"count":215,
			"type":"VEC3"
		},
		{
			"bufferView":20,
			"componentType":5126,
			"count":215,
			"type":"VEC2"
		},
		{
			"bufferView":21,
			"componentType":5121,
			"count":215,
			"type":"VEC4"
		},
		{
			"bufferView":22,
			"componentType":5126,
			"count":215,
			"type":"VEC4"
		},
		{
			"bufferView":23,
			"componentType":5123,
			"count":969,
			"type":"SCALAR"
		},
		{
			"bufferView":24,
			"componentType":5126,
			"count":82,
			"max":[
				1.864264965057373,
				1.7165333032608032,
				0.26748529076576233
			],
			"min":[
				-1.864264965057373,
				1.2483283281326294,
				-0.26748499274253845
			],
			"type":"VEC3"
		},
		{
			"bufferView":25,
			"componentType":5126,
			"count":82,
			"type":"VEC3"
		},
		{
			"bufferView":26,
			"componentType":5126,
			"count":82,
			"type":"VEC2"
		},
		{
			"bufferView":27,
			"componentType":5121,
			"count":82,
			"type":"VEC4"
		},
		{
			"bufferView":28,
			"componentType":5126,
			"count":82,
			"type":"VEC4"
		},
		{
			"bufferView":29,
			"componentType":5123,
			"count":384,
			"type":"SCALAR"
		},
		{
			"bufferView":30,
			"componentType":5126,
			"count":82,
			"max":[
				0.5548809766769409,
				-0.38505446910858154,
				0.3286750316619873
			],
			"min":[
				-0.5548809766769409,
				-0.6238425970077515,
				-0.20629501342773438
			],
			"type":"VEC3"
		},
		{
			"bufferView":31,
			"componentType":5126,
			"count":82,
			"type":"VEC3"
		},
		{
			"bufferView":32,
			"componentType":5126,
			"count":82,
			"type":"VEC2"
		},
		{
			"bufferView":33,
			"componentType":5121,
			"count":82,
			"type":"VEC4"
		},
		{
			"bufferView":34,
			"componentType":5126,
			"count":82,
			"type":"VEC4"
		},
		{
			"bufferView":35,
			"componentType":5123,
			"count":384,
			"type":"SCALAR"
		},
		{
			"bufferView":36,
			"componentType":5126,
			"count":10,
			"type":"MAT4"
		},
		{
			"bufferView":37,
			"componentType":5126,
			"count":2,
			"max":[
				1.6666666666666667
			],
			"min":[
				0.041666666666666664
			],
			"type":"SCALAR"
		},
		{
			"bufferView":38,
			"componentType":5126,
			"count":2,
			"type":"VEC3"
		},
		{
			"bufferView":39,
			"componentType":5126,
			"count":40,
			"max":[
				1.6666666666666667
			],
			"min":[
				0.041666666666666664
			],
			"type":"SCALAR"
		},
		{
			"bufferView":40,
			"componentType":5126,
			"count":40,
			"type":"VEC4"
		},
		{
			"bufferView":41,
			"componentType":5126,
			"count":2,
			"type":"VEC3"
		},
		{
			"bufferView":42,
			"componentType":5126,
			"count":2,
			"type":"VEC3"
		},
		{
			"bufferView":43,
			"componentType":5126,
			"count":40,
			"type":"VEC4"
		},
		{
			"bufferView":44,
			"componentType":5126,
			"count":2,
			"type":"VEC3"
		},
		{
			"bufferView":45,
			"componentType":5126,
			"count":2,
			"type":"VEC3"
		},
		{
			"bufferView":46,
			"componentType":5126,
			"count":40,
			"type":"VEC4"
		},
		{
			"bufferView":47,
			"componentType":5126,
			"count":2,
			"type":"VEC3"
		},
		{
			"bufferView":48,
			"componentType":5126,
			"count":2,
			"type":"VEC3"
		},
		{
			"bufferView":49,
			"componentType":5126,
			"count":40,
			"type":"VEC4"
		},
		{
			"bufferView":50,
			"componentType":5126,
			"count":2,
			"type":"VEC3"
		},
		{
			"bufferView":51,
			"componentType":5126,
			"count":2,
			"type":"VEC3"
		},
		{
			"bufferView":52,
			"componentType":5126,
			"count":40,
			"type":"VEC4"
		},
		{
			"bufferView":53,
			"componentType":5126,
			"count":2,
			"type":"VEC3"
		},
		{
			"bufferView":54,
			"componentType":5126,
			"count":2,
			"type":"VEC3"
		},
		{
			"bufferView":55,
			"componentType":5126,
			"count":2,
			"type":"VEC4"
		},
		{
			"bufferView":56,
			"componentType":5126,
			"count":2,
			"type":"VEC3"
		},
		{
			"bufferView":57,
			"componentType":5126,
			"count":2,
			"type":"VEC3"
		},
		{
			"bufferView":58,
			"componentType":5126,
			"count":2,
			"type":"VEC4"
		},
		{
			"bufferView":59,
			"componentType":5126,
			"count":2,
			"type":"VEC3"
		},
		{
			"bufferView":60,
			"componentType":5126,
			"count":2,
			"type":"VEC3"
		},
		{
			"bufferView":61,
			"componentType":5126,
			"count":2,
			"type":"VEC4"
		},
		{
			"bufferView":62,
			"componentType":5126,
			"count":2,
			"type":"VEC3"
		},
		{
			"bufferView":63,
			"componentType":5126,
			"count":2,
			"type":"VEC4"
		},
		{
			"bufferView":64,
			"componentType":5126,
			"count":2,
			"type":"VEC3"
		},
		{
			"bufferView":65,
			"componentType":5126,
			"count":2,
			"type":"VEC3"
		},
		{
			"bufferView":66,
			"componentType":5126,
			"count":2,
			"type":"VEC4"
		},
		{
			"bufferView":67,
			"componentType":5126,
			"count":2,
			"type":"VEC3"
		}
	],
	"bufferViews":[
		{
			"buffer":0,
			"byteLength":2976,
			"byteOffset":0,
			"target":34962
		},
		{
			"buffer":0,
			"byteLength":2976,
			"byteOffset":2976,
			"target":34962
		},
		{
			"buffer":0,
			"byteLength":1984,
			"byteOffset":5952,
			"target":34962
		},
		{
			"buffer":0,
			"byteLength":992,
			"byteOffset":7936,
			"target":34962
		},
		{
			"buffer":0,
			"byteLength":3968,
			"byteOffset":8928,
			"target":34962
		},
		{
			"buffer":0,
			"byteLength":744,
			"byteOffset":12896,
			"target":34963
		},
		{
			"buffer":0,
			"byteLength":3372,
			"byteOffset":13640,
			"target":34962
		},
		{
			"buffer":0,
			"byteLength":3372,
			"byteOffset":17012,
			"target":34962
		},
		{
			"buffer":0,
			"byteLength":2248,
			"byteOffset":20384,
			"target":34962
		},
		{
			"buffer":0,
			"byteLength":1124,
			"byteOffset":22632,
			"target":34962
		},
		{
			"buffer":0,
			"byteLength":4496,
			"byteOffset":23756,
			"target":34962
		},
		{
			"buffer":0,
			"byteLength":936,
			"byteOffset":28252,
			"target":34963
		},
		{
			"buffer":0,
			"byteLength":1536,
			"byteOffset":29188,
			"target":34962
		},
		{
			"buffer":0,
			"byteLength":1536,
			"byteOffset":30724,
			"target":34962
		},
		{
			"buffer":0,
			"byteLength":1024,
			"byteOffset":32260,
			"target":34962
		},
		{
			"buffer":0,
			"byteLength":512,
			"byteOffset":33284,
			"target":34962
		},
		{
			"buffer":0,
			"byteLength":2048,
			"byteOffset":33796,
			"target":34962
		},
		{
			"buffer":0,
			"byteLength":906,
			"byteOffset":35844,
			"target":34963
		},
		{
			"buffer":0,
			"byteLength":2580,
			"byteOffset":36752,
			"target":34962
		},
		{
			"buffer":0,
			"byteLength":2580,
			"byteOffset":39332,
			"target":34962
		},
		{
			"buffer":0,
			"byteLength":1720,
			"byteOffset":41912,
			"target":34962
		},
		{
			"buffer":0,
			"byteLength":860,
			"byteOffset":43632,
			"target":34962
		},
		{
			"buffer":0,
			"byteLength":3440,
			"byteOffset":44492,
			"target":34962
		},
		{
			"buffer":0,
			"byteLength":1938,
			"byteOffset":47932,
			"target":34963
		},
		{
			"buffer":0,
			"byteLength":984,
			"byteOffset":49872,
			"target":34962
		},
		{
			"buffer":0,
			"byteLength":984,
			"byteOffset":50856,
			"target":34962
		},
		{
			"buffer":0,
			"byteLength":656,
			"byteOffset":51840,
			"target":34962
		},
		{
			"buffer":0,
			"byteLength":328,
			"byteOffset":52496,
			"target":34962
		},
		{
			"buffer":0,
			"byteLength":1312,
			"byteOffset":52824,
			"target":34962
		},
		{
			"buffer":0,
			"byteLength":768,
			"byteOffset":54136,
			"target":34963
		},
		{
			"buffer":0,
			"byteLength":984,
			"byteOffset":54904,
			"target":34962
		},
		{
			"buffer":0,
			"byteLength":984,
			"byteOffset":55888,
			"target":34962
		},
		{
			"buffer":0,
			"byteLength":656,
			"byteOffset":56872,
			"target":34962
		},
		{
			"buffer":0,
			"byteLength":328,
			"byteOffset":57528,
			"target":34962
		},
		{
			"buffer":0,
			"byteLength":1312,
			"byteOffset":57856,
			"target":34962
		},
		{
			"buffer":0,
			"byteLength":768,
			"byteOffset":59168,
			"target":34963
		},
		{
			"buffer":0,
			"byteLength":640,
			"byteOffset":59936
		},
		{
			"buffer":0,
			"byteLength":8,
			"byteOffset":60576
		},
		{
			"buffer":0,
			"byteLength":24,
			"byteOffset":60584
		},
		{
			"buffer":0,
			"byteLength":160,
			"byteOffset":60608
		},
		{
			"buffer":0,
			"byteLength":640,
			"byteOffset":60768
		},
		{
			"buffer":0,
			"byteLength":24,
			"byteOffset":61408
		},
		{
			"buffer":0,
			"byteLength":24,
			"byteOffset":61432
		},
		{
			"buffer":0,
			"byteLength":640,
			"byteOffset":61456
		},
		{
			"buffer":0,
			"byteLength":24,
			"byteOffset":62096
		},
		{
			"buffer":0,
			"byteLength":24,
			"byteOffset":62120
		},
		{
			"buffer":0,
			"byteLength":640,
			"byteOffset":62144
		},
		{
			"buffer":0,
			"byteLength":24,
			"byteOffset":62784
		},
		{
			"buffer":0,
			"byteLength":24,
			"byteOffset":62808
		},
		{
			"buffer":0,
			"byteLength":640,
			"byteOffset":62832
		},
		{
			"buffer":0,
			"byteLength":24,
			"byteOffset":63472
		},
		{
			"buffer":0,
			"byteLength":24,
			"byteOffset":63496
		},
		{
			"buffer":0,
			"byteLength":640,
			"byteOffset":63520
		},
		{
			"buffer":0,
			"byteLength":24,
			"byteOffset":64160
		},
		{
			"buffer":0,
			"byteLength":24,
			"byteOffset":64184
		},
		{
			"buffer":0,
			"byteLength":32,
			"byteOffset":64208
		},
		{
			"buffer":0,
			"byteLength":24,
			"byteOffset":64240
		},
		{
			"buffer":0,
			"byteLength":24,
			"byteOffset":64264
		},
		{
			"buffer":0,
			"byteLength":32,
			"byteOffset":64288
		},
		{
			"buffer":0,
			"byteLength":24,
			"byteOffset":64320
		},
		{
			"buffer":0,
			"byteLength":24,
			"byteOffset":64344
		},
		{
			"buffer":0,
			"byteLength":32,
			"byteOffset":64368
		},
		{
			"buffer":0,
			"byteLength":24,
			"byteOffset":64400
		},
		{
			"buffer":0,
			"byteLength":32,
			"byteOffset":64424
		},
		{
			"buffer":0,
			"byteLength":24,
			"byteOffset":64456
		},
		{
			"buffer":0,
			"byteLength":24,
			"byteOffset":64480
		},
		{
			"buffer":0,
			"byteLength":32,
			"byteOffset":64504
		},
		{
			"buffer":0,
			"byteLength":24,
			"byteOffset":64536
		}
	],
	"samplers":[
		{
			"magFilter":9729,
			"minFilter":9987
		}
	],
	"buffers":[
		{
			"byteLength":64560,
			"uri":"playerTitle.bin"
		}
	]
}
