{
	"asset":{
		"generator":"Khronos glTF Blender I/O v4.1.63",
		"version":"2.0"
	},
	"scene":0,
	"scenes":[
		{
			"name":"Scene",
			"nodes":[
				11
			]
		}
	],
	"nodes":[
		{
			"name":"\u30dc\u30fc\u30f3.001",
			"rotation":[
				5.5928933291832066e-15,
				-5.329070518200751e-15,
				1.4702485366744165e-22,
				1
			],
			"translation":[
				1.0587911840678754e-22,
				0.9999998807907104,
				0
			]
		},
		{
			"name":"\u30dc\u30fc\u30f3.003",
			"rotation":[
				-1.038115815532592e-08,
				6.665580798426163e-08,
				-0.09340497851371765,
				0.9956282377243042
			],
			"scale":[
				1,
				0.9999999403953552,
				1
			],
			"translation":[
				-1.0430815677864302e-07,
				0.5494253039360046,
				-3.885780586188048e-14
			]
		},
		{
			"children":[
				1
			],
			"name":"\u30dc\u30fc\u30f3.002",
			"rotation":[
				1.2245220659679035e-07,
				-1.662724713469288e-07,
				0.7557838559150696,
				0.6548212766647339
			],
			"scale":[
				0.9999999403953552,
				0.9999999403953552,
				1
			],
			"translation":[
				2.9802318834981634e-08,
				1.0000001192092896,
				-2.5326236418509113e-15
			]
		},
		{
			"name":"\u30dc\u30fc\u30f3.005",
			"rotation":[
				5.561507698814694e-09,
				6.435352162270647e-08,
				0.1038394570350647,
				0.9945940971374512
			],
			"scale":[
				1,
				0.9999999403953552,
				1
			],
			"translation":[
				-1.7136336794010276e-07,
				0.5307652950286865,
				1.7763568394002505e-14
			]
		},
		{
			"children":[
				3
			],
			"name":"\u30dc\u30fc\u30f3.004",
			"rotation":[
				-1.0267913097550263e-07,
				-6.772679483901811e-08,
				-0.7632548809051514,
				0.6460974812507629
			],
			"scale":[
				0.9999998807907104,
				0.9999999403953552,
				1
			],
			"translation":[
				-2.9802313505911115e-08,
				0.9999998807907104,
				-4.572803503991854e-15
			]
		},
		{
			"children":[
				0,
				2,
				4
			],
			"name":"\u30dc\u30fc\u30f3",
			"rotation":[
				-8.557136332854043e-09,
				1.7114272665708086e-08,
				-2.928983286277023e-16,
				1
			],
			"translation":[
				0,
				1.1447113752365112,
				0
			]
		},
		{
			"name":"\u30dc\u30fc\u30f3.007",
			"rotation":[
				-0.3118179142475128,
				1.5484204141102964e-07,
				2.7770358457246402e-08,
				0.9501418471336365
			],
			"scale":[
				1,
				1,
				0.9999999403953552
			],
			"translation":[
				1.0658141036401503e-14,
				0.47796180844306946,
				-2.9802347256691064e-08
			]
		},
		{
			"children":[
				6
			],
			"name":"\u30dc\u30fc\u30f3.006",
			"rotation":[
				-0.6647086143493652,
				0.24116848409175873,
				0.6647088527679443,
				0.24116867780685425
			],
			"scale":[
				0.9999999403953552,
				0.9999999403953552,
				1
			],
			"translation":[
				0,
				1.1447113752365112,
				0
			]
		},
		{
			"name":"\u30dc\u30fc\u30f3.009",
			"rotation":[
				-0.30840522050857544,
				-8.297313769389802e-08,
				3.6244713896849134e-08,
				0.9512550830841064
			],
			"translation":[
				4.884981308350689e-15,
				0.4725598692893982,
				-1.887379141862766e-15
			]
		},
		{
			"children":[
				8
			],
			"name":"\u30dc\u30fc\u30f3.008",
			"rotation":[
				-0.6670641899108887,
				-0.2345748245716095,
				-0.6670641899108887,
				0.23457488417625427
			],
			"scale":[
				1,
				1,
				0.9999999403953552
			],
			"translation":[
				0,
				1.1447113752365112,
				0
			]
		},
		{
			"mesh":0,
			"name":"\u7acb\u65b9\u4f53",
			"skin":0
		},
		{
			"children":[
				10,
				5,
				7,
				9
			],
			"name":"\u30a2\u30fc\u30de\u30c1\u30e5\u30a2"
		}
	],
	"animations":[
		{
			"channels":[
				{
					"sampler":0,
					"target":{
						"node":5,
						"path":"translation"
					}
				},
				{
					"sampler":1,
					"target":{
						"node":5,
						"path":"rotation"
					}
				},
				{
					"sampler":2,
					"target":{
						"node":5,
						"path":"scale"
					}
				},
				{
					"sampler":3,
					"target":{
						"node":0,
						"path":"translation"
					}
				},
				{
					"sampler":4,
					"target":{
						"node":0,
						"path":"rotation"
					}
				},
				{
					"sampler":5,
					"target":{
						"node":0,
						"path":"scale"
					}
				},
				{
					"sampler":6,
					"target":{
						"node":2,
						"path":"translation"
					}
				},
				{
					"sampler":7,
					"target":{
						"node":2,
						"path":"rotation"
					}
				},
				{
					"sampler":8,
					"target":{
						"node":2,
						"path":"scale"
					}
				},
				{
					"sampler":9,
					"target":{
						"node":1,
						"path":"translation"
					}
				},
				{
					"sampler":10,
					"target":{
						"node":1,
						"path":"rotation"
					}
				},
				{
					"sampler":11,
					"target":{
						"node":1,
						"path":"scale"
					}
				},
				{
					"sampler":12,
					"target":{
						"node":4,
						"path":"translation"
					}
				},
				{
					"sampler":13,
					"target":{
						"node":4,
						"path":"rotation"
					}
				},
				{
					"sampler":14,
					"target":{
						"node":4,
						"path":"scale"
					}
				},
				{
					"sampler":15,
					"target":{
						"node":3,
						"path":"translation"
					}
				},
				{
					"sampler":16,
					"target":{
						"node":3,
						"path":"rotation"
					}
				},
				{
					"sampler":17,
					"target":{
						"node":3,
						"path":"scale"
					}
				},
				{
					"sampler":18,
					"target":{
						"node":7,
						"path":"translation"
					}
				},
				{
					"sampler":19,
					"target":{
						"node":7,
						"path":"rotation"
					}
				},
				{
					"sampler":20,
					"target":{
						"node":7,
						"path":"scale"
					}
				},
				{
					"sampler":21,
					"target":{
						"node":6,
						"path":"translation"
					}
				},
				{
					"sampler":22,
					"target":{
						"node":6,
						"path":"rotation"
					}
				},
				{
					"sampler":23,
					"target":{
						"node":6,
						"path":"scale"
					}
				},
				{
					"sampler":24,
					"target":{
						"node":9,
						"path":"translation"
					}
				},
				{
					"sampler":25,
					"target":{
						"node":9,
						"path":"rotation"
					}
				},
				{
					"sampler":26,
					"target":{
						"node":9,
						"path":"scale"
					}
				},
				{
					"sampler":27,
					"target":{
						"node":8,
						"path":"translation"
					}
				},
				{
					"sampler":28,
					"target":{
						"node":8,
						"path":"rotation"
					}
				},
				{
					"sampler":29,
					"target":{
						"node":8,
						"path":"scale"
					}
				}
			],
			"name":"\u30a2\u30fc\u30de\u30c1\u30e5\u30a2\u30a2\u30af\u30b7\u30e7\u30f3",
			"samplers":[
				{
					"input":37,
					"interpolation":"STEP",
					"output":38
				},
				{
					"input":37,
					"interpolation":"STEP",
					"output":39
				},
				{
					"input":37,
					"interpolation":"STEP",
					"output":40
				},
				{
					"input":37,
					"interpolation":"STEP",
					"output":41
				},
				{
					"input":42,
					"interpolation":"LINEAR",
					"output":43
				},
				{
					"input":37,
					"interpolation":"STEP",
					"output":44
				},
				{
					"input":37,
					"interpolation":"LINEAR",
					"output":45
				},
				{
					"input":42,
					"interpolation":"LINEAR",
					"output":46
				},
				{
					"input":37,
					"interpolation":"STEP",
					"output":47
				},
				{
					"input":37,
					"interpolation":"LINEAR",
					"output":48
				},
				{
					"input":37,
					"interpolation":"STEP",
					"output":49
				},
				{
					"input":37,
					"interpolation":"STEP",
					"output":50
				},
				{
					"input":37,
					"interpolation":"LINEAR",
					"output":51
				},
				{
					"input":42,
					"interpolation":"LINEAR",
					"output":52
				},
				{
					"input":37,
					"interpolation":"STEP",
					"output":53
				},
				{
					"input":37,
					"interpolation":"LINEAR",
					"output":54
				},
				{
					"input":37,
					"interpolation":"LINEAR",
					"output":55
				},
				{
					"input":37,
					"interpolation":"LINEAR",
					"output":56
				},
				{
					"input":37,
					"interpolation":"STEP",
					"output":57
				},
				{
					"input":42,
					"interpolation":"LINEAR",
					"output":58
				},
				{
					"input":37,
					"interpolation":"STEP",
					"output":59
				},
				{
					"input":37,
					"interpolation":"LINEAR",
					"output":60
				},
				{
					"input":42,
					"interpolation":"LINEAR",
					"output":61
				},
				{
					"input":37,
					"interpolation":"LINEAR",
					"output":62
				},
				{
					"input":37,
					"interpolation":"STEP",
					"output":63
				},
				{
					"input":42,
					"interpolation":"LINEAR",
					"output":64
				},
				{
					"input":37,
					"interpolation":"LINEAR",
					"output":65
				},
				{
					"input":37,
					"interpolation":"LINEAR",
					"output":66
				},
				{
					"input":42,
					"interpolation":"LINEAR",
					"output":67
				},
				{
					"input":37,
					"interpolation":"STEP",
					"output":68
				}
			]
		}
	],
	"materials":[
		{
			"doubleSided":true,
			"name":"\u30de\u30c6\u30ea\u30a2\u30eb.005",
			"pbrMetallicRoughness":{
				"baseColorTexture":{
					"index":0
				},
				"metallicFactor":0,
				"roughnessFactor":0.5
			}
		},
		{
			"doubleSided":true,
			"name":"\u30de\u30c6\u30ea\u30a2\u30eb.004",
			"pbrMetallicRoughness":{
				"baseColorTexture":{
					"index":1
				},
				"metallicFactor":0,
				"roughnessFactor":0.5
			}
		},
		{
			"doubleSided":true,
			"name":"\u30de\u30c6\u30ea\u30a2\u30eb.001",
			"pbrMetallicRoughness":{
				"baseColorTexture":{
					"index":2
				},
				"metallicFactor":0,
				"roughnessFactor":0.5
			}
		},
		{
			"doubleSided":true,
			"name":"\u30de\u30c6\u30ea\u30a2\u30eb",
			"pbrMetallicRoughness":{
				"baseColorTexture":{
					"index":3
				},
				"metallicFactor":0,
				"roughnessFactor":0.5
			}
		},
		{
			"doubleSided":true,
			"name":"\u30de\u30c6\u30ea\u30a2\u30eb.002",
			"pbrMetallicRoughness":{
				"baseColorTexture":{
					"index":4
				},
				"metallicFactor":0,
				"roughnessFactor":0.5
			}
		},
		{
			"doubleSided":true,
			"name":"\u30de\u30c6\u30ea\u30a2\u30eb.003",
			"pbrMetallicRoughness":{
				"baseColorTexture":{
					"index":5
				},
				"metallicFactor":0,
				"roughnessFactor":0.5
			}
		}
	],
	"meshes":[
		{
			"name":"\u7acb\u65b9\u4f53",
			"primitives":[
				{
					"attributes":{
						"POSITION":0,
						"NORMAL":1,
						"TEXCOORD_0":2,
						"JOINTS_0":3,
						"WEIGHTS_0":4
					},
					"indices":5,
					"material":0
				},
				{
					"attributes":{
						"POSITION":6,
						"NORMAL":7,
						"TEXCOORD_0":8,
						"JOINTS_0":9,
						"WEIGHTS_0":10
					},
					"indices":11,
					"material":1
				},
				{
					"attributes":{
						"POSITION":12,
						"NORMAL":13,
						"TEXCOORD_0":14,
						"JOINTS_0":15,
						"WEIGHTS_0":16
					},
					"indices":17,
					"material":2
				},
				{
					"attributes":{
						"POSITION":18,
						"NORMAL":19,
						"TEXCOORD_0":20,
						"JOINTS_0":21,
						"WEIGHTS_0":22
					},
					"indices":23,
					"material":3
				},
				{
					"attributes":{
						"POSITION":24,
						"NORMAL":25,
						"TEXCOORD_0":26,
						"JOINTS_0":27,
						"WEIGHTS_0":28
					},
					"indices":29,
					"material":4
				},
				{
					"attributes":{
						"POSITION":30,
						"NORMAL":31,
						"TEXCOORD_0":32,
						"JOINTS_0":33,
						"WEIGHTS_0":34
					},
					"indices":35,
					"material":5
				}
			]
		}
	],
	"textures":[
		{
			"sampler":0,
			"source":0
		},
		{
			"sampler":0,
			"source":1
		},
		{
			"sampler":0,
			"source":2
		},
		{
			"sampler":0,
			"source":3
		},
		{
			"sampler":0,
			"source":4
		},
		{
			"sampler":0,
			"source":5
		}
	],
	"images":[
		{
			"mimeType":"image/png",
			"name":"playerFace.png",
			"uri":"playerFace_png.png"
		},
		{
			"mimeType":"image/png",
			"name":"playerEyes.png",
			"uri":"playerEyes_png.png"
		},
		{
			"mimeType":"image/png",
			"name":"playerShirt.png",
			"uri":"playerShirt_png.png"
		},
		{
			"mimeType":"image/png",
			"name":"playerOveralls",
			"uri":"playerOveralls.png"
		},
		{
			"mimeType":"image/png",
			"name":"playerHand",
			"uri":"playerHand.png"
		},
		{
			"mimeType":"image/png",
			"name":"playerShoes.png",
			"uri":"playerShoes_png.png"
		}
	],
	"skins":[
		{
			"inverseBindMatrices":36,
			"joints":[
				5,
				0,
				2,
				1,
				4,
				3,
				7,
				6,
				9,
				8
			],
			"name":"\u30a2\u30fc\u30de\u30c1\u30e5\u30a2"
		}
	],
	"accessors":[
		{
			"bufferView":0,
			"componentType":5126,
			"count":248,
			"max":[
				0.9534388184547424,
				4.003195285797119,
				0.7706168293952942
			],
			"min":[
				-0.9534388184547424,
				2.0128211975097656,
				-0.7706168293952942
			],
			"type":"VEC3"
		},
		{
			"bufferView":1,
			"componentType":5126,
			"count":248,
			"type":"VEC3"
		},
		{
			"bufferView":2,
			"componentType":5126,
			"count":248,
			"type":"VEC2"
		},
		{
			"bufferView":3,
			"componentType":5121,
			"count":248,
			"type":"VEC4"
		},
		{
			"bufferView":4,
			"componentType":5126,
			"count":248,
			"type":"VEC4"
		},
		{
			"bufferView":5,
			"componentType":5123,
			"count":372,
			"type":"SCALAR"
		},
		{
			"bufferView":6,
			"componentType":5126,
			"count":264,
			"max":[
				0.834304928779602,
				3.1458094120025635,
				0.768640398979187
			],
			"min":[
				-0.834304928779602,
				2.3897416591644287,
				-0.6591955423355103
			],
			"type":"VEC3"
		},
		{
			"bufferView":7,
			"componentType":5126,
			"count":264,
			"type":"VEC3"
		},
		{
			"bufferView":8,
			"componentType":5126,
			"count":264,
			"type":"VEC2"
		},
		{
			"bufferView":9,
			"componentType":5121,
			"count":264,
			"type":"VEC4"
		},
		{
			"bufferView":10,
			"componentType":5126,
			"count":264,
			"type":"VEC4"
		},
		{
			"bufferView":11,
			"componentType":5123,
			"count":468,
			"type":"SCALAR"
		},
		{
			"bufferView":12,
			"componentType":5126,
			"count":128,
			"max":[
				1.444746971130371,
				2.311203718185425,
				0.5663411021232605
			],
			"min":[
				-1.4447473287582397,
				1.8186438083648682,
				-0.590009868144989
			],
			"type":"VEC3"
		},
		{
			"bufferView":13,
			"componentType":5126,
			"count":128,
			"type":"VEC3"
		},
		{
			"bufferView":14,
			"componentType":5126,
			"count":128,
			"type":"VEC2"
		},
		{
			"bufferView":15,
			"componentType":5121,
			"count":128,
			"type":"VEC4"
		},
		{
			"bufferView":16,
			"componentType":5126,
			"count":128,
			"type":"VEC4"
		},
		{
			"bufferView":17,
			"componentType":5123,
			"count":453,
			"type":"SCALAR"
		},
		{
			"bufferView":18,
			"componentType":5126,
			"count":215,
			"max":[
				0.6977550387382507,
				2.3223018646240234,
				0.5994550585746765
			],
			"min":[
				-0.6977549195289612,
				0.22732779383659363,
				-0.700817883014679
			],
			"type":"VEC3"
		},
		{
			"bufferView":19,
			"componentType":5126,
			"count":215,
			"type":"VEC3"
		},
		{
			"bufferView":20,
			"componentType":5126,
			"count":215,
			"type":"VEC2"
		},
		{
			"bufferView":21,
			"componentType":5121,
			"count":215,
			"type":"VEC4"
		},
		{
			"bufferView":22,
			"componentType":5126,
			"count":215,
			"type":"VEC4"
		},
		{
			"bufferView":23,
			"componentType":5123,
			"count":969,
			"type":"SCALAR"
		},
		{
			"bufferView":24,
			"componentType":5126,
			"count":82,
			"max":[
				1.864264965057373,
				2.3376474380493164,
				0.26748529076576233
			],
			"min":[
				-1.8642654418945312,
				1.8694419860839844,
				-0.26748499274253845
			],
			"type":"VEC3"
		},
		{
			"bufferView":25,
			"componentType":5126,
			"count":82,
			"type":"VEC3"
		},
		{
			"bufferView":26,
			"componentType":5126,
			"count":82,
			"type":"VEC2"
		},
		{
			"bufferView":27,
			"componentType":5121,
			"count":82,
			"type":"VEC4"
		},
		{
			"bufferView":28,
			"componentType":5126,
			"count":82,
			"type":"VEC4"
		},
		{
			"bufferView":29,
			"componentType":5123,
			"count":384,
			"type":"SCALAR"
		},
		{
			"bufferView":30,
			"componentType":5126,
			"count":82,
			"max":[
				0.5548810362815857,
				0.23605896532535553,
				0.32867494225502014
			],
			"min":[
				-0.5548809766769409,
				-0.0027291704900562763,
				-0.20629502832889557
			],
			"type":"VEC3"
		},
		{
			"bufferView":31,
			"componentType":5126,
			"count":82,
			"type":"VEC3"
		},
		{
			"bufferView":32,
			"componentType":5126,
			"count":82,
			"type":"VEC2"
		},
		{
			"bufferView":33,
			"componentType":5121,
			"count":82,
			"type":"VEC4"
		},
		{
			"bufferView":34,
			"componentType":5126,
			"count":82,
			"type":"VEC4"
		},
		{
			"bufferView":35,
			"componentType":5123,
			"count":384,
			"type":"SCALAR"
		},
		{
			"bufferView":36,
			"componentType":5126,
			"count":10,
			"type":"MAT4"
		},
		{
			"bufferView":37,
			"componentType":5126,
			"count":2,
			"max":[
				0.3333333333333333
			],
			"min":[
				0.041666666666666664
			],
			"type":"SCALAR"
		},
		{
			"bufferView":38,
			"componentType":5126,
			"count":2,
			"type":"VEC3"
		},
		{
			"bufferView":39,
			"componentType":5126,
			"count":2,
			"type":"VEC4"
		},
		{
			"bufferView":40,
			"componentType":5126,
			"count":2,
			"type":"VEC3"
		},
		{
			"bufferView":41,
			"componentType":5126,
			"count":2,
			"type":"VEC3"
		},
		{
			"bufferView":42,
			"componentType":5126,
			"count":8,
			"max":[
				0.3333333333333333
			],
			"min":[
				0.041666666666666664
			],
			"type":"SCALAR"
		},
		{
			"bufferView":43,
			"componentType":5126,
			"count":8,
			"type":"VEC4"
		},
		{
			"bufferView":44,
			"componentType":5126,
			"count":2,
			"type":"VEC3"
		},
		{
			"bufferView":45,
			"componentType":5126,
			"count":2,
			"type":"VEC3"
		},
		{
			"bufferView":46,
			"componentType":5126,
			"count":8,
			"type":"VEC4"
		},
		{
			"bufferView":47,
			"componentType":5126,
			"count":2,
			"type":"VEC3"
		},
		{
			"bufferView":48,
			"componentType":5126,
			"count":2,
			"type":"VEC3"
		},
		{
			"bufferView":49,
			"componentType":5126,
			"count":2,
			"type":"VEC4"
		},
		{
			"bufferView":50,
			"componentType":5126,
			"count":2,
			"type":"VEC3"
		},
		{
			"bufferView":51,
			"componentType":5126,
			"count":2,
			"type":"VEC3"
		},
		{
			"bufferView":52,
			"componentType":5126,
			"count":8,
			"type":"VEC4"
		},
		{
			"bufferView":53,
			"componentType":5126,
			"count":2,
			"type":"VEC3"
		},
		{
			"bufferView":54,
			"componentType":5126,
			"count":2,
			"type":"VEC3"
		},
		{
			"bufferView":55,
			"componentType":5126,
			"count":2,
			"type":"VEC4"
		},
		{
			"bufferView":56,
			"componentType":5126,
			"count":2,
			"type":"VEC3"
		},
		{
			"bufferView":57,
			"componentType":5126,
			"count":2,
			"type":"VEC3"
		},
		{
			"bufferView":58,
			"componentType":5126,
			"count":8,
			"type":"VEC4"
		},
		{
			"bufferView":59,
			"componentType":5126,
			"count":2,
			"type":"VEC3"
		},
		{
			"bufferView":60,
			"componentType":5126,
			"count":2,
			"type":"VEC3"
		},
		{
			"bufferView":61,
			"componentType":5126,
			"count":8,
			"type":"VEC4"
		},
		{
			"bufferView":62,
			"componentType":5126,
			"count":2,
			"type":"VEC3"
		},
		{
			"bufferView":63,
			"componentType":5126,
			"count":2,
			"type":"VEC3"
		},
		{
			"bufferView":64,
			"componentType":5126,
			"count":8,
			"type":"VEC4"
		},
		{
			"bufferView":65,
			"componentType":5126,
			"count":2,
			"type":"VEC3"
		},
		{
			"bufferView":66,
			"componentType":5126,
			"count":2,
			"type":"VEC3"
		},
		{
			"bufferView":67,
			"componentType":5126,
			"count":8,
			"type":"VEC4"
		},
		{
			"bufferView":68,
			"componentType":5126,
			"count":2,
			"type":"VEC3"
		}
	],
	"bufferViews":[
		{
			"buffer":0,
			"byteLength":2976,
			"byteOffset":0,
			"target":34962
		},
		{
			"buffer":0,
			"byteLength":2976,
			"byteOffset":2976,
			"target":34962
		},
		{
			"buffer":0,
			"byteLength":1984,
			"byteOffset":5952,
			"target":34962
		},
		{
			"buffer":0,
			"byteLength":992,
			"byteOffset":7936,
			"target":34962
		},
		{
			"buffer":0,
			"byteLength":3968,
			"byteOffset":8928,
			"target":34962
		},
		{
			"buffer":0,
			"byteLength":744,
			"byteOffset":12896,
			"target":34963
		},
		{
			"buffer":0,
			"byteLength":3168,
			"byteOffset":13640,
			"target":34962
		},
		{
			"buffer":0,
			"byteLength":3168,
			"byteOffset":16808,
			"target":34962
		},
		{
			"buffer":0,
			"byteLength":2112,
			"byteOffset":19976,
			"target":34962
		},
		{
			"buffer":0,
			"byteLength":1056,
			"byteOffset":22088,
			"target":34962
		},
		{
			"buffer":0,
			"byteLength":4224,
			"byteOffset":23144,
			"target":34962
		},
		{
			"buffer":0,
			"byteLength":936,
			"byteOffset":27368,
			"target":34963
		},
		{
			"buffer":0,
			"byteLength":1536,
			"byteOffset":28304,
			"target":34962
		},
		{
			"buffer":0,
			"byteLength":1536,
			"byteOffset":29840,
			"target":34962
		},
		{
			"buffer":0,
			"byteLength":1024,
			"byteOffset":31376,
			"target":34962
		},
		{
			"buffer":0,
			"byteLength":512,
			"byteOffset":32400,
			"target":34962
		},
		{
			"buffer":0,
			"byteLength":2048,
			"byteOffset":32912,
			"target":34962
		},
		{
			"buffer":0,
			"byteLength":906,
			"byteOffset":34960,
			"target":34963
		},
		{
			"buffer":0,
			"byteLength":2580,
			"byteOffset":35868,
			"target":34962
		},
		{
			"buffer":0,
			"byteLength":2580,
			"byteOffset":38448,
			"target":34962
		},
		{
			"buffer":0,
			"byteLength":1720,
			"byteOffset":41028,
			"target":34962
		},
		{
			"buffer":0,
			"byteLength":860,
			"byteOffset":42748,
			"target":34962
		},
		{
			"buffer":0,
			"byteLength":3440,
			"byteOffset":43608,
			"target":34962
		},
		{
			"buffer":0,
			"byteLength":1938,
			"byteOffset":47048,
			"target":34963
		},
		{
			"buffer":0,
			"byteLength":984,
			"byteOffset":48988,
			"target":34962
		},
		{
			"buffer":0,
			"byteLength":984,
			"byteOffset":49972,
			"target":34962
		},
		{
			"buffer":0,
			"byteLength":656,
			"byteOffset":50956,
			"target":34962
		},
		{
			"buffer":0,
			"byteLength":328,
			"byteOffset":51612,
			"target":34962
		},
		{
			"buffer":0,
			"byteLength":1312,
			"byteOffset":51940,
			"target":34962
		},
		{
			"buffer":0,
			"byteLength":768,
			"byteOffset":53252,
			"target":34963
		},
		{
			"buffer":0,
			"byteLength":984,
			"byteOffset":54020,
			"target":34962
		},
		{
			"buffer":0,
			"byteLength":984,
			"byteOffset":55004,
			"target":34962
		},
		{
			"buffer":0,
			"byteLength":656,
			"byteOffset":55988,
			"target":34962
		},
		{
			"buffer":0,
			"byteLength":328,
			"byteOffset":56644,
			"target":34962
		},
		{
			"buffer":0,
			"byteLength":1312,
			"byteOffset":56972,
			"target":34962
		},
		{
			"buffer":0,
			"byteLength":768,
			"byteOffset":58284,
			"target":34963
		},
		{
			"buffer":0,
			"byteLength":640,
			"byteOffset":59052
		},
		{
			"buffer":0,
			"byteLength":8,
			"byteOffset":59692
		},
		{
			"buffer":0,
			"byteLength":24,
			"byteOffset":59700
		},
		{
			"buffer":0,
			"byteLength":32,
			"byteOffset":59724
		},
		{
			"buffer":0,
			"byteLength":24,
			"byteOffset":59756
		},
		{
			"buffer":0,
			"byteLength":24,
			"byteOffset":59780
		},
		{
			"buffer":0,
			"byteLength":32,
			"byteOffset":59804
		},
		{
			"buffer":0,
			"byteLength":128,
			"byteOffset":59836
		},
		{
			"buffer":0,
			"byteLength":24,
			"byteOffset":59964
		},
		{
			"buffer":0,
			"byteLength":24,
			"byteOffset":59988
		},
		{
			"buffer":0,
			"byteLength":128,
			"byteOffset":60012
		},
		{
			"buffer":0,
			"byteLength":24,
			"byteOffset":60140
		},
		{
			"buffer":0,
			"byteLength":24,
			"byteOffset":60164
		},
		{
			"buffer":0,
			"byteLength":32,
			"byteOffset":60188
		},
		{
			"buffer":0,
			"byteLength":24,
			"byteOffset":60220
		},
		{
			"buffer":0,
			"byteLength":24,
			"byteOffset":60244
		},
		{
			"buffer":0,
			"byteLength":128,
			"byteOffset":60268
		},
		{
			"buffer":0,
			"byteLength":24,
			"byteOffset":60396
		},
		{
			"buffer":0,
			"byteLength":24,
			"byteOffset":60420
		},
		{
			"buffer":0,
			"byteLength":32,
			"byteOffset":60444
		},
		{
			"buffer":0,
			"byteLength":24,
			"byteOffset":60476
		},
		{
			"buffer":0,
			"byteLength":24,
			"byteOffset":60500
		},
		{
			"buffer":0,
			"byteLength":128,
			"byteOffset":60524
		},
		{
			"buffer":0,
			"byteLength":24,
			"byteOffset":60652
		},
		{
			"buffer":0,
			"byteLength":24,
			"byteOffset":60676
		},
		{
			"buffer":0,
			"byteLength":128,
			"byteOffset":60700
		},
		{
			"buffer":0,
			"byteLength":24,
			"byteOffset":60828
		},
		{
			"buffer":0,
			"byteLength":24,
			"byteOffset":60852
		},
		{
			"buffer":0,
			"byteLength":128,
			"byteOffset":60876
		},
		{
			"buffer":0,
			"byteLength":24,
			"byteOffset":61004
		},
		{
			"buffer":0,
			"byteLength":24,
			"byteOffset":61028
		},
		{
			"buffer":0,
			"byteLength":128,
			"byteOffset":61052
		},
		{
			"buffer":0,
			"byteLength":24,
			"byteOffset":61180
		}
	],
	"samplers":[
		{
			"magFilter":9729,
			"minFilter":9987
		}
	],
	"buffers":[
		{
			"byteLength":61204,
			"uri":"playerPush_right.bin"
		}
	]
}
