{
	"asset":{
		"generator":"Khronos glTF Blender I/O v5.1.20",
		"version":"2.0"
	},
	"scene":0,
	"scenes":[
		{
			"name":"Scene",
			"nodes":[
				11
			]
		}
	],
	"nodes":[
		{
			"name":"\u30dc\u30fc\u30f3.001",
			"translation":[
				0,
				1.0000001192092896,
				0
			]
		},
		{
			"name":"\u30dc\u30fc\u30f3.003",
			"rotation":[
				3.687299909849173e-10,
				-1.8341298257951166e-08,
				-0.09340482205152512,
				0.9956282377243042
			],
			"translation":[
				-9.685754776000977e-08,
				0.5494251847267151,
				3.4416913763379853e-15
			]
		},
		{
			"children":[
				1
			],
			"name":"\u30dc\u30fc\u30f3.002",
			"rotation":[
				3.553719807314337e-08,
				-4.3449038145126906e-08,
				0.7557837963104248,
				0.6548212766647339
			],
			"scale":[
				0.9999998807907104,
				0.9999998807907104,
				1
			],
			"translation":[
				0,
				1.0000001192092896,
				0
			]
		},
		{
			"name":"\u30dc\u30fc\u30f3.005",
			"rotation":[
				3.676637305716213e-08,
				1.2562661311221746e-07,
				0.10383941233158112,
				0.9945940971374512
			],
			"scale":[
				0.9999999403953552,
				0.9999999403953552,
				1
			],
			"translation":[
				7.450579886381092e-08,
				0.5307654142379761,
				1.687538997430238e-14
			]
		},
		{
			"children":[
				3
			],
			"name":"\u30dc\u30fc\u30f3.004",
			"rotation":[
				-1.39921368713658e-07,
				-1.0391080706995126e-07,
				-0.7632548809051514,
				0.6460974812507629
			],
			"scale":[
				0.9999998807907104,
				0.9999999403953552,
				1
			],
			"translation":[
				0,
				1.0000001192092896,
				0
			]
		},
		{
			"children":[
				0,
				2,
				4
			],
			"name":"\u30dc\u30fc\u30f3",
			"translation":[
				0,
				1.1447113752365112,
				0
			]
		},
		{
			"name":"\u30dc\u30fc\u30f3.007",
			"rotation":[
				-0.3118179142475128,
				4.2704261460357884e-08,
				-1.749924294358607e-08,
				0.9501418471336365
			],
			"scale":[
				1,
				1,
				0.9999999403953552
			],
			"translation":[
				0,
				0.4779619574546814,
				-2.980232594040899e-08
			]
		},
		{
			"children":[
				6
			],
			"name":"\u30dc\u30fc\u30f3.006",
			"rotation":[
				-0.66470867395401,
				0.24116849899291992,
				0.6647087931632996,
				0.24116860330104828
			],
			"translation":[
				0,
				1.1447113752365112,
				0
			]
		},
		{
			"name":"\u30dc\u30fc\u30f3.009",
			"rotation":[
				-0.30840522050857544,
				-3.022964278898144e-08,
				1.9304314591295224e-08,
				0.9512550830841064
			],
			"translation":[
				4.385380947269368e-15,
				0.4725598096847534,
				4.440892098500626e-16
			]
		},
		{
			"children":[
				8
			],
			"name":"\u30dc\u30fc\u30f3.008",
			"rotation":[
				-0.6670641899108887,
				-0.2345747947692871,
				-0.6670641899108887,
				0.23457492887973785
			],
			"scale":[
				1,
				0.9999998211860657,
				0.9999998807907104
			],
			"translation":[
				0,
				1.1447113752365112,
				0
			]
		},
		{
			"mesh":0,
			"name":"\u7acb\u65b9\u4f53",
			"skin":0
		},
		{
			"children":[
				10,
				5,
				7,
				9
			],
			"name":"\u30a2\u30fc\u30de\u30c1\u30e5\u30a2"
		}
	],
	"animations":[
		{
			"channels":[
				{
					"sampler":0,
					"target":{
						"node":5,
						"path":"translation"
					}
				},
				{
					"sampler":1,
					"target":{
						"node":5,
						"path":"rotation"
					}
				},
				{
					"sampler":2,
					"target":{
						"node":5,
						"path":"scale"
					}
				},
				{
					"sampler":3,
					"target":{
						"node":0,
						"path":"translation"
					}
				},
				{
					"sampler":4,
					"target":{
						"node":0,
						"path":"rotation"
					}
				},
				{
					"sampler":5,
					"target":{
						"node":0,
						"path":"scale"
					}
				},
				{
					"sampler":6,
					"target":{
						"node":2,
						"path":"translation"
					}
				},
				{
					"sampler":7,
					"target":{
						"node":2,
						"path":"rotation"
					}
				},
				{
					"sampler":8,
					"target":{
						"node":2,
						"path":"scale"
					}
				},
				{
					"sampler":9,
					"target":{
						"node":1,
						"path":"translation"
					}
				},
				{
					"sampler":10,
					"target":{
						"node":1,
						"path":"rotation"
					}
				},
				{
					"sampler":11,
					"target":{
						"node":1,
						"path":"scale"
					}
				},
				{
					"sampler":12,
					"target":{
						"node":4,
						"path":"translation"
					}
				},
				{
					"sampler":13,
					"target":{
						"node":4,
						"path":"rotation"
					}
				},
				{
					"sampler":14,
					"target":{
						"node":4,
						"path":"scale"
					}
				},
				{
					"sampler":15,
					"target":{
						"node":3,
						"path":"translation"
					}
				},
				{
					"sampler":16,
					"target":{
						"node":3,
						"path":"rotation"
					}
				},
				{
					"sampler":17,
					"target":{
						"node":3,
						"path":"scale"
					}
				},
				{
					"sampler":18,
					"target":{
						"node":7,
						"path":"translation"
					}
				},
				{
					"sampler":19,
					"target":{
						"node":7,
						"path":"rotation"
					}
				},
				{
					"sampler":20,
					"target":{
						"node":7,
						"path":"scale"
					}
				},
				{
					"sampler":21,
					"target":{
						"node":6,
						"path":"translation"
					}
				},
				{
					"sampler":22,
					"target":{
						"node":6,
						"path":"rotation"
					}
				},
				{
					"sampler":23,
					"target":{
						"node":6,
						"path":"scale"
					}
				},
				{
					"sampler":24,
					"target":{
						"node":9,
						"path":"translation"
					}
				},
				{
					"sampler":25,
					"target":{
						"node":9,
						"path":"rotation"
					}
				},
				{
					"sampler":26,
					"target":{
						"node":9,
						"path":"scale"
					}
				},
				{
					"sampler":27,
					"target":{
						"node":8,
						"path":"translation"
					}
				},
				{
					"sampler":28,
					"target":{
						"node":8,
						"path":"rotation"
					}
				},
				{
					"sampler":29,
					"target":{
						"node":8,
						"path":"scale"
					}
				}
			],
			"name":"\u30a2\u30fc\u30de\u30c1\u30e5\u30a2\u30a2\u30af\u30b7\u30e7\u30f3",
			"samplers":[
				{
					"input":37,
					"interpolation":"STEP",
					"output":38
				},
				{
					"input":39,
					"interpolation":"LINEAR",
					"output":40
				},
				{
					"input":37,
					"interpolation":"STEP",
					"output":41
				},
				{
					"input":37,
					"interpolation":"STEP",
					"output":42
				},
				{
					"input":37,
					"interpolation":"STEP",
					"output":43
				},
				{
					"input":37,
					"interpolation":"STEP",
					"output":41
				},
				{
					"input":37,
					"interpolation":"STEP",
					"output":42
				},
				{
					"input":37,
					"interpolation":"STEP",
					"output":44
				},
				{
					"input":37,
					"interpolation":"STEP",
					"output":45
				},
				{
					"input":37,
					"interpolation":"STEP",
					"output":46
				},
				{
					"input":39,
					"interpolation":"LINEAR",
					"output":47
				},
				{
					"input":37,
					"interpolation":"STEP",
					"output":48
				},
				{
					"input":37,
					"interpolation":"STEP",
					"output":42
				},
				{
					"input":37,
					"interpolation":"STEP",
					"output":49
				},
				{
					"input":37,
					"interpolation":"STEP",
					"output":50
				},
				{
					"input":37,
					"interpolation":"STEP",
					"output":51
				},
				{
					"input":39,
					"interpolation":"LINEAR",
					"output":52
				},
				{
					"input":37,
					"interpolation":"STEP",
					"output":53
				},
				{
					"input":37,
					"interpolation":"STEP",
					"output":38
				},
				{
					"input":37,
					"interpolation":"STEP",
					"output":54
				},
				{
					"input":37,
					"interpolation":"STEP",
					"output":41
				},
				{
					"input":37,
					"interpolation":"STEP",
					"output":55
				},
				{
					"input":37,
					"interpolation":"STEP",
					"output":56
				},
				{
					"input":37,
					"interpolation":"STEP",
					"output":57
				},
				{
					"input":37,
					"interpolation":"STEP",
					"output":38
				},
				{
					"input":37,
					"interpolation":"STEP",
					"output":58
				},
				{
					"input":37,
					"interpolation":"STEP",
					"output":59
				},
				{
					"input":37,
					"interpolation":"STEP",
					"output":60
				},
				{
					"input":37,
					"interpolation":"STEP",
					"output":61
				},
				{
					"input":37,
					"interpolation":"STEP",
					"output":41
				}
			]
		}
	],
	"materials":[
		{
			"doubleSided":true,
			"name":"\u30de\u30c6\u30ea\u30a2\u30eb.005",
			"pbrMetallicRoughness":{
				"baseColorTexture":{
					"index":0
				},
				"metallicFactor":0,
				"roughnessFactor":0.5
			}
		},
		{
			"doubleSided":true,
			"name":"\u30de\u30c6\u30ea\u30a2\u30eb.004",
			"pbrMetallicRoughness":{
				"baseColorTexture":{
					"index":1
				},
				"metallicFactor":0,
				"roughnessFactor":0.5
			}
		},
		{
			"doubleSided":true,
			"name":"\u30de\u30c6\u30ea\u30a2\u30eb.001",
			"pbrMetallicRoughness":{
				"baseColorTexture":{
					"index":2
				},
				"metallicFactor":0,
				"roughnessFactor":0.5
			}
		},
		{
			"doubleSided":true,
			"name":"\u30de\u30c6\u30ea\u30a2\u30eb",
			"pbrMetallicRoughness":{
				"baseColorTexture":{
					"index":3
				},
				"metallicFactor":0,
				"roughnessFactor":0.5
			}
		},
		{
			"doubleSided":true,
			"name":"\u30de\u30c6\u30ea\u30a2\u30eb.002",
			"pbrMetallicRoughness":{
				"baseColorTexture":{
					"index":4
				},
				"metallicFactor":0,
				"roughnessFactor":0.5
			}
		},
		{
			"doubleSided":true,
			"name":"\u30de\u30c6\u30ea\u30a2\u30eb.003",
			"pbrMetallicRoughness":{
				"baseColorTexture":{
					"index":5
				},
				"metallicFactor":0,
				"roughnessFactor":0.5
			}
		}
	],
	"meshes":[
		{
			"name":"\u7acb\u65b9\u4f53",
			"primitives":[
				{
					"attributes":{
						"POSITION":0,
						"NORMAL":1,
						"TEXCOORD_0":2,
						"JOINTS_0":3,
						"WEIGHTS_0":4
					},
					"indices":5,
					"material":0
				},
				{
					"attributes":{
						"POSITION":6,
						"NORMAL":7,
						"TEXCOORD_0":8,
						"JOINTS_0":9,
						"WEIGHTS_0":10
					},
					"indices":11,
					"material":1
				},
				{
					"attributes":{
						"POSITION":12,
						"NORMAL":13,
						"TEXCOORD_0":14,
						"JOINTS_0":15,
						"WEIGHTS_0":16
					},
					"indices":17,
					"material":2
				},
				{
					"attributes":{
						"POSITION":18,
						"NORMAL":19,
						"TEXCOORD_0":20,
						"JOINTS_0":21,
						"WEIGHTS_0":22
					},
					"indices":23,
					"material":3
				},
				{
					"attributes":{
						"POSITION":24,
						"NORMAL":25,
						"TEXCOORD_0":26,
						"JOINTS_0":27,
						"WEIGHTS_0":28
					},
					"indices":29,
					"material":4
				},
				{
					"attributes":{
						"POSITION":30,
						"NORMAL":31,
						"TEXCOORD_0":32,
						"JOINTS_0":33,
						"WEIGHTS_0":34
					},
					"indices":35,
					"material":5
				}
			]
		}
	],
	"textures":[
		{
			"sampler":0,
			"source":0
		},
		{
			"sampler":0,
			"source":1
		},
		{
			"sampler":0,
			"source":2
		},
		{
			"sampler":0,
			"source":3
		},
		{
			"sampler":0,
			"source":4
		},
		{
			"sampler":0,
			"source":5
		}
	],
	"images":[
		{
			"mimeType":"image/png",
			"name":"playerFace.png",
			"uri":"playerFace.png.png"
		},
		{
			"mimeType":"image/png",
			"name":"playerEyes.png",
			"uri":"playerEyes.png.png"
		},
		{
			"mimeType":"image/png",
			"name":"playerShirt.png",
			"uri":"playerShirt.png.png"
		},
		{
			"mimeType":"image/png",
			"name":"playerOveralls",
			"uri":"playerOveralls.png"
		},
		{
			"mimeType":"image/png",
			"name":"playerHand",
			"uri":"playerHand.png"
		},
		{
			"mimeType":"image/png",
			"name":"playerShoes.png",
			"uri":"playerShoes.png.png"
		}
	],
	"skins":[
		{
			"inverseBindMatrices":36,
			"joints":[
				5,
				0,
				2,
				1,
				4,
				3,
				7,
				6,
				9,
				8
			],
			"name":"\u30a2\u30fc\u30de\u30c1\u30e5\u30a2"
		}
	],
	"accessors":[
		{
			"bufferView":0,
			"componentType":5126,
			"count":248,
			"max":[
				0.9534388184547424,
				4.003195285797119,
				0.7706168293952942
			],
			"min":[
				-0.9534388184547424,
				2.0128211975097656,
				-0.7706168293952942
			],
			"type":"VEC3"
		},
		{
			"bufferView":1,
			"componentType":5126,
			"count":248,
			"type":"VEC3"
		},
		{
			"bufferView":2,
			"componentType":5126,
			"count":248,
			"type":"VEC2"
		},
		{
			"bufferView":3,
			"componentType":5121,
			"count":248,
			"type":"VEC4"
		},
		{
			"bufferView":4,
			"componentType":5126,
			"count":248,
			"type":"VEC4"
		},
		{
			"bufferView":5,
			"componentType":5123,
			"count":372,
			"type":"SCALAR"
		},
		{
			"bufferView":6,
			"componentType":5126,
			"count":264,
			"max":[
				0.834304928779602,
				3.1458094120025635,
				0.768640398979187
			],
			"min":[
				-0.834304928779602,
				2.3897416591644287,
				-0.6591955423355103
			],
			"type":"VEC3"
		},
		{
			"bufferView":7,
			"componentType":5126,
			"count":264,
			"type":"VEC3"
		},
		{
			"bufferView":8,
			"componentType":5126,
			"count":264,
			"type":"VEC2"
		},
		{
			"bufferView":9,
			"componentType":5121,
			"count":264,
			"type":"VEC4"
		},
		{
			"bufferView":10,
			"componentType":5126,
			"count":264,
			"type":"VEC4"
		},
		{
			"bufferView":11,
			"componentType":5123,
			"count":468,
			"type":"SCALAR"
		},
		{
			"bufferView":12,
			"componentType":5126,
			"count":128,
			"max":[
				1.444746971130371,
				2.311203718185425,
				0.5663411021232605
			],
			"min":[
				-1.444746971130371,
				1.8186439275741577,
				-0.590009868144989
			],
			"type":"VEC3"
		},
		{
			"bufferView":13,
			"componentType":5126,
			"count":128,
			"type":"VEC3"
		},
		{
			"bufferView":14,
			"componentType":5126,
			"count":128,
			"type":"VEC2"
		},
		{
			"bufferView":15,
			"componentType":5121,
			"count":128,
			"type":"VEC4"
		},
		{
			"bufferView":16,
			"componentType":5126,
			"count":128,
			"type":"VEC4"
		},
		{
			"bufferView":17,
			"componentType":5123,
			"count":453,
			"type":"SCALAR"
		},
		{
			"bufferView":18,
			"componentType":5126,
			"count":215,
			"max":[
				0.697754979133606,
				2.3223018646240234,
				0.5994551181793213
			],
			"min":[
				-0.697754979133606,
				0.22732782363891602,
				-0.700817883014679
			],
			"type":"VEC3"
		},
		{
			"bufferView":19,
			"componentType":5126,
			"count":215,
			"type":"VEC3"
		},
		{
			"bufferView":20,
			"componentType":5126,
			"count":215,
			"type":"VEC2"
		},
		{
			"bufferView":21,
			"componentType":5121,
			"count":215,
			"type":"VEC4"
		},
		{
			"bufferView":22,
			"componentType":5126,
			"count":215,
			"type":"VEC4"
		},
		{
			"bufferView":23,
			"componentType":5123,
			"count":969,
			"type":"SCALAR"
		},
		{
			"bufferView":24,
			"componentType":5126,
			"count":82,
			"max":[
				1.864264965057373,
				2.337646722793579,
				0.26748529076576233
			],
			"min":[
				-1.864264965057373,
				1.8694417476654053,
				-0.26748499274253845
			],
			"type":"VEC3"
		},
		{
			"bufferView":25,
			"componentType":5126,
			"count":82,
			"type":"VEC3"
		},
		{
			"bufferView":26,
			"componentType":5126,
			"count":82,
			"type":"VEC2"
		},
		{
			"bufferView":27,
			"componentType":5121,
			"count":82,
			"type":"VEC4"
		},
		{
			"bufferView":28,
			"componentType":5126,
			"count":82,
			"type":"VEC4"
		},
		{
			"bufferView":29,
			"componentType":5123,
			"count":384,
			"type":"SCALAR"
		},
		{
			"bufferView":30,
			"componentType":5126,
			"count":82,
			"max":[
				0.5548809766769409,
				0.23605895042419434,
				0.3286750316619873
			],
			"min":[
				-0.5548809766769409,
				-0.002729177474975586,
				-0.20629501342773438
			],
			"type":"VEC3"
		},
		{
			"bufferView":31,
			"componentType":5126,
			"count":82,
			"type":"VEC3"
		},
		{
			"bufferView":32,
			"componentType":5126,
			"count":82,
			"type":"VEC2"
		},
		{
			"bufferView":33,
			"componentType":5121,
			"count":82,
			"type":"VEC4"
		},
		{
			"bufferView":34,
			"componentType":5126,
			"count":82,
			"type":"VEC4"
		},
		{
			"bufferView":35,
			"componentType":5123,
			"count":384,
			"type":"SCALAR"
		},
		{
			"bufferView":36,
			"componentType":5126,
			"count":10,
			"type":"MAT4"
		},
		{
			"bufferView":37,
			"componentType":5126,
			"count":2,
			"max":[
				1.6666666666666667
			],
			"min":[
				0.041666666666666664
			],
			"type":"SCALAR"
		},
		{
			"bufferView":38,
			"componentType":5126,
			"count":2,
			"type":"VEC3"
		},
		{
			"bufferView":39,
			"componentType":5126,
			"count":40,
			"max":[
				1.6666666666666667
			],
			"min":[
				0.041666666666666664
			],
			"type":"SCALAR"
		},
		{
			"bufferView":40,
			"componentType":5126,
			"count":40,
			"type":"VEC4"
		},
		{
			"bufferView":41,
			"componentType":5126,
			"count":2,
			"type":"VEC3"
		},
		{
			"bufferView":42,
			"componentType":5126,
			"count":2,
			"type":"VEC3"
		},
		{
			"bufferView":43,
			"componentType":5126,
			"count":2,
			"type":"VEC4"
		},
		{
			"bufferView":44,
			"componentType":5126,
			"count":2,
			"type":"VEC4"
		},
		{
			"bufferView":45,
			"componentType":5126,
			"count":2,
			"type":"VEC3"
		},
		{
			"bufferView":46,
			"componentType":5126,
			"count":2,
			"type":"VEC3"
		},
		{
			"bufferView":47,
			"componentType":5126,
			"count":40,
			"type":"VEC4"
		},
		{
			"bufferView":48,
			"componentType":5126,
			"count":2,
			"type":"VEC3"
		},
		{
			"bufferView":49,
			"componentType":5126,
			"count":2,
			"type":"VEC4"
		},
		{
			"bufferView":50,
			"componentType":5126,
			"count":2,
			"type":"VEC3"
		},
		{
			"bufferView":51,
			"componentType":5126,
			"count":2,
			"type":"VEC3"
		},
		{
			"bufferView":52,
			"componentType":5126,
			"count":40,
			"type":"VEC4"
		},
		{
			"bufferView":53,
			"componentType":5126,
			"count":2,
			"type":"VEC3"
		},
		{
			"bufferView":54,
			"componentType":5126,
			"count":2,
			"type":"VEC4"
		},
		{
			"bufferView":55,
			"componentType":5126,
			"count":2,
			"type":"VEC3"
		},
		{
			"bufferView":56,
			"componentType":5126,
			"count":2,
			"type":"VEC4"
		},
		{
			"bufferView":57,
			"componentType":5126,
			"count":2,
			"type":"VEC3"
		},
		{
			"bufferView":58,
			"componentType":5126,
			"count":2,
			"type":"VEC4"
		},
		{
			"bufferView":59,
			"componentType":5126,
			"count":2,
			"type":"VEC3"
		},
		{
			"bufferView":60,
			"componentType":5126,
			"count":2,
			"type":"VEC3"
		},
		{
			"bufferView":61,
			"componentType":5126,
			"count":2,
			"type":"VEC4"
		}
	],
	"bufferViews":[
		{
			"buffer":0,
			"byteLength":2976,
			"byteOffset":0,
			"target":34962
		},
		{
			"buffer":0,
			"byteLength":2976,
			"byteOffset":2976,
			"target":34962
		},
		{
			"buffer":0,
			"byteLength":1984,
			"byteOffset":5952,
			"target":34962
		},
		{
			"buffer":0,
			"byteLength":992,
			"byteOffset":7936,
			"target":34962
		},
		{
			"buffer":0,
			"byteLength":3968,
			"byteOffset":8928,
			"target":34962
		},
		{
			"buffer":0,
			"byteLength":744,
			"byteOffset":12896,
			"target":34963
		},
		{
			"buffer":0,
			"byteLength":3168,
			"byteOffset":13640,
			"target":34962
		},
		{
			"buffer":0,
			"byteLength":3168,
			"byteOffset":16808,
			"target":34962
		},
		{
			"buffer":0,
			"byteLength":2112,
			"byteOffset":19976,
			"target":34962
		},
		{
			"buffer":0,
			"byteLength":1056,
			"byteOffset":22088,
			"target":34962
		},
		{
			"buffer":0,
			"byteLength":4224,
			"byteOffset":23144,
			"target":34962
		},
		{
			"buffer":0,
			"byteLength":936,
			"byteOffset":27368,
			"target":34963
		},
		{
			"buffer":0,
			"byteLength":1536,
			"byteOffset":28304,
			"target":34962
		},
		{
			"buffer":0,
			"byteLength":1536,
			"byteOffset":29840,
			"target":34962
		},
		{
			"buffer":0,
			"byteLength":1024,
			"byteOffset":31376,
			"target":34962
		},
		{
			"buffer":0,
			"byteLength":512,
			"byteOffset":32400,
			"target":34962
		},
		{
			"buffer":0,
			"byteLength":2048,
			"byteOffset":32912,
			"target":34962
		},
		{
			"buffer":0,
			"byteLength":906,
			"byteOffset":34960,
			"target":34963
		},
		{
			"buffer":0,
			"byteLength":2580,
			"byteOffset":35868,
			"target":34962
		},
		{
			"buffer":0,
			"byteLength":2580,
			"byteOffset":38448,
			"target":34962
		},
		{
			"buffer":0,
			"byteLength":1720,
			"byteOffset":41028,
			"target":34962
		},
		{
			"buffer":0,
			"byteLength":860,
			"byteOffset":42748,
			"target":34962
		},
		{
			"buffer":0,
			"byteLength":3440,
			"byteOffset":43608,
			"target":34962
		},
		{
			"buffer":0,
			"byteLength":1938,
			"byteOffset":47048,
			"target":34963
		},
		{
			"buffer":0,
			"byteLength":984,
			"byteOffset":48988,
			"target":34962
		},
		{
			"buffer":0,
			"byteLength":984,
			"byteOffset":49972,
			"target":34962
		},
		{
			"buffer":0,
			"byteLength":656,
			"byteOffset":50956,
			"target":34962
		},
		{
			"buffer":0,
			"byteLength":328,
			"byteOffset":51612,
			"target":34962
		},
		{
			"buffer":0,
			"byteLength":1312,
			"byteOffset":51940,
			"target":34962
		},
		{
			"buffer":0,
			"byteLength":768,
			"byteOffset":53252,
			"target":34963
		},
		{
			"buffer":0,
			"byteLength":984,
			"byteOffset":54020,
			"target":34962
		},
		{
			"buffer":0,
			"byteLength":984,
			"byteOffset":55004,
			"target":34962
		},
		{
			"buffer":0,
			"byteLength":656,
			"byteOffset":55988,
			"target":34962
		},
		{
			"buffer":0,
			"byteLength":328,
			"byteOffset":56644,
			"target":34962
		},
		{
			"buffer":0,
			"byteLength":1312,
			"byteOffset":56972,
			"target":34962
		},
		{
			"buffer":0,
			"byteLength":768,
			"byteOffset":58284,
			"target":34963
		},
		{
			"buffer":0,
			"byteLength":640,
			"byteOffset":59052
		},
		{
			"buffer":0,
			"byteLength":8,
			"byteOffset":59692
		},
		{
			"buffer":0,
			"byteLength":24,
			"byteOffset":59700
		},
		{
			"buffer":0,
			"byteLength":160,
			"byteOffset":59724
		},
		{
			"buffer":0,
			"byteLength":640,
			"byteOffset":59884
		},
		{
			"buffer":0,
			"byteLength":24,
			"byteOffset":60524
		},
		{
			"buffer":0,
			"byteLength":24,
			"byteOffset":60548
		},
		{
			"buffer":0,
			"byteLength":32,
			"byteOffset":60572
		},
		{
			"buffer":0,
			"byteLength":32,
			"byteOffset":60604
		},
		{
			"buffer":0,
			"byteLength":24,
			"byteOffset":60636
		},
		{
			"buffer":0,
			"byteLength":24,
			"byteOffset":60660
		},
		{
			"buffer":0,
			"byteLength":640,
			"byteOffset":60684
		},
		{
			"buffer":0,
			"byteLength":24,
			"byteOffset":61324
		},
		{
			"buffer":0,
			"byteLength":32,
			"byteOffset":61348
		},
		{
			"buffer":0,
			"byteLength":24,
			"byteOffset":61380
		},
		{
			"buffer":0,
			"byteLength":24,
			"byteOffset":61404
		},
		{
			"buffer":0,
			"byteLength":640,
			"byteOffset":61428
		},
		{
			"buffer":0,
			"byteLength":24,
			"byteOffset":62068
		},
		{
			"buffer":0,
			"byteLength":32,
			"byteOffset":62092
		},
		{
			"buffer":0,
			"byteLength":24,
			"byteOffset":62124
		},
		{
			"buffer":0,
			"byteLength":32,
			"byteOffset":62148
		},
		{
			"buffer":0,
			"byteLength":24,
			"byteOffset":62180
		},
		{
			"buffer":0,
			"byteLength":32,
			"byteOffset":62204
		},
		{
			"buffer":0,
			"byteLength":24,
			"byteOffset":62236
		},
		{
			"buffer":0,
			"byteLength":24,
			"byteOffset":62260
		},
		{
			"buffer":0,
			"byteLength":32,
			"byteOffset":62284
		}
	],
	"samplers":[
		{
			"magFilter":9729,
			"minFilter":9987
		}
	],
	"buffers":[
		{
			"byteLength":62316,
			"uri":"playerGrab.bin"
		}
	]
}
