# Blender 5.1.2
# www.blender.org
mtllib player.mtl
o 立方体
v -0.095482 3.287509 0.075772
v -0.095482 3.287509 -0.075772
v 0.095482 3.287509 0.075772
v 0.095482 3.287509 -0.075772
v -0.826143 2.435953 0.645313
v -0.813171 2.435953 0.655608
v -0.826143 2.435953 -0.645313
v -0.813171 2.435953 -0.655608
v 0.826143 2.435953 -0.645313
v 0.813171 2.435953 -0.655608
v 0.826143 2.435953 0.645313
v 0.813171 2.435953 0.655608
v -0.917445 2.012821 0.645313
v -0.813171 2.012821 0.741525
v -0.813171 2.012821 -0.741525
v -0.917445 2.012821 -0.645313
v 0.813171 2.012821 0.741525
v 0.917445 2.012821 0.645313
v 0.917445 2.012821 -0.645313
v 0.813171 2.012821 -0.741525
v -0.858555 2.435578 0.671034
v -0.845583 2.435578 0.681329
v -0.858555 2.445208 0.681329
v -0.845583 2.435578 -0.681329
v -0.858555 2.435578 -0.671034
v -0.858555 2.445208 -0.681329
v 0.858555 2.435578 -0.671034
v 0.845583 2.435578 -0.681329
v 0.858555 2.445208 -0.681329
v 0.845583 2.435578 0.681329
v 0.858555 2.435578 0.671034
v 0.858555 2.445208 0.681329
v -0.953439 2.012821 -0.671034
v -0.845583 2.012821 -0.770617
v -0.845583 2.012821 0.770617
v -0.953439 2.012821 0.671034
v 0.845583 2.012821 -0.770617
v 0.953439 2.012821 -0.671034
v 0.953439 2.012821 0.671034
v 0.845583 2.012821 0.770617
v -0.826143 3.219406 -0.645313
v -0.813171 3.219406 -0.655608
v -0.813171 3.219406 0.655608
v -0.826143 3.219406 0.645313
v 0.813171 3.219406 -0.655608
v 0.826143 3.219406 -0.645313
v 0.826143 3.219406 0.645313
v 0.813171 3.219406 0.655608
v -0.858555 3.287509 0.681329
v -0.858555 3.287509 -0.681329
v 0.858555 3.287509 -0.681329
v 0.858555 3.287509 0.681329
v -0.095482 3.760754 0.075772
v -0.095482 3.760754 -0.075772
v 0.095482 3.760754 -0.075772
v 0.095482 3.760754 0.075772
v -0.166584 3.760273 0.132197
v -0.166584 3.760273 -0.132197
v 0.166584 3.760273 -0.132197
v 0.166584 3.760273 0.132197
v -0.166584 4.003195 0.132197
v -0.166584 4.003195 -0.132197
v 0.166584 4.003195 -0.132197
v 0.166584 4.003195 0.132197
v -0.834305 2.389742 0.659196
v -0.834305 2.995497 0.659196
v -0.834305 2.389742 -0.659196
v -0.834305 2.995497 -0.659196
v 0.834305 2.389742 0.659196
v 0.834305 2.995497 0.659196
v 0.834305 2.389742 -0.659196
v 0.834305 2.995497 -0.659196
v 0.175209 2.890860 0.768640
v 0.166518 2.994030 0.768640
v 0.175209 2.890860 0.610530
v 0.166518 2.994030 0.610530
v 0.647012 2.930603 0.768640
v 0.638322 3.033772 0.768640
v 0.647012 2.930603 0.610530
v 0.638322 3.033772 0.610530
v -0.389413 2.964137 0.634620
v -0.389413 2.964137 0.760776
v -0.296845 2.945724 0.634620
v -0.296845 2.945724 0.760776
v -0.218369 2.893288 0.634620
v -0.218369 2.893288 0.760776
v -0.165933 2.814813 0.634620
v -0.165933 2.814813 0.760776
v -0.147520 2.722245 0.634620
v -0.147520 2.722244 0.760776
v -0.165933 2.629676 0.634620
v -0.165933 2.629676 0.760776
v -0.218369 2.551200 0.634620
v -0.218369 2.551200 0.760776
v -0.296845 2.498765 0.634620
v -0.296845 2.498765 0.760776
v -0.389413 2.480352 0.634620
v -0.389413 2.480352 0.760776
v -0.481981 2.498765 0.634620
v -0.481981 2.498765 0.760776
v -0.560457 2.551200 0.634620
v -0.560457 2.551200 0.760776
v -0.612892 2.629676 0.634620
v -0.612892 2.629676 0.760776
v -0.631306 2.722245 0.634620
v -0.631306 2.722244 0.760776
v -0.612893 2.814813 0.634620
v -0.612893 2.814813 0.760776
v -0.560457 2.893288 0.634620
v -0.560457 2.893288 0.760776
v -0.481981 2.945724 0.634620
v -0.481981 2.945724 0.760776
v 0.389413 2.916596 0.634620
v 0.389413 2.916596 0.760776
v 0.463788 2.901802 0.634620
v 0.463788 2.901802 0.760776
v 0.526840 2.859672 0.634620
v 0.526840 2.859672 0.760776
v 0.568970 2.796619 0.634620
v 0.568970 2.796619 0.760776
v 0.583764 2.722244 0.634620
v 0.583764 2.722244 0.760776
v 0.568970 2.647869 0.634620
v 0.568970 2.647869 0.760776
v 0.526840 2.584817 0.634620
v 0.526840 2.584817 0.760776
v 0.463788 2.542687 0.634620
v 0.463788 2.542687 0.760776
v 0.389413 2.527893 0.634620
v 0.389413 2.527893 0.760776
v 0.315038 2.542687 0.634620
v 0.315038 2.542687 0.760776
v 0.251986 2.584817 0.634620
v 0.251986 2.584817 0.760776
v 0.209856 2.647869 0.634620
v 0.209856 2.647869 0.760776
v 0.195062 2.722245 0.634620
v 0.195062 2.722245 0.760776
v 0.209856 2.796619 0.634620
v 0.209856 2.796619 0.760776
v 0.251986 2.859672 0.634620
v 0.251986 2.859672 0.760776
v 0.315038 2.901802 0.634620
v 0.315038 2.901802 0.760776
v -0.586563 3.046402 0.768640
v -0.557618 3.145809 0.768640
v -0.586563 3.046402 0.610530
v -0.557618 3.145809 0.610530
v -0.131967 2.914036 0.768640
v -0.103022 3.013443 0.768640
v -0.131967 2.914036 0.610530
v -0.103022 3.013443 0.610530
v 0.639808 1.818644 -0.000384
v 0.625117 1.905431 0.000000
v 0.603168 1.818644 0.246292
v 0.593453 1.818644 -0.237406
v 0.588159 1.886466 -0.271804
v 0.503952 1.818644 -0.408062
v 0.484687 1.872634 -0.432758
v 0.486787 2.022471 -0.407020
v 0.537800 2.138999 -0.255033
v 0.563424 2.179907 0.000000
v 0.537800 2.138999 0.255033
v 0.588159 1.886466 0.271804
v 0.486787 1.996506 0.351099
v 0.479005 1.864684 0.413800
v 0.496625 1.818644 0.378821
v 0.312622 1.886466 0.515149
v -0.000000 1.905431 0.560575
v 0.280088 1.818644 0.527341
v 0.298978 2.077945 0.413800
v -0.000000 2.118853 0.445296
v 0.312622 2.252203 0.271804
v -0.000000 2.311204 0.286404
v 0.324501 2.311204 0.000000
v 0.000000 2.311204 -0.286404
v 0.312622 2.252203 -0.271804
v 0.000000 2.093704 -0.520708
v 0.298978 2.074255 -0.495801
v 0.000000 1.905431 -0.579264
v 0.312622 1.886466 -0.541775
v 0.280088 1.818644 -0.553817
v -0.000080 1.818644 -0.590010
v -0.283437 1.818644 -0.553818
v -0.312622 1.886466 -0.541775
v -0.298978 2.074255 -0.495801
v -0.312622 2.252203 -0.271804
v -0.324501 2.311204 0.000000
v -0.312622 2.252203 0.271804
v -0.298978 2.077945 0.413800
v -0.312622 1.886466 0.515149
v -0.283437 1.818644 0.527341
v -0.000081 1.818644 0.566341
v 1.423586 2.197687 0.098091
v 1.421908 2.217545 0.049046
v 0.594364 2.167570 0.099232
v 1.427975 2.145786 0.116332
v 0.561784 2.108978 0.110824
v 1.432487 2.092403 0.135092
v 1.436938 2.039761 0.116591
v 0.567212 1.992968 0.110989
v 0.606149 1.937223 0.099232
v 0.528274 2.048714 0.122747
v 0.529002 2.110208 0.053366
v 0.521091 2.189126 -0.008072
v 0.496220 2.111439 -0.004093
v 0.557727 2.178348 0.045580
v 1.420228 2.237402 0.000000
v 1.421908 2.217545 -0.049045
v 0.557727 2.178348 -0.061725
v 0.529002 2.110208 -0.065531
v 0.561784 2.108978 -0.126969
v 0.594364 2.167570 -0.115377
v 1.427975 2.145786 -0.116331
v 1.423586 2.197687 -0.098091
v 1.432487 2.092403 -0.135092
v 0.528274 2.048714 -0.138891
v 0.567212 1.992968 -0.127134
v 0.606149 1.937223 -0.115377
v 1.436938 2.039761 -0.116591
v 1.441389 1.987119 -0.098091
v 1.443068 1.967262 -0.049045
v 0.570803 1.922763 -0.061724
v 1.444747 1.947404 0.000000
v 0.535458 1.908302 -0.008072
v 0.570803 1.922763 0.045580
v 1.443068 1.967262 0.049046
v 1.441389 1.987119 0.098091
v 0.535130 1.981443 0.053477
v -1.423586 2.197687 0.098091
v -1.421908 2.217545 0.049046
v -0.594364 2.167570 0.099232
v -1.427975 2.145786 0.116331
v -0.561784 2.108978 0.110824
v -1.432487 2.092403 0.135092
v -0.567212 1.992968 0.110989
v -0.528274 2.048714 0.122747
v -0.606149 1.937223 0.099232
v -1.436938 2.039761 0.116591
v -1.441389 1.987119 0.098091
v -1.443068 1.967262 0.049046
v -1.444747 1.947404 0.000000
v -1.443068 1.967262 -0.049045
v -0.570803 1.922763 0.045580
v -0.570803 1.922763 -0.061724
v -0.535458 1.908302 -0.008072
v -0.567212 1.992968 -0.127134
v -0.606149 1.937223 -0.115377
v -1.432487 2.092403 -0.135092
v -1.436938 2.039761 -0.116591
v -1.441389 1.987119 -0.098091
v -0.561784 2.108978 -0.126969
v -0.528274 2.048714 -0.138891
v -1.427975 2.145786 -0.116331
v -0.594364 2.167570 -0.115377
v -1.423586 2.197687 -0.098091
v -1.421908 2.217545 -0.049045
v -0.557727 2.178348 -0.061725
v -1.420228 2.237402 0.000000
v -0.557727 2.178348 0.045580
v -0.521091 2.189126 -0.008072
v -0.529002 2.110208 0.053366
v -0.496220 2.111439 -0.004093
v -0.529002 2.110208 -0.065531
v -0.535130 1.981443 0.053477
v -0.478334 1.864684 0.405127
v -0.578501 1.886466 0.263130
v -0.477672 1.996506 0.351099
v -0.500868 1.818644 0.378820
v -0.594371 1.818644 0.246292
v -0.624446 1.905431 -0.008673
v -0.631011 1.818644 -0.000384
v -0.594371 1.818644 -0.248031
v -0.587488 1.886466 -0.280477
v -0.500868 1.818644 -0.408062
v -0.481178 1.864684 -0.436949
v -0.477672 2.022471 -0.407020
v -0.528684 2.138999 -0.255033
v -0.554309 2.179907 0.000000
v -0.528684 2.138999 0.255033
v 0.455281 0.234863 0.135389
v 0.429740 0.796468 0.106162
v 0.482717 0.235461 0.067695
v 0.383572 0.233300 0.160565
v 0.368646 0.819627 0.118514
v 0.309817 0.231693 0.186460
v 0.305809 0.843445 0.131218
v 0.244926 0.817280 0.118690
v 0.237085 0.230108 0.160925
v 0.184043 0.791115 0.106162
v 0.136917 0.227925 0.067695
v 0.109481 0.227328 0.000000
v 0.164353 0.228523 0.135389
v 0.170041 0.815648 0.048992
v 0.233921 0.839528 0.057407
v 0.156040 0.840182 -0.008178
v 0.170041 0.815648 -0.065348
v 0.184043 0.791115 -0.122518
v 0.136917 0.227925 -0.067695
v 0.233921 0.839528 -0.069461
v 0.244926 0.817280 -0.135046
v 0.309817 0.231693 -0.186460
v 0.305809 0.843445 -0.147574
v 0.368646 0.819626 -0.134869
v 0.383572 0.233300 -0.160565
v 0.429740 0.796468 -0.122518
v 0.371249 0.842205 -0.069403
v 0.442659 0.821589 -0.065348
v 0.482717 0.235461 -0.067695
v 0.510152 0.236059 0.000000
v 0.455578 0.846709 -0.008178
v 0.442659 0.821589 0.048992
v 0.371249 0.842205 0.057288
v 0.455281 0.234863 -0.135389
v 0.237085 0.230108 -0.160925
v 0.164353 0.228523 -0.135389
v 0.621841 1.879978 -0.000662
v 0.584877 1.879978 0.261757
v 0.634855 1.880152 -0.000662
v 0.584877 1.879978 -0.263081
v 0.597144 1.880544 -0.267399
v 0.483202 1.881937 -0.439892
v 0.474481 1.879978 -0.430399
v 0.478931 1.868347 -0.431996
v 0.485940 1.870243 -0.443764
v 0.486787 2.022471 -0.407020
v 0.537800 2.138999 -0.255033
v 0.494273 2.029244 -0.417013
v 0.545925 2.149530 -0.260017
v 0.320803 2.262775 -0.276609
v 0.306453 2.080617 -0.506069
v 0.311170 1.892065 -0.548677
v 0.298978 2.074255 -0.495801
v 0.302575 1.883239 -0.550974
v 0.304180 1.890129 -0.536903
v 0.297326 1.879978 -0.539445
v 0.000000 1.879978 -0.575957
v 0.000000 1.884509 -0.588293
v 0.000000 1.533464 -0.695392
v -0.297326 1.879978 -0.539445
v -0.302575 1.883239 -0.550974
v -0.304180 1.890129 -0.536903
v -0.311242 1.892121 -0.548624
v -0.332694 1.537349 -0.655445
v -0.532138 1.529330 -0.518502
v -0.483203 1.881937 -0.439892
v -0.584878 1.879978 -0.263081
v -0.486008 1.870289 -0.443717
v -0.478931 1.868347 -0.431996
v -0.474481 1.879978 -0.430399
v -0.654614 1.517569 -0.283607
v -0.597145 1.880544 -0.267399
v -0.634856 1.880152 -0.000662
v -0.584878 1.879978 0.261757
v -0.596824 1.879870 0.266921
v -0.621841 1.879978 -0.000662
v -0.654183 1.517191 0.284738
v -0.695541 1.507989 0.000000
v -0.656488 1.081754 0.277551
v -0.657171 1.082101 -0.276011
v -0.697755 1.062665 0.000000
v -0.567301 0.912802 -0.258922
v -0.597355 0.881825 0.000000
v -0.566726 0.913103 0.260677
v -0.505438 0.975433 0.360731
v -0.353045 0.780172 0.277787
v -0.367157 0.734923 0.000000
v -0.000000 0.686091 0.000000
v -0.353063 0.779414 -0.275901
v 0.000000 0.734748 -0.290746
v -0.337231 0.912410 -0.554442
v -0.507065 0.975105 -0.490161
v -0.536362 1.104353 -0.505210
v -0.336007 1.099262 -0.661279
v 0.000000 1.084963 -0.700818
v 0.000000 0.881229 -0.586303
v 0.337231 0.912410 -0.554441
v 0.336007 1.099262 -0.661279
v 0.507065 0.975105 -0.490161
v 0.536363 1.104353 -0.505210
v 0.332694 1.537349 -0.655445
v 0.532138 1.529330 -0.518502
v 0.654614 1.517569 -0.283606
v 0.657171 1.082101 -0.276009
v 0.695541 1.507989 0.000000
v 0.654183 1.517191 0.284739
v 0.697755 1.062665 0.000000
v 0.656488 1.081754 0.277552
v 0.505438 0.975433 0.360731
v 0.534418 1.103414 0.424432
v 0.566726 0.913103 0.260677
v 0.353045 0.780172 0.277787
v 0.367157 0.734923 0.000000
v 0.597355 0.881825 0.000000
v 0.567301 0.912802 -0.258921
v 0.353063 0.779414 -0.275901
v -0.000000 0.735489 0.292597
v 0.336756 0.913433 0.424326
v 0.335468 1.080699 0.527903
v -0.000000 0.882411 0.456160
v -0.335468 1.080699 0.527903
v -0.336756 0.913433 0.424326
v -0.000000 1.061324 0.573917
v -0.000000 1.505989 0.599455
v -0.332384 1.515749 0.551215
v -0.000000 1.878152 0.571308
v 0.302370 1.879529 0.524959
v -0.302370 1.879529 0.524959
v 0.332384 1.515749 0.551215
v 0.482353 1.880017 0.417707
v 0.530974 1.527366 0.440333
v 0.596824 1.879870 0.266921
v 0.474481 1.879978 0.407343
v 0.485603 1.871226 0.414128
v 0.478931 1.868347 0.402352
v 0.486787 1.996506 0.351099
v 0.537800 2.138999 0.255033
v 0.493417 2.002407 0.362190
v 0.545822 2.148681 0.261642
v 0.305616 2.084069 0.424764
v 0.310835 1.893067 0.512736
v 0.297325 1.879978 0.512968
v 0.304180 1.890129 0.500964
v 0.298978 2.077945 0.413800
v 0.312622 2.252203 0.271804
v 0.320801 2.262137 0.277820
v 0.333367 2.322302 0.000000
v 0.324501 2.311204 0.000000
v 0.312622 2.252203 -0.271804
v 0.572290 2.191005 0.000000
v 0.563424 2.179907 0.000000
v -0.000000 1.879978 0.558401
v -0.297326 1.879978 0.512968
v -0.304180 1.890129 0.500964
v -0.321877 1.893112 0.527205
v -0.305798 2.084047 0.424665
v -0.298978 2.077945 0.413800
v -0.312622 2.252203 0.271804
v -0.321028 2.261986 0.277755
v -0.333584 2.322126 0.000000
v -0.324501 2.311204 0.000000
v -0.312622 2.252203 -0.271804
v -0.321032 2.262613 -0.276566
v -0.537035 2.149365 -0.259991
v -0.485340 2.029162 -0.416930
v -0.306631 2.080580 -0.505960
v -0.298978 2.074255 -0.495801
v -0.528684 2.138999 -0.255033
v -0.477672 2.022471 -0.407020
v -0.554309 2.179907 0.000000
v -0.563392 2.190829 0.000000
v -0.528684 2.138999 0.255033
v -0.477672 1.996506 0.351099
v -0.536923 2.148518 0.261613
v -0.484476 2.002365 0.362106
v -0.485674 1.882175 0.418053
v -0.474481 1.879978 0.407343
v -0.478931 1.868347 0.383310
v -0.482353 1.880017 0.417707
v -0.530974 1.527366 0.440333
v -0.534418 1.103414 0.424432
v -0.455281 0.234863 0.135389
v -0.482717 0.235461 0.067695
v -0.429740 0.796468 0.106162
v -0.383572 0.233300 0.160565
v -0.368646 0.819627 0.118514
v -0.309817 0.231693 0.186460
v -0.305809 0.843445 0.131218
v -0.244926 0.817280 0.118690
v -0.184043 0.791115 0.106162
v -0.237085 0.230108 0.160925
v -0.164353 0.228523 0.135389
v -0.136917 0.227925 0.067695
v -0.109481 0.227328 0.000000
v -0.156040 0.840182 -0.008178
v -0.170041 0.815648 -0.065348
v -0.136917 0.227925 -0.067695
v -0.170041 0.815648 0.048992
v -0.184043 0.791115 -0.122518
v -0.164353 0.228523 -0.135389
v -0.237085 0.230108 -0.160925
v -0.309817 0.231693 -0.186460
v -0.305809 0.843445 -0.147574
v -0.368646 0.819627 -0.134869
v -0.383572 0.233300 -0.160565
v -0.244926 0.817280 -0.135046
v -0.429740 0.796468 -0.122518
v -0.455281 0.234863 -0.135389
v -0.482717 0.235461 -0.067695
v -0.442659 0.821589 -0.065348
v -0.510152 0.236059 -0.000000
v -0.455578 0.846709 -0.008178
v -0.442659 0.821589 0.048992
v -0.371249 0.842205 0.057288
v -0.371249 0.842205 -0.069403
v 1.527364 2.281854 0.207987
v 1.632218 2.220995 0.243107
v 1.613053 2.337647 0.109703
v 1.427975 2.145786 0.116332
v 1.423586 2.197687 0.098091
v 1.421908 2.217545 0.049046
v 1.420228 2.237402 0.000000
v 1.527693 2.282495 -0.199095
v 1.421908 2.217545 -0.049045
v 1.712903 2.316695 0.000000
v 1.613053 2.337647 -0.109703
v 1.718709 2.238537 -0.121554
v 1.632218 2.220995 -0.243107
v 1.712953 2.105409 -0.267485
v 1.432487 2.092403 -0.135092
v 1.427975 2.145786 -0.116331
v 1.423586 2.197687 -0.098091
v 1.645386 1.983897 -0.243445
v 1.436938 2.039761 -0.116591
v 1.606303 1.918059 -0.195654
v 1.441389 1.987119 -0.098091
v 1.443068 1.967262 -0.049045
v 1.444747 1.947404 0.000000
v 1.667616 1.869442 -0.109703
v 1.739195 1.886328 0.000000
v 1.733400 1.975465 -0.121723
v 1.821414 1.967033 0.000000
v 1.814070 2.110583 -0.133743
v 1.864265 2.119448 0.000000
v 1.805200 2.256079 0.000000
v 1.718709 2.238537 0.121554
v 1.814070 2.110583 0.133743
v 1.733400 1.975465 0.121723
v 1.712953 2.105409 0.267485
v 1.432487 2.092403 0.135092
v 1.645386 1.983897 0.243445
v 1.602149 1.909939 0.193628
v 1.436938 2.039761 0.116591
v 1.441389 1.987119 0.098091
v 1.443068 1.967262 0.049046
v 1.667616 1.869442 0.109703
v -1.527364 2.281854 0.207987
v -1.427975 2.145786 0.116331
v -1.632218 2.220995 0.243107
v -1.613053 2.337647 0.109703
v -1.421908 2.217545 0.049046
v -1.423586 2.197687 0.098091
v -1.420228 2.237402 0.000000
v -1.527693 2.282495 -0.199095
v -1.421908 2.217545 -0.049045
v -1.712903 2.316695 0.000000
v -1.613053 2.337647 -0.109703
v -1.718709 2.238537 -0.121554
v -1.632218 2.220995 -0.243107
v -1.427975 2.145786 -0.116331
v -1.432487 2.092403 -0.135092
v -1.712953 2.105409 -0.267485
v -1.814070 2.110583 -0.133743
v -1.645386 1.983897 -0.243445
v -1.733400 1.975465 -0.121723
v -1.667616 1.869442 -0.109703
v -1.739195 1.886328 -0.000000
v -1.821414 1.967033 -0.000000
v -1.606303 1.918059 -0.195654
v -1.436938 2.039761 -0.116591
v -1.441389 1.987119 -0.098091
v -1.443068 1.967262 -0.049045
v -1.444747 1.947404 0.000000
v -1.443068 1.967262 0.049046
v -1.667616 1.869442 0.109703
v -1.733400 1.975465 0.121723
v -1.602149 1.909939 0.193628
v -1.645386 1.983897 0.243445
v -1.436938 2.039761 0.116591
v -1.441389 1.987119 0.098091
v -1.432487 2.092403 0.135092
v -1.712953 2.105409 0.267485
v -1.718709 2.238537 0.121554
v -1.814070 2.110583 0.133743
v -1.864265 2.119448 -0.000000
v -1.805200 2.256079 0.000000
v -1.423586 2.197687 -0.098091
v 0.502438 0.155884 0.269177
v 0.554594 0.118985 0.170893
v 0.451693 0.050322 0.203880
v 0.383572 0.233300 0.160565
v 0.455281 0.234863 0.135389
v 0.436918 0.127058 0.304297
v 0.309817 0.231693 0.186460
v 0.318447 0.076143 0.328675
v 0.319873 0.010684 0.194933
v 0.199542 0.121215 0.304635
v 0.188309 0.043787 0.204050
v 0.084366 0.108128 0.170893
v 0.098587 0.061641 0.061190
v 0.175999 0.015761 0.061190
v 0.127250 0.150014 0.254818
v 0.237085 0.230108 0.160925
v 0.164353 0.228523 0.135389
v 0.136917 0.227925 0.067695
v 0.109481 0.227328 0.000000
v 0.084783 0.088960 -0.048513
v 0.136917 0.227925 -0.067695
v 0.136270 0.098518 -0.134464
v 0.164353 0.228523 -0.135389
v 0.200246 0.088913 -0.182255
v 0.237085 0.230108 -0.160925
v 0.318447 0.076143 -0.206295
v 0.309817 0.231693 -0.186460
v 0.383572 0.233300 -0.160565
v 0.437622 0.094757 -0.181917
v 0.455281 0.234863 -0.135389
v 0.482717 0.235461 -0.067695
v 0.504153 0.105852 -0.137905
v 0.554881 0.105837 -0.048513
v 0.452141 0.029751 -0.060364
v 0.319873 0.010684 -0.072553
v 0.326455 -0.002729 0.061190
v 0.529548 0.073792 0.061190
v 0.465391 0.022988 0.061190
v 0.482717 0.235461 0.067695
v 0.510152 0.236059 0.000000
v 0.188757 0.023215 -0.060533
v -0.502438 0.155884 0.269177
v -0.455281 0.234863 0.135389
v -0.554594 0.118985 0.170893
v -0.451693 0.050322 0.203880
v -0.383572 0.233300 0.160565
v -0.436918 0.127058 0.304297
v -0.309817 0.231693 0.186460
v -0.318447 0.076143 0.328675
v -0.319873 0.010684 0.194933
v -0.199542 0.121215 0.304635
v -0.188309 0.043787 0.204050
v -0.175999 0.015761 0.061190
v -0.084366 0.108128 0.170893
v -0.127250 0.150014 0.254818
v -0.098587 0.061641 0.061190
v -0.109481 0.227328 0.000000
v -0.084783 0.088960 -0.048513
v -0.188757 0.023215 -0.060533
v -0.136270 0.098518 -0.134464
v -0.200246 0.088913 -0.182255
v -0.319873 0.010684 -0.072553
v -0.326455 -0.002729 0.061190
v -0.452141 0.029751 -0.060364
v -0.465391 0.022988 0.061190
v -0.529547 0.073792 0.061190
v -0.482717 0.235461 0.067695
v -0.510152 0.236059 -0.000000
v -0.554881 0.105837 -0.048513
v -0.504153 0.105852 -0.137905
v -0.482717 0.235461 -0.067695
v -0.455281 0.234863 -0.135389
v -0.437622 0.094757 -0.181917
v -0.383572 0.233300 -0.160565
v -0.318447 0.076143 -0.206295
v -0.309817 0.231693 -0.186460
v -0.237085 0.230108 -0.160925
v -0.164353 0.228523 -0.135389
v -0.136917 0.227925 -0.067695
v -0.136917 0.227925 0.067695
v -0.164353 0.228523 0.135389
v -0.237085 0.230108 0.160925
vn 0.6216 -0.0000 -0.7833
vn 0.9775 -0.2109 -0.0000
vn -0.0000 -0.1990 -0.9800
vn -0.0000 -0.1990 0.9800
vn 1.0000 -0.0000 -0.0000
vn -0.6216 -0.0000 0.7833
vn -0.4766 -0.6420 0.6006
vn -0.4766 -0.6420 -0.6006
vn 0.4766 -0.6420 -0.6006
vn 0.4766 -0.6420 0.6006
vn 0.0058 -1.0000 0.0073
vn -0.9775 -0.2109 -0.0000
vn -0.6216 -0.0000 -0.7833
vn 0.6216 -0.0000 0.7833
vn -0.0000 -0.0000 -1.0000
vn -0.0000 -0.0000 1.0000
vn -1.0000 -0.0000 -0.0000
vn -0.9757 0.2190 -0.0000
vn -0.0000 0.2066 0.9784
vn -0.0000 0.2066 -0.9784
vn 0.9757 0.2190 -0.0000
vn -0.0000 -1.0000 -0.0000
vn -0.6599 -0.1553 0.7352
vn 0.6128 -0.1573 0.7745
vn -0.5765 -0.1294 -0.8068
vn -0.0058 -1.0000 0.0073
vn -0.0058 -1.0000 -0.0073
vn 0.6599 -0.1553 -0.7352
vn 0.5765 -0.1294 -0.8068
vn -0.6170 -0.1331 0.7756
vn 0.0058 -1.0000 -0.0073
vn 0.5765 -0.1294 0.8068
vn -0.6128 -0.1573 -0.7745
vn -0.0000 1.0000 -0.0000
vn -0.0000 -1.0000 -0.0085
vn -0.0000 -1.0000 0.0085
vn -0.0068 -1.0000 -0.0000
vn 0.0068 -1.0000 -0.0000
vn -0.9965 -0.0839 -0.0000
vn 0.9965 0.0839 -0.0000
vn 0.0839 -0.9965 -0.0000
vn -0.0839 0.9965 -0.0000
vn 0.1951 0.9808 -0.0000
vn 0.5556 0.8315 -0.0000
vn 0.8315 0.5556 -0.0000
vn 0.9808 0.1951 -0.0000
vn 0.9808 -0.1951 -0.0000
vn 0.8315 -0.5556 -0.0000
vn 0.5556 -0.8315 -0.0000
vn 0.1951 -0.9808 -0.0000
vn -0.1951 -0.9808 -0.0000
vn -0.5556 -0.8315 -0.0000
vn -0.8315 -0.5556 -0.0000
vn -0.9808 -0.1951 -0.0000
vn -0.9808 0.1951 -0.0000
vn -0.8315 0.5556 -0.0000
vn -0.5556 0.8315 -0.0000
vn -0.1951 0.9808 -0.0000
vn -0.9601 0.2796 -0.0000
vn 0.9601 -0.2796 -0.0000
vn -0.2796 -0.9601 -0.0000
vn 0.2796 0.9601 -0.0000
vn 0.9830 0.1832 -0.0084
vn 0.9377 0.0817 0.3376
vn 0.9857 0.1670 -0.0226
vn 0.9624 -0.0143 -0.2711
vn 0.9349 0.0438 -0.3522
vn 0.8475 0.0155 -0.5306
vn 0.8458 0.0803 -0.5274
vn 0.8589 0.1375 -0.4934
vn 0.9578 0.1889 -0.2167
vn 0.9761 0.2174 0.0016
vn 0.9307 0.2100 0.2995
vn 0.8908 0.1243 0.4370
vn 0.7364 0.2134 0.6420
vn 0.7927 0.0711 0.6055
vn 0.7909 -0.1229 0.5995
vn 0.0004 0.2828 0.9592
vn 0.1524 0.3196 0.9352
vn 0.1547 0.5398 0.8275
vn 0.1447 0.1022 0.9842
vn -0.0000 0.5611 0.8277
vn 0.1849 0.8338 0.5201
vn 0.0069 0.8903 0.4553
vn 0.1035 0.9946 -0.0000
vn 0.1687 0.8798 -0.4445
vn 0.0018 0.9286 -0.3710
vn 0.0056 0.5535 -0.8328
vn 0.0909 0.5273 -0.8448
vn 0.1221 0.1910 -0.9740
vn 0.0003 0.2030 -0.9792
vn 0.1260 0.1203 -0.9847
vn -0.0007 0.1229 -0.9924
vn -0.1220 0.1237 -0.9848
vn -0.1240 0.1846 -0.9750
vn -0.0932 0.5286 -0.8437
vn -0.1687 0.8798 -0.4445
vn -0.1035 0.9946 -0.0000
vn -0.1856 0.8337 0.5201
vn -0.1558 0.5431 0.8251
vn -0.1534 0.3160 0.9363
vn -0.1446 0.1081 0.9836
vn -0.0005 0.0675 0.9977
vn -0.0338 0.9338 0.3561
vn -0.2317 0.6711 0.7043
vn -0.0317 0.6890 0.7241
vn -0.0579 0.3661 0.9288
vn -0.4359 0.3568 0.8262
vn -0.0470 -0.0087 0.9989
vn -0.1146 -0.7073 0.6976
vn 0.0107 -0.3162 0.9486
vn -0.2522 0.1421 0.9572
vn -0.2494 -0.3506 0.9027
vn -0.8064 0.3682 0.4628
vn -0.6514 0.7587 -0.0047
vn -0.4356 0.7923 0.4272
vn -0.9697 0.2428 0.0285
vn -0.0396 0.9992 -0.0018
vn -0.4352 0.7949 -0.4228
vn -0.0473 0.9175 -0.3948
vn -0.8271 0.3425 -0.4457
vn -0.4555 0.3587 -0.8148
vn -0.2151 0.6737 -0.7070
vn -0.0608 0.3217 -0.9449
vn -0.0099 0.6823 -0.7310
vn -0.0147 -0.0404 -0.9991
vn -0.2491 0.1448 -0.9576
vn -0.1207 -0.2665 -0.9562
vn -0.1684 -0.6813 -0.7124
vn 0.0339 -0.3469 -0.9373
vn 0.0470 -0.6862 -0.7259
vn 0.0542 -0.9314 -0.3600
vn -0.1001 -0.9557 -0.2767
vn 0.0546 -0.9985 0.0071
vn 0.0397 -0.9989 0.0267
vn 0.0358 -0.9752 0.2182
vn 0.0412 -0.9251 0.3774
vn 0.0423 -0.6919 0.7208
vn -0.6656 -0.5672 0.4850
vn 0.0546 0.9249 0.3764
vn 0.0353 0.6829 0.7297
vn 0.2317 0.6708 0.7045
vn 0.0522 0.2826 0.9578
vn 0.4355 0.3568 0.8264
vn 0.0385 0.0224 0.9990
vn 0.2512 -0.3689 0.8949
vn 0.2522 0.1421 0.9572
vn 0.2106 -0.6871 0.6953
vn -0.0163 -0.3462 0.9380
vn -0.0423 -0.6919 0.7208
vn -0.0473 -0.9207 0.3875
vn -0.0541 -0.9985 -0.0089
vn -0.0542 -0.9314 -0.3600
vn 0.1001 -0.9557 -0.2767
vn -0.0397 -0.9989 0.0267
vn 0.2220 -0.8932 0.3912
vn 0.1823 -0.6913 -0.6992
vn 0.1207 -0.2665 -0.9562
vn -0.0203 -0.0530 -0.9984
vn -0.0274 -0.3128 -0.9494
vn -0.0462 -0.7005 -0.7121
vn 0.4365 0.3490 -0.8293
vn 0.0373 0.2812 -0.9589
vn 0.2491 0.1448 -0.9576
vn 0.2150 0.6733 -0.7074
vn 0.0141 0.6837 -0.7296
vn 0.0602 0.9253 -0.3743
vn 0.4352 0.7949 -0.4228
vn 0.0392 0.9992 -0.0001
vn 0.4280 0.7890 0.4408
vn 0.6577 0.7532 0.0067
vn 0.8063 0.3682 0.4628
vn 0.9697 0.2428 0.0285
vn 0.8271 0.3425 -0.4457
vn 0.6672 -0.5277 0.5257
vn -0.8950 0.1570 0.4175
vn -0.8008 0.1511 0.5796
vn -0.7591 0.1996 0.6196
vn -0.8100 0.0658 0.5827
vn -0.9319 0.1216 0.3416
vn -0.9871 0.1600 -0.0006
vn -0.9970 0.0763 0.0090
vn -0.9585 -0.0082 -0.2849
vn -0.9247 0.0811 -0.3720
vn -0.8374 -0.0260 -0.5460
vn -0.8322 0.0728 -0.5497
vn -0.8411 0.1930 -0.5053
vn -0.9402 0.2093 -0.2686
vn -0.9692 0.2462 0.0035
vn -0.9272 0.2095 0.3105
vn 0.6293 0.4045 0.6636
vn 0.6923 0.0787 0.7173
vn 0.8747 0.0702 0.4795
vn 0.3137 0.0723 0.9468
vn 0.3151 0.3878 0.8662
vn -0.0084 0.0850 0.9963
vn -0.0219 0.0936 0.9954
vn -0.2215 0.0860 0.9714
vn -0.6611 0.2683 0.7007
vn -0.3431 0.0606 0.9373
vn -0.6905 0.0616 0.7207
vn -0.9939 0.0989 0.0487
vn -0.9212 0.0568 0.3849
vn -0.8730 0.3461 0.3437
vn -0.3647 0.8200 0.4412
vn -0.9964 0.0808 0.0245
vn -0.8669 0.3564 -0.3486
vn -0.8921 0.0574 -0.4482
vn -0.6426 0.3706 -0.6706
vn -0.3866 0.8327 -0.3964
vn -0.3296 0.3357 -0.8824
vn -0.0087 0.0527 -0.9986
vn -0.0259 0.0680 -0.9973
vn 0.3094 0.3745 -0.8741
vn 0.3266 0.0706 -0.9425
vn 0.6338 0.3962 -0.6643
vn 0.3373 0.8644 -0.3729
vn 0.8572 0.3798 -0.3478
vn 0.8906 0.1394 -0.4328
vn 0.9940 0.1096 -0.0011
vn 0.9952 0.0945 0.0270
vn 0.8559 0.3726 0.3586
vn 0.3504 0.8555 0.3812
vn 0.6849 0.0665 -0.7256
vn -0.3242 0.0399 -0.9451
vn -0.6748 0.0624 -0.7354
vn 0.0081 1.0000 0.0028
vn 0.6741 0.7386 0.0003
vn -0.0134 0.9999 -0.0000
vn -0.0181 0.9995 0.0240
vn 0.6572 0.7201 -0.2226
vn -0.0940 0.5420 -0.8351
vn -0.5665 0.7370 -0.3686
vn -0.0878 -0.7672 -0.6354
vn 0.8485 -0.3507 0.3964
vn 0.4567 -0.8642 -0.2112
vn 0.8168 -0.5743 0.0545
vn 0.9029 0.1551 -0.4010
vn -0.0519 0.1456 -0.9880
vn 0.9369 0.1950 -0.2900
vn -0.2233 0.8853 -0.4080
vn -0.2235 0.5483 -0.8059
vn -0.8373 0.3167 -0.4457
vn -0.8332 0.3978 -0.3841
vn 0.0117 0.6495 -0.7603
vn -0.3944 0.9154 0.0802
vn -0.0000 0.8733 -0.4872
vn 0.0014 0.9386 0.3449
vn -0.0000 0.1494 -0.9888
vn -0.0226 0.6515 -0.7583
vn 0.3898 0.9174 0.0797
vn 0.8303 0.4065 -0.3812
vn 0.0469 0.1616 -0.9857
vn 0.0896 0.5403 -0.8367
vn -0.7427 0.1417 -0.6545
vn -0.3451 0.1775 -0.9216
vn 0.0182 0.9995 0.0240
vn 0.5698 0.7277 -0.3818
vn -0.6572 0.7201 -0.2226
vn -0.5239 -0.8364 -0.1611
vn 0.0348 -0.7390 -0.6728
vn -0.9454 0.0854 -0.3145
vn -0.6741 0.7386 0.0009
vn -0.0067 1.0000 0.0049
vn 0.0134 0.9999 -0.0005
vn -0.6470 0.7115 0.2743
vn -0.9148 0.0793 0.3961
vn -0.9967 0.0814 -0.0001
vn -0.9677 -0.2522 0.0010
vn -0.8808 -0.2331 0.4122
vn -0.9300 -0.2251 -0.2906
vn -0.6635 -0.6284 0.4060
vn -0.7010 -0.6761 -0.2270
vn -0.7271 -0.6866 0.0006
vn -0.3181 -0.8484 0.4231
vn -0.5256 -0.5118 0.6795
vn -0.3420 -0.9397 0.0007
vn -0.0000 -1.0000 0.0007
vn -0.3244 -0.9022 -0.2844
vn -0.0000 -0.9520 -0.3063
vn -0.2606 -0.7098 -0.6545
vn -0.6574 -0.4894 -0.5730
vn -0.3425 -0.2177 -0.9140
vn -0.7265 -0.1080 -0.6786
vn 0.0006 -0.2499 -0.9683
vn -0.0000 -0.7220 -0.6919
vn 0.3432 -0.2141 -0.9145
vn 0.3082 -0.7119 -0.6311
vn 0.6574 -0.4894 -0.5730
vn 0.7723 -0.0648 -0.6320
vn 0.7486 0.1363 -0.6489
vn 0.3451 0.1775 -0.9216
vn 0.9446 0.0879 -0.3162
vn 0.9273 -0.2263 -0.2983
vn 0.9967 0.0818 0.0007
vn 0.9678 -0.2517 0.0013
vn 0.9148 0.0793 0.3961
vn 0.8808 -0.2331 0.4122
vn 0.5257 -0.5133 0.6784
vn 0.6122 -0.2342 0.7552
vn 0.6635 -0.6284 0.4060
vn 0.3420 -0.9397 0.0007
vn 0.3190 -0.8477 0.4238
vn 0.7271 -0.6866 0.0006
vn 0.7217 -0.6421 -0.2585
vn 0.3258 -0.9014 -0.2851
vn -0.0000 -0.9014 0.4329
vn 0.2890 -0.6061 0.7410
vn -0.0000 -0.6539 0.7566
vn 0.3014 -0.2879 0.9090
vn 0.0086 -0.3160 0.9487
vn -0.2999 -0.2864 0.9100
vn -0.2957 -0.6039 0.7402
vn -0.0000 0.0105 0.9999
vn -0.3218 0.0282 0.9464
vn -0.0492 0.5247 0.8499
vn 0.3218 0.0282 0.9464
vn 0.0018 0.6549 0.7557
vn 0.1400 0.5604 0.8163
vn 0.6458 0.0632 0.7609
vn 0.0221 0.7251 0.6883
vn 0.6483 0.7109 0.2727
vn -0.6527 0.5844 0.4821
vn 0.2819 -0.5252 0.8029
vn 0.5256 -0.8480 -0.0677
vn 0.8757 -0.3424 -0.3406
vn 0.8124 -0.5609 -0.1595
vn 0.9185 0.0419 0.3933
vn -0.3188 0.4970 0.8071
vn 0.9062 0.2467 0.3435
vn -0.1371 0.5848 0.7995
vn -0.3851 0.9056 0.1777
vn -0.8288 0.4237 0.3655
vn -0.8804 0.2698 0.3901
vn -0.8178 0.5123 0.2620
vn -0.2245 0.8474 0.4812
vn -0.1697 0.9855 0.0035
vn -0.7817 0.6236 0.0013
vn -0.8173 0.5344 -0.2156
vn 0.9670 0.2549 -0.0026
vn 0.7825 -0.6226 -0.0024
vn 0.0012 0.9900 0.1412
vn 0.3439 0.9209 0.1835
vn 0.7629 0.4607 0.4536
vn -0.0034 0.0369 0.9993
vn 0.3112 0.5087 0.8027
vn 0.8741 0.2723 0.4023
vn 0.8064 0.5257 0.2707
vn 0.2092 0.8503 0.4829
vn 0.1530 0.9882 -0.0009
vn 0.7693 0.6389 0.0013
vn 0.8056 0.5488 -0.2230
vn 0.2067 0.8881 -0.4105
vn 0.8305 0.3208 -0.4554
vn -0.9367 0.2524 -0.2427
vn -0.9012 0.1478 -0.4075
vn 0.2094 0.5476 -0.8101
vn -0.8158 -0.5675 0.1116
vn -0.8451 -0.3477 0.4060
vn -0.7698 -0.6382 -0.0019
vn -0.9712 0.2384 -0.0019
vn -0.8013 -0.5736 -0.1701
vn -0.8849 -0.3174 -0.3409
vn -0.9355 0.0669 0.3468
vn -0.9123 0.2328 0.3369
vn -0.8413 -0.3160 0.4385
vn 0.3751 -0.2846 0.8822
vn -0.7773 -0.2915 0.5575
vn -0.9647 -0.2495 -0.0847
vn -0.6530 0.0636 0.7547
vn -0.6116 -0.2342 0.7557
vn -0.8747 0.0702 0.4795
vn -0.6923 0.0787 0.7173
vn -0.6293 0.4045 0.6636
vn -0.3137 0.0723 0.9468
vn -0.3151 0.3878 0.8662
vn -0.0096 0.0807 0.9967
vn 0.2215 0.0860 0.9714
vn 0.0219 0.0936 0.9954
vn 0.6902 0.0991 0.7168
vn 0.3248 0.0701 0.9432
vn 0.6905 0.0616 0.7207
vn 0.9300 0.0543 0.3635
vn 0.9930 0.1140 -0.0318
vn 0.9964 0.0808 0.0245
vn 0.9650 0.0841 0.2482
vn 0.9722 0.0735 -0.2222
vn 0.9468 0.0995 -0.3059
vn 0.6907 0.0715 -0.7196
vn 0.7185 0.0457 -0.6941
vn 0.3242 0.0399 -0.9451
vn -0.0064 0.0542 -0.9985
vn 0.0259 0.0680 -0.9973
vn 0.2083 0.0602 -0.9762
vn -0.3094 0.3745 -0.8741
vn -0.3084 0.0634 -0.9491
vn -0.6324 0.3964 -0.6656
vn -0.6849 0.0665 -0.7256
vn -0.9490 0.1250 -0.2894
vn -0.8572 0.3798 -0.3478
vn -0.9967 0.0712 0.0384
vn -0.8559 0.3726 0.3586
vn -0.9952 0.0945 0.0270
vn -0.3504 0.8555 0.3812
vn -0.3373 0.8644 -0.3728
vn 0.1194 0.3715 0.9207
vn 0.0648 0.9833 0.1701
vn -0.4864 0.5321 0.6930
vn -0.5996 0.0958 0.7946
vn -0.6287 0.7299 0.2683
vn -0.7956 0.3976 0.4571
vn -0.5409 0.8394 0.0535
vn -0.4978 0.5383 -0.6800
vn -0.7412 0.6222 -0.2519
vn 0.0656 0.9797 -0.1896
vn 0.3688 0.9295 -0.0000
vn 0.0625 0.3995 -0.9146
vn 0.6118 0.6167 -0.4953
vn 0.3863 0.0008 -0.9224
vn -0.5171 0.0052 -0.8559
vn -0.5774 0.1606 -0.8005
vn -0.7857 0.4118 -0.4616
vn 0.0862 -0.3670 -0.9262
vn -0.5576 -0.2911 -0.7774
vn -0.1554 -0.7424 -0.6517
vn -0.5728 -0.6058 -0.5522
vn -0.4677 -0.8274 -0.3109
vn 0.2486 -0.9109 -0.3293
vn -0.4066 -0.9136 -0.0087
vn 0.4746 -0.8802 -0.0000
vn 0.6498 -0.5313 -0.5435
vn 0.8132 -0.5820 -0.0000
vn 0.8489 0.0426 -0.5268
vn 0.9972 0.0754 -0.0000
vn 0.7409 0.6710 0.0282
vn 0.6057 0.6194 0.4994
vn 0.8464 0.0506 0.5302
vn 0.6695 -0.5473 0.5022
vn 0.3865 0.0008 0.9223
vn -0.5024 -0.0321 0.8640
vn 0.0701 -0.4664 0.8818
vn -0.5576 -0.3188 0.7664
vn -0.1566 -0.7539 0.6381
vn -0.6038 -0.5771 0.5499
vn -0.4693 -0.8359 0.2846
vn 0.2521 -0.9111 0.3260
vn 0.4864 0.5219 0.7008
vn -0.0990 0.3626 0.9267
vn 0.6101 0.1802 0.7716
vn 0.7927 0.4068 0.4541
vn -0.0613 0.9808 0.1852
vn 0.6119 0.7495 0.2526
vn 0.5415 0.8391 0.0515
vn 0.4165 0.6110 -0.6732
vn 0.7325 0.6224 -0.2758
vn -0.0676 0.9796 -0.1890
vn -0.3733 0.9277 -0.0087
vn -0.0855 0.3727 -0.9240
vn -0.6118 0.6167 -0.4953
vn 0.5982 0.1975 -0.7766
vn 0.5519 0.0148 -0.8338
vn -0.4010 0.0108 -0.9160
vn -0.6588 -0.5485 -0.5149
vn -0.8489 0.0426 -0.5268
vn -0.0684 -0.3689 -0.9270
vn 0.1511 -0.7437 -0.6512
vn -0.2373 -0.9097 -0.3409
vn -0.4746 -0.8802 -0.0001
vn -0.8132 -0.5820 0.0011
vn 0.5519 -0.3261 -0.7675
vn 0.5721 -0.5913 -0.5683
vn 0.4677 -0.8274 -0.3109
vn 0.4060 -0.9138 0.0086
vn -0.2610 -0.9121 0.3163
vn 0.4744 -0.8369 0.2731
vn 0.1529 -0.7544 0.6383
vn -0.6604 -0.5075 0.5534
vn -0.0838 -0.4682 0.8797
vn 0.5624 -0.2881 0.7750
vn 0.6038 -0.5771 0.5499
vn 0.5115 -0.0670 0.8567
vn -0.3878 0.0009 0.9218
vn -0.6052 0.6212 0.4978
vn -0.8470 0.0335 0.5305
vn -0.9972 0.0754 -0.0000
vn -0.7345 0.6782 -0.0226
vn 0.7826 0.4135 -0.4653
vn 0.6355 0.2712 0.7229
vn 0.4383 -0.8173 0.3741
vn 0.9800 -0.1334 0.1477
vn 0.4952 0.7911 0.3590
vn 0.2908 0.0995 0.9516
vn 0.1472 0.8397 0.5227
vn -0.0125 0.7730 0.6343
vn 0.0052 -0.2750 0.9614
vn 0.0507 -0.9743 0.2194
vn -0.4322 -0.8098 0.3967
vn -0.4150 0.1146 0.9026
vn -0.3258 -0.9443 0.0454
vn -0.6888 0.2593 0.6770
vn -0.9322 -0.1807 0.3135
vn -0.8243 -0.5607 0.0782
vn -0.1731 0.8206 0.5446
vn -0.4869 0.7916 0.3691
vn -0.7588 0.5961 0.2625
vn -0.9594 0.2543 -0.1223
vn -0.9318 -0.2725 -0.2396
vn -0.9212 0.2348 -0.3101
vn -0.7319 -0.2695 -0.6259
vn -0.7030 0.1887 -0.6857
vn -0.3998 -0.3810 -0.8337
vn -0.3024 0.1694 -0.9380
vn -0.0000 -0.4668 -0.8844
vn -0.0011 0.1195 -0.9928
vn 0.2840 0.1814 -0.9415
vn 0.3943 -0.3480 -0.8506
vn 0.6435 0.2914 -0.7078
vn 0.7459 -0.2228 -0.6277
vn 0.8979 0.3029 -0.3195
vn 0.9648 -0.2246 -0.1367
vn 0.3647 -0.8898 -0.2743
vn 0.0260 -0.9538 -0.2992
vn 0.0586 -0.9983 0.0048
vn 0.4195 -0.9068 0.0412
vn 0.8814 -0.4717 0.0237
vn 0.9547 0.2908 0.0628
vn 0.9081 0.4094 0.0883
vn -0.3087 -0.9083 -0.2822
vn -0.4952 0.7911 0.3590
vn -0.9802 -0.1323 0.1471
vn -0.6366 0.2777 0.7195
vn -0.1472 0.8397 0.5227
vn -0.4377 -0.8177 0.3740
vn -0.2992 0.1105 0.9478
vn 0.0326 0.7764 0.6294
vn -0.0076 -0.2755 0.9613
vn -0.0514 -0.9742 0.2196
vn 0.4245 -0.8067 0.4111
vn 0.4080 0.1208 0.9050
vn 0.3552 -0.9337 0.0457
vn 0.8361 -0.5426 0.0805
vn 0.6899 0.2452 0.6811
vn 0.9299 -0.1866 0.3170
vn 0.9139 -0.3344 -0.2300
vn 0.9706 0.2385 -0.0318
vn 0.3111 -0.9061 -0.2866
vn 0.7413 -0.2784 -0.6107
vn 0.3998 -0.3813 -0.8335
vn -0.0153 -0.9544 -0.2983
vn -0.0586 -0.9983 0.0048
vn -0.3646 -0.8898 -0.2744
vn -0.4181 -0.9056 0.0708
vn -0.8776 -0.4768 0.0490
vn -0.9081 0.4093 0.0883
vn -0.9419 0.3353 0.0220
vn -0.9640 -0.2272 -0.1381
vn -0.7468 -0.2250 -0.6258
vn -0.8307 0.3146 -0.4593
vn -0.6435 0.2914 -0.7078
vn -0.3684 -0.3409 -0.8649
vn -0.3021 0.1886 -0.9344
vn 0.0173 0.1178 -0.9929
vn 0.3024 0.1694 -0.9380
vn 0.6564 0.2068 -0.7255
vn 0.8699 0.1930 -0.4539
vn 0.7493 0.5985 0.2835
vn 0.4869 0.7916 0.3691
vn 0.1939 0.8154 0.5455
vn -0.6128 -0.1573 0.7745
vn 0.6599 -0.1553 0.7352
vn -0.6170 -0.1331 -0.7756
vn 0.6128 -0.1573 -0.7745
vn 0.6170 -0.1331 -0.7756
vn -0.5765 -0.1294 0.8068
vn 0.6170 -0.1331 0.7756
vn -0.6599 -0.1553 -0.7352
vt 0.135411 0.304111
vt 0.141859 0.289211
vt 0.130223 0.288058
vt 0.136971 0.298703
vt 0.139146 0.305604
vt 0.139959 0.309476
vt 0.135232 0.306710
vt 0.136720 0.275763
vt 0.138489 0.283536
vt 0.137984 0.231088
vt 0.140167 0.283487
vt 0.140632 0.282918
vt 0.137642 0.410646
vt 0.132695 0.827376
vt 0.141266 0.410923
vt 0.141784 0.222074
vt 0.127534 0.234838
vt 0.141702 0.240999
vt 0.140999 0.317602
vt 0.133015 0.316133
vt 0.137438 0.314911
vt 0.147491 0.296562
vt 0.138857 0.304780
vt 0.140818 0.298577
vt 0.155359 0.194218
vt 0.142261 0.230851
vt 0.138374 0.209521
vt 0.135143 0.287969
vt 0.123998 0.273851
vt 0.133635 0.278172
vt 0.138398 0.292217
vt 0.136002 0.244444
vt 0.138629 0.193048
vt 0.152909 0.070225
vt 0.136764 0.265850
vt 0.135742 0.262382
vt 0.138770 0.273637
vt 0.138546 0.358726
vt 0.138452 0.300601
vt 0.141699 0.311452
vt 0.141351 0.348649
vt 0.131762 0.308758
vt 0.135172 0.285223
vt 0.149220 0.306853
vt 0.144881 0.231899
vt 0.148809 0.285421
vt 0.135013 0.338291
vt 0.107026 0.244315
vt 0.146734 0.001557
vt 0.138766 0.420557
vt 0.141098 0.417428
vt 0.582950 0.637965
vt 0.593563 0.635085
vt 0.590684 0.637965
vt 0.129338 0.998443
vt 0.155359 0.872572
vt 0.108050 0.871090
vt 0.593563 0.557632
vt 0.580071 0.570884
vt 0.580071 0.557632
vt 0.590684 0.623098
vt 0.580071 0.625977
vt 0.582950 0.623098
vt 0.582950 0.643959
vt 0.593563 0.641079
vt 0.590684 0.643959
vt 0.590684 0.629092
vt 0.580071 0.631971
vt 0.582950 0.629092
vt 0.593563 0.554518
vt 0.580071 0.541025
vt 0.593563 0.541025
vt 0.593563 0.590365
vt 0.580071 0.603617
vt 0.580071 0.590365
vt 0.593563 0.573998
vt 0.580071 0.587251
vt 0.580071 0.573998
vt 0.593563 0.606731
vt 0.580071 0.619984
vt 0.580071 0.606731
vt 0.500000 0.008913
vt 0.254457 0.254457
vt 0.254457 0.008913
vt 0.500000 0.254457
vt 0.254457 0.500000
vt 0.500000 0.500000
vt 0.254457 0.745543
vt 0.500000 0.745543
vt 0.254457 0.991087
vt 0.008913 0.745543
vt 0.008913 0.500000
vt 0.745543 0.500000
vt 0.854693 0.214959
vt 0.809031 0.260621
vt 0.809031 0.214959
vt 0.854693 0.260621
vt 0.809031 0.306282
vt 0.854693 0.306282
vt 0.809031 0.351944
vt 0.854693 0.397605
vt 0.809031 0.397605
vt 0.763370 0.351944
vt 0.763370 0.306282
vt 0.900354 0.306282
vt 0.854693 0.351944
vt 0.835291 0.682856
vt 0.763370 0.691846
vt 0.763370 0.682856
vt 0.835291 0.691846
vt 0.763370 0.700836
vt 0.835291 0.700836
vt 0.763370 0.709826
vt 0.835291 0.709826
vt 0.763370 0.718816
vt 0.835291 0.718816
vt 0.763370 0.727806
vt 0.835291 0.727806
vt 0.763370 0.736796
vt 0.835291 0.736796
vt 0.763370 0.745787
vt 0.835291 0.745787
vt 0.763370 0.754777
vt 0.835291 0.754777
vt 0.763370 0.763767
vt 0.835291 0.763767
vt 0.763370 0.772757
vt 0.835291 0.772757
vt 0.763370 0.781747
vt 0.835291 0.790737
vt 0.763370 0.790737
vt 0.835291 0.799727
vt 0.763370 0.799727
vt 0.763370 0.808718
vt 0.854135 0.424253
vt 0.870434 0.506196
vt 0.788491 0.522496
vt 0.835291 0.808718
vt 0.763370 0.817708
vt 0.835291 0.817708
vt 0.763370 0.826698
vt 0.772191 0.574265
vt 0.788491 0.656208
vt 0.870434 0.639908
vt 0.961549 0.415432
vt 0.897082 0.423490
vt 0.897082 0.415432
vt 0.961549 0.423490
vt 0.897082 0.431549
vt 0.961549 0.431549
vt 0.897082 0.439607
vt 0.961549 0.439607
vt 0.897082 0.447665
vt 0.961549 0.447665
vt 0.897082 0.455724
vt 0.961549 0.455724
vt 0.897082 0.463782
vt 0.961549 0.463782
vt 0.897082 0.471841
vt 0.961549 0.471841
vt 0.897082 0.479899
vt 0.961549 0.479899
vt 0.897082 0.487957
vt 0.961549 0.487957
vt 0.897082 0.496016
vt 0.961549 0.496016
vt 0.897082 0.504074
vt 0.961549 0.504074
vt 0.897082 0.512133
vt 0.961549 0.512133
vt 0.897082 0.520191
vt 0.961549 0.520191
vt 0.897082 0.528250
vt 0.819185 0.937634
vt 0.783553 0.930546
vt 0.836296 0.851612
vt 0.961549 0.528250
vt 0.897082 0.536308
vt 0.961549 0.536308
vt 0.897082 0.544366
vt 0.939139 0.755781
vt 0.926043 0.689943
vt 0.860205 0.703039
vt 0.857480 0.008913
vt 0.810425 0.055968
vt 0.810425 0.008913
vt 0.857480 0.055968
vt 0.810425 0.103023
vt 0.857480 0.103023
vt 0.810425 0.150078
vt 0.857480 0.197133
vt 0.810425 0.197133
vt 0.763370 0.150078
vt 0.763370 0.103023
vt 0.904535 0.103023
vt 0.857480 0.150078
vt 0.507036 0.147463
vt 0.528654 0.068616
vt 0.534451 0.146459
vt 0.534451 0.222052
vt 0.513154 0.232239
vt 0.533079 0.282209
vt 0.515647 0.291655
vt 0.468083 0.282395
vt 0.451371 0.230950
vt 0.437509 0.150262
vt 0.444850 0.068736
vt 0.506528 0.062288
vt 0.464632 0.030269
vt 0.504325 0.006154
vt 0.520844 0.015900
vt 0.313409 0.032948
vt 0.411356 0.029712
vt 0.409390 0.098975
vt 0.401118 0.007799
vt 0.315428 0.106290
vt 0.415340 0.171021
vt 0.317479 0.180838
vt 0.425200 0.262390
vt 0.421484 0.354306
vt 0.322175 0.351597
vt 0.324818 0.447722
vt 0.418230 0.446328
vt 0.425200 0.507521
vt 0.326483 0.508277
vt 0.415991 0.529785
vt 0.327208 0.535563
vt 0.237245 0.534672
vt 0.227876 0.512945
vt 0.231473 0.451464
vt 0.223166 0.359760
vt 0.214404 0.268187
vt 0.219228 0.176415
vt 0.221209 0.104152
vt 0.215440 0.035105
vt 0.223413 0.012729
vt 0.312647 0.006154
vt 0.184014 0.110271
vt 0.134104 0.718337
vt 0.180898 0.105656
vt 0.178543 0.096384
vt 0.115965 0.731480
vt 0.177080 0.084210
vt 0.134466 0.638224
vt 0.177600 0.068761
vt 0.103881 0.728136
vt 0.117939 0.679289
vt 0.109967 0.772266
vt 0.149953 0.778020
vt 0.142598 0.750837
vt 0.146799 0.840962
vt 0.187575 0.113106
vt 0.161104 0.751211
vt 0.189980 0.111378
vt 0.191982 0.776414
vt 0.189735 0.733496
vt 0.172665 0.719346
vt 0.196904 0.098785
vt 0.193538 0.107756
vt 0.200268 0.086289
vt 0.202095 0.731280
vt 0.193041 0.681401
vt 0.187776 0.653398
vt 0.201761 0.071464
vt 0.202095 0.053411
vt 0.198990 0.032344
vt 0.185455 0.660148
vt 0.192509 0.006154
vt 0.167718 0.680842
vt 0.150981 0.655585
vt 0.186225 0.030339
vt 0.178830 0.050766
vt 0.078400 0.662680
vt 0.049248 0.761617
vt 0.058078 0.773472
vt 0.062124 0.067991
vt 0.063323 0.793624
vt 0.057973 0.049541
vt 0.066091 0.821191
vt 0.066091 0.065629
vt 0.064318 0.039024
vt 0.055762 0.096079
vt 0.064146 0.856047
vt 0.056721 0.896885
vt 0.046760 0.942721
vt 0.031281 0.993846
vt 0.019690 0.941048
vt 0.051491 0.076279
vt 0.049111 0.052093
vt 0.047002 0.070828
vt 0.045198 0.098552
vt 0.039559 0.068784
vt 0.006154 0.817543
vt 0.006439 0.852678
vt 0.011948 0.894006
vt 0.047989 0.050023
vt 0.010384 0.790394
vt 0.043060 0.039233
vt 0.042228 0.067826
vt 0.016773 0.770793
vt 0.026462 0.760140
vt 0.042222 0.040624
vt 0.038755 0.756562
vt 0.063581 0.041025
vt 0.052790 0.018336
vt 0.056016 0.032313
vt 0.053531 0.006154
vt 0.050922 0.032110
vt 0.055118 0.049820
vt 0.463888 0.358968
vt 0.465137 0.303963
vt 0.505713 0.324121
vt 0.449042 0.312668
vt 0.441827 0.363353
vt 0.464393 0.444524
vt 0.437509 0.441238
vt 0.437509 0.519279
vt 0.458901 0.528648
vt 0.440111 0.577145
vt 0.455330 0.587521
vt 0.505590 0.576769
vt 0.521556 0.524823
vt 0.534459 0.443825
vt 0.526093 0.362270
vt 0.440343 0.882023
vt 0.477676 0.504871
vt 0.440322 0.533284
vt 0.504552 0.456518
vt 0.434905 0.865710
vt 0.519629 0.387828
vt 0.431538 0.845496
vt 0.428153 0.807087
vt 0.414401 0.771210
vt 0.519629 0.307138
vt 0.497184 0.213513
vt 0.390693 0.004986
vt 0.455278 0.113907
vt 0.398214 0.786261
vt 0.407005 0.816141
vt 0.391546 0.799340
vt 0.387330 0.783549
vt 0.328665 0.114345
vt 0.372677 0.770637
vt 0.382690 0.806334
vt 0.361836 0.805484
vt 0.269001 0.391957
vt 0.361451 0.847127
vt 0.358509 0.865188
vt 0.285438 0.459976
vt 0.352851 0.881875
vt 0.375274 0.886752
vt 0.366005 0.925384
vt 0.351867 0.533777
vt 0.395976 0.539960
vt 0.397165 0.985513
vt 0.428275 0.926141
vt 0.419807 0.889329
vt 0.313391 0.507314
vt 0.267487 0.310871
vt 0.288480 0.216547
vt 0.214409 0.679443
vt 0.264477 0.665081
vt 0.264793 0.667438
vt 0.312568 0.666181
vt 0.312934 0.663601
vt 0.373871 0.685465
vt 0.369867 0.688384
vt 0.398090 0.789133
vt 0.391638 0.861461
vt 0.402263 0.788904
vt 0.351327 0.880744
vt 0.395096 0.863959
vt 0.479327 0.797431
vt 0.352806 0.884257
vt 0.383775 0.959866
vt 0.448360 0.894392
vt 0.452725 0.896995
vt 0.484500 0.798305
vt 0.480504 0.629662
vt 0.487456 0.628606
vt 0.503251 0.467522
vt 0.510344 0.466670
vt 0.433585 0.475882
vt 0.442771 0.315427
vt 0.449771 0.314803
vt 0.406556 0.150824
vt 0.401754 0.152879
vt 0.326097 0.286536
vt 0.330875 0.347633
vt 0.392663 0.380589
vt 0.271167 0.319633
vt 0.321540 0.284640
vt 0.272129 0.322051
vt 0.329722 0.179458
vt 0.325596 0.180178
vt 0.275483 0.351886
vt 0.224736 0.331996
vt 0.172746 0.329807
vt 0.224488 0.329633
vt 0.172198 0.332820
vt 0.178942 0.363857
vt 0.227742 0.358476
vt 0.231077 0.386137
vt 0.189739 0.391585
vt 0.272300 0.381080
vt 0.198325 0.418184
vt 0.270542 0.409625
vt 0.234397 0.413935
vt 0.200109 0.453338
vt 0.177942 0.420997
vt 0.238410 0.449251
vt 0.243909 0.498581
vt 0.276383 0.444554
vt 0.285126 0.493658
vt 0.321823 0.433887
vt 0.307784 0.406748
vt 0.357224 0.413272
vt 0.315858 0.384718
vt 0.380546 0.482240
vt 0.334635 0.487737
vt 0.374176 0.554784
vt 0.334891 0.543103
vt 0.327646 0.572802
vt 0.340698 0.592321
vt 0.364067 0.624851
vt 0.416359 0.578178
vt 0.309168 0.633783
vt 0.299190 0.606133
vt 0.261170 0.638615
vt 0.257903 0.610924
vt 0.212434 0.644863
vt 0.216416 0.615355
vt 0.198027 0.589526
vt 0.183574 0.611431
vt 0.218510 0.587467
vt 0.250174 0.547826
vt 0.211976 0.552866
vt 0.254587 0.583108
vt 0.290752 0.578787
vt 0.288199 0.543448
vt 0.201616 0.503626
vt 0.183033 0.562185
vt 0.167075 0.507743
vt 0.149148 0.581483
vt 0.125240 0.512724
vt 0.132338 0.440289
vt 0.169795 0.451084
vt 0.069270 0.519385
vt 0.088072 0.416354
vt 0.023411 0.374510
vt 0.111725 0.615153
vt 0.010050 0.526424
vt 0.058662 0.670998
vt 0.169061 0.646413
vt 0.161874 0.705524
vt 0.213167 0.676640
vt 0.166142 0.707963
vt 0.153440 0.809819
vt 0.158155 0.809055
vt 0.184801 0.873696
vt 0.217810 0.894437
vt 0.181545 0.876618
vt 0.134207 0.931785
vt 0.216646 0.898110
vt 0.082280 0.830148
vt 0.052067 0.672273
vt 0.076752 0.831932
vt 0.130023 0.935466
vt 0.201624 0.982909
vt 0.203831 0.977846
vt 0.297975 0.991376
vt 0.298575 0.996453
vt 0.386421 0.963654
vt 0.286617 0.902602
vt 0.286211 0.898821
vt 0.003547 0.527197
vt 0.016703 0.374810
vt 0.003547 0.213928
vt 0.009316 0.214360
vt 0.036418 0.104324
vt 0.031524 0.101746
vt 0.089507 0.039159
vt 0.092822 0.043544
vt 0.180647 0.008597
vt 0.180047 0.003547
vt 0.272613 0.014795
vt 0.270957 0.019077
vt 0.352328 0.063295
vt 0.259380 0.098074
vt 0.305596 0.107998
vt 0.348730 0.066841
vt 0.258765 0.101883
vt 0.302746 0.111249
vt 0.190600 0.099572
vt 0.190110 0.095773
vt 0.124674 0.119836
vt 0.097316 0.147941
vt 0.093392 0.145886
vt 0.122685 0.116526
vt 0.082485 0.217698
vt 0.119152 0.313447
vt 0.115571 0.316828
vt 0.087244 0.217273
vt 0.136445 0.372538
vt 0.158755 0.403111
vt 0.084542 0.537081
vt 0.047064 0.508346
vt 0.087339 0.889434
vt 0.020100 0.459513
vt 0.094577 0.873030
vt 0.004986 0.390137
vt 0.103682 0.810885
vt 0.100759 0.852361
vt 0.113441 0.772317
vt 0.004986 0.308829
vt 0.027475 0.214603
vt 0.069492 0.114441
vt 0.134228 0.004986
vt 0.130516 0.797483
vt 0.125298 0.786401
vt 0.135398 0.782545
vt 0.196262 0.115005
vt 0.147887 0.772491
vt 0.236509 0.217881
vt 0.257514 0.312907
vt 0.255987 0.394689
vt 0.158462 0.855007
vt 0.156014 0.811804
vt 0.163511 0.874435
vt 0.239619 0.463321
vt 0.170374 0.891087
vt 0.211667 0.511054
vt 0.173141 0.537724
vt 0.158069 0.935283
vt 0.129003 0.543920
vt 0.098202 0.934620
vt 0.127870 0.995014
vt 0.108372 0.898916
vt 0.147902 0.899500
vt 0.733384 0.282146
vt 0.734559 0.286008
vt 0.733148 0.284221
vt 0.881913 0.036227
vt 0.606405 0.000102
vt 0.734530 0.038355
vt 0.500103 0.049593
vt 0.740453 0.292168
vt 0.506530 0.165418
vt 0.738878 0.290628
vt 0.737119 0.287933
vt 0.742572 0.292077
vt 0.740568 0.289127
vt 0.746243 0.291560
vt 0.561545 0.490844
vt 0.515886 0.409133
vt 0.528667 0.281282
vt 0.747278 0.288183
vt 0.650048 0.525164
vt 0.747279 0.285952
vt 0.755141 0.510884
vt 0.851552 0.525164
vt 0.745955 0.283839
vt 0.934598 0.485607
vt 0.743649 0.281871
vt 0.744538 0.285585
vt 0.741925 0.283469
vt 0.742557 0.287408
vt 0.740266 0.285012
vt 0.738778 0.286390
vt 0.736182 0.284405
vt 0.738051 0.282544
vt 0.740005 0.280702
vt 0.734207 0.278537
vt 0.969642 0.093000
vt 0.737670 0.277787
vt 0.999898 0.190331
vt 0.739952 0.277941
vt 0.974134 0.299857
vt 0.980416 0.404226
vt 0.741875 0.279414
vt 0.266852 0.284221
vt 0.266615 0.282147
vt 0.118088 0.036225
vt 0.265469 0.038355
vt 0.265440 0.286008
vt 0.393594 0.000102
vt 0.499898 0.049593
vt 0.259548 0.292167
vt 0.493471 0.165417
vt 0.261123 0.290627
vt 0.262881 0.287933
vt 0.257429 0.292077
vt 0.259433 0.289127
vt 0.484115 0.409134
vt 0.438456 0.490845
vt 0.253758 0.291560
vt 0.255463 0.285586
vt 0.257444 0.287408
vt 0.252724 0.288183
vt 0.252723 0.285953
vt 0.254046 0.283840
vt 0.256352 0.281872
vt 0.258076 0.283470
vt 0.349953 0.525165
vt 0.244860 0.510885
vt 0.148448 0.525165
vt 0.065402 0.485607
vt 0.258125 0.279415
vt 0.019584 0.404227
vt 0.260047 0.277942
vt 0.259995 0.280703
vt 0.262329 0.277789
vt 0.000102 0.190331
vt 0.025866 0.299858
vt 0.030359 0.093000
vt 0.265792 0.278538
vt 0.263818 0.284405
vt 0.261948 0.282545
vt 0.259735 0.285013
vt 0.261222 0.286390
vt 0.471334 0.281282
vt 0.296236 0.135233
vt 0.282629 0.171255
vt 0.262498 0.136387
vt 0.284484 0.004989
vt 0.314254 0.150180
vt 0.382527 0.020530
vt 0.457402 0.075849
vt 0.333187 0.179506
vt 0.303501 0.206960
vt 0.336804 0.230052
vt 0.360925 0.200554
vt 0.309272 0.271145
vt 0.376719 0.223731
vt 0.368112 0.255618
vt 0.338929 0.291716
vt 0.495011 0.162640
vt 0.478120 0.259165
vt 0.495011 0.330760
vt 0.475014 0.419216
vt 0.320237 0.339340
vt 0.379635 0.498322
vt 0.274075 0.363967
vt 0.262499 0.512913
vt 0.230266 0.356193
vt 0.150022 0.488218
vt 0.180997 0.317945
vt 0.076423 0.419071
vt 0.015244 0.337283
vt 0.148834 0.264850
vt 0.004989 0.230043
vt 0.145447 0.222758
vt 0.025463 0.124763
vt 0.168961 0.179151
vt 0.200942 0.224987
vt 0.232205 0.271544
vt 0.268783 0.234439
vt 0.238348 0.193118
vt 0.220815 0.162453
vt 0.102219 0.045177
vt 0.185972 0.005916
vt 0.275514 0.306411
vt 0.715516 0.004989
vt 0.737502 0.136387
vt 0.703764 0.135233
vt 0.617473 0.020530
vt 0.717371 0.171255
vt 0.685746 0.150180
vt 0.542598 0.075849
vt 0.666813 0.179506
vt 0.696499 0.206960
vt 0.663196 0.230052
vt 0.639075 0.200554
vt 0.690728 0.271145
vt 0.661071 0.291716
vt 0.623280 0.223731
vt 0.631888 0.255618
vt 0.679763 0.339340
vt 0.524986 0.419216
vt 0.724486 0.306411
vt 0.725924 0.363967
vt 0.769733 0.356193
vt 0.767795 0.271544
vt 0.731217 0.234439
vt 0.799058 0.224987
vt 0.761652 0.193118
vt 0.779185 0.162453
vt 0.814028 0.005917
vt 0.897781 0.045177
vt 0.831039 0.179151
vt 0.854553 0.222758
vt 0.974538 0.124763
vt 0.995011 0.230044
vt 0.851166 0.264850
vt 0.984756 0.337283
vt 0.819003 0.317945
vt 0.923577 0.419071
vt 0.849978 0.488218
vt 0.737501 0.512913
vt 0.620365 0.498322
vt 0.504989 0.330760
vt 0.521880 0.259165
vt 0.504989 0.162639
vt 0.131457 0.263121
vt 0.138605 0.279060
vt 0.580071 0.635085
vt 0.593563 0.570884
vt 0.593563 0.625977
vt 0.580071 0.641079
vt 0.593563 0.631971
vt 0.580071 0.554518
vt 0.593563 0.603617
vt 0.593563 0.587251
vt 0.593563 0.619984
vt 0.500000 0.991087
vt 0.745543 0.745543
vt 0.900354 0.351944
vt 0.835291 0.781747
vt 0.772191 0.506196
vt 0.763370 0.484900
vt 0.763370 0.461849
vt 0.772191 0.440553
vt 0.788491 0.424253
vt 0.809787 0.415432
vt 0.832838 0.415432
vt 0.870434 0.440553
vt 0.879255 0.461849
vt 0.879255 0.484900
vt 0.854135 0.522496
vt 0.832838 0.531317
vt 0.809787 0.531317
vt 0.835291 0.826698
vt 0.879255 0.618612
vt 0.879255 0.595561
vt 0.870434 0.574265
vt 0.854134 0.557965
vt 0.832838 0.549144
vt 0.809787 0.549144
vt 0.788491 0.557965
vt 0.763370 0.595561
vt 0.763370 0.618612
vt 0.772191 0.639908
vt 0.809787 0.665029
vt 0.832838 0.665029
vt 0.854134 0.656208
vt 0.770457 0.917450
vt 0.770457 0.864708
vt 0.763370 0.900339
vt 0.763370 0.881819
vt 0.783553 0.851612
vt 0.800664 0.844524
vt 0.819185 0.844524
vt 0.849392 0.864708
vt 0.849392 0.917450
vt 0.856479 0.881819
vt 0.856479 0.900339
vt 0.836296 0.930546
vt 0.800664 0.937634
vt 0.961549 0.544366
vt 0.946227 0.738671
vt 0.946227 0.720150
vt 0.939139 0.703039
vt 0.908932 0.682856
vt 0.890412 0.682856
vt 0.873301 0.689943
vt 0.853117 0.720150
vt 0.853117 0.738671
vt 0.860205 0.755781
vt 0.873301 0.768878
vt 0.890412 0.775965
vt 0.908932 0.775965
vt 0.926043 0.768878
vt 0.904535 0.150078
s 0
usemtl マテリアル.005
f 6/1/1 44/2/1 43/3/1
f 16/4/2 5/5/2 13/6/2
f 14/7/3 12/8/3 17/9/3
f 20/10/4 8/11/4 15/12/4
f 4/13/5 56/14/5 3/15/5
f 10/16/6 46/17/6 45/18/6
f 21/19/7 22/20/7 23/21/7
f 24/22/8 25/23/8 26/24/8
f 27/25/9 28/26/9 29/27/9
f 30/28/10 31/29/10 32/30/10
f 7/31/11 24/22/11 8/11/11
f 18/32/12 9/33/12 19/34/12
f 48/35/13 11/36/13 12/8/13
f 42/37/14 7/31/14 8/11/14
f 7/31/5 44/2/5 5/5/5
f 6/1/15 48/35/15 12/8/15
f 10/16/16 42/37/16 8/11/16
f 11/36/17 46/17/17 9/33/17
f 49/38/16 23/21/16 22/20/16
f 21/19/18 33/39/18 36/40/18
f 50/41/17 26/24/17 25/23/17
f 30/28/19 35/42/19 40/43/19
f 51/44/15 29/27/15 28/26/15
f 24/22/20 37/45/20 34/46/20
f 52/47/5 32/30/5 31/29/5
f 27/25/21 39/48/21 38/49/21
f 43/3/22 44/2/22 42/37/22
f 15/12/23 24/22/23 34/46/23
f 20/10/24 28/26/24 10/16/24
f 17/9/22 35/42/22 14/7/22
f 19/34/25 27/25/25 38/49/25
f 28/26/26 9/33/26 10/16/26
f 11/36/27 30/28/27 12/8/27
f 19/34/22 39/48/22 18/32/22
f 17/9/28 30/28/28 40/43/28
f 25/23/29 16/4/29 33/39/29
f 18/32/30 31/29/30 11/36/30
f 22/20/31 5/5/31 6/1/31
f 15/12/22 37/45/22 20/10/22
f 13/6/32 21/19/32 36/40/32
f 13/6/22 33/39/22 16/4/22
f 14/7/33 22/20/33 6/1/33
f 2/50/34 49/38/34 1/51/34
f 4/13/34 50/41/34 2/50/34
f 3/15/34 51/44/34 4/13/34
f 1/51/34 52/47/34 3/15/34
f 56/52/35 57/53/35 53/54/35
f 1/51/17 54/55/17 2/50/17
f 3/15/16 53/56/16 1/51/16
f 2/50/15 55/57/15 4/13/15
f 59/58/5 64/59/5 60/60/5
f 54/61/36 59/62/36 55/63/36
f 55/64/37 60/65/37 56/66/37
f 53/67/38 58/68/38 54/69/38
f 62/70/34 64/71/34 63/72/34
f 57/73/17 62/74/17 58/75/17
f 60/76/16 61/77/16 57/78/16
f 58/79/15 63/80/15 59/81/15
f 6/1/1 5/5/1 44/2/1
f 16/4/2 7/31/2 5/5/2
f 14/7/3 6/1/3 12/8/3
f 20/10/4 10/16/4 8/11/4
f 4/13/5 55/57/5 56/14/5
f 10/16/6 9/33/6 46/17/6
f 7/31/11 25/23/11 24/22/11
f 18/32/12 11/36/12 9/33/12
f 48/35/13 47/704/13 11/36/13
f 42/37/14 41/705/14 7/31/14
f 7/31/5 41/705/5 44/2/5
f 6/1/15 43/3/15 48/35/15
f 10/16/16 45/18/16 42/37/16
f 11/36/17 47/704/17 46/17/17
f 22/20/16 30/28/16 49/38/16
f 30/28/16 32/30/16 52/47/16
f 49/38/16 30/28/16 52/47/16
f 21/19/18 25/23/18 33/39/18
f 25/23/17 21/19/17 50/41/17
f 21/19/17 23/21/17 49/38/17
f 50/41/17 21/19/17 49/38/17
f 30/28/19 22/20/19 35/42/19
f 28/26/15 24/22/15 51/44/15
f 24/22/15 26/24/15 50/41/15
f 51/44/15 24/22/15 50/41/15
f 24/22/20 28/26/20 37/45/20
f 31/29/5 27/25/5 52/47/5
f 27/25/5 29/27/5 51/44/5
f 52/47/5 27/25/5 51/44/5
f 27/25/21 31/29/21 39/48/21
f 44/2/22 41/705/22 42/37/22
f 42/37/22 45/18/22 48/35/22
f 45/18/22 46/17/22 48/35/22
f 46/17/22 47/704/22 48/35/22
f 48/35/22 43/3/22 42/37/22
f 15/12/569 8/11/569 24/22/569
f 20/10/570 37/45/570 28/26/570
f 17/9/22 40/43/22 35/42/22
f 19/34/571 9/33/571 27/25/571
f 28/26/26 27/25/26 9/33/26
f 11/36/27 31/29/27 30/28/27
f 19/34/22 38/49/22 39/48/22
f 17/9/572 12/8/572 30/28/572
f 25/23/573 7/31/573 16/4/573
f 18/32/574 39/48/574 31/29/574
f 22/20/31 21/19/31 5/5/31
f 15/12/22 34/46/22 37/45/22
f 13/6/575 5/5/575 21/19/575
f 13/6/22 36/40/22 33/39/22
f 14/7/576 35/42/576 22/20/576
f 2/50/34 50/41/34 49/38/34
f 4/13/34 51/44/34 50/41/34
f 3/15/34 52/47/34 51/44/34
f 1/51/34 49/38/34 52/47/34
f 56/52/35 60/706/35 57/53/35
f 1/51/17 53/56/17 54/55/17
f 3/15/16 56/14/16 53/56/16
f 2/50/15 54/55/15 55/57/15
f 59/58/5 63/707/5 64/59/5
f 54/61/36 58/708/36 59/62/36
f 55/64/37 59/709/37 60/65/37
f 53/67/38 57/710/38 58/68/38
f 62/70/34 61/711/34 64/71/34
f 57/73/17 61/712/17 62/74/17
f 60/76/16 64/713/16 61/77/16
f 58/79/15 62/714/15 63/80/15
usemtl マテリアル.004
f 66/82/17 67/83/17 65/84/17
f 68/85/15 71/86/15 67/83/15
f 72/87/5 69/88/5 71/86/5
f 70/89/16 65/90/16 69/88/16
f 71/86/22 65/91/22 67/92/22
f 68/93/34 70/89/34 72/87/34
f 74/94/39 75/95/39 73/96/39
f 76/97/15 79/98/15 75/95/15
f 80/99/40 77/100/40 79/98/40
f 77/100/16 74/101/16 73/102/16
f 79/98/41 73/103/41 75/104/41
f 76/105/42 78/106/42 80/99/42
f 82/107/43 83/108/43 81/109/43
f 84/110/44 85/111/44 83/108/44
f 86/112/45 87/113/45 85/111/45
f 88/114/46 89/115/46 87/113/46
f 90/116/47 91/117/47 89/115/47
f 92/118/48 93/119/48 91/117/48
f 94/120/49 95/121/49 93/119/49
f 96/122/50 97/123/50 95/121/50
f 98/124/51 99/125/51 97/123/51
f 100/126/52 101/127/52 99/125/52
f 102/128/53 103/129/53 101/127/53
f 103/129/54 106/130/54 105/131/54
f 105/131/55 108/132/55 107/133/55
f 108/132/56 109/134/56 107/133/56
f 102/135/16 94/136/16 86/137/16
f 110/138/57 111/139/57 109/134/57
f 112/140/58 81/141/58 111/139/58
f 95/142/15 103/143/15 111/144/15
f 114/145/43 115/146/43 113/147/43
f 116/148/44 117/149/44 115/146/44
f 118/150/45 119/151/45 117/149/45
f 120/152/46 121/153/46 119/151/46
f 122/154/47 123/155/47 121/153/47
f 124/156/48 125/157/48 123/155/48
f 126/158/49 127/159/49 125/157/49
f 128/160/50 129/161/50 127/159/50
f 130/162/51 131/163/51 129/161/51
f 132/164/52 133/165/52 131/163/52
f 134/166/53 135/167/53 133/165/53
f 136/168/54 137/169/54 135/167/54
f 138/170/55 139/171/55 137/169/55
f 140/172/56 141/173/56 139/171/56
f 122/174/16 118/175/16 134/176/16
f 142/177/57 143/178/57 141/173/57
f 144/179/58 113/180/58 143/178/58
f 143/181/15 119/182/15 127/183/15
f 146/184/59 147/185/59 145/186/59
f 148/187/15 151/188/15 147/185/15
f 152/189/60 149/190/60 151/188/60
f 149/190/16 146/191/16 145/192/16
f 151/188/61 145/193/61 147/194/61
f 148/195/62 150/196/62 152/189/62
f 66/82/17 68/85/17 67/83/17
f 68/85/15 72/87/15 71/86/15
f 72/87/5 70/89/5 69/88/5
f 70/89/16 66/715/16 65/90/16
f 71/86/22 69/88/22 65/91/22
f 68/93/34 66/716/34 70/89/34
f 74/94/39 76/97/39 75/95/39
f 76/97/15 80/99/15 79/98/15
f 80/99/40 78/106/40 77/100/40
f 77/100/16 78/106/16 74/101/16
f 79/98/41 77/100/41 73/103/41
f 76/105/42 74/717/42 78/106/42
f 82/107/43 84/110/43 83/108/43
f 84/110/44 86/112/44 85/111/44
f 86/112/45 88/114/45 87/113/45
f 88/114/46 90/116/46 89/115/46
f 90/116/47 92/118/47 91/117/47
f 92/118/48 94/120/48 93/119/48
f 94/120/49 96/122/49 95/121/49
f 96/122/50 98/124/50 97/123/50
f 98/124/51 100/126/51 99/125/51
f 100/126/52 102/128/52 101/127/52
f 102/128/53 104/718/53 103/129/53
f 103/129/54 104/718/54 106/130/54
f 105/131/55 106/130/55 108/132/55
f 108/132/56 110/138/56 109/134/56
f 86/137/16 84/719/16 82/720/16
f 82/720/16 112/721/16 86/137/16
f 112/721/16 110/722/16 86/137/16
f 110/722/16 108/723/16 106/724/16
f 106/724/16 104/725/16 110/722/16
f 104/725/16 102/135/16 110/722/16
f 102/135/16 100/726/16 98/727/16
f 98/727/16 96/728/16 102/135/16
f 96/728/16 94/136/16 102/135/16
f 94/136/16 92/729/16 86/137/16
f 92/729/16 90/730/16 86/137/16
f 90/730/16 88/731/16 86/137/16
f 86/137/16 110/722/16 102/135/16
f 110/138/57 112/140/57 111/139/57
f 112/140/58 82/732/58 81/141/58
f 111/144/15 81/733/15 83/734/15
f 83/734/15 85/735/15 87/736/15
f 87/736/15 89/737/15 91/738/15
f 91/738/15 93/739/15 95/142/15
f 95/142/15 97/740/15 99/741/15
f 99/741/15 101/742/15 103/143/15
f 103/143/15 105/743/15 107/744/15
f 107/744/15 109/745/15 111/144/15
f 111/144/15 83/734/15 95/142/15
f 83/734/15 87/736/15 95/142/15
f 87/736/15 91/738/15 95/142/15
f 95/142/15 99/741/15 103/143/15
f 103/143/15 107/744/15 111/144/15
f 114/145/43 116/148/43 115/146/43
f 116/148/44 118/150/44 117/149/44
f 118/150/45 120/152/45 119/151/45
f 120/152/46 122/154/46 121/153/46
f 122/154/47 124/156/47 123/155/47
f 124/156/48 126/158/48 125/157/48
f 126/158/49 128/160/49 127/159/49
f 128/160/50 130/162/50 129/161/50
f 130/162/51 132/164/51 131/163/51
f 132/164/52 134/166/52 133/165/52
f 134/166/53 136/168/53 135/167/53
f 136/168/54 138/170/54 137/169/54
f 138/170/55 140/172/55 139/171/55
f 140/172/56 142/177/56 141/173/56
f 118/175/16 116/746/16 142/747/16
f 116/746/16 114/748/16 142/747/16
f 114/748/16 144/749/16 142/747/16
f 142/747/16 140/750/16 138/751/16
f 138/751/16 136/752/16 134/176/16
f 134/176/16 132/753/16 126/754/16
f 132/753/16 130/755/16 126/754/16
f 130/755/16 128/756/16 126/754/16
f 126/754/16 124/757/16 122/174/16
f 122/174/16 120/758/16 118/175/16
f 142/747/16 138/751/16 118/175/16
f 138/751/16 134/176/16 118/175/16
f 126/754/16 122/174/16 134/176/16
f 142/177/57 144/179/57 143/178/57
f 144/179/58 114/759/58 113/180/58
f 143/181/15 113/760/15 119/182/15
f 113/760/15 115/761/15 119/182/15
f 115/761/15 117/762/15 119/182/15
f 119/182/15 121/763/15 123/764/15
f 123/764/15 125/765/15 127/183/15
f 127/183/15 129/766/15 131/767/15
f 131/767/15 133/768/15 135/769/15
f 135/769/15 137/770/15 143/181/15
f 137/770/15 139/771/15 143/181/15
f 139/771/15 141/772/15 143/181/15
f 119/182/15 123/764/15 127/183/15
f 127/183/15 131/767/15 143/181/15
f 131/767/15 135/769/15 143/181/15
f 146/184/59 148/187/59 147/185/59
f 148/187/15 152/189/15 151/188/15
f 152/189/60 150/196/60 149/190/60
f 149/190/16 150/196/16 146/191/16
f 151/188/61 149/190/61 145/193/61
f 148/195/62 146/773/62 150/196/62
s 1
usemtl マテリアル.001
f 154/197/63 155/198/64 153/199/65
f 154/197/63 153/199/65 156/200/66
f 154/197/63 156/200/66 157/201/67
f 157/201/67 156/200/66 158/202/68
f 157/201/67 158/202/68 159/203/69
f 160/204/70 157/201/67 159/203/69
f 160/204/70 161/205/71 157/201/67
f 161/205/71 162/206/72 154/197/63
f 161/205/71 154/197/63 157/201/67
f 163/207/73 154/197/63 162/206/72
f 164/208/74 163/207/73 165/209/75
f 163/207/73 164/208/74 154/197/63
f 164/208/74 165/209/75 166/210/76
f 167/211/77 164/208/74 166/210/76
f 167/211/77 155/198/64 164/208/74
f 154/197/63 164/208/74 155/198/64
f 169/212/78 168/213/79 171/214/80
f 169/212/78 170/215/81 168/213/79
f 169/212/78 171/214/80 172/216/82
f 173/217/83 172/216/82 171/214/80
f 173/217/83 174/218/84 172/216/82
f 174/218/84 173/217/83 175/219/85
f 177/220/86 176/221/87 175/219/85
f 174/218/84 175/219/85 176/221/87
f 178/222/88 176/221/87 177/220/86
f 178/222/88 177/220/86 179/223/89
f 179/223/89 181/224/90 180/225/91
f 179/223/89 180/225/91 178/222/88
f 182/226/92 180/225/91 181/224/90
f 182/226/92 183/227/93 180/225/91
f 180/225/91 183/227/93 184/228/94
f 180/225/91 184/228/94 185/229/95
f 186/230/96 180/225/91 185/229/95
f 178/222/88 186/230/96 187/231/97
f 186/230/96 178/222/88 180/225/91
f 176/221/87 187/231/97 188/232/98
f 178/222/88 187/231/97 176/221/87
f 174/218/84 188/232/98 189/233/99
f 176/221/87 188/232/98 174/218/84
f 172/216/82 174/218/84 189/233/99
f 172/216/82 189/233/99 190/234/100
f 169/212/78 172/216/82 190/234/100
f 169/212/78 190/234/100 191/235/101
f 169/212/78 191/235/101 192/236/102
f 169/212/78 192/236/102 193/237/103
f 169/212/78 193/237/103 170/215/81
f 195/238/104 196/239/105 194/240/106
f 197/241/107 194/240/106 196/239/105
f 197/241/107 196/239/105 198/242/108
f 198/242/108 199/243/109 197/241/107
f 199/243/109 202/244/110 200/245/111
f 199/243/109 203/246/112 201/247/113
f 199/243/109 201/247/113 202/244/110
f 198/242/108 203/246/112 199/243/109
f 203/246/112 198/242/108 204/248/114
f 205/249/115 204/248/114 207/250/116
f 205/249/115 206/251/117 204/248/114
f 207/250/116 204/248/114 198/242/108
f 207/250/116 198/242/108 196/239/105
f 196/239/105 208/252/118 207/250/116
f 208/252/118 205/249/115 207/250/116
f 210/253/119 205/249/115 208/252/118
f 196/239/105 195/238/104 208/252/118
f 210/253/119 208/252/118 209/254/120
f 211/255/121 205/249/115 210/253/119
f 212/256/122 211/255/121 210/253/119
f 212/256/122 210/253/119 213/257/123
f 209/254/120 213/257/123 210/253/119
f 213/257/123 214/258/124 212/256/122
f 213/257/123 215/259/125 214/258/124
f 209/254/120 215/259/125 213/257/123
f 216/260/126 212/256/122 214/258/124
f 216/260/126 217/261/127 212/256/122
f 216/260/126 218/262/128 217/261/127
f 219/263/129 218/262/128 216/260/126
f 219/263/129 216/260/126 220/264/130
f 220/264/130 221/265/131 219/263/129
f 219/263/129 221/265/131 222/266/132
f 219/263/129 222/266/132 223/267/133
f 224/268/134 223/267/133 222/266/132
f 224/268/134 225/269/135 223/267/133
f 224/268/134 226/270/136 225/269/135
f 224/268/134 202/244/110 226/270/136
f 224/268/134 227/271/137 202/244/110
f 227/271/137 228/272/138 202/244/110
f 200/245/111 202/244/110 228/272/138
f 223/267/133 218/262/128 219/263/129
f 217/261/127 211/255/121 212/256/122
f 211/255/121 206/251/117 205/249/115
f 202/244/110 201/247/113 229/273/139
f 231/274/140 230/275/141 232/276/142
f 232/276/142 230/275/141 233/277/143
f 232/276/142 233/277/143 234/278/144
f 235/279/145 234/278/144 233/277/143
f 235/279/145 236/280/146 237/281/147
f 238/282/148 236/280/146 235/279/145
f 235/279/145 237/281/147 234/278/144
f 238/282/148 235/279/145 239/283/149
f 239/283/149 240/284/150 238/282/148
f 241/285/151 238/282/148 240/284/150
f 238/282/148 241/285/151 242/286/152
f 242/286/152 243/287/153 245/288/154
f 242/286/152 246/289/155 244/290/156
f 238/282/148 242/286/152 244/290/156
f 242/286/152 245/288/154 246/289/155
f 245/288/154 248/291/157 247/292/158
f 243/287/153 248/291/157 245/288/154
f 249/293/159 248/291/157 250/294/160
f 249/293/159 247/292/158 248/291/157
f 250/294/160 248/291/157 251/295/161
f 243/287/153 251/295/161 248/291/157
f 252/296/162 249/293/159 254/297/163
f 252/296/162 253/298/164 249/293/159
f 249/293/159 253/298/164 247/292/158
f 254/297/163 255/299/165 252/296/162
f 254/297/163 256/300/166 255/299/165
f 255/299/165 256/300/166 257/301/167
f 255/299/165 257/301/167 258/302/168
f 259/303/169 258/302/168 257/301/167
f 259/303/169 232/276/142 260/304/170
f 259/303/169 231/274/140 232/276/142
f 259/303/169 261/305/171 258/302/168
f 259/303/169 260/304/170 261/305/171
f 262/306/172 261/305/171 260/304/170
f 262/306/172 263/307/173 261/305/171
f 261/305/171 263/307/173 264/308/174
f 261/305/171 264/308/174 258/302/168
f 258/302/168 264/308/174 252/296/162
f 253/298/164 252/296/162 264/308/174
f 234/278/144 262/306/172 260/304/170
f 237/281/147 262/306/172 234/278/144
f 234/278/144 260/304/170 232/276/142
f 258/302/168 252/296/162 255/299/165
f 265/309/175 238/282/148 244/290/156
f 265/309/175 236/280/146 238/282/148
f 267/310/176 266/311/177 268/312/178
f 269/313/179 266/311/177 267/310/176
f 269/313/179 267/310/176 270/314/180
f 271/315/181 270/314/180 267/310/176
f 271/315/181 272/316/182 270/314/180
f 271/315/181 273/317/183 272/316/182
f 271/315/181 274/318/184 273/317/183
f 275/319/185 273/317/183 274/318/184
f 275/319/185 274/318/184 276/320/186
f 277/321/187 276/320/186 274/318/184
f 277/321/187 274/318/184 278/322/188
f 271/315/181 278/322/188 274/318/184
f 271/315/181 279/323/189 278/322/188
f 280/324/190 279/323/189 271/315/181
f 280/324/190 271/315/181 267/310/176
f 267/310/176 268/312/178 280/324/190
usemtl マテリアル
f 282/325/191 281/326/192 283/327/193
f 284/328/194 281/326/192 282/325/191
f 284/328/194 282/325/191 285/329/195
f 285/329/195 286/330/196 284/328/194
f 285/329/195 287/331/197 286/330/196
f 288/332/198 286/330/196 287/331/197
f 286/330/196 288/332/198 290/333/199
f 286/330/196 290/333/199 289/334/200
f 290/333/199 293/335/201 289/334/200
f 290/333/199 292/336/202 291/337/203
f 291/337/203 293/335/201 290/333/199
f 290/333/199 294/338/204 292/336/202
f 290/333/199 295/339/205 294/338/204
f 292/336/202 294/338/204 296/340/206
f 297/341/207 292/336/202 296/340/206
f 297/341/207 299/342/208 292/336/202
f 298/343/209 299/342/208 297/341/207
f 300/344/210 298/343/209 297/341/207
f 300/344/210 301/345/211 298/343/209
f 302/346/212 298/343/209 301/345/211
f 302/346/212 301/345/211 303/347/213
f 304/348/214 302/346/212 303/347/213
f 304/348/214 305/349/215 302/346/212
f 306/350/216 305/349/215 304/348/214
f 307/351/217 306/350/216 304/348/214
f 307/351/217 308/352/218 306/350/216
f 309/353/219 306/350/216 308/352/218
f 308/352/218 310/354/220 309/353/219
f 308/352/218 311/355/221 310/354/220
f 312/356/222 310/354/220 311/355/221
f 310/354/220 312/356/222 282/325/191
f 282/325/191 312/356/222 313/357/223
f 282/325/191 313/357/223 285/329/195
f 310/354/220 282/325/191 283/327/193
f 309/353/219 314/358/224 306/350/216
f 306/350/216 314/358/224 305/349/215
f 302/346/212 315/359/225 298/343/209
f 315/359/225 316/360/226 298/343/209
f 298/343/209 316/360/226 299/342/208
f 318/361/227 319/362/228 317/363/229
f 320/364/230 317/363/229 319/362/228
f 320/364/230 321/365/231 322/366/232
f 320/364/230 319/362/228 321/365/231
f 320/364/230 322/366/232 323/367/233
f 324/368/234 323/367/233 322/366/232
f 326/369/235 324/368/234 325/370/236
f 324/368/234 322/366/232 325/370/236
f 327/371/237 326/369/235 328/372/238
f 326/369/235 325/370/236 328/372/238
f 332/373/239 328/372/238 325/370/236
f 327/371/237 328/372/238 329/374/240
f 330/375/241 329/374/240 328/372/238
f 330/375/241 328/372/238 331/376/242
f 332/373/239 331/376/242 328/372/238
f 333/377/243 331/376/242 332/373/239
f 333/377/243 332/373/239 335/378/244
f 335/378/244 332/373/239 334/379/245
f 332/373/239 322/366/232 334/379/245
f 332/373/239 325/370/236 322/366/232
f 335/378/244 334/379/245 336/380/246
f 336/380/246 338/381/247 337/382/248
f 336/380/246 334/379/245 338/381/247
f 334/379/245 339/383/249 338/381/247
f 341/384/250 338/381/247 339/383/249
f 340/385/251 337/382/248 338/381/247
f 340/385/251 338/381/247 341/384/250
f 342/386/252 340/385/251 341/384/250
f 342/386/252 341/384/250 343/387/253
f 346/388/254 343/387/253 341/384/250
f 345/389/255 341/384/250 344/390/256
f 341/384/250 339/383/249 344/390/256
f 345/389/255 346/388/254 341/384/250
f 347/391/257 350/392/258 346/388/254
f 347/391/257 346/388/254 352/393/259
f 346/388/254 348/394/260 343/387/253
f 349/395/261 348/394/260 346/388/254
f 349/395/261 346/388/254 350/392/258
f 351/396/262 352/393/259 346/388/254
f 351/396/262 346/388/254 345/389/255
f 347/391/257 352/393/259 353/397/263
f 353/397/263 352/393/259 351/396/262
f 354/398/264 356/399/265 353/397/263
f 354/398/264 353/397/263 355/400/266
f 353/397/263 357/401/267 355/400/266
f 347/391/257 353/397/263 356/399/265
f 353/397/263 358/402/268 357/401/267
f 353/397/263 351/396/262 358/402/268
f 358/402/268 361/403/269 359/404/270
f 358/402/268 359/404/270 357/401/267
f 360/405/271 361/403/269 358/402/268
f 360/405/271 358/402/268 351/396/262
f 364/406/272 359/404/270 361/403/269
f 362/407/273 363/408/274 361/403/269
f 362/407/273 361/403/269 360/405/271
f 364/406/272 361/403/269 363/408/274
f 366/409/275 365/410/276 364/406/272
f 365/410/276 359/404/270 364/406/272
f 367/411/277 366/409/275 364/406/272
f 367/411/277 364/406/272 363/408/274
f 366/409/275 367/411/277 368/412/278
f 368/412/278 367/411/277 369/413/279
f 362/407/273 369/413/279 367/411/277
f 362/407/273 367/411/277 363/408/274
f 368/412/278 369/413/279 370/414/280
f 370/414/280 369/413/279 371/415/281
f 369/413/279 372/416/282 371/415/281
f 369/413/279 362/407/273 372/416/282
f 372/416/282 374/417/283 371/415/281
f 360/405/271 373/418/284 372/416/282
f 360/405/271 372/416/282 362/407/273
f 372/416/282 373/418/284 374/417/283
f 339/383/249 375/419/285 374/417/283
f 339/383/249 374/417/283 344/390/256
f 374/417/283 345/389/255 344/390/256
f 375/419/285 371/415/281 374/417/283
f 374/417/283 373/418/284 345/389/255
f 375/419/285 376/420/286 371/415/281
f 378/421/287 375/419/285 339/383/249
f 375/419/285 377/422/288 376/420/286
f 375/419/285 378/421/287 377/422/288
f 379/423/289 377/422/288 378/421/287
f 379/423/289 378/421/287 380/424/290
f 382/425/291 380/424/290 378/421/287
f 382/425/291 378/421/287 381/426/292
f 378/421/287 339/383/249 381/426/292
f 334/379/245 382/425/291 381/426/292
f 380/424/290 382/425/291 383/427/293
f 334/379/245 322/366/232 382/425/291
f 322/366/232 383/427/293 382/425/291
f 380/424/290 383/427/293 384/428/294
f 385/429/295 384/428/294 383/427/293
f 383/427/293 319/362/228 385/429/295
f 383/427/293 321/365/231 319/362/228
f 322/366/232 321/365/231 383/427/293
f 385/429/295 387/430/296 384/428/294
f 319/362/228 386/431/297 385/429/295
f 385/429/295 386/431/297 388/432/298
f 385/429/295 388/432/298 387/430/296
f 389/433/299 388/432/298 390/434/300
f 389/433/299 391/435/301 388/432/298
f 390/434/300 388/432/298 386/431/297
f 391/435/301 387/430/296 388/432/298
f 393/436/302 391/435/301 392/437/303
f 389/433/299 392/437/303 391/435/301
f 391/435/301 394/438/304 387/430/296
f 393/436/302 394/438/304 391/435/301
f 387/430/296 394/438/304 395/439/305
f 395/439/305 394/438/304 393/436/302
f 387/430/296 395/439/305 384/428/294
f 384/428/294 395/439/305 379/423/289
f 396/440/306 379/423/289 395/439/305
f 395/439/305 393/436/302 396/440/306
f 368/412/278 396/440/306 393/436/302
f 368/412/278 370/414/280 396/440/306
f 396/440/306 377/422/288 379/423/289
f 370/414/280 377/422/288 396/440/306
f 392/437/303 368/412/278 393/436/302
f 392/437/303 397/441/307 368/412/278
f 397/441/307 392/437/303 398/442/308
f 389/433/299 398/442/308 392/437/303
f 397/441/307 398/442/308 400/443/309
f 389/433/299 399/444/310 398/442/308
f 399/444/310 400/443/309 398/442/308
f 400/443/309 403/445/311 401/446/312
f 400/443/309 401/446/312 402/447/313
f 402/447/313 397/441/307 400/443/309
f 399/444/310 403/445/311 400/443/309
f 399/444/310 404/448/314 403/445/311
f 401/446/312 403/445/311 404/448/314
f 401/446/312 404/448/314 405/449/315
f 408/450/316 405/449/315 404/448/314
f 399/444/310 409/451/317 404/448/314
f 408/450/316 404/448/314 406/452/318
f 404/448/314 407/453/319 406/452/318
f 404/448/314 409/451/317 407/453/319
f 390/434/300 409/451/317 399/444/310
f 390/434/300 411/454/320 409/451/317
f 409/451/317 410/455/321 407/453/319
f 409/451/317 411/454/320 410/455/321
f 412/456/322 411/454/320 386/431/297
f 390/434/300 386/431/297 411/454/320
f 412/456/322 410/455/321 411/454/320
f 319/362/228 412/456/322 386/431/297
f 318/361/227 412/456/322 319/362/228
f 413/457/323 412/456/322 318/361/227
f 413/457/323 410/455/321 412/456/322
f 413/457/323 414/458/324 410/455/321
f 413/457/323 415/459/325 414/458/324
f 416/460/326 414/458/324 415/459/325
f 417/461/327 418/462/328 416/460/326
f 416/460/326 418/462/328 414/458/324
f 420/463/329 418/462/328 419/464/330
f 417/461/327 419/464/330 418/462/328
f 418/462/328 420/463/329 421/465/331
f 418/462/328 421/465/331 414/458/324
f 422/466/332 407/453/319 421/465/331
f 422/466/332 421/465/331 423/467/333
f 410/455/321 414/458/324 421/465/331
f 410/455/321 421/465/331 407/453/319
f 423/467/333 421/465/331 420/463/329
f 423/467/333 420/463/329 424/468/334
f 425/469/335 424/468/334 420/463/329
f 425/469/335 426/470/336 427/471/337
f 425/469/335 420/463/329 426/470/336
f 425/469/335 427/471/337 428/472/338
f 428/472/338 330/375/241 429/473/339
f 428/472/338 427/471/337 330/375/241
f 333/377/243 429/473/339 330/375/241
f 329/374/240 330/375/241 427/471/337
f 329/374/240 427/471/337 430/474/340
f 427/471/337 419/464/330 430/474/340
f 427/471/337 426/470/336 419/464/330
f 431/475/341 329/374/240 430/474/340
f 417/461/327 431/475/341 430/474/340
f 417/461/327 430/474/340 419/464/330
f 431/475/341 327/371/237 329/374/240
f 420/463/329 419/464/330 426/470/336
f 422/466/332 406/452/318 407/453/319
f 422/466/332 432/476/342 406/452/318
f 433/477/343 406/452/318 432/476/342
f 434/478/344 408/450/316 433/477/343
f 433/477/343 408/450/316 406/452/318
f 434/478/344 435/479/345 408/450/316
f 434/478/344 436/480/346 435/479/345
f 434/478/344 437/481/347 436/480/346
f 438/482/348 436/480/346 437/481/347
f 438/482/348 439/483/349 436/480/346
f 438/482/348 440/484/350 439/483/349
f 438/482/348 441/485/351 440/484/350
f 441/485/351 442/486/352 443/487/353
f 441/485/351 443/487/353 440/484/350
f 447/488/354 443/487/353 442/486/352
f 440/484/350 443/487/353 444/489/355
f 443/487/353 445/490/356 444/489/355
f 443/487/353 446/491/357 445/490/356
f 447/488/354 446/491/357 443/487/353
f 447/488/354 343/387/253 446/491/357
f 447/488/354 342/386/252 343/387/253
f 445/490/356 446/491/357 343/387/253
f 448/492/358 444/489/355 445/490/356
f 449/493/359 445/490/356 348/394/260
f 445/490/356 343/387/253 348/394/260
f 448/492/358 445/490/356 449/493/359
f 449/493/359 348/394/260 349/395/261
f 450/494/360 444/489/355 448/492/358
f 450/494/360 451/495/361 444/489/355
f 452/496/362 451/495/361 450/494/360
f 452/496/362 453/497/363 455/498/364
f 452/496/362 454/499/365 451/495/361
f 452/496/362 455/498/364 454/499/365
f 435/479/345 436/480/346 455/498/364
f 435/479/345 455/498/364 456/500/366
f 453/497/363 456/500/366 455/498/364
f 436/480/346 454/499/365 455/498/364
f 457/501/367 459/502/368 456/500/366
f 457/501/367 456/500/366 458/503/369
f 453/497/363 458/503/369 456/500/366
f 459/502/368 435/479/345 456/500/366
f 460/504/370 459/502/368 355/400/266
f 457/501/367 355/400/266 459/502/368
f 405/449/315 408/450/316 459/502/368
f 459/502/368 408/450/316 435/479/345
f 405/449/315 459/502/368 460/504/370
f 460/504/370 355/400/266 357/401/267
f 405/449/315 460/504/370 461/505/371
f 357/401/267 461/505/371 460/504/370
f 357/401/267 359/404/270 461/505/371
f 365/410/276 461/505/371 359/404/270
f 405/449/315 461/505/371 401/446/312
f 365/410/276 401/446/312 461/505/371
f 457/501/367 354/398/264 355/400/266
f 440/484/350 451/495/361 454/499/365
f 440/484/350 454/499/365 439/483/349
f 436/480/346 439/483/349 454/499/365
f 440/484/350 444/489/355 451/495/361
f 366/409/275 402/447/313 365/410/276
f 402/447/313 366/409/275 397/441/307
f 365/410/276 402/447/313 401/446/312
f 389/433/299 390/434/300 399/444/310
f 366/409/275 368/412/278 397/441/307
f 384/428/294 379/423/289 380/424/290
f 334/379/245 381/426/292 339/383/249
f 370/414/280 376/420/286 377/422/288
f 370/414/280 371/415/281 376/420/286
f 351/396/262 373/418/284 360/405/271
f 351/396/262 345/389/255 373/418/284
f 333/377/243 330/375/241 331/376/242
f 463/506/372 462/507/373 464/508/374
f 464/508/374 462/507/373 465/509/375
f 464/508/374 465/509/375 466/510/376
f 467/511/377 466/510/376 465/509/375
f 467/511/377 469/512/378 468/513/379
f 467/511/377 468/513/379 466/510/376
f 467/511/377 470/514/380 469/512/378
f 467/511/377 471/515/381 470/514/380
f 471/515/381 472/516/382 470/514/380
f 473/517/383 470/514/380 472/516/382
f 474/518/384 470/514/380 473/517/383
f 474/518/384 475/519/385 478/520/386
f 474/518/384 476/521/387 475/519/385
f 474/518/384 477/522/388 476/521/387
f 474/518/384 478/520/386 470/514/380
f 477/522/388 479/523/389 476/521/387
f 477/522/388 480/524/390 479/523/389
f 481/525/391 479/523/389 480/524/390
f 482/526/392 479/523/389 481/525/391
f 482/526/392 483/527/393 486/528/394
f 482/526/392 484/529/395 483/527/393
f 482/526/392 485/530/396 484/529/395
f 482/526/392 486/528/394 479/523/389
f 485/530/396 487/531/397 484/529/395
f 485/530/396 488/532/398 487/531/397
f 487/531/397 488/532/398 489/533/399
f 487/531/397 489/533/399 490/534/400
f 491/535/401 490/534/400 489/533/399
f 491/535/401 493/536/402 492/537/403
f 491/535/401 492/537/403 490/534/400
f 464/508/374 491/535/401 463/506/372
f 464/508/374 493/536/402 491/535/401
f 494/538/404 493/536/402 464/508/374
f 494/538/404 464/508/374 466/510/376
f 487/531/397 490/534/400 495/539/405
f 487/531/397 495/539/405 484/529/395
usemtl マテリアル.002
f 497/540/406 498/541/407 496/542/408
f 496/542/408 499/543/409 497/540/406
f 501/544/410 496/542/408 498/541/407
f 496/542/408 500/545/411 499/543/409
f 496/542/408 501/544/410 500/545/411
f 501/544/410 498/541/407 502/546/412
f 502/546/412 503/547/413 504/548/414
f 502/546/412 506/549/415 503/547/413
f 498/541/407 505/550/416 502/546/412
f 506/549/415 502/546/412 505/550/416
f 508/551/417 503/547/413 506/549/415
f 505/550/416 507/552/418 506/549/415
f 508/551/417 506/549/415 507/552/418
f 507/552/418 509/553/419 508/551/417
f 508/551/417 509/553/419 510/554/420
f 508/551/417 510/554/420 511/555/421
f 503/547/413 508/551/417 511/555/421
f 503/547/413 511/555/421 512/556/422
f 503/547/413 512/556/422 504/548/414
f 513/557/423 510/554/420 509/553/419
f 513/557/423 514/558/424 510/554/420
f 513/557/423 515/559/425 514/558/424
f 515/559/425 516/560/426 514/558/424
f 515/559/425 517/561/427 516/560/426
f 519/562/428 518/563/429 517/561/427
f 519/562/428 517/561/427 515/559/425
f 519/562/428 520/564/430 518/563/429
f 520/564/430 519/562/428 521/565/431
f 515/559/425 521/565/431 519/562/428
f 520/564/430 521/565/431 522/566/432
f 515/559/425 513/557/423 521/565/431
f 522/566/432 521/565/431 523/567/433
f 521/565/431 509/553/419 523/567/433
f 521/565/431 513/557/423 509/553/419
f 507/552/418 523/567/433 509/553/419
f 522/566/432 523/567/433 524/568/434
f 525/569/435 524/568/434 523/567/433
f 525/569/435 523/567/433 507/552/418
f 505/550/416 526/570/436 525/569/435
f 505/550/416 525/569/435 507/552/418
f 527/571/437 525/569/435 526/570/436
f 527/571/437 524/568/434 525/569/435
f 527/571/437 522/566/432 524/568/434
f 527/571/437 528/572/438 522/566/432
f 526/570/436 529/573/439 527/571/437
f 529/573/439 528/572/438 527/571/437
f 497/540/406 530/574/440 529/573/439
f 531/575/441 529/573/439 530/574/440
f 529/573/439 531/575/441 528/572/438
f 526/570/436 497/540/406 529/573/439
f 531/575/441 530/574/440 533/576/442
f 531/575/441 533/576/442 532/577/443
f 528/572/438 531/575/441 532/577/443
f 532/577/443 533/576/442 534/578/444
f 532/577/443 534/578/444 535/579/445
f 535/579/445 536/580/446 532/577/443
f 535/579/445 518/563/429 536/580/446
f 536/580/446 518/563/429 520/564/430
f 528/572/438 536/580/446 520/564/430
f 528/572/438 532/577/443 536/580/446
f 497/540/406 499/543/409 530/574/440
f 528/572/438 520/564/430 522/566/432
f 497/540/406 526/570/436 498/541/407
f 505/550/416 498/541/407 526/570/436
f 537/581/447 539/582/448 538/583/449
f 537/581/447 538/583/449 542/584/450
f 540/585/451 539/582/448 537/581/447
f 541/586/452 540/585/451 537/581/447
f 537/581/447 542/584/450 541/586/452
f 541/586/452 543/587/453 540/585/451
f 544/588/454 543/587/453 545/589/455
f 544/588/454 547/590/456 543/587/453
f 540/585/451 543/587/453 546/591/457
f 547/590/456 546/591/457 543/587/453
f 547/590/456 549/592/458 548/593/459
f 546/591/457 547/590/456 548/593/459
f 547/590/456 544/588/454 549/592/458
f 544/588/454 550/594/460 549/592/458
f 551/595/461 549/592/458 550/594/460
f 551/595/461 552/596/462 549/592/458
f 552/596/462 548/593/459 549/592/458
f 552/596/462 555/597/463 553/598/464
f 552/596/462 553/598/464 548/593/459
f 554/599/465 552/596/462 551/595/461
f 552/596/462 554/599/465 555/597/463
f 555/597/463 559/600/466 556/601/467
f 555/597/463 556/601/467 557/602/468
f 555/597/463 557/602/468 558/603/469
f 558/603/469 553/598/464 555/597/463
f 555/597/463 554/599/465 559/600/466
f 554/599/465 560/604/470 559/600/466
f 559/600/466 560/604/470 561/605/471
f 562/606/472 556/601/467 559/600/466
f 559/600/466 561/605/471 562/606/472
f 562/606/472 563/607/473 556/601/467
f 565/608/474 563/607/473 564/609/475
f 556/601/467 563/607/473 557/602/468
f 565/608/474 557/602/468 563/607/473
f 565/608/474 564/609/475 567/610/476
f 566/611/477 557/602/468 565/608/474
f 567/610/476 566/611/477 565/608/474
f 568/612/478 567/610/476 569/613/479
f 567/610/476 568/612/478 566/611/477
f 567/610/476 570/614/480 569/613/479
f 567/610/476 564/609/475 570/614/480
f 568/612/478 569/613/479 571/615/481
f 571/615/481 538/583/449 539/582/448
f 571/615/481 539/582/448 572/616/482
f 568/612/478 571/615/481 572/616/482
f 572/616/482 566/611/477 568/612/478
f 573/617/483 572/616/482 539/582/448
f 573/617/483 574/618/484 572/616/482
f 572/616/482 574/618/484 566/611/477
f 574/618/484 558/603/469 566/611/477
f 574/618/484 575/619/485 558/603/469
f 576/620/486 575/619/485 574/618/484
f 576/620/486 574/618/484 573/617/483
f 553/598/464 575/619/485 576/620/486
f 573/617/483 546/591/457 576/620/486
f 553/598/464 576/620/486 548/593/459
f 546/591/457 548/593/459 576/620/486
f 558/603/469 575/619/485 553/598/464
f 540/585/451 573/617/483 539/582/448
f 573/617/483 540/585/451 546/591/457
f 566/611/477 558/603/469 557/602/468
f 554/599/465 551/595/461 560/604/470
f 544/588/454 577/621/487 550/594/460
f 544/588/454 545/589/455 577/621/487
usemtl マテリアル.003
f 578/622/488 580/623/489 579/624/490
f 582/625/491 578/622/488 579/624/490
f 578/622/488 583/626/492 580/623/489
f 581/627/493 578/622/488 582/625/491
f 581/627/493 583/626/492 578/622/488
f 581/627/493 584/628/494 583/626/492
f 584/628/494 585/629/495 583/626/492
f 580/623/489 583/626/492 585/629/495
f 580/623/489 585/629/495 586/630/496
f 588/631/497 586/630/496 585/629/495
f 587/632/498 585/629/495 584/628/494
f 588/631/497 585/629/495 587/632/498
f 591/633/499 586/630/496 588/631/497
f 588/631/497 592/634/500 589/635/501
f 588/631/497 589/635/501 590/636/502
f 588/631/497 590/636/502 591/633/499
f 588/631/497 587/632/498 592/634/500
f 587/632/498 593/637/503 592/634/500
f 592/634/500 593/637/503 594/638/504
f 595/639/505 592/634/500 594/638/504
f 595/639/505 589/635/501 592/634/500
f 595/639/505 596/640/506 589/635/501
f 596/640/506 590/636/502 589/635/501
f 597/641/507 590/636/502 596/640/506
f 597/641/507 596/640/506 598/642/508
f 599/643/509 597/641/507 598/642/508
f 599/643/509 598/642/508 600/644/510
f 600/644/510 601/645/511 599/643/509
f 600/644/510 602/646/512 601/645/511
f 603/647/513 601/645/511 602/646/512
f 603/647/513 602/646/512 604/648/514
f 603/647/513 604/648/514 605/649/515
f 603/647/513 605/649/515 606/650/516
f 606/650/516 605/649/515 607/651/517
f 606/650/516 607/651/517 609/652/518
f 608/653/519 609/652/518 607/651/517
f 609/652/518 610/654/520 611/655/521
f 608/653/519 610/654/520 609/652/518
f 609/652/518 611/655/521 606/650/516
f 612/656/522 606/650/516 611/655/521
f 611/655/521 613/657/523 612/656/522
f 611/655/521 615/658/524 613/657/523
f 614/659/525 611/655/521 610/654/520
f 614/659/525 615/658/524 611/655/521
f 614/659/525 580/623/489 615/658/524
f 613/657/523 615/658/524 580/623/489
f 617/660/526 614/659/525 610/654/520
f 616/661/527 614/659/525 617/660/526
f 616/661/527 579/624/490 614/659/525
f 614/659/525 579/624/490 580/623/489
f 617/660/526 610/654/520 608/653/519
f 582/625/491 579/624/490 616/661/527
f 613/657/523 591/633/499 618/662/528
f 591/633/499 613/657/523 586/630/496
f 613/657/523 618/662/528 612/656/522
f 613/657/523 580/623/489 586/630/496
f 618/662/528 590/636/502 597/641/507
f 618/662/528 591/633/499 590/636/502
f 599/643/509 618/662/528 597/641/507
f 599/643/509 601/645/511 618/662/528
f 612/656/522 618/662/528 601/645/511
f 612/656/522 601/645/511 603/647/513
f 612/656/522 603/647/513 606/650/516
f 587/632/498 584/628/494 593/637/503
f 620/663/529 621/664/530 619/665/531
f 619/665/531 623/666/532 620/663/529
f 622/667/533 619/665/531 621/664/530
f 622/667/533 624/668/534 619/665/531
f 624/668/534 623/666/532 619/665/531
f 624/668/534 625/669/535 623/666/532
f 624/668/534 626/670/536 625/669/535
f 626/670/536 624/668/534 622/667/533
f 626/670/536 622/667/533 627/671/537
f 626/670/536 627/671/537 629/672/538
f 628/673/539 625/669/535 626/670/536
f 626/670/536 629/672/538 628/673/539
f 627/671/537 630/674/540 629/672/538
f 633/675/541 629/672/538 630/674/540
f 632/676/542 629/672/538 631/677/543
f 633/675/541 631/677/543 629/672/538
f 632/676/542 628/673/539 629/672/538
f 635/678/544 634/679/545 633/675/541
f 631/677/543 633/675/541 634/679/545
f 633/675/541 636/680/546 635/678/544
f 633/675/541 630/674/540 636/680/546
f 636/680/546 637/681/547 635/678/544
f 636/680/546 638/682/548 637/681/547
f 639/683/549 638/682/548 636/680/546
f 636/680/546 640/684/550 639/683/549
f 636/680/546 630/674/540 640/684/550
f 641/685/551 639/683/549 640/684/550
f 641/685/551 640/684/550 642/686/552
f 622/667/533 642/686/552 640/684/550
f 622/667/533 640/684/550 627/671/537
f 627/671/537 640/684/550 630/674/540
f 622/667/533 643/687/553 642/686/552
f 641/685/551 642/686/552 643/687/553
f 644/688/554 643/687/553 621/664/530
f 644/688/554 645/689/555 643/687/553
f 646/690/556 643/687/553 645/689/555
f 622/667/533 621/664/530 643/687/553
f 641/685/551 643/687/553 646/690/556
f 647/691/557 641/685/551 646/690/556
f 648/692/558 647/691/557 646/690/556
f 646/690/556 645/689/555 648/692/558
f 648/692/558 649/693/559 647/691/557
f 650/694/560 649/693/559 651/695/561
f 650/694/560 647/691/557 649/693/559
f 652/696/513 651/695/561 653/697/562
f 652/696/513 650/694/560 651/695/561
f 652/696/513 653/697/562 654/698/563
f 655/699/564 638/682/548 654/698/563
f 652/696/513 654/698/563 638/682/548
f 656/700/565 637/681/547 655/699/564
f 655/699/564 637/681/547 638/682/548
f 656/700/565 635/678/544 637/681/547
f 635/678/544 656/700/565 634/679/545
f 639/683/549 652/696/513 638/682/548
f 650/694/560 652/696/513 639/683/549
f 650/694/560 639/683/549 641/685/551
f 647/691/557 650/694/560 641/685/551
f 620/663/529 644/688/554 621/664/530
f 631/677/543 634/679/545 657/701/566
f 632/676/542 657/701/566 658/702/567
f 631/677/543 657/701/566 632/676/542
f 632/676/542 658/702/567 659/703/568
f 659/703/568 625/669/535 628/673/539
f 659/703/568 628/673/539 632/676/542
