# Blender 5.1.2
# www.blender.org
mtllib thumbtack.mtl
o 円柱
v -0.000000 0.972781 -0.358916
v 0.000000 1.718324 -0.240489
v 0.070021 0.972781 -0.352020
v 0.046917 1.718324 -0.235868
v 0.137351 0.972781 -0.331595
v 0.092031 1.718324 -0.222183
v 0.199403 0.972781 -0.298428
v 0.133609 1.718324 -0.199959
v 0.253792 0.972781 -0.253792
v 0.170052 1.718324 -0.170052
v 0.298428 0.972781 -0.199403
v 0.199959 1.718324 -0.133609
v 0.331595 0.972781 -0.137351
v 0.222183 1.718324 -0.092031
v 0.352020 0.972781 -0.070021
v 0.235868 1.718324 -0.046917
v 0.358916 0.972781 0.000000
v 0.240489 1.718324 0.000000
v 0.352020 0.972781 0.070021
v 0.235868 1.718324 0.046917
v 0.331595 0.972781 0.137351
v 0.222183 1.718324 0.092031
v 0.298428 0.972781 0.199403
v 0.199959 1.718324 0.133609
v 0.253792 0.972781 0.253792
v 0.170052 1.718324 0.170052
v 0.199403 0.972781 0.298428
v 0.133609 1.718324 0.199959
v 0.137351 0.972781 0.331595
v 0.092031 1.718324 0.222183
v 0.070021 0.972781 0.352020
v 0.046917 1.718324 0.235868
v -0.000000 0.972781 0.358916
v 0.000000 1.718324 0.240489
v -0.070021 0.972781 0.352020
v -0.046917 1.718324 0.235868
v -0.137351 0.972781 0.331595
v -0.092031 1.718324 0.222183
v -0.199403 0.972781 0.298428
v -0.133609 1.718324 0.199959
v -0.253792 0.972781 0.253792
v -0.170052 1.718324 0.170052
v -0.298428 0.972781 0.199403
v -0.199959 1.718324 0.133609
v -0.331595 0.972781 0.137351
v -0.222183 1.718324 0.092031
v -0.352020 0.972781 0.070021
v -0.235868 1.718324 0.046917
v -0.358916 0.972781 0.000000
v -0.240489 1.718324 0.000000
v -0.352020 0.972781 -0.070021
v -0.235868 1.718324 -0.046917
v -0.331595 0.972781 -0.137351
v -0.222183 1.718324 -0.092031
v -0.298428 0.972781 -0.199403
v -0.199959 1.718324 -0.133609
v -0.253792 0.972781 -0.253792
v -0.170052 1.718324 -0.170052
v -0.199403 0.972781 -0.298428
v -0.133609 1.718324 -0.199959
v -0.137351 0.972781 -0.331595
v -0.092031 1.718324 -0.222183
v -0.070021 0.972781 -0.352020
v -0.046917 1.718324 -0.235868
v 0.000000 1.718958 -0.316910
v 0.061826 1.718958 -0.310821
v 0.121276 1.718958 -0.292787
v 0.176066 1.718958 -0.263501
v 0.224089 1.718958 -0.224089
v 0.263501 1.718958 -0.176066
v 0.292787 1.718958 -0.121276
v 0.310821 1.718958 -0.061826
v 0.316910 1.718958 0.000000
v 0.310821 1.718958 0.061826
v 0.292787 1.718958 0.121276
v 0.263501 1.718958 0.176066
v 0.224089 1.718958 0.224089
v 0.176066 1.718958 0.263501
v 0.121276 1.718958 0.292787
v 0.061826 1.718958 0.310821
v 0.000000 1.718958 0.316910
v -0.061826 1.718958 0.310821
v -0.121276 1.718958 0.292787
v -0.176066 1.718958 0.263501
v -0.224089 1.718958 0.224089
v -0.263501 1.718958 0.176066
v -0.292787 1.718958 0.121276
v -0.310821 1.718958 0.061826
v -0.316910 1.718958 0.000000
v -0.310821 1.718958 -0.061826
v -0.292787 1.718958 -0.121276
v -0.263501 1.718958 -0.176066
v -0.224089 1.718958 -0.224089
v -0.176066 1.718958 -0.263501
v -0.121276 1.718958 -0.292787
v -0.061826 1.718958 -0.310821
v 0.000000 1.836330 -0.329956
v 0.064371 1.836330 -0.323616
v 0.126269 1.836330 -0.304840
v 0.183314 1.836330 -0.274349
v 0.233314 1.836330 -0.233314
v 0.274349 1.836330 -0.183314
v 0.304840 1.836330 -0.126269
v 0.323616 1.836330 -0.064371
v 0.329956 1.836330 0.000000
v 0.323616 1.836330 0.064371
v 0.304840 1.836330 0.126269
v 0.274349 1.836330 0.183314
v 0.233314 1.836330 0.233314
v 0.183314 1.836330 0.274349
v 0.126269 1.836330 0.304840
v 0.064371 1.836330 0.323616
v 0.000000 1.836330 0.329956
v -0.064371 1.836330 0.323616
v -0.126269 1.836330 0.304840
v -0.183314 1.836330 0.274349
v -0.233314 1.836330 0.233314
v -0.274349 1.836330 0.183314
v -0.304840 1.836330 0.126269
v -0.323616 1.836330 0.064371
v -0.329956 1.836330 0.000000
v -0.323616 1.836330 -0.064371
v -0.304840 1.836330 -0.126269
v -0.274349 1.836330 -0.183314
v -0.233314 1.836330 -0.233314
v -0.183314 1.836330 -0.274349
v -0.126269 1.836330 -0.304840
v -0.064371 1.836330 -0.323616
v -0.000000 0.902752 -0.420741
v 0.082082 0.902752 -0.412656
v 0.161010 0.902752 -0.388714
v 0.233751 0.902752 -0.349833
v 0.297508 0.902752 -0.297508
v 0.349833 0.902752 -0.233751
v 0.388714 0.902752 -0.161010
v 0.412656 0.902752 -0.082082
v 0.420741 0.902752 -0.000000
v 0.412656 0.902752 0.082082
v 0.388714 0.902752 0.161010
v 0.349833 0.902752 0.233751
v 0.297508 0.902752 0.297508
v 0.233751 0.902752 0.349833
v 0.161010 0.902752 0.388714
v 0.082082 0.902752 0.412656
v -0.000000 0.902752 0.420741
v -0.082082 0.902752 0.412656
v -0.161010 0.902752 0.388714
v -0.233751 0.902752 0.349833
v -0.297508 0.902752 0.297508
v -0.349833 0.902752 0.233751
v -0.388714 0.902752 0.161010
v -0.412656 0.902752 0.082082
v -0.420741 0.902752 -0.000000
v -0.412656 0.902752 -0.082082
v -0.388714 0.902752 -0.161010
v -0.349833 0.902752 -0.233751
v -0.297508 0.902752 -0.297508
v -0.233751 0.902752 -0.349833
v -0.161010 0.902752 -0.388714
v -0.082082 0.902752 -0.412656
v -0.000000 0.708677 -0.045246
v 0.008827 0.708677 -0.044377
v 0.017315 0.708677 -0.041802
v 0.025137 0.708677 -0.037621
v 0.031994 0.708677 -0.031994
v 0.037621 0.708677 -0.025137
v 0.041802 0.708677 -0.017315
v 0.044377 0.708677 -0.008827
v 0.045246 0.708677 -0.000000
v 0.044377 0.708677 0.008827
v 0.041802 0.708677 0.017315
v 0.037621 0.708677 0.025137
v 0.031994 0.708677 0.031994
v 0.025137 0.708677 0.037621
v 0.017315 0.708677 0.041802
v 0.008827 0.708677 0.044377
v -0.000000 0.708677 0.045246
v -0.008827 0.708677 0.044377
v -0.017315 0.708677 0.041802
v -0.025137 0.708677 0.037621
v -0.031994 0.708677 0.031994
v -0.037621 0.708677 0.025137
v -0.041802 0.708677 0.017315
v -0.044377 0.708677 0.008827
v -0.045246 0.708677 -0.000000
v -0.044377 0.708677 -0.008827
v -0.041802 0.708677 -0.017315
v -0.037621 0.708677 -0.025137
v -0.031994 0.708677 -0.031994
v -0.025137 0.708677 -0.037621
v -0.017315 0.708677 -0.041802
v -0.008827 0.708677 -0.044377
v -0.000000 0.708677 -0.435491
v 0.084960 0.708677 -0.427123
v 0.166655 0.708677 -0.402341
v 0.241946 0.708677 -0.362098
v 0.307939 0.708677 -0.307939
v 0.362098 0.708677 -0.241946
v 0.402341 0.708677 -0.166655
v 0.427123 0.708677 -0.084960
v 0.435491 0.708677 -0.000000
v 0.427123 0.708677 0.084960
v 0.402341 0.708677 0.166655
v 0.362098 0.708677 0.241946
v 0.307939 0.708677 0.307939
v 0.241946 0.708677 0.362098
v 0.166655 0.708677 0.402341
v 0.084960 0.708677 0.427123
v -0.000000 0.708677 0.435491
v -0.084960 0.708677 0.427123
v -0.166655 0.708677 0.402341
v -0.241946 0.708677 0.362098
v -0.307939 0.708677 0.307939
v -0.362098 0.708677 0.241946
v -0.402341 0.708677 0.166655
v -0.427123 0.708677 0.084960
v -0.435491 0.708677 -0.000000
v -0.427123 0.708677 -0.084960
v -0.402341 0.708677 -0.166655
v -0.362098 0.708677 -0.241946
v -0.307939 0.708677 -0.307939
v -0.241946 0.708677 -0.362098
v -0.166655 0.708677 -0.402341
v -0.084960 0.708677 -0.427123
v -0.000000 0.708677 -0.045246
v 0.008827 0.708677 -0.044377
v 0.017315 0.708677 -0.041802
v 0.025137 0.708677 -0.037621
v 0.031994 0.708677 -0.031994
v 0.037621 0.708677 -0.025137
v 0.041802 0.708677 -0.017315
v 0.044377 0.708677 -0.008827
v 0.045246 0.708677 -0.000000
v 0.044377 0.708677 0.008827
v 0.041802 0.708677 0.017315
v 0.037621 0.708677 0.025137
v 0.031994 0.708677 0.031994
v 0.025137 0.708677 0.037621
v 0.017315 0.708677 0.041802
v 0.008827 0.708677 0.044377
v -0.000000 0.708677 0.045246
v -0.008827 0.708677 0.044377
v -0.017315 0.708677 0.041802
v -0.025137 0.708677 0.037621
v -0.031994 0.708677 0.031994
v -0.037621 0.708677 0.025137
v -0.041802 0.708677 0.017315
v -0.044377 0.708677 0.008827
v -0.045246 0.708677 -0.000000
v -0.044377 0.708677 -0.008827
v -0.041802 0.708677 -0.017315
v -0.037621 0.708677 -0.025137
v -0.031994 0.708677 -0.031994
v -0.025137 0.708677 -0.037621
v -0.017315 0.708677 -0.041802
v -0.008827 0.708677 -0.044377
v -0.000000 -0.003259 -0.005774
v 0.001126 -0.003259 -0.005663
v 0.002210 -0.003259 -0.005335
v 0.003208 -0.003259 -0.004801
v 0.004083 -0.003259 -0.004083
v 0.004801 -0.003259 -0.003208
v 0.005335 -0.003259 -0.002210
v 0.005663 -0.003259 -0.001126
v 0.005774 -0.003259 -0.000000
v 0.005663 -0.003259 0.001126
v 0.005335 -0.003259 0.002210
v 0.004801 -0.003259 0.003208
v 0.004083 -0.003259 0.004083
v 0.003208 -0.003259 0.004801
v 0.002210 -0.003259 0.005335
v 0.001126 -0.003259 0.005663
v -0.000000 -0.003259 0.005774
v -0.001127 -0.003259 0.005663
v -0.002210 -0.003259 0.005335
v -0.003208 -0.003259 0.004801
v -0.004083 -0.003259 0.004083
v -0.004801 -0.003259 0.003208
v -0.005335 -0.003259 0.002210
v -0.005663 -0.003259 0.001126
v -0.005774 -0.003259 -0.000000
v -0.005663 -0.003259 -0.001126
v -0.005335 -0.003259 -0.002210
v -0.004801 -0.003259 -0.003208
v -0.004083 -0.003259 -0.004083
v -0.003208 -0.003259 -0.004801
v -0.002210 -0.003259 -0.005335
v -0.001127 -0.003259 -0.005663
vn -0.0000 0.1569 -0.9876
vn 0.1758 0.4332 -0.8840
vn -0.0000 0.4332 -0.9013
vn 0.1927 0.1569 -0.9686
vn 0.3449 0.4332 -0.8327
vn 0.3779 0.1569 -0.9124
vn 0.5007 0.4332 -0.7494
vn 0.5487 0.1569 -0.8212
vn 0.6373 0.4332 -0.6373
vn 0.6984 0.1569 -0.6984
vn 0.7494 0.4332 -0.5007
vn 0.8212 0.1569 -0.5487
vn 0.8327 0.4332 -0.3449
vn 0.9124 0.1569 -0.3779
vn 0.8840 0.4332 -0.1758
vn 0.9686 0.1569 -0.1927
vn 0.9013 0.4332 -0.0000
vn 0.9876 0.1569 -0.0000
vn 0.8840 0.4332 0.1758
vn 0.9686 0.1569 0.1927
vn 0.8327 0.4332 0.3449
vn 0.9124 0.1569 0.3779
vn 0.7494 0.4332 0.5007
vn 0.8212 0.1569 0.5487
vn 0.6373 0.4332 0.6373
vn 0.6984 0.1569 0.6984
vn 0.5007 0.4332 0.7494
vn 0.5487 0.1569 0.8212
vn 0.3449 0.4332 0.8327
vn 0.3779 0.1569 0.9124
vn 0.1758 0.4332 0.8840
vn 0.1927 0.1569 0.9686
vn -0.0000 0.4332 0.9013
vn -0.0000 0.1569 0.9876
vn -0.1758 0.4332 0.8840
vn -0.1927 0.1569 0.9686
vn -0.3449 0.4332 0.8327
vn -0.3779 0.1569 0.9124
vn -0.5007 0.4332 0.7494
vn -0.5487 0.1569 0.8212
vn -0.6373 0.4332 0.6373
vn -0.6984 0.1569 0.6984
vn -0.7494 0.4332 0.5007
vn -0.8212 0.1569 0.5487
vn -0.8327 0.4332 0.3449
vn -0.9124 0.1569 0.3779
vn -0.8840 0.4332 0.1758
vn -0.9686 0.1569 0.1927
vn -0.9013 0.4332 -0.0000
vn -0.9876 0.1569 -0.0000
vn -0.8840 0.4332 -0.1758
vn -0.9686 0.1569 -0.1927
vn -0.8327 0.4332 -0.3449
vn -0.9124 0.1569 -0.3779
vn -0.7494 0.4332 -0.5007
vn -0.8212 0.1569 -0.5487
vn -0.6373 0.4332 -0.6373
vn -0.6984 0.1569 -0.6984
vn -0.5007 0.4332 -0.7494
vn -0.5487 0.1569 -0.8212
vn -0.3449 0.4332 -0.8327
vn -0.0046 -1.0000 -0.0069
vn -0.0032 -1.0000 -0.0077
vn -0.3779 0.1569 -0.9124
vn -0.1758 0.4332 -0.8840
vn -0.1927 0.1569 -0.9686
vn 0.7497 0.6618 -0.0000
vn 0.7352 0.6618 -0.1463
vn -0.8264 -0.1105 0.5522
vn -0.7028 -0.1105 0.7028
vn 0.0083 -1.0000 -0.0000
vn 0.0081 -1.0000 -0.0016
vn -0.0000 -1.0000 0.0083
vn -0.0016 -1.0000 0.0081
vn -0.0077 -1.0000 -0.0032
vn -0.0081 -1.0000 -0.0016
vn 0.0046 -1.0000 -0.0069
vn 0.0059 -1.0000 -0.0059
vn 0.0059 -1.0000 0.0059
vn 0.0046 -1.0000 0.0069
vn -0.0069 -1.0000 0.0046
vn -0.0077 -1.0000 0.0032
vn -0.0016 -1.0000 -0.0081
vn 0.0081 -1.0000 0.0016
vn -0.0032 -1.0000 0.0077
vn -0.0069 -1.0000 -0.0046
vn 0.0069 -1.0000 -0.0046
vn 0.0032 -1.0000 0.0077
vn -0.0081 -1.0000 0.0016
vn -0.0000 -1.0000 -0.0083
vn 0.0016 -1.0000 -0.0081
vn 0.0077 -1.0000 0.0032
vn -0.0046 -1.0000 0.0069
vn -0.0059 -1.0000 -0.0059
vn 0.0077 -1.0000 -0.0032
vn 0.0016 -1.0000 0.0081
vn -0.0083 -1.0000 -0.0000
vn 0.0032 -1.0000 -0.0077
vn 0.0069 -1.0000 0.0046
vn -0.0059 -1.0000 0.0059
vn -0.0000 1.0000 -0.0000
vn 0.9748 -0.1105 -0.1939
vn 0.9939 -0.1105 -0.0000
vn -0.9182 -0.1105 0.3803
vn 0.9748 -0.1105 0.1939
vn -0.9748 -0.1105 0.1939
vn 0.9182 -0.1105 0.3803
vn -0.9939 -0.1105 -0.0000
vn 0.8264 -0.1105 0.5522
vn -0.9748 -0.1105 -0.1939
vn 0.7028 -0.1105 0.7028
vn -0.9182 -0.1105 -0.3803
vn 0.5522 -0.1105 0.8264
vn -0.8264 -0.1105 -0.5522
vn 0.3803 -0.1105 0.9182
vn -0.0000 -0.1105 -0.9939
vn 0.1939 -0.1105 -0.9748
vn -0.7028 -0.1105 -0.7028
vn 0.1939 -0.1105 0.9748
vn 0.3803 -0.1105 -0.9182
vn -0.5522 -0.1105 -0.8264
vn -0.0000 -0.1105 0.9939
vn 0.5522 -0.1105 -0.8264
vn -0.3803 -0.1105 -0.9182
vn -0.1939 -0.1105 0.9748
vn 0.7028 -0.1105 -0.7028
vn -0.1939 -0.1105 -0.9748
vn -0.3803 -0.1105 0.9182
vn 0.8264 -0.1105 -0.5522
vn -0.5522 -0.1105 0.8264
vn 0.9182 -0.1105 -0.3803
vn -0.8291 0.0758 -0.5540
vn -0.9212 0.0758 -0.3816
vn -0.0000 0.6618 0.7497
vn -0.6926 0.6618 -0.2869
vn -0.7352 0.6618 -0.1463
vn 0.5301 0.6618 -0.5301
vn 0.4165 0.6618 -0.6233
vn 0.5301 0.6618 0.5301
vn -0.6233 0.6618 0.4165
vn -0.2869 0.6618 -0.6926
vn -0.2869 0.6618 0.6926
vn -0.1463 0.6618 0.7352
vn -0.6233 0.6618 -0.4165
vn 0.4165 0.6618 0.6233
vn -0.6926 0.6618 0.2869
vn -0.0000 0.6618 -0.7497
vn -0.1463 0.6618 -0.7352
vn 0.6926 0.6618 0.2869
vn 0.7352 0.6618 0.1463
vn -0.4165 0.6618 0.6233
vn -0.5301 0.6618 -0.5301
vn 0.6233 0.6618 -0.4165
vn 0.2869 0.6618 0.6926
vn -0.7497 0.6618 -0.0000
vn -0.7352 0.6618 0.1463
vn 0.2869 0.6618 -0.6926
vn 0.1463 0.6618 -0.7352
vn 0.6233 0.6618 0.4165
vn -0.5301 0.6618 0.5301
vn 0.6926 0.6618 -0.2869
vn 0.1463 0.6618 0.7352
vn -0.4165 0.6618 -0.6233
vn 0.5540 0.0758 0.8291
vn 0.3816 0.0758 0.9212
vn 0.1945 0.0758 -0.9780
vn -0.0000 0.0758 -0.9971
vn -0.7051 0.0758 -0.7051
vn 0.1945 0.0758 0.9780
vn 0.3816 0.0758 -0.9212
vn -0.5540 0.0758 -0.8291
vn -0.0000 0.0758 0.9971
vn 0.5540 0.0758 -0.8291
vn -0.3816 0.0758 -0.9212
vn -0.1945 0.0758 0.9780
vn 0.7051 0.0758 -0.7051
vn -0.1945 0.0758 -0.9780
vn -0.3816 0.0758 0.9212
vn 0.8291 0.0758 -0.5540
vn -0.5540 0.0758 0.8291
vn 0.9212 0.0758 -0.3816
vn -0.7051 0.0758 0.7051
vn 0.9780 0.0758 -0.1945
vn -0.8291 0.0758 0.5540
vn 0.9971 0.0758 -0.0000
vn -0.9212 0.0758 0.3816
vn 0.9780 0.0758 0.1945
vn -0.9780 0.0758 0.1945
vn 0.9212 0.0758 0.3816
vn -0.9971 0.0758 -0.0000
vn 0.8291 0.0758 0.5540
vn -0.9780 0.0758 -0.1945
vn 0.7051 0.0758 0.7051
vn -0.0000 -1.0000 -0.0000
vn -0.9793 -0.0554 -0.1948
vn -0.9985 -0.0554 -0.0000
vn 0.7060 -0.0554 0.7060
vn 0.8302 -0.0554 0.5547
vn -0.9225 -0.0554 -0.3821
vn 0.5547 -0.0554 0.8302
vn -0.8302 -0.0554 -0.5547
vn 0.3821 -0.0554 0.9225
vn 0.1948 -0.0554 -0.9793
vn -0.0000 -0.0554 -0.9985
vn -0.7060 -0.0554 -0.7060
vn 0.1948 -0.0554 0.9793
vn 0.3821 -0.0554 -0.9225
vn -0.5547 -0.0554 -0.8302
vn -0.0000 -0.0554 0.9985
vn 0.5547 -0.0554 -0.8302
vn -0.3821 -0.0554 -0.9225
vn -0.1948 -0.0554 0.9793
vn 0.7060 -0.0554 -0.7060
vn -0.1948 -0.0554 -0.9793
vn -0.3821 -0.0554 0.9225
vn 0.8302 -0.0554 -0.5547
vn -0.5547 -0.0554 0.8302
vn 0.9225 -0.0554 -0.3821
vn -0.7060 -0.0554 0.7060
vn 0.9793 -0.0554 -0.1948
vn -0.8302 -0.0554 0.5547
vn 0.9985 -0.0554 -0.0000
vn -0.9225 -0.0554 0.3821
vn 0.9793 -0.0554 0.1948
vn -0.9793 -0.0554 0.1948
vn 0.9225 -0.0554 0.3821
vt 1.000000 1.000000
vt 0.968750 0.500000
vt 1.000000 0.500000
vt 0.968750 1.000000
vt 0.937500 0.500000
vt 0.937500 1.000000
vt 0.906250 0.500000
vt 0.906250 1.000000
vt 0.875000 0.500000
vt 0.875000 1.000000
vt 0.843750 0.500000
vt 0.843750 1.000000
vt 0.812500 0.500000
vt 0.812500 1.000000
vt 0.781250 0.500000
vt 0.781250 1.000000
vt 0.750000 0.500000
vt 0.750000 1.000000
vt 0.718750 0.500000
vt 0.718750 1.000000
vt 0.687500 0.500000
vt 0.687500 1.000000
vt 0.656250 0.500000
vt 0.656250 1.000000
vt 0.625000 0.500000
vt 0.625000 1.000000
vt 0.593750 0.500000
vt 0.593750 1.000000
vt 0.562500 0.500000
vt 0.562500 1.000000
vt 0.531250 0.500000
vt 0.531250 1.000000
vt 0.500000 0.500000
vt 0.500000 1.000000
vt 0.468750 0.500000
vt 0.468750 1.000000
vt 0.437500 0.500000
vt 0.437500 1.000000
vt 0.406250 0.500000
vt 0.406250 1.000000
vt 0.375000 0.500000
vt 0.375000 1.000000
vt 0.343750 0.500000
vt 0.343750 1.000000
vt 0.312500 0.500000
vt 0.312500 1.000000
vt 0.281250 0.500000
vt 0.281250 1.000000
vt 0.250000 0.500000
vt 0.250000 1.000000
vt 0.218750 0.500000
vt 0.218750 1.000000
vt 0.187500 0.500000
vt 0.187500 1.000000
vt 0.156250 0.500000
vt 0.156250 1.000000
vt 0.125000 0.500000
vt 0.125000 1.000000
vt 0.093750 0.500000
vt 0.093750 1.000000
vt 0.062500 0.500000
vt 0.062500 1.000000
vt 0.031250 0.500000
vt 0.031250 1.000000
vt 0.000000 0.500000
vt 0.000000 1.000000
vt 0.341844 0.471731
vt 0.028269 0.341844
vt 0.158156 0.028269
vt 0.750000 0.379046
vt 0.796822 0.485388
vt 0.775176 0.376566
vt 0.841844 0.471731
vt 0.799384 0.369223
vt 0.821694 0.357298
vt 0.883337 0.449553
vt 0.919706 0.419706
vt 0.841249 0.341249
vt 0.857298 0.321694
vt 0.949553 0.383337
vt 0.971731 0.341844
vt 0.869223 0.299384
vt 0.876566 0.275176
vt 0.985388 0.296822
vt 0.990000 0.250000
vt 0.879046 0.250000
vt 0.985388 0.203178
vt 0.876566 0.224824
vt 0.971731 0.158156
vt 0.869223 0.200616
vt 0.857298 0.178306
vt 0.949553 0.116663
vt 0.919706 0.080294
vt 0.841249 0.158751
vt 0.821694 0.142702
vt 0.883337 0.050447
vt 0.841844 0.028269
vt 0.799384 0.130777
vt 0.775176 0.123434
vt 0.796822 0.014612
vt 0.750000 0.010000
vt 0.750000 0.120954
vt 0.703178 0.014612
vt 0.724824 0.123434
vt 0.658156 0.028269
vt 0.700616 0.130777
vt 0.678306 0.142702
vt 0.616663 0.050447
vt 0.580294 0.080294
vt 0.658751 0.158751
vt 0.642702 0.178306
vt 0.550447 0.116663
vt 0.528269 0.158156
vt 0.630777 0.200616
vt 0.514612 0.203178
vt 0.623434 0.224824
vt 0.510000 0.250000
vt 0.620954 0.250000
vt 0.514612 0.296822
vt 0.623434 0.275176
vt 0.528269 0.341844
vt 0.630777 0.299384
vt 0.550447 0.383337
vt 0.642702 0.321694
vt 0.580294 0.419706
vt 0.658751 0.341249
vt 0.678306 0.357298
vt 0.616663 0.449553
vt 0.658156 0.471731
vt 0.700616 0.369223
vt 0.724824 0.376566
vt 0.703178 0.485388
vt 0.750000 0.490000
vt 0.296822 0.485388
vt 0.158156 0.471731
vt 0.250000 0.490000
vt 0.203178 0.485388
vt 0.116663 0.449553
vt 0.080294 0.419706
vt 0.050447 0.383337
vt 0.014612 0.296822
vt 0.010000 0.250000
vt 0.014612 0.203178
vt 0.028269 0.158156
vt 0.050447 0.116663
vt 0.080294 0.080294
vt 0.116663 0.050447
vt 0.203178 0.014612
vt 0.250000 0.010000
vt 0.296822 0.014612
vt 0.341844 0.028269
vt 0.383337 0.050447
vt 0.419706 0.080294
vt 0.449553 0.116663
vt 0.471731 0.158156
vt 0.485388 0.203178
vt 0.471731 0.341844
vt 0.490000 0.250000
vt 0.485388 0.296822
vt 0.449553 0.383337
vt 0.419706 0.419706
vt 0.383337 0.449553
s 1
usemtl マテリアル
f 2/1/1 3/2/2 1/3/3
f 4/4/4 5/5/5 3/2/2
f 6/6/6 7/7/7 5/5/5
f 8/8/8 9/9/9 7/7/7
f 10/10/10 11/11/11 9/9/9
f 12/12/12 13/13/13 11/11/11
f 14/14/14 15/15/15 13/13/13
f 16/16/16 17/17/17 15/15/15
f 18/18/18 19/19/19 17/17/17
f 20/20/20 21/21/21 19/19/19
f 22/22/22 23/23/23 21/21/21
f 24/24/24 25/25/25 23/23/23
f 26/26/26 27/27/27 25/25/25
f 28/28/28 29/29/29 27/27/27
f 30/30/30 31/31/31 29/29/29
f 32/32/32 33/33/33 31/31/31
f 34/34/34 35/35/35 33/33/33
f 36/36/36 37/37/37 35/35/35
f 38/38/38 39/39/39 37/37/37
f 40/40/40 41/41/41 39/39/39
f 42/42/42 43/43/43 41/41/41
f 44/44/44 45/45/45 43/43/43
f 46/46/46 47/47/47 45/45/45
f 48/48/48 49/49/49 47/47/47
f 50/50/50 51/51/51 49/49/49
f 52/52/52 53/53/53 51/51/51
f 54/54/54 55/55/55 53/53/53
f 56/56/56 57/57/57 55/55/55
f 58/58/58 59/59/59 57/57/57
f 60/60/60 61/61/61 59/59/59
f 60/60/62 95/62/63 62/62/63
f 62/62/64 63/63/65 61/61/61
f 64/64/66 1/65/3 63/63/65
f 15/15/15 137/17/67 136/15/68
f 86/44/69 117/42/70 118/44/69
f 18/18/71 72/16/72 73/18/71
f 34/34/73 82/36/74 36/36/74
f 54/54/75 90/52/76 91/54/75
f 8/8/77 69/10/78 10/10/78
f 26/26/79 78/28/80 28/28/80
f 44/44/81 87/46/82 46/46/82
f 64/64/83 95/62/63 96/64/83
f 18/18/71 74/20/84 20/20/84
f 36/36/74 83/38/85 38/38/85
f 56/56/86 91/54/75 92/56/86
f 10/10/78 70/12/87 12/12/87
f 28/28/80 79/30/88 30/30/88
f 46/46/82 88/48/89 48/48/89
f 2/1/90 66/4/91 4/4/91
f 2/66/90 96/64/83 65/66/90
f 22/22/92 74/20/84 75/22/92
f 40/40/93 83/38/85 84/40/93
f 56/56/86 93/58/94 58/58/94
f 12/12/87 71/14/95 14/14/95
f 30/30/88 80/32/96 32/32/96
f 50/50/97 88/48/89 89/50/97
f 6/6/98 66/4/91 67/6/98
f 24/24/99 75/22/92 76/24/99
f 42/42/100 84/40/93 85/42/100
f 58/58/94 94/60/62 60/60/62
f 14/14/95 72/16/72 16/16/72
f 34/34/73 80/32/96 81/34/73
f 50/50/97 90/52/76 52/52/76
f 8/8/77 67/6/98 68/8/77
f 24/24/99 77/26/79 26/26/79
f 42/42/100 86/44/81 44/44/81
f 99/67/101 123/68/101 115/69/101
f 72/16/102 105/18/103 73/18/103
f 86/44/69 119/46/104 87/46/104
f 73/18/103 106/20/105 74/20/105
f 87/46/104 120/48/106 88/48/106
f 74/20/105 107/22/107 75/22/107
f 89/50/108 120/48/106 121/50/108
f 76/24/109 107/22/107 108/24/109
f 89/50/108 122/52/110 90/52/110
f 76/24/109 109/26/111 77/26/111
f 90/52/110 123/54/112 91/54/112
f 78/28/113 109/26/111 110/28/113
f 92/56/114 123/54/112 124/56/114
f 78/28/113 111/30/115 79/30/115
f 65/1/116 98/4/117 66/4/117
f 92/56/114 125/58/118 93/58/118
f 79/30/115 112/32/119 80/32/119
f 66/4/117 99/6/120 67/6/120
f 93/58/118 126/60/121 94/60/121
f 80/32/119 113/34/122 81/34/122
f 68/8/123 99/6/120 100/8/123
f 94/60/121 127/62/124 95/62/124
f 81/34/122 114/36/125 82/36/125
f 68/8/123 101/10/126 69/10/126
f 95/62/124 128/64/127 96/64/127
f 82/36/125 115/38/128 83/38/128
f 70/12/129 101/10/126 102/12/129
f 65/66/116 128/64/127 97/66/116
f 83/38/128 116/40/130 84/40/130
f 70/12/129 103/14/131 71/14/131
f 84/40/130 117/42/70 85/42/70
f 71/14/131 104/16/102 72/16/102
f 156/55/132 219/53/133 155/53/133
f 35/35/35 145/33/134 33/33/33
f 51/51/51 155/53/135 154/51/136
f 7/7/7 133/9/137 132/7/138
f 27/27/27 141/25/139 25/25/25
f 45/45/45 150/43/140 43/43/43
f 63/63/65 159/61/141 61/61/61
f 19/19/19 137/17/67 17/17/17
f 35/35/35 147/37/142 146/35/143
f 53/53/53 156/55/144 155/53/135
f 11/11/11 133/9/137 9/9/9
f 29/29/29 142/27/145 27/27/27
f 47/47/47 151/45/146 45/45/45
f 3/2/2 129/3/147 1/3/3
f 63/63/65 129/65/147 160/63/148
f 19/19/19 139/21/149 138/19/150
f 37/37/37 148/39/151 147/37/142
f 55/55/55 157/57/152 156/55/144
f 13/13/13 134/11/153 11/11/11
f 31/31/31 143/29/154 29/29/29
f 47/47/47 153/49/155 152/47/156
f 3/2/2 131/5/157 130/2/158
f 21/21/21 140/23/159 139/21/149
f 39/39/39 149/41/160 148/39/151
f 59/59/59 157/57/152 57/57/57
f 15/15/15 135/13/161 13/13/13
f 31/31/31 145/33/134 144/31/162
f 51/51/51 153/49/155 49/49/49
f 5/5/5 132/7/138 131/5/157
f 23/23/23 141/25/139 140/23/159
f 43/43/43 149/41/160 41/41/41
f 61/61/61 158/59/163 59/59/59
f 142/27/164 207/29/165 206/27/164
f 130/2/166 193/3/167 129/3/167
f 157/57/168 220/55/132 156/55/132
f 144/31/169 207/29/165 143/29/165
f 131/5/170 194/2/166 130/2/166
f 158/59/171 221/57/168 157/57/168
f 145/33/172 208/31/169 144/31/169
f 132/7/173 195/5/170 131/5/170
f 158/59/171 223/61/174 222/59/171
f 146/35/175 209/33/172 145/33/172
f 133/9/176 196/7/173 132/7/173
f 160/63/177 223/61/174 159/61/174
f 147/37/178 210/35/175 146/35/175
f 134/11/179 197/9/176 133/9/176
f 129/65/167 224/63/177 160/63/177
f 148/39/180 211/37/178 147/37/178
f 134/11/179 199/13/181 198/11/179
f 149/41/182 212/39/180 148/39/180
f 136/15/183 199/13/181 135/13/181
f 150/43/184 213/41/182 149/41/182
f 137/17/185 200/15/183 136/15/183
f 150/43/184 215/45/186 214/43/184
f 138/19/187 201/17/185 137/17/185
f 152/47/188 215/45/186 151/45/186
f 139/21/189 202/19/187 138/19/187
f 153/49/190 216/47/188 152/47/188
f 140/23/191 203/21/189 139/21/189
f 154/51/192 217/49/190 153/49/190
f 141/25/193 204/23/191 140/23/191
f 155/53/133 218/51/192 154/51/192
f 142/27/164 205/25/193 141/25/193
f 161/70/194 194/71/194 162/72/194
f 162/72/194 195/73/194 163/74/194
f 164/75/194 195/73/194 196/76/194
f 164/75/194 197/77/194 165/78/194
f 166/79/194 197/77/194 198/80/194
f 166/79/194 199/81/194 167/82/194
f 168/83/194 199/81/194 200/84/194
f 168/83/194 201/85/194 169/86/194
f 169/86/194 202/87/194 170/88/194
f 170/88/194 203/89/194 171/90/194
f 172/91/194 203/89/194 204/92/194
f 172/91/194 205/93/194 173/94/194
f 174/95/194 205/93/194 206/96/194
f 174/95/194 207/97/194 175/98/194
f 176/99/194 207/97/194 208/100/194
f 176/99/194 209/101/194 177/102/194
f 177/102/194 210/103/194 178/104/194
f 178/104/194 211/105/194 179/106/194
f 180/107/194 211/105/194 212/108/194
f 180/107/194 213/109/194 181/110/194
f 182/111/194 213/109/194 214/112/194
f 182/111/194 215/113/194 183/114/194
f 183/114/194 216/115/194 184/116/194
f 184/116/194 217/117/194 185/118/194
f 185/118/194 218/119/194 186/120/194
f 186/120/194 219/121/194 187/122/194
f 187/122/194 220/123/194 188/124/194
f 188/124/194 221/125/194 189/126/194
f 190/127/194 221/125/194 222/128/194
f 190/127/194 223/129/194 191/130/194
f 192/131/194 223/129/194 224/132/194
f 192/131/194 193/133/194 161/70/194
f 2/1/1 4/4/4 3/2/2
f 4/4/4 6/6/6 5/5/5
f 6/6/6 8/8/8 7/7/7
f 8/8/8 10/10/10 9/9/9
f 10/10/10 12/12/12 11/11/11
f 12/12/12 14/14/14 13/13/13
f 14/14/14 16/16/16 15/15/15
f 16/16/16 18/18/18 17/17/17
f 18/18/18 20/20/20 19/19/19
f 20/20/20 22/22/22 21/21/21
f 22/22/22 24/24/24 23/23/23
f 24/24/24 26/26/26 25/25/25
f 26/26/26 28/28/28 27/27/27
f 28/28/28 30/30/30 29/29/29
f 30/30/30 32/32/32 31/31/31
f 32/32/32 34/34/34 33/33/33
f 34/34/34 36/36/36 35/35/35
f 36/36/36 38/38/38 37/37/37
f 38/38/38 40/40/40 39/39/39
f 40/40/40 42/42/42 41/41/41
f 42/42/42 44/44/44 43/43/43
f 44/44/44 46/46/46 45/45/45
f 46/46/46 48/48/48 47/47/47
f 48/48/48 50/50/50 49/49/49
f 50/50/50 52/52/52 51/51/51
f 52/52/52 54/54/54 53/53/53
f 54/54/54 56/56/56 55/55/55
f 56/56/56 58/58/58 57/57/57
f 58/58/58 60/60/60 59/59/59
f 60/60/60 62/62/64 61/61/61
f 60/60/62 94/60/62 95/62/63
f 62/62/64 64/64/66 63/63/65
f 64/64/66 2/66/1 1/65/3
f 15/15/15 17/17/17 137/17/67
f 86/44/69 85/42/70 117/42/70
f 18/18/71 16/16/72 72/16/72
f 34/34/73 81/34/73 82/36/74
f 54/54/75 52/52/76 90/52/76
f 8/8/77 68/8/77 69/10/78
f 26/26/79 77/26/79 78/28/80
f 44/44/81 86/44/81 87/46/82
f 64/64/83 62/62/63 95/62/63
f 18/18/71 73/18/71 74/20/84
f 36/36/74 82/36/74 83/38/85
f 56/56/86 54/54/75 91/54/75
f 10/10/78 69/10/78 70/12/87
f 28/28/80 78/28/80 79/30/88
f 46/46/82 87/46/82 88/48/89
f 2/1/90 65/1/90 66/4/91
f 2/66/90 64/64/83 96/64/83
f 22/22/92 20/20/84 74/20/84
f 40/40/93 38/38/85 83/38/85
f 56/56/86 92/56/86 93/58/94
f 12/12/87 70/12/87 71/14/95
f 30/30/88 79/30/88 80/32/96
f 50/50/97 48/48/89 88/48/89
f 6/6/98 4/4/91 66/4/91
f 24/24/99 22/22/92 75/22/92
f 42/42/100 40/40/93 84/40/93
f 58/58/94 93/58/94 94/60/62
f 14/14/95 71/14/95 72/16/72
f 34/34/73 32/32/96 80/32/96
f 50/50/97 89/50/97 90/52/76
f 8/8/77 6/6/98 67/6/98
f 24/24/99 76/24/99 77/26/79
f 42/42/100 85/42/100 86/44/81
f 99/67/101 98/134/101 127/135/101
f 98/134/101 97/136/101 127/135/101
f 97/136/101 128/137/101 127/135/101
f 127/135/101 126/138/101 125/139/101
f 125/139/101 124/140/101 123/68/101
f 123/68/101 122/141/101 121/142/101
f 121/142/101 120/143/101 123/68/101
f 120/143/101 119/144/101 123/68/101
f 119/144/101 118/145/101 117/146/101
f 117/146/101 116/147/101 115/69/101
f 115/69/101 114/148/101 113/149/101
f 113/149/101 112/150/101 115/69/101
f 112/150/101 111/151/101 115/69/101
f 111/151/101 110/152/101 109/153/101
f 109/153/101 108/154/101 107/155/101
f 107/155/101 106/156/101 103/157/101
f 106/156/101 105/158/101 103/157/101
f 105/158/101 104/159/101 103/157/101
f 103/157/101 102/160/101 101/161/101
f 101/161/101 100/162/101 99/67/101
f 127/135/101 125/139/101 123/68/101
f 119/144/101 117/146/101 115/69/101
f 111/151/101 109/153/101 107/155/101
f 103/157/101 101/161/101 99/67/101
f 99/67/101 127/135/101 123/68/101
f 123/68/101 119/144/101 115/69/101
f 115/69/101 111/151/101 107/155/101
f 107/155/101 103/157/101 115/69/101
f 103/157/101 99/67/101 115/69/101
f 72/16/102 104/16/102 105/18/103
f 86/44/69 118/44/69 119/46/104
f 73/18/103 105/18/103 106/20/105
f 87/46/104 119/46/104 120/48/106
f 74/20/105 106/20/105 107/22/107
f 89/50/108 88/48/106 120/48/106
f 76/24/109 75/22/107 107/22/107
f 89/50/108 121/50/108 122/52/110
f 76/24/109 108/24/109 109/26/111
f 90/52/110 122/52/110 123/54/112
f 78/28/113 77/26/111 109/26/111
f 92/56/114 91/54/112 123/54/112
f 78/28/113 110/28/113 111/30/115
f 65/1/116 97/1/116 98/4/117
f 92/56/114 124/56/114 125/58/118
f 79/30/115 111/30/115 112/32/119
f 66/4/117 98/4/117 99/6/120
f 93/58/118 125/58/118 126/60/121
f 80/32/119 112/32/119 113/34/122
f 68/8/123 67/6/120 99/6/120
f 94/60/121 126/60/121 127/62/124
f 81/34/122 113/34/122 114/36/125
f 68/8/123 100/8/123 101/10/126
f 95/62/124 127/62/124 128/64/127
f 82/36/125 114/36/125 115/38/128
f 70/12/129 69/10/126 101/10/126
f 65/66/116 96/64/127 128/64/127
f 83/38/128 115/38/128 116/40/130
f 70/12/129 102/12/129 103/14/131
f 84/40/130 116/40/130 117/42/70
f 71/14/131 103/14/131 104/16/102
f 156/55/132 220/55/132 219/53/133
f 35/35/35 146/35/143 145/33/134
f 51/51/51 53/53/53 155/53/135
f 7/7/7 9/9/9 133/9/137
f 27/27/27 142/27/145 141/25/139
f 45/45/45 151/45/146 150/43/140
f 63/63/65 160/63/148 159/61/141
f 19/19/19 138/19/150 137/17/67
f 35/35/35 37/37/37 147/37/142
f 53/53/53 55/55/55 156/55/144
f 11/11/11 134/11/153 133/9/137
f 29/29/29 143/29/154 142/27/145
f 47/47/47 152/47/156 151/45/146
f 3/2/2 130/2/158 129/3/147
f 63/63/65 1/65/3 129/65/147
f 19/19/19 21/21/21 139/21/149
f 37/37/37 39/39/39 148/39/151
f 55/55/55 57/57/57 157/57/152
f 13/13/13 135/13/161 134/11/153
f 31/31/31 144/31/162 143/29/154
f 47/47/47 49/49/49 153/49/155
f 3/2/2 5/5/5 131/5/157
f 21/21/21 23/23/23 140/23/159
f 39/39/39 41/41/41 149/41/160
f 59/59/59 158/59/163 157/57/152
f 15/15/15 136/15/68 135/13/161
f 31/31/31 33/33/33 145/33/134
f 51/51/51 154/51/136 153/49/155
f 5/5/5 7/7/7 132/7/138
f 23/23/23 25/25/25 141/25/139
f 43/43/43 150/43/140 149/41/160
f 61/61/61 159/61/141 158/59/163
f 142/27/164 143/29/165 207/29/165
f 130/2/166 194/2/166 193/3/167
f 157/57/168 221/57/168 220/55/132
f 144/31/169 208/31/169 207/29/165
f 131/5/170 195/5/170 194/2/166
f 158/59/171 222/59/171 221/57/168
f 145/33/172 209/33/172 208/31/169
f 132/7/173 196/7/173 195/5/170
f 158/59/171 159/61/174 223/61/174
f 146/35/175 210/35/175 209/33/172
f 133/9/176 197/9/176 196/7/173
f 160/63/177 224/63/177 223/61/174
f 147/37/178 211/37/178 210/35/175
f 134/11/179 198/11/179 197/9/176
f 129/65/167 193/65/167 224/63/177
f 148/39/180 212/39/180 211/37/178
f 134/11/179 135/13/181 199/13/181
f 149/41/182 213/41/182 212/39/180
f 136/15/183 200/15/183 199/13/181
f 150/43/184 214/43/184 213/41/182
f 137/17/185 201/17/185 200/15/183
f 150/43/184 151/45/186 215/45/186
f 138/19/187 202/19/187 201/17/185
f 152/47/188 216/47/188 215/45/186
f 139/21/189 203/21/189 202/19/187
f 153/49/190 217/49/190 216/47/188
f 140/23/191 204/23/191 203/21/189
f 154/51/192 218/51/192 217/49/190
f 141/25/193 205/25/193 204/23/191
f 155/53/133 219/53/133 218/51/192
f 142/27/164 206/27/164 205/25/193
f 161/70/194 193/133/194 194/71/194
f 162/72/194 194/71/194 195/73/194
f 164/75/194 163/74/194 195/73/194
f 164/75/194 196/76/194 197/77/194
f 166/79/194 165/78/194 197/77/194
f 166/79/194 198/80/194 199/81/194
f 168/83/194 167/82/194 199/81/194
f 168/83/194 200/84/194 201/85/194
f 169/86/194 201/85/194 202/87/194
f 170/88/194 202/87/194 203/89/194
f 172/91/194 171/90/194 203/89/194
f 172/91/194 204/92/194 205/93/194
f 174/95/194 173/94/194 205/93/194
f 174/95/194 206/96/194 207/97/194
f 176/99/194 175/98/194 207/97/194
f 176/99/194 208/100/194 209/101/194
f 177/102/194 209/101/194 210/103/194
f 178/104/194 210/103/194 211/105/194
f 180/107/194 179/106/194 211/105/194
f 180/107/194 212/108/194 213/109/194
f 182/111/194 181/110/194 213/109/194
f 182/111/194 214/112/194 215/113/194
f 183/114/194 215/113/194 216/115/194
f 184/116/194 216/115/194 217/117/194
f 185/118/194 217/117/194 218/119/194
f 186/120/194 218/119/194 219/121/194
f 187/122/194 219/121/194 220/123/194
f 188/124/194 220/123/194 221/125/194
f 190/127/194 189/126/194 221/125/194
f 190/127/194 222/128/194 223/129/194
f 192/131/194 191/130/194 223/129/194
f 192/131/194 224/132/194 193/133/194
usemtl マテリアル.001
f 250/120/195 281/118/196 249/118/196
f 280/116/194 284/124/194 288/131/194
f 237/94/197 268/91/198 236/91/198
f 251/122/199 282/120/195 250/120/195
f 238/95/200 269/94/197 237/94/197
f 252/124/201 283/122/199 251/122/199
f 239/98/202 270/95/200 238/95/200
f 226/72/203 257/70/204 225/70/204
f 253/126/205 284/124/201 252/124/201
f 240/99/206 271/98/202 239/98/202
f 227/74/207 258/72/203 226/72/203
f 254/127/208 285/126/205 253/126/205
f 241/102/209 272/99/206 240/99/206
f 228/75/210 259/74/207 227/74/207
f 255/130/211 286/127/208 254/127/208
f 242/104/212 273/102/209 241/102/209
f 229/78/213 260/75/210 228/75/210
f 256/131/214 287/130/211 255/130/211
f 243/106/215 274/104/212 242/104/212
f 230/79/216 261/78/213 229/78/213
f 225/70/204 288/131/214 256/131/214
f 244/107/217 275/106/215 243/106/215
f 231/82/218 262/79/216 230/79/216
f 245/110/219 276/107/217 244/107/217
f 232/83/220 263/82/218 231/82/218
f 246/111/221 277/110/219 245/110/219
f 233/86/222 264/83/220 232/83/220
f 247/114/223 278/111/221 246/111/221
f 234/88/224 265/86/222 233/86/222
f 248/116/225 279/114/223 247/114/223
f 235/90/226 266/88/224 234/88/224
f 249/118/196 280/116/225 248/116/225
f 236/91/198 267/90/226 235/90/226
f 250/120/195 282/120/195 281/118/196
f 288/131/194 257/70/194 258/72/194
f 258/72/194 259/74/194 288/131/194
f 259/74/194 260/75/194 288/131/194
f 260/75/194 261/78/194 264/83/194
f 261/78/194 262/79/194 264/83/194
f 262/79/194 263/82/194 264/83/194
f 264/83/194 265/86/194 266/88/194
f 266/88/194 267/90/194 264/83/194
f 267/90/194 268/91/194 264/83/194
f 268/91/194 269/94/194 272/99/194
f 269/94/194 270/95/194 272/99/194
f 270/95/194 271/98/194 272/99/194
f 272/99/194 273/102/194 274/104/194
f 274/104/194 275/106/194 272/99/194
f 275/106/194 276/107/194 272/99/194
f 276/107/194 277/110/194 278/111/194
f 278/111/194 279/114/194 280/116/194
f 280/116/194 281/118/194 282/120/194
f 282/120/194 283/122/194 284/124/194
f 284/124/194 285/126/194 286/127/194
f 286/127/194 287/130/194 284/124/194
f 287/130/194 288/131/194 284/124/194
f 276/107/194 278/111/194 280/116/194
f 280/116/194 282/120/194 284/124/194
f 288/131/194 260/75/194 264/83/194
f 264/83/194 268/91/194 288/131/194
f 268/91/194 272/99/194 288/131/194
f 272/99/194 276/107/194 288/131/194
f 276/107/194 280/116/194 288/131/194
f 237/94/197 269/94/197 268/91/198
f 251/122/199 283/122/199 282/120/195
f 238/95/200 270/95/200 269/94/197
f 252/124/201 284/124/201 283/122/199
f 239/98/202 271/98/202 270/95/200
f 226/72/203 258/72/203 257/70/204
f 253/126/205 285/126/205 284/124/201
f 240/99/206 272/99/206 271/98/202
f 227/74/207 259/74/207 258/72/203
f 254/127/208 286/127/208 285/126/205
f 241/102/209 273/102/209 272/99/206
f 228/75/210 260/75/210 259/74/207
f 255/130/211 287/130/211 286/127/208
f 242/104/212 274/104/212 273/102/209
f 229/78/213 261/78/213 260/75/210
f 256/131/214 288/131/214 287/130/211
f 243/106/215 275/106/215 274/104/212
f 230/79/216 262/79/216 261/78/213
f 225/70/204 257/70/204 288/131/214
f 244/107/217 276/107/217 275/106/215
f 231/82/218 263/82/218 262/79/216
f 245/110/219 277/110/219 276/107/217
f 232/83/220 264/83/220 263/82/218
f 246/111/221 278/111/221 277/110/219
f 233/86/222 265/86/222 264/83/220
f 247/114/223 279/114/223 278/111/221
f 234/88/224 266/88/224 265/86/222
f 248/116/225 280/116/225 279/114/223
f 235/90/226 267/90/226 266/88/224
f 249/118/196 281/118/196 280/116/225
f 236/91/198 268/91/198 267/90/226
