# Blender 5.1.2
# www.blender.org
mtllib clay.mtl
o 立方体
v 0.000000 0.120943 -1.000000
v -0.299282 0.120943 -1.000000
v -0.598564 0.120943 -1.000000
v -0.598564 0.018790 -0.897847
v -0.299282 0.018790 -0.897847
v -0.000000 0.018790 -0.897847
v 0.299282 0.018790 -0.897847
v 0.598564 0.018790 -0.897847
v -0.897847 0.018790 0.897847
v -0.897847 0.120943 1.000000
v -1.000000 0.120943 0.897847
v -0.897847 1.916637 1.000000
v -0.897847 2.018790 0.897847
v -1.000000 1.916637 0.897847
v -0.897847 0.018790 -0.897847
v -1.000000 0.120943 -0.897847
v -0.897847 0.120943 -1.000000
v -0.897847 2.018790 -0.897847
v -0.897847 1.916637 -1.000000
v -1.000000 1.916637 -0.897847
v 0.897847 0.018790 0.897847
v 1.000000 0.120943 0.897847
v 0.897847 0.120943 1.000000
v 0.897847 2.018790 0.897847
v 0.897847 1.916637 1.000000
v 1.000000 1.916637 0.897847
v 0.897847 0.018790 -0.897847
v 0.897847 0.120943 -1.000000
v 1.000000 0.120943 -0.897847
v 0.897847 2.018790 -0.897847
v 1.000000 1.916637 -0.897847
v 0.897847 1.916637 -1.000000
v 0.299282 0.120943 -1.000000
v 0.598564 0.120943 -1.000000
v -0.598564 2.018790 -0.897847
v -0.299282 2.018790 -0.897847
v 0.000000 2.018790 -0.897847
v 0.299282 2.018790 -0.897847
v 0.598564 2.018790 -0.897847
v 0.598564 1.916637 -1.000000
v 0.299282 1.916637 -1.000000
v -0.000000 1.916637 -1.000000
v -0.299282 1.916637 -1.000000
v -0.598564 1.916637 -1.000000
v -0.598564 0.018790 0.897847
v -0.299282 0.018790 0.897847
v 0.000000 0.018790 0.897847
v 0.299282 0.018790 0.897847
v 0.598564 0.018790 0.897847
v 0.598564 0.120943 1.000000
v 0.299282 0.120943 1.000000
v -0.000000 0.120943 1.000000
v -0.299282 0.120943 1.000000
v -0.598564 0.120943 1.000000
v 0.598564 2.018790 0.897847
v 0.299282 2.018790 0.897847
v -0.000000 2.018790 0.897847
v -0.299282 2.018790 0.897847
v -0.598564 2.018790 0.897847
v -0.598564 1.916637 1.000000
v -0.299282 1.916637 1.000000
v 0.000000 1.916637 1.000000
v 0.299282 1.916637 1.000000
v 0.598564 1.916637 1.000000
v -0.897847 0.018790 -0.598564
v -0.897847 0.018790 -0.299282
v -0.897847 0.018790 0.000000
v -0.897847 0.018790 0.299282
v -0.897847 0.018790 0.598564
v -1.000000 0.120943 0.598564
v -1.000000 0.120943 0.299282
v -1.000000 0.120943 -0.000000
v -1.000000 0.120943 -0.299282
v -1.000000 0.120943 -0.598564
v -0.897847 2.018790 0.598564
v -0.897847 2.018790 0.299282
v -0.897847 2.018790 -0.000000
v -0.897847 2.018790 -0.299282
v -0.897847 2.018790 -0.598564
v -1.000000 1.916637 -0.598564
v -1.000000 1.916637 -0.299282
v -1.000000 1.916637 0.000000
v -1.000000 1.916637 0.299282
v -1.000000 1.916637 0.598564
v 0.897847 0.018790 0.598564
v 0.897847 0.018790 0.299282
v 0.897847 0.018790 -0.000000
v 0.897847 0.018790 -0.299282
v 0.897847 0.018790 -0.598564
v 1.000000 0.120943 -0.598564
v 1.000000 0.120943 -0.299282
v 1.000000 0.120943 0.000000
v 1.000000 0.120943 0.299282
v 1.000000 0.120943 0.598564
v 0.897847 2.018790 -0.598564
v 0.897847 2.018790 -0.299282
v 0.897847 2.018790 0.000000
v 0.897847 2.018790 0.299282
v 0.897847 2.018790 0.598564
v 1.000000 1.916637 0.598564
v 1.000000 1.916637 0.299282
v 1.000000 1.916637 -0.000000
v 1.000000 1.916637 -0.299282
v 1.000000 1.916637 -0.598564
v 0.598564 2.064596 -0.598564
v 0.598564 2.064596 -0.299282
v 0.598564 2.064596 0.000000
v 0.598564 2.064596 0.299282
v 0.598564 2.064596 0.598564
v 0.299282 2.064596 -0.598564
v 0.299282 2.089931 -0.299282
v 0.299282 2.089931 0.000000
v 0.299282 2.089931 0.299282
v 0.299282 2.064596 0.598564
v 0.000000 2.064596 -0.598564
v 0.000000 2.089931 -0.299282
v -0.000000 2.089931 0.000000
v -0.000000 2.089931 0.299282
v -0.000000 2.064596 0.598564
v -0.299282 2.064596 -0.598564
v -0.299282 2.089931 -0.299282
v -0.299282 2.089931 0.000000
v -0.299282 2.089931 0.299282
v -0.299282 2.064596 0.598564
v -0.598564 2.064596 -0.598564
v -0.598564 2.064596 -0.299282
v -0.598564 2.064596 0.000000
v -0.598564 2.064596 0.299282
v -0.598564 2.064596 0.598564
v -0.598564 -0.027016 -0.598564
v -0.598564 -0.027016 -0.299282
v -0.598564 -0.027016 0.000000
v -0.598564 -0.027016 0.299282
v -0.598564 -0.027016 0.598564
v -0.299282 -0.027016 -0.598564
v -0.299282 -0.052350 -0.299282
v -0.299282 -0.052350 0.000000
v -0.299282 -0.052350 0.299282
v -0.299282 -0.027016 0.598564
v -0.000000 -0.027016 -0.598564
v -0.000000 -0.052350 -0.299282
v 0.000000 -0.052350 0.000000
v 0.000000 -0.052350 0.299282
v 0.000000 -0.027016 0.598564
v 0.299282 -0.027016 -0.598564
v 0.299282 -0.052350 -0.299282
v 0.299282 -0.052350 0.000000
v 0.299282 -0.052350 0.299282
v 0.299282 -0.027016 0.598564
v 0.598564 -0.027016 -0.598564
v 0.598564 -0.027016 -0.299282
v 0.598564 -0.027016 0.000000
v 0.598564 -0.027016 0.299282
v 0.598564 -0.027016 0.598564
v -0.897847 0.420226 1.000000
v -0.897847 0.719508 1.000000
v -0.897847 1.018790 1.000000
v -0.897847 1.318072 1.000000
v -0.897847 1.617354 1.000000
v -1.000000 1.617354 0.897847
v -1.000000 1.318072 0.897847
v -1.000000 1.018790 0.897847
v -1.000000 0.719508 0.897847
v -1.000000 0.420226 0.897847
v -0.897847 1.617354 -1.000000
v -0.897847 1.318072 -1.000000
v -0.897847 1.018790 -1.000000
v -0.897847 0.719508 -1.000000
v -0.897847 0.420226 -1.000000
v -1.000000 0.420226 -0.897847
v -1.000000 0.719508 -0.897847
v -1.000000 1.018790 -0.897847
v -1.000000 1.318072 -0.897847
v -1.000000 1.617354 -0.897847
v 1.000000 1.617354 -0.897847
v 1.000000 1.318072 -0.897847
v 1.000000 1.018790 -0.897847
v 1.000000 0.719508 -0.897847
v 1.000000 0.420226 -0.897847
v 0.897847 0.420226 -1.000000
v 0.897847 0.719508 -1.000000
v 0.897847 1.018790 -1.000000
v 0.897847 1.318072 -1.000000
v 0.897847 1.617354 -1.000000
v 0.897847 1.617354 1.000000
v 0.897847 1.318072 1.000000
v 0.897847 1.018790 1.000000
v 0.897847 0.719508 1.000000
v 0.897847 0.420226 1.000000
v 1.000000 0.420226 0.897847
v 1.000000 0.719508 0.897847
v 1.000000 1.018790 0.897847
v 1.000000 1.318072 0.897847
v 1.000000 1.617354 0.897847
v -0.598564 1.617354 -1.059206
v -0.598564 1.318072 -1.059206
v -0.598564 1.018790 -1.059206
v -0.598564 0.719508 -1.059206
v -0.598564 0.420226 -1.059206
v -0.299282 1.617354 -1.059206
v -0.299282 1.318072 -1.082826
v -0.299282 1.018790 -1.082826
v -0.299282 0.719508 -1.082826
v -0.299282 0.420226 -1.059206
v -0.000000 1.617354 -1.059206
v -0.000000 1.318072 -1.082826
v 0.000000 1.018790 -1.082826
v 0.000000 0.719508 -1.082826
v 0.000000 0.420226 -1.059206
v 0.299282 1.617354 -1.059206
v 0.299282 1.318072 -1.082826
v 0.299282 1.018790 -1.082826
v 0.299282 0.719508 -1.082826
v 0.299282 0.420226 -1.059206
v 0.598564 1.617354 -1.059206
v 0.598564 1.318072 -1.059206
v 0.598564 1.018790 -1.059206
v 0.598564 0.719508 -1.059206
v 0.598564 0.420226 -1.059206
v 0.598564 1.617354 1.059206
v 0.598564 1.318072 1.059206
v 0.598564 1.018790 1.059206
v 0.598564 0.719508 1.059206
v 0.598564 0.420226 1.059206
v 0.299282 1.617354 1.059206
v 0.299282 1.318072 1.082826
v 0.299282 1.018790 1.082826
v 0.299282 0.719508 1.082826
v 0.299282 0.420226 1.059206
v 0.000000 1.617354 1.059206
v 0.000000 1.318072 1.082826
v -0.000000 1.018790 1.082826
v -0.000000 0.719508 1.082826
v -0.000000 0.420226 1.059206
v -0.299282 1.617354 1.059206
v -0.299282 1.318072 1.082826
v -0.299282 1.018790 1.082826
v -0.299282 0.719508 1.082826
v -0.299282 0.420226 1.059206
v -0.598564 1.617354 1.059206
v -0.598564 1.318072 1.059206
v -0.598564 1.018790 1.059206
v -0.598564 0.719508 1.059206
v -0.598564 0.420226 1.059206
v 1.062260 1.617354 -0.598564
v 1.062260 1.318072 -0.598564
v 1.062260 1.018790 -0.598564
v 1.062260 0.719508 -0.598564
v 1.062260 0.420226 -0.598564
v 1.062260 1.617354 -0.299282
v 1.088840 1.318072 -0.299282
v 1.088840 1.018790 -0.299282
v 1.088840 0.719508 -0.299282
v 1.062260 0.420226 -0.299282
v 1.062260 1.617354 -0.000000
v 1.088840 1.318072 -0.000000
v 1.088840 1.018790 0.000000
v 1.088840 0.719508 0.000000
v 1.062260 0.420226 0.000000
v 1.062260 1.617354 0.299282
v 1.088840 1.318072 0.299282
v 1.088840 1.018790 0.299282
v 1.088840 0.719508 0.299282
v 1.062260 0.420226 0.299282
v 1.062260 1.617354 0.598564
v 1.062260 1.318072 0.598564
v 1.062260 1.018790 0.598564
v 1.062260 0.719508 0.598564
v 1.062260 0.420226 0.598564
v -1.062260 1.617354 0.598564
v -1.062260 1.318072 0.598564
v -1.062260 1.018790 0.598564
v -1.062260 0.719508 0.598564
v -1.062260 0.420226 0.598564
v -1.062260 1.617354 0.299282
v -1.088840 1.318072 0.299282
v -1.088840 1.018790 0.299282
v -1.088840 0.719508 0.299282
v -1.062260 0.420226 0.299282
v -1.062260 1.617354 0.000000
v -1.088840 1.318072 0.000000
v -1.088840 1.018790 -0.000000
v -1.088840 0.719508 -0.000000
v -1.062260 0.420226 -0.000000
v -1.062260 1.617354 -0.299282
v -1.088840 1.318072 -0.299282
v -1.088840 1.018790 -0.299282
v -1.088840 0.719508 -0.299282
v -1.062260 0.420226 -0.299282
v -1.062260 1.617354 -0.598564
v -1.062260 1.318072 -0.598564
v -1.062260 1.018790 -0.598564
v -1.062260 0.719508 -0.598564
v -1.062260 0.420226 -0.598564
vn -0.0000 -0.4709 -0.8822
vn -0.0257 -0.4495 -0.8929
vn -0.0201 -0.9003 -0.4348
vn -0.0000 -0.8922 -0.4517
vn 0.0201 -0.9003 -0.4348
vn -0.3416 -0.8756 0.3416
vn -0.3416 -0.3416 0.8756
vn -0.8756 -0.3416 0.3416
vn -0.3416 0.3416 0.8756
vn -0.3416 0.8756 0.3416
vn -0.8756 0.3416 0.3416
vn -0.3416 -0.8756 -0.3416
vn -0.8756 -0.3416 -0.3416
vn -0.3416 -0.3416 -0.8756
vn -0.3416 0.8756 -0.3416
vn -0.3416 0.3416 -0.8756
vn -0.8756 0.3416 -0.3416
vn 0.3416 -0.8756 0.3416
vn 0.8756 -0.3416 0.3416
vn 0.3416 -0.3416 0.8756
vn 0.3416 0.8756 0.3416
vn 0.3416 0.3416 0.8756
vn 0.8756 0.3416 0.3416
vn 0.3416 -0.8756 -0.3416
vn 0.3416 -0.3416 -0.8756
vn 0.8756 -0.3416 -0.3416
vn 0.3416 0.8756 -0.3416
vn 0.8756 0.3416 -0.3416
vn 0.3416 0.3416 -0.8756
vn 0.0257 -0.4495 -0.8929
vn -0.0201 0.9003 -0.4348
vn -0.0000 0.8922 -0.4517
vn 0.0201 0.9003 -0.4348
vn 0.0257 0.4495 -0.8929
vn -0.0000 0.4709 -0.8822
vn -0.0257 0.4495 -0.8929
vn -0.0201 -0.9003 0.4348
vn -0.0000 -0.8922 0.4517
vn 0.0201 -0.9003 0.4348
vn 0.0257 -0.4495 0.8929
vn -0.0000 -0.4709 0.8822
vn -0.0257 -0.4495 0.8929
vn 0.0201 0.9003 0.4348
vn -0.0000 0.8922 0.4517
vn -0.0201 0.9003 0.4348
vn -0.0257 0.4495 0.8929
vn -0.0000 0.4709 0.8822
vn 0.0257 0.4495 0.8929
vn -0.4348 -0.9003 -0.0201
vn -0.4517 -0.8922 -0.0000
vn -0.4348 -0.9003 0.0201
vn -0.8912 -0.4528 0.0270
vn -0.8799 -0.4752 -0.0000
vn -0.8799 -0.4753 -0.0000
vn -0.8912 -0.4528 -0.0270
vn -0.4348 0.9003 0.0201
vn -0.4517 0.8922 -0.0000
vn -0.4348 0.9003 -0.0201
vn -0.8912 0.4528 -0.0270
vn -0.8799 0.4752 -0.0000
vn -0.8912 0.4528 0.0270
vn 0.4348 -0.9003 0.0201
vn 0.4517 -0.8922 -0.0000
vn 0.4348 -0.9003 -0.0201
vn 0.8912 -0.4528 -0.0270
vn 0.8799 -0.4752 -0.0000
vn 0.8799 -0.4753 -0.0000
vn 0.8912 -0.4528 0.0270
vn 0.4348 0.9003 -0.0201
vn 0.4517 0.8922 -0.0000
vn 0.4348 0.9003 0.0201
vn 0.8912 0.4528 0.0270
vn 0.8799 0.4752 -0.0000
vn 0.8912 0.4528 -0.0270
vn 0.0754 0.9943 -0.0754
vn 0.1074 0.9942 -0.0106
vn 0.1179 0.9930 -0.0000
vn 0.1074 0.9942 0.0106
vn 0.0754 0.9943 0.0754
vn 0.0106 0.9942 -0.1074
vn 0.0421 0.9982 -0.0421
vn 0.0422 0.9991 -0.0000
vn 0.0421 0.9982 0.0421
vn 0.0106 0.9942 0.1074
vn -0.0000 0.9930 -0.1179
vn -0.0000 0.9991 -0.0422
vn -0.0000 1.0000 -0.0000
vn -0.0000 0.9991 0.0422
vn -0.0000 0.9930 0.1179
vn -0.0106 0.9942 -0.1074
vn -0.0421 0.9982 -0.0421
vn -0.0422 0.9991 -0.0000
vn -0.0421 0.9982 0.0421
vn -0.0106 0.9942 0.1074
vn -0.0754 0.9943 -0.0754
vn -0.1074 0.9942 -0.0106
vn -0.1179 0.9930 -0.0000
vn -0.1074 0.9942 0.0106
vn -0.0754 0.9943 0.0754
vn -0.0754 -0.9943 -0.0754
vn -0.1074 -0.9942 -0.0106
vn -0.1179 -0.9930 -0.0000
vn -0.1074 -0.9942 0.0106
vn -0.0754 -0.9943 0.0754
vn -0.0106 -0.9942 -0.1074
vn -0.0421 -0.9982 -0.0421
vn -0.0422 -0.9991 -0.0000
vn -0.0421 -0.9982 0.0421
vn -0.0106 -0.9942 0.1074
vn -0.0000 -0.9930 -0.1179
vn -0.0000 -0.9991 -0.0422
vn -0.0000 -1.0000 -0.0000
vn -0.0000 -0.9991 0.0422
vn -0.0000 -0.9930 0.1179
vn 0.0106 -0.9942 -0.1074
vn 0.0421 -0.9982 -0.0421
vn 0.0422 -0.9991 -0.0000
vn 0.0421 -0.9982 0.0421
vn 0.0106 -0.9942 0.1074
vn 0.0754 -0.9943 -0.0754
vn 0.1074 -0.9942 -0.0106
vn 0.1179 -0.9930 -0.0000
vn 0.1074 -0.9942 0.0106
vn 0.0754 -0.9943 0.0754
vn -0.4495 -0.0257 0.8929
vn -0.4709 -0.0000 0.8822
vn -0.4495 0.0257 0.8929
vn -0.8912 0.0270 0.4528
vn -0.8799 -0.0000 0.4752
vn -0.8912 -0.0270 0.4528
vn -0.4495 0.0257 -0.8929
vn -0.4709 -0.0000 -0.8822
vn -0.4495 -0.0257 -0.8929
vn -0.8912 -0.0270 -0.4528
vn -0.8799 -0.0000 -0.4752
vn -0.8912 0.0270 -0.4528
vn 0.8912 0.0270 -0.4528
vn 0.8799 -0.0000 -0.4752
vn 0.8912 -0.0270 -0.4528
vn 0.4495 -0.0257 -0.8929
vn 0.4709 -0.0000 -0.8822
vn 0.4495 0.0257 -0.8929
vn 0.4495 0.0257 0.8929
vn 0.4709 -0.0000 0.8822
vn 0.4495 -0.0257 0.8929
vn 0.8912 -0.0270 0.4528
vn 0.8799 -0.0000 0.4752
vn 0.8912 0.0270 0.4528
vn -0.0965 0.0965 -0.9906
vn -0.1269 0.0099 -0.9919
vn -0.1366 -0.0000 -0.9906
vn -0.1269 -0.0099 -0.9919
vn -0.0965 -0.0965 -0.9906
vn -0.0099 0.1269 -0.9919
vn -0.0393 0.0393 -0.9985
vn -0.0394 -0.0000 -0.9992
vn -0.0393 -0.0393 -0.9985
vn -0.0099 -0.1269 -0.9919
vn -0.0000 0.1366 -0.9906
vn -0.0000 0.0394 -0.9992
vn -0.0000 -0.0000 -1.0000
vn -0.0000 -0.0394 -0.9992
vn -0.0000 -0.1366 -0.9906
vn 0.0099 0.1269 -0.9919
vn 0.0393 0.0393 -0.9985
vn 0.0394 -0.0000 -0.9992
vn 0.0393 -0.0393 -0.9985
vn 0.0099 -0.1269 -0.9919
vn 0.0965 0.0965 -0.9906
vn 0.1269 0.0099 -0.9919
vn 0.1366 -0.0000 -0.9906
vn 0.1269 -0.0099 -0.9919
vn 0.0965 -0.0965 -0.9906
vn 0.0965 0.0965 0.9906
vn 0.1269 0.0099 0.9919
vn 0.1366 -0.0000 0.9906
vn 0.1269 -0.0099 0.9919
vn 0.0965 -0.0965 0.9906
vn 0.0099 0.1269 0.9919
vn 0.0393 0.0393 0.9985
vn 0.0394 -0.0000 0.9992
vn 0.0393 -0.0393 0.9985
vn 0.0099 -0.1269 0.9919
vn -0.0000 0.1366 0.9906
vn -0.0000 0.0394 0.9992
vn -0.0000 -0.0000 1.0000
vn -0.0000 -0.0394 0.9992
vn -0.0000 -0.1366 0.9906
vn -0.0099 0.1269 0.9919
vn -0.0393 0.0393 0.9985
vn -0.0394 -0.0000 0.9992
vn -0.0393 -0.0393 0.9985
vn -0.0099 -0.1269 0.9919
vn -0.0965 0.0965 0.9906
vn -0.1269 0.0099 0.9919
vn -0.1366 -0.0000 0.9906
vn -0.1269 -0.0099 0.9919
vn -0.0965 -0.0965 0.9906
vn 0.9897 0.1012 -0.1012
vn 0.9907 0.0111 -0.1354
vn 0.9892 -0.0000 -0.1463
vn 0.9907 -0.0111 -0.1354
vn 0.9897 -0.1012 -0.1012
vn 0.9907 0.1354 -0.0111
vn 0.9980 0.0442 -0.0442
vn 0.9990 -0.0000 -0.0443
vn 0.9980 -0.0442 -0.0442
vn 0.9907 -0.1354 -0.0111
vn 0.9892 0.1463 -0.0000
vn 0.9990 0.0443 -0.0000
vn 1.0000 -0.0000 -0.0000
vn 0.9990 -0.0443 -0.0000
vn 0.9892 -0.1463 -0.0000
vn 0.9907 0.1354 0.0111
vn 0.9980 0.0442 0.0442
vn 0.9990 -0.0000 0.0443
vn 0.9980 -0.0442 0.0442
vn 0.9907 -0.1354 0.0111
vn 0.9897 0.1012 0.1012
vn 0.9907 0.0111 0.1354
vn 0.9892 -0.0000 0.1463
vn 0.9907 -0.0111 0.1354
vn 0.9897 -0.1012 0.1012
vn -0.9897 0.1012 0.1012
vn -0.9907 0.0111 0.1354
vn -0.9892 -0.0000 0.1463
vn -0.9907 -0.0111 0.1354
vn -0.9897 -0.1012 0.1012
vn -0.9907 0.1354 0.0111
vn -0.9980 0.0442 0.0442
vn -0.9990 -0.0000 0.0443
vn -0.9980 -0.0442 0.0442
vn -0.9907 -0.1354 0.0111
vn -0.9892 0.1463 -0.0000
vn -0.9990 0.0443 -0.0000
vn -1.0000 -0.0000 -0.0000
vn -0.9990 -0.0443 -0.0000
vn -0.9892 -0.1463 -0.0000
vn -0.9907 0.1354 -0.0111
vn -0.9980 0.0442 -0.0442
vn -0.9990 -0.0000 -0.0443
vn -0.9980 -0.0442 -0.0442
vn -0.9907 -0.1354 -0.0111
vn -0.9897 0.1012 -0.1012
vn -0.9907 0.0111 -0.1354
vn -0.9892 -0.0000 -0.1463
vn -0.9907 -0.0111 -0.1354
vn -0.9897 -0.1012 -0.1012
vt 0.612231 0.335461
vt 0.573756 0.374202
vt 0.574111 0.336171
vt 0.574821 0.260109
vt 0.612231 0.297519
vt 0.574466 0.298140
vt 0.631385 0.708333
vt 0.669859 0.747872
vt 0.631385 0.750000
vt 0.612231 0.411346
vt 0.573047 0.450264
vt 0.573402 0.412233
vt 0.612231 0.373404
vt 0.137769 0.737231
vt 0.137769 0.750000
vt 0.125000 0.737231
vt 0.612231 0.000000
vt 0.625000 0.012769
vt 0.612231 0.012769
vt 0.137769 0.512769
vt 0.125000 0.512769
vt 0.137769 0.500000
vt 0.625000 0.245744
vt 0.612231 0.259577
vt 0.612231 0.237231
vt 0.362231 0.737231
vt 0.384577 0.737231
vt 0.375000 0.756385
vt 0.612231 0.762769
vt 0.612231 0.740423
vt 0.362231 0.512769
vt 0.375000 0.493615
vt 0.384577 0.512769
vt 0.631385 0.500000
vt 0.612231 0.509577
vt 0.612231 0.487231
vt 0.125000 0.699821
vt 0.137769 0.699821
vt 0.574821 0.012769
vt 0.574821 0.000000
vt 0.612231 0.199821
vt 0.625000 0.206915
vt 0.387769 0.262769
vt 0.425179 0.237231
vt 0.425179 0.262237
vt 0.177308 0.498936
vt 0.175179 0.512769
vt 0.612231 0.449288
vt 0.630320 0.457624
vt 0.414538 0.492551
vt 0.422519 0.512237
vt 0.384577 0.550179
vt 0.362231 0.550179
vt 0.612231 0.701949
vt 0.422519 0.737763
vt 0.414538 0.757449
vt 0.335462 0.755320
vt 0.324821 0.737231
vt 0.625000 0.987231
vt 0.612231 0.949821
vt 0.626064 0.947692
vt 0.362231 0.699821
vt 0.324821 0.699821
vt 0.574821 0.237231
vt 0.574820 0.199821
vt 0.574821 0.987231
vt 0.574466 0.949643
vt 0.862231 0.699821
vt 0.823756 0.739359
vt 0.823756 0.701239
vt 0.572692 0.488295
vt 0.574288 0.739891
vt 0.574288 0.701594
vt 0.708333 0.705496
vt 0.669859 0.706915
vt 0.746808 0.704077
vt 0.708333 0.745744
vt 0.785282 0.702658
vt 0.746808 0.743615
vt 0.785282 0.741487
vt 0.572692 0.761705
vt 0.612231 0.800179
vt 0.573047 0.799293
vt 0.573402 0.836880
vt 0.612231 0.837590
vt 0.573756 0.874468
vt 0.612231 0.875000
vt 0.574111 0.912056
vt 0.612231 0.912410
vt 0.175179 0.737231
vt 0.212590 0.699820
vt 0.175179 0.699820
vt 0.250000 0.699821
vt 0.212590 0.737231
vt 0.287410 0.699820
vt 0.250000 0.737231
vt 0.287410 0.737231
vt 0.630320 0.789539
vt 0.629256 0.829077
vt 0.628192 0.868615
vt 0.627128 0.908154
vt 0.216846 0.752128
vt 0.177308 0.751064
vt 0.256385 0.753192
vt 0.295923 0.754256
vt 0.626064 0.288120
vt 0.627128 0.330496
vt 0.628192 0.372872
vt 0.629256 0.415248
vt 0.324821 0.512769
vt 0.295923 0.495744
vt 0.335462 0.494679
vt 0.287410 0.512769
vt 0.256385 0.496808
vt 0.250000 0.512769
vt 0.216846 0.497872
vt 0.212590 0.512769
vt 0.287410 0.550179
vt 0.324821 0.587590
vt 0.287410 0.587590
vt 0.287410 0.625000
vt 0.324821 0.625000
vt 0.287410 0.662410
vt 0.324821 0.662410
vt 0.250000 0.550179
vt 0.250000 0.587590
vt 0.250000 0.625000
vt 0.250000 0.662410
vt 0.212590 0.550179
vt 0.212590 0.587590
vt 0.212590 0.625000
vt 0.212590 0.662410
vt 0.175179 0.550179
vt 0.175179 0.587590
vt 0.175179 0.625000
vt 0.175179 0.662410
vt 0.137769 0.550179
vt 0.137769 0.587590
vt 0.137769 0.625000
vt 0.137769 0.662410
vt 0.823756 0.510641
vt 0.785282 0.547342
vt 0.785282 0.508513
vt 0.823756 0.586880
vt 0.785282 0.586171
vt 0.785282 0.625000
vt 0.823756 0.625000
vt 0.785282 0.663829
vt 0.823756 0.663120
vt 0.746808 0.545923
vt 0.746808 0.506385
vt 0.746808 0.585462
vt 0.746808 0.625000
vt 0.746808 0.664538
vt 0.708333 0.544504
vt 0.708333 0.504256
vt 0.708333 0.584752
vt 0.708333 0.625000
vt 0.708333 0.665248
vt 0.669859 0.543085
vt 0.669859 0.502128
vt 0.669859 0.584043
vt 0.669859 0.625000
vt 0.669859 0.665957
vt 0.574288 0.510109
vt 0.612231 0.548051
vt 0.574288 0.548406
vt 0.574288 0.586703
vt 0.612231 0.586526
vt 0.574288 0.625000
vt 0.612231 0.625000
vt 0.574288 0.663297
vt 0.612231 0.663474
vt 0.862231 0.550179
vt 0.823756 0.548761
vt 0.862231 0.587590
vt 0.862231 0.625000
vt 0.862231 0.662410
vt 0.612231 0.050179
vt 0.574820 0.050179
vt 0.574820 0.087590
vt 0.612231 0.087590
vt 0.574821 0.125000
vt 0.612231 0.125000
vt 0.574820 0.162410
vt 0.612231 0.162410
vt 0.324821 0.550179
vt 0.362231 0.587590
vt 0.362231 0.625000
vt 0.362231 0.662410
vt 0.631385 0.541667
vt 0.631385 0.583333
vt 0.631385 0.625000
vt 0.631385 0.666667
vt 0.384577 0.662410
vt 0.384577 0.699821
vt 0.384577 0.625000
vt 0.384577 0.587590
vt 0.625000 0.051598
vt 0.625000 0.090427
vt 0.625000 0.129256
vt 0.625000 0.168085
vt 0.125000 0.587590
vt 0.125000 0.550179
vt 0.125000 0.625000
vt 0.125000 0.662410
vt 0.425179 0.162410
vt 0.387769 0.199821
vt 0.387769 0.162410
vt 0.462590 0.199821
vt 0.425179 0.199821
vt 0.500000 0.162410
vt 0.462590 0.162410
vt 0.537410 0.199821
vt 0.500000 0.199821
vt 0.537410 0.162410
vt 0.425179 0.125000
vt 0.387769 0.125000
vt 0.500000 0.125000
vt 0.462590 0.125000
vt 0.537410 0.125000
vt 0.387769 0.087590
vt 0.425179 0.087590
vt 0.500000 0.087590
vt 0.462590 0.087590
vt 0.537410 0.087590
vt 0.387769 0.050179
vt 0.462590 0.050179
vt 0.425179 0.050179
vt 0.500000 0.050179
vt 0.537410 0.050179
vt 0.425179 0.012769
vt 0.387769 0.012769
vt 0.462590 0.012769
vt 0.500000 0.012769
vt 0.537410 0.012769
vt 0.422519 0.662588
vt 0.460461 0.700530
vt 0.422519 0.700175
vt 0.498404 0.662942
vt 0.460461 0.662765
vt 0.536346 0.701239
vt 0.498404 0.700885
vt 0.536346 0.663120
vt 0.422519 0.625000
vt 0.498404 0.625000
vt 0.460462 0.625000
vt 0.536346 0.625000
vt 0.422519 0.587412
vt 0.498404 0.587058
vt 0.460461 0.587235
vt 0.536346 0.586880
vt 0.460461 0.549470
vt 0.422519 0.549825
vt 0.498404 0.549115
vt 0.536346 0.548761
vt 0.460461 0.511705
vt 0.498404 0.511173
vt 0.536346 0.510641
vt 0.383513 0.910282
vt 0.423406 0.948934
vt 0.385641 0.948756
vt 0.421632 0.910637
vt 0.461171 0.949111
vt 0.497872 0.911346
vt 0.459752 0.910991
vt 0.536701 0.949466
vt 0.498936 0.949288
vt 0.535991 0.911701
vt 0.381385 0.871808
vt 0.419859 0.872340
vt 0.496808 0.873404
vt 0.458333 0.872872
vt 0.535282 0.873936
vt 0.379256 0.833333
vt 0.418085 0.834043
vt 0.495744 0.835462
vt 0.456915 0.834752
vt 0.534573 0.836171
vt 0.377128 0.794859
vt 0.455496 0.796632
vt 0.416312 0.795746
vt 0.494679 0.797519
vt 0.533863 0.798406
vt 0.454077 0.758513
vt 0.493615 0.759577
vt 0.533154 0.760641
vt 0.460462 0.738295
vt 0.498404 0.738827
vt 0.536346 0.739359
vt 0.377128 0.455141
vt 0.455496 0.453190
vt 0.416312 0.454166
vt 0.494679 0.452215
vt 0.454077 0.491487
vt 0.533863 0.451239
vt 0.493615 0.490423
vt 0.533154 0.489359
vt 0.425179 0.987231
vt 0.387769 0.987231
vt 0.462590 0.987231
vt 0.500000 0.987231
vt 0.537410 0.987231
vt 0.387769 0.237231
vt 0.462590 0.237231
vt 0.500000 0.237231
vt 0.537410 0.237231
vt 0.537410 0.260641
vt 0.500000 0.261173
vt 0.462590 0.261705
vt 0.425179 0.000000
vt 0.387769 0.000000
vt 0.462590 0.000000
vt 0.500000 0.000000
vt 0.537410 0.000000
vt 0.385641 0.301244
vt 0.421632 0.339008
vt 0.383513 0.339718
vt 0.461171 0.300002
vt 0.423406 0.300623
vt 0.498936 0.299381
vt 0.459752 0.338299
vt 0.535991 0.336880
vt 0.497872 0.337590
vt 0.536701 0.298761
vt 0.381385 0.378192
vt 0.418085 0.415780
vt 0.379256 0.416667
vt 0.419859 0.377394
vt 0.456915 0.414893
vt 0.496808 0.375798
vt 0.458333 0.376596
vt 0.534573 0.413120
vt 0.495744 0.414006
vt 0.535282 0.375000
vt 0.612231 0.987231
vt 0.862231 0.737231
vt 0.862231 0.512769
s 1
usemtl マテリアル
f 43/1/35 205/2/159 200/3/154
f 165/4/131 44/5/36 195/6/149
f 99/7/71 55/8/43 24/9/21
f 41/10/35 215/11/169 210/12/164
f 42/13/35 210/12/164 205/2/159
f 44/5/36 200/3/154 195/6/149
f 9/14/6 10/15/7 11/16/8
f 12/17/9 13/18/10 14/19/11
f 15/20/12 16/21/13 17/22/14
f 18/23/15 19/24/16 20/25/17
f 21/26/18 22/27/19 23/28/20
f 24/9/21 25/29/22 26/30/23
f 27/31/24 28/32/25 29/33/26
f 30/34/27 31/35/28 32/36/29
f 9/14/6 70/37/52 69/38/51
f 12/17/9 160/39/128 159/40/127
f 18/23/15 80/41/59 79/42/58
f 17/43/14 170/44/134 169/45/133
f 15/20/12 3/46/2 4/47/3
f 30/34/27 40/48/34 39/49/33
f 29/33/26 180/50/140 179/51/139
f 27/31/24 90/52/65 89/53/64
f 24/9/21 100/54/72 99/7/71
f 23/28/20 190/55/146 189/56/145
f 21/26/18 50/57/40 49/58/39
f 13/59/10 60/60/46 59/61/45
f 85/62/62 49/58/39 154/63/124
f 80/41/59 174/64/136 290/65/244
f 60/60/46 159/66/127 240/67/194
f 75/68/56 59/69/45 129/70/99
f 40/48/34 184/71/142 215/11/169
f 100/54/72 194/72/148 265/73/219
f 114/74/84 55/8/43 109/75/79
f 119/76/89 56/77/44 114/74/84
f 124/78/94 57/79/44 119/76/89
f 129/70/99 58/80/44 124/78/94
f 185/81/143 64/82/48 220/83/174
f 64/82/48 225/84/179 220/83/174
f 63/85/47 230/86/184 225/84/179
f 62/87/47 235/88/189 230/86/184
f 61/89/47 240/67/194 235/88/189
f 69/38/51 45/90/37 9/14/6
f 139/91/109 45/90/37 134/92/104
f 144/93/114 46/94/38 139/91/109
f 149/95/119 47/96/38 144/93/114
f 154/63/124 48/97/38 149/95/119
f 55/98/43 25/29/22 24/9/21
f 55/98/43 63/85/47 64/82/48
f 56/99/44 62/87/47 63/85/47
f 57/100/44 61/89/47 62/87/47
f 58/101/44 60/60/46 61/89/47
f 45/90/37 10/15/7 9/14/6
f 45/90/37 53/102/41 54/103/42
f 46/94/38 52/104/41 53/102/41
f 47/96/38 51/105/41 52/104/41
f 48/97/38 50/57/40 51/105/41
f 35/106/31 19/24/16 18/23/15
f 35/106/31 43/1/35 44/5/36
f 36/107/32 42/13/35 43/1/35
f 37/108/32 41/10/35 42/13/35
f 38/109/32 40/48/34 41/10/35
f 8/110/5 28/32/25 27/31/24
f 8/110/5 33/111/1 34/112/30
f 7/113/4 1/114/1 33/111/1
f 6/115/4 2/116/1 1/114/1
f 5/117/4 3/46/2 2/116/1
f 8/110/5 145/118/115 7/113/4
f 145/118/115 151/119/121 146/120/116
f 151/119/121 147/121/117 146/120/116
f 152/122/122 148/123/118 147/121/117
f 153/124/123 149/95/119 148/123/118
f 7/113/4 140/125/110 6/115/4
f 145/118/115 141/126/111 140/125/110
f 146/120/116 142/127/112 141/126/111
f 147/121/117 143/128/113 142/127/112
f 148/123/118 144/93/114 143/128/113
f 6/115/4 135/129/105 5/117/4
f 140/125/110 136/130/106 135/129/105
f 141/126/111 137/131/107 136/130/106
f 142/127/112 138/132/108 137/131/107
f 143/128/113 139/91/109 138/132/108
f 5/117/4 130/133/100 4/47/3
f 135/129/105 131/134/101 130/133/100
f 136/130/106 132/135/102 131/134/101
f 137/131/107 133/136/103 132/135/102
f 133/136/103 139/91/109 134/92/104
f 4/47/3 65/137/49 15/20/12
f 130/133/100 66/138/50 65/137/49
f 131/134/101 67/139/50 66/138/50
f 132/135/102 68/140/50 67/139/50
f 133/136/103 69/38/51 68/140/50
f 35/141/31 120/142/90 36/143/32
f 120/142/90 126/144/96 121/145/91
f 126/144/96 122/146/92 121/145/91
f 127/147/97 123/148/93 122/146/92
f 128/149/98 124/78/94 123/148/93
f 36/143/32 115/150/85 37/151/32
f 120/142/90 116/152/86 115/150/85
f 121/145/91 117/153/87 116/152/86
f 122/146/92 118/154/88 117/153/87
f 123/148/93 119/76/89 118/154/88
f 37/151/32 110/155/80 38/156/32
f 115/150/85 111/157/81 110/155/80
f 116/152/86 112/158/82 111/157/81
f 117/153/87 113/159/83 112/158/82
f 118/154/88 114/74/84 113/159/83
f 38/156/32 105/160/75 39/161/33
f 110/155/80 106/162/76 105/160/75
f 111/157/81 107/163/77 106/162/76
f 112/158/82 108/164/78 107/163/77
f 108/164/78 114/74/84 109/75/79
f 175/165/137 104/166/74 245/167/199
f 104/166/74 250/168/204 245/167/199
f 103/169/73 255/170/209 250/168/204
f 102/171/73 260/172/214 255/170/209
f 101/173/73 265/73/219 260/172/214
f 35/141/31 79/174/58 125/175/95
f 125/175/95 78/176/57 126/144/96
f 126/144/96 77/177/57 127/147/97
f 127/147/97 76/178/57 128/149/98
f 128/149/98 75/68/56 129/70/99
f 160/39/128 84/179/61 270/180/224
f 84/179/61 275/181/229 270/180/224
f 83/182/60 280/183/234 275/181/229
f 82/184/60 285/185/239 280/183/234
f 81/186/60 290/65/244 285/185/239
f 8/110/5 89/53/64 150/187/120
f 150/187/120 88/188/63 151/119/121
f 151/119/121 87/189/63 152/122/122
f 152/122/122 86/190/63 153/124/123
f 153/124/123 85/62/62 154/63/124
f 95/191/69 31/35/28 30/34/27
f 95/191/69 103/169/73 104/166/74
f 96/192/70 102/171/73 103/169/73
f 97/193/70 101/173/73 102/171/73
f 98/194/70 100/54/72 101/173/73
f 85/62/62 22/27/19 21/26/18
f 85/62/62 93/195/66 94/196/68
f 86/190/63 92/197/67 93/195/66
f 87/189/63 91/198/66 92/197/67
f 88/188/63 90/52/65 91/198/66
f 75/199/56 14/19/11 13/18/10
f 75/199/56 83/182/60 84/179/61
f 76/200/57 82/184/60 83/182/60
f 77/201/57 81/186/60 82/184/60
f 78/202/57 80/41/59 81/186/60
f 65/137/49 16/21/13 15/20/12
f 65/137/49 73/203/53 74/204/55
f 66/138/50 72/205/54 73/203/53
f 67/139/50 71/206/53 72/205/54
f 68/140/50 70/37/52 71/206/53
f 39/161/33 95/191/69 30/34/27
f 105/160/75 96/192/70 95/191/69
f 106/162/76 97/193/70 96/192/70
f 107/163/77 98/194/70 97/193/70
f 108/164/78 99/7/71 98/194/70
f 289/207/243 74/208/55 73/209/53
f 289/207/243 293/210/247 294/211/248
f 287/212/241 293/210/247 288/213/242
f 287/212/241 291/214/245 292/215/246
f 285/185/239 291/214/245 286/216/240
f 284/217/238 73/209/53 72/218/54
f 284/217/238 288/213/242 289/207/243
f 282/219/236 288/213/242 283/220/237
f 282/219/236 286/216/240 287/212/241
f 281/221/235 285/185/239 286/216/240
f 71/222/53 284/217/238 72/218/54
f 279/223/233 283/220/237 284/217/238
f 277/224/231 283/220/237 278/225/232
f 277/224/231 281/221/235 282/219/236
f 276/226/230 280/183/234 281/221/235
f 70/227/52 279/223/233 71/222/53
f 273/228/227 279/223/233 274/229/228
f 272/230/226 278/225/232 273/228/227
f 272/230/226 276/226/230 277/224/231
f 271/231/225 275/181/229 276/226/230
f 164/232/130 70/227/52 11/233/8
f 163/234/129 274/229/228 164/232/130
f 162/235/129 273/228/227 163/234/129
f 161/236/129 272/230/226 162/235/129
f 160/39/128 271/231/225 161/236/129
f 264/237/218 94/196/68 93/195/66
f 264/237/218 268/238/222 269/239/223
f 262/240/216 268/238/222 263/241/217
f 262/240/216 266/242/220 267/243/221
f 260/172/214 266/242/220 261/244/215
f 259/245/213 93/195/66 92/197/67
f 259/245/213 263/241/217 264/237/218
f 257/246/211 263/241/217 258/247/212
f 257/246/211 261/244/215 262/240/216
f 256/248/210 260/172/214 261/244/215
f 91/198/66 259/245/213 92/197/67
f 254/249/208 258/247/212 259/245/213
f 252/250/206 258/247/212 253/251/207
f 252/250/206 256/248/210 257/246/211
f 251/252/205 255/170/209 256/248/210
f 90/52/65 254/249/208 91/198/66
f 248/253/202 254/249/208 249/254/203
f 247/255/201 253/251/207 248/253/202
f 247/255/201 251/252/205 252/250/206
f 246/256/200 250/168/204 251/252/205
f 179/51/139 90/52/65 29/33/26
f 178/257/138 249/254/203 179/51/139
f 177/258/138 248/253/202 178/257/138
f 176/259/138 247/255/201 177/258/138
f 175/165/137 246/256/200 176/259/138
f 53/260/41 244/261/198 54/262/42
f 239/263/193 243/264/197 244/261/198
f 237/265/191 243/264/197 238/266/192
f 237/265/191 241/267/195 242/268/196
f 235/88/189 241/267/195 236/269/190
f 52/270/41 239/263/193 53/260/41
f 234/271/188 238/266/192 239/263/193
f 232/272/186 238/266/192 233/273/187
f 232/272/186 236/269/190 237/265/191
f 230/86/184 236/269/190 231/274/185
f 51/275/41 234/271/188 52/270/41
f 229/276/183 233/273/187 234/271/188
f 227/277/181 233/273/187 228/278/182
f 227/277/181 231/274/185 232/272/186
f 226/279/180 230/86/184 231/274/185
f 50/280/40 229/276/183 51/275/41
f 223/281/177 229/276/183 224/282/178
f 222/283/176 228/278/182 223/281/177
f 222/283/176 226/279/180 227/277/181
f 221/284/175 225/84/179 226/279/180
f 189/56/145 50/280/40 23/28/20
f 188/285/144 224/282/178 189/56/145
f 187/286/144 223/281/177 188/285/144
f 186/287/144 222/283/176 187/286/144
f 185/81/143 221/284/175 186/287/144
f 94/196/68 190/55/146 22/27/19
f 268/238/222 190/55/146 269/239/223
f 267/243/221 191/288/147 268/238/222
f 266/242/220 192/289/147 267/243/221
f 265/73/219 193/290/147 266/242/220
f 34/291/30 180/50/140 28/32/25
f 218/292/172 180/50/140 219/293/173
f 217/294/171 181/295/141 218/292/172
f 216/296/170 182/297/141 217/294/171
f 215/11/169 183/298/141 216/296/170
f 54/262/42 155/299/125 10/300/7
f 243/264/197 155/299/125 244/261/198
f 242/268/196 156/301/126 243/264/197
f 241/267/195 157/302/126 242/268/196
f 240/67/194 158/303/126 241/267/195
f 74/208/55 170/44/134 16/304/13
f 293/210/247 170/44/134 294/211/248
f 292/215/246 171/305/135 293/210/247
f 291/214/245 172/306/135 292/215/246
f 290/65/244 173/307/135 291/214/245
f 185/81/143 26/30/23 25/29/22
f 185/81/143 193/290/147 194/72/148
f 186/287/144 192/289/147 193/290/147
f 187/286/144 191/288/147 192/289/147
f 188/285/144 190/55/146 191/288/147
f 175/165/137 32/36/29 31/35/28
f 175/165/137 183/298/141 184/71/142
f 176/259/138 182/297/141 183/298/141
f 177/258/138 181/295/141 182/297/141
f 178/257/138 180/50/140 181/295/141
f 165/4/131 20/25/17 19/24/16
f 165/4/131 173/307/135 174/64/136
f 166/308/132 172/306/135 173/307/135
f 167/309/132 171/305/135 172/306/135
f 168/310/132 170/44/134 171/305/135
f 155/311/125 11/233/8 10/312/7
f 155/311/125 163/234/129 164/232/130
f 156/313/126 162/235/129 163/234/129
f 157/314/126 161/236/129 162/235/129
f 158/315/126 160/39/128 161/236/129
f 3/316/2 204/317/158 2/318/1
f 198/319/152 204/317/158 199/320/153
f 197/321/151 203/322/157 198/319/152
f 197/321/151 201/323/155 202/324/156
f 196/325/150 200/3/154 201/323/155
f 1/326/1 214/327/168 33/328/1
f 209/329/163 213/330/167 214/327/168
f 207/331/161 213/330/167 208/332/162
f 207/331/161 211/333/165 212/334/166
f 205/2/159 211/333/165 206/335/160
f 33/328/1 219/293/173 34/291/30
f 214/327/168 218/292/172 219/293/173
f 212/334/166 218/292/172 213/330/167
f 212/334/166 216/296/170 217/294/171
f 210/12/164 216/296/170 211/333/165
f 169/45/133 3/316/2 17/43/14
f 168/310/132 199/320/153 169/45/133
f 167/309/132 198/319/152 168/310/132
f 166/308/132 197/321/151 167/309/132
f 165/4/131 196/325/150 166/308/132
f 2/318/1 209/329/163 1/326/1
f 204/317/158 208/332/162 209/329/163
f 202/324/156 208/332/162 203/322/157
f 202/324/156 206/335/160 207/331/161
f 201/323/155 205/2/159 206/335/160
f 43/1/35 42/13/35 205/2/159
f 165/4/131 19/24/16 44/5/36
f 99/7/71 109/75/79 55/8/43
f 41/10/35 40/48/34 215/11/169
f 42/13/35 41/10/35 210/12/164
f 44/5/36 43/1/35 200/3/154
f 9/14/6 11/16/8 70/37/52
f 12/17/9 14/19/11 160/39/128
f 18/23/15 20/25/17 80/41/59
f 17/43/14 16/304/13 170/44/134
f 15/20/12 17/22/14 3/46/2
f 30/34/27 32/36/29 40/48/34
f 29/33/26 28/32/25 180/50/140
f 27/31/24 29/33/26 90/52/65
f 24/9/21 26/30/23 100/54/72
f 23/28/20 22/27/19 190/55/146
f 21/26/18 23/28/20 50/57/40
f 13/59/10 12/336/9 60/60/46
f 85/62/62 21/26/18 49/58/39
f 80/41/59 20/25/17 174/64/136
f 60/60/46 12/336/9 159/66/127
f 75/68/56 13/337/10 59/69/45
f 40/48/34 32/36/29 184/71/142
f 100/54/72 26/30/23 194/72/148
f 114/74/84 56/77/44 55/8/43
f 119/76/89 57/79/44 56/77/44
f 124/78/94 58/80/44 57/79/44
f 129/70/99 59/69/45 58/80/44
f 185/81/143 25/29/22 64/82/48
f 64/82/48 63/85/47 225/84/179
f 63/85/47 62/87/47 230/86/184
f 62/87/47 61/89/47 235/88/189
f 61/89/47 60/60/46 240/67/194
f 69/38/51 134/92/104 45/90/37
f 139/91/109 46/94/38 45/90/37
f 144/93/114 47/96/38 46/94/38
f 149/95/119 48/97/38 47/96/38
f 154/63/124 49/58/39 48/97/38
f 55/98/43 64/82/48 25/29/22
f 55/98/43 56/99/44 63/85/47
f 56/99/44 57/100/44 62/87/47
f 57/100/44 58/101/44 61/89/47
f 58/101/44 59/61/45 60/60/46
f 45/90/37 54/103/42 10/15/7
f 45/90/37 46/94/38 53/102/41
f 46/94/38 47/96/38 52/104/41
f 47/96/38 48/97/38 51/105/41
f 48/97/38 49/58/39 50/57/40
f 35/106/31 44/5/36 19/24/16
f 35/106/31 36/107/32 43/1/35
f 36/107/32 37/108/32 42/13/35
f 37/108/32 38/109/32 41/10/35
f 38/109/32 39/49/33 40/48/34
f 8/110/5 34/112/30 28/32/25
f 8/110/5 7/113/4 33/111/1
f 7/113/4 6/115/4 1/114/1
f 6/115/4 5/117/4 2/116/1
f 5/117/4 4/47/3 3/46/2
f 8/110/5 150/187/120 145/118/115
f 145/118/115 150/187/120 151/119/121
f 151/119/121 152/122/122 147/121/117
f 152/122/122 153/124/123 148/123/118
f 153/124/123 154/63/124 149/95/119
f 7/113/4 145/118/115 140/125/110
f 145/118/115 146/120/116 141/126/111
f 146/120/116 147/121/117 142/127/112
f 147/121/117 148/123/118 143/128/113
f 148/123/118 149/95/119 144/93/114
f 6/115/4 140/125/110 135/129/105
f 140/125/110 141/126/111 136/130/106
f 141/126/111 142/127/112 137/131/107
f 142/127/112 143/128/113 138/132/108
f 143/128/113 144/93/114 139/91/109
f 5/117/4 135/129/105 130/133/100
f 135/129/105 136/130/106 131/134/101
f 136/130/106 137/131/107 132/135/102
f 137/131/107 138/132/108 133/136/103
f 133/136/103 138/132/108 139/91/109
f 4/47/3 130/133/100 65/137/49
f 130/133/100 131/134/101 66/138/50
f 131/134/101 132/135/102 67/139/50
f 132/135/102 133/136/103 68/140/50
f 133/136/103 134/92/104 69/38/51
f 35/141/31 125/175/95 120/142/90
f 120/142/90 125/175/95 126/144/96
f 126/144/96 127/147/97 122/146/92
f 127/147/97 128/149/98 123/148/93
f 128/149/98 129/70/99 124/78/94
f 36/143/32 120/142/90 115/150/85
f 120/142/90 121/145/91 116/152/86
f 121/145/91 122/146/92 117/153/87
f 122/146/92 123/148/93 118/154/88
f 123/148/93 124/78/94 119/76/89
f 37/151/32 115/150/85 110/155/80
f 115/150/85 116/152/86 111/157/81
f 116/152/86 117/153/87 112/158/82
f 117/153/87 118/154/88 113/159/83
f 118/154/88 119/76/89 114/74/84
f 38/156/32 110/155/80 105/160/75
f 110/155/80 111/157/81 106/162/76
f 111/157/81 112/158/82 107/163/77
f 112/158/82 113/159/83 108/164/78
f 108/164/78 113/159/83 114/74/84
f 175/165/137 31/35/28 104/166/74
f 104/166/74 103/169/73 250/168/204
f 103/169/73 102/171/73 255/170/209
f 102/171/73 101/173/73 260/172/214
f 101/173/73 100/54/72 265/73/219
f 35/141/31 18/338/15 79/174/58
f 125/175/95 79/174/58 78/176/57
f 126/144/96 78/176/57 77/177/57
f 127/147/97 77/177/57 76/178/57
f 128/149/98 76/178/57 75/68/56
f 160/39/128 14/19/11 84/179/61
f 84/179/61 83/182/60 275/181/229
f 83/182/60 82/184/60 280/183/234
f 82/184/60 81/186/60 285/185/239
f 81/186/60 80/41/59 290/65/244
f 8/110/5 27/31/24 89/53/64
f 150/187/120 89/53/64 88/188/63
f 151/119/121 88/188/63 87/189/63
f 152/122/122 87/189/63 86/190/63
f 153/124/123 86/190/63 85/62/62
f 95/191/69 104/166/74 31/35/28
f 95/191/69 96/192/70 103/169/73
f 96/192/70 97/193/70 102/171/73
f 97/193/70 98/194/70 101/173/73
f 98/194/70 99/7/71 100/54/72
f 85/62/62 94/196/68 22/27/19
f 85/62/62 86/190/63 93/195/66
f 86/190/63 87/189/63 92/197/67
f 87/189/63 88/188/63 91/198/66
f 88/188/63 89/53/64 90/52/65
f 75/199/56 84/179/61 14/19/11
f 75/199/56 76/200/57 83/182/60
f 76/200/57 77/201/57 82/184/60
f 77/201/57 78/202/57 81/186/60
f 78/202/57 79/42/58 80/41/59
f 65/137/49 74/204/55 16/21/13
f 65/137/49 66/138/50 73/203/53
f 66/138/50 67/139/50 72/205/54
f 67/139/50 68/140/50 71/206/53
f 68/140/50 69/38/51 70/37/52
f 39/161/33 105/160/75 95/191/69
f 105/160/75 106/162/76 96/192/70
f 106/162/76 107/163/77 97/193/70
f 107/163/77 108/164/78 98/194/70
f 108/164/78 109/75/79 99/7/71
f 289/207/243 294/211/248 74/208/55
f 289/207/243 288/213/242 293/210/247
f 287/212/241 292/215/246 293/210/247
f 287/212/241 286/216/240 291/214/245
f 285/185/239 290/65/244 291/214/245
f 284/217/238 289/207/243 73/209/53
f 284/217/238 283/220/237 288/213/242
f 282/219/236 287/212/241 288/213/242
f 282/219/236 281/221/235 286/216/240
f 281/221/235 280/183/234 285/185/239
f 71/222/53 279/223/233 284/217/238
f 279/223/233 278/225/232 283/220/237
f 277/224/231 282/219/236 283/220/237
f 277/224/231 276/226/230 281/221/235
f 276/226/230 275/181/229 280/183/234
f 70/227/52 274/229/228 279/223/233
f 273/228/227 278/225/232 279/223/233
f 272/230/226 277/224/231 278/225/232
f 272/230/226 271/231/225 276/226/230
f 271/231/225 270/180/224 275/181/229
f 164/232/130 274/229/228 70/227/52
f 163/234/129 273/228/227 274/229/228
f 162/235/129 272/230/226 273/228/227
f 161/236/129 271/231/225 272/230/226
f 160/39/128 270/180/224 271/231/225
f 264/237/218 269/239/223 94/196/68
f 264/237/218 263/241/217 268/238/222
f 262/240/216 267/243/221 268/238/222
f 262/240/216 261/244/215 266/242/220
f 260/172/214 265/73/219 266/242/220
f 259/245/213 264/237/218 93/195/66
f 259/245/213 258/247/212 263/241/217
f 257/246/211 262/240/216 263/241/217
f 257/246/211 256/248/210 261/244/215
f 256/248/210 255/170/209 260/172/214
f 91/198/66 254/249/208 259/245/213
f 254/249/208 253/251/207 258/247/212
f 252/250/206 257/246/211 258/247/212
f 252/250/206 251/252/205 256/248/210
f 251/252/205 250/168/204 255/170/209
f 90/52/65 249/254/203 254/249/208
f 248/253/202 253/251/207 254/249/208
f 247/255/201 252/250/206 253/251/207
f 247/255/201 246/256/200 251/252/205
f 246/256/200 245/167/199 250/168/204
f 179/51/139 249/254/203 90/52/65
f 178/257/138 248/253/202 249/254/203
f 177/258/138 247/255/201 248/253/202
f 176/259/138 246/256/200 247/255/201
f 175/165/137 245/167/199 246/256/200
f 53/260/41 239/263/193 244/261/198
f 239/263/193 238/266/192 243/264/197
f 237/265/191 242/268/196 243/264/197
f 237/265/191 236/269/190 241/267/195
f 235/88/189 240/67/194 241/267/195
f 52/270/41 234/271/188 239/263/193
f 234/271/188 233/273/187 238/266/192
f 232/272/186 237/265/191 238/266/192
f 232/272/186 231/274/185 236/269/190
f 230/86/184 235/88/189 236/269/190
f 51/275/41 229/276/183 234/271/188
f 229/276/183 228/278/182 233/273/187
f 227/277/181 232/272/186 233/273/187
f 227/277/181 226/279/180 231/274/185
f 226/279/180 225/84/179 230/86/184
f 50/280/40 224/282/178 229/276/183
f 223/281/177 228/278/182 229/276/183
f 222/283/176 227/277/181 228/278/182
f 222/283/176 221/284/175 226/279/180
f 221/284/175 220/83/174 225/84/179
f 189/56/145 224/282/178 50/280/40
f 188/285/144 223/281/177 224/282/178
f 187/286/144 222/283/176 223/281/177
f 186/287/144 221/284/175 222/283/176
f 185/81/143 220/83/174 221/284/175
f 94/196/68 269/239/223 190/55/146
f 268/238/222 191/288/147 190/55/146
f 267/243/221 192/289/147 191/288/147
f 266/242/220 193/290/147 192/289/147
f 265/73/219 194/72/148 193/290/147
f 34/291/30 219/293/173 180/50/140
f 218/292/172 181/295/141 180/50/140
f 217/294/171 182/297/141 181/295/141
f 216/296/170 183/298/141 182/297/141
f 215/11/169 184/71/142 183/298/141
f 54/262/42 244/261/198 155/299/125
f 243/264/197 156/301/126 155/299/125
f 242/268/196 157/302/126 156/301/126
f 241/267/195 158/303/126 157/302/126
f 240/67/194 159/66/127 158/303/126
f 74/208/55 294/211/248 170/44/134
f 293/210/247 171/305/135 170/44/134
f 292/215/246 172/306/135 171/305/135
f 291/214/245 173/307/135 172/306/135
f 290/65/244 174/64/136 173/307/135
f 185/81/143 194/72/148 26/30/23
f 185/81/143 186/287/144 193/290/147
f 186/287/144 187/286/144 192/289/147
f 187/286/144 188/285/144 191/288/147
f 188/285/144 189/56/145 190/55/146
f 175/165/137 184/71/142 32/36/29
f 175/165/137 176/259/138 183/298/141
f 176/259/138 177/258/138 182/297/141
f 177/258/138 178/257/138 181/295/141
f 178/257/138 179/51/139 180/50/140
f 165/4/131 174/64/136 20/25/17
f 165/4/131 166/308/132 173/307/135
f 166/308/132 167/309/132 172/306/135
f 167/309/132 168/310/132 171/305/135
f 168/310/132 169/45/133 170/44/134
f 155/311/125 164/232/130 11/233/8
f 155/311/125 156/313/126 163/234/129
f 156/313/126 157/314/126 162/235/129
f 157/314/126 158/315/126 161/236/129
f 158/315/126 159/40/127 160/39/128
f 3/316/2 199/320/153 204/317/158
f 198/319/152 203/322/157 204/317/158
f 197/321/151 202/324/156 203/322/157
f 197/321/151 196/325/150 201/323/155
f 196/325/150 195/6/149 200/3/154
f 1/326/1 209/329/163 214/327/168
f 209/329/163 208/332/162 213/330/167
f 207/331/161 212/334/166 213/330/167
f 207/331/161 206/335/160 211/333/165
f 205/2/159 210/12/164 211/333/165
f 33/328/1 214/327/168 219/293/173
f 214/327/168 213/330/167 218/292/172
f 212/334/166 217/294/171 218/292/172
f 212/334/166 211/333/165 216/296/170
f 210/12/164 215/11/169 216/296/170
f 169/45/133 199/320/153 3/316/2
f 168/310/132 198/319/152 199/320/153
f 167/309/132 197/321/151 198/319/152
f 166/308/132 196/325/150 197/321/151
f 165/4/131 195/6/149 196/325/150
f 2/318/1 204/317/158 209/329/163
f 204/317/158 203/322/157 208/332/162
f 202/324/156 207/331/161 208/332/162
f 202/324/156 201/323/155 206/335/160
f 201/323/155 200/3/154 205/2/159
