mtllib clay_outline.mtl
v 0.000000 0.120943 -1.000000
v -0.299282 0.120943 -1.000000
v -0.598564 0.120943 -1.000000
v -0.598564 0.018790 -0.897847
v -0.299282 0.018790 -0.897847
v -0.000000 0.018790 -0.897847
v 0.299282 0.018790 -0.897847
v 0.598564 0.018790 -0.897847
v -0.897847 0.018790 0.897847
v -0.897847 0.120943 1.000000
v -1.000000 0.120943 0.897847
v -0.897847 1.916637 1.000000
v -0.897847 2.018790 0.897847
v -1.000000 1.916637 0.897847
v -0.897847 0.018790 -0.897847
v -1.000000 0.120943 -0.897847
v -0.897847 0.120943 -1.000000
v -0.897847 2.018790 -0.897847
v -0.897847 1.916637 -1.000000
v -1.000000 1.916637 -0.897847
v 0.897847 0.018790 0.897847
v 1.000000 0.120943 0.897847
v 0.897847 0.120943 1.000000
v 0.897847 2.018790 0.897847
v 0.897847 1.916637 1.000000
v 1.000000 1.916637 0.897847
v 0.897847 0.018790 -0.897847
v 0.897847 0.120943 -1.000000
v 1.000000 0.120943 -0.897847
v 0.897847 2.018790 -0.897847
v 1.000000 1.916637 -0.897847
v 0.897847 1.916637 -1.000000
v 0.299282 0.120943 -1.000000
v 0.598564 0.120943 -1.000000
v -0.598564 2.018790 -0.897847
v -0.299282 2.018790 -0.897847
v 0.000000 2.018790 -0.897847
v 0.299282 2.018790 -0.897847
v 0.598564 2.018790 -0.897847
v 0.598564 1.916637 -1.000000
v 0.299282 1.916637 -1.000000
v -0.000000 1.916637 -1.000000
v -0.299282 1.916637 -1.000000
v -0.598564 1.916637 -1.000000
v -0.598564 0.018790 0.897847
v -0.299282 0.018790 0.897847
v 0.000000 0.018790 0.897847
v 0.299282 0.018790 0.897847
v 0.598564 0.018790 0.897847
v 0.598564 0.120943 1.000000
v 0.299282 0.120943 1.000000
v -0.000000 0.120943 1.000000
v -0.299282 0.120943 1.000000
v -0.598564 0.120943 1.000000
v 0.598564 2.018790 0.897847
v 0.299282 2.018790 0.897847
v -0.000000 2.018790 0.897847
v -0.299282 2.018790 0.897847
v -0.598564 2.018790 0.897847
v -0.598564 1.916637 1.000000
v -0.299282 1.916637 1.000000
v 0.000000 1.916637 1.000000
v 0.299282 1.916637 1.000000
v 0.598564 1.916637 1.000000
v -0.897847 0.018790 -0.598564
v -0.897847 0.018790 -0.299282
v -0.897847 0.018790 0.000000
v -0.897847 0.018790 0.299282
v -0.897847 0.018790 0.598564
v -1.000000 0.120943 0.598564
v -1.000000 0.120943 0.299282
v -1.000000 0.120943 -0.000000
v -1.000000 0.120943 -0.299282
v -1.000000 0.120943 -0.598564
v -0.897847 2.018790 0.598564
v -0.897847 2.018790 0.299282
v -0.897847 2.018790 -0.000000
v -0.897847 2.018790 -0.299282
v -0.897847 2.018790 -0.598564
v -1.000000 1.916637 -0.598564
v -1.000000 1.916637 -0.299282
v -1.000000 1.916637 0.000000
v -1.000000 1.916637 0.299282
v -1.000000 1.916637 0.598564
v 0.897847 0.018790 0.598564
v 0.897847 0.018790 0.299282
v 0.897847 0.018790 -0.000000
v 0.897847 0.018790 -0.299282
v 0.897847 0.018790 -0.598564
v 1.000000 0.120943 -0.598564
v 1.000000 0.120943 -0.299282
v 1.000000 0.120943 0.000000
v 1.000000 0.120943 0.299282
v 1.000000 0.120943 0.598564
v 0.897847 2.018790 -0.598564
v 0.897847 2.018790 -0.299282
v 0.897847 2.018790 0.000000
v 0.897847 2.018790 0.299282
v 0.897847 2.018790 0.598564
v 1.000000 1.916637 0.598564
v 1.000000 1.916637 0.299282
v 1.000000 1.916637 -0.000000
v 1.000000 1.916637 -0.299282
v 1.000000 1.916637 -0.598564
v 0.598564 2.064596 -0.598564
v 0.598564 2.064596 -0.299282
v 0.598564 2.064596 0.000000
v 0.598564 2.064596 0.299282
v 0.598564 2.064596 0.598564
v 0.299282 2.064596 -0.598564
v 0.299282 2.089931 -0.299282
v 0.299282 2.089931 0.000000
v 0.299282 2.089931 0.299282
v 0.299282 2.064596 0.598564
v 0.000000 2.064596 -0.598564
v 0.000000 2.089931 -0.299282
v -0.000000 2.089931 0.000000
v -0.000000 2.089931 0.299282
v -0.000000 2.064596 0.598564
v -0.299282 2.064596 -0.598564
v -0.299282 2.089931 -0.299282
v -0.299282 2.089931 0.000000
v -0.299282 2.089931 0.299282
v -0.299282 2.064596 0.598564
v -0.598564 2.064596 -0.598564
v -0.598564 2.064596 -0.299282
v -0.598564 2.064596 0.000000
v -0.598564 2.064596 0.299282
v -0.598564 2.064596 0.598564
v -0.598564 -0.027016 -0.598564
v -0.598564 -0.027016 -0.299282
v -0.598564 -0.027016 0.000000
v -0.598564 -0.027016 0.299282
v -0.598564 -0.027016 0.598564
v -0.299282 -0.027016 -0.598564
v -0.299282 -0.052350 -0.299282
v -0.299282 -0.052350 0.000000
v -0.299282 -0.052350 0.299282
v -0.299282 -0.027016 0.598564
v -0.000000 -0.027016 -0.598564
v -0.000000 -0.052350 -0.299282
v 0.000000 -0.052350 0.000000
v 0.000000 -0.052350 0.299282
v 0.000000 -0.027016 0.598564
v 0.299282 -0.027016 -0.598564
v 0.299282 -0.052350 -0.299282
v 0.299282 -0.052350 0.000000
v 0.299282 -0.052350 0.299282
v 0.299282 -0.027016 0.598564
v 0.598564 -0.027016 -0.598564
v 0.598564 -0.027016 -0.299282
v 0.598564 -0.027016 0.000000
v 0.598564 -0.027016 0.299282
v 0.598564 -0.027016 0.598564
v -0.897847 0.420226 1.000000
v -0.897847 0.719508 1.000000
v -0.897847 1.018790 1.000000
v -0.897847 1.318072 1.000000
v -0.897847 1.617354 1.000000
v -1.000000 1.617354 0.897847
v -1.000000 1.318072 0.897847
v -1.000000 1.018790 0.897847
v -1.000000 0.719508 0.897847
v -1.000000 0.420226 0.897847
v -0.897847 1.617354 -1.000000
v -0.897847 1.318072 -1.000000
v -0.897847 1.018790 -1.000000
v -0.897847 0.719508 -1.000000
v -0.897847 0.420226 -1.000000
v -1.000000 0.420226 -0.897847
v -1.000000 0.719508 -0.897847
v -1.000000 1.018790 -0.897847
v -1.000000 1.318072 -0.897847
v -1.000000 1.617354 -0.897847
v 1.000000 1.617354 -0.897847
v 1.000000 1.318072 -0.897847
v 1.000000 1.018790 -0.897847
v 1.000000 0.719508 -0.897847
v 1.000000 0.420226 -0.897847
v 0.897847 0.420226 -1.000000
v 0.897847 0.719508 -1.000000
v 0.897847 1.018790 -1.000000
v 0.897847 1.318072 -1.000000
v 0.897847 1.617354 -1.000000
v 0.897847 1.617354 1.000000
v 0.897847 1.318072 1.000000
v 0.897847 1.018790 1.000000
v 0.897847 0.719508 1.000000
v 0.897847 0.420226 1.000000
v 1.000000 0.420226 0.897847
v 1.000000 0.719508 0.897847
v 1.000000 1.018790 0.897847
v 1.000000 1.318072 0.897847
v 1.000000 1.617354 0.897847
v -0.598564 1.617354 -1.059206
v -0.598564 1.318072 -1.059206
v -0.598564 1.018790 -1.059206
v -0.598564 0.719508 -1.059206
v -0.598564 0.420226 -1.059206
v -0.299282 1.617354 -1.059206
v -0.299282 1.318072 -1.082826
v -0.299282 1.018790 -1.082826
v -0.299282 0.719508 -1.082826
v -0.299282 0.420226 -1.059206
v -0.000000 1.617354 -1.059206
v -0.000000 1.318072 -1.082826
v 0.000000 1.018790 -1.082826
v 0.000000 0.719508 -1.082826
v 0.000000 0.420226 -1.059206
v 0.299282 1.617354 -1.059206
v 0.299282 1.318072 -1.082826
v 0.299282 1.018790 -1.082826
v 0.299282 0.719508 -1.082826
v 0.299282 0.420226 -1.059206
v 0.598564 1.617354 -1.059206
v 0.598564 1.318072 -1.059206
v 0.598564 1.018790 -1.059206
v 0.598564 0.719508 -1.059206
v 0.598564 0.420226 -1.059206
v 0.598564 1.617354 1.059206
v 0.598564 1.318072 1.059206
v 0.598564 1.018790 1.059206
v 0.598564 0.719508 1.059206
v 0.598564 0.420226 1.059206
v 0.299282 1.617354 1.059206
v 0.299282 1.318072 1.082826
v 0.299282 1.018790 1.082826
v 0.299282 0.719508 1.082826
v 0.299282 0.420226 1.059206
v 0.000000 1.617354 1.059206
v 0.000000 1.318072 1.082826
v -0.000000 1.018790 1.082826
v -0.000000 0.719508 1.082826
v -0.000000 0.420226 1.059206
v -0.299282 1.617354 1.059206
v -0.299282 1.318072 1.082826
v -0.299282 1.018790 1.082826
v -0.299282 0.719508 1.082826
v -0.299282 0.420226 1.059206
v -0.598564 1.617354 1.059206
v -0.598564 1.318072 1.059206
v -0.598564 1.018790 1.059206
v -0.598564 0.719508 1.059206
v -0.598564 0.420226 1.059206
v 1.062260 1.617354 -0.598564
v 1.062260 1.318072 -0.598564
v 1.062260 1.018790 -0.598564
v 1.062260 0.719508 -0.598564
v 1.062260 0.420226 -0.598564
v 1.062260 1.617354 -0.299282
v 1.088840 1.318072 -0.299282
v 1.088840 1.018790 -0.299282
v 1.088840 0.719508 -0.299282
v 1.062260 0.420226 -0.299282
v 1.062260 1.617354 -0.000000
v 1.088840 1.318072 -0.000000
v 1.088840 1.018790 0.000000
v 1.088840 0.719508 0.000000
v 1.062260 0.420226 0.000000
v 1.062260 1.617354 0.299282
v 1.088840 1.318072 0.299282
v 1.088840 1.018790 0.299282
v 1.088840 0.719508 0.299282
v 1.062260 0.420226 0.299282
v 1.062260 1.617354 0.598564
v 1.062260 1.318072 0.598564
v 1.062260 1.018790 0.598564
v 1.062260 0.719508 0.598564
v 1.062260 0.420226 0.598564
v -1.062260 1.617354 0.598564
v -1.062260 1.318072 0.598564
v -1.062260 1.018790 0.598564
v -1.062260 0.719508 0.598564
v -1.062260 0.420226 0.598564
v -1.062260 1.617354 0.299282
v -1.088840 1.318072 0.299282
v -1.088840 1.018790 0.299282
v -1.088840 0.719508 0.299282
v -1.062260 0.420226 0.299282
v -1.062260 1.617354 0.000000
v -1.088840 1.318072 0.000000
v -1.088840 1.018790 -0.000000
v -1.088840 0.719508 -0.000000
v -1.062260 0.420226 -0.000000
v -1.062260 1.617354 -0.299282
v -1.088840 1.318072 -0.299282
v -1.088840 1.018790 -0.299282
v -1.088840 0.719508 -0.299282
v -1.062260 0.420226 -0.299282
v -1.062260 1.617354 -0.598564
v -1.062260 1.318072 -0.598564
v -1.062260 1.018790 -0.598564
v -1.062260 0.719508 -0.598564
v -1.062260 0.420226 -0.598564
vn 0.0000 0.4709 0.8822
vn 0.0257 0.4495 0.8929
vn 0.0201 0.9003 0.4348
vn 0.0000 0.8922 0.4517
vn -0.0201 0.9003 0.4348
vn 0.3416 0.8756 -0.3416
vn 0.3416 0.3416 -0.8756
vn 0.8756 0.3416 -0.3416
vn 0.3416 -0.3416 -0.8756
vn 0.3416 -0.8756 -0.3416
vn 0.8756 -0.3416 -0.3416
vn 0.3416 0.8756 0.3416
vn 0.8756 0.3416 0.3416
vn 0.3416 0.3416 0.8756
vn 0.3416 -0.8756 0.3416
vn 0.3416 -0.3416 0.8756
vn 0.8756 -0.3416 0.3416
vn -0.3416 0.8756 -0.3416
vn -0.8756 0.3416 -0.3416
vn -0.3416 0.3416 -0.8756
vn -0.3416 -0.8756 -0.3416
vn -0.3416 -0.3416 -0.8756
vn -0.8756 -0.3416 -0.3416
vn -0.3416 0.8756 0.3416
vn -0.3416 0.3416 0.8756
vn -0.8756 0.3416 0.3416
vn -0.3416 -0.8756 0.3416
vn -0.8756 -0.3416 0.3416
vn -0.3416 -0.3416 0.8756
vn -0.0257 0.4495 0.8929
vn 0.0201 -0.9003 0.4348
vn 0.0000 -0.8922 0.4517
vn -0.0201 -0.9003 0.4348
vn -0.0257 -0.4495 0.8929
vn 0.0000 -0.4709 0.8822
vn 0.0257 -0.4495 0.8929
vn 0.0201 0.9003 -0.4348
vn 0.0000 0.8922 -0.4517
vn -0.0201 0.9003 -0.4348
vn -0.0257 0.4495 -0.8929
vn 0.0000 0.4709 -0.8822
vn 0.0257 0.4495 -0.8929
vn -0.0201 -0.9003 -0.4348
vn 0.0000 -0.8922 -0.4517
vn 0.0201 -0.9003 -0.4348
vn 0.0257 -0.4495 -0.8929
vn 0.0000 -0.4709 -0.8822
vn -0.0257 -0.4495 -0.8929
vn 0.4348 0.9003 0.0201
vn 0.4517 0.8922 0.0000
vn 0.4348 0.9003 -0.0201
vn 0.8912 0.4528 -0.0270
vn 0.8799 0.4752 0.0000
vn 0.8799 0.4753 0.0000
vn 0.8912 0.4528 0.0270
vn 0.4348 -0.9003 -0.0201
vn 0.4517 -0.8922 0.0000
vn 0.4348 -0.9003 0.0201
vn 0.8912 -0.4528 0.0270
vn 0.8799 -0.4752 0.0000
vn 0.8912 -0.4528 -0.0270
vn -0.4348 0.9003 -0.0201
vn -0.4517 0.8922 0.0000
vn -0.4348 0.9003 0.0201
vn -0.8912 0.4528 0.0270
vn -0.8799 0.4752 0.0000
vn -0.8799 0.4753 0.0000
vn -0.8912 0.4528 -0.0270
vn -0.4348 -0.9003 0.0201
vn -0.4517 -0.8922 0.0000
vn -0.4348 -0.9003 -0.0201
vn -0.8912 -0.4528 -0.0270
vn -0.8799 -0.4752 0.0000
vn -0.8912 -0.4528 0.0270
vn -0.0754 -0.9943 0.0754
vn -0.1074 -0.9942 0.0106
vn -0.1179 -0.9930 0.0000
vn -0.1074 -0.9942 -0.0106
vn -0.0754 -0.9943 -0.0754
vn -0.0106 -0.9942 0.1074
vn -0.0421 -0.9982 0.0421
vn -0.0422 -0.9991 0.0000
vn -0.0421 -0.9982 -0.0421
vn -0.0106 -0.9942 -0.1074
vn 0.0000 -0.9930 0.1179
vn 0.0000 -0.9991 0.0422
vn 0.0000 -1.0000 0.0000
vn 0.0000 -0.9991 -0.0422
vn 0.0000 -0.9930 -0.1179
vn 0.0106 -0.9942 0.1074
vn 0.0421 -0.9982 0.0421
vn 0.0422 -0.9991 0.0000
vn 0.0421 -0.9982 -0.0421
vn 0.0106 -0.9942 -0.1074
vn 0.0754 -0.9943 0.0754
vn 0.1074 -0.9942 0.0106
vn 0.1179 -0.9930 0.0000
vn 0.1074 -0.9942 -0.0106
vn 0.0754 -0.9943 -0.0754
vn 0.0754 0.9943 0.0754
vn 0.1074 0.9942 0.0106
vn 0.1179 0.9930 0.0000
vn 0.1074 0.9942 -0.0106
vn 0.0754 0.9943 -0.0754
vn 0.0106 0.9942 0.1074
vn 0.0421 0.9982 0.0421
vn 0.0422 0.9991 0.0000
vn 0.0421 0.9982 -0.0421
vn 0.0106 0.9942 -0.1074
vn 0.0000 0.9930 0.1179
vn 0.0000 0.9991 0.0422
vn 0.0000 1.0000 0.0000
vn 0.0000 0.9991 -0.0422
vn 0.0000 0.9930 -0.1179
vn -0.0106 0.9942 0.1074
vn -0.0421 0.9982 0.0421
vn -0.0422 0.9991 0.0000
vn -0.0421 0.9982 -0.0421
vn -0.0106 0.9942 -0.1074
vn -0.0754 0.9943 0.0754
vn -0.1074 0.9942 0.0106
vn -0.1179 0.9930 0.0000
vn -0.1074 0.9942 -0.0106
vn -0.0754 0.9943 -0.0754
vn 0.4495 0.0257 -0.8929
vn 0.4709 0.0000 -0.8822
vn 0.4495 -0.0257 -0.8929
vn 0.8912 -0.0270 -0.4528
vn 0.8799 0.0000 -0.4752
vn 0.8912 0.0270 -0.4528
vn 0.4495 -0.0257 0.8929
vn 0.4709 0.0000 0.8822
vn 0.4495 0.0257 0.8929
vn 0.8912 0.0270 0.4528
vn 0.8799 0.0000 0.4752
vn 0.8912 -0.0270 0.4528
vn -0.8912 -0.0270 0.4528
vn -0.8799 0.0000 0.4752
vn -0.8912 0.0270 0.4528
vn -0.4495 0.0257 0.8929
vn -0.4709 0.0000 0.8822
vn -0.4495 -0.0257 0.8929
vn -0.4495 -0.0257 -0.8929
vn -0.4709 0.0000 -0.8822
vn -0.4495 0.0257 -0.8929
vn -0.8912 0.0270 -0.4528
vn -0.8799 0.0000 -0.4752
vn -0.8912 -0.0270 -0.4528
vn 0.0965 -0.0965 0.9906
vn 0.1269 -0.0099 0.9919
vn 0.1366 0.0000 0.9906
vn 0.1269 0.0099 0.9919
vn 0.0965 0.0965 0.9906
vn 0.0099 -0.1269 0.9919
vn 0.0393 -0.0393 0.9985
vn 0.0394 0.0000 0.9992
vn 0.0393 0.0393 0.9985
vn 0.0099 0.1269 0.9919
vn 0.0000 -0.1366 0.9906
vn 0.0000 -0.0394 0.9992
vn 0.0000 0.0000 1.0000
vn 0.0000 0.0394 0.9992
vn 0.0000 0.1366 0.9906
vn -0.0099 -0.1269 0.9919
vn -0.0393 -0.0393 0.9985
vn -0.0394 0.0000 0.9992
vn -0.0393 0.0393 0.9985
vn -0.0099 0.1269 0.9919
vn -0.0965 -0.0965 0.9906
vn -0.1269 -0.0099 0.9919
vn -0.1366 0.0000 0.9906
vn -0.1269 0.0099 0.9919
vn -0.0965 0.0965 0.9906
vn -0.0965 -0.0965 -0.9906
vn -0.1269 -0.0099 -0.9919
vn -0.1366 0.0000 -0.9906
vn -0.1269 0.0099 -0.9919
vn -0.0965 0.0965 -0.9906
vn -0.0099 -0.1269 -0.9919
vn -0.0393 -0.0393 -0.9985
vn -0.0394 0.0000 -0.9992
vn -0.0393 0.0393 -0.9985
vn -0.0099 0.1269 -0.9919
vn 0.0000 -0.1366 -0.9906
vn 0.0000 -0.0394 -0.9992
vn 0.0000 0.0000 -1.0000
vn 0.0000 0.0394 -0.9992
vn 0.0000 0.1366 -0.9906
vn 0.0099 -0.1269 -0.9919
vn 0.0393 -0.0393 -0.9985
vn 0.0394 0.0000 -0.9992
vn 0.0393 0.0393 -0.9985
vn 0.0099 0.1269 -0.9919
vn 0.0965 -0.0965 -0.9906
vn 0.1269 -0.0099 -0.9919
vn 0.1366 0.0000 -0.9906
vn 0.1269 0.0099 -0.9919
vn 0.0965 0.0965 -0.9906
vn -0.9897 -0.1012 0.1012
vn -0.9907 -0.0111 0.1354
vn -0.9892 0.0000 0.1463
vn -0.9907 0.0111 0.1354
vn -0.9897 0.1012 0.1012
vn -0.9907 -0.1354 0.0111
vn -0.9980 -0.0442 0.0442
vn -0.9990 0.0000 0.0443
vn -0.9980 0.0442 0.0442
vn -0.9907 0.1354 0.0111
vn -0.9892 -0.1463 0.0000
vn -0.9990 -0.0443 0.0000
vn -1.0000 0.0000 0.0000
vn -0.9990 0.0443 0.0000
vn -0.9892 0.1463 0.0000
vn -0.9907 -0.1354 -0.0111
vn -0.9980 -0.0442 -0.0442
vn -0.9990 0.0000 -0.0443
vn -0.9980 0.0442 -0.0442
vn -0.9907 0.1354 -0.0111
vn -0.9897 -0.1012 -0.1012
vn -0.9907 -0.0111 -0.1354
vn -0.9892 0.0000 -0.1463
vn -0.9907 0.0111 -0.1354
vn -0.9897 0.1012 -0.1012
vn 0.9897 -0.1012 -0.1012
vn 0.9907 -0.0111 -0.1354
vn 0.9892 0.0000 -0.1463
vn 0.9907 0.0111 -0.1354
vn 0.9897 0.1012 -0.1012
vn 0.9907 -0.1354 -0.0111
vn 0.9980 -0.0442 -0.0442
vn 0.9990 0.0000 -0.0443
vn 0.9980 0.0442 -0.0442
vn 0.9907 0.1354 -0.0111
vn 0.9892 -0.1463 0.0000
vn 0.9990 -0.0443 0.0000
vn 1.0000 0.0000 0.0000
vn 0.9990 0.0443 0.0000
vn 0.9892 0.1463 0.0000
vn 0.9907 -0.1354 0.0111
vn 0.9980 -0.0442 0.0442
vn 0.9990 0.0000 0.0443
vn 0.9980 0.0442 0.0442
vn 0.9907 0.1354 0.0111
vn 0.9897 -0.1012 0.1012
vn 0.9907 -0.0111 0.1354
vn 0.9892 0.0000 0.1463
vn 0.9907 0.0111 0.1354
vn 0.9897 0.1012 0.1012
vt 0.612231 0.335461
vt 0.573756 0.374202
vt 0.574111 0.336171
vt 0.574821 0.260109
vt 0.612231 0.297519
vt 0.574466 0.298140
vt 0.631385 0.708333
vt 0.669859 0.747872
vt 0.631385 0.750000
vt 0.612231 0.411346
vt 0.573047 0.450264
vt 0.573402 0.412233
vt 0.612231 0.373404
vt 0.137769 0.737231
vt 0.137769 0.750000
vt 0.125000 0.737231
vt 0.612231 0.000000
vt 0.625000 0.012769
vt 0.612231 0.012769
vt 0.137769 0.512769
vt 0.125000 0.512769
vt 0.137769 0.500000
vt 0.625000 0.245744
vt 0.612231 0.259577
vt 0.612231 0.237231
vt 0.362231 0.737231
vt 0.384577 0.737231
vt 0.375000 0.756385
vt 0.612231 0.762769
vt 0.612231 0.740423
vt 0.362231 0.512769
vt 0.375000 0.493615
vt 0.384577 0.512769
vt 0.631385 0.500000
vt 0.612231 0.509577
vt 0.612231 0.487231
vt 0.125000 0.699821
vt 0.137769 0.699821
vt 0.574821 0.012769
vt 0.574821 0.000000
vt 0.612231 0.199821
vt 0.625000 0.206915
vt 0.387769 0.262769
vt 0.425179 0.237231
vt 0.425179 0.262237
vt 0.177308 0.498936
vt 0.175179 0.512769
vt 0.612231 0.449288
vt 0.630320 0.457624
vt 0.414538 0.492551
vt 0.422519 0.512237
vt 0.384577 0.550179
vt 0.362231 0.550179
vt 0.612231 0.701949
vt 0.422519 0.737763
vt 0.414538 0.757449
vt 0.335462 0.755320
vt 0.324821 0.737231
vt 0.625000 0.987231
vt 0.612231 0.949821
vt 0.626064 0.947692
vt 0.362231 0.699821
vt 0.324821 0.699821
vt 0.574821 0.237231
vt 0.574820 0.199821
vt 0.574821 0.987231
vt 0.574466 0.949643
vt 0.862231 0.699821
vt 0.823756 0.739359
vt 0.823756 0.701239
vt 0.572692 0.488295
vt 0.574288 0.739891
vt 0.574288 0.701594
vt 0.708333 0.705496
vt 0.669859 0.706915
vt 0.746808 0.704077
vt 0.708333 0.745744
vt 0.785282 0.702658
vt 0.746808 0.743615
vt 0.785282 0.741487
vt 0.572692 0.761705
vt 0.612231 0.800179
vt 0.573047 0.799293
vt 0.573402 0.836880
vt 0.612231 0.837590
vt 0.573756 0.874468
vt 0.612231 0.875000
vt 0.574111 0.912056
vt 0.612231 0.912410
vt 0.175179 0.737231
vt 0.212590 0.699820
vt 0.175179 0.699820
vt 0.250000 0.699821
vt 0.212590 0.737231
vt 0.287410 0.699820
vt 0.250000 0.737231
vt 0.287410 0.737231
vt 0.630320 0.789539
vt 0.629256 0.829077
vt 0.628192 0.868615
vt 0.627128 0.908154
vt 0.216846 0.752128
vt 0.177308 0.751064
vt 0.256385 0.753192
vt 0.295923 0.754256
vt 0.626064 0.288120
vt 0.627128 0.330496
vt 0.628192 0.372872
vt 0.629256 0.415248
vt 0.324821 0.512769
vt 0.295923 0.495744
vt 0.335462 0.494679
vt 0.287410 0.512769
vt 0.256385 0.496808
vt 0.250000 0.512769
vt 0.216846 0.497872
vt 0.212590 0.512769
vt 0.287410 0.550179
vt 0.324821 0.587590
vt 0.287410 0.587590
vt 0.287410 0.625000
vt 0.324821 0.625000
vt 0.287410 0.662410
vt 0.324821 0.662410
vt 0.250000 0.550179
vt 0.250000 0.587590
vt 0.250000 0.625000
vt 0.250000 0.662410
vt 0.212590 0.550179
vt 0.212590 0.587590
vt 0.212590 0.625000
vt 0.212590 0.662410
vt 0.175179 0.550179
vt 0.175179 0.587590
vt 0.175179 0.625000
vt 0.175179 0.662410
vt 0.137769 0.550179
vt 0.137769 0.587590
vt 0.137769 0.625000
vt 0.137769 0.662410
vt 0.823756 0.510641
vt 0.785282 0.547342
vt 0.785282 0.508513
vt 0.823756 0.586880
vt 0.785282 0.586171
vt 0.785282 0.625000
vt 0.823756 0.625000
vt 0.785282 0.663829
vt 0.823756 0.663120
vt 0.746808 0.545923
vt 0.746808 0.506385
vt 0.746808 0.585462
vt 0.746808 0.625000
vt 0.746808 0.664538
vt 0.708333 0.544504
vt 0.708333 0.504256
vt 0.708333 0.584752
vt 0.708333 0.625000
vt 0.708333 0.665248
vt 0.669859 0.543085
vt 0.669859 0.502128
vt 0.669859 0.584043
vt 0.669859 0.625000
vt 0.669859 0.665957
vt 0.574288 0.510109
vt 0.612231 0.548051
vt 0.574288 0.548406
vt 0.574288 0.586703
vt 0.612231 0.586526
vt 0.574288 0.625000
vt 0.612231 0.625000
vt 0.574288 0.663297
vt 0.612231 0.663474
vt 0.862231 0.550179
vt 0.823756 0.548761
vt 0.862231 0.587590
vt 0.862231 0.625000
vt 0.862231 0.662410
vt 0.612231 0.050179
vt 0.574820 0.050179
vt 0.574820 0.087590
vt 0.612231 0.087590
vt 0.574821 0.125000
vt 0.612231 0.125000
vt 0.574820 0.162410
vt 0.612231 0.162410
vt 0.324821 0.550179
vt 0.362231 0.587590
vt 0.362231 0.625000
vt 0.362231 0.662410
vt 0.631385 0.541667
vt 0.631385 0.583333
vt 0.631385 0.625000
vt 0.631385 0.666667
vt 0.384577 0.662410
vt 0.384577 0.699821
vt 0.384577 0.625000
vt 0.384577 0.587590
vt 0.625000 0.051598
vt 0.625000 0.090427
vt 0.625000 0.129256
vt 0.625000 0.168085
vt 0.125000 0.587590
vt 0.125000 0.550179
vt 0.125000 0.625000
vt 0.125000 0.662410
vt 0.425179 0.162410
vt 0.387769 0.199821
vt 0.387769 0.162410
vt 0.462590 0.199821
vt 0.425179 0.199821
vt 0.500000 0.162410
vt 0.462590 0.162410
vt 0.537410 0.199821
vt 0.500000 0.199821
vt 0.537410 0.162410
vt 0.425179 0.125000
vt 0.387769 0.125000
vt 0.500000 0.125000
vt 0.462590 0.125000
vt 0.537410 0.125000
vt 0.387769 0.087590
vt 0.425179 0.087590
vt 0.500000 0.087590
vt 0.462590 0.087590
vt 0.537410 0.087590
vt 0.387769 0.050179
vt 0.462590 0.050179
vt 0.425179 0.050179
vt 0.500000 0.050179
vt 0.537410 0.050179
vt 0.425179 0.012769
vt 0.387769 0.012769
vt 0.462590 0.012769
vt 0.500000 0.012769
vt 0.537410 0.012769
vt 0.422519 0.662588
vt 0.460461 0.700530
vt 0.422519 0.700175
vt 0.498404 0.662942
vt 0.460461 0.662765
vt 0.536346 0.701239
vt 0.498404 0.700885
vt 0.536346 0.663120
vt 0.422519 0.625000
vt 0.498404 0.625000
vt 0.460462 0.625000
vt 0.536346 0.625000
vt 0.422519 0.587412
vt 0.498404 0.587058
vt 0.460461 0.587235
vt 0.536346 0.586880
vt 0.460461 0.549470
vt 0.422519 0.549825
vt 0.498404 0.549115
vt 0.536346 0.548761
vt 0.460461 0.511705
vt 0.498404 0.511173
vt 0.536346 0.510641
vt 0.383513 0.910282
vt 0.423406 0.948934
vt 0.385641 0.948756
vt 0.421632 0.910637
vt 0.461171 0.949111
vt 0.497872 0.911346
vt 0.459752 0.910991
vt 0.536701 0.949466
vt 0.498936 0.949288
vt 0.535991 0.911701
vt 0.381385 0.871808
vt 0.419859 0.872340
vt 0.496808 0.873404
vt 0.458333 0.872872
vt 0.535282 0.873936
vt 0.379256 0.833333
vt 0.418085 0.834043
vt 0.495744 0.835462
vt 0.456915 0.834752
vt 0.534573 0.836171
vt 0.377128 0.794859
vt 0.455496 0.796632
vt 0.416312 0.795746
vt 0.494679 0.797519
vt 0.533863 0.798406
vt 0.454077 0.758513
vt 0.493615 0.759577
vt 0.533154 0.760641
vt 0.460462 0.738295
vt 0.498404 0.738827
vt 0.536346 0.739359
vt 0.377128 0.455141
vt 0.455496 0.453190
vt 0.416312 0.454166
vt 0.494679 0.452215
vt 0.454077 0.491487
vt 0.533863 0.451239
vt 0.493615 0.490423
vt 0.533154 0.489359
vt 0.425179 0.987231
vt 0.387769 0.987231
vt 0.462590 0.987231
vt 0.500000 0.987231
vt 0.537410 0.987231
vt 0.387769 0.237231
vt 0.462590 0.237231
vt 0.500000 0.237231
vt 0.537410 0.237231
vt 0.537410 0.260641
vt 0.500000 0.261173
vt 0.462590 0.261705
vt 0.425179 0.000000
vt 0.387769 0.000000
vt 0.462590 0.000000
vt 0.500000 0.000000
vt 0.537410 0.000000
vt 0.385641 0.301244
vt 0.421632 0.339008
vt 0.383513 0.339718
vt 0.461171 0.300002
vt 0.423406 0.300623
vt 0.498936 0.299381
vt 0.459752 0.338299
vt 0.535991 0.336880
vt 0.497872 0.337590
vt 0.536701 0.298761
vt 0.381385 0.378192
vt 0.418085 0.415780
vt 0.379256 0.416667
vt 0.419859 0.377394
vt 0.456915 0.414893
vt 0.496808 0.375798
vt 0.458333 0.376596
vt 0.534573 0.413120
vt 0.495744 0.414006
vt 0.535282 0.375000
vt 0.612231 0.987231
vt 0.862231 0.737231
vt 0.862231 0.512769
usemtl outline
f 200/3/154 205/2/159 43/1/35
f 195/6/149 44/5/36 165/4/131
f 24/9/21 55/8/43 99/7/71
f 210/12/164 215/11/169 41/10/35
f 205/2/159 210/12/164 42/13/35
f 195/6/149 200/3/154 44/5/36
f 11/16/8 10/15/7 9/14/6
f 14/19/11 13/18/10 12/17/9
f 17/22/14 16/21/13 15/20/12
f 20/25/17 19/24/16 18/23/15
f 23/28/20 22/27/19 21/26/18
f 26/30/23 25/29/22 24/9/21
f 29/33/26 28/32/25 27/31/24
f 32/36/29 31/35/28 30/34/27
f 69/38/51 70/37/52 9/14/6
f 159/40/127 160/39/128 12/17/9
f 79/42/58 80/41/59 18/23/15
f 169/45/133 170/44/134 17/43/14
f 4/47/3 3/46/2 15/20/12
f 39/49/33 40/48/34 30/34/27
f 179/51/139 180/50/140 29/33/26
f 89/53/64 90/52/65 27/31/24
f 99/7/71 100/54/72 24/9/21
f 189/56/145 190/55/146 23/28/20
f 49/58/39 50/57/40 21/26/18
f 59/61/45 60/60/46 13/59/10
f 154/63/124 49/58/39 85/62/62
f 290/65/244 174/64/136 80/41/59
f 240/67/194 159/66/127 60/60/46
f 129/70/99 59/69/45 75/68/56
f 215/11/169 184/71/142 40/48/34
f 265/73/219 194/72/148 100/54/72
f 109/75/79 55/8/43 114/74/84
f 114/74/84 56/77/44 119/76/89
f 119/76/89 57/79/44 124/78/94
f 124/78/94 58/80/44 129/70/99
f 220/83/174 64/82/48 185/81/143
f 220/83/174 225/84/179 64/82/48
f 225/84/179 230/86/184 63/85/47
f 230/86/184 235/88/189 62/87/47
f 235/88/189 240/67/194 61/89/47
f 9/14/6 45/90/37 69/38/51
f 134/92/104 45/90/37 139/91/109
f 139/91/109 46/94/38 144/93/114
f 144/93/114 47/96/38 149/95/119
f 149/95/119 48/97/38 154/63/124
f 24/9/21 25/29/22 55/98/43
f 64/82/48 63/85/47 55/98/43
f 63/85/47 62/87/47 56/99/44
f 62/87/47 61/89/47 57/100/44
f 61/89/47 60/60/46 58/101/44
f 9/14/6 10/15/7 45/90/37
f 54/103/42 53/102/41 45/90/37
f 53/102/41 52/104/41 46/94/38
f 52/104/41 51/105/41 47/96/38
f 51/105/41 50/57/40 48/97/38
f 18/23/15 19/24/16 35/106/31
f 44/5/36 43/1/35 35/106/31
f 43/1/35 42/13/35 36/107/32
f 42/13/35 41/10/35 37/108/32
f 41/10/35 40/48/34 38/109/32
f 27/31/24 28/32/25 8/110/5
f 34/112/30 33/111/1 8/110/5
f 33/111/1 1/114/1 7/113/4
f 1/114/1 2/116/1 6/115/4
f 2/116/1 3/46/2 5/117/4
f 7/113/4 145/118/115 8/110/5
f 146/120/116 151/119/121 145/118/115
f 146/120/116 147/121/117 151/119/121
f 147/121/117 148/123/118 152/122/122
f 148/123/118 149/95/119 153/124/123
f 6/115/4 140/125/110 7/113/4
f 140/125/110 141/126/111 145/118/115
f 141/126/111 142/127/112 146/120/116
f 142/127/112 143/128/113 147/121/117
f 143/128/113 144/93/114 148/123/118
f 5/117/4 135/129/105 6/115/4
f 135/129/105 136/130/106 140/125/110
f 136/130/106 137/131/107 141/126/111
f 137/131/107 138/132/108 142/127/112
f 138/132/108 139/91/109 143/128/113
f 4/47/3 130/133/100 5/117/4
f 130/133/100 131/134/101 135/129/105
f 131/134/101 132/135/102 136/130/106
f 132/135/102 133/136/103 137/131/107
f 134/92/104 139/91/109 133/136/103
f 15/20/12 65/137/49 4/47/3
f 65/137/49 66/138/50 130/133/100
f 66/138/50 67/139/50 131/134/101
f 67/139/50 68/140/50 132/135/102
f 68/140/50 69/38/51 133/136/103
f 36/143/32 120/142/90 35/141/31
f 121/145/91 126/144/96 120/142/90
f 121/145/91 122/146/92 126/144/96
f 122/146/92 123/148/93 127/147/97
f 123/148/93 124/78/94 128/149/98
f 37/151/32 115/150/85 36/143/32
f 115/150/85 116/152/86 120/142/90
f 116/152/86 117/153/87 121/145/91
f 117/153/87 118/154/88 122/146/92
f 118/154/88 119/76/89 123/148/93
f 38/156/32 110/155/80 37/151/32
f 110/155/80 111/157/81 115/150/85
f 111/157/81 112/158/82 116/152/86
f 112/158/82 113/159/83 117/153/87
f 113/159/83 114/74/84 118/154/88
f 39/161/33 105/160/75 38/156/32
f 105/160/75 106/162/76 110/155/80
f 106/162/76 107/163/77 111/157/81
f 107/163/77 108/164/78 112/158/82
f 109/75/79 114/74/84 108/164/78
f 245/167/199 104/166/74 175/165/137
f 245/167/199 250/168/204 104/166/74
f 250/168/204 255/170/209 103/169/73
f 255/170/209 260/172/214 102/171/73
f 260/172/214 265/73/219 101/173/73
f 125/175/95 79/174/58 35/141/31
f 126/144/96 78/176/57 125/175/95
f 127/147/97 77/177/57 126/144/96
f 128/149/98 76/178/57 127/147/97
f 129/70/99 75/68/56 128/149/98
f 270/180/224 84/179/61 160/39/128
f 270/180/224 275/181/229 84/179/61
f 275/181/229 280/183/234 83/182/60
f 280/183/234 285/185/239 82/184/60
f 285/185/239 290/65/244 81/186/60
f 150/187/120 89/53/64 8/110/5
f 151/119/121 88/188/63 150/187/120
f 152/122/122 87/189/63 151/119/121
f 153/124/123 86/190/63 152/122/122
f 154/63/124 85/62/62 153/124/123
f 30/34/27 31/35/28 95/191/69
f 104/166/74 103/169/73 95/191/69
f 103/169/73 102/171/73 96/192/70
f 102/171/73 101/173/73 97/193/70
f 101/173/73 100/54/72 98/194/70
f 21/26/18 22/27/19 85/62/62
f 94/196/68 93/195/66 85/62/62
f 93/195/66 92/197/67 86/190/63
f 92/197/67 91/198/66 87/189/63
f 91/198/66 90/52/65 88/188/63
f 13/18/10 14/19/11 75/199/56
f 84/179/61 83/182/60 75/199/56
f 83/182/60 82/184/60 76/200/57
f 82/184/60 81/186/60 77/201/57
f 81/186/60 80/41/59 78/202/57
f 15/20/12 16/21/13 65/137/49
f 74/204/55 73/203/53 65/137/49
f 73/203/53 72/205/54 66/138/50
f 72/205/54 71/206/53 67/139/50
f 71/206/53 70/37/52 68/140/50
f 30/34/27 95/191/69 39/161/33
f 95/191/69 96/192/70 105/160/75
f 96/192/70 97/193/70 106/162/76
f 97/193/70 98/194/70 107/163/77
f 98/194/70 99/7/71 108/164/78
f 73/209/53 74/208/55 289/207/243
f 294/211/248 293/210/247 289/207/243
f 288/213/242 293/210/247 287/212/241
f 292/215/246 291/214/245 287/212/241
f 286/216/240 291/214/245 285/185/239
f 72/218/54 73/209/53 284/217/238
f 289/207/243 288/213/242 284/217/238
f 283/220/237 288/213/242 282/219/236
f 287/212/241 286/216/240 282/219/236
f 286/216/240 285/185/239 281/221/235
f 72/218/54 284/217/238 71/222/53
f 284/217/238 283/220/237 279/223/233
f 278/225/232 283/220/237 277/224/231
f 282/219/236 281/221/235 277/224/231
f 281/221/235 280/183/234 276/226/230
f 71/222/53 279/223/233 70/227/52
f 274/229/228 279/223/233 273/228/227
f 273/228/227 278/225/232 272/230/226
f 277/224/231 276/226/230 272/230/226
f 276/226/230 275/181/229 271/231/225
f 11/233/8 70/227/52 164/232/130
f 164/232/130 274/229/228 163/234/129
f 163/234/129 273/228/227 162/235/129
f 162/235/129 272/230/226 161/236/129
f 161/236/129 271/231/225 160/39/128
f 93/195/66 94/196/68 264/237/218
f 269/239/223 268/238/222 264/237/218
f 263/241/217 268/238/222 262/240/216
f 267/243/221 266/242/220 262/240/216
f 261/244/215 266/242/220 260/172/214
f 92/197/67 93/195/66 259/245/213
f 264/237/218 263/241/217 259/245/213
f 258/247/212 263/241/217 257/246/211
f 262/240/216 261/244/215 257/246/211
f 261/244/215 260/172/214 256/248/210
f 92/197/67 259/245/213 91/198/66
f 259/245/213 258/247/212 254/249/208
f 253/251/207 258/247/212 252/250/206
f 257/246/211 256/248/210 252/250/206
f 256/248/210 255/170/209 251/252/205
f 91/198/66 254/249/208 90/52/65
f 249/254/203 254/249/208 248/253/202
f 248/253/202 253/251/207 247/255/201
f 252/250/206 251/252/205 247/255/201
f 251/252/205 250/168/204 246/256/200
f 29/33/26 90/52/65 179/51/139
f 179/51/139 249/254/203 178/257/138
f 178/257/138 248/253/202 177/258/138
f 177/258/138 247/255/201 176/259/138
f 176/259/138 246/256/200 175/165/137
f 54/262/42 244/261/198 53/260/41
f 244/261/198 243/264/197 239/263/193
f 238/266/192 243/264/197 237/265/191
f 242/268/196 241/267/195 237/265/191
f 236/269/190 241/267/195 235/88/189
f 53/260/41 239/263/193 52/270/41
f 239/263/193 238/266/192 234/271/188
f 233/273/187 238/266/192 232/272/186
f 237/265/191 236/269/190 232/272/186
f 231/274/185 236/269/190 230/86/184
f 52/270/41 234/271/188 51/275/41
f 234/271/188 233/273/187 229/276/183
f 228/278/182 233/273/187 227/277/181
f 232/272/186 231/274/185 227/277/181
f 231/274/185 230/86/184 226/279/180
f 51/275/41 229/276/183 50/280/40
f 224/282/178 229/276/183 223/281/177
f 223/281/177 228/278/182 222/283/176
f 227/277/181 226/279/180 222/283/176
f 226/279/180 225/84/179 221/284/175
f 23/28/20 50/280/40 189/56/145
f 189/56/145 224/282/178 188/285/144
f 188/285/144 223/281/177 187/286/144
f 187/286/144 222/283/176 186/287/144
f 186/287/144 221/284/175 185/81/143
f 22/27/19 190/55/146 94/196/68
f 269/239/223 190/55/146 268/238/222
f 268/238/222 191/288/147 267/243/221
f 267/243/221 192/289/147 266/242/220
f 266/242/220 193/290/147 265/73/219
f 28/32/25 180/50/140 34/291/30
f 219/293/173 180/50/140 218/292/172
f 218/292/172 181/295/141 217/294/171
f 217/294/171 182/297/141 216/296/170
f 216/296/170 183/298/141 215/11/169
f 10/300/7 155/299/125 54/262/42
f 244/261/198 155/299/125 243/264/197
f 243/264/197 156/301/126 242/268/196
f 242/268/196 157/302/126 241/267/195
f 241/267/195 158/303/126 240/67/194
f 16/304/13 170/44/134 74/208/55
f 294/211/248 170/44/134 293/210/247
f 293/210/247 171/305/135 292/215/246
f 292/215/246 172/306/135 291/214/245
f 291/214/245 173/307/135 290/65/244
f 25/29/22 26/30/23 185/81/143
f 194/72/148 193/290/147 185/81/143
f 193/290/147 192/289/147 186/287/144
f 192/289/147 191/288/147 187/286/144
f 191/288/147 190/55/146 188/285/144
f 31/35/28 32/36/29 175/165/137
f 184/71/142 183/298/141 175/165/137
f 183/298/141 182/297/141 176/259/138
f 182/297/141 181/295/141 177/258/138
f 181/295/141 180/50/140 178/257/138
f 19/24/16 20/25/17 165/4/131
f 174/64/136 173/307/135 165/4/131
f 173/307/135 172/306/135 166/308/132
f 172/306/135 171/305/135 167/309/132
f 171/305/135 170/44/134 168/310/132
f 10/312/7 11/233/8 155/311/125
f 164/232/130 163/234/129 155/311/125
f 163/234/129 162/235/129 156/313/126
f 162/235/129 161/236/129 157/314/126
f 161/236/129 160/39/128 158/315/126
f 2/318/1 204/317/158 3/316/2
f 199/320/153 204/317/158 198/319/152
f 198/319/152 203/322/157 197/321/151
f 202/324/156 201/323/155 197/321/151
f 201/323/155 200/3/154 196/325/150
f 33/328/1 214/327/168 1/326/1
f 214/327/168 213/330/167 209/329/163
f 208/332/162 213/330/167 207/331/161
f 212/334/166 211/333/165 207/331/161
f 206/335/160 211/333/165 205/2/159
f 34/291/30 219/293/173 33/328/1
f 219/293/173 218/292/172 214/327/168
f 213/330/167 218/292/172 212/334/166
f 217/294/171 216/296/170 212/334/166
f 211/333/165 216/296/170 210/12/164
f 17/43/14 3/316/2 169/45/133
f 169/45/133 199/320/153 168/310/132
f 168/310/132 198/319/152 167/309/132
f 167/309/132 197/321/151 166/308/132
f 166/308/132 196/325/150 165/4/131
f 1/326/1 209/329/163 2/318/1
f 209/329/163 208/332/162 204/317/158
f 203/322/157 208/332/162 202/324/156
f 207/331/161 206/335/160 202/324/156
f 206/335/160 205/2/159 201/323/155
f 205/2/159 42/13/35 43/1/35
f 44/5/36 19/24/16 165/4/131
f 55/8/43 109/75/79 99/7/71
f 215/11/169 40/48/34 41/10/35
f 210/12/164 41/10/35 42/13/35
f 200/3/154 43/1/35 44/5/36
f 70/37/52 11/16/8 9/14/6
f 160/39/128 14/19/11 12/17/9
f 80/41/59 20/25/17 18/23/15
f 170/44/134 16/304/13 17/43/14
f 3/46/2 17/22/14 15/20/12
f 40/48/34 32/36/29 30/34/27
f 180/50/140 28/32/25 29/33/26
f 90/52/65 29/33/26 27/31/24
f 100/54/72 26/30/23 24/9/21
f 190/55/146 22/27/19 23/28/20
f 50/57/40 23/28/20 21/26/18
f 60/60/46 12/336/9 13/59/10
f 49/58/39 21/26/18 85/62/62
f 174/64/136 20/25/17 80/41/59
f 159/66/127 12/336/9 60/60/46
f 59/69/45 13/337/10 75/68/56
f 184/71/142 32/36/29 40/48/34
f 194/72/148 26/30/23 100/54/72
f 55/8/43 56/77/44 114/74/84
f 56/77/44 57/79/44 119/76/89
f 57/79/44 58/80/44 124/78/94
f 58/80/44 59/69/45 129/70/99
f 64/82/48 25/29/22 185/81/143
f 225/84/179 63/85/47 64/82/48
f 230/86/184 62/87/47 63/85/47
f 235/88/189 61/89/47 62/87/47
f 240/67/194 60/60/46 61/89/47
f 45/90/37 134/92/104 69/38/51
f 45/90/37 46/94/38 139/91/109
f 46/94/38 47/96/38 144/93/114
f 47/96/38 48/97/38 149/95/119
f 48/97/38 49/58/39 154/63/124
f 25/29/22 64/82/48 55/98/43
f 63/85/47 56/99/44 55/98/43
f 62/87/47 57/100/44 56/99/44
f 61/89/47 58/101/44 57/100/44
f 60/60/46 59/61/45 58/101/44
f 10/15/7 54/103/42 45/90/37
f 53/102/41 46/94/38 45/90/37
f 52/104/41 47/96/38 46/94/38
f 51/105/41 48/97/38 47/96/38
f 50/57/40 49/58/39 48/97/38
f 19/24/16 44/5/36 35/106/31
f 43/1/35 36/107/32 35/106/31
f 42/13/35 37/108/32 36/107/32
f 41/10/35 38/109/32 37/108/32
f 40/48/34 39/49/33 38/109/32
f 28/32/25 34/112/30 8/110/5
f 33/111/1 7/113/4 8/110/5
f 1/114/1 6/115/4 7/113/4
f 2/116/1 5/117/4 6/115/4
f 3/46/2 4/47/3 5/117/4
f 145/118/115 150/187/120 8/110/5
f 151/119/121 150/187/120 145/118/115
f 147/121/117 152/122/122 151/119/121
f 148/123/118 153/124/123 152/122/122
f 149/95/119 154/63/124 153/124/123
f 140/125/110 145/118/115 7/113/4
f 141/126/111 146/120/116 145/118/115
f 142/127/112 147/121/117 146/120/116
f 143/128/113 148/123/118 147/121/117
f 144/93/114 149/95/119 148/123/118
f 135/129/105 140/125/110 6/115/4
f 136/130/106 141/126/111 140/125/110
f 137/131/107 142/127/112 141/126/111
f 138/132/108 143/128/113 142/127/112
f 139/91/109 144/93/114 143/128/113
f 130/133/100 135/129/105 5/117/4
f 131/134/101 136/130/106 135/129/105
f 132/135/102 137/131/107 136/130/106
f 133/136/103 138/132/108 137/131/107
f 139/91/109 138/132/108 133/136/103
f 65/137/49 130/133/100 4/47/3
f 66/138/50 131/134/101 130/133/100
f 67/139/50 132/135/102 131/134/101
f 68/140/50 133/136/103 132/135/102
f 69/38/51 134/92/104 133/136/103
f 120/142/90 125/175/95 35/141/31
f 126/144/96 125/175/95 120/142/90
f 122/146/92 127/147/97 126/144/96
f 123/148/93 128/149/98 127/147/97
f 124/78/94 129/70/99 128/149/98
f 115/150/85 120/142/90 36/143/32
f 116/152/86 121/145/91 120/142/90
f 117/153/87 122/146/92 121/145/91
f 118/154/88 123/148/93 122/146/92
f 119/76/89 124/78/94 123/148/93
f 110/155/80 115/150/85 37/151/32
f 111/157/81 116/152/86 115/150/85
f 112/158/82 117/153/87 116/152/86
f 113/159/83 118/154/88 117/153/87
f 114/74/84 119/76/89 118/154/88
f 105/160/75 110/155/80 38/156/32
f 106/162/76 111/157/81 110/155/80
f 107/163/77 112/158/82 111/157/81
f 108/164/78 113/159/83 112/158/82
f 114/74/84 113/159/83 108/164/78
f 104/166/74 31/35/28 175/165/137
f 250/168/204 103/169/73 104/166/74
f 255/170/209 102/171/73 103/169/73
f 260/172/214 101/173/73 102/171/73
f 265/73/219 100/54/72 101/173/73
f 79/174/58 18/338/15 35/141/31
f 78/176/57 79/174/58 125/175/95
f 77/177/57 78/176/57 126/144/96
f 76/178/57 77/177/57 127/147/97
f 75/68/56 76/178/57 128/149/98
f 84/179/61 14/19/11 160/39/128
f 275/181/229 83/182/60 84/179/61
f 280/183/234 82/184/60 83/182/60
f 285/185/239 81/186/60 82/184/60
f 290/65/244 80/41/59 81/186/60
f 89/53/64 27/31/24 8/110/5
f 88/188/63 89/53/64 150/187/120
f 87/189/63 88/188/63 151/119/121
f 86/190/63 87/189/63 152/122/122
f 85/62/62 86/190/63 153/124/123
f 31/35/28 104/166/74 95/191/69
f 103/169/73 96/192/70 95/191/69
f 102/171/73 97/193/70 96/192/70
f 101/173/73 98/194/70 97/193/70
f 100/54/72 99/7/71 98/194/70
f 22/27/19 94/196/68 85/62/62
f 93/195/66 86/190/63 85/62/62
f 92/197/67 87/189/63 86/190/63
f 91/198/66 88/188/63 87/189/63
f 90/52/65 89/53/64 88/188/63
f 14/19/11 84/179/61 75/199/56
f 83/182/60 76/200/57 75/199/56
f 82/184/60 77/201/57 76/200/57
f 81/186/60 78/202/57 77/201/57
f 80/41/59 79/42/58 78/202/57
f 16/21/13 74/204/55 65/137/49
f 73/203/53 66/138/50 65/137/49
f 72/205/54 67/139/50 66/138/50
f 71/206/53 68/140/50 67/139/50
f 70/37/52 69/38/51 68/140/50
f 95/191/69 105/160/75 39/161/33
f 96/192/70 106/162/76 105/160/75
f 97/193/70 107/163/77 106/162/76
f 98/194/70 108/164/78 107/163/77
f 99/7/71 109/75/79 108/164/78
f 74/208/55 294/211/248 289/207/243
f 293/210/247 288/213/242 289/207/243
f 293/210/247 292/215/246 287/212/241
f 291/214/245 286/216/240 287/212/241
f 291/214/245 290/65/244 285/185/239
f 73/209/53 289/207/243 284/217/238
f 288/213/242 283/220/237 284/217/238
f 288/213/242 287/212/241 282/219/236
f 286/216/240 281/221/235 282/219/236
f 285/185/239 280/183/234 281/221/235
f 284/217/238 279/223/233 71/222/53
f 283/220/237 278/225/232 279/223/233
f 283/220/237 282/219/236 277/224/231
f 281/221/235 276/226/230 277/224/231
f 280/183/234 275/181/229 276/226/230
f 279/223/233 274/229/228 70/227/52
f 279/223/233 278/225/232 273/228/227
f 278/225/232 277/224/231 272/230/226
f 276/226/230 271/231/225 272/230/226
f 275/181/229 270/180/224 271/231/225
f 70/227/52 274/229/228 164/232/130
f 274/229/228 273/228/227 163/234/129
f 273/228/227 272/230/226 162/235/129
f 272/230/226 271/231/225 161/236/129
f 271/231/225 270/180/224 160/39/128
f 94/196/68 269/239/223 264/237/218
f 268/238/222 263/241/217 264/237/218
f 268/238/222 267/243/221 262/240/216
f 266/242/220 261/244/215 262/240/216
f 266/242/220 265/73/219 260/172/214
f 93/195/66 264/237/218 259/245/213
f 263/241/217 258/247/212 259/245/213
f 263/241/217 262/240/216 257/246/211
f 261/244/215 256/248/210 257/246/211
f 260/172/214 255/170/209 256/248/210
f 259/245/213 254/249/208 91/198/66
f 258/247/212 253/251/207 254/249/208
f 258/247/212 257/246/211 252/250/206
f 256/248/210 251/252/205 252/250/206
f 255/170/209 250/168/204 251/252/205
f 254/249/208 249/254/203 90/52/65
f 254/249/208 253/251/207 248/253/202
f 253/251/207 252/250/206 247/255/201
f 251/252/205 246/256/200 247/255/201
f 250/168/204 245/167/199 246/256/200
f 90/52/65 249/254/203 179/51/139
f 249/254/203 248/253/202 178/257/138
f 248/253/202 247/255/201 177/258/138
f 247/255/201 246/256/200 176/259/138
f 246/256/200 245/167/199 175/165/137
f 244/261/198 239/263/193 53/260/41
f 243/264/197 238/266/192 239/263/193
f 243/264/197 242/268/196 237/265/191
f 241/267/195 236/269/190 237/265/191
f 241/267/195 240/67/194 235/88/189
f 239/263/193 234/271/188 52/270/41
f 238/266/192 233/273/187 234/271/188
f 238/266/192 237/265/191 232/272/186
f 236/269/190 231/274/185 232/272/186
f 236/269/190 235/88/189 230/86/184
f 234/271/188 229/276/183 51/275/41
f 233/273/187 228/278/182 229/276/183
f 233/273/187 232/272/186 227/277/181
f 231/274/185 226/279/180 227/277/181
f 230/86/184 225/84/179 226/279/180
f 229/276/183 224/282/178 50/280/40
f 229/276/183 228/278/182 223/281/177
f 228/278/182 227/277/181 222/283/176
f 226/279/180 221/284/175 222/283/176
f 225/84/179 220/83/174 221/284/175
f 50/280/40 224/282/178 189/56/145
f 224/282/178 223/281/177 188/285/144
f 223/281/177 222/283/176 187/286/144
f 222/283/176 221/284/175 186/287/144
f 221/284/175 220/83/174 185/81/143
f 190/55/146 269/239/223 94/196/68
f 190/55/146 191/288/147 268/238/222
f 191/288/147 192/289/147 267/243/221
f 192/289/147 193/290/147 266/242/220
f 193/290/147 194/72/148 265/73/219
f 180/50/140 219/293/173 34/291/30
f 180/50/140 181/295/141 218/292/172
f 181/295/141 182/297/141 217/294/171
f 182/297/141 183/298/141 216/296/170
f 183/298/141 184/71/142 215/11/169
f 155/299/125 244/261/198 54/262/42
f 155/299/125 156/301/126 243/264/197
f 156/301/126 157/302/126 242/268/196
f 157/302/126 158/303/126 241/267/195
f 158/303/126 159/66/127 240/67/194
f 170/44/134 294/211/248 74/208/55
f 170/44/134 171/305/135 293/210/247
f 171/305/135 172/306/135 292/215/246
f 172/306/135 173/307/135 291/214/245
f 173/307/135 174/64/136 290/65/244
f 26/30/23 194/72/148 185/81/143
f 193/290/147 186/287/144 185/81/143
f 192/289/147 187/286/144 186/287/144
f 191/288/147 188/285/144 187/286/144
f 190/55/146 189/56/145 188/285/144
f 32/36/29 184/71/142 175/165/137
f 183/298/141 176/259/138 175/165/137
f 182/297/141 177/258/138 176/259/138
f 181/295/141 178/257/138 177/258/138
f 180/50/140 179/51/139 178/257/138
f 20/25/17 174/64/136 165/4/131
f 173/307/135 166/308/132 165/4/131
f 172/306/135 167/309/132 166/308/132
f 171/305/135 168/310/132 167/309/132
f 170/44/134 169/45/133 168/310/132
f 11/233/8 164/232/130 155/311/125
f 163/234/129 156/313/126 155/311/125
f 162/235/129 157/314/126 156/313/126
f 161/236/129 158/315/126 157/314/126
f 160/39/128 159/40/127 158/315/126
f 204/317/158 199/320/153 3/316/2
f 204/317/158 203/322/157 198/319/152
f 203/322/157 202/324/156 197/321/151
f 201/323/155 196/325/150 197/321/151
f 200/3/154 195/6/149 196/325/150
f 214/327/168 209/329/163 1/326/1
f 213/330/167 208/332/162 209/329/163
f 213/330/167 212/334/166 207/331/161
f 211/333/165 206/335/160 207/331/161
f 211/333/165 210/12/164 205/2/159
f 219/293/173 214/327/168 33/328/1
f 218/292/172 213/330/167 214/327/168
f 218/292/172 217/294/171 212/334/166
f 216/296/170 211/333/165 212/334/166
f 216/296/170 215/11/169 210/12/164
f 3/316/2 199/320/153 169/45/133
f 199/320/153 198/319/152 168/310/132
f 198/319/152 197/321/151 167/309/132
f 197/321/151 196/325/150 166/308/132
f 196/325/150 195/6/149 165/4/131
f 209/329/163 204/317/158 2/318/1
f 208/332/162 203/322/157 204/317/158
f 208/332/162 207/331/161 202/324/156
f 206/335/160 201/323/155 202/324/156
f 205/2/159 200/3/154 201/323/155
