mtllib goalPiece_outline.mtl
v 0.121691 0.311036 -0.794330
v 0.121691 0.887565 -0.794330
v 0.298816 0.311036 -0.776885
v 0.298816 0.887565 -0.776885
v 0.469133 0.311036 -0.725220
v 0.469133 0.887565 -0.725220
v 0.626099 0.311036 -0.641320
v 0.626099 0.887565 -0.641320
v 0.763680 0.311036 -0.528410
v 0.763680 0.887565 -0.528410
v 0.876590 0.311036 -0.390829
v 0.876590 0.887565 -0.390829
v 0.960490 0.311036 -0.233863
v 0.960490 0.887565 -0.233863
v 1.012155 0.311036 -0.063546
v 1.012155 0.887565 -0.063546
v 1.029601 0.311036 0.113579
v 1.029601 0.887565 0.113579
v 1.012155 0.311036 0.290703
v 1.012155 0.887565 0.290703
v 0.960490 0.311036 0.461020
v 0.960490 0.887565 0.461020
v 0.876590 0.311036 0.617986
v 0.876590 0.887565 0.617986
v 0.763680 0.311036 0.755567
v 0.763680 0.887565 0.755567
v 0.626099 0.311036 0.868477
v 0.626099 0.887565 0.868477
v 0.469133 0.311036 0.952377
v 0.469133 0.887565 0.952377
v 0.298816 0.311036 1.004043
v 0.298816 0.887565 1.004043
v 0.121691 0.311036 1.021488
v 0.121691 0.887565 1.021488
v -0.055433 0.311036 1.004043
v -0.055433 0.887565 1.004043
v -0.225750 0.311036 0.952377
v -0.225750 0.887565 0.952377
v -0.382716 0.311036 0.868477
v -0.382716 0.887565 0.868477
v -0.520297 0.311036 0.755567
v -0.520297 0.887565 0.755567
v -0.633207 0.311036 0.617986
v -0.633207 0.887565 0.617986
v -0.717107 0.311036 0.461020
v -0.717107 0.887565 0.461020
v -0.768772 0.311036 0.290703
v -0.768772 0.887565 0.290703
v -0.786218 0.311036 0.113579
v -0.786218 0.887565 0.113579
v -0.768772 0.311036 -0.063546
v -0.768772 0.887565 -0.063546
v -0.717107 0.311036 -0.233863
v -0.717107 0.887565 -0.233863
v -0.633207 0.311036 -0.390829
v -0.633207 0.887565 -0.390829
v -0.520297 0.311036 -0.528410
v -0.520297 0.887565 -0.528410
v -0.382716 0.311036 -0.641320
v -0.382716 0.887565 -0.641320
v -0.225750 0.311036 -0.725220
v -0.225750 0.887565 -0.725220
v -0.055433 0.311036 -0.776885
v -0.055433 0.887565 -0.776885
v -0.455196 0.887565 0.113579
v -0.411283 0.887565 0.334344
v -0.444111 0.887565 0.226124
v -0.444111 0.887565 0.001033
v -0.357973 0.887565 0.434080
v -0.357973 0.887565 -0.206923
v -0.411283 0.887565 -0.107187
v -0.286230 0.887565 -0.294342
v -0.198810 0.887565 0.593243
v -0.198810 0.887565 -0.366086
v 0.121691 0.887565 -0.463309
v 0.009146 0.887565 -0.452224
v 0.342457 0.887565 -0.419396
v 0.234237 0.887565 -0.452224
v -0.099074 0.887565 -0.419396
v -0.286230 0.887565 0.521500
v -0.099074 0.887565 0.646553
v 0.121691 0.887565 0.690466
v 0.234237 0.887565 0.679381
v 0.009146 0.887565 0.679381
v 0.342457 0.887565 0.646553
v 0.442193 0.887565 -0.366086
v 0.442193 0.887565 0.593243
v 0.601356 0.887565 -0.206923
v 0.601356 0.887565 0.434080
v 0.529612 0.887565 -0.294342
v 0.698579 0.887565 0.113579
v 0.687494 0.887565 0.001033
v 0.654666 0.887565 0.334344
v 0.687494 0.887565 0.226124
v 0.654666 0.887565 -0.107187
v 0.529612 0.887565 0.521500
v 0.121691 0.311036 -0.463309
v 0.234237 0.311036 -0.452224
v 0.342457 0.311036 0.646553
v 0.442193 0.311036 -0.366086
v 0.442193 0.311036 0.593243
v 0.234237 0.311036 0.679381
v 0.342457 0.311036 -0.419396
v 0.601356 0.311036 0.434080
v 0.529612 0.311036 0.521500
v 0.601356 0.311036 -0.206923
v 0.698579 0.311036 0.113579
v 0.687494 0.311036 0.001033
v 0.654666 0.311036 0.334344
v 0.687494 0.311036 0.226124
v 0.654666 0.311036 -0.107187
v 0.529612 0.311036 -0.294342
v -0.455196 0.311036 0.113579
v -0.411283 0.311036 0.334344
v -0.444111 0.311036 0.226124
v -0.444111 0.311036 0.001033
v -0.357973 0.311036 0.434080
v -0.357973 0.311036 -0.206923
v -0.286230 0.311036 0.521500
v -0.411283 0.311036 -0.107187
v -0.099074 0.311036 -0.419396
v -0.198810 0.311036 0.593243
v -0.198810 0.311036 -0.366086
v 0.009146 0.311036 -0.452224
v 0.121691 0.311036 0.690466
v 0.009146 0.311036 0.679381
v -0.099074 0.311036 0.646553
v -0.286230 0.311036 -0.294342
v 0.000000 0.004555 -1.000000
v -0.000000 0.309650 -0.297744
v 0.195090 0.004555 -0.980785
v 0.058087 0.309650 -0.292023
v 0.382683 0.004555 -0.923880
v 0.113942 0.309650 -0.275079
v 0.555570 0.004555 -0.831470
v 0.165417 0.309650 -0.247565
v 0.707107 0.004555 -0.707107
v 0.210537 0.309650 -0.210537
v 0.831470 0.004555 -0.555570
v 0.247565 0.309650 -0.165417
v 0.923880 0.004555 -0.382683
v 0.275079 0.309650 -0.113942
v 0.980785 0.004555 -0.195090
v 0.292023 0.309650 -0.058087
v 1.000000 0.004555 0.000000
v 0.297744 0.309650 0.000000
v 0.980785 0.004555 0.195090
v 0.292023 0.309650 0.058087
v 0.923880 0.004555 0.382683
v 0.275079 0.309650 0.113942
v 0.831470 0.004555 0.555570
v 0.247565 0.309650 0.165417
v 0.707107 0.004555 0.707107
v 0.210537 0.309650 0.210537
v 0.555570 0.004555 0.831470
v 0.165417 0.309650 0.247565
v 0.382683 0.004555 0.923880
v 0.113942 0.309650 0.275079
v 0.195090 0.004555 0.980785
v 0.058087 0.309650 0.292023
v 0.000000 0.004555 1.000000
v -0.000000 0.309650 0.297744
v -0.195090 0.004555 0.980785
v -0.058087 0.309650 0.292023
v -0.382683 0.004555 0.923880
v -0.113942 0.309650 0.275079
v -0.555570 0.004555 0.831470
v -0.165418 0.309650 0.247565
v -0.707107 0.004555 0.707107
v -0.210537 0.309650 0.210537
v -0.831470 0.004555 0.555570
v -0.247565 0.309650 0.165417
v -0.923880 0.004555 0.382683
v -0.275079 0.309650 0.113942
v -0.980785 0.004555 0.195090
v -0.292023 0.309650 0.058087
v -1.000000 0.004555 0.000000
v -0.297744 0.309650 0.000000
v -0.980785 0.004555 -0.195090
v -0.292023 0.309650 -0.058087
v -0.923880 0.004555 -0.382683
v -0.275079 0.309650 -0.113942
v -0.831470 0.004555 -0.555570
v -0.247565 0.309650 -0.165417
v -0.707107 0.004555 -0.707107
v -0.210537 0.309650 -0.210537
v -0.555570 0.004555 -0.831470
v -0.165418 0.309650 -0.247565
v -0.382683 0.004555 -0.923880
v -0.113942 0.309650 -0.275079
v -0.195090 0.004555 -0.980785
v -0.058087 0.309650 -0.292023
v 0.195090 0.309650 -0.980785
v 0.000000 0.309650 -1.000000
v 0.382683 0.309650 -0.923880
v 0.555570 0.309650 -0.831470
v 0.707107 0.309650 -0.707107
v 0.831470 0.309650 -0.555570
v 0.923880 0.309650 -0.382683
v 0.980785 0.309650 -0.195090
v 1.000000 0.309650 0.000000
v 0.980785 0.309650 0.195090
v 0.923880 0.309650 0.382683
v 0.831470 0.309650 0.555570
v 0.707107 0.309650 0.707107
v 0.555570 0.309650 0.831470
v 0.382683 0.309650 0.923880
v 0.195090 0.309650 0.980785
v 0.000000 0.309650 1.000000
v -0.195090 0.309650 0.980785
v -0.382683 0.309650 0.923880
v -0.555570 0.309650 0.831470
v -0.707107 0.309650 0.707107
v -0.831470 0.309650 0.555570
v -0.923880 0.309650 0.382683
v -0.980785 0.309650 0.195090
v -1.000000 0.309650 0.000000
v -0.980785 0.309650 -0.195090
v -0.923880 0.309650 -0.382683
v -0.831470 0.309650 -0.555570
v -0.707107 0.309650 -0.707107
v -0.555570 0.309650 -0.831470
v -0.382683 0.309650 -0.923880
v -0.195090 0.309650 -0.980785
v 0.058087 3.581375 -0.292023
v 0.000000 3.581375 -0.297744
v 0.113942 3.581375 -0.275079
v 0.165418 3.581375 -0.247565
v 0.210537 3.581375 -0.210537
v 0.247565 3.581375 -0.165417
v 0.275079 3.581375 -0.113942
v 0.292023 3.581375 -0.058087
v 0.297744 3.581375 0.000000
v 0.292023 3.581375 0.058087
v 0.275079 3.581375 0.113942
v 0.247565 3.581375 0.165417
v 0.210537 3.581375 0.210537
v 0.165418 3.581375 0.247565
v 0.113942 3.581375 0.275079
v 0.058087 3.581375 0.292023
v 0.000000 3.581375 0.297744
v -0.058087 3.581375 0.292023
v -0.113941 3.581375 0.275079
v -0.165417 3.581375 0.247565
v -0.210536 3.581375 0.210537
v -0.247565 3.581375 0.165417
v -0.275079 3.581375 0.113942
v -0.292022 3.581375 0.058087
v -0.297744 3.581375 0.000000
v -0.292022 3.581375 -0.058087
v -0.275079 3.581375 -0.113942
v -0.247565 3.581375 -0.165417
v -0.210536 3.581375 -0.210537
v -0.165417 3.581375 -0.247565
v -0.113941 3.581375 -0.275079
v -0.058087 3.581375 -0.292023
v 0.000000 4.263285 -0.233785
v 0.000000 4.263285 0.234165
v 0.012532 4.238403 -0.232040
v 0.012532 4.238403 0.232420
v 0.092647 4.080581 -0.232507
v 0.092647 4.080581 0.232887
v 0.273153 4.055333 -0.210556
v 0.273153 4.055333 0.210936
v 0.265465 4.048162 -0.230935
v 0.265465 4.048162 0.231315
v 0.152990 3.920949 -0.231301
v 0.152990 3.920949 0.231681
v 0.183465 3.764305 -0.229494
v 0.183465 3.764305 0.229874
v 0.169177 3.773640 -0.230724
v 0.169177 3.773640 0.231104
v 0.000000 3.853589 -0.230496
v 0.000000 3.853589 0.230875
v -0.169177 3.773640 -0.230724
v -0.169177 3.773640 0.231104
v -0.183465 3.764305 -0.229494
v -0.183465 3.764305 0.229874
v -0.152990 3.920949 -0.231301
v -0.152990 3.920949 0.231681
v -0.265465 4.048162 -0.230935
v -0.265465 4.048162 0.231315
v -0.273153 4.055333 -0.210556
v -0.273153 4.055333 0.210936
v -0.092647 4.080581 -0.232507
v -0.092647 4.080581 0.232887
v -0.012532 4.238403 -0.232040
v -0.012532 4.238403 0.232420
v -0.000000 4.535040 -0.122988
v 0.101690 4.334194 -0.122988
v 0.101690 4.334194 0.123368
v -0.000000 4.535040 0.123368
v 0.174636 4.190462 -0.122988
v 0.174636 4.190462 0.123368
v 0.521899 4.143088 -0.111415
v 0.521899 4.143088 0.111795
v 0.391438 3.997557 -0.122988
v 0.391438 3.997557 0.123368
v 0.288177 3.880740 -0.122988
v 0.288177 3.880740 0.123368
v 0.359266 3.515643 -0.122988
v 0.359266 3.515643 0.123368
v 0.155750 3.647309 -0.122988
v 0.155750 3.647309 0.123368
v -0.000000 3.720928 -0.122988
v -0.000000 3.720928 0.123368
v -0.155750 3.647309 -0.122988
v -0.155750 3.647309 0.123368
v -0.359266 3.515643 -0.122988
v -0.359266 3.515643 0.123368
v -0.288177 3.880740 -0.122988
v -0.288177 3.880740 0.123368
v -0.391438 3.997557 -0.122988
v -0.391438 3.997557 0.123368
v -0.521899 4.143088 -0.111415
v -0.521899 4.143088 0.111795
v -0.174636 4.190462 -0.122988
v -0.174636 4.190462 0.123368
v -0.101690 4.334194 -0.122988
v -0.101690 4.334194 0.123368
v -0.000000 4.718742 -0.028320
v -0.000000 4.718742 0.028700
v 0.135323 4.451467 0.028700
v 0.135323 4.451467 -0.028320
v 0.232395 4.260197 0.028700
v 0.232395 4.260197 -0.028320
v 0.694514 4.197154 0.026021
v 0.694514 4.197154 -0.025642
v 0.520904 4.003489 0.028700
v 0.520904 4.003489 -0.028320
v 0.383490 3.848036 0.028700
v 0.383490 3.848036 -0.028320
v 0.478091 3.362184 0.028700
v 0.478091 3.362184 -0.028320
v 0.207264 3.537398 0.028700
v 0.207264 3.537398 -0.028320
v -0.000000 3.635366 0.028700
v -0.000000 3.635366 -0.028320
v -0.207264 3.537398 0.028700
v -0.207264 3.537398 -0.028320
v -0.478091 3.362184 0.028700
v -0.478091 3.362184 -0.028320
v -0.383490 3.848036 0.028700
v -0.383490 3.848036 -0.028320
v -0.520904 4.003489 0.028700
v -0.520904 4.003489 -0.028320
v -0.694514 4.197154 0.026021
v -0.694514 4.197154 -0.025642
v -0.232395 4.260197 0.028700
v -0.232395 4.260197 -0.028320
v -0.135323 4.451467 0.028700
v -0.135323 4.451467 -0.028320
v -0.786279 0.893127 0.693513
v -0.786279 1.469656 0.693513
v -0.888812 0.893127 0.548034
v -0.888812 1.469656 0.548034
v -0.960993 0.893127 0.385346
v -0.960993 1.469656 0.385346
v -1.000049 0.893127 0.211703
v -1.000049 1.469656 0.211703
v -1.004478 0.893127 0.033777
v -1.004478 1.469656 0.033777
v -0.974110 0.893127 -0.141595
v -0.974110 1.469656 -0.141595
v -0.910112 0.893127 -0.307672
v -0.910112 1.469656 -0.307672
v -0.814944 0.893127 -0.458073
v -0.814944 1.469656 -0.458073
v -0.692263 0.893127 -0.587017
v -0.692263 1.469656 -0.587017
v -0.546784 0.893127 -0.689550
v -0.546784 1.469656 -0.689550
v -0.384096 0.893127 -0.761732
v -0.384096 1.469656 -0.761732
v -0.210453 0.893127 -0.800787
v -0.210453 1.469656 -0.800787
v -0.032527 0.893127 -0.805216
v -0.032527 1.469656 -0.805216
v 0.142845 0.893127 -0.774848
v 0.142845 1.469656 -0.774848
v 0.308922 0.893127 -0.710851
v 0.308922 1.469656 -0.710851
v 0.459323 0.893127 -0.615683
v 0.459323 1.469656 -0.615683
v 0.588267 0.893127 -0.493001
v 0.588267 1.469656 -0.493001
v 0.690801 0.893127 -0.347522
v 0.690801 1.469656 -0.347522
v 0.762982 0.893127 -0.184834
v 0.762982 1.469656 -0.184834
v 0.802037 0.893127 -0.011191
v 0.802037 1.469656 -0.011191
v 0.806466 0.893127 0.166735
v 0.806466 1.469656 0.166735
v 0.776098 0.893127 0.342107
v 0.776098 1.469656 0.342107
v 0.712101 0.893127 0.508184
v 0.712101 1.469656 0.508184
v 0.616933 0.893127 0.658585
v 0.616933 1.469656 0.658585
v 0.494252 0.893127 0.787529
v 0.494252 1.469656 0.787529
v 0.348772 0.893127 0.890062
v 0.348772 1.469656 0.890062
v 0.186084 0.893127 0.962243
v 0.186084 1.469656 0.962243
v 0.012441 0.893127 1.001299
v 0.012441 1.469656 1.001299
v -0.165485 0.893127 1.005728
v -0.165485 1.469656 1.005728
v -0.340856 0.893127 0.975360
v -0.340856 1.469656 0.975360
v -0.506934 0.893127 0.911362
v -0.506934 1.469656 0.911362
v -0.657335 0.893127 0.816194
v -0.657335 1.469656 0.816194
v 0.277951 1.469656 0.536951
v 0.416373 1.469656 0.359454
v 0.355903 1.469656 0.455019
v 0.185513 1.469656 0.602101
v 0.457037 1.469656 0.253928
v -0.028192 1.469656 0.672781
v 0.082141 1.469656 0.647965
v -0.141247 1.469656 0.675595
v 0.473519 1.469656 0.029442
v -0.252678 1.469656 0.656299
v -0.535701 1.469656 0.477213
v -0.453769 1.469656 0.555165
v -0.646715 1.469656 0.281403
v -0.600851 1.469656 0.384775
v -0.358204 1.469656 0.615635
v 0.476333 1.469656 0.142497
v 0.448703 1.469656 -0.080891
v 0.337689 1.469656 -0.276701
v 0.255758 1.469656 -0.354653
v 0.402839 1.469656 -0.184263
v 0.160193 1.469656 -0.415123
v -0.671531 1.469656 0.171070
v 0.054667 1.469656 -0.455787
v -0.655049 1.469656 -0.053417
v -0.169819 1.469656 -0.472269
v -0.674345 1.469656 0.058015
v -0.475963 1.469656 -0.336439
v -0.553915 1.469656 -0.254507
v -0.280153 1.469656 -0.447453
v -0.383525 1.469656 -0.401589
v -0.614385 1.469656 -0.158942
v -0.056765 1.469656 -0.475083
v -0.535701 0.893127 0.477213
v -0.600851 0.893127 0.384775
v 0.160193 0.893127 -0.415123
v -0.671531 0.893127 0.171070
v 0.054667 0.893127 -0.455787
v 0.255758 0.893127 -0.354653
v -0.646715 0.893127 0.281403
v -0.169819 0.893127 -0.472269
v -0.056765 0.893127 -0.475083
v -0.655049 0.893127 -0.053417
v -0.475963 0.893127 -0.336439
v -0.553915 0.893127 -0.254507
v -0.280153 0.893127 -0.447453
v -0.383525 0.893127 -0.401589
v -0.614385 0.893127 -0.158942
v -0.674345 0.893127 0.058015
v 0.277951 0.893127 0.536951
v 0.416373 0.893127 0.359454
v 0.355903 0.893127 0.455019
v 0.185513 0.893127 0.602101
v 0.457037 0.893127 0.253928
v -0.028192 0.893127 0.672781
v 0.476333 0.893127 0.142497
v 0.082141 0.893127 0.647965
v -0.358204 0.893127 0.615635
v 0.473519 0.893127 0.029442
v -0.252678 0.893127 0.656299
v -0.453769 0.893127 0.555165
v 0.337689 0.893127 -0.276701
v 0.402839 0.893127 -0.184263
v 0.448703 0.893127 -0.080891
v -0.141247 0.893127 0.675595
v 0.233559 1.474542 -0.626989
v 0.233559 2.051070 -0.626989
v 0.403131 1.474542 -0.572928
v 0.403131 2.051070 -0.572928
v 0.558899 1.474542 -0.486823
v 0.558899 2.051070 -0.486823
v 0.694875 1.474542 -0.371985
v 0.694875 2.051070 -0.371985
v 0.805834 1.474542 -0.232826
v 0.805834 2.051070 -0.232826
v 0.887513 1.474542 -0.074693
v 0.887513 2.051070 -0.074693
v 0.936772 1.474542 0.096336
v 0.936772 2.051070 0.096336
v 0.951718 1.474542 0.273689
v 0.951718 2.051070 0.273689
v 0.931778 1.474542 0.450549
v 0.931778 2.051070 0.450549
v 0.877717 1.474542 0.620122
v 0.877717 2.051070 0.620122
v 0.791612 1.474542 0.775889
v 0.791612 2.051070 0.775889
v 0.676774 1.474542 0.911865
v 0.676774 2.051070 0.911865
v 0.537615 1.474542 1.022824
v 0.537615 2.051070 1.022824
v 0.379482 1.474542 1.104503
v 0.379482 2.051070 1.104503
v 0.208453 1.474542 1.153762
v 0.208453 2.051070 1.153762
v 0.031100 1.474542 1.168708
v 0.031100 2.051070 1.168708
v -0.145760 1.474542 1.148768
v -0.145760 2.051070 1.148768
v -0.315333 1.474542 1.094707
v -0.315333 2.051070 1.094707
v -0.471100 1.474542 1.008602
v -0.471100 2.051070 1.008602
v -0.607076 1.474542 0.893764
v -0.607076 2.051070 0.893764
v -0.718035 1.474542 0.754605
v -0.718035 2.051070 0.754605
v -0.799714 1.474542 0.596472
v -0.799714 2.051070 0.596472
v -0.848973 1.474542 0.425443
v -0.848973 2.051070 0.425443
v -0.863919 1.474542 0.248091
v -0.863919 2.051070 0.248091
v -0.843979 1.474542 0.071230
v -0.843979 2.051070 0.071230
v -0.789918 1.474542 -0.098342
v -0.789918 2.051070 -0.098342
v -0.703814 1.474542 -0.254110
v -0.703814 2.051070 -0.254110
v -0.588975 1.474542 -0.390086
v -0.588975 2.051070 -0.390086
v -0.449816 1.474542 -0.501045
v -0.449816 2.051070 -0.501045
v -0.291683 1.474542 -0.582724
v -0.291683 2.051070 -0.582724
v -0.120654 1.474542 -0.631983
v -0.120654 2.051070 -0.631983
v 0.056698 1.474542 -0.646929
v 0.056698 2.051070 -0.646929
v -0.520261 2.051070 0.140379
v -0.523434 2.051070 0.365447
v -0.532931 2.051070 0.252757
v -0.485910 2.051070 0.032633
v -0.492134 2.051070 0.474119
v -0.358231 2.051070 -0.152742
v -0.431199 2.051070 -0.066342
v -0.269808 2.051070 -0.223245
v -0.369732 2.051070 0.663020
v -0.169331 2.051070 -0.275144
v 0.164410 2.051070 -0.303270
v 0.052032 2.051070 -0.315941
v 0.371131 2.051070 -0.214209
v 0.272156 2.051070 -0.268920
v -0.060658 2.051070 -0.306444
v -0.440236 2.051070 0.574597
v -0.283332 2.051070 0.735988
v -0.076611 2.051070 0.825050
v 0.035767 2.051070 0.837720
v -0.184357 2.051070 0.790699
v 0.148457 2.051070 0.828223
v 0.457530 2.051070 -0.141240
v 0.257129 2.051070 0.796923
v 0.579933 2.051070 0.047660
v 0.446029 2.051070 0.674521
v 0.528034 2.051070 -0.052818
v 0.608059 2.051070 0.381400
v 0.620730 2.051070 0.269022
v 0.518998 2.051070 0.588121
v 0.573709 2.051070 0.489146
v 0.611233 2.051070 0.156332
v 0.357607 2.051070 0.745025
v 0.164410 1.474542 -0.303270
v 0.272156 1.474542 -0.268920
v 0.148457 1.474542 0.828223
v 0.457530 1.474542 -0.141240
v 0.257129 1.474542 0.796923
v 0.035767 1.474542 0.837720
v 0.371131 1.474542 -0.214209
v 0.446029 1.474542 0.674521
v 0.357607 1.474542 0.745025
v 0.579933 1.474542 0.047660
v 0.608059 1.474542 0.381400
v 0.620730 1.474542 0.269022
v 0.518998 1.474542 0.588121
v 0.573709 1.474542 0.489146
v 0.611233 1.474542 0.156332
v 0.528034 1.474542 -0.052818
v -0.520261 1.474542 0.140379
v -0.523434 1.474542 0.365447
v -0.532931 1.474542 0.252757
v -0.485910 1.474542 0.032633
v -0.492134 1.474542 0.474119
v -0.358231 1.474542 -0.152742
v -0.440236 1.474542 0.574597
v -0.431199 1.474542 -0.066342
v -0.060658 1.474542 -0.306444
v -0.369732 1.474542 0.663020
v -0.169331 1.474542 -0.275144
v 0.052032 1.474542 -0.315941
v -0.076611 1.474542 0.825050
v -0.184357 1.474542 0.790699
v -0.283332 1.474542 0.735988
v -0.269808 1.474542 -0.223245
v -0.591194 2.052952 -0.762642
v -0.591194 2.629481 -0.762642
v -0.430897 2.052952 -0.839987
v -0.430897 2.629481 -0.839987
v -0.258591 2.052952 -0.884574
v -0.258591 2.629481 -0.884574
v -0.080898 2.052952 -0.894689
v -0.080898 2.629481 -0.894689
v 0.095355 2.052952 -0.869943
v 0.095355 2.629481 -0.869943
v 0.263393 2.052952 -0.811288
v 0.263393 2.629481 -0.811288
v 0.416760 2.052952 -0.720977
v 0.416760 2.629481 -0.720977
v 0.549560 2.052952 -0.602481
v 0.549560 2.629481 -0.602481
v 0.656692 2.052952 -0.460354
v 0.656692 2.629481 -0.460354
v 0.734037 2.052952 -0.300057
v 0.734037 2.629481 -0.300057
v 0.778624 2.052952 -0.127751
v 0.778624 2.629481 -0.127751
v 0.788739 2.052952 0.049943
v 0.788739 2.629481 0.049943
v 0.763994 2.052952 0.226195
v 0.763994 2.629481 0.226195
v 0.705338 2.052952 0.394234
v 0.705338 2.629481 0.394234
v 0.615027 2.052952 0.547600
v 0.615027 2.629481 0.547600
v 0.496531 2.052952 0.680401
v 0.496531 2.629481 0.680401
v 0.354404 2.052952 0.787533
v 0.354404 2.629481 0.787533
v 0.194107 2.052952 0.864878
v 0.194107 2.629481 0.864878
v 0.021801 2.052952 0.909465
v 0.021801 2.629481 0.909465
v -0.155892 2.052952 0.919580
v -0.155892 2.629481 0.919580
v -0.332145 2.052952 0.894834
v -0.332145 2.629481 0.894834
v -0.500183 2.052952 0.836179
v -0.500183 2.629481 0.836179
v -0.653550 2.052952 0.745868
v -0.653550 2.629481 0.745868
v -0.786350 2.052952 0.627372
v -0.786350 2.629481 0.627372
v -0.893482 2.052952 0.485245
v -0.893482 2.629481 0.485245
v -0.970827 2.052952 0.324948
v -0.970827 2.629481 0.324948
v -1.015414 2.052952 0.152642
v -1.015414 2.629481 0.152642
v -1.025529 2.052952 -0.025052
v -1.025529 2.629481 -0.025052
v -1.000784 2.052952 -0.201304
v -1.000784 2.629481 -0.201304
v -0.942128 2.052952 -0.369343
v -0.942128 2.629481 -0.369343
v -0.851817 2.052952 -0.522709
v -0.851817 2.629481 -0.522709
v -0.733321 2.052952 -0.655510
v -0.733321 2.629481 -0.655510
v -0.610887 2.629481 0.312863
v -0.458434 2.629481 0.478464
v -0.542815 2.629481 0.403171
v -0.660033 2.629481 0.211010
v -0.360984 2.629481 0.535848
v -0.694790 2.629481 -0.011380
v -0.688363 2.629481 0.101527
v -0.679067 2.629481 -0.123372
v -0.142221 2.629481 0.588841
v -0.641797 2.629481 -0.230144
v -0.418813 2.629481 -0.480047
v -0.509121 2.629481 -0.411975
v -0.207476 2.629481 -0.557523
v -0.316960 2.629481 -0.529192
v -0.584413 2.629481 -0.327593
v -0.254212 2.629481 0.573117
v -0.029314 2.629481 0.582414
v 0.182023 2.629481 0.504938
v 0.272331 2.629481 0.436866
v 0.080170 2.629481 0.554083
v 0.347623 2.629481 0.352484
v -0.094569 2.629481 -0.563950
v 0.405007 2.629481 0.255035
v 0.124194 2.629481 -0.510957
v 0.458000 2.629481 0.036271
v 0.017422 2.629481 -0.548226
v 0.374097 2.629481 -0.287972
v 0.306025 2.629481 -0.378280
v 0.451573 2.629481 -0.076636
v 0.423243 2.629481 -0.186119
v 0.221643 2.629481 -0.453573
v 0.442277 2.629481 0.148263
v -0.418813 2.052952 -0.480047
v -0.316960 2.052952 -0.529192
v 0.347623 2.052952 0.352484
v -0.094569 2.052952 -0.563950
v 0.405007 2.052952 0.255035
v 0.272331 2.052952 0.436866
v -0.207476 2.052952 -0.557523
v 0.458000 2.052952 0.036271
v 0.442277 2.052952 0.148263
v 0.124194 2.052952 -0.510957
v 0.374097 2.052952 -0.287972
v 0.306025 2.052952 -0.378280
v 0.451573 2.052952 -0.076636
v 0.423243 2.052952 -0.186119
v 0.221643 2.052952 -0.453573
v 0.017422 2.052952 -0.548226
v -0.610887 2.052952 0.312863
v -0.458434 2.052952 0.478464
v -0.542815 2.052952 0.403171
v -0.660033 2.052952 0.211010
v -0.360984 2.052952 0.535848
v -0.694790 2.052952 -0.011380
v -0.254212 2.052952 0.573117
v -0.688363 2.052952 0.101527
v -0.584413 2.052952 -0.327593
v -0.142221 2.052952 0.588841
v -0.641797 2.052952 -0.230144
v -0.509121 2.052952 -0.411975
v 0.182023 2.052952 0.504938
v 0.080170 2.052952 0.554083
v -0.029314 2.052952 0.582414
v -0.679067 2.052952 -0.123372
vn 0.0000 0.0000 1.0000
vn -0.1951 0.0000 0.9808
vn -0.3827 0.0000 0.9239
vn -0.5556 0.0000 0.8315
vn -0.7071 0.0000 0.7071
vn -0.8315 0.0000 0.5556
vn -0.9239 0.0000 0.3827
vn -0.9808 0.0000 0.1951
vn -1.0000 0.0000 0.0000
vn -0.9808 0.0000 -0.1951
vn -0.9239 0.0000 -0.3827
vn -0.8315 0.0000 -0.5556
vn -0.7071 0.0000 -0.7071
vn -0.5556 0.0000 -0.8315
vn -0.3827 0.0000 -0.9239
vn -0.1951 0.0000 -0.9808
vn 0.0000 0.0000 -1.0000
vn 0.1951 0.0000 -0.9808
vn 0.3827 0.0000 -0.9239
vn 0.5556 0.0000 -0.8315
vn 0.7071 0.0000 -0.7071
vn 0.8315 0.0000 -0.5556
vn 0.9239 0.0000 -0.3827
vn 0.9808 0.0000 -0.1951
vn 1.0000 0.0000 0.0000
vn 0.9808 0.0000 0.1951
vn 0.9239 0.0000 0.3827
vn 0.8315 0.0000 0.5556
vn 0.7071 0.0000 0.7071
vn 0.5556 0.0000 0.8315
vn 0.3827 0.0000 0.9239
vn 0.0000 -1.0000 0.0000
vn 0.1951 0.0000 0.9808
vn 0.0000 1.0000 0.0000
vn 0.0000 -0.4417 -0.8971
vn -0.8348 -0.4231 -0.3523
vn 0.0000 -0.9074 -0.4203
vn -0.6347 -0.3204 -0.7032
vn -0.5242 -0.7408 -0.4199
vn -0.3839 -0.1885 -0.9039
vn -0.8487 -0.3092 -0.4291
vn -0.6939 0.6040 -0.3921
vn -0.5090 0.4053 -0.7594
vn -0.8667 0.2277 -0.4438
vn -0.1841 0.3843 -0.9047
vn -0.5105 0.7479 -0.4243
vn 0.4738 0.8242 -0.3102
vn 0.3507 0.6446 -0.6793
vn 0.0000 0.9178 -0.3970
vn -0.3507 0.6446 -0.6793
vn -0.4737 0.8242 -0.3102
vn 0.1841 0.3843 -0.9047
vn 0.5104 0.7479 -0.4243
vn 0.8667 0.2277 -0.4438
vn 0.5090 0.4053 -0.7594
vn 0.6939 0.6040 -0.3921
vn 0.3839 -0.1885 -0.9039
vn 0.8487 -0.3092 -0.4291
vn 0.5242 -0.7408 -0.4199
vn 0.0000 0.2502 -0.9682
vn -0.2254 0.0675 -0.9719
vn -0.1567 -0.1903 -0.9691
vn 0.6347 -0.3204 -0.7032
vn 0.8348 -0.4231 -0.3522
vn 0.0000 0.2502 0.9682
vn 0.2254 0.0675 0.9719
vn 0.1567 -0.1903 0.9691
vn 0.0000 -0.2732 0.9620
vn -0.6347 -0.3204 0.7032
vn -0.3264 -0.1416 0.9346
vn 0.0000 -0.2732 -0.9620
vn -0.4032 -0.5155 0.7561
vn -0.1567 -0.1903 0.9691
vn -0.3264 -0.1416 -0.9346
vn -0.4032 -0.5155 -0.7561
vn -0.3828 -0.6231 0.6820
vn -0.3839 -0.1885 0.9039
vn -0.3828 -0.6231 -0.6820
vn -0.5090 0.4053 0.7594
vn -0.4159 -0.3323 0.8465
vn -0.6155 0.1689 0.7698
vn -0.2254 0.0675 0.9719
vn -0.4159 -0.3323 -0.8465
vn -0.6155 0.1689 -0.7698
vn -0.1661 0.2526 0.9532
vn -0.1841 0.3843 0.9047
vn -0.1661 0.2526 -0.9532
vn 0.3507 0.6446 0.6793
vn 0.1207 0.3072 0.9440
vn 0.0000 0.6764 0.7365
vn 0.1207 0.3072 -0.9440
vn 0.0000 0.6764 -0.7365
vn -0.1207 0.3072 0.9440
vn -0.3507 0.6446 0.6793
vn -0.1207 0.3072 -0.9440
vn 0.1661 0.2526 0.9532
vn 0.1841 0.3843 0.9047
vn 0.1661 0.2526 -0.9532
vn 0.6155 0.1689 0.7698
vn 0.6155 0.1689 -0.7698
vn 0.4159 -0.3323 0.8465
vn 0.5090 0.4053 0.7594
vn 0.4159 -0.3323 -0.8465
vn 0.2254 0.0675 -0.9719
vn 0.3828 -0.6231 0.6820
vn 0.3839 -0.1885 0.9039
vn 0.3828 -0.6231 -0.6820
vn 0.4032 -0.5155 0.7561
vn 0.4032 -0.5155 -0.7561
vn 0.3264 -0.1416 0.9346
vn 0.6347 -0.3204 0.7032
vn 0.3264 -0.1416 -0.9346
vn 0.1567 -0.1903 -0.9691
vn 0.0000 -0.4417 0.8971
vn 0.8348 -0.4231 0.3523
vn 0.0000 -0.9074 0.4203
vn 0.5242 -0.7408 0.4199
vn 0.8487 -0.3092 0.4291
vn 0.6939 0.6040 0.3921
vn 0.8667 0.2277 0.4438
vn 0.5105 0.7479 0.4243
vn -0.4738 0.8242 0.3102
vn 0.0000 0.9178 0.3970
vn 0.4737 0.8242 0.3102
vn -0.5104 0.7479 0.4243
vn -0.8667 0.2277 0.4438
vn -0.6939 0.6040 0.3921
vn -0.8487 -0.3092 0.4291
vn -0.5242 -0.7408 0.4199
vn -0.8348 -0.4231 0.3522
vn 0.7570 0.0000 -0.6534
vn 0.8699 0.0000 -0.4932
vn 0.9494 0.0000 -0.3140
vn 0.9924 0.0000 -0.1227
vn 0.9924 0.0000 -0.1228
vn 0.9973 0.0000 0.0732
vn 0.9639 0.0000 0.2664
vn 0.8934 0.0000 0.4493
vn 0.7886 0.0000 0.6150
vn 0.6534 0.0000 0.7570
vn 0.4932 0.0000 0.8699
vn 0.3140 0.0000 0.9494
vn 0.1227 0.0000 0.9924
vn 0.1228 0.0000 0.9924
vn -0.0732 0.0000 0.9973
vn -0.2664 0.0000 0.9639
vn -0.4493 0.0000 0.8934
vn -0.6150 0.0000 0.7886
vn -0.7570 0.0000 0.6534
vn -0.8699 0.0000 0.4932
vn -0.9494 0.0000 0.3140
vn -0.9924 0.0000 0.1227
vn -0.9924 0.0000 0.1228
vn -0.9973 0.0000 -0.0732
vn -0.9639 0.0000 -0.2664
vn -0.8934 0.0000 -0.4493
vn -0.7886 0.0000 -0.6150
vn -0.6534 0.0000 -0.7570
vn -0.4932 0.0000 -0.8699
vn -0.3140 0.0000 -0.9494
vn -0.1227 0.0000 -0.9924
vn -0.1228 0.0000 -0.9924
vn 0.0732 0.0000 -0.9973
vn 0.2664 0.0000 -0.9639
vn 0.4493 0.0000 -0.8934
vn 0.6150 0.0000 -0.7886
vn -0.2089 0.0000 0.9779
vn -0.3957 0.0000 0.9184
vn -0.5672 0.0000 0.8236
vn -0.7170 0.0000 0.6971
vn -0.8392 0.0000 0.5438
vn -0.9292 0.0000 0.3696
vn -0.9834 0.0000 0.1812
vn -0.9999 0.0000 -0.0141
vn -0.9779 0.0000 -0.2089
vn -0.9184 0.0000 -0.3957
vn -0.8236 0.0000 -0.5672
vn -0.6971 0.0000 -0.7170
vn -0.5438 0.0000 -0.8392
vn -0.3696 0.0000 -0.9292
vn -0.1812 0.0000 -0.9834
vn 0.0141 0.0000 -0.9999
vn 0.2089 0.0000 -0.9779
vn 0.3957 0.0000 -0.9184
vn 0.5672 0.0000 -0.8236
vn 0.7170 0.0000 -0.6971
vn 0.8392 0.0000 -0.5438
vn 0.9292 0.0000 -0.3696
vn 0.9834 0.0000 -0.1812
vn 0.9999 0.0000 0.0141
vn 0.9779 0.0000 0.2089
vn 0.9184 0.0000 0.3957
vn 0.8236 0.0000 0.5672
vn 0.6971 0.0000 0.7170
vn 0.5438 0.0000 0.8392
vn 0.3696 0.0000 0.9292
vn 0.1812 0.0000 0.9834
vn -0.0141 0.0000 0.9999
vn 0.5208 0.0000 0.8537
vn 0.3442 0.0000 0.9389
vn 0.1544 0.0000 0.9880
vn -0.0413 0.0000 0.9991
vn -0.2354 0.0000 0.9719
vn -0.4205 0.0000 0.9073
vn -0.5894 0.0000 0.8078
vn -0.7357 0.0000 0.6773
vn -0.8537 0.0000 0.5208
vn -0.9389 0.0000 0.3442
vn -0.9880 0.0000 0.1544
vn -0.9991 0.0000 -0.0413
vn -0.9719 0.0000 -0.2354
vn -0.9073 0.0000 -0.4205
vn -0.8078 0.0000 -0.5894
vn -0.6773 0.0000 -0.7357
vn -0.5208 0.0000 -0.8537
vn -0.3442 0.0000 -0.9389
vn -0.1544 0.0000 -0.9880
vn 0.0413 0.0000 -0.9991
vn 0.2354 0.0000 -0.9719
vn 0.4205 0.0000 -0.9073
vn 0.5894 0.0000 -0.8078
vn 0.7357 0.0000 -0.6773
vn 0.8537 0.0000 -0.5208
vn 0.9389 0.0000 -0.3442
vn 0.9880 0.0000 -0.1544
vn 0.9991 0.0000 0.0413
vn 0.9719 0.0000 0.2354
vn 0.9073 0.0000 0.4205
vn 0.8078 0.0000 0.5894
vn 0.6773 0.0000 0.7357
vn 0.0001 -1.0000 0.0000
vn -0.0001 -1.0000 0.0000
vt 0.267919 0.008617
vt 0.169593 0.034885
vt 0.169593 0.008617
vt 0.267919 0.034885
vt 0.169593 0.061152
vt 0.267919 0.061152
vt 0.169593 0.087420
vt 0.267919 0.087420
vt 0.169593 0.113687
vt 0.267919 0.113687
vt 0.169593 0.139954
vt 0.267919 0.139954
vt 0.169593 0.166222
vt 0.267919 0.166222
vt 0.169593 0.192489
vt 0.267919 0.192489
vt 0.169593 0.218756
vt 0.267919 0.218756
vt 0.169593 0.245024
vt 0.267919 0.245024
vt 0.169593 0.271291
vt 0.267919 0.271291
vt 0.169593 0.297559
vt 0.267919 0.297559
vt 0.169593 0.323826
vt 0.267919 0.323826
vt 0.169593 0.350093
vt 0.267919 0.350093
vt 0.169593 0.376361
vt 0.267919 0.376361
vt 0.169593 0.402628
vt 0.267919 0.402628
vt 0.169593 0.428895
vt 0.267919 0.428895
vt 0.169593 0.455163
vt 0.267919 0.455163
vt 0.169593 0.481430
vt 0.267919 0.481430
vt 0.169593 0.507698
vt 0.267919 0.507698
vt 0.169593 0.533965
vt 0.267919 0.533965
vt 0.169593 0.560232
vt 0.267919 0.560232
vt 0.169593 0.586500
vt 0.267919 0.586500
vt 0.169593 0.612767
vt 0.267919 0.612767
vt 0.169593 0.639034
vt 0.267919 0.639034
vt 0.169593 0.665302
vt 0.267919 0.665302
vt 0.169593 0.691569
vt 0.267919 0.691569
vt 0.169593 0.717837
vt 0.267919 0.717837
vt 0.169593 0.744104
vt 0.267919 0.744104
vt 0.169593 0.770371
vt 0.267919 0.770371
vt 0.169593 0.796639
vt 0.609683 0.086717
vt 0.586468 0.096333
vt 0.551796 0.031466
vt 0.705453 0.402426
vt 0.684102 0.332042
vt 0.707317 0.322426
vt 0.267919 0.796639
vt 0.169593 0.822906
vt 0.267919 0.822906
vt 0.169593 0.849174
vt 0.684102 0.505476
vt 0.707317 0.515092
vt 0.705453 0.435092
vt 0.547807 0.709456
vt 0.533846 0.688563
vt 0.468979 0.723235
vt 0.991383 0.034885
vt 0.864889 0.008617
vt 0.864889 0.034885
vt 0.991383 0.061152
vt 0.864889 0.061152
vt 0.991383 0.087420
vt 0.864889 0.087420
vt 0.991383 0.113687
vt 0.864889 0.113687
vt 0.864889 0.139954
vt 0.991383 0.139954
vt 0.864889 0.166222
vt 0.991383 0.166222
vt 0.864889 0.192489
vt 0.991383 0.192489
vt 0.864889 0.218756
vt 0.991383 0.218756
vt 0.864889 0.245024
vt 0.991383 0.245024
vt 0.864889 0.271291
vt 0.991383 0.271291
vt 0.864889 0.297559
vt 0.991383 0.297559
vt 0.864889 0.323826
vt 0.991383 0.323826
vt 0.864889 0.350093
vt 0.991383 0.350093
vt 0.864889 0.376361
vt 0.991383 0.376361
vt 0.864889 0.402628
vt 0.991383 0.402628
vt 0.864889 0.428895
vt 0.991383 0.428895
vt 0.864889 0.455163
vt 0.991383 0.455163
vt 0.864889 0.481430
vt 0.991383 0.481430
vt 0.864889 0.507698
vt 0.991383 0.507698
vt 0.864889 0.533965
vt 0.991383 0.533965
vt 0.991383 0.560232
vt 0.864889 0.560232
vt 0.991383 0.586500
vt 0.864889 0.586500
vt 0.991383 0.612767
vt 0.864889 0.612767
vt 0.991383 0.639034
vt 0.864889 0.639034
vt 0.991383 0.665302
vt 0.864889 0.665302
vt 0.991383 0.691569
vt 0.864889 0.691569
vt 0.991383 0.717837
vt 0.864889 0.717837
vt 0.991383 0.744104
vt 0.864889 0.744104
vt 0.991383 0.770371
vt 0.864889 0.770371
vt 0.991383 0.796639
vt 0.864889 0.796639
vt 0.991383 0.822906
vt 0.864889 0.822906
vt 0.991383 0.849173
vt 0.864889 0.849174
vt 1.000000 1.000000
vt 0.968750 0.500000
vt 1.000000 0.500000
vt 0.968750 1.000000
vt 0.937500 0.500000
vt 0.937500 1.000000
vt 0.906250 0.500000
vt 0.906250 1.000000
vt 0.875000 0.500000
vt 0.875000 1.000000
vt 0.843750 0.500000
vt 0.843750 1.000000
vt 0.812500 0.500000
vt 0.812500 1.000000
vt 0.781250 0.500000
vt 0.781250 1.000000
vt 0.750000 0.500000
vt 0.750000 1.000000
vt 0.718750 0.500000
vt 0.718750 1.000000
vt 0.687500 0.500000
vt 0.687500 1.000000
vt 0.656250 0.500000
vt 0.656250 1.000000
vt 0.625000 0.500000
vt 0.625000 1.000000
vt 0.593750 0.500000
vt 0.593750 1.000000
vt 0.562500 0.500000
vt 0.562500 1.000000
vt 0.531250 0.500000
vt 0.531250 1.000000
vt 0.500000 0.500000
vt 0.500000 1.000000
vt 0.468750 0.500000
vt 0.468750 1.000000
vt 0.437500 0.500000
vt 0.437500 1.000000
vt 0.406250 0.500000
vt 0.406250 1.000000
vt 0.375000 0.500000
vt 0.375000 1.000000
vt 0.343750 0.500000
vt 0.343750 1.000000
vt 0.312500 0.500000
vt 0.312500 1.000000
vt 0.281250 0.500000
vt 0.281250 1.000000
vt 0.250000 0.500000
vt 0.250000 1.000000
vt 0.218750 0.500000
vt 0.218750 1.000000
vt 0.187500 0.500000
vt 0.187500 1.000000
vt 0.156250 0.500000
vt 0.156250 1.000000
vt 0.125000 0.500000
vt 0.125000 1.000000
vt 0.093750 0.500000
vt 0.093750 1.000000
vt 0.062500 0.500000
vt 0.312867 0.401774
vt 0.341269 0.386593
vt 0.062500 1.000000
vt 0.031250 0.500000
vt 0.031250 1.000000
vt 0.000000 0.500000
vt 0.796822 0.014612
vt 0.514612 0.203178
vt 0.703178 0.485388
vt 0.250000 0.414279
vt 0.296822 0.485388
vt 0.250000 0.490000
vt 0.282049 0.411123
vt 0.383337 0.449553
vt 0.341844 0.471731
vt 0.366163 0.366163
vt 0.386593 0.341269
vt 0.419706 0.419706
vt 0.401774 0.312867
vt 0.449553 0.383337
vt 0.485388 0.296822
vt 0.471731 0.341844
vt 0.414279 0.250000
vt 0.411123 0.282049
vt 0.485388 0.203178
vt 0.490000 0.250000
vt 0.401774 0.187133
vt 0.411123 0.217951
vt 0.386593 0.158731
vt 0.471731 0.158156
vt 0.366163 0.133837
vt 0.449553 0.116663
vt 0.341269 0.113407
vt 0.419706 0.080294
vt 0.312867 0.098226
vt 0.383337 0.050447
vt 0.296822 0.014612
vt 0.341844 0.028269
vt 0.250000 0.085721
vt 0.282049 0.088877
vt 0.203178 0.014612
vt 0.250000 0.010000
vt 0.187133 0.098226
vt 0.217951 0.088877
vt 0.158731 0.113407
vt 0.158156 0.028269
vt 0.133837 0.133837
vt 0.116663 0.050447
vt 0.113407 0.158731
vt 0.080294 0.080294
vt 0.028269 0.158156
vt 0.050447 0.116663
vt 0.098226 0.187133
vt 0.014612 0.203178
vt 0.085721 0.250000
vt 0.088877 0.217951
vt 0.014612 0.296822
vt 0.010000 0.250000
vt 0.098226 0.312867
vt 0.088877 0.282049
vt 0.113407 0.341269
vt 0.028269 0.341844
vt 0.133837 0.366163
vt 0.050447 0.383337
vt 0.158731 0.386593
vt 0.080294 0.419706
vt 0.158156 0.471731
vt 0.116663 0.449553
vt 0.187133 0.401774
vt 0.203178 0.485388
vt 0.217951 0.411123
vt 0.937500 0.833333
vt 1.000000 0.833333
vt 0.875000 0.833333
vt 0.812500 0.833333
vt 0.750000 0.833333
vt 0.687500 0.833333
vt 0.625000 0.833333
vt 0.562500 0.833333
vt 0.500000 0.833333
vt 0.437500 0.833333
vt 0.375000 0.833333
vt 0.312500 0.833333
vt 0.250000 0.833333
vt 0.187500 0.833333
vt 0.125000 0.833333
vt 0.250000 0.137149
vt 0.371041 0.200806
vt 0.330818 0.332060
vt 0.062500 0.833333
vt 0.000000 1.000000
vt 0.000000 0.833333
vt 0.750000 0.137149
vt 0.628959 0.200806
vt 0.669182 0.332060
vt 0.750000 0.441968
vt 0.841844 0.471731
vt 0.763751 0.430877
vt 0.250000 0.441968
vt 0.919706 0.419706
vt 0.830818 0.332060
vt 0.263751 0.430877
vt 0.935076 0.307147
vt 0.971731 0.341844
vt 0.435076 0.307147
vt 0.990000 0.250000
vt 0.932821 0.299825
vt 0.971731 0.158156
vt 0.871042 0.200806
vt 0.432821 0.299824
vt 0.881117 0.107280
vt 0.919706 0.080294
vt 0.381117 0.107280
vt 0.841844 0.028269
vt 0.871850 0.107772
vt 0.750000 0.010000
vt 0.371850 0.107772
vt 0.628150 0.107772
vt 0.658156 0.028269
vt 0.128150 0.107772
vt 0.618883 0.107280
vt 0.580294 0.080294
vt 0.118883 0.107280
vt 0.528269 0.158156
vt 0.567179 0.299824
vt 0.510000 0.250000
vt 0.067179 0.299824
vt 0.128959 0.200806
vt 0.564924 0.307147
vt 0.528269 0.341844
vt 0.064924 0.307147
vt 0.580294 0.419706
vt 0.736249 0.430877
vt 0.658156 0.471731
vt 0.236249 0.430877
vt 0.169182 0.332060
vt 0.750000 0.490000
vt 0.062500 0.666667
vt 0.000000 0.666667
vt 0.125000 0.666667
vt 0.187500 0.666667
vt 0.250000 0.666667
vt 0.312500 0.666667
vt 0.375000 0.666667
vt 0.437500 0.666667
vt 0.500000 0.666667
vt 0.562500 0.666667
vt 0.625000 0.666667
vt 0.687500 0.666667
vt 0.750000 0.666667
vt 0.812500 0.666667
vt 0.875000 0.666667
vt 0.937500 0.666667
vt 1.000000 0.666667
vt 0.524230 0.246589
vt 0.453846 0.267940
vt 0.446130 0.229153
vt 0.446130 0.189606
vt 0.519328 0.221943
vt 0.453846 0.150819
vt 0.519328 0.196815
vt 0.468979 0.114283
vt 0.533846 0.148955
vt 0.490950 0.081401
vt 0.547807 0.128062
vt 0.518914 0.053437
vt 0.565575 0.110293
vt 0.588332 0.016333
vt 0.627119 0.008617
vt 0.666666 0.008617
vt 0.634328 0.081815
vt 0.705453 0.016333
vt 0.659456 0.081815
vt 0.741989 0.031467
vt 0.707317 0.096333
vt 0.774871 0.053437
vt 0.728210 0.110294
vt 0.802835 0.081401
vt 0.745978 0.128062
vt 0.824805 0.114283
vt 0.759939 0.148955
vt 0.839939 0.150819
vt 0.769555 0.172170
vt 0.524230 0.172170
vt 0.684102 0.086717
vt 0.774457 0.196816
vt 0.847654 0.189606
vt 0.847654 0.229153
vt 0.774457 0.221944
vt 0.839939 0.267940
vt 0.769555 0.246589
vt 0.824805 0.304476
vt 0.802834 0.337358
vt 0.759939 0.269804
vt 0.774871 0.365322
vt 0.745978 0.290697
vt 0.741989 0.387293
vt 0.728210 0.308465
vt 0.666666 0.410142
vt 0.659456 0.336944
vt 0.627119 0.410142
vt 0.634328 0.336944
vt 0.588332 0.402426
vt 0.609683 0.332042
vt 0.551796 0.387292
vt 0.586468 0.322426
vt 0.518914 0.365322
vt 0.490950 0.337358
vt 0.565575 0.308465
vt 0.468979 0.304476
vt 0.547807 0.290697
vt 0.533846 0.269804
vt 0.267919 0.849174
vt 0.769555 0.590929
vt 0.774457 0.615574
vt 0.847654 0.608365
vt 0.839939 0.569578
vt 0.824805 0.533042
vt 0.759939 0.567714
vt 0.802834 0.500160
vt 0.745978 0.546821
vt 0.774871 0.472196
vt 0.728210 0.529052
vt 0.741989 0.450225
vt 0.666666 0.427376
vt 0.627119 0.427376
vt 0.659456 0.500574
vt 0.634328 0.500574
vt 0.609683 0.505476
vt 0.588332 0.435092
vt 0.551796 0.450225
vt 0.586468 0.515092
vt 0.518914 0.472196
vt 0.565575 0.529052
vt 0.490950 0.500160
vt 0.468979 0.533042
vt 0.547807 0.546821
vt 0.453846 0.569578
vt 0.533846 0.567714
vt 0.446130 0.608365
vt 0.524230 0.590929
vt 0.446130 0.647912
vt 0.519328 0.615574
vt 0.453846 0.686699
vt 0.524230 0.665348
vt 0.490950 0.756117
vt 0.518914 0.784081
vt 0.565575 0.727224
vt 0.551796 0.806051
vt 0.588332 0.821185
vt 0.586468 0.741185
vt 0.627119 0.828901
vt 0.609683 0.750801
vt 0.666666 0.828901
vt 0.634329 0.755703
vt 0.705453 0.821185
vt 0.684102 0.750801
vt 0.741989 0.806051
vt 0.707317 0.741185
vt 0.774871 0.784081
vt 0.728210 0.727224
vt 0.802834 0.756117
vt 0.745978 0.709456
vt 0.824805 0.723235
vt 0.839939 0.686698
vt 0.759939 0.688563
vt 0.847654 0.647912
vt 0.769555 0.665348
vt 0.774457 0.640702
vt 0.519328 0.640702
vt 0.659456 0.755703
vt 0.991383 0.008617
vt 0.796822 0.485388
vt 0.883337 0.449553
vt 0.949553 0.383337
vt 0.985388 0.296822
vt 0.985388 0.203178
vt 0.949553 0.116663
vt 0.883337 0.050447
vt 0.703178 0.014612
vt 0.616663 0.050447
vt 0.550447 0.116663
vt 0.514612 0.296822
vt 0.550447 0.383337
vt 0.616663 0.449553
usemtl outline
f 1/3/1 3/2/2 2/1/1
f 3/2/2 5/5/3 4/4/2
f 5/5/3 7/7/4 6/6/3
f 7/7/4 9/9/5 8/8/4
f 9/9/5 11/11/6 10/10/5
f 11/11/6 13/13/7 12/12/6
f 13/13/7 15/15/8 14/14/7
f 15/15/8 17/17/9 16/16/8
f 17/17/9 19/19/10 18/18/9
f 19/19/10 21/21/11 20/20/10
f 21/21/11 23/23/12 22/22/11
f 23/23/12 25/25/13 24/24/12
f 25/25/13 27/27/14 26/26/13
f 27/27/14 29/29/15 28/28/14
f 29/29/15 31/31/16 30/30/15
f 31/31/16 33/33/17 32/32/16
f 33/33/17 35/35/18 34/34/17
f 35/35/18 37/37/19 36/36/18
f 37/37/19 39/39/20 38/38/19
f 39/39/20 41/41/21 40/40/20
f 41/41/21 43/43/22 42/42/21
f 43/43/22 45/45/23 44/44/22
f 45/45/23 47/47/24 46/46/23
f 47/47/24 49/49/25 48/48/24
f 49/49/25 51/51/26 50/50/25
f 51/51/26 53/53/27 52/52/26
f 53/53/27 55/55/28 54/54/27
f 55/55/28 57/57/29 56/56/28
f 57/57/29 59/59/30 58/58/29
f 59/59/30 61/61/31 60/60/30
f 40/64/32 73/63/32 81/62/32
f 86/67/32 77/66/32 6/65/32
f 61/61/31 63/69/33 62/68/31
f 63/69/33 1/71/1 64/70/33
f 43/74/34 119/73/34 117/72/34
f 3/77/34 98/76/34 103/75/34
f 98/80/18 97/79/17 78/78/18
f 103/82/19 98/80/18 77/81/19
f 100/84/20 103/82/19 86/83/20
f 112/86/21 100/84/20 90/85/21
f 88/88/22 106/87/22 90/85/21
f 95/90/23 111/89/23 88/88/22
f 92/92/24 108/91/24 95/90/23
f 91/94/25 107/93/25 92/92/24
f 94/96/26 110/95/26 91/94/25
f 93/98/27 109/97/27 94/96/26
f 89/100/28 104/99/28 93/98/27
f 96/102/29 105/101/29 89/100/28
f 87/104/30 101/103/30 96/102/29
f 85/106/31 99/105/31 87/104/30
f 83/108/33 102/107/33 85/106/31
f 82/110/1 125/109/1 83/108/33
f 84/112/2 126/111/2 82/110/1
f 81/114/3 127/113/3 84/112/2
f 73/116/4 122/115/4 81/114/3
f 80/118/5 119/117/5 73/116/4
f 117/120/6 119/117/5 69/119/6
f 114/122/7 117/120/6 66/121/7
f 115/124/8 114/122/7 67/123/8
f 113/126/9 115/124/8 65/125/9
f 116/128/10 113/126/9 68/127/10
f 120/130/11 116/128/10 71/129/11
f 118/132/12 120/130/11 70/131/12
f 128/134/13 118/132/12 72/133/13
f 123/136/14 128/134/13 74/135/14
f 121/138/15 123/136/14 79/137/15
f 124/140/16 121/138/15 76/139/16
f 97/142/17 124/140/16 75/141/17
f 3/2/2 4/4/2 2/1/1
f 5/5/3 6/6/3 4/4/2
f 7/7/4 8/8/4 6/6/3
f 9/9/5 10/10/5 8/8/4
f 11/11/6 12/12/6 10/10/5
f 13/13/7 14/14/7 12/12/6
f 15/15/8 16/16/8 14/14/7
f 17/17/9 18/18/9 16/16/8
f 19/19/10 20/20/10 18/18/9
f 21/21/11 22/22/11 20/20/10
f 23/23/12 24/24/12 22/22/11
f 25/25/13 26/26/13 24/24/12
f 27/27/14 28/28/14 26/26/13
f 29/29/15 30/30/15 28/28/14
f 31/31/16 32/32/16 30/30/15
f 33/33/17 34/34/17 32/32/16
f 35/35/18 36/36/18 34/34/17
f 37/37/19 38/38/19 36/36/18
f 39/39/20 40/40/20 38/38/19
f 41/41/21 42/42/21 40/40/20
f 43/43/22 44/44/22 42/42/21
f 45/45/23 46/46/23 44/44/22
f 47/47/24 48/48/24 46/46/23
f 49/49/25 50/50/25 48/48/24
f 51/51/26 52/52/26 50/50/25
f 53/53/27 54/54/27 52/52/26
f 55/55/28 56/56/28 54/54/27
f 57/57/29 58/58/29 56/56/28
f 59/59/30 60/60/30 58/58/29
f 61/61/31 62/68/31 60/60/30
f 52/360/32 54/359/32 71/358/32
f 68/362/32 50/361/32 52/360/32
f 65/364/32 48/363/32 50/361/32
f 65/364/32 50/361/32 68/362/32
f 66/366/32 46/365/32 48/363/32
f 69/368/32 44/367/32 46/365/32
f 80/370/32 42/369/32 44/367/32
f 73/63/32 40/64/32 42/369/32
f 81/62/32 38/371/32 40/64/32
f 81/62/32 36/372/32 38/371/32
f 84/374/32 34/373/32 36/372/32
f 82/376/32 32/375/32 34/373/32
f 82/376/32 34/373/32 84/374/32
f 85/378/32 30/377/32 32/375/32
f 87/380/32 28/379/32 30/377/32
f 96/382/32 26/381/32 28/379/32
f 89/384/32 24/383/32 26/381/32
f 93/386/32 22/385/32 24/383/32
f 89/384/32 93/386/32 24/383/32
f 85/378/32 87/380/32 30/377/32
f 96/382/32 89/384/32 26/381/32
f 84/374/32 36/372/32 81/62/32
f 66/366/32 69/368/32 46/365/32
f 80/370/32 73/63/32 42/369/32
f 68/362/32 52/360/32 71/358/32
f 87/380/32 96/382/32 28/379/32
f 48/363/32 65/364/32 67/387/32
f 48/363/32 67/387/32 66/366/32
f 83/388/32 85/378/32 32/375/32
f 82/376/32 83/388/32 32/375/32
f 44/367/32 69/368/32 80/370/32
f 22/385/32 93/386/32 94/389/32
f 94/389/32 20/390/32 22/385/32
f 91/392/32 18/391/32 20/390/32
f 92/394/32 16/393/32 18/391/32
f 92/394/32 14/395/32 16/393/32
f 95/397/32 12/396/32 14/395/32
f 88/399/32 10/398/32 12/396/32
f 88/399/32 12/396/32 95/397/32
f 90/401/32 8/400/32 10/398/32
f 86/67/32 6/65/32 8/400/32
f 86/67/32 8/400/32 90/401/32
f 78/403/32 4/402/32 6/65/32
f 75/405/32 2/404/32 4/402/32
f 76/407/32 64/406/32 2/404/32
f 79/409/32 62/408/32 64/406/32
f 79/409/32 60/410/32 62/408/32
f 74/412/32 58/411/32 60/410/32
f 74/412/32 60/410/32 79/409/32
f 72/414/32 56/413/32 58/411/32
f 70/415/32 54/359/32 56/413/32
f 70/415/32 56/413/32 72/414/32
f 70/415/32 71/358/32 54/359/32
f 78/403/32 75/405/32 4/402/32
f 76/407/32 79/409/32 64/406/32
f 94/389/32 91/392/32 20/390/32
f 18/391/32 91/392/32 92/394/32
f 95/397/32 14/395/32 92/394/32
f 58/411/32 74/412/32 72/414/32
f 90/401/32 10/398/32 88/399/32
f 75/405/32 76/407/32 2/404/32
f 77/66/32 78/403/32 6/65/32
f 63/69/33 64/70/33 62/68/31
f 1/71/1 2/416/1 64/70/33
f 31/419/34 102/418/34 125/417/34
f 125/417/34 33/420/34 31/419/34
f 126/422/34 35/421/34 33/420/34
f 127/424/34 37/423/34 35/421/34
f 122/426/34 39/425/34 37/423/34
f 122/426/34 41/427/34 39/425/34
f 119/73/34 43/74/34 41/427/34
f 119/73/34 41/427/34 122/426/34
f 117/72/34 45/428/34 43/74/34
f 114/430/34 47/429/34 45/428/34
f 114/430/34 45/428/34 117/72/34
f 114/430/34 115/431/34 47/429/34
f 125/417/34 126/422/34 33/420/34
f 127/424/34 122/426/34 37/423/34
f 35/421/34 126/422/34 127/424/34
f 47/429/34 115/431/34 113/432/34
f 113/432/34 49/433/34 47/429/34
f 116/435/34 51/434/34 49/433/34
f 120/437/34 53/436/34 51/434/34
f 120/437/34 55/438/34 53/436/34
f 118/440/34 57/439/34 55/438/34
f 128/442/34 59/441/34 57/439/34
f 128/442/34 57/439/34 118/440/34
f 123/444/34 61/443/34 59/441/34
f 121/446/34 63/445/34 61/443/34
f 121/446/34 61/443/34 123/444/34
f 97/448/34 1/447/34 63/445/34
f 98/76/34 3/77/34 1/447/34
f 103/75/34 5/449/34 3/77/34
f 100/451/34 7/450/34 5/449/34
f 100/451/34 9/452/34 7/450/34
f 112/454/34 11/453/34 9/452/34
f 112/454/34 9/452/34 100/451/34
f 106/456/34 13/455/34 11/453/34
f 111/458/34 15/457/34 13/455/34
f 111/458/34 13/455/34 106/456/34
f 107/460/34 17/459/34 15/457/34
f 110/462/34 19/461/34 17/459/34
f 109/464/34 21/463/34 19/461/34
f 104/466/34 23/465/34 21/463/34
f 104/466/34 25/467/34 23/465/34
f 105/469/34 27/468/34 25/467/34
f 105/469/34 25/467/34 104/466/34
f 101/471/34 29/470/34 27/468/34
f 99/472/34 31/419/34 29/470/34
f 99/472/34 29/470/34 101/471/34
f 99/472/34 102/418/34 31/419/34
f 107/460/34 110/462/34 17/459/34
f 109/464/34 104/466/34 21/463/34
f 97/448/34 98/76/34 1/447/34
f 103/75/34 100/451/34 5/449/34
f 113/432/34 116/435/34 49/433/34
f 51/434/34 116/435/34 120/437/34
f 118/440/34 55/438/34 120/437/34
f 27/468/34 105/469/34 101/471/34
f 123/444/34 59/441/34 128/442/34
f 110/462/34 109/464/34 19/461/34
f 63/445/34 121/446/34 124/473/34
f 108/474/34 107/460/34 15/457/34
f 111/458/34 108/474/34 15/457/34
f 63/445/34 124/473/34 97/448/34
f 11/453/34 112/454/34 106/456/34
f 97/79/17 75/475/17 78/78/18
f 98/80/18 78/78/18 77/81/19
f 103/82/19 77/81/19 86/83/20
f 100/84/20 86/83/20 90/85/21
f 106/87/22 112/86/21 90/85/21
f 111/89/23 106/87/22 88/88/22
f 108/91/24 111/89/23 95/90/23
f 107/93/25 108/91/24 92/92/24
f 110/95/26 107/93/25 91/94/25
f 109/97/27 110/95/26 94/96/26
f 104/99/28 109/97/27 93/98/27
f 105/101/29 104/99/28 89/100/28
f 101/103/30 105/101/29 96/102/29
f 99/105/31 101/103/30 87/104/30
f 102/107/33 99/105/31 85/106/31
f 125/109/1 102/107/33 83/108/33
f 126/111/2 125/109/1 82/110/1
f 127/113/3 126/111/2 84/112/2
f 122/115/4 127/113/3 81/114/3
f 119/117/5 122/115/4 73/116/4
f 119/117/5 80/118/5 69/119/6
f 117/120/6 69/119/6 66/121/7
f 114/122/7 66/121/7 67/123/8
f 115/124/8 67/123/8 65/125/9
f 113/126/9 65/125/9 68/127/10
f 116/128/10 68/127/10 71/129/11
f 120/130/11 71/129/11 70/131/12
f 118/132/12 70/131/12 72/133/13
f 128/134/13 72/133/13 74/135/14
f 123/136/14 74/135/14 79/137/15
f 121/138/15 79/137/15 76/139/16
f 124/140/16 76/139/16 75/141/17
f 129/145/1 131/144/2 194/143/1
f 131/144/2 133/147/3 193/146/2
f 133/147/3 135/149/4 195/148/3
f 135/149/4 137/151/5 196/150/4
f 137/151/5 139/153/6 197/152/5
f 139/153/6 141/155/7 198/154/6
f 141/155/7 143/157/8 199/156/7
f 143/157/8 145/159/9 200/158/8
f 145/159/9 147/161/10 201/160/9
f 147/161/10 149/163/11 202/162/10
f 149/163/11 151/165/12 203/164/11
f 151/165/12 153/167/13 204/166/12
f 153/167/13 155/169/14 205/168/13
f 155/169/14 157/171/15 206/170/14
f 157/171/15 159/173/16 207/172/15
f 159/173/16 161/175/17 208/174/16
f 161/175/17 163/177/18 209/176/17
f 163/177/18 165/179/19 210/178/18
f 165/179/19 167/181/20 211/180/19
f 167/181/20 169/183/21 212/182/20
f 169/183/21 171/185/22 213/184/21
f 171/185/22 173/187/23 214/186/22
f 173/187/23 175/189/24 215/188/23
f 175/189/24 177/191/25 216/190/24
f 177/191/25 179/193/26 217/192/25
f 179/193/26 181/195/27 218/194/26
f 181/195/27 183/197/28 219/196/27
f 183/197/28 185/199/29 220/198/28
f 185/199/29 187/201/30 221/200/29
f 187/201/30 189/203/31 222/202/30
f 136/205/4 228/205/4 134/204/3
f 189/203/31 191/207/33 223/206/31
f 191/207/33 129/209/1 224/208/33
f 191/212/34 175/211/34 159/210/34
f 194/215/32 193/214/32 130/213/32
f 132/216/32 193/214/32 134/204/32
f 195/218/32 196/217/32 134/204/32
f 136/205/32 196/217/32 138/219/32
f 138/219/32 197/221/32 140/220/32
f 140/220/32 198/223/32 142/222/32
f 199/225/32 200/224/32 142/222/32
f 144/227/32 200/224/32 146/226/32
f 201/229/32 202/228/32 146/226/32
f 148/231/32 202/228/32 150/230/32
f 150/230/32 203/233/32 152/232/32
f 152/232/32 204/235/32 154/234/32
f 154/234/32 205/237/32 156/236/32
f 156/236/32 206/239/32 158/238/32
f 207/241/32 208/240/32 158/238/32
f 160/243/32 208/240/32 162/242/32
f 209/245/32 210/244/32 162/242/32
f 164/247/32 210/244/32 166/246/32
f 166/246/32 211/249/32 168/248/32
f 168/248/32 212/251/32 170/250/32
f 170/250/32 213/253/32 172/252/32
f 214/255/32 215/254/32 172/252/32
f 215/254/32 216/257/32 174/256/32
f 176/259/32 216/257/32 178/258/32
f 217/261/32 218/260/32 178/258/32
f 180/263/32 218/260/32 182/262/32
f 182/262/32 219/265/32 184/264/32
f 184/264/32 220/267/32 186/266/32
f 186/266/32 221/269/32 188/268/32
f 222/271/32 223/270/32 188/268/32
f 223/270/32 224/273/32 190/272/32
f 192/274/32 224/273/32 130/213/32
f 235/230/32 243/246/32 251/262/32
f 190/272/31 255/272/31 188/268/30
f 164/247/18 242/247/18 162/242/17
f 138/219/5 229/219/5 136/205/4
f 192/274/33 256/274/33 190/272/31
f 166/246/19 243/246/19 164/247/18
f 140/220/6 230/220/6 138/219/5
f 130/213/1 226/213/1 192/274/33
f 168/248/20 244/248/20 166/246/19
f 142/222/7 231/222/7 140/220/6
f 170/250/21 245/250/21 168/248/20
f 144/227/8 232/227/8 142/222/7
f 172/252/22 246/252/22 170/250/21
f 146/226/9 233/226/9 144/227/8
f 174/256/23 247/256/23 172/252/22
f 148/231/10 234/231/10 146/226/9
f 176/259/24 248/259/24 174/256/23
f 150/230/11 235/230/11 148/231/10
f 178/258/25 249/258/25 176/259/24
f 152/232/12 236/232/12 150/230/11
f 180/263/26 250/263/26 178/258/25
f 154/234/13 237/234/13 152/232/12
f 182/262/27 251/262/27 180/263/26
f 156/236/14 238/236/14 154/234/13
f 184/264/28 252/264/28 182/262/27
f 158/238/15 239/238/15 156/236/14
f 132/216/2 225/216/2 130/213/1
f 186/266/29 253/266/29 184/264/28
f 160/243/16 240/243/16 158/238/15
f 134/204/3 227/204/3 132/216/2
f 188/268/30 254/268/30 186/266/29
f 162/242/17 241/242/17 160/243/16
f 131/144/2 193/146/2 194/143/1
f 133/147/3 195/148/3 193/146/2
f 135/149/4 196/150/4 195/148/3
f 137/151/5 197/152/5 196/150/4
f 139/153/6 198/154/6 197/152/5
f 141/155/7 199/156/7 198/154/6
f 143/157/8 200/158/8 199/156/7
f 145/159/9 201/160/9 200/158/8
f 147/161/10 202/162/10 201/160/9
f 149/163/11 203/164/11 202/162/10
f 151/165/12 204/166/12 203/164/11
f 153/167/13 205/168/13 204/166/12
f 155/169/14 206/170/14 205/168/13
f 157/171/15 207/172/15 206/170/14
f 159/173/16 208/174/16 207/172/15
f 161/175/17 209/176/17 208/174/16
f 163/177/18 210/178/18 209/176/17
f 165/179/19 211/180/19 210/178/18
f 167/181/20 212/182/20 211/180/19
f 169/183/21 213/184/21 212/182/20
f 171/185/22 214/186/22 213/184/21
f 173/187/23 215/188/23 214/186/22
f 175/189/24 216/190/24 215/188/23
f 177/191/25 217/192/25 216/190/24
f 179/193/26 218/194/26 217/192/25
f 181/195/27 219/196/27 218/194/26
f 183/197/28 220/198/28 219/196/27
f 185/199/29 221/200/29 220/198/28
f 187/201/30 222/202/30 221/200/29
f 189/203/31 223/206/31 222/202/30
f 228/205/4 227/204/3 134/204/3
f 191/207/33 224/208/33 223/206/31
f 129/209/1 194/294/1 224/208/33
f 131/476/34 129/340/34 191/212/34
f 135/477/34 133/300/34 131/476/34
f 139/478/34 137/303/34 135/477/34
f 143/479/34 141/307/34 139/478/34
f 147/480/34 145/309/34 143/479/34
f 151/481/34 149/311/34 147/480/34
f 155/482/34 153/315/34 151/481/34
f 159/210/34 157/317/34 155/482/34
f 163/483/34 161/319/34 159/210/34
f 167/484/34 165/322/34 163/483/34
f 171/485/34 169/325/34 167/484/34
f 175/211/34 173/327/34 171/485/34
f 179/486/34 177/329/34 175/211/34
f 183/487/34 181/333/34 179/486/34
f 187/488/34 185/335/34 183/487/34
f 191/212/34 189/337/34 187/488/34
f 143/479/34 131/476/34 191/212/34
f 143/479/34 135/477/34 131/476/34
f 143/479/34 139/478/34 135/477/34
f 159/210/34 147/480/34 143/479/34
f 159/210/34 151/481/34 147/480/34
f 159/210/34 155/482/34 151/481/34
f 175/211/34 163/483/34 159/210/34
f 175/211/34 167/484/34 163/483/34
f 175/211/34 171/485/34 167/484/34
f 191/212/34 179/486/34 175/211/34
f 191/212/34 183/487/34 179/486/34
f 191/212/34 187/488/34 183/487/34
f 159/210/34 143/479/34 191/212/34
f 193/214/32 132/216/32 130/213/32
f 193/214/32 195/218/32 134/204/32
f 196/217/32 136/205/32 134/204/32
f 196/217/32 197/221/32 138/219/32
f 197/221/32 198/223/32 140/220/32
f 198/223/32 199/225/32 142/222/32
f 200/224/32 144/227/32 142/222/32
f 200/224/32 201/229/32 146/226/32
f 202/228/32 148/231/32 146/226/32
f 202/228/32 203/233/32 150/230/32
f 203/233/32 204/235/32 152/232/32
f 204/235/32 205/237/32 154/234/32
f 205/237/32 206/239/32 156/236/32
f 206/239/32 207/241/32 158/238/32
f 208/240/32 160/243/32 158/238/32
f 208/240/32 209/245/32 162/242/32
f 210/244/32 164/247/32 162/242/32
f 210/244/32 211/249/32 166/246/32
f 211/249/32 212/251/32 168/248/32
f 212/251/32 213/253/32 170/250/32
f 213/253/32 214/255/32 172/252/32
f 215/254/32 174/256/32 172/252/32
f 216/257/32 176/259/32 174/256/32
f 216/257/32 217/261/32 178/258/32
f 218/260/32 180/263/32 178/258/32
f 218/260/32 219/265/32 182/262/32
f 219/265/32 220/267/32 184/264/32
f 220/267/32 221/269/32 186/266/32
f 221/269/32 222/271/32 188/268/32
f 223/270/32 190/272/32 188/268/32
f 224/273/32 192/274/32 190/272/32
f 224/273/32 194/215/32 130/213/32
f 255/272/32 225/216/32 227/204/32
f 255/272/32 226/213/32 225/216/32
f 255/272/32 256/274/32 226/213/32
f 251/262/32 254/268/32 255/272/32
f 251/262/32 253/266/32 254/268/32
f 251/262/32 252/264/32 253/266/32
f 247/256/32 250/263/32 251/262/32
f 247/256/32 249/258/32 250/263/32
f 247/256/32 248/259/231 249/258/32
f 243/246/32 246/252/32 247/256/32
f 243/246/32 245/250/32 246/252/32
f 243/246/32 244/248/32 245/250/32
f 241/242/32 242/247/32 243/246/32
f 243/246/32 240/243/32 241/242/32
f 243/246/32 239/238/32 240/243/32
f 237/234/32 238/236/32 239/238/32
f 235/230/32 236/232/32 237/234/32
f 233/226/32 234/231/232 235/230/32
f 235/230/32 232/227/32 233/226/32
f 235/230/32 231/222/32 232/227/32
f 227/204/32 230/220/32 231/222/32
f 227/204/32 229/219/32 230/220/32
f 227/204/32 228/205/32 229/219/32
f 243/246/32 237/234/32 239/238/32
f 243/246/32 235/230/32 237/234/32
f 251/262/32 255/272/32 227/204/32
f 243/246/32 247/256/32 251/262/32
f 227/204/32 231/222/32 235/230/32
f 235/230/32 251/262/32 227/204/32
f 255/272/31 254/268/30 188/268/30
f 242/247/18 241/242/17 162/242/17
f 229/219/5 228/205/4 136/205/4
f 256/274/33 255/272/31 190/272/31
f 243/246/19 242/247/18 164/247/18
f 230/220/6 229/219/5 138/219/5
f 226/213/1 256/274/33 192/274/33
f 244/248/20 243/246/19 166/246/19
f 231/222/7 230/220/6 140/220/6
f 245/250/21 244/248/20 168/248/20
f 232/227/8 231/222/7 142/222/7
f 246/252/22 245/250/21 170/250/21
f 233/226/9 232/227/8 144/227/8
f 247/256/23 246/252/22 172/252/22
f 234/231/10 233/226/9 146/226/9
f 248/259/24 247/256/23 174/256/23
f 235/230/11 234/231/10 148/231/10
f 249/258/25 248/259/24 176/259/24
f 236/232/12 235/230/11 150/230/11
f 250/263/26 249/258/25 178/258/25
f 237/234/13 236/232/12 152/232/12
f 251/262/27 250/263/26 180/263/26
f 238/236/14 237/234/13 154/234/13
f 252/264/28 251/262/27 182/262/27
f 239/238/15 238/236/14 156/236/14
f 225/216/2 226/213/1 130/213/1
f 253/266/29 252/264/28 184/264/28
f 240/243/16 239/238/15 158/238/15
f 227/204/3 225/216/2 132/216/2
f 254/268/30 253/266/29 186/266/29
f 241/242/17 240/243/16 160/243/16
f 322/276/37 323/275/36 292/143/35
f 323/275/36 325/277/39 291/148/38
f 327/278/41 296/156/40 325/277/39
f 327/278/41 329/279/42 296/156/40
f 329/279/42 331/280/44 298/160/43
f 333/281/46 302/168/45 331/280/44
f 333/281/46 335/282/47 302/168/45
f 335/282/47 337/283/49 304/172/48
f 339/284/51 308/180/50 337/283/49
f 341/285/53 310/184/52 339/284/51
f 341/285/53 343/286/54 310/184/52
f 345/287/56 314/192/55 343/286/54
f 347/288/58 316/196/57 345/287/56
f 347/288/58 349/289/59 316/196/57
f 262/292/62 268/291/61 274/290/60
f 351/293/64 320/206/63 349/289/59
f 322/295/37 292/294/35 351/293/64
f 285/298/67 279/297/66 273/296/65
f 259/301/70 290/300/69 257/299/68
f 292/215/35 291/218/38 258/302/71
f 261/304/73 293/303/72 259/301/70
f 291/218/38 294/221/75 260/305/74
f 295/307/77 293/303/72 263/306/76
f 262/292/62 294/221/75 264/308/78
f 265/310/80 297/309/79 263/306/76
f 296/225/40 298/229/43 264/308/78
f 267/312/82 299/311/81 265/310/80
f 298/229/43 300/233/84 266/313/83
f 301/315/86 299/311/81 269/314/85
f 268/291/61 300/233/84 270/316/87
f 271/318/89 303/317/88 269/314/85
f 302/237/45 304/241/48 270/316/87
f 273/296/65 305/319/90 271/318/89
f 304/241/48 306/245/92 272/320/91
f 307/322/94 305/319/90 275/321/93
f 274/290/60 306/245/92 276/323/95
f 309/325/97 307/322/94 277/324/96
f 276/323/95 308/249/50 278/326/98
f 279/297/66 311/327/99 277/324/96
f 310/253/52 312/254/100 278/326/98
f 313/329/102 311/327/99 281/328/101
f 280/331/104 312/254/100 282/330/103
f 315/333/106 313/329/102 283/332/105
f 282/330/103 314/261/55 284/334/107
f 285/298/67 317/335/108 283/332/105
f 316/265/57 318/269/109 284/334/107
f 319/337/111 317/335/108 287/336/110
f 286/339/113 318/269/109 288/338/112
f 289/340/114 319/337/111 257/299/68
f 288/338/112 320/270/63 258/302/71
f 319/203/111 289/209/114 352/341/115
f 352/341/115 321/342/116 351/293/64
f 317/199/108 319/203/111 350/343/117
f 350/343/117 352/341/115 349/289/59
f 317/199/108 350/343/117 315/195/106
f 348/344/118 350/343/117 347/288/58
f 313/191/102 315/195/106 346/345/119
f 346/345/119 348/344/118 345/287/56
f 311/187/99 313/191/102 344/346/120
f 344/346/120 346/345/119 343/286/54
f 311/187/99 344/346/120 309/183/97
f 342/347/121 344/346/120 341/285/53
f 307/179/94 309/183/97 340/348/122
f 340/348/122 342/347/121 339/284/51
f 305/175/90 307/179/94 338/349/123
f 338/349/123 340/348/122 337/283/49
f 305/175/90 338/349/123 303/171/88
f 336/350/124 338/349/123 335/282/47
f 303/171/88 336/350/124 301/167/86
f 334/351/125 336/350/124 333/281/46
f 299/163/81 301/167/86 332/352/126
f 332/352/126 334/351/125 331/280/44
f 299/163/81 332/352/126 297/159/79
f 330/353/127 332/352/126 329/279/42
f 297/159/79 330/353/127 295/155/77
f 328/354/128 330/353/127 327/278/41
f 293/151/72 295/155/77 326/355/129
f 326/355/129 328/354/128 325/277/39
f 293/151/72 326/355/129 290/147/69
f 324/356/130 326/355/129 323/275/36
f 290/147/69 324/356/130 289/145/114
f 321/357/116 324/356/130 322/276/37
f 323/275/36 291/148/38 292/143/35
f 325/277/39 294/152/75 291/148/38
f 296/156/40 294/152/75 325/277/39
f 329/279/42 298/160/43 296/156/40
f 331/280/44 300/164/84 298/160/43
f 302/168/45 300/164/84 331/280/44
f 335/282/47 304/172/48 302/168/45
f 337/283/49 306/176/92 304/172/48
f 308/180/50 306/176/92 337/283/49
f 310/184/52 308/180/50 339/284/51
f 343/286/54 312/188/100 310/184/52
f 314/192/55 312/188/100 343/286/54
f 316/196/57 314/192/55 345/287/56
f 349/289/59 318/200/109 316/196/57
f 288/338/112 258/302/71 260/305/74
f 282/330/103 284/334/107 286/339/113
f 262/292/62 288/338/112 260/305/74
f 262/292/62 286/339/113 288/338/112
f 262/292/62 264/308/78 266/313/83
f 280/331/104 282/330/103 286/339/113
f 276/323/95 278/326/98 280/331/104
f 274/290/60 276/323/95 280/331/104
f 274/290/60 286/339/113 262/292/62
f 274/290/60 280/331/104 286/339/113
f 262/292/62 266/313/83 268/291/61
f 268/291/61 270/316/87 272/320/91
f 268/291/61 272/320/91 274/290/60
f 320/206/63 318/200/109 349/289/59
f 292/294/35 320/206/63 351/293/64
f 259/301/70 257/299/68 287/336/110
f 265/310/80 263/306/76 261/304/73
f 261/304/73 259/301/70 287/336/110
f 285/298/67 283/332/105 281/328/101
f 261/304/73 287/336/110 285/298/67
f 267/312/82 265/310/80 261/304/73
f 271/318/89 269/314/85 267/312/82
f 273/296/65 271/318/89 267/312/82
f 273/296/65 261/304/73 285/298/67
f 273/296/65 267/312/82 261/304/73
f 285/298/67 281/328/101 279/297/66
f 279/297/66 277/324/96 275/321/93
f 279/297/66 275/321/93 273/296/65
f 290/300/69 289/340/114 257/299/68
f 291/218/38 260/305/74 258/302/71
f 293/303/72 290/300/69 259/301/70
f 294/221/75 262/292/62 260/305/74
f 293/303/72 261/304/73 263/306/76
f 294/221/75 296/225/40 264/308/78
f 297/309/79 295/307/77 263/306/76
f 298/229/43 266/313/83 264/308/78
f 299/311/81 297/309/79 265/310/80
f 300/233/84 268/291/61 266/313/83
f 299/311/81 267/312/82 269/314/85
f 300/233/84 302/237/45 270/316/87
f 303/317/88 301/315/86 269/314/85
f 304/241/48 272/320/91 270/316/87
f 305/319/90 303/317/88 271/318/89
f 306/245/92 274/290/60 272/320/91
f 305/319/90 273/296/65 275/321/93
f 306/245/92 308/249/50 276/323/95
f 307/322/94 275/321/93 277/324/96
f 308/249/50 310/253/52 278/326/98
f 311/327/99 309/325/97 277/324/96
f 312/254/100 280/331/104 278/326/98
f 311/327/99 279/297/66 281/328/101
f 312/254/100 314/261/55 282/330/103
f 313/329/102 281/328/101 283/332/105
f 314/261/55 316/265/57 284/334/107
f 317/335/108 315/333/106 283/332/105
f 318/269/109 286/339/113 284/334/107
f 317/335/108 285/298/67 287/336/110
f 318/269/109 320/270/63 288/338/112
f 319/337/111 287/336/110 257/299/68
f 320/270/63 292/215/35 258/302/71
f 289/209/114 321/342/116 352/341/115
f 321/342/116 322/295/37 351/293/64
f 319/203/111 352/341/115 350/343/117
f 352/341/115 351/293/64 349/289/59
f 350/343/117 348/344/118 315/195/106
f 350/343/117 349/289/59 347/288/58
f 315/195/106 348/344/118 346/345/119
f 348/344/118 347/288/58 345/287/56
f 313/191/102 346/345/119 344/346/120
f 346/345/119 345/287/56 343/286/54
f 344/346/120 342/347/121 309/183/97
f 344/346/120 343/286/54 341/285/53
f 309/183/97 342/347/121 340/348/122
f 342/347/121 341/285/53 339/284/51
f 307/179/94 340/348/122 338/349/123
f 340/348/122 339/284/51 337/283/49
f 338/349/123 336/350/124 303/171/88
f 338/349/123 337/283/49 335/282/47
f 336/350/124 334/351/125 301/167/86
f 336/350/124 335/282/47 333/281/46
f 301/167/86 334/351/125 332/352/126
f 334/351/125 333/281/46 331/280/44
f 332/352/126 330/353/127 297/159/79
f 332/352/126 331/280/44 329/279/42
f 330/353/127 328/354/128 295/155/77
f 330/353/127 329/279/42 327/278/41
f 295/155/77 328/354/128 326/355/129
f 328/354/128 327/278/41 325/277/39
f 326/355/129 324/356/130 290/147/69
f 326/355/129 325/277/39 323/275/36
f 324/356/130 321/357/116 289/145/114
f 324/356/130 323/275/36 322/276/37
f 353/3/131 355/2/132 354/1/131
f 355/2/132 357/5/133 356/4/132
f 357/5/133 359/7/134 358/6/133
f 359/7/134 361/9/136 360/8/135
f 361/9/136 363/11/137 362/10/136
f 363/11/137 365/13/138 364/12/137
f 365/13/138 367/15/139 366/14/138
f 367/15/139 369/17/140 368/16/139
f 369/17/140 371/19/141 370/18/140
f 371/19/141 373/21/142 372/20/141
f 373/21/142 375/23/143 374/22/142
f 375/23/143 377/25/145 376/24/144
f 377/25/145 379/27/146 378/26/145
f 379/27/146 381/29/147 380/28/146
f 381/29/147 383/31/148 382/30/147
f 383/31/148 385/33/149 384/32/148
f 385/33/149 387/35/150 386/34/149
f 387/35/150 389/37/151 388/36/150
f 389/37/151 391/39/152 390/38/151
f 391/39/152 393/41/154 392/40/153
f 393/41/154 395/43/155 394/42/154
f 395/43/155 397/45/156 396/44/155
f 397/45/156 399/47/157 398/46/156
f 399/47/157 401/49/158 400/48/157
f 401/49/158 403/51/159 402/50/158
f 403/51/159 405/53/160 404/52/159
f 405/53/160 407/55/161 406/54/160
f 407/55/161 409/57/163 408/56/162
f 409/57/163 411/59/164 410/58/163
f 411/59/164 413/61/165 412/60/164
f 392/64/32 425/63/32 433/62/32
f 438/67/32 429/66/32 358/65/32
f 413/61/165 415/69/166 414/68/165
f 415/69/166 353/71/131 416/70/166
f 395/74/34 471/73/34 469/72/34
f 355/77/34 450/76/34 455/75/34
f 450/80/150 449/79/149 430/78/150
f 455/82/151 450/80/150 429/81/151
f 452/84/153 455/82/151 438/83/152
f 464/86/154 452/84/153 442/85/154
f 440/88/155 458/87/155 442/85/154
f 447/90/156 463/89/156 440/88/155
f 444/92/157 460/91/157 447/90/156
f 443/94/158 459/93/158 444/92/157
f 446/96/159 462/95/159 443/94/158
f 445/98/160 461/97/160 446/96/159
f 441/100/162 456/99/161 445/98/160
f 448/102/163 457/101/163 441/100/162
f 439/104/164 453/103/164 448/102/163
f 437/106/165 451/105/165 439/104/164
f 435/108/166 454/107/166 437/106/165
f 434/110/131 477/109/131 435/108/166
f 436/112/132 478/111/132 434/110/131
f 433/114/133 479/113/133 436/112/132
f 425/116/135 474/115/134 433/114/133
f 432/118/136 471/117/136 425/116/135
f 469/120/137 471/117/136 421/119/137
f 466/122/138 469/120/137 418/121/138
f 467/124/139 466/122/138 419/123/139
f 465/126/140 467/124/139 417/125/140
f 468/128/141 465/126/140 420/127/141
f 472/130/142 468/128/141 423/129/142
f 470/132/144 472/130/142 422/131/143
f 480/134/145 470/132/144 424/133/145
f 475/136/146 480/134/145 426/135/146
f 473/138/147 475/136/146 431/137/147
f 476/140/148 473/138/147 428/139/148
f 449/142/149 476/140/148 427/141/149
f 355/2/132 356/4/132 354/1/131
f 357/5/133 358/6/133 356/4/132
f 359/7/134 360/8/135 358/6/133
f 361/9/136 362/10/136 360/8/135
f 363/11/137 364/12/137 362/10/136
f 365/13/138 366/14/138 364/12/137
f 367/15/139 368/16/139 366/14/138
f 369/17/140 370/18/140 368/16/139
f 371/19/141 372/20/141 370/18/140
f 373/21/142 374/22/142 372/20/141
f 375/23/143 376/24/144 374/22/142
f 377/25/145 378/26/145 376/24/144
f 379/27/146 380/28/146 378/26/145
f 381/29/147 382/30/147 380/28/146
f 383/31/148 384/32/148 382/30/147
f 385/33/149 386/34/149 384/32/148
f 387/35/150 388/36/150 386/34/149
f 389/37/151 390/38/151 388/36/150
f 391/39/152 392/40/153 390/38/151
f 393/41/154 394/42/154 392/40/153
f 395/43/155 396/44/155 394/42/154
f 397/45/156 398/46/156 396/44/155
f 399/47/157 400/48/157 398/46/156
f 401/49/158 402/50/158 400/48/157
f 403/51/159 404/52/159 402/50/158
f 405/53/160 406/54/160 404/52/159
f 407/55/161 408/56/162 406/54/160
f 409/57/163 410/58/163 408/56/162
f 411/59/164 412/60/164 410/58/163
f 413/61/165 414/68/165 412/60/164
f 404/360/32 406/359/32 423/358/32
f 420/362/32 402/361/32 404/360/32
f 417/364/32 400/363/32 402/361/32
f 417/364/32 402/361/32 420/362/32
f 418/366/32 398/365/32 400/363/32
f 421/368/32 396/367/32 398/365/32
f 432/370/32 394/369/32 396/367/32
f 425/63/32 392/64/32 394/369/32
f 433/62/32 390/371/32 392/64/32
f 433/62/32 388/372/32 390/371/32
f 436/374/32 386/373/32 388/372/32
f 434/376/32 384/375/32 386/373/32
f 434/376/32 386/373/32 436/374/32
f 437/378/32 382/377/32 384/375/32
f 439/380/32 380/379/32 382/377/32
f 448/382/32 378/381/32 380/379/32
f 441/384/32 376/383/32 378/381/32
f 445/386/32 374/385/32 376/383/32
f 441/384/32 445/386/32 376/383/32
f 437/378/32 439/380/32 382/377/32
f 448/382/32 441/384/32 378/381/32
f 436/374/32 388/372/32 433/62/32
f 418/366/32 421/368/32 398/365/32
f 432/370/32 425/63/32 394/369/32
f 420/362/32 404/360/32 423/358/32
f 439/380/32 448/382/32 380/379/32
f 400/363/32 417/364/32 419/387/32
f 400/363/32 419/387/32 418/366/32
f 435/388/32 437/378/32 384/375/32
f 434/376/32 435/388/32 384/375/32
f 396/367/32 421/368/32 432/370/32
f 374/385/32 445/386/32 446/389/32
f 446/389/32 372/390/32 374/385/32
f 443/392/32 370/391/32 372/390/32
f 444/394/32 368/393/32 370/391/32
f 444/394/32 366/395/32 368/393/32
f 447/397/32 364/396/32 366/395/32
f 440/399/32 362/398/32 364/396/32
f 440/399/32 364/396/32 447/397/32
f 442/401/32 360/400/32 362/398/32
f 438/67/32 358/65/32 360/400/32
f 438/67/32 360/400/32 442/401/32
f 430/403/32 356/402/32 358/65/32
f 427/405/32 354/404/32 356/402/32
f 428/407/32 416/406/32 354/404/32
f 431/409/32 414/408/32 416/406/32
f 431/409/32 412/410/32 414/408/32
f 426/412/32 410/411/32 412/410/32
f 426/412/32 412/410/32 431/409/32
f 424/414/32 408/413/32 410/411/32
f 422/415/32 406/359/32 408/413/32
f 422/415/32 408/413/32 424/414/32
f 422/415/32 423/358/32 406/359/32
f 430/403/32 427/405/32 356/402/32
f 428/407/32 431/409/32 416/406/32
f 446/389/32 443/392/32 372/390/32
f 370/391/32 443/392/32 444/394/32
f 447/397/32 366/395/32 444/394/32
f 410/411/32 426/412/32 424/414/32
f 442/401/32 362/398/32 440/399/32
f 427/405/32 428/407/32 354/404/32
f 429/66/32 430/403/32 358/65/32
f 415/69/166 416/70/166 414/68/165
f 353/71/131 354/416/131 416/70/166
f 383/419/34 454/418/34 477/417/34
f 477/417/34 385/420/34 383/419/34
f 478/422/34 387/421/34 385/420/34
f 479/424/34 389/423/34 387/421/34
f 474/426/34 391/425/34 389/423/34
f 474/426/34 393/427/34 391/425/34
f 471/73/34 395/74/34 393/427/34
f 471/73/34 393/427/34 474/426/34
f 469/72/34 397/428/34 395/74/34
f 466/430/34 399/429/34 397/428/34
f 466/430/34 397/428/34 469/72/34
f 466/430/34 467/431/34 399/429/34
f 477/417/34 478/422/34 385/420/34
f 479/424/34 474/426/34 389/423/34
f 387/421/34 478/422/34 479/424/34
f 399/429/34 467/431/34 465/432/34
f 465/432/34 401/433/34 399/429/34
f 468/435/34 403/434/34 401/433/34
f 472/437/34 405/436/34 403/434/34
f 472/437/34 407/438/34 405/436/34
f 470/440/34 409/439/34 407/438/34
f 480/442/34 411/441/34 409/439/34
f 480/442/34 409/439/34 470/440/34
f 475/444/34 413/443/34 411/441/34
f 473/446/34 415/445/34 413/443/34
f 473/446/34 413/443/34 475/444/34
f 449/448/34 353/447/34 415/445/34
f 450/76/34 355/77/34 353/447/34
f 455/75/34 357/449/34 355/77/34
f 452/451/34 359/450/34 357/449/34
f 452/451/34 361/452/34 359/450/34
f 464/454/34 363/453/34 361/452/34
f 464/454/34 361/452/34 452/451/34
f 458/456/34 365/455/34 363/453/34
f 463/458/34 367/457/34 365/455/34
f 463/458/34 365/455/34 458/456/34
f 459/460/34 369/459/34 367/457/34
f 462/462/34 371/461/34 369/459/34
f 461/464/34 373/463/34 371/461/34
f 456/466/34 375/465/34 373/463/34
f 456/466/34 377/467/34 375/465/34
f 457/469/34 379/468/34 377/467/34
f 457/469/34 377/467/34 456/466/34
f 453/471/34 381/470/34 379/468/34
f 451/472/34 383/419/34 381/470/34
f 451/472/34 381/470/34 453/471/34
f 451/472/34 454/418/34 383/419/34
f 459/460/34 462/462/34 369/459/34
f 461/464/34 456/466/34 373/463/34
f 449/448/34 450/76/34 353/447/34
f 455/75/34 452/451/34 357/449/34
f 465/432/34 468/435/34 401/433/34
f 403/434/34 468/435/34 472/437/34
f 470/440/34 407/438/34 472/437/34
f 379/468/34 457/469/34 453/471/34
f 475/444/34 411/441/34 480/442/34
f 462/462/34 461/464/34 371/461/34
f 415/445/34 473/446/34 476/473/34
f 460/474/34 459/460/34 367/457/34
f 463/458/34 460/474/34 367/457/34
f 415/445/34 476/473/34 449/448/34
f 363/453/34 464/454/34 458/456/34
f 449/79/149 427/475/149 430/78/150
f 450/80/150 430/78/150 429/81/151
f 455/82/151 429/81/151 438/83/152
f 452/84/153 438/83/152 442/85/154
f 458/87/155 464/86/154 442/85/154
f 463/89/156 458/87/155 440/88/155
f 460/91/157 463/89/156 447/90/156
f 459/93/158 460/91/157 444/92/157
f 462/95/159 459/93/158 443/94/158
f 461/97/160 462/95/159 446/96/159
f 456/99/161 461/97/160 445/98/160
f 457/101/163 456/99/161 441/100/162
f 453/103/164 457/101/163 448/102/163
f 451/105/165 453/103/164 439/104/164
f 454/107/166 451/105/165 437/106/165
f 477/109/131 454/107/166 435/108/166
f 478/111/132 477/109/131 434/110/131
f 479/113/133 478/111/132 436/112/132
f 474/115/134 479/113/133 433/114/133
f 471/117/136 474/115/134 425/116/135
f 471/117/136 432/118/136 421/119/137
f 469/120/137 421/119/137 418/121/138
f 466/122/138 418/121/138 419/123/139
f 467/124/139 419/123/139 417/125/140
f 465/126/140 417/125/140 420/127/141
f 468/128/141 420/127/141 423/129/142
f 472/130/142 423/129/142 422/131/143
f 470/132/144 422/131/143 424/133/145
f 480/134/145 424/133/145 426/135/146
f 475/136/146 426/135/146 431/137/147
f 473/138/147 431/137/147 428/139/148
f 476/140/148 428/139/148 427/141/149
f 481/3/167 483/2/168 482/1/167
f 483/2/168 485/5/169 484/4/168
f 485/5/169 487/7/170 486/6/169
f 487/7/170 489/9/171 488/8/170
f 489/9/171 491/11/172 490/10/171
f 491/11/172 493/13/173 492/12/172
f 493/13/173 495/15/174 494/14/173
f 495/15/174 497/17/175 496/16/174
f 497/17/175 499/19/176 498/18/175
f 499/19/176 501/21/177 500/20/176
f 501/21/177 503/23/178 502/22/177
f 503/23/178 505/25/179 504/24/178
f 505/25/179 507/27/180 506/26/179
f 507/27/180 509/29/181 508/28/180
f 509/29/181 511/31/182 510/30/181
f 511/31/182 513/33/183 512/32/182
f 513/33/183 515/35/184 514/34/183
f 515/35/184 517/37/185 516/36/184
f 517/37/185 519/39/186 518/38/185
f 519/39/186 521/41/187 520/40/186
f 521/41/187 523/43/188 522/42/187
f 523/43/188 525/45/189 524/44/188
f 525/45/189 527/47/190 526/46/189
f 527/47/190 529/49/191 528/48/190
f 529/49/191 531/51/192 530/50/191
f 531/51/192 533/53/193 532/52/192
f 533/53/193 535/55/194 534/54/193
f 535/55/194 537/57/195 536/56/194
f 537/57/195 539/59/196 538/58/195
f 539/59/196 541/61/197 540/60/196
f 520/64/32 553/63/32 561/62/32
f 566/67/32 557/66/32 486/65/32
f 541/61/197 543/69/198 542/68/197
f 543/69/198 481/71/167 544/70/198
f 523/74/34 599/73/34 597/72/34
f 483/77/34 578/76/34 583/75/34
f 578/80/184 577/79/183 558/78/184
f 583/82/185 578/80/184 557/81/185
f 580/84/186 583/82/185 566/83/186
f 592/86/187 580/84/186 570/85/187
f 568/88/188 586/87/188 570/85/187
f 575/90/189 591/89/189 568/88/188
f 572/92/190 588/91/190 575/90/189
f 571/94/191 587/93/191 572/92/190
f 574/96/192 590/95/192 571/94/191
f 573/98/193 589/97/193 574/96/192
f 569/100/194 584/99/194 573/98/193
f 576/102/195 585/101/195 569/100/194
f 567/104/196 581/103/196 576/102/195
f 565/106/197 579/105/197 567/104/196
f 563/108/198 582/107/198 565/106/197
f 562/110/167 605/109/167 563/108/198
f 564/112/168 606/111/168 562/110/167
f 561/114/169 607/113/169 564/112/168
f 553/116/170 602/115/170 561/114/169
f 560/118/171 599/117/171 553/116/170
f 597/120/172 599/117/171 549/119/172
f 594/122/173 597/120/172 546/121/173
f 595/124/174 594/122/173 547/123/174
f 593/126/175 595/124/174 545/125/175
f 596/128/176 593/126/175 548/127/176
f 600/130/177 596/128/176 551/129/177
f 598/132/178 600/130/177 550/131/178
f 608/134/179 598/132/178 552/133/179
f 603/136/180 608/134/179 554/135/180
f 601/138/181 603/136/180 559/137/181
f 604/140/182 601/138/181 556/139/182
f 577/142/183 604/140/182 555/141/183
f 483/2/168 484/4/168 482/1/167
f 485/5/169 486/6/169 484/4/168
f 487/7/170 488/8/170 486/6/169
f 489/9/171 490/10/171 488/8/170
f 491/11/172 492/12/172 490/10/171
f 493/13/173 494/14/173 492/12/172
f 495/15/174 496/16/174 494/14/173
f 497/17/175 498/18/175 496/16/174
f 499/19/176 500/20/176 498/18/175
f 501/21/177 502/22/177 500/20/176
f 503/23/178 504/24/178 502/22/177
f 505/25/179 506/26/179 504/24/178
f 507/27/180 508/28/180 506/26/179
f 509/29/181 510/30/181 508/28/180
f 511/31/182 512/32/182 510/30/181
f 513/33/183 514/34/183 512/32/182
f 515/35/184 516/36/184 514/34/183
f 517/37/185 518/38/185 516/36/184
f 519/39/186 520/40/186 518/38/185
f 521/41/187 522/42/187 520/40/186
f 523/43/188 524/44/188 522/42/187
f 525/45/189 526/46/189 524/44/188
f 527/47/190 528/48/190 526/46/189
f 529/49/191 530/50/191 528/48/190
f 531/51/192 532/52/192 530/50/191
f 533/53/193 534/54/193 532/52/192
f 535/55/194 536/56/194 534/54/193
f 537/57/195 538/58/195 536/56/194
f 539/59/196 540/60/196 538/58/195
f 541/61/197 542/68/197 540/60/196
f 532/360/32 534/359/32 551/358/32
f 548/362/32 530/361/32 532/360/32
f 545/364/32 528/363/32 530/361/32
f 545/364/32 530/361/32 548/362/32
f 546/366/32 526/365/32 528/363/32
f 549/368/32 524/367/32 526/365/32
f 560/370/32 522/369/32 524/367/32
f 553/63/32 520/64/32 522/369/32
f 561/62/32 518/371/32 520/64/32
f 561/62/32 516/372/32 518/371/32
f 564/374/32 514/373/32 516/372/32
f 562/376/32 512/375/32 514/373/32
f 562/376/32 514/373/32 564/374/32
f 565/378/32 510/377/32 512/375/32
f 567/380/32 508/379/32 510/377/32
f 576/382/32 506/381/32 508/379/32
f 569/384/32 504/383/32 506/381/32
f 573/386/32 502/385/32 504/383/32
f 569/384/32 573/386/32 504/383/32
f 565/378/32 567/380/32 510/377/32
f 576/382/32 569/384/32 506/381/32
f 564/374/32 516/372/32 561/62/32
f 546/366/32 549/368/32 526/365/32
f 560/370/32 553/63/32 522/369/32
f 548/362/32 532/360/32 551/358/32
f 567/380/32 576/382/32 508/379/32
f 528/363/32 545/364/32 547/387/32
f 528/363/32 547/387/32 546/366/32
f 563/388/32 565/378/32 512/375/32
f 562/376/32 563/388/32 512/375/32
f 524/367/32 549/368/32 560/370/32
f 502/385/32 573/386/32 574/389/32
f 574/389/32 500/390/32 502/385/32
f 571/392/32 498/391/32 500/390/32
f 572/394/32 496/393/32 498/391/32
f 572/394/32 494/395/32 496/393/32
f 575/397/32 492/396/32 494/395/32
f 568/399/32 490/398/32 492/396/32
f 568/399/32 492/396/32 575/397/32
f 570/401/32 488/400/32 490/398/32
f 566/67/32 486/65/32 488/400/32
f 566/67/32 488/400/32 570/401/32
f 558/403/32 484/402/32 486/65/32
f 555/405/32 482/404/32 484/402/32
f 556/407/32 544/406/32 482/404/32
f 559/409/32 542/408/32 544/406/32
f 559/409/32 540/410/32 542/408/32
f 554/412/32 538/411/32 540/410/32
f 554/412/32 540/410/32 559/409/32
f 552/414/32 536/413/32 538/411/32
f 550/415/32 534/359/32 536/413/32
f 550/415/32 536/413/32 552/414/32
f 550/415/32 551/358/32 534/359/32
f 558/403/32 555/405/32 484/402/32
f 556/407/32 559/409/32 544/406/32
f 574/389/32 571/392/32 500/390/32
f 498/391/32 571/392/32 572/394/32
f 575/397/32 494/395/32 572/394/32
f 538/411/32 554/412/32 552/414/32
f 570/401/32 490/398/32 568/399/32
f 555/405/32 556/407/32 482/404/32
f 557/66/32 558/403/32 486/65/32
f 543/69/198 544/70/198 542/68/197
f 481/71/167 482/416/167 544/70/198
f 511/419/34 582/418/34 605/417/34
f 605/417/34 513/420/34 511/419/34
f 606/422/34 515/421/34 513/420/34
f 607/424/34 517/423/34 515/421/34
f 602/426/34 519/425/34 517/423/34
f 602/426/34 521/427/34 519/425/34
f 599/73/34 523/74/34 521/427/34
f 599/73/34 521/427/34 602/426/34
f 597/72/34 525/428/34 523/74/34
f 594/430/34 527/429/34 525/428/34
f 594/430/34 525/428/34 597/72/34
f 594/430/34 595/431/34 527/429/34
f 605/417/34 606/422/34 513/420/34
f 607/424/34 602/426/34 517/423/34
f 515/421/34 606/422/34 607/424/34
f 527/429/34 595/431/34 593/432/34
f 593/432/34 529/433/34 527/429/34
f 596/435/34 531/434/34 529/433/34
f 600/437/34 533/436/34 531/434/34
f 600/437/34 535/438/34 533/436/34
f 598/440/34 537/439/34 535/438/34
f 608/442/34 539/441/34 537/439/34
f 608/442/34 537/439/34 598/440/34
f 603/444/34 541/443/34 539/441/34
f 601/446/34 543/445/34 541/443/34
f 601/446/34 541/443/34 603/444/34
f 577/448/34 481/447/34 543/445/34
f 578/76/34 483/77/34 481/447/34
f 583/75/34 485/449/34 483/77/34
f 580/451/34 487/450/34 485/449/34
f 580/451/34 489/452/34 487/450/34
f 592/454/34 491/453/34 489/452/34
f 592/454/34 489/452/34 580/451/34
f 586/456/34 493/455/34 491/453/34
f 591/458/34 495/457/34 493/455/34
f 591/458/34 493/455/34 586/456/34
f 587/460/34 497/459/34 495/457/34
f 590/462/34 499/461/34 497/459/34
f 589/464/34 501/463/34 499/461/34
f 584/466/34 503/465/34 501/463/34
f 584/466/34 505/467/34 503/465/34
f 585/469/34 507/468/34 505/467/34
f 585/469/34 505/467/34 584/466/34
f 581/471/34 509/470/34 507/468/34
f 579/472/34 511/419/34 509/470/34
f 579/472/34 509/470/34 581/471/34
f 579/472/34 582/418/34 511/419/34
f 587/460/34 590/462/34 497/459/34
f 589/464/34 584/466/34 501/463/34
f 577/448/34 578/76/34 481/447/34
f 583/75/34 580/451/34 485/449/34
f 593/432/34 596/435/34 529/433/34
f 531/434/34 596/435/34 600/437/34
f 598/440/34 535/438/34 600/437/34
f 507/468/34 585/469/34 581/471/34
f 603/444/34 539/441/34 608/442/34
f 590/462/34 589/464/34 499/461/34
f 543/445/34 601/446/34 604/473/34
f 588/474/34 587/460/34 495/457/34
f 591/458/34 588/474/34 495/457/34
f 543/445/34 604/473/34 577/448/34
f 491/453/34 592/454/34 586/456/34
f 577/79/183 555/475/183 558/78/184
f 578/80/184 558/78/184 557/81/185
f 583/82/185 557/81/185 566/83/186
f 580/84/186 566/83/186 570/85/187
f 586/87/188 592/86/187 570/85/187
f 591/89/189 586/87/188 568/88/188
f 588/91/190 591/89/189 575/90/189
f 587/93/191 588/91/190 572/92/190
f 590/95/192 587/93/191 571/94/191
f 589/97/193 590/95/192 574/96/192
f 584/99/194 589/97/193 573/98/193
f 585/101/195 584/99/194 569/100/194
f 581/103/196 585/101/195 576/102/195
f 579/105/197 581/103/196 567/104/196
f 582/107/198 579/105/197 565/106/197
f 605/109/167 582/107/198 563/108/198
f 606/111/168 605/109/167 562/110/167
f 607/113/169 606/111/168 564/112/168
f 602/115/170 607/113/169 561/114/169
f 599/117/171 602/115/170 553/116/170
f 599/117/171 560/118/171 549/119/172
f 597/120/172 549/119/172 546/121/173
f 594/122/173 546/121/173 547/123/174
f 595/124/174 547/123/174 545/125/175
f 593/126/175 545/125/175 548/127/176
f 596/128/176 548/127/176 551/129/177
f 600/130/177 551/129/177 550/131/178
f 598/132/178 550/131/178 552/133/179
f 608/134/179 552/133/179 554/135/180
f 603/136/180 554/135/180 559/137/181
f 601/138/181 559/137/181 556/139/182
f 604/140/182 556/139/182 555/141/183
f 609/3/199 611/2/200 610/1/199
f 611/2/200 613/5/201 612/4/200
f 613/5/201 615/7/202 614/6/201
f 615/7/202 617/9/203 616/8/202
f 617/9/203 619/11/204 618/10/203
f 619/11/204 621/13/205 620/12/204
f 621/13/205 623/15/206 622/14/205
f 623/15/206 625/17/207 624/16/206
f 625/17/207 627/19/208 626/18/207
f 627/19/208 629/21/209 628/20/208
f 629/21/209 631/23/210 630/22/209
f 631/23/210 633/25/211 632/24/210
f 633/25/211 635/27/212 634/26/211
f 635/27/212 637/29/213 636/28/212
f 637/29/213 639/31/214 638/30/213
f 639/31/214 641/33/215 640/32/214
f 641/33/215 643/35/216 642/34/215
f 643/35/216 645/37/217 644/36/216
f 645/37/217 647/39/218 646/38/217
f 647/39/218 649/41/219 648/40/218
f 649/41/219 651/43/220 650/42/219
f 651/43/220 653/45/221 652/44/220
f 653/45/221 655/47/222 654/46/221
f 655/47/222 657/49/223 656/48/222
f 657/49/223 659/51/224 658/50/223
f 659/51/224 661/53/225 660/52/224
f 661/53/225 663/55/226 662/54/225
f 663/55/226 665/57/227 664/56/226
f 665/57/227 667/59/228 666/58/227
f 667/59/228 669/61/229 668/60/228
f 648/64/32 681/63/32 689/62/32
f 694/67/32 685/66/32 614/65/32
f 669/61/229 671/69/230 670/68/229
f 671/69/230 609/71/199 672/70/230
f 651/74/34 727/73/34 725/72/34
f 611/77/34 706/76/34 711/75/34
f 706/80/216 705/79/215 686/78/216
f 711/82/217 706/80/216 685/81/217
f 708/84/218 711/82/217 694/83/218
f 720/86/219 708/84/218 698/85/219
f 696/88/220 714/87/220 698/85/219
f 703/90/221 719/89/221 696/88/220
f 700/92/222 716/91/222 703/90/221
f 699/94/223 715/93/223 700/92/222
f 702/96/224 718/95/224 699/94/223
f 701/98/225 717/97/225 702/96/224
f 697/100/226 712/99/226 701/98/225
f 704/102/227 713/101/227 697/100/226
f 695/104/228 709/103/228 704/102/227
f 693/106/229 707/105/229 695/104/228
f 691/108/230 710/107/230 693/106/229
f 690/110/199 733/109/199 691/108/230
f 692/112/200 734/111/200 690/110/199
f 689/114/201 735/113/201 692/112/200
f 681/116/202 730/115/202 689/114/201
f 688/118/203 727/117/203 681/116/202
f 725/120/204 727/117/203 677/119/204
f 722/122/205 725/120/204 674/121/205
f 723/124/206 722/122/205 675/123/206
f 721/126/207 723/124/206 673/125/207
f 724/128/208 721/126/207 676/127/208
f 728/130/209 724/128/208 679/129/209
f 726/132/210 728/130/209 678/131/210
f 736/134/211 726/132/210 680/133/211
f 731/136/212 736/134/211 682/135/212
f 729/138/213 731/136/212 687/137/213
f 732/140/214 729/138/213 684/139/214
f 705/142/215 732/140/214 683/141/215
f 611/2/200 612/4/200 610/1/199
f 613/5/201 614/6/201 612/4/200
f 615/7/202 616/8/202 614/6/201
f 617/9/203 618/10/203 616/8/202
f 619/11/204 620/12/204 618/10/203
f 621/13/205 622/14/205 620/12/204
f 623/15/206 624/16/206 622/14/205
f 625/17/207 626/18/207 624/16/206
f 627/19/208 628/20/208 626/18/207
f 629/21/209 630/22/209 628/20/208
f 631/23/210 632/24/210 630/22/209
f 633/25/211 634/26/211 632/24/210
f 635/27/212 636/28/212 634/26/211
f 637/29/213 638/30/213 636/28/212
f 639/31/214 640/32/214 638/30/213
f 641/33/215 642/34/215 640/32/214
f 643/35/216 644/36/216 642/34/215
f 645/37/217 646/38/217 644/36/216
f 647/39/218 648/40/218 646/38/217
f 649/41/219 650/42/219 648/40/218
f 651/43/220 652/44/220 650/42/219
f 653/45/221 654/46/221 652/44/220
f 655/47/222 656/48/222 654/46/221
f 657/49/223 658/50/223 656/48/222
f 659/51/224 660/52/224 658/50/223
f 661/53/225 662/54/225 660/52/224
f 663/55/226 664/56/226 662/54/225
f 665/57/227 666/58/227 664/56/226
f 667/59/228 668/60/228 666/58/227
f 669/61/229 670/68/229 668/60/228
f 660/360/32 662/359/32 679/358/32
f 676/362/32 658/361/32 660/360/32
f 673/364/32 656/363/32 658/361/32
f 673/364/32 658/361/32 676/362/32
f 674/366/32 654/365/32 656/363/32
f 677/368/32 652/367/32 654/365/32
f 688/370/32 650/369/32 652/367/32
f 681/63/32 648/64/32 650/369/32
f 689/62/32 646/371/32 648/64/32
f 689/62/32 644/372/32 646/371/32
f 692/374/32 642/373/32 644/372/32
f 690/376/32 640/375/32 642/373/32
f 690/376/32 642/373/32 692/374/32
f 693/378/32 638/377/32 640/375/32
f 695/380/32 636/379/32 638/377/32
f 704/382/32 634/381/32 636/379/32
f 697/384/32 632/383/32 634/381/32
f 701/386/32 630/385/32 632/383/32
f 697/384/32 701/386/32 632/383/32
f 693/378/32 695/380/32 638/377/32
f 704/382/32 697/384/32 634/381/32
f 692/374/32 644/372/32 689/62/32
f 674/366/32 677/368/32 654/365/32
f 688/370/32 681/63/32 650/369/32
f 676/362/32 660/360/32 679/358/32
f 695/380/32 704/382/32 636/379/32
f 656/363/32 673/364/32 675/387/32
f 656/363/32 675/387/32 674/366/32
f 691/388/32 693/378/32 640/375/32
f 690/376/32 691/388/32 640/375/32
f 652/367/32 677/368/32 688/370/32
f 630/385/32 701/386/32 702/389/32
f 702/389/32 628/390/32 630/385/32
f 699/392/32 626/391/32 628/390/32
f 700/394/32 624/393/32 626/391/32
f 700/394/32 622/395/32 624/393/32
f 703/397/32 620/396/32 622/395/32
f 696/399/32 618/398/32 620/396/32
f 696/399/32 620/396/32 703/397/32
f 698/401/32 616/400/32 618/398/32
f 694/67/32 614/65/32 616/400/32
f 694/67/32 616/400/32 698/401/32
f 686/403/32 612/402/32 614/65/32
f 683/405/32 610/404/32 612/402/32
f 684/407/32 672/406/32 610/404/32
f 687/409/32 670/408/32 672/406/32
f 687/409/32 668/410/32 670/408/32
f 682/412/32 666/411/32 668/410/32
f 682/412/32 668/410/32 687/409/32
f 680/414/32 664/413/32 666/411/32
f 678/415/32 662/359/32 664/413/32
f 678/415/32 664/413/32 680/414/32
f 678/415/32 679/358/32 662/359/32
f 686/403/32 683/405/32 612/402/32
f 684/407/32 687/409/32 672/406/32
f 702/389/32 699/392/32 628/390/32
f 626/391/32 699/392/32 700/394/32
f 703/397/32 622/395/32 700/394/32
f 666/411/32 682/412/32 680/414/32
f 698/401/32 618/398/32 696/399/32
f 683/405/32 684/407/32 610/404/32
f 685/66/32 686/403/32 614/65/32
f 671/69/230 672/70/230 670/68/229
f 609/71/199 610/416/199 672/70/230
f 639/419/34 710/418/34 733/417/34
f 733/417/34 641/420/34 639/419/34
f 734/422/34 643/421/34 641/420/34
f 735/424/34 645/423/34 643/421/34
f 730/426/34 647/425/34 645/423/34
f 730/426/34 649/427/34 647/425/34
f 727/73/34 651/74/34 649/427/34
f 727/73/34 649/427/34 730/426/34
f 725/72/34 653/428/34 651/74/34
f 722/430/34 655/429/34 653/428/34
f 722/430/34 653/428/34 725/72/34
f 722/430/34 723/431/34 655/429/34
f 733/417/34 734/422/34 641/420/34
f 735/424/34 730/426/34 645/423/34
f 643/421/34 734/422/34 735/424/34
f 655/429/34 723/431/34 721/432/34
f 721/432/34 657/433/34 655/429/34
f 724/435/34 659/434/34 657/433/34
f 728/437/34 661/436/34 659/434/34
f 728/437/34 663/438/34 661/436/34
f 726/440/34 665/439/34 663/438/34
f 736/442/34 667/441/34 665/439/34
f 736/442/34 665/439/34 726/440/34
f 731/444/34 669/443/34 667/441/34
f 729/446/34 671/445/34 669/443/34
f 729/446/34 669/443/34 731/444/34
f 705/448/34 609/447/34 671/445/34
f 706/76/34 611/77/34 609/447/34
f 711/75/34 613/449/34 611/77/34
f 708/451/34 615/450/34 613/449/34
f 708/451/34 617/452/34 615/450/34
f 720/454/34 619/453/34 617/452/34
f 720/454/34 617/452/34 708/451/34
f 714/456/34 621/455/34 619/453/34
f 719/458/34 623/457/34 621/455/34
f 719/458/34 621/455/34 714/456/34
f 715/460/34 625/459/34 623/457/34
f 718/462/34 627/461/34 625/459/34
f 717/464/34 629/463/34 627/461/34
f 712/466/34 631/465/34 629/463/34
f 712/466/34 633/467/34 631/465/34
f 713/469/34 635/468/34 633/467/34
f 713/469/34 633/467/34 712/466/34
f 709/471/34 637/470/34 635/468/34
f 707/472/34 639/419/34 637/470/34
f 707/472/34 637/470/34 709/471/34
f 707/472/34 710/418/34 639/419/34
f 715/460/34 718/462/34 625/459/34
f 717/464/34 712/466/34 629/463/34
f 705/448/34 706/76/34 609/447/34
f 711/75/34 708/451/34 613/449/34
f 721/432/34 724/435/34 657/433/34
f 659/434/34 724/435/34 728/437/34
f 726/440/34 663/438/34 728/437/34
f 635/468/34 713/469/34 709/471/34
f 731/444/34 667/441/34 736/442/34
f 718/462/34 717/464/34 627/461/34
f 671/445/34 729/446/34 732/473/34
f 716/474/34 715/460/34 623/457/34
f 719/458/34 716/474/34 623/457/34
f 671/445/34 732/473/34 705/448/34
f 619/453/34 720/454/34 714/456/34
f 705/79/215 683/475/215 686/78/216
f 706/80/216 686/78/216 685/81/217
f 711/82/217 685/81/217 694/83/218
f 708/84/218 694/83/218 698/85/219
f 714/87/220 720/86/219 698/85/219
f 719/89/221 714/87/220 696/88/220
f 716/91/222 719/89/221 703/90/221
f 715/93/223 716/91/222 700/92/222
f 718/95/224 715/93/223 699/94/223
f 717/97/225 718/95/224 702/96/224
f 712/99/226 717/97/225 701/98/225
f 713/101/227 712/99/226 697/100/226
f 709/103/228 713/101/227 704/102/227
f 707/105/229 709/103/228 695/104/228
f 710/107/230 707/105/229 693/106/229
f 733/109/199 710/107/230 691/108/230
f 734/111/200 733/109/199 690/110/199
f 735/113/201 734/111/200 692/112/200
f 730/115/202 735/113/201 689/114/201
f 727/117/203 730/115/202 681/116/202
f 727/117/203 688/118/203 677/119/204
f 725/120/204 677/119/204 674/121/205
f 722/122/205 674/121/205 675/123/206
f 723/124/206 675/123/206 673/125/207
f 721/126/207 673/125/207 676/127/208
f 724/128/208 676/127/208 679/129/209
f 728/130/209 679/129/209 678/131/210
f 726/132/210 678/131/210 680/133/211
f 736/134/211 680/133/211 682/135/212
f 731/136/212 682/135/212 687/137/213
f 729/138/213 687/137/213 684/139/214
f 732/140/214 684/139/214 683/141/215
