# Blender 5.1.2
# www.blender.org
mtllib goalPiece.mtl
o 円柱.001
v 0.121691 0.311036 -0.794330
v 0.121691 0.887565 -0.794330
v 0.298816 0.311036 -0.776885
v 0.298816 0.887565 -0.776885
v 0.469133 0.311036 -0.725220
v 0.469133 0.887565 -0.725220
v 0.626099 0.311036 -0.641320
v 0.626099 0.887565 -0.641320
v 0.763680 0.311036 -0.528410
v 0.763680 0.887565 -0.528410
v 0.876590 0.311036 -0.390829
v 0.876590 0.887565 -0.390829
v 0.960490 0.311036 -0.233863
v 0.960490 0.887565 -0.233863
v 1.012155 0.311036 -0.063546
v 1.012155 0.887565 -0.063546
v 1.029601 0.311036 0.113579
v 1.029601 0.887565 0.113579
v 1.012155 0.311036 0.290703
v 1.012155 0.887565 0.290703
v 0.960490 0.311036 0.461020
v 0.960490 0.887565 0.461020
v 0.876590 0.311036 0.617986
v 0.876590 0.887565 0.617986
v 0.763680 0.311036 0.755567
v 0.763680 0.887565 0.755567
v 0.626099 0.311036 0.868477
v 0.626099 0.887565 0.868477
v 0.469133 0.311036 0.952377
v 0.469133 0.887565 0.952377
v 0.298816 0.311036 1.004043
v 0.298816 0.887565 1.004043
v 0.121691 0.311036 1.021488
v 0.121691 0.887565 1.021488
v -0.055433 0.311036 1.004043
v -0.055433 0.887565 1.004043
v -0.225750 0.311036 0.952377
v -0.225750 0.887565 0.952377
v -0.382716 0.311036 0.868477
v -0.382716 0.887565 0.868477
v -0.520297 0.311036 0.755567
v -0.520297 0.887565 0.755567
v -0.633207 0.311036 0.617986
v -0.633207 0.887565 0.617986
v -0.717107 0.311036 0.461020
v -0.717107 0.887565 0.461020
v -0.768772 0.311036 0.290703
v -0.768772 0.887565 0.290703
v -0.786218 0.311036 0.113579
v -0.786218 0.887565 0.113579
v -0.768772 0.311036 -0.063546
v -0.768772 0.887565 -0.063546
v -0.717107 0.311036 -0.233863
v -0.717107 0.887565 -0.233863
v -0.633207 0.311036 -0.390829
v -0.633207 0.887565 -0.390829
v -0.520297 0.311036 -0.528410
v -0.520297 0.887565 -0.528410
v -0.382716 0.311036 -0.641320
v -0.382716 0.887565 -0.641320
v -0.225750 0.311036 -0.725220
v -0.225750 0.887565 -0.725220
v -0.055433 0.311036 -0.776885
v -0.055433 0.887565 -0.776885
v -0.455196 0.887565 0.113579
v -0.411283 0.887565 0.334344
v -0.444111 0.887565 0.226124
v -0.444111 0.887565 0.001033
v -0.357973 0.887565 0.434080
v -0.357973 0.887565 -0.206923
v -0.411283 0.887565 -0.107187
v -0.286230 0.887565 -0.294342
v -0.198810 0.887565 0.593243
v -0.198810 0.887565 -0.366086
v 0.121691 0.887565 -0.463309
v 0.009146 0.887565 -0.452224
v 0.342457 0.887565 -0.419396
v 0.234237 0.887565 -0.452224
v -0.099074 0.887565 -0.419396
v -0.286230 0.887565 0.521500
v -0.099074 0.887565 0.646553
v 0.121691 0.887565 0.690466
v 0.234237 0.887565 0.679381
v 0.009146 0.887565 0.679381
v 0.342457 0.887565 0.646553
v 0.442193 0.887565 -0.366086
v 0.442193 0.887565 0.593243
v 0.601356 0.887565 -0.206923
v 0.601356 0.887565 0.434080
v 0.529612 0.887565 -0.294342
v 0.698579 0.887565 0.113579
v 0.687494 0.887565 0.001033
v 0.654666 0.887565 0.334344
v 0.687494 0.887565 0.226124
v 0.654666 0.887565 -0.107187
v 0.529612 0.887565 0.521500
v 0.121691 0.311036 -0.463309
v 0.234237 0.311036 -0.452224
v 0.342457 0.311036 0.646553
v 0.442193 0.311036 -0.366086
v 0.442193 0.311036 0.593243
v 0.234237 0.311036 0.679381
v 0.342457 0.311036 -0.419396
v 0.601356 0.311036 0.434080
v 0.529612 0.311036 0.521500
v 0.601356 0.311036 -0.206923
v 0.698579 0.311036 0.113579
v 0.687494 0.311036 0.001033
v 0.654666 0.311036 0.334344
v 0.687494 0.311036 0.226124
v 0.654666 0.311036 -0.107187
v 0.529612 0.311036 -0.294342
v -0.455196 0.311036 0.113579
v -0.411283 0.311036 0.334344
v -0.444111 0.311036 0.226124
v -0.444111 0.311036 0.001033
v -0.357973 0.311036 0.434080
v -0.357973 0.311036 -0.206923
v -0.286230 0.311036 0.521500
v -0.411283 0.311036 -0.107187
v -0.099074 0.311036 -0.419396
v -0.198810 0.311036 0.593243
v -0.198810 0.311036 -0.366086
v 0.009146 0.311036 -0.452224
v 0.121691 0.311036 0.690466
v 0.009146 0.311036 0.679381
v -0.099074 0.311036 0.646553
v -0.286230 0.311036 -0.294342
v 0.000000 0.004555 -1.000000
v -0.000000 0.309650 -0.297744
v 0.195090 0.004555 -0.980785
v 0.058087 0.309650 -0.292023
v 0.382683 0.004555 -0.923880
v 0.113942 0.309650 -0.275079
v 0.555570 0.004555 -0.831470
v 0.165417 0.309650 -0.247565
v 0.707107 0.004555 -0.707107
v 0.210537 0.309650 -0.210537
v 0.831470 0.004555 -0.555570
v 0.247565 0.309650 -0.165417
v 0.923880 0.004555 -0.382683
v 0.275079 0.309650 -0.113942
v 0.980785 0.004555 -0.195090
v 0.292023 0.309650 -0.058087
v 1.000000 0.004555 0.000000
v 0.297744 0.309650 0.000000
v 0.980785 0.004555 0.195090
v 0.292023 0.309650 0.058087
v 0.923880 0.004555 0.382683
v 0.275079 0.309650 0.113942
v 0.831470 0.004555 0.555570
v 0.247565 0.309650 0.165417
v 0.707107 0.004555 0.707107
v 0.210537 0.309650 0.210537
v 0.555570 0.004555 0.831470
v 0.165417 0.309650 0.247565
v 0.382683 0.004555 0.923880
v 0.113942 0.309650 0.275079
v 0.195090 0.004555 0.980785
v 0.058087 0.309650 0.292023
v 0.000000 0.004555 1.000000
v -0.000000 0.309650 0.297744
v -0.195090 0.004555 0.980785
v -0.058087 0.309650 0.292023
v -0.382683 0.004555 0.923880
v -0.113942 0.309650 0.275079
v -0.555570 0.004555 0.831470
v -0.165418 0.309650 0.247565
v -0.707107 0.004555 0.707107
v -0.210537 0.309650 0.210537
v -0.831470 0.004555 0.555570
v -0.247565 0.309650 0.165417
v -0.923880 0.004555 0.382683
v -0.275079 0.309650 0.113942
v -0.980785 0.004555 0.195090
v -0.292023 0.309650 0.058087
v -1.000000 0.004555 0.000000
v -0.297744 0.309650 0.000000
v -0.980785 0.004555 -0.195090
v -0.292023 0.309650 -0.058087
v -0.923880 0.004555 -0.382683
v -0.275079 0.309650 -0.113942
v -0.831470 0.004555 -0.555570
v -0.247565 0.309650 -0.165417
v -0.707107 0.004555 -0.707107
v -0.210537 0.309650 -0.210537
v -0.555570 0.004555 -0.831470
v -0.165418 0.309650 -0.247565
v -0.382683 0.004555 -0.923880
v -0.113942 0.309650 -0.275079
v -0.195090 0.004555 -0.980785
v -0.058087 0.309650 -0.292023
v 0.195090 0.309650 -0.980785
v 0.000000 0.309650 -1.000000
v 0.382683 0.309650 -0.923880
v 0.555570 0.309650 -0.831470
v 0.707107 0.309650 -0.707107
v 0.831470 0.309650 -0.555570
v 0.923880 0.309650 -0.382683
v 0.980785 0.309650 -0.195090
v 1.000000 0.309650 0.000000
v 0.980785 0.309650 0.195090
v 0.923880 0.309650 0.382683
v 0.831470 0.309650 0.555570
v 0.707107 0.309650 0.707107
v 0.555570 0.309650 0.831470
v 0.382683 0.309650 0.923880
v 0.195090 0.309650 0.980785
v 0.000000 0.309650 1.000000
v -0.195090 0.309650 0.980785
v -0.382683 0.309650 0.923880
v -0.555570 0.309650 0.831470
v -0.707107 0.309650 0.707107
v -0.831470 0.309650 0.555570
v -0.923880 0.309650 0.382683
v -0.980785 0.309650 0.195090
v -1.000000 0.309650 0.000000
v -0.980785 0.309650 -0.195090
v -0.923880 0.309650 -0.382683
v -0.831470 0.309650 -0.555570
v -0.707107 0.309650 -0.707107
v -0.555570 0.309650 -0.831470
v -0.382683 0.309650 -0.923880
v -0.195090 0.309650 -0.980785
v 0.058087 3.581375 -0.292023
v 0.000000 3.581375 -0.297744
v 0.113942 3.581375 -0.275079
v 0.165418 3.581375 -0.247565
v 0.210537 3.581375 -0.210537
v 0.247565 3.581375 -0.165417
v 0.275079 3.581375 -0.113942
v 0.292023 3.581375 -0.058087
v 0.297744 3.581375 0.000000
v 0.292023 3.581375 0.058087
v 0.275079 3.581375 0.113942
v 0.247565 3.581375 0.165417
v 0.210537 3.581375 0.210537
v 0.165418 3.581375 0.247565
v 0.113942 3.581375 0.275079
v 0.058087 3.581375 0.292023
v 0.000000 3.581375 0.297744
v -0.058087 3.581375 0.292023
v -0.113941 3.581375 0.275079
v -0.165417 3.581375 0.247565
v -0.210536 3.581375 0.210537
v -0.247565 3.581375 0.165417
v -0.275079 3.581375 0.113942
v -0.292022 3.581375 0.058087
v -0.297744 3.581375 0.000000
v -0.292022 3.581375 -0.058087
v -0.275079 3.581375 -0.113942
v -0.247565 3.581375 -0.165417
v -0.210536 3.581375 -0.210537
v -0.165417 3.581375 -0.247565
v -0.113941 3.581375 -0.275079
v -0.058087 3.581375 -0.292023
v 0.000000 4.263285 -0.233785
v 0.000000 4.263285 0.234165
v 0.012532 4.238403 -0.232040
v 0.012532 4.238403 0.232420
v 0.092647 4.080581 -0.232507
v 0.092647 4.080581 0.232887
v 0.273153 4.055333 -0.210556
v 0.273153 4.055333 0.210936
v 0.265465 4.048162 -0.230935
v 0.265465 4.048162 0.231315
v 0.152990 3.920949 -0.231301
v 0.152990 3.920949 0.231681
v 0.183465 3.764305 -0.229494
v 0.183465 3.764305 0.229874
v 0.169177 3.773640 -0.230724
v 0.169177 3.773640 0.231104
v 0.000000 3.853589 -0.230496
v 0.000000 3.853589 0.230875
v -0.169177 3.773640 -0.230724
v -0.169177 3.773640 0.231104
v -0.183465 3.764305 -0.229494
v -0.183465 3.764305 0.229874
v -0.152990 3.920949 -0.231301
v -0.152990 3.920949 0.231681
v -0.265465 4.048162 -0.230935
v -0.265465 4.048162 0.231315
v -0.273153 4.055333 -0.210556
v -0.273153 4.055333 0.210936
v -0.092647 4.080581 -0.232507
v -0.092647 4.080581 0.232887
v -0.012532 4.238403 -0.232040
v -0.012532 4.238403 0.232420
v -0.000000 4.535040 -0.122988
v 0.101690 4.334194 -0.122988
v 0.101690 4.334194 0.123368
v -0.000000 4.535040 0.123368
v 0.174636 4.190462 -0.122988
v 0.174636 4.190462 0.123368
v 0.521899 4.143088 -0.111415
v 0.521899 4.143088 0.111795
v 0.391438 3.997557 -0.122988
v 0.391438 3.997557 0.123368
v 0.288177 3.880740 -0.122988
v 0.288177 3.880740 0.123368
v 0.359266 3.515643 -0.122988
v 0.359266 3.515643 0.123368
v 0.155750 3.647309 -0.122988
v 0.155750 3.647309 0.123368
v -0.000000 3.720928 -0.122988
v -0.000000 3.720928 0.123368
v -0.155750 3.647309 -0.122988
v -0.155750 3.647309 0.123368
v -0.359266 3.515643 -0.122988
v -0.359266 3.515643 0.123368
v -0.288177 3.880740 -0.122988
v -0.288177 3.880740 0.123368
v -0.391438 3.997557 -0.122988
v -0.391438 3.997557 0.123368
v -0.521899 4.143088 -0.111415
v -0.521899 4.143088 0.111795
v -0.174636 4.190462 -0.122988
v -0.174636 4.190462 0.123368
v -0.101690 4.334194 -0.122988
v -0.101690 4.334194 0.123368
v -0.000000 4.718742 -0.028320
v -0.000000 4.718742 0.028700
v 0.135323 4.451467 0.028700
v 0.135323 4.451467 -0.028320
v 0.232395 4.260197 0.028700
v 0.232395 4.260197 -0.028320
v 0.694514 4.197154 0.026021
v 0.694514 4.197154 -0.025642
v 0.520904 4.003489 0.028700
v 0.520904 4.003489 -0.028320
v 0.383490 3.848036 0.028700
v 0.383490 3.848036 -0.028320
v 0.478091 3.362184 0.028700
v 0.478091 3.362184 -0.028320
v 0.207264 3.537398 0.028700
v 0.207264 3.537398 -0.028320
v -0.000000 3.635366 0.028700
v -0.000000 3.635366 -0.028320
v -0.207264 3.537398 0.028700
v -0.207264 3.537398 -0.028320
v -0.478091 3.362184 0.028700
v -0.478091 3.362184 -0.028320
v -0.383490 3.848036 0.028700
v -0.383490 3.848036 -0.028320
v -0.520904 4.003489 0.028700
v -0.520904 4.003489 -0.028320
v -0.694514 4.197154 0.026021
v -0.694514 4.197154 -0.025642
v -0.232395 4.260197 0.028700
v -0.232395 4.260197 -0.028320
v -0.135323 4.451467 0.028700
v -0.135323 4.451467 -0.028320
v -0.786279 0.893127 0.693513
v -0.786279 1.469656 0.693513
v -0.888812 0.893127 0.548034
v -0.888812 1.469656 0.548034
v -0.960993 0.893127 0.385346
v -0.960993 1.469656 0.385346
v -1.000049 0.893127 0.211703
v -1.000049 1.469656 0.211703
v -1.004478 0.893127 0.033777
v -1.004478 1.469656 0.033777
v -0.974110 0.893127 -0.141595
v -0.974110 1.469656 -0.141595
v -0.910112 0.893127 -0.307672
v -0.910112 1.469656 -0.307672
v -0.814944 0.893127 -0.458073
v -0.814944 1.469656 -0.458073
v -0.692263 0.893127 -0.587017
v -0.692263 1.469656 -0.587017
v -0.546784 0.893127 -0.689550
v -0.546784 1.469656 -0.689550
v -0.384096 0.893127 -0.761732
v -0.384096 1.469656 -0.761732
v -0.210453 0.893127 -0.800787
v -0.210453 1.469656 -0.800787
v -0.032527 0.893127 -0.805216
v -0.032527 1.469656 -0.805216
v 0.142845 0.893127 -0.774848
v 0.142845 1.469656 -0.774848
v 0.308922 0.893127 -0.710851
v 0.308922 1.469656 -0.710851
v 0.459323 0.893127 -0.615683
v 0.459323 1.469656 -0.615683
v 0.588267 0.893127 -0.493001
v 0.588267 1.469656 -0.493001
v 0.690801 0.893127 -0.347522
v 0.690801 1.469656 -0.347522
v 0.762982 0.893127 -0.184834
v 0.762982 1.469656 -0.184834
v 0.802037 0.893127 -0.011191
v 0.802037 1.469656 -0.011191
v 0.806466 0.893127 0.166735
v 0.806466 1.469656 0.166735
v 0.776098 0.893127 0.342107
v 0.776098 1.469656 0.342107
v 0.712101 0.893127 0.508184
v 0.712101 1.469656 0.508184
v 0.616933 0.893127 0.658585
v 0.616933 1.469656 0.658585
v 0.494252 0.893127 0.787529
v 0.494252 1.469656 0.787529
v 0.348772 0.893127 0.890062
v 0.348772 1.469656 0.890062
v 0.186084 0.893127 0.962243
v 0.186084 1.469656 0.962243
v 0.012441 0.893127 1.001299
v 0.012441 1.469656 1.001299
v -0.165485 0.893127 1.005728
v -0.165485 1.469656 1.005728
v -0.340856 0.893127 0.975360
v -0.340856 1.469656 0.975360
v -0.506934 0.893127 0.911362
v -0.506934 1.469656 0.911362
v -0.657335 0.893127 0.816194
v -0.657335 1.469656 0.816194
v 0.277951 1.469656 0.536951
v 0.416373 1.469656 0.359454
v 0.355903 1.469656 0.455019
v 0.185513 1.469656 0.602101
v 0.457037 1.469656 0.253928
v -0.028192 1.469656 0.672781
v 0.082141 1.469656 0.647965
v -0.141247 1.469656 0.675595
v 0.473519 1.469656 0.029442
v -0.252678 1.469656 0.656299
v -0.535701 1.469656 0.477213
v -0.453769 1.469656 0.555165
v -0.646715 1.469656 0.281403
v -0.600851 1.469656 0.384775
v -0.358204 1.469656 0.615635
v 0.476333 1.469656 0.142497
v 0.448703 1.469656 -0.080891
v 0.337689 1.469656 -0.276701
v 0.255758 1.469656 -0.354653
v 0.402839 1.469656 -0.184263
v 0.160193 1.469656 -0.415123
v -0.671531 1.469656 0.171070
v 0.054667 1.469656 -0.455787
v -0.655049 1.469656 -0.053417
v -0.169819 1.469656 -0.472269
v -0.674345 1.469656 0.058015
v -0.475963 1.469656 -0.336439
v -0.553915 1.469656 -0.254507
v -0.280153 1.469656 -0.447453
v -0.383525 1.469656 -0.401589
v -0.614385 1.469656 -0.158942
v -0.056765 1.469656 -0.475083
v -0.535701 0.893127 0.477213
v -0.600851 0.893127 0.384775
v 0.160193 0.893127 -0.415123
v -0.671531 0.893127 0.171070
v 0.054667 0.893127 -0.455787
v 0.255758 0.893127 -0.354653
v -0.646715 0.893127 0.281403
v -0.169819 0.893127 -0.472269
v -0.056765 0.893127 -0.475083
v -0.655049 0.893127 -0.053417
v -0.475963 0.893127 -0.336439
v -0.553915 0.893127 -0.254507
v -0.280153 0.893127 -0.447453
v -0.383525 0.893127 -0.401589
v -0.614385 0.893127 -0.158942
v -0.674345 0.893127 0.058015
v 0.277951 0.893127 0.536951
v 0.416373 0.893127 0.359454
v 0.355903 0.893127 0.455019
v 0.185513 0.893127 0.602101
v 0.457037 0.893127 0.253928
v -0.028192 0.893127 0.672781
v 0.476333 0.893127 0.142497
v 0.082141 0.893127 0.647965
v -0.358204 0.893127 0.615635
v 0.473519 0.893127 0.029442
v -0.252678 0.893127 0.656299
v -0.453769 0.893127 0.555165
v 0.337689 0.893127 -0.276701
v 0.402839 0.893127 -0.184263
v 0.448703 0.893127 -0.080891
v -0.141247 0.893127 0.675595
v 0.233559 1.474542 -0.626989
v 0.233559 2.051070 -0.626989
v 0.403131 1.474542 -0.572928
v 0.403131 2.051070 -0.572928
v 0.558899 1.474542 -0.486823
v 0.558899 2.051070 -0.486823
v 0.694875 1.474542 -0.371985
v 0.694875 2.051070 -0.371985
v 0.805834 1.474542 -0.232826
v 0.805834 2.051070 -0.232826
v 0.887513 1.474542 -0.074693
v 0.887513 2.051070 -0.074693
v 0.936772 1.474542 0.096336
v 0.936772 2.051070 0.096336
v 0.951718 1.474542 0.273689
v 0.951718 2.051070 0.273689
v 0.931778 1.474542 0.450549
v 0.931778 2.051070 0.450549
v 0.877717 1.474542 0.620122
v 0.877717 2.051070 0.620122
v 0.791612 1.474542 0.775889
v 0.791612 2.051070 0.775889
v 0.676774 1.474542 0.911865
v 0.676774 2.051070 0.911865
v 0.537615 1.474542 1.022824
v 0.537615 2.051070 1.022824
v 0.379482 1.474542 1.104503
v 0.379482 2.051070 1.104503
v 0.208453 1.474542 1.153762
v 0.208453 2.051070 1.153762
v 0.031100 1.474542 1.168708
v 0.031100 2.051070 1.168708
v -0.145760 1.474542 1.148768
v -0.145760 2.051070 1.148768
v -0.315333 1.474542 1.094707
v -0.315333 2.051070 1.094707
v -0.471100 1.474542 1.008602
v -0.471100 2.051070 1.008602
v -0.607076 1.474542 0.893764
v -0.607076 2.051070 0.893764
v -0.718035 1.474542 0.754605
v -0.718035 2.051070 0.754605
v -0.799714 1.474542 0.596472
v -0.799714 2.051070 0.596472
v -0.848973 1.474542 0.425443
v -0.848973 2.051070 0.425443
v -0.863919 1.474542 0.248091
v -0.863919 2.051070 0.248091
v -0.843979 1.474542 0.071230
v -0.843979 2.051070 0.071230
v -0.789918 1.474542 -0.098342
v -0.789918 2.051070 -0.098342
v -0.703814 1.474542 -0.254110
v -0.703814 2.051070 -0.254110
v -0.588975 1.474542 -0.390086
v -0.588975 2.051070 -0.390086
v -0.449816 1.474542 -0.501045
v -0.449816 2.051070 -0.501045
v -0.291683 1.474542 -0.582724
v -0.291683 2.051070 -0.582724
v -0.120654 1.474542 -0.631983
v -0.120654 2.051070 -0.631983
v 0.056698 1.474542 -0.646929
v 0.056698 2.051070 -0.646929
v -0.520261 2.051070 0.140379
v -0.523434 2.051070 0.365447
v -0.532931 2.051070 0.252757
v -0.485910 2.051070 0.032633
v -0.492134 2.051070 0.474119
v -0.358231 2.051070 -0.152742
v -0.431199 2.051070 -0.066342
v -0.269808 2.051070 -0.223245
v -0.369732 2.051070 0.663020
v -0.169331 2.051070 -0.275144
v 0.164410 2.051070 -0.303270
v 0.052032 2.051070 -0.315941
v 0.371131 2.051070 -0.214209
v 0.272156 2.051070 -0.268920
v -0.060658 2.051070 -0.306444
v -0.440236 2.051070 0.574597
v -0.283332 2.051070 0.735988
v -0.076611 2.051070 0.825050
v 0.035767 2.051070 0.837720
v -0.184357 2.051070 0.790699
v 0.148457 2.051070 0.828223
v 0.457530 2.051070 -0.141240
v 0.257129 2.051070 0.796923
v 0.579933 2.051070 0.047660
v 0.446029 2.051070 0.674521
v 0.528034 2.051070 -0.052818
v 0.608059 2.051070 0.381400
v 0.620730 2.051070 0.269022
v 0.518998 2.051070 0.588121
v 0.573709 2.051070 0.489146
v 0.611233 2.051070 0.156332
v 0.357607 2.051070 0.745025
v 0.164410 1.474542 -0.303270
v 0.272156 1.474542 -0.268920
v 0.148457 1.474542 0.828223
v 0.457530 1.474542 -0.141240
v 0.257129 1.474542 0.796923
v 0.035767 1.474542 0.837720
v 0.371131 1.474542 -0.214209
v 0.446029 1.474542 0.674521
v 0.357607 1.474542 0.745025
v 0.579933 1.474542 0.047660
v 0.608059 1.474542 0.381400
v 0.620730 1.474542 0.269022
v 0.518998 1.474542 0.588121
v 0.573709 1.474542 0.489146
v 0.611233 1.474542 0.156332
v 0.528034 1.474542 -0.052818
v -0.520261 1.474542 0.140379
v -0.523434 1.474542 0.365447
v -0.532931 1.474542 0.252757
v -0.485910 1.474542 0.032633
v -0.492134 1.474542 0.474119
v -0.358231 1.474542 -0.152742
v -0.440236 1.474542 0.574597
v -0.431199 1.474542 -0.066342
v -0.060658 1.474542 -0.306444
v -0.369732 1.474542 0.663020
v -0.169331 1.474542 -0.275144
v 0.052032 1.474542 -0.315941
v -0.076611 1.474542 0.825050
v -0.184357 1.474542 0.790699
v -0.283332 1.474542 0.735988
v -0.269808 1.474542 -0.223245
v -0.591194 2.052952 -0.762642
v -0.591194 2.629481 -0.762642
v -0.430897 2.052952 -0.839987
v -0.430897 2.629481 -0.839987
v -0.258591 2.052952 -0.884574
v -0.258591 2.629481 -0.884574
v -0.080898 2.052952 -0.894689
v -0.080898 2.629481 -0.894689
v 0.095355 2.052952 -0.869943
v 0.095355 2.629481 -0.869943
v 0.263393 2.052952 -0.811288
v 0.263393 2.629481 -0.811288
v 0.416760 2.052952 -0.720977
v 0.416760 2.629481 -0.720977
v 0.549560 2.052952 -0.602481
v 0.549560 2.629481 -0.602481
v 0.656692 2.052952 -0.460354
v 0.656692 2.629481 -0.460354
v 0.734037 2.052952 -0.300057
v 0.734037 2.629481 -0.300057
v 0.778624 2.052952 -0.127751
v 0.778624 2.629481 -0.127751
v 0.788739 2.052952 0.049943
v 0.788739 2.629481 0.049943
v 0.763994 2.052952 0.226195
v 0.763994 2.629481 0.226195
v 0.705338 2.052952 0.394234
v 0.705338 2.629481 0.394234
v 0.615027 2.052952 0.547600
v 0.615027 2.629481 0.547600
v 0.496531 2.052952 0.680401
v 0.496531 2.629481 0.680401
v 0.354404 2.052952 0.787533
v 0.354404 2.629481 0.787533
v 0.194107 2.052952 0.864878
v 0.194107 2.629481 0.864878
v 0.021801 2.052952 0.909465
v 0.021801 2.629481 0.909465
v -0.155892 2.052952 0.919580
v -0.155892 2.629481 0.919580
v -0.332145 2.052952 0.894834
v -0.332145 2.629481 0.894834
v -0.500183 2.052952 0.836179
v -0.500183 2.629481 0.836179
v -0.653550 2.052952 0.745868
v -0.653550 2.629481 0.745868
v -0.786350 2.052952 0.627372
v -0.786350 2.629481 0.627372
v -0.893482 2.052952 0.485245
v -0.893482 2.629481 0.485245
v -0.970827 2.052952 0.324948
v -0.970827 2.629481 0.324948
v -1.015414 2.052952 0.152642
v -1.015414 2.629481 0.152642
v -1.025529 2.052952 -0.025052
v -1.025529 2.629481 -0.025052
v -1.000784 2.052952 -0.201304
v -1.000784 2.629481 -0.201304
v -0.942128 2.052952 -0.369343
v -0.942128 2.629481 -0.369343
v -0.851817 2.052952 -0.522709
v -0.851817 2.629481 -0.522709
v -0.733321 2.052952 -0.655510
v -0.733321 2.629481 -0.655510
v -0.610887 2.629481 0.312863
v -0.458434 2.629481 0.478464
v -0.542815 2.629481 0.403171
v -0.660033 2.629481 0.211010
v -0.360984 2.629481 0.535848
v -0.694790 2.629481 -0.011380
v -0.688363 2.629481 0.101527
v -0.679067 2.629481 -0.123372
v -0.142221 2.629481 0.588841
v -0.641797 2.629481 -0.230144
v -0.418813 2.629481 -0.480047
v -0.509121 2.629481 -0.411975
v -0.207476 2.629481 -0.557523
v -0.316960 2.629481 -0.529192
v -0.584413 2.629481 -0.327593
v -0.254212 2.629481 0.573117
v -0.029314 2.629481 0.582414
v 0.182023 2.629481 0.504938
v 0.272331 2.629481 0.436866
v 0.080170 2.629481 0.554083
v 0.347623 2.629481 0.352484
v -0.094569 2.629481 -0.563950
v 0.405007 2.629481 0.255035
v 0.124194 2.629481 -0.510957
v 0.458000 2.629481 0.036271
v 0.017422 2.629481 -0.548226
v 0.374097 2.629481 -0.287972
v 0.306025 2.629481 -0.378280
v 0.451573 2.629481 -0.076636
v 0.423243 2.629481 -0.186119
v 0.221643 2.629481 -0.453573
v 0.442277 2.629481 0.148263
v -0.418813 2.052952 -0.480047
v -0.316960 2.052952 -0.529192
v 0.347623 2.052952 0.352484
v -0.094569 2.052952 -0.563950
v 0.405007 2.052952 0.255035
v 0.272331 2.052952 0.436866
v -0.207476 2.052952 -0.557523
v 0.458000 2.052952 0.036271
v 0.442277 2.052952 0.148263
v 0.124194 2.052952 -0.510957
v 0.374097 2.052952 -0.287972
v 0.306025 2.052952 -0.378280
v 0.451573 2.052952 -0.076636
v 0.423243 2.052952 -0.186119
v 0.221643 2.052952 -0.453573
v 0.017422 2.052952 -0.548226
v -0.610887 2.052952 0.312863
v -0.458434 2.052952 0.478464
v -0.542815 2.052952 0.403171
v -0.660033 2.052952 0.211010
v -0.360984 2.052952 0.535848
v -0.694790 2.052952 -0.011380
v -0.254212 2.052952 0.573117
v -0.688363 2.052952 0.101527
v -0.584413 2.052952 -0.327593
v -0.142221 2.052952 0.588841
v -0.641797 2.052952 -0.230144
v -0.509121 2.052952 -0.411975
v 0.182023 2.052952 0.504938
v 0.080170 2.052952 0.554083
v -0.029314 2.052952 0.582414
v -0.679067 2.052952 -0.123372
vn -0.0000 -0.0000 -1.0000
vn 0.1951 -0.0000 -0.9808
vn 0.3827 -0.0000 -0.9239
vn 0.5556 -0.0000 -0.8315
vn 0.7071 -0.0000 -0.7071
vn 0.8315 -0.0000 -0.5556
vn 0.9239 -0.0000 -0.3827
vn 0.9808 -0.0000 -0.1951
vn 1.0000 -0.0000 -0.0000
vn 0.9808 -0.0000 0.1951
vn 0.9239 -0.0000 0.3827
vn 0.8315 -0.0000 0.5556
vn 0.7071 -0.0000 0.7071
vn 0.5556 -0.0000 0.8315
vn 0.3827 -0.0000 0.9239
vn 0.1951 -0.0000 0.9808
vn -0.0000 -0.0000 1.0000
vn -0.1951 -0.0000 0.9808
vn -0.3827 -0.0000 0.9239
vn -0.5556 -0.0000 0.8315
vn -0.7071 -0.0000 0.7071
vn -0.8315 -0.0000 0.5556
vn -0.9239 -0.0000 0.3827
vn -0.9808 -0.0000 0.1951
vn -1.0000 -0.0000 -0.0000
vn -0.9808 -0.0000 -0.1951
vn -0.9239 -0.0000 -0.3827
vn -0.8315 -0.0000 -0.5556
vn -0.7071 -0.0000 -0.7071
vn -0.5556 -0.0000 -0.8315
vn -0.3827 -0.0000 -0.9239
vn -0.0000 1.0000 -0.0000
vn -0.1951 -0.0000 -0.9808
vn -0.0000 -1.0000 -0.0000
vn -0.0000 0.4417 0.8971
vn 0.8348 0.4231 0.3523
vn -0.0000 0.9074 0.4203
vn 0.6347 0.3204 0.7032
vn 0.5242 0.7408 0.4199
vn 0.3839 0.1885 0.9039
vn 0.8487 0.3092 0.4291
vn 0.6939 -0.6040 0.3921
vn 0.5090 -0.4053 0.7594
vn 0.8667 -0.2277 0.4438
vn 0.1841 -0.3843 0.9047
vn 0.5105 -0.7479 0.4243
vn -0.4738 -0.8242 0.3102
vn -0.3507 -0.6446 0.6793
vn -0.0000 -0.9178 0.3970
vn 0.3507 -0.6446 0.6793
vn 0.4737 -0.8242 0.3102
vn -0.1841 -0.3843 0.9047
vn -0.5104 -0.7479 0.4243
vn -0.8667 -0.2277 0.4438
vn -0.5090 -0.4053 0.7594
vn -0.6939 -0.6040 0.3921
vn -0.3839 0.1885 0.9039
vn -0.8487 0.3092 0.4291
vn -0.5242 0.7408 0.4199
vn -0.0000 -0.2502 0.9682
vn 0.2254 -0.0675 0.9719
vn 0.1567 0.1903 0.9691
vn -0.6347 0.3204 0.7032
vn -0.8348 0.4231 0.3522
vn -0.0000 -0.2502 -0.9682
vn -0.2254 -0.0675 -0.9719
vn -0.1567 0.1903 -0.9691
vn -0.0000 0.2732 -0.9620
vn 0.6347 0.3204 -0.7032
vn 0.3264 0.1416 -0.9346
vn -0.0000 0.2732 0.9620
vn 0.4032 0.5155 -0.7561
vn 0.1567 0.1903 -0.9691
vn 0.3264 0.1416 0.9346
vn 0.4032 0.5155 0.7561
vn 0.3828 0.6231 -0.6820
vn 0.3839 0.1885 -0.9039
vn 0.3828 0.6231 0.6820
vn 0.5090 -0.4053 -0.7594
vn 0.4159 0.3323 -0.8465
vn 0.6155 -0.1689 -0.7698
vn 0.2254 -0.0675 -0.9719
vn 0.4159 0.3323 0.8465
vn 0.6155 -0.1689 0.7698
vn 0.1661 -0.2526 -0.9532
vn 0.1841 -0.3843 -0.9047
vn 0.1661 -0.2526 0.9532
vn -0.3507 -0.6446 -0.6793
vn -0.1207 -0.3072 -0.9440
vn -0.0000 -0.6764 -0.7365
vn -0.1207 -0.3072 0.9440
vn -0.0000 -0.6764 0.7365
vn 0.1207 -0.3072 -0.9440
vn 0.3507 -0.6446 -0.6793
vn 0.1207 -0.3072 0.9440
vn -0.1661 -0.2526 -0.9532
vn -0.1841 -0.3843 -0.9047
vn -0.1661 -0.2526 0.9532
vn -0.6155 -0.1689 -0.7698
vn -0.6155 -0.1689 0.7698
vn -0.4159 0.3323 -0.8465
vn -0.5090 -0.4053 -0.7594
vn -0.4159 0.3323 0.8465
vn -0.2254 -0.0675 0.9719
vn -0.3828 0.6231 -0.6820
vn -0.3839 0.1885 -0.9039
vn -0.3828 0.6231 0.6820
vn -0.4032 0.5155 -0.7561
vn -0.4032 0.5155 0.7561
vn -0.3264 0.1416 -0.9346
vn -0.6347 0.3204 -0.7032
vn -0.3264 0.1416 0.9346
vn -0.1567 0.1903 0.9691
vn -0.0000 0.4417 -0.8971
vn -0.8348 0.4231 -0.3523
vn -0.0000 0.9074 -0.4203
vn -0.5242 0.7408 -0.4199
vn -0.8487 0.3092 -0.4291
vn -0.6939 -0.6040 -0.3921
vn -0.8667 -0.2277 -0.4438
vn -0.5105 -0.7479 -0.4243
vn 0.4738 -0.8242 -0.3102
vn -0.0000 -0.9178 -0.3970
vn -0.4737 -0.8242 -0.3102
vn 0.5104 -0.7479 -0.4243
vn 0.8667 -0.2277 -0.4438
vn 0.6939 -0.6040 -0.3921
vn 0.8487 0.3092 -0.4291
vn 0.5242 0.7408 -0.4199
vn 0.8348 0.4231 -0.3522
vn -0.7570 -0.0000 0.6534
vn -0.8699 -0.0000 0.4932
vn -0.9494 -0.0000 0.3140
vn -0.9924 -0.0000 0.1227
vn -0.9924 -0.0000 0.1228
vn -0.9973 -0.0000 -0.0732
vn -0.9639 -0.0000 -0.2664
vn -0.8934 -0.0000 -0.4493
vn -0.7886 -0.0000 -0.6150
vn -0.6534 -0.0000 -0.7570
vn -0.4932 -0.0000 -0.8699
vn -0.3140 -0.0000 -0.9494
vn -0.1227 -0.0000 -0.9924
vn -0.1228 -0.0000 -0.9924
vn 0.0732 -0.0000 -0.9973
vn 0.2664 -0.0000 -0.9639
vn 0.4493 -0.0000 -0.8934
vn 0.6150 -0.0000 -0.7886
vn 0.7570 -0.0000 -0.6534
vn 0.8699 -0.0000 -0.4932
vn 0.9494 -0.0000 -0.3140
vn 0.9924 -0.0000 -0.1227
vn 0.9924 -0.0000 -0.1228
vn 0.9973 -0.0000 0.0732
vn 0.9639 -0.0000 0.2664
vn 0.8934 -0.0000 0.4493
vn 0.7886 -0.0000 0.6150
vn 0.6534 -0.0000 0.7570
vn 0.4932 -0.0000 0.8699
vn 0.3140 -0.0000 0.9494
vn 0.1227 -0.0000 0.9924
vn 0.1228 -0.0000 0.9924
vn -0.0732 -0.0000 0.9973
vn -0.2664 -0.0000 0.9639
vn -0.4493 -0.0000 0.8934
vn -0.6150 -0.0000 0.7886
vn 0.2089 -0.0000 -0.9779
vn 0.3957 -0.0000 -0.9184
vn 0.5672 -0.0000 -0.8236
vn 0.7170 -0.0000 -0.6971
vn 0.8392 -0.0000 -0.5438
vn 0.9292 -0.0000 -0.3696
vn 0.9834 -0.0000 -0.1812
vn 0.9999 -0.0000 0.0141
vn 0.9779 -0.0000 0.2089
vn 0.9184 -0.0000 0.3957
vn 0.8236 -0.0000 0.5672
vn 0.6971 -0.0000 0.7170
vn 0.5438 -0.0000 0.8392
vn 0.3696 -0.0000 0.9292
vn 0.1812 -0.0000 0.9834
vn -0.0141 -0.0000 0.9999
vn -0.2089 -0.0000 0.9779
vn -0.3957 -0.0000 0.9184
vn -0.5672 -0.0000 0.8236
vn -0.7170 -0.0000 0.6971
vn -0.8392 -0.0000 0.5438
vn -0.9292 -0.0000 0.3696
vn -0.9834 -0.0000 0.1812
vn -0.9999 -0.0000 -0.0141
vn -0.9779 -0.0000 -0.2089
vn -0.9184 -0.0000 -0.3957
vn -0.8236 -0.0000 -0.5672
vn -0.6971 -0.0000 -0.7170
vn -0.5438 -0.0000 -0.8392
vn -0.3696 -0.0000 -0.9292
vn -0.1812 -0.0000 -0.9834
vn 0.0141 -0.0000 -0.9999
vn -0.5208 -0.0000 -0.8537
vn -0.3442 -0.0000 -0.9389
vn -0.1544 -0.0000 -0.9880
vn 0.0413 -0.0000 -0.9991
vn 0.2354 -0.0000 -0.9719
vn 0.4205 -0.0000 -0.9073
vn 0.5894 -0.0000 -0.8078
vn 0.7357 -0.0000 -0.6773
vn 0.8537 -0.0000 -0.5208
vn 0.9389 -0.0000 -0.3442
vn 0.9880 -0.0000 -0.1544
vn 0.9991 -0.0000 0.0413
vn 0.9719 -0.0000 0.2354
vn 0.9073 -0.0000 0.4205
vn 0.8078 -0.0000 0.5894
vn 0.6773 -0.0000 0.7357
vn 0.5208 -0.0000 0.8537
vn 0.3442 -0.0000 0.9389
vn 0.1544 -0.0000 0.9880
vn -0.0413 -0.0000 0.9991
vn -0.2354 -0.0000 0.9719
vn -0.4205 -0.0000 0.9073
vn -0.5894 -0.0000 0.8078
vn -0.7357 -0.0000 0.6773
vn -0.8537 -0.0000 0.5208
vn -0.9389 -0.0000 0.3442
vn -0.9880 -0.0000 0.1544
vn -0.9991 -0.0000 -0.0413
vn -0.9719 -0.0000 -0.2354
vn -0.9073 -0.0000 -0.4205
vn -0.8078 -0.0000 -0.5894
vn -0.6773 -0.0000 -0.7357
vn -0.0001 1.0000 -0.0000
vn 0.0001 1.0000 -0.0000
vt 0.267919 0.008617
vt 0.169593 0.034885
vt 0.169593 0.008617
vt 0.267919 0.034885
vt 0.169593 0.061152
vt 0.267919 0.061152
vt 0.169593 0.087420
vt 0.267919 0.087420
vt 0.169593 0.113687
vt 0.267919 0.113687
vt 0.169593 0.139954
vt 0.267919 0.139954
vt 0.169593 0.166222
vt 0.267919 0.166222
vt 0.169593 0.192489
vt 0.267919 0.192489
vt 0.169593 0.218756
vt 0.267919 0.218756
vt 0.169593 0.245024
vt 0.267919 0.245024
vt 0.169593 0.271291
vt 0.267919 0.271291
vt 0.169593 0.297559
vt 0.267919 0.297559
vt 0.169593 0.323826
vt 0.267919 0.323826
vt 0.169593 0.350093
vt 0.267919 0.350093
vt 0.169593 0.376361
vt 0.267919 0.376361
vt 0.169593 0.402628
vt 0.267919 0.402628
vt 0.169593 0.428895
vt 0.267919 0.428895
vt 0.169593 0.455163
vt 0.267919 0.455163
vt 0.169593 0.481430
vt 0.267919 0.481430
vt 0.169593 0.507698
vt 0.267919 0.507698
vt 0.169593 0.533965
vt 0.267919 0.533965
vt 0.169593 0.560232
vt 0.267919 0.560232
vt 0.169593 0.586500
vt 0.267919 0.586500
vt 0.169593 0.612767
vt 0.267919 0.612767
vt 0.169593 0.639034
vt 0.267919 0.639034
vt 0.169593 0.665302
vt 0.267919 0.665302
vt 0.169593 0.691569
vt 0.267919 0.691569
vt 0.169593 0.717837
vt 0.267919 0.717837
vt 0.169593 0.744104
vt 0.267919 0.744104
vt 0.169593 0.770371
vt 0.267919 0.770371
vt 0.169593 0.796639
vt 0.609683 0.086717
vt 0.586468 0.096333
vt 0.551796 0.031466
vt 0.705453 0.402426
vt 0.684102 0.332042
vt 0.707317 0.322426
vt 0.267919 0.796639
vt 0.169593 0.822906
vt 0.267919 0.822906
vt 0.169593 0.849174
vt 0.684102 0.505476
vt 0.707317 0.515092
vt 0.705453 0.435092
vt 0.547807 0.709456
vt 0.533846 0.688563
vt 0.468979 0.723235
vt 0.991383 0.034885
vt 0.864889 0.008617
vt 0.864889 0.034885
vt 0.991383 0.061152
vt 0.864889 0.061152
vt 0.991383 0.087420
vt 0.864889 0.087420
vt 0.991383 0.113687
vt 0.864889 0.113687
vt 0.864889 0.139954
vt 0.991383 0.139954
vt 0.864889 0.166222
vt 0.991383 0.166222
vt 0.864889 0.192489
vt 0.991383 0.192489
vt 0.864889 0.218756
vt 0.991383 0.218756
vt 0.864889 0.245024
vt 0.991383 0.245024
vt 0.864889 0.271291
vt 0.991383 0.271291
vt 0.864889 0.297559
vt 0.991383 0.297559
vt 0.864889 0.323826
vt 0.991383 0.323826
vt 0.864889 0.350093
vt 0.991383 0.350093
vt 0.864889 0.376361
vt 0.991383 0.376361
vt 0.864889 0.402628
vt 0.991383 0.402628
vt 0.864889 0.428895
vt 0.991383 0.428895
vt 0.864889 0.455163
vt 0.991383 0.455163
vt 0.864889 0.481430
vt 0.991383 0.481430
vt 0.864889 0.507698
vt 0.991383 0.507698
vt 0.864889 0.533965
vt 0.991383 0.533965
vt 0.991383 0.560232
vt 0.864889 0.560232
vt 0.991383 0.586500
vt 0.864889 0.586500
vt 0.991383 0.612767
vt 0.864889 0.612767
vt 0.991383 0.639034
vt 0.864889 0.639034
vt 0.991383 0.665302
vt 0.864889 0.665302
vt 0.991383 0.691569
vt 0.864889 0.691569
vt 0.991383 0.717837
vt 0.864889 0.717837
vt 0.991383 0.744104
vt 0.864889 0.744104
vt 0.991383 0.770371
vt 0.864889 0.770371
vt 0.991383 0.796639
vt 0.864889 0.796639
vt 0.991383 0.822906
vt 0.864889 0.822906
vt 0.991383 0.849173
vt 0.864889 0.849174
vt 1.000000 1.000000
vt 0.968750 0.500000
vt 1.000000 0.500000
vt 0.968750 1.000000
vt 0.937500 0.500000
vt 0.937500 1.000000
vt 0.906250 0.500000
vt 0.906250 1.000000
vt 0.875000 0.500000
vt 0.875000 1.000000
vt 0.843750 0.500000
vt 0.843750 1.000000
vt 0.812500 0.500000
vt 0.812500 1.000000
vt 0.781250 0.500000
vt 0.781250 1.000000
vt 0.750000 0.500000
vt 0.750000 1.000000
vt 0.718750 0.500000
vt 0.718750 1.000000
vt 0.687500 0.500000
vt 0.687500 1.000000
vt 0.656250 0.500000
vt 0.656250 1.000000
vt 0.625000 0.500000
vt 0.625000 1.000000
vt 0.593750 0.500000
vt 0.593750 1.000000
vt 0.562500 0.500000
vt 0.562500 1.000000
vt 0.531250 0.500000
vt 0.531250 1.000000
vt 0.500000 0.500000
vt 0.500000 1.000000
vt 0.468750 0.500000
vt 0.468750 1.000000
vt 0.437500 0.500000
vt 0.437500 1.000000
vt 0.406250 0.500000
vt 0.406250 1.000000
vt 0.375000 0.500000
vt 0.375000 1.000000
vt 0.343750 0.500000
vt 0.343750 1.000000
vt 0.312500 0.500000
vt 0.312500 1.000000
vt 0.281250 0.500000
vt 0.281250 1.000000
vt 0.250000 0.500000
vt 0.250000 1.000000
vt 0.218750 0.500000
vt 0.218750 1.000000
vt 0.187500 0.500000
vt 0.187500 1.000000
vt 0.156250 0.500000
vt 0.156250 1.000000
vt 0.125000 0.500000
vt 0.125000 1.000000
vt 0.093750 0.500000
vt 0.093750 1.000000
vt 0.062500 0.500000
vt 0.312867 0.401774
vt 0.341269 0.386593
vt 0.062500 1.000000
vt 0.031250 0.500000
vt 0.031250 1.000000
vt 0.000000 0.500000
vt 0.796822 0.014612
vt 0.514612 0.203178
vt 0.703178 0.485388
vt 0.250000 0.414279
vt 0.296822 0.485388
vt 0.250000 0.490000
vt 0.282049 0.411123
vt 0.383337 0.449553
vt 0.341844 0.471731
vt 0.366163 0.366163
vt 0.386593 0.341269
vt 0.419706 0.419706
vt 0.401774 0.312867
vt 0.449553 0.383337
vt 0.485388 0.296822
vt 0.471731 0.341844
vt 0.414279 0.250000
vt 0.411123 0.282049
vt 0.485388 0.203178
vt 0.490000 0.250000
vt 0.401774 0.187133
vt 0.411123 0.217951
vt 0.386593 0.158731
vt 0.471731 0.158156
vt 0.366163 0.133837
vt 0.449553 0.116663
vt 0.341269 0.113407
vt 0.419706 0.080294
vt 0.312867 0.098226
vt 0.383337 0.050447
vt 0.296822 0.014612
vt 0.341844 0.028269
vt 0.250000 0.085721
vt 0.282049 0.088877
vt 0.203178 0.014612
vt 0.250000 0.010000
vt 0.187133 0.098226
vt 0.217951 0.088877
vt 0.158731 0.113407
vt 0.158156 0.028269
vt 0.133837 0.133837
vt 0.116663 0.050447
vt 0.113407 0.158731
vt 0.080294 0.080294
vt 0.028269 0.158156
vt 0.050447 0.116663
vt 0.098226 0.187133
vt 0.014612 0.203178
vt 0.085721 0.250000
vt 0.088877 0.217951
vt 0.014612 0.296822
vt 0.010000 0.250000
vt 0.098226 0.312867
vt 0.088877 0.282049
vt 0.113407 0.341269
vt 0.028269 0.341844
vt 0.133837 0.366163
vt 0.050447 0.383337
vt 0.158731 0.386593
vt 0.080294 0.419706
vt 0.158156 0.471731
vt 0.116663 0.449553
vt 0.187133 0.401774
vt 0.203178 0.485388
vt 0.217951 0.411123
vt 0.937500 0.833333
vt 1.000000 0.833333
vt 0.875000 0.833333
vt 0.812500 0.833333
vt 0.750000 0.833333
vt 0.687500 0.833333
vt 0.625000 0.833333
vt 0.562500 0.833333
vt 0.500000 0.833333
vt 0.437500 0.833333
vt 0.375000 0.833333
vt 0.312500 0.833333
vt 0.250000 0.833333
vt 0.187500 0.833333
vt 0.125000 0.833333
vt 0.250000 0.137149
vt 0.371041 0.200806
vt 0.330818 0.332060
vt 0.062500 0.833333
vt 0.000000 1.000000
vt 0.000000 0.833333
vt 0.750000 0.137149
vt 0.628959 0.200806
vt 0.669182 0.332060
vt 0.750000 0.441968
vt 0.841844 0.471731
vt 0.763751 0.430877
vt 0.250000 0.441968
vt 0.919706 0.419706
vt 0.830818 0.332060
vt 0.263751 0.430877
vt 0.935076 0.307147
vt 0.971731 0.341844
vt 0.435076 0.307147
vt 0.990000 0.250000
vt 0.932821 0.299825
vt 0.971731 0.158156
vt 0.871042 0.200806
vt 0.432821 0.299824
vt 0.881117 0.107280
vt 0.919706 0.080294
vt 0.381117 0.107280
vt 0.841844 0.028269
vt 0.871850 0.107772
vt 0.750000 0.010000
vt 0.371850 0.107772
vt 0.628150 0.107772
vt 0.658156 0.028269
vt 0.128150 0.107772
vt 0.618883 0.107280
vt 0.580294 0.080294
vt 0.118883 0.107280
vt 0.528269 0.158156
vt 0.567179 0.299824
vt 0.510000 0.250000
vt 0.067179 0.299824
vt 0.128959 0.200806
vt 0.564924 0.307147
vt 0.528269 0.341844
vt 0.064924 0.307147
vt 0.580294 0.419706
vt 0.736249 0.430877
vt 0.658156 0.471731
vt 0.236249 0.430877
vt 0.169182 0.332060
vt 0.750000 0.490000
vt 0.062500 0.666667
vt 0.000000 0.666667
vt 0.125000 0.666667
vt 0.187500 0.666667
vt 0.250000 0.666667
vt 0.312500 0.666667
vt 0.375000 0.666667
vt 0.437500 0.666667
vt 0.500000 0.666667
vt 0.562500 0.666667
vt 0.625000 0.666667
vt 0.687500 0.666667
vt 0.750000 0.666667
vt 0.812500 0.666667
vt 0.875000 0.666667
vt 0.937500 0.666667
vt 1.000000 0.666667
vt 0.524230 0.246589
vt 0.453846 0.267940
vt 0.446130 0.229153
vt 0.446130 0.189606
vt 0.519328 0.221943
vt 0.453846 0.150819
vt 0.519328 0.196815
vt 0.468979 0.114283
vt 0.533846 0.148955
vt 0.490950 0.081401
vt 0.547807 0.128062
vt 0.518914 0.053437
vt 0.565575 0.110293
vt 0.588332 0.016333
vt 0.627119 0.008617
vt 0.666666 0.008617
vt 0.634328 0.081815
vt 0.705453 0.016333
vt 0.659456 0.081815
vt 0.741989 0.031467
vt 0.707317 0.096333
vt 0.774871 0.053437
vt 0.728210 0.110294
vt 0.802835 0.081401
vt 0.745978 0.128062
vt 0.824805 0.114283
vt 0.759939 0.148955
vt 0.839939 0.150819
vt 0.769555 0.172170
vt 0.524230 0.172170
vt 0.684102 0.086717
vt 0.774457 0.196816
vt 0.847654 0.189606
vt 0.847654 0.229153
vt 0.774457 0.221944
vt 0.839939 0.267940
vt 0.769555 0.246589
vt 0.824805 0.304476
vt 0.802834 0.337358
vt 0.759939 0.269804
vt 0.774871 0.365322
vt 0.745978 0.290697
vt 0.741989 0.387293
vt 0.728210 0.308465
vt 0.666666 0.410142
vt 0.659456 0.336944
vt 0.627119 0.410142
vt 0.634328 0.336944
vt 0.588332 0.402426
vt 0.609683 0.332042
vt 0.551796 0.387292
vt 0.586468 0.322426
vt 0.518914 0.365322
vt 0.490950 0.337358
vt 0.565575 0.308465
vt 0.468979 0.304476
vt 0.547807 0.290697
vt 0.533846 0.269804
vt 0.267919 0.849174
vt 0.769555 0.590929
vt 0.774457 0.615574
vt 0.847654 0.608365
vt 0.839939 0.569578
vt 0.824805 0.533042
vt 0.759939 0.567714
vt 0.802834 0.500160
vt 0.745978 0.546821
vt 0.774871 0.472196
vt 0.728210 0.529052
vt 0.741989 0.450225
vt 0.666666 0.427376
vt 0.627119 0.427376
vt 0.659456 0.500574
vt 0.634328 0.500574
vt 0.609683 0.505476
vt 0.588332 0.435092
vt 0.551796 0.450225
vt 0.586468 0.515092
vt 0.518914 0.472196
vt 0.565575 0.529052
vt 0.490950 0.500160
vt 0.468979 0.533042
vt 0.547807 0.546821
vt 0.453846 0.569578
vt 0.533846 0.567714
vt 0.446130 0.608365
vt 0.524230 0.590929
vt 0.446130 0.647912
vt 0.519328 0.615574
vt 0.453846 0.686699
vt 0.524230 0.665348
vt 0.490950 0.756117
vt 0.518914 0.784081
vt 0.565575 0.727224
vt 0.551796 0.806051
vt 0.588332 0.821185
vt 0.586468 0.741185
vt 0.627119 0.828901
vt 0.609683 0.750801
vt 0.666666 0.828901
vt 0.634329 0.755703
vt 0.705453 0.821185
vt 0.684102 0.750801
vt 0.741989 0.806051
vt 0.707317 0.741185
vt 0.774871 0.784081
vt 0.728210 0.727224
vt 0.802834 0.756117
vt 0.745978 0.709456
vt 0.824805 0.723235
vt 0.839939 0.686698
vt 0.759939 0.688563
vt 0.847654 0.647912
vt 0.769555 0.665348
vt 0.774457 0.640702
vt 0.519328 0.640702
vt 0.659456 0.755703
vt 0.991383 0.008617
vt 0.796822 0.485388
vt 0.883337 0.449553
vt 0.949553 0.383337
vt 0.985388 0.296822
vt 0.985388 0.203178
vt 0.949553 0.116663
vt 0.883337 0.050447
vt 0.703178 0.014612
vt 0.616663 0.050447
vt 0.550447 0.116663
vt 0.514612 0.296822
vt 0.550447 0.383337
vt 0.616663 0.449553
s 1
usemtl マテリアル
f 2/1/1 3/2/2 1/3/1
f 4/4/2 5/5/3 3/2/2
f 6/6/3 7/7/4 5/5/3
f 8/8/4 9/9/5 7/7/4
f 10/10/5 11/11/6 9/9/5
f 12/12/6 13/13/7 11/11/6
f 14/14/7 15/15/8 13/13/7
f 16/16/8 17/17/9 15/15/8
f 18/18/9 19/19/10 17/17/9
f 20/20/10 21/21/11 19/19/10
f 22/22/11 23/23/12 21/21/11
f 24/24/12 25/25/13 23/23/12
f 26/26/13 27/27/14 25/25/13
f 28/28/14 29/29/15 27/27/14
f 30/30/15 31/31/16 29/29/15
f 32/32/16 33/33/17 31/31/16
f 34/34/17 35/35/18 33/33/17
f 36/36/18 37/37/19 35/35/18
f 38/38/19 39/39/20 37/37/19
f 40/40/20 41/41/21 39/39/20
f 42/42/21 43/43/22 41/41/21
f 44/44/22 45/45/23 43/43/22
f 46/46/23 47/47/24 45/45/23
f 48/48/24 49/49/25 47/47/24
f 50/50/25 51/51/26 49/49/25
f 52/52/26 53/53/27 51/51/26
f 54/54/27 55/55/28 53/53/27
f 56/56/28 57/57/29 55/55/28
f 58/58/29 59/59/30 57/57/29
f 60/60/30 61/61/31 59/59/30
f 81/62/32 73/63/32 40/64/32
f 6/65/32 77/66/32 86/67/32
f 62/68/31 63/69/33 61/61/31
f 64/70/33 1/71/1 63/69/33
f 117/72/34 119/73/34 43/74/34
f 103/75/34 98/76/34 3/77/34
f 78/78/18 97/79/17 98/80/18
f 77/81/19 98/80/18 103/82/19
f 86/83/20 103/82/19 100/84/20
f 90/85/21 100/84/20 112/86/21
f 90/85/21 106/87/22 88/88/22
f 88/88/22 111/89/23 95/90/23
f 95/90/23 108/91/24 92/92/24
f 92/92/24 107/93/25 91/94/25
f 91/94/25 110/95/26 94/96/26
f 94/96/26 109/97/27 93/98/27
f 93/98/27 104/99/28 89/100/28
f 89/100/28 105/101/29 96/102/29
f 96/102/29 101/103/30 87/104/30
f 87/104/30 99/105/31 85/106/31
f 85/106/31 102/107/33 83/108/33
f 83/108/33 125/109/1 82/110/1
f 82/110/1 126/111/2 84/112/2
f 84/112/2 127/113/3 81/114/3
f 81/114/3 122/115/4 73/116/4
f 73/116/4 119/117/5 80/118/5
f 69/119/6 119/117/5 117/120/6
f 66/121/7 117/120/6 114/122/7
f 67/123/8 114/122/7 115/124/8
f 65/125/9 115/124/8 113/126/9
f 68/127/10 113/126/9 116/128/10
f 71/129/11 116/128/10 120/130/11
f 70/131/12 120/130/11 118/132/12
f 72/133/13 118/132/12 128/134/13
f 74/135/14 128/134/13 123/136/14
f 79/137/15 123/136/14 121/138/15
f 76/139/16 121/138/15 124/140/16
f 75/141/17 124/140/16 97/142/17
f 2/1/1 4/4/2 3/2/2
f 4/4/2 6/6/3 5/5/3
f 6/6/3 8/8/4 7/7/4
f 8/8/4 10/10/5 9/9/5
f 10/10/5 12/12/6 11/11/6
f 12/12/6 14/14/7 13/13/7
f 14/14/7 16/16/8 15/15/8
f 16/16/8 18/18/9 17/17/9
f 18/18/9 20/20/10 19/19/10
f 20/20/10 22/22/11 21/21/11
f 22/22/11 24/24/12 23/23/12
f 24/24/12 26/26/13 25/25/13
f 26/26/13 28/28/14 27/27/14
f 28/28/14 30/30/15 29/29/15
f 30/30/15 32/32/16 31/31/16
f 32/32/16 34/34/17 33/33/17
f 34/34/17 36/36/18 35/35/18
f 36/36/18 38/38/19 37/37/19
f 38/38/19 40/40/20 39/39/20
f 40/40/20 42/42/21 41/41/21
f 42/42/21 44/44/22 43/43/22
f 44/44/22 46/46/23 45/45/23
f 46/46/23 48/48/24 47/47/24
f 48/48/24 50/50/25 49/49/25
f 50/50/25 52/52/26 51/51/26
f 52/52/26 54/54/27 53/53/27
f 54/54/27 56/56/28 55/55/28
f 56/56/28 58/58/29 57/57/29
f 58/58/29 60/60/30 59/59/30
f 60/60/30 62/68/31 61/61/31
f 71/358/32 54/359/32 52/360/32
f 52/360/32 50/361/32 68/362/32
f 50/361/32 48/363/32 65/364/32
f 68/362/32 50/361/32 65/364/32
f 48/363/32 46/365/32 66/366/32
f 46/365/32 44/367/32 69/368/32
f 44/367/32 42/369/32 80/370/32
f 42/369/32 40/64/32 73/63/32
f 40/64/32 38/371/32 81/62/32
f 38/371/32 36/372/32 81/62/32
f 36/372/32 34/373/32 84/374/32
f 34/373/32 32/375/32 82/376/32
f 84/374/32 34/373/32 82/376/32
f 32/375/32 30/377/32 85/378/32
f 30/377/32 28/379/32 87/380/32
f 28/379/32 26/381/32 96/382/32
f 26/381/32 24/383/32 89/384/32
f 24/383/32 22/385/32 93/386/32
f 24/383/32 93/386/32 89/384/32
f 30/377/32 87/380/32 85/378/32
f 26/381/32 89/384/32 96/382/32
f 81/62/32 36/372/32 84/374/32
f 46/365/32 69/368/32 66/366/32
f 42/369/32 73/63/32 80/370/32
f 71/358/32 52/360/32 68/362/32
f 28/379/32 96/382/32 87/380/32
f 67/387/32 65/364/32 48/363/32
f 66/366/32 67/387/32 48/363/32
f 32/375/32 85/378/32 83/388/32
f 32/375/32 83/388/32 82/376/32
f 80/370/32 69/368/32 44/367/32
f 94/389/32 93/386/32 22/385/32
f 22/385/32 20/390/32 94/389/32
f 20/390/32 18/391/32 91/392/32
f 18/391/32 16/393/32 92/394/32
f 16/393/32 14/395/32 92/394/32
f 14/395/32 12/396/32 95/397/32
f 12/396/32 10/398/32 88/399/32
f 95/397/32 12/396/32 88/399/32
f 10/398/32 8/400/32 90/401/32
f 8/400/32 6/65/32 86/67/32
f 90/401/32 8/400/32 86/67/32
f 6/65/32 4/402/32 78/403/32
f 4/402/32 2/404/32 75/405/32
f 2/404/32 64/406/32 76/407/32
f 64/406/32 62/408/32 79/409/32
f 62/408/32 60/410/32 79/409/32
f 60/410/32 58/411/32 74/412/32
f 79/409/32 60/410/32 74/412/32
f 58/411/32 56/413/32 72/414/32
f 56/413/32 54/359/32 70/415/32
f 72/414/32 56/413/32 70/415/32
f 54/359/32 71/358/32 70/415/32
f 4/402/32 75/405/32 78/403/32
f 64/406/32 79/409/32 76/407/32
f 20/390/32 91/392/32 94/389/32
f 92/394/32 91/392/32 18/391/32
f 92/394/32 14/395/32 95/397/32
f 72/414/32 74/412/32 58/411/32
f 88/399/32 10/398/32 90/401/32
f 2/404/32 76/407/32 75/405/32
f 6/65/32 78/403/32 77/66/32
f 62/68/31 64/70/33 63/69/33
f 64/70/33 2/416/1 1/71/1
f 125/417/34 102/418/34 31/419/34
f 31/419/34 33/420/34 125/417/34
f 33/420/34 35/421/34 126/422/34
f 35/421/34 37/423/34 127/424/34
f 37/423/34 39/425/34 122/426/34
f 39/425/34 41/427/34 122/426/34
f 41/427/34 43/74/34 119/73/34
f 122/426/34 41/427/34 119/73/34
f 43/74/34 45/428/34 117/72/34
f 45/428/34 47/429/34 114/430/34
f 117/72/34 45/428/34 114/430/34
f 47/429/34 115/431/34 114/430/34
f 33/420/34 126/422/34 125/417/34
f 37/423/34 122/426/34 127/424/34
f 127/424/34 126/422/34 35/421/34
f 113/432/34 115/431/34 47/429/34
f 47/429/34 49/433/34 113/432/34
f 49/433/34 51/434/34 116/435/34
f 51/434/34 53/436/34 120/437/34
f 53/436/34 55/438/34 120/437/34
f 55/438/34 57/439/34 118/440/34
f 57/439/34 59/441/34 128/442/34
f 118/440/34 57/439/34 128/442/34
f 59/441/34 61/443/34 123/444/34
f 61/443/34 63/445/34 121/446/34
f 123/444/34 61/443/34 121/446/34
f 63/445/34 1/447/34 97/448/34
f 1/447/34 3/77/34 98/76/34
f 3/77/34 5/449/34 103/75/34
f 5/449/34 7/450/34 100/451/34
f 7/450/34 9/452/34 100/451/34
f 9/452/34 11/453/34 112/454/34
f 100/451/34 9/452/34 112/454/34
f 11/453/34 13/455/34 106/456/34
f 13/455/34 15/457/34 111/458/34
f 106/456/34 13/455/34 111/458/34
f 15/457/34 17/459/34 107/460/34
f 17/459/34 19/461/34 110/462/34
f 19/461/34 21/463/34 109/464/34
f 21/463/34 23/465/34 104/466/34
f 23/465/34 25/467/34 104/466/34
f 25/467/34 27/468/34 105/469/34
f 104/466/34 25/467/34 105/469/34
f 27/468/34 29/470/34 101/471/34
f 29/470/34 31/419/34 99/472/34
f 101/471/34 29/470/34 99/472/34
f 31/419/34 102/418/34 99/472/34
f 17/459/34 110/462/34 107/460/34
f 21/463/34 104/466/34 109/464/34
f 1/447/34 98/76/34 97/448/34
f 5/449/34 100/451/34 103/75/34
f 49/433/34 116/435/34 113/432/34
f 120/437/34 116/435/34 51/434/34
f 120/437/34 55/438/34 118/440/34
f 101/471/34 105/469/34 27/468/34
f 128/442/34 59/441/34 123/444/34
f 19/461/34 109/464/34 110/462/34
f 124/473/34 121/446/34 63/445/34
f 15/457/34 107/460/34 108/474/34
f 15/457/34 108/474/34 111/458/34
f 97/448/34 124/473/34 63/445/34
f 106/456/34 112/454/34 11/453/34
f 78/78/18 75/475/17 97/79/17
f 77/81/19 78/78/18 98/80/18
f 86/83/20 77/81/19 103/82/19
f 90/85/21 86/83/20 100/84/20
f 90/85/21 112/86/21 106/87/22
f 88/88/22 106/87/22 111/89/23
f 95/90/23 111/89/23 108/91/24
f 92/92/24 108/91/24 107/93/25
f 91/94/25 107/93/25 110/95/26
f 94/96/26 110/95/26 109/97/27
f 93/98/27 109/97/27 104/99/28
f 89/100/28 104/99/28 105/101/29
f 96/102/29 105/101/29 101/103/30
f 87/104/30 101/103/30 99/105/31
f 85/106/31 99/105/31 102/107/33
f 83/108/33 102/107/33 125/109/1
f 82/110/1 125/109/1 126/111/2
f 84/112/2 126/111/2 127/113/3
f 81/114/3 127/113/3 122/115/4
f 73/116/4 122/115/4 119/117/5
f 69/119/6 80/118/5 119/117/5
f 66/121/7 69/119/6 117/120/6
f 67/123/8 66/121/7 114/122/7
f 65/125/9 67/123/8 115/124/8
f 68/127/10 65/125/9 113/126/9
f 71/129/11 68/127/10 116/128/10
f 70/131/12 71/129/11 120/130/11
f 72/133/13 70/131/12 118/132/12
f 74/135/14 72/133/13 128/134/13
f 79/137/15 74/135/14 123/136/14
f 76/139/16 79/137/15 121/138/15
f 75/141/17 76/139/16 124/140/16
usemtl マテリアル.004
f 194/143/1 131/144/2 129/145/1
f 193/146/2 133/147/3 131/144/2
f 195/148/3 135/149/4 133/147/3
f 196/150/4 137/151/5 135/149/4
f 197/152/5 139/153/6 137/151/5
f 198/154/6 141/155/7 139/153/6
f 199/156/7 143/157/8 141/155/7
f 200/158/8 145/159/9 143/157/8
f 201/160/9 147/161/10 145/159/9
f 202/162/10 149/163/11 147/161/10
f 203/164/11 151/165/12 149/163/11
f 204/166/12 153/167/13 151/165/12
f 205/168/13 155/169/14 153/167/13
f 206/170/14 157/171/15 155/169/14
f 207/172/15 159/173/16 157/171/15
f 208/174/16 161/175/17 159/173/16
f 209/176/17 163/177/18 161/175/17
f 210/178/18 165/179/19 163/177/18
f 211/180/19 167/181/20 165/179/19
f 212/182/20 169/183/21 167/181/20
f 213/184/21 171/185/22 169/183/21
f 214/186/22 173/187/23 171/185/22
f 215/188/23 175/189/24 173/187/23
f 216/190/24 177/191/25 175/189/24
f 217/192/25 179/193/26 177/191/25
f 218/194/26 181/195/27 179/193/26
f 219/196/27 183/197/28 181/195/27
f 220/198/28 185/199/29 183/197/28
f 221/200/29 187/201/30 185/199/29
f 222/202/30 189/203/31 187/201/30
f 134/204/3 228/205/4 136/205/4
f 223/206/31 191/207/33 189/203/31
f 224/208/33 129/209/1 191/207/33
f 159/210/34 175/211/34 191/212/34
f 130/213/32 193/214/32 194/215/32
f 134/204/32 193/214/32 132/216/32
f 134/204/32 196/217/32 195/218/32
f 138/219/32 196/217/32 136/205/32
f 140/220/32 197/221/32 138/219/32
f 142/222/32 198/223/32 140/220/32
f 142/222/32 200/224/32 199/225/32
f 146/226/32 200/224/32 144/227/32
f 146/226/32 202/228/32 201/229/32
f 150/230/32 202/228/32 148/231/32
f 152/232/32 203/233/32 150/230/32
f 154/234/32 204/235/32 152/232/32
f 156/236/32 205/237/32 154/234/32
f 158/238/32 206/239/32 156/236/32
f 158/238/32 208/240/32 207/241/32
f 162/242/32 208/240/32 160/243/32
f 162/242/32 210/244/32 209/245/32
f 166/246/32 210/244/32 164/247/32
f 168/248/32 211/249/32 166/246/32
f 170/250/32 212/251/32 168/248/32
f 172/252/32 213/253/32 170/250/32
f 172/252/32 215/254/32 214/255/32
f 174/256/32 216/257/32 215/254/32
f 178/258/32 216/257/32 176/259/32
f 178/258/32 218/260/32 217/261/32
f 182/262/32 218/260/32 180/263/32
f 184/264/32 219/265/32 182/262/32
f 186/266/32 220/267/32 184/264/32
f 188/268/32 221/269/32 186/266/32
f 188/268/32 223/270/32 222/271/32
f 190/272/32 224/273/32 223/270/32
f 130/213/32 224/273/32 192/274/32
f 251/262/32 243/246/32 235/230/32
f 188/268/30 255/272/31 190/272/31
f 162/242/17 242/247/18 164/247/18
f 136/205/4 229/219/5 138/219/5
f 190/272/31 256/274/33 192/274/33
f 164/247/18 243/246/19 166/246/19
f 138/219/5 230/220/6 140/220/6
f 192/274/33 226/213/1 130/213/1
f 166/246/19 244/248/20 168/248/20
f 140/220/6 231/222/7 142/222/7
f 168/248/20 245/250/21 170/250/21
f 142/222/7 232/227/8 144/227/8
f 170/250/21 246/252/22 172/252/22
f 144/227/8 233/226/9 146/226/9
f 172/252/22 247/256/23 174/256/23
f 146/226/9 234/231/10 148/231/10
f 174/256/23 248/259/24 176/259/24
f 148/231/10 235/230/11 150/230/11
f 176/259/24 249/258/25 178/258/25
f 150/230/11 236/232/12 152/232/12
f 178/258/25 250/263/26 180/263/26
f 152/232/12 237/234/13 154/234/13
f 180/263/26 251/262/27 182/262/27
f 154/234/13 238/236/14 156/236/14
f 182/262/27 252/264/28 184/264/28
f 156/236/14 239/238/15 158/238/15
f 130/213/1 225/216/2 132/216/2
f 184/264/28 253/266/29 186/266/29
f 158/238/15 240/243/16 160/243/16
f 132/216/2 227/204/3 134/204/3
f 186/266/29 254/268/30 188/268/30
f 160/243/16 241/242/17 162/242/17
f 194/143/1 193/146/2 131/144/2
f 193/146/2 195/148/3 133/147/3
f 195/148/3 196/150/4 135/149/4
f 196/150/4 197/152/5 137/151/5
f 197/152/5 198/154/6 139/153/6
f 198/154/6 199/156/7 141/155/7
f 199/156/7 200/158/8 143/157/8
f 200/158/8 201/160/9 145/159/9
f 201/160/9 202/162/10 147/161/10
f 202/162/10 203/164/11 149/163/11
f 203/164/11 204/166/12 151/165/12
f 204/166/12 205/168/13 153/167/13
f 205/168/13 206/170/14 155/169/14
f 206/170/14 207/172/15 157/171/15
f 207/172/15 208/174/16 159/173/16
f 208/174/16 209/176/17 161/175/17
f 209/176/17 210/178/18 163/177/18
f 210/178/18 211/180/19 165/179/19
f 211/180/19 212/182/20 167/181/20
f 212/182/20 213/184/21 169/183/21
f 213/184/21 214/186/22 171/185/22
f 214/186/22 215/188/23 173/187/23
f 215/188/23 216/190/24 175/189/24
f 216/190/24 217/192/25 177/191/25
f 217/192/25 218/194/26 179/193/26
f 218/194/26 219/196/27 181/195/27
f 219/196/27 220/198/28 183/197/28
f 220/198/28 221/200/29 185/199/29
f 221/200/29 222/202/30 187/201/30
f 222/202/30 223/206/31 189/203/31
f 134/204/3 227/204/3 228/205/4
f 223/206/31 224/208/33 191/207/33
f 224/208/33 194/294/1 129/209/1
f 191/212/34 129/340/34 131/476/34
f 131/476/34 133/300/34 135/477/34
f 135/477/34 137/303/34 139/478/34
f 139/478/34 141/307/34 143/479/34
f 143/479/34 145/309/34 147/480/34
f 147/480/34 149/311/34 151/481/34
f 151/481/34 153/315/34 155/482/34
f 155/482/34 157/317/34 159/210/34
f 159/210/34 161/319/34 163/483/34
f 163/483/34 165/322/34 167/484/34
f 167/484/34 169/325/34 171/485/34
f 171/485/34 173/327/34 175/211/34
f 175/211/34 177/329/34 179/486/34
f 179/486/34 181/333/34 183/487/34
f 183/487/34 185/335/34 187/488/34
f 187/488/34 189/337/34 191/212/34
f 191/212/34 131/476/34 143/479/34
f 131/476/34 135/477/34 143/479/34
f 135/477/34 139/478/34 143/479/34
f 143/479/34 147/480/34 159/210/34
f 147/480/34 151/481/34 159/210/34
f 151/481/34 155/482/34 159/210/34
f 159/210/34 163/483/34 175/211/34
f 163/483/34 167/484/34 175/211/34
f 167/484/34 171/485/34 175/211/34
f 175/211/34 179/486/34 191/212/34
f 179/486/34 183/487/34 191/212/34
f 183/487/34 187/488/34 191/212/34
f 191/212/34 143/479/34 159/210/34
f 130/213/32 132/216/32 193/214/32
f 134/204/32 195/218/32 193/214/32
f 134/204/32 136/205/32 196/217/32
f 138/219/32 197/221/32 196/217/32
f 140/220/32 198/223/32 197/221/32
f 142/222/32 199/225/32 198/223/32
f 142/222/32 144/227/32 200/224/32
f 146/226/32 201/229/32 200/224/32
f 146/226/32 148/231/32 202/228/32
f 150/230/32 203/233/32 202/228/32
f 152/232/32 204/235/32 203/233/32
f 154/234/32 205/237/32 204/235/32
f 156/236/32 206/239/32 205/237/32
f 158/238/32 207/241/32 206/239/32
f 158/238/32 160/243/32 208/240/32
f 162/242/32 209/245/32 208/240/32
f 162/242/32 164/247/32 210/244/32
f 166/246/32 211/249/32 210/244/32
f 168/248/32 212/251/32 211/249/32
f 170/250/32 213/253/32 212/251/32
f 172/252/32 214/255/32 213/253/32
f 172/252/32 174/256/32 215/254/32
f 174/256/32 176/259/32 216/257/32
f 178/258/32 217/261/32 216/257/32
f 178/258/32 180/263/32 218/260/32
f 182/262/32 219/265/32 218/260/32
f 184/264/32 220/267/32 219/265/32
f 186/266/32 221/269/32 220/267/32
f 188/268/32 222/271/32 221/269/32
f 188/268/32 190/272/32 223/270/32
f 190/272/32 192/274/32 224/273/32
f 130/213/32 194/215/32 224/273/32
f 227/204/32 225/216/32 255/272/32
f 225/216/32 226/213/32 255/272/32
f 226/213/32 256/274/32 255/272/32
f 255/272/32 254/268/32 251/262/32
f 254/268/32 253/266/32 251/262/32
f 253/266/32 252/264/32 251/262/32
f 251/262/32 250/263/32 247/256/32
f 250/263/32 249/258/32 247/256/32
f 249/258/32 248/259/231 247/256/32
f 247/256/32 246/252/32 243/246/32
f 246/252/32 245/250/32 243/246/32
f 245/250/32 244/248/32 243/246/32
f 243/246/32 242/247/32 241/242/32
f 241/242/32 240/243/32 243/246/32
f 240/243/32 239/238/32 243/246/32
f 239/238/32 238/236/32 237/234/32
f 237/234/32 236/232/32 235/230/32
f 235/230/32 234/231/232 233/226/32
f 233/226/32 232/227/32 235/230/32
f 232/227/32 231/222/32 235/230/32
f 231/222/32 230/220/32 227/204/32
f 230/220/32 229/219/32 227/204/32
f 229/219/32 228/205/32 227/204/32
f 239/238/32 237/234/32 243/246/32
f 237/234/32 235/230/32 243/246/32
f 227/204/32 255/272/32 251/262/32
f 251/262/32 247/256/32 243/246/32
f 235/230/32 231/222/32 227/204/32
f 227/204/32 251/262/32 235/230/32
f 188/268/30 254/268/30 255/272/31
f 162/242/17 241/242/17 242/247/18
f 136/205/4 228/205/4 229/219/5
f 190/272/31 255/272/31 256/274/33
f 164/247/18 242/247/18 243/246/19
f 138/219/5 229/219/5 230/220/6
f 192/274/33 256/274/33 226/213/1
f 166/246/19 243/246/19 244/248/20
f 140/220/6 230/220/6 231/222/7
f 168/248/20 244/248/20 245/250/21
f 142/222/7 231/222/7 232/227/8
f 170/250/21 245/250/21 246/252/22
f 144/227/8 232/227/8 233/226/9
f 172/252/22 246/252/22 247/256/23
f 146/226/9 233/226/9 234/231/10
f 174/256/23 247/256/23 248/259/24
f 148/231/10 234/231/10 235/230/11
f 176/259/24 248/259/24 249/258/25
f 150/230/11 235/230/11 236/232/12
f 178/258/25 249/258/25 250/263/26
f 152/232/12 236/232/12 237/234/13
f 180/263/26 250/263/26 251/262/27
f 154/234/13 237/234/13 238/236/14
f 182/262/27 251/262/27 252/264/28
f 156/236/14 238/236/14 239/238/15
f 130/213/1 226/213/1 225/216/2
f 184/264/28 252/264/28 253/266/29
f 158/238/15 239/238/15 240/243/16
f 132/216/2 225/216/2 227/204/3
f 186/266/29 253/266/29 254/268/30
f 160/243/16 240/243/16 241/242/17
usemtl マテリアル.005
f 292/143/35 323/275/36 322/276/37
f 291/148/38 325/277/39 323/275/36
f 325/277/39 296/156/40 327/278/41
f 296/156/40 329/279/42 327/278/41
f 298/160/43 331/280/44 329/279/42
f 331/280/44 302/168/45 333/281/46
f 302/168/45 335/282/47 333/281/46
f 304/172/48 337/283/49 335/282/47
f 337/283/49 308/180/50 339/284/51
f 339/284/51 310/184/52 341/285/53
f 310/184/52 343/286/54 341/285/53
f 343/286/54 314/192/55 345/287/56
f 345/287/56 316/196/57 347/288/58
f 316/196/57 349/289/59 347/288/58
f 274/290/60 268/291/61 262/292/62
f 349/289/59 320/206/63 351/293/64
f 351/293/64 292/294/35 322/295/37
f 273/296/65 279/297/66 285/298/67
f 257/299/68 290/300/69 259/301/70
f 258/302/71 291/218/38 292/215/35
f 259/301/70 293/303/72 261/304/73
f 260/305/74 294/221/75 291/218/38
f 263/306/76 293/303/72 295/307/77
f 264/308/78 294/221/75 262/292/62
f 263/306/76 297/309/79 265/310/80
f 264/308/78 298/229/43 296/225/40
f 265/310/80 299/311/81 267/312/82
f 266/313/83 300/233/84 298/229/43
f 269/314/85 299/311/81 301/315/86
f 270/316/87 300/233/84 268/291/61
f 269/314/85 303/317/88 271/318/89
f 270/316/87 304/241/48 302/237/45
f 271/318/89 305/319/90 273/296/65
f 272/320/91 306/245/92 304/241/48
f 275/321/93 305/319/90 307/322/94
f 276/323/95 306/245/92 274/290/60
f 277/324/96 307/322/94 309/325/97
f 278/326/98 308/249/50 276/323/95
f 277/324/96 311/327/99 279/297/66
f 278/326/98 312/254/100 310/253/52
f 281/328/101 311/327/99 313/329/102
f 282/330/103 312/254/100 280/331/104
f 283/332/105 313/329/102 315/333/106
f 284/334/107 314/261/55 282/330/103
f 283/332/105 317/335/108 285/298/67
f 284/334/107 318/269/109 316/265/57
f 287/336/110 317/335/108 319/337/111
f 288/338/112 318/269/109 286/339/113
f 257/299/68 319/337/111 289/340/114
f 258/302/71 320/270/63 288/338/112
f 352/341/115 289/209/114 319/203/111
f 351/293/64 321/342/116 352/341/115
f 350/343/117 319/203/111 317/199/108
f 349/289/59 352/341/115 350/343/117
f 315/195/106 350/343/117 317/199/108
f 347/288/58 350/343/117 348/344/118
f 346/345/119 315/195/106 313/191/102
f 345/287/56 348/344/118 346/345/119
f 344/346/120 313/191/102 311/187/99
f 343/286/54 346/345/119 344/346/120
f 309/183/97 344/346/120 311/187/99
f 341/285/53 344/346/120 342/347/121
f 340/348/122 309/183/97 307/179/94
f 339/284/51 342/347/121 340/348/122
f 338/349/123 307/179/94 305/175/90
f 337/283/49 340/348/122 338/349/123
f 303/171/88 338/349/123 305/175/90
f 335/282/47 338/349/123 336/350/124
f 301/167/86 336/350/124 303/171/88
f 333/281/46 336/350/124 334/351/125
f 332/352/126 301/167/86 299/163/81
f 331/280/44 334/351/125 332/352/126
f 297/159/79 332/352/126 299/163/81
f 329/279/42 332/352/126 330/353/127
f 295/155/77 330/353/127 297/159/79
f 327/278/41 330/353/127 328/354/128
f 326/355/129 295/155/77 293/151/72
f 325/277/39 328/354/128 326/355/129
f 290/147/69 326/355/129 293/151/72
f 323/275/36 326/355/129 324/356/130
f 289/145/114 324/356/130 290/147/69
f 322/276/37 324/356/130 321/357/116
f 292/143/35 291/148/38 323/275/36
f 291/148/38 294/152/75 325/277/39
f 325/277/39 294/152/75 296/156/40
f 296/156/40 298/160/43 329/279/42
f 298/160/43 300/164/84 331/280/44
f 331/280/44 300/164/84 302/168/45
f 302/168/45 304/172/48 335/282/47
f 304/172/48 306/176/92 337/283/49
f 337/283/49 306/176/92 308/180/50
f 339/284/51 308/180/50 310/184/52
f 310/184/52 312/188/100 343/286/54
f 343/286/54 312/188/100 314/192/55
f 345/287/56 314/192/55 316/196/57
f 316/196/57 318/200/109 349/289/59
f 260/305/74 258/302/71 288/338/112
f 286/339/113 284/334/107 282/330/103
f 260/305/74 288/338/112 262/292/62
f 288/338/112 286/339/113 262/292/62
f 266/313/83 264/308/78 262/292/62
f 286/339/113 282/330/103 280/331/104
f 280/331/104 278/326/98 276/323/95
f 280/331/104 276/323/95 274/290/60
f 262/292/62 286/339/113 274/290/60
f 286/339/113 280/331/104 274/290/60
f 268/291/61 266/313/83 262/292/62
f 272/320/91 270/316/87 268/291/61
f 274/290/60 272/320/91 268/291/61
f 349/289/59 318/200/109 320/206/63
f 351/293/64 320/206/63 292/294/35
f 287/336/110 257/299/68 259/301/70
f 261/304/73 263/306/76 265/310/80
f 287/336/110 259/301/70 261/304/73
f 281/328/101 283/332/105 285/298/67
f 285/298/67 287/336/110 261/304/73
f 261/304/73 265/310/80 267/312/82
f 267/312/82 269/314/85 271/318/89
f 267/312/82 271/318/89 273/296/65
f 285/298/67 261/304/73 273/296/65
f 261/304/73 267/312/82 273/296/65
f 279/297/66 281/328/101 285/298/67
f 275/321/93 277/324/96 279/297/66
f 273/296/65 275/321/93 279/297/66
f 257/299/68 289/340/114 290/300/69
f 258/302/71 260/305/74 291/218/38
f 259/301/70 290/300/69 293/303/72
f 260/305/74 262/292/62 294/221/75
f 263/306/76 261/304/73 293/303/72
f 264/308/78 296/225/40 294/221/75
f 263/306/76 295/307/77 297/309/79
f 264/308/78 266/313/83 298/229/43
f 265/310/80 297/309/79 299/311/81
f 266/313/83 268/291/61 300/233/84
f 269/314/85 267/312/82 299/311/81
f 270/316/87 302/237/45 300/233/84
f 269/314/85 301/315/86 303/317/88
f 270/316/87 272/320/91 304/241/48
f 271/318/89 303/317/88 305/319/90
f 272/320/91 274/290/60 306/245/92
f 275/321/93 273/296/65 305/319/90
f 276/323/95 308/249/50 306/245/92
f 277/324/96 275/321/93 307/322/94
f 278/326/98 310/253/52 308/249/50
f 277/324/96 309/325/97 311/327/99
f 278/326/98 280/331/104 312/254/100
f 281/328/101 279/297/66 311/327/99
f 282/330/103 314/261/55 312/254/100
f 283/332/105 281/328/101 313/329/102
f 284/334/107 316/265/57 314/261/55
f 283/332/105 315/333/106 317/335/108
f 284/334/107 286/339/113 318/269/109
f 287/336/110 285/298/67 317/335/108
f 288/338/112 320/270/63 318/269/109
f 257/299/68 287/336/110 319/337/111
f 258/302/71 292/215/35 320/270/63
f 352/341/115 321/342/116 289/209/114
f 351/293/64 322/295/37 321/342/116
f 350/343/117 352/341/115 319/203/111
f 349/289/59 351/293/64 352/341/115
f 315/195/106 348/344/118 350/343/117
f 347/288/58 349/289/59 350/343/117
f 346/345/119 348/344/118 315/195/106
f 345/287/56 347/288/58 348/344/118
f 344/346/120 346/345/119 313/191/102
f 343/286/54 345/287/56 346/345/119
f 309/183/97 342/347/121 344/346/120
f 341/285/53 343/286/54 344/346/120
f 340/348/122 342/347/121 309/183/97
f 339/284/51 341/285/53 342/347/121
f 338/349/123 340/348/122 307/179/94
f 337/283/49 339/284/51 340/348/122
f 303/171/88 336/350/124 338/349/123
f 335/282/47 337/283/49 338/349/123
f 301/167/86 334/351/125 336/350/124
f 333/281/46 335/282/47 336/350/124
f 332/352/126 334/351/125 301/167/86
f 331/280/44 333/281/46 334/351/125
f 297/159/79 330/353/127 332/352/126
f 329/279/42 331/280/44 332/352/126
f 295/155/77 328/354/128 330/353/127
f 327/278/41 329/279/42 330/353/127
f 326/355/129 328/354/128 295/155/77
f 325/277/39 327/278/41 328/354/128
f 290/147/69 324/356/130 326/355/129
f 323/275/36 325/277/39 326/355/129
f 289/145/114 321/357/116 324/356/130
f 322/276/37 323/275/36 324/356/130
usemtl マテリアル.001
f 354/1/131 355/2/132 353/3/131
f 356/4/132 357/5/133 355/2/132
f 358/6/133 359/7/134 357/5/133
f 360/8/135 361/9/136 359/7/134
f 362/10/136 363/11/137 361/9/136
f 364/12/137 365/13/138 363/11/137
f 366/14/138 367/15/139 365/13/138
f 368/16/139 369/17/140 367/15/139
f 370/18/140 371/19/141 369/17/140
f 372/20/141 373/21/142 371/19/141
f 374/22/142 375/23/143 373/21/142
f 376/24/144 377/25/145 375/23/143
f 378/26/145 379/27/146 377/25/145
f 380/28/146 381/29/147 379/27/146
f 382/30/147 383/31/148 381/29/147
f 384/32/148 385/33/149 383/31/148
f 386/34/149 387/35/150 385/33/149
f 388/36/150 389/37/151 387/35/150
f 390/38/151 391/39/152 389/37/151
f 392/40/153 393/41/154 391/39/152
f 394/42/154 395/43/155 393/41/154
f 396/44/155 397/45/156 395/43/155
f 398/46/156 399/47/157 397/45/156
f 400/48/157 401/49/158 399/47/157
f 402/50/158 403/51/159 401/49/158
f 404/52/159 405/53/160 403/51/159
f 406/54/160 407/55/161 405/53/160
f 408/56/162 409/57/163 407/55/161
f 410/58/163 411/59/164 409/57/163
f 412/60/164 413/61/165 411/59/164
f 433/62/32 425/63/32 392/64/32
f 358/65/32 429/66/32 438/67/32
f 414/68/165 415/69/166 413/61/165
f 416/70/166 353/71/131 415/69/166
f 469/72/34 471/73/34 395/74/34
f 455/75/34 450/76/34 355/77/34
f 430/78/150 449/79/149 450/80/150
f 429/81/151 450/80/150 455/82/151
f 438/83/152 455/82/151 452/84/153
f 442/85/154 452/84/153 464/86/154
f 442/85/154 458/87/155 440/88/155
f 440/88/155 463/89/156 447/90/156
f 447/90/156 460/91/157 444/92/157
f 444/92/157 459/93/158 443/94/158
f 443/94/158 462/95/159 446/96/159
f 446/96/159 461/97/160 445/98/160
f 445/98/160 456/99/161 441/100/162
f 441/100/162 457/101/163 448/102/163
f 448/102/163 453/103/164 439/104/164
f 439/104/164 451/105/165 437/106/165
f 437/106/165 454/107/166 435/108/166
f 435/108/166 477/109/131 434/110/131
f 434/110/131 478/111/132 436/112/132
f 436/112/132 479/113/133 433/114/133
f 433/114/133 474/115/134 425/116/135
f 425/116/135 471/117/136 432/118/136
f 421/119/137 471/117/136 469/120/137
f 418/121/138 469/120/137 466/122/138
f 419/123/139 466/122/138 467/124/139
f 417/125/140 467/124/139 465/126/140
f 420/127/141 465/126/140 468/128/141
f 423/129/142 468/128/141 472/130/142
f 422/131/143 472/130/142 470/132/144
f 424/133/145 470/132/144 480/134/145
f 426/135/146 480/134/145 475/136/146
f 431/137/147 475/136/146 473/138/147
f 428/139/148 473/138/147 476/140/148
f 427/141/149 476/140/148 449/142/149
f 354/1/131 356/4/132 355/2/132
f 356/4/132 358/6/133 357/5/133
f 358/6/133 360/8/135 359/7/134
f 360/8/135 362/10/136 361/9/136
f 362/10/136 364/12/137 363/11/137
f 364/12/137 366/14/138 365/13/138
f 366/14/138 368/16/139 367/15/139
f 368/16/139 370/18/140 369/17/140
f 370/18/140 372/20/141 371/19/141
f 372/20/141 374/22/142 373/21/142
f 374/22/142 376/24/144 375/23/143
f 376/24/144 378/26/145 377/25/145
f 378/26/145 380/28/146 379/27/146
f 380/28/146 382/30/147 381/29/147
f 382/30/147 384/32/148 383/31/148
f 384/32/148 386/34/149 385/33/149
f 386/34/149 388/36/150 387/35/150
f 388/36/150 390/38/151 389/37/151
f 390/38/151 392/40/153 391/39/152
f 392/40/153 394/42/154 393/41/154
f 394/42/154 396/44/155 395/43/155
f 396/44/155 398/46/156 397/45/156
f 398/46/156 400/48/157 399/47/157
f 400/48/157 402/50/158 401/49/158
f 402/50/158 404/52/159 403/51/159
f 404/52/159 406/54/160 405/53/160
f 406/54/160 408/56/162 407/55/161
f 408/56/162 410/58/163 409/57/163
f 410/58/163 412/60/164 411/59/164
f 412/60/164 414/68/165 413/61/165
f 423/358/32 406/359/32 404/360/32
f 404/360/32 402/361/32 420/362/32
f 402/361/32 400/363/32 417/364/32
f 420/362/32 402/361/32 417/364/32
f 400/363/32 398/365/32 418/366/32
f 398/365/32 396/367/32 421/368/32
f 396/367/32 394/369/32 432/370/32
f 394/369/32 392/64/32 425/63/32
f 392/64/32 390/371/32 433/62/32
f 390/371/32 388/372/32 433/62/32
f 388/372/32 386/373/32 436/374/32
f 386/373/32 384/375/32 434/376/32
f 436/374/32 386/373/32 434/376/32
f 384/375/32 382/377/32 437/378/32
f 382/377/32 380/379/32 439/380/32
f 380/379/32 378/381/32 448/382/32
f 378/381/32 376/383/32 441/384/32
f 376/383/32 374/385/32 445/386/32
f 376/383/32 445/386/32 441/384/32
f 382/377/32 439/380/32 437/378/32
f 378/381/32 441/384/32 448/382/32
f 433/62/32 388/372/32 436/374/32
f 398/365/32 421/368/32 418/366/32
f 394/369/32 425/63/32 432/370/32
f 423/358/32 404/360/32 420/362/32
f 380/379/32 448/382/32 439/380/32
f 419/387/32 417/364/32 400/363/32
f 418/366/32 419/387/32 400/363/32
f 384/375/32 437/378/32 435/388/32
f 384/375/32 435/388/32 434/376/32
f 432/370/32 421/368/32 396/367/32
f 446/389/32 445/386/32 374/385/32
f 374/385/32 372/390/32 446/389/32
f 372/390/32 370/391/32 443/392/32
f 370/391/32 368/393/32 444/394/32
f 368/393/32 366/395/32 444/394/32
f 366/395/32 364/396/32 447/397/32
f 364/396/32 362/398/32 440/399/32
f 447/397/32 364/396/32 440/399/32
f 362/398/32 360/400/32 442/401/32
f 360/400/32 358/65/32 438/67/32
f 442/401/32 360/400/32 438/67/32
f 358/65/32 356/402/32 430/403/32
f 356/402/32 354/404/32 427/405/32
f 354/404/32 416/406/32 428/407/32
f 416/406/32 414/408/32 431/409/32
f 414/408/32 412/410/32 431/409/32
f 412/410/32 410/411/32 426/412/32
f 431/409/32 412/410/32 426/412/32
f 410/411/32 408/413/32 424/414/32
f 408/413/32 406/359/32 422/415/32
f 424/414/32 408/413/32 422/415/32
f 406/359/32 423/358/32 422/415/32
f 356/402/32 427/405/32 430/403/32
f 416/406/32 431/409/32 428/407/32
f 372/390/32 443/392/32 446/389/32
f 444/394/32 443/392/32 370/391/32
f 444/394/32 366/395/32 447/397/32
f 424/414/32 426/412/32 410/411/32
f 440/399/32 362/398/32 442/401/32
f 354/404/32 428/407/32 427/405/32
f 358/65/32 430/403/32 429/66/32
f 414/68/165 416/70/166 415/69/166
f 416/70/166 354/416/131 353/71/131
f 477/417/34 454/418/34 383/419/34
f 383/419/34 385/420/34 477/417/34
f 385/420/34 387/421/34 478/422/34
f 387/421/34 389/423/34 479/424/34
f 389/423/34 391/425/34 474/426/34
f 391/425/34 393/427/34 474/426/34
f 393/427/34 395/74/34 471/73/34
f 474/426/34 393/427/34 471/73/34
f 395/74/34 397/428/34 469/72/34
f 397/428/34 399/429/34 466/430/34
f 469/72/34 397/428/34 466/430/34
f 399/429/34 467/431/34 466/430/34
f 385/420/34 478/422/34 477/417/34
f 389/423/34 474/426/34 479/424/34
f 479/424/34 478/422/34 387/421/34
f 465/432/34 467/431/34 399/429/34
f 399/429/34 401/433/34 465/432/34
f 401/433/34 403/434/34 468/435/34
f 403/434/34 405/436/34 472/437/34
f 405/436/34 407/438/34 472/437/34
f 407/438/34 409/439/34 470/440/34
f 409/439/34 411/441/34 480/442/34
f 470/440/34 409/439/34 480/442/34
f 411/441/34 413/443/34 475/444/34
f 413/443/34 415/445/34 473/446/34
f 475/444/34 413/443/34 473/446/34
f 415/445/34 353/447/34 449/448/34
f 353/447/34 355/77/34 450/76/34
f 355/77/34 357/449/34 455/75/34
f 357/449/34 359/450/34 452/451/34
f 359/450/34 361/452/34 452/451/34
f 361/452/34 363/453/34 464/454/34
f 452/451/34 361/452/34 464/454/34
f 363/453/34 365/455/34 458/456/34
f 365/455/34 367/457/34 463/458/34
f 458/456/34 365/455/34 463/458/34
f 367/457/34 369/459/34 459/460/34
f 369/459/34 371/461/34 462/462/34
f 371/461/34 373/463/34 461/464/34
f 373/463/34 375/465/34 456/466/34
f 375/465/34 377/467/34 456/466/34
f 377/467/34 379/468/34 457/469/34
f 456/466/34 377/467/34 457/469/34
f 379/468/34 381/470/34 453/471/34
f 381/470/34 383/419/34 451/472/34
f 453/471/34 381/470/34 451/472/34
f 383/419/34 454/418/34 451/472/34
f 369/459/34 462/462/34 459/460/34
f 373/463/34 456/466/34 461/464/34
f 353/447/34 450/76/34 449/448/34
f 357/449/34 452/451/34 455/75/34
f 401/433/34 468/435/34 465/432/34
f 472/437/34 468/435/34 403/434/34
f 472/437/34 407/438/34 470/440/34
f 453/471/34 457/469/34 379/468/34
f 480/442/34 411/441/34 475/444/34
f 371/461/34 461/464/34 462/462/34
f 476/473/34 473/446/34 415/445/34
f 367/457/34 459/460/34 460/474/34
f 367/457/34 460/474/34 463/458/34
f 449/448/34 476/473/34 415/445/34
f 458/456/34 464/454/34 363/453/34
f 430/78/150 427/475/149 449/79/149
f 429/81/151 430/78/150 450/80/150
f 438/83/152 429/81/151 455/82/151
f 442/85/154 438/83/152 452/84/153
f 442/85/154 464/86/154 458/87/155
f 440/88/155 458/87/155 463/89/156
f 447/90/156 463/89/156 460/91/157
f 444/92/157 460/91/157 459/93/158
f 443/94/158 459/93/158 462/95/159
f 446/96/159 462/95/159 461/97/160
f 445/98/160 461/97/160 456/99/161
f 441/100/162 456/99/161 457/101/163
f 448/102/163 457/101/163 453/103/164
f 439/104/164 453/103/164 451/105/165
f 437/106/165 451/105/165 454/107/166
f 435/108/166 454/107/166 477/109/131
f 434/110/131 477/109/131 478/111/132
f 436/112/132 478/111/132 479/113/133
f 433/114/133 479/113/133 474/115/134
f 425/116/135 474/115/134 471/117/136
f 421/119/137 432/118/136 471/117/136
f 418/121/138 421/119/137 469/120/137
f 419/123/139 418/121/138 466/122/138
f 417/125/140 419/123/139 467/124/139
f 420/127/141 417/125/140 465/126/140
f 423/129/142 420/127/141 468/128/141
f 422/131/143 423/129/142 472/130/142
f 424/133/145 422/131/143 470/132/144
f 426/135/146 424/133/145 480/134/145
f 431/137/147 426/135/146 475/136/146
f 428/139/148 431/137/147 473/138/147
f 427/141/149 428/139/148 476/140/148
usemtl マテリアル.002
f 482/1/167 483/2/168 481/3/167
f 484/4/168 485/5/169 483/2/168
f 486/6/169 487/7/170 485/5/169
f 488/8/170 489/9/171 487/7/170
f 490/10/171 491/11/172 489/9/171
f 492/12/172 493/13/173 491/11/172
f 494/14/173 495/15/174 493/13/173
f 496/16/174 497/17/175 495/15/174
f 498/18/175 499/19/176 497/17/175
f 500/20/176 501/21/177 499/19/176
f 502/22/177 503/23/178 501/21/177
f 504/24/178 505/25/179 503/23/178
f 506/26/179 507/27/180 505/25/179
f 508/28/180 509/29/181 507/27/180
f 510/30/181 511/31/182 509/29/181
f 512/32/182 513/33/183 511/31/182
f 514/34/183 515/35/184 513/33/183
f 516/36/184 517/37/185 515/35/184
f 518/38/185 519/39/186 517/37/185
f 520/40/186 521/41/187 519/39/186
f 522/42/187 523/43/188 521/41/187
f 524/44/188 525/45/189 523/43/188
f 526/46/189 527/47/190 525/45/189
f 528/48/190 529/49/191 527/47/190
f 530/50/191 531/51/192 529/49/191
f 532/52/192 533/53/193 531/51/192
f 534/54/193 535/55/194 533/53/193
f 536/56/194 537/57/195 535/55/194
f 538/58/195 539/59/196 537/57/195
f 540/60/196 541/61/197 539/59/196
f 561/62/32 553/63/32 520/64/32
f 486/65/32 557/66/32 566/67/32
f 542/68/197 543/69/198 541/61/197
f 544/70/198 481/71/167 543/69/198
f 597/72/34 599/73/34 523/74/34
f 583/75/34 578/76/34 483/77/34
f 558/78/184 577/79/183 578/80/184
f 557/81/185 578/80/184 583/82/185
f 566/83/186 583/82/185 580/84/186
f 570/85/187 580/84/186 592/86/187
f 570/85/187 586/87/188 568/88/188
f 568/88/188 591/89/189 575/90/189
f 575/90/189 588/91/190 572/92/190
f 572/92/190 587/93/191 571/94/191
f 571/94/191 590/95/192 574/96/192
f 574/96/192 589/97/193 573/98/193
f 573/98/193 584/99/194 569/100/194
f 569/100/194 585/101/195 576/102/195
f 576/102/195 581/103/196 567/104/196
f 567/104/196 579/105/197 565/106/197
f 565/106/197 582/107/198 563/108/198
f 563/108/198 605/109/167 562/110/167
f 562/110/167 606/111/168 564/112/168
f 564/112/168 607/113/169 561/114/169
f 561/114/169 602/115/170 553/116/170
f 553/116/170 599/117/171 560/118/171
f 549/119/172 599/117/171 597/120/172
f 546/121/173 597/120/172 594/122/173
f 547/123/174 594/122/173 595/124/174
f 545/125/175 595/124/174 593/126/175
f 548/127/176 593/126/175 596/128/176
f 551/129/177 596/128/176 600/130/177
f 550/131/178 600/130/177 598/132/178
f 552/133/179 598/132/178 608/134/179
f 554/135/180 608/134/179 603/136/180
f 559/137/181 603/136/180 601/138/181
f 556/139/182 601/138/181 604/140/182
f 555/141/183 604/140/182 577/142/183
f 482/1/167 484/4/168 483/2/168
f 484/4/168 486/6/169 485/5/169
f 486/6/169 488/8/170 487/7/170
f 488/8/170 490/10/171 489/9/171
f 490/10/171 492/12/172 491/11/172
f 492/12/172 494/14/173 493/13/173
f 494/14/173 496/16/174 495/15/174
f 496/16/174 498/18/175 497/17/175
f 498/18/175 500/20/176 499/19/176
f 500/20/176 502/22/177 501/21/177
f 502/22/177 504/24/178 503/23/178
f 504/24/178 506/26/179 505/25/179
f 506/26/179 508/28/180 507/27/180
f 508/28/180 510/30/181 509/29/181
f 510/30/181 512/32/182 511/31/182
f 512/32/182 514/34/183 513/33/183
f 514/34/183 516/36/184 515/35/184
f 516/36/184 518/38/185 517/37/185
f 518/38/185 520/40/186 519/39/186
f 520/40/186 522/42/187 521/41/187
f 522/42/187 524/44/188 523/43/188
f 524/44/188 526/46/189 525/45/189
f 526/46/189 528/48/190 527/47/190
f 528/48/190 530/50/191 529/49/191
f 530/50/191 532/52/192 531/51/192
f 532/52/192 534/54/193 533/53/193
f 534/54/193 536/56/194 535/55/194
f 536/56/194 538/58/195 537/57/195
f 538/58/195 540/60/196 539/59/196
f 540/60/196 542/68/197 541/61/197
f 551/358/32 534/359/32 532/360/32
f 532/360/32 530/361/32 548/362/32
f 530/361/32 528/363/32 545/364/32
f 548/362/32 530/361/32 545/364/32
f 528/363/32 526/365/32 546/366/32
f 526/365/32 524/367/32 549/368/32
f 524/367/32 522/369/32 560/370/32
f 522/369/32 520/64/32 553/63/32
f 520/64/32 518/371/32 561/62/32
f 518/371/32 516/372/32 561/62/32
f 516/372/32 514/373/32 564/374/32
f 514/373/32 512/375/32 562/376/32
f 564/374/32 514/373/32 562/376/32
f 512/375/32 510/377/32 565/378/32
f 510/377/32 508/379/32 567/380/32
f 508/379/32 506/381/32 576/382/32
f 506/381/32 504/383/32 569/384/32
f 504/383/32 502/385/32 573/386/32
f 504/383/32 573/386/32 569/384/32
f 510/377/32 567/380/32 565/378/32
f 506/381/32 569/384/32 576/382/32
f 561/62/32 516/372/32 564/374/32
f 526/365/32 549/368/32 546/366/32
f 522/369/32 553/63/32 560/370/32
f 551/358/32 532/360/32 548/362/32
f 508/379/32 576/382/32 567/380/32
f 547/387/32 545/364/32 528/363/32
f 546/366/32 547/387/32 528/363/32
f 512/375/32 565/378/32 563/388/32
f 512/375/32 563/388/32 562/376/32
f 560/370/32 549/368/32 524/367/32
f 574/389/32 573/386/32 502/385/32
f 502/385/32 500/390/32 574/389/32
f 500/390/32 498/391/32 571/392/32
f 498/391/32 496/393/32 572/394/32
f 496/393/32 494/395/32 572/394/32
f 494/395/32 492/396/32 575/397/32
f 492/396/32 490/398/32 568/399/32
f 575/397/32 492/396/32 568/399/32
f 490/398/32 488/400/32 570/401/32
f 488/400/32 486/65/32 566/67/32
f 570/401/32 488/400/32 566/67/32
f 486/65/32 484/402/32 558/403/32
f 484/402/32 482/404/32 555/405/32
f 482/404/32 544/406/32 556/407/32
f 544/406/32 542/408/32 559/409/32
f 542/408/32 540/410/32 559/409/32
f 540/410/32 538/411/32 554/412/32
f 559/409/32 540/410/32 554/412/32
f 538/411/32 536/413/32 552/414/32
f 536/413/32 534/359/32 550/415/32
f 552/414/32 536/413/32 550/415/32
f 534/359/32 551/358/32 550/415/32
f 484/402/32 555/405/32 558/403/32
f 544/406/32 559/409/32 556/407/32
f 500/390/32 571/392/32 574/389/32
f 572/394/32 571/392/32 498/391/32
f 572/394/32 494/395/32 575/397/32
f 552/414/32 554/412/32 538/411/32
f 568/399/32 490/398/32 570/401/32
f 482/404/32 556/407/32 555/405/32
f 486/65/32 558/403/32 557/66/32
f 542/68/197 544/70/198 543/69/198
f 544/70/198 482/416/167 481/71/167
f 605/417/34 582/418/34 511/419/34
f 511/419/34 513/420/34 605/417/34
f 513/420/34 515/421/34 606/422/34
f 515/421/34 517/423/34 607/424/34
f 517/423/34 519/425/34 602/426/34
f 519/425/34 521/427/34 602/426/34
f 521/427/34 523/74/34 599/73/34
f 602/426/34 521/427/34 599/73/34
f 523/74/34 525/428/34 597/72/34
f 525/428/34 527/429/34 594/430/34
f 597/72/34 525/428/34 594/430/34
f 527/429/34 595/431/34 594/430/34
f 513/420/34 606/422/34 605/417/34
f 517/423/34 602/426/34 607/424/34
f 607/424/34 606/422/34 515/421/34
f 593/432/34 595/431/34 527/429/34
f 527/429/34 529/433/34 593/432/34
f 529/433/34 531/434/34 596/435/34
f 531/434/34 533/436/34 600/437/34
f 533/436/34 535/438/34 600/437/34
f 535/438/34 537/439/34 598/440/34
f 537/439/34 539/441/34 608/442/34
f 598/440/34 537/439/34 608/442/34
f 539/441/34 541/443/34 603/444/34
f 541/443/34 543/445/34 601/446/34
f 603/444/34 541/443/34 601/446/34
f 543/445/34 481/447/34 577/448/34
f 481/447/34 483/77/34 578/76/34
f 483/77/34 485/449/34 583/75/34
f 485/449/34 487/450/34 580/451/34
f 487/450/34 489/452/34 580/451/34
f 489/452/34 491/453/34 592/454/34
f 580/451/34 489/452/34 592/454/34
f 491/453/34 493/455/34 586/456/34
f 493/455/34 495/457/34 591/458/34
f 586/456/34 493/455/34 591/458/34
f 495/457/34 497/459/34 587/460/34
f 497/459/34 499/461/34 590/462/34
f 499/461/34 501/463/34 589/464/34
f 501/463/34 503/465/34 584/466/34
f 503/465/34 505/467/34 584/466/34
f 505/467/34 507/468/34 585/469/34
f 584/466/34 505/467/34 585/469/34
f 507/468/34 509/470/34 581/471/34
f 509/470/34 511/419/34 579/472/34
f 581/471/34 509/470/34 579/472/34
f 511/419/34 582/418/34 579/472/34
f 497/459/34 590/462/34 587/460/34
f 501/463/34 584/466/34 589/464/34
f 481/447/34 578/76/34 577/448/34
f 485/449/34 580/451/34 583/75/34
f 529/433/34 596/435/34 593/432/34
f 600/437/34 596/435/34 531/434/34
f 600/437/34 535/438/34 598/440/34
f 581/471/34 585/469/34 507/468/34
f 608/442/34 539/441/34 603/444/34
f 499/461/34 589/464/34 590/462/34
f 604/473/34 601/446/34 543/445/34
f 495/457/34 587/460/34 588/474/34
f 495/457/34 588/474/34 591/458/34
f 577/448/34 604/473/34 543/445/34
f 586/456/34 592/454/34 491/453/34
f 558/78/184 555/475/183 577/79/183
f 557/81/185 558/78/184 578/80/184
f 566/83/186 557/81/185 583/82/185
f 570/85/187 566/83/186 580/84/186
f 570/85/187 592/86/187 586/87/188
f 568/88/188 586/87/188 591/89/189
f 575/90/189 591/89/189 588/91/190
f 572/92/190 588/91/190 587/93/191
f 571/94/191 587/93/191 590/95/192
f 574/96/192 590/95/192 589/97/193
f 573/98/193 589/97/193 584/99/194
f 569/100/194 584/99/194 585/101/195
f 576/102/195 585/101/195 581/103/196
f 567/104/196 581/103/196 579/105/197
f 565/106/197 579/105/197 582/107/198
f 563/108/198 582/107/198 605/109/167
f 562/110/167 605/109/167 606/111/168
f 564/112/168 606/111/168 607/113/169
f 561/114/169 607/113/169 602/115/170
f 553/116/170 602/115/170 599/117/171
f 549/119/172 560/118/171 599/117/171
f 546/121/173 549/119/172 597/120/172
f 547/123/174 546/121/173 594/122/173
f 545/125/175 547/123/174 595/124/174
f 548/127/176 545/125/175 593/126/175
f 551/129/177 548/127/176 596/128/176
f 550/131/178 551/129/177 600/130/177
f 552/133/179 550/131/178 598/132/178
f 554/135/180 552/133/179 608/134/179
f 559/137/181 554/135/180 603/136/180
f 556/139/182 559/137/181 601/138/181
f 555/141/183 556/139/182 604/140/182
usemtl マテリアル.003
f 610/1/199 611/2/200 609/3/199
f 612/4/200 613/5/201 611/2/200
f 614/6/201 615/7/202 613/5/201
f 616/8/202 617/9/203 615/7/202
f 618/10/203 619/11/204 617/9/203
f 620/12/204 621/13/205 619/11/204
f 622/14/205 623/15/206 621/13/205
f 624/16/206 625/17/207 623/15/206
f 626/18/207 627/19/208 625/17/207
f 628/20/208 629/21/209 627/19/208
f 630/22/209 631/23/210 629/21/209
f 632/24/210 633/25/211 631/23/210
f 634/26/211 635/27/212 633/25/211
f 636/28/212 637/29/213 635/27/212
f 638/30/213 639/31/214 637/29/213
f 640/32/214 641/33/215 639/31/214
f 642/34/215 643/35/216 641/33/215
f 644/36/216 645/37/217 643/35/216
f 646/38/217 647/39/218 645/37/217
f 648/40/218 649/41/219 647/39/218
f 650/42/219 651/43/220 649/41/219
f 652/44/220 653/45/221 651/43/220
f 654/46/221 655/47/222 653/45/221
f 656/48/222 657/49/223 655/47/222
f 658/50/223 659/51/224 657/49/223
f 660/52/224 661/53/225 659/51/224
f 662/54/225 663/55/226 661/53/225
f 664/56/226 665/57/227 663/55/226
f 666/58/227 667/59/228 665/57/227
f 668/60/228 669/61/229 667/59/228
f 689/62/32 681/63/32 648/64/32
f 614/65/32 685/66/32 694/67/32
f 670/68/229 671/69/230 669/61/229
f 672/70/230 609/71/199 671/69/230
f 725/72/34 727/73/34 651/74/34
f 711/75/34 706/76/34 611/77/34
f 686/78/216 705/79/215 706/80/216
f 685/81/217 706/80/216 711/82/217
f 694/83/218 711/82/217 708/84/218
f 698/85/219 708/84/218 720/86/219
f 698/85/219 714/87/220 696/88/220
f 696/88/220 719/89/221 703/90/221
f 703/90/221 716/91/222 700/92/222
f 700/92/222 715/93/223 699/94/223
f 699/94/223 718/95/224 702/96/224
f 702/96/224 717/97/225 701/98/225
f 701/98/225 712/99/226 697/100/226
f 697/100/226 713/101/227 704/102/227
f 704/102/227 709/103/228 695/104/228
f 695/104/228 707/105/229 693/106/229
f 693/106/229 710/107/230 691/108/230
f 691/108/230 733/109/199 690/110/199
f 690/110/199 734/111/200 692/112/200
f 692/112/200 735/113/201 689/114/201
f 689/114/201 730/115/202 681/116/202
f 681/116/202 727/117/203 688/118/203
f 677/119/204 727/117/203 725/120/204
f 674/121/205 725/120/204 722/122/205
f 675/123/206 722/122/205 723/124/206
f 673/125/207 723/124/206 721/126/207
f 676/127/208 721/126/207 724/128/208
f 679/129/209 724/128/208 728/130/209
f 678/131/210 728/130/209 726/132/210
f 680/133/211 726/132/210 736/134/211
f 682/135/212 736/134/211 731/136/212
f 687/137/213 731/136/212 729/138/213
f 684/139/214 729/138/213 732/140/214
f 683/141/215 732/140/214 705/142/215
f 610/1/199 612/4/200 611/2/200
f 612/4/200 614/6/201 613/5/201
f 614/6/201 616/8/202 615/7/202
f 616/8/202 618/10/203 617/9/203
f 618/10/203 620/12/204 619/11/204
f 620/12/204 622/14/205 621/13/205
f 622/14/205 624/16/206 623/15/206
f 624/16/206 626/18/207 625/17/207
f 626/18/207 628/20/208 627/19/208
f 628/20/208 630/22/209 629/21/209
f 630/22/209 632/24/210 631/23/210
f 632/24/210 634/26/211 633/25/211
f 634/26/211 636/28/212 635/27/212
f 636/28/212 638/30/213 637/29/213
f 638/30/213 640/32/214 639/31/214
f 640/32/214 642/34/215 641/33/215
f 642/34/215 644/36/216 643/35/216
f 644/36/216 646/38/217 645/37/217
f 646/38/217 648/40/218 647/39/218
f 648/40/218 650/42/219 649/41/219
f 650/42/219 652/44/220 651/43/220
f 652/44/220 654/46/221 653/45/221
f 654/46/221 656/48/222 655/47/222
f 656/48/222 658/50/223 657/49/223
f 658/50/223 660/52/224 659/51/224
f 660/52/224 662/54/225 661/53/225
f 662/54/225 664/56/226 663/55/226
f 664/56/226 666/58/227 665/57/227
f 666/58/227 668/60/228 667/59/228
f 668/60/228 670/68/229 669/61/229
f 679/358/32 662/359/32 660/360/32
f 660/360/32 658/361/32 676/362/32
f 658/361/32 656/363/32 673/364/32
f 676/362/32 658/361/32 673/364/32
f 656/363/32 654/365/32 674/366/32
f 654/365/32 652/367/32 677/368/32
f 652/367/32 650/369/32 688/370/32
f 650/369/32 648/64/32 681/63/32
f 648/64/32 646/371/32 689/62/32
f 646/371/32 644/372/32 689/62/32
f 644/372/32 642/373/32 692/374/32
f 642/373/32 640/375/32 690/376/32
f 692/374/32 642/373/32 690/376/32
f 640/375/32 638/377/32 693/378/32
f 638/377/32 636/379/32 695/380/32
f 636/379/32 634/381/32 704/382/32
f 634/381/32 632/383/32 697/384/32
f 632/383/32 630/385/32 701/386/32
f 632/383/32 701/386/32 697/384/32
f 638/377/32 695/380/32 693/378/32
f 634/381/32 697/384/32 704/382/32
f 689/62/32 644/372/32 692/374/32
f 654/365/32 677/368/32 674/366/32
f 650/369/32 681/63/32 688/370/32
f 679/358/32 660/360/32 676/362/32
f 636/379/32 704/382/32 695/380/32
f 675/387/32 673/364/32 656/363/32
f 674/366/32 675/387/32 656/363/32
f 640/375/32 693/378/32 691/388/32
f 640/375/32 691/388/32 690/376/32
f 688/370/32 677/368/32 652/367/32
f 702/389/32 701/386/32 630/385/32
f 630/385/32 628/390/32 702/389/32
f 628/390/32 626/391/32 699/392/32
f 626/391/32 624/393/32 700/394/32
f 624/393/32 622/395/32 700/394/32
f 622/395/32 620/396/32 703/397/32
f 620/396/32 618/398/32 696/399/32
f 703/397/32 620/396/32 696/399/32
f 618/398/32 616/400/32 698/401/32
f 616/400/32 614/65/32 694/67/32
f 698/401/32 616/400/32 694/67/32
f 614/65/32 612/402/32 686/403/32
f 612/402/32 610/404/32 683/405/32
f 610/404/32 672/406/32 684/407/32
f 672/406/32 670/408/32 687/409/32
f 670/408/32 668/410/32 687/409/32
f 668/410/32 666/411/32 682/412/32
f 687/409/32 668/410/32 682/412/32
f 666/411/32 664/413/32 680/414/32
f 664/413/32 662/359/32 678/415/32
f 680/414/32 664/413/32 678/415/32
f 662/359/32 679/358/32 678/415/32
f 612/402/32 683/405/32 686/403/32
f 672/406/32 687/409/32 684/407/32
f 628/390/32 699/392/32 702/389/32
f 700/394/32 699/392/32 626/391/32
f 700/394/32 622/395/32 703/397/32
f 680/414/32 682/412/32 666/411/32
f 696/399/32 618/398/32 698/401/32
f 610/404/32 684/407/32 683/405/32
f 614/65/32 686/403/32 685/66/32
f 670/68/229 672/70/230 671/69/230
f 672/70/230 610/416/199 609/71/199
f 733/417/34 710/418/34 639/419/34
f 639/419/34 641/420/34 733/417/34
f 641/420/34 643/421/34 734/422/34
f 643/421/34 645/423/34 735/424/34
f 645/423/34 647/425/34 730/426/34
f 647/425/34 649/427/34 730/426/34
f 649/427/34 651/74/34 727/73/34
f 730/426/34 649/427/34 727/73/34
f 651/74/34 653/428/34 725/72/34
f 653/428/34 655/429/34 722/430/34
f 725/72/34 653/428/34 722/430/34
f 655/429/34 723/431/34 722/430/34
f 641/420/34 734/422/34 733/417/34
f 645/423/34 730/426/34 735/424/34
f 735/424/34 734/422/34 643/421/34
f 721/432/34 723/431/34 655/429/34
f 655/429/34 657/433/34 721/432/34
f 657/433/34 659/434/34 724/435/34
f 659/434/34 661/436/34 728/437/34
f 661/436/34 663/438/34 728/437/34
f 663/438/34 665/439/34 726/440/34
f 665/439/34 667/441/34 736/442/34
f 726/440/34 665/439/34 736/442/34
f 667/441/34 669/443/34 731/444/34
f 669/443/34 671/445/34 729/446/34
f 731/444/34 669/443/34 729/446/34
f 671/445/34 609/447/34 705/448/34
f 609/447/34 611/77/34 706/76/34
f 611/77/34 613/449/34 711/75/34
f 613/449/34 615/450/34 708/451/34
f 615/450/34 617/452/34 708/451/34
f 617/452/34 619/453/34 720/454/34
f 708/451/34 617/452/34 720/454/34
f 619/453/34 621/455/34 714/456/34
f 621/455/34 623/457/34 719/458/34
f 714/456/34 621/455/34 719/458/34
f 623/457/34 625/459/34 715/460/34
f 625/459/34 627/461/34 718/462/34
f 627/461/34 629/463/34 717/464/34
f 629/463/34 631/465/34 712/466/34
f 631/465/34 633/467/34 712/466/34
f 633/467/34 635/468/34 713/469/34
f 712/466/34 633/467/34 713/469/34
f 635/468/34 637/470/34 709/471/34
f 637/470/34 639/419/34 707/472/34
f 709/471/34 637/470/34 707/472/34
f 639/419/34 710/418/34 707/472/34
f 625/459/34 718/462/34 715/460/34
f 629/463/34 712/466/34 717/464/34
f 609/447/34 706/76/34 705/448/34
f 613/449/34 708/451/34 711/75/34
f 657/433/34 724/435/34 721/432/34
f 728/437/34 724/435/34 659/434/34
f 728/437/34 663/438/34 726/440/34
f 709/471/34 713/469/34 635/468/34
f 736/442/34 667/441/34 731/444/34
f 627/461/34 717/464/34 718/462/34
f 732/473/34 729/446/34 671/445/34
f 623/457/34 715/460/34 716/474/34
f 623/457/34 716/474/34 719/458/34
f 705/448/34 732/473/34 671/445/34
f 714/456/34 720/454/34 619/453/34
f 686/78/216 683/475/215 705/79/215
f 685/81/217 686/78/216 706/80/216
f 694/83/218 685/81/217 711/82/217
f 698/85/219 694/83/218 708/84/218
f 698/85/219 720/86/219 714/87/220
f 696/88/220 714/87/220 719/89/221
f 703/90/221 719/89/221 716/91/222
f 700/92/222 716/91/222 715/93/223
f 699/94/223 715/93/223 718/95/224
f 702/96/224 718/95/224 717/97/225
f 701/98/225 717/97/225 712/99/226
f 697/100/226 712/99/226 713/101/227
f 704/102/227 713/101/227 709/103/228
f 695/104/228 709/103/228 707/105/229
f 693/106/229 707/105/229 710/107/230
f 691/108/230 710/107/230 733/109/199
f 690/110/199 733/109/199 734/111/200
f 692/112/200 734/111/200 735/113/201
f 689/114/201 735/113/201 730/115/202
f 681/116/202 730/115/202 727/117/203
f 677/119/204 688/118/203 727/117/203
f 674/121/205 677/119/204 725/120/204
f 675/123/206 674/121/205 722/122/205
f 673/125/207 675/123/206 723/124/206
f 676/127/208 673/125/207 721/126/207
f 679/129/209 676/127/208 724/128/208
f 678/131/210 679/129/209 728/130/209
f 680/133/211 678/131/210 726/132/210
f 682/135/212 680/133/211 736/134/211
f 687/137/213 682/135/212 731/136/212
f 684/139/214 687/137/213 729/138/213
f 683/141/215 684/139/214 732/140/214
