# Blender 5.1.2
# www.blender.org
mtllib goal.mtl
o 円柱.001
v 0.000000 2.833344 -0.145907
v 0.000000 2.833344 0.145907
v 0.118432 2.821680 -0.145907
v 0.118432 2.821680 0.145907
v 0.232312 2.787134 -0.145907
v 0.232312 2.787134 0.145907
v 0.337265 2.731036 -0.145907
v 0.337265 2.731036 0.145907
v 0.429256 2.655540 -0.145907
v 0.429256 2.655540 0.145907
v 0.504752 2.563548 -0.145907
v 0.504752 2.563548 0.145907
v 0.560851 2.458596 -0.145907
v 0.560851 2.458596 0.145907
v 0.595396 2.344715 -0.145907
v 0.595396 2.344715 0.145907
v 0.607060 2.226284 -0.145907
v 0.607060 2.226284 0.145907
v 0.595396 2.107852 -0.145907
v 0.595396 2.107852 0.145907
v 0.560851 1.993972 -0.145907
v 0.560851 1.993972 0.145907
v 0.504752 1.889019 -0.145907
v 0.504752 1.889019 0.145907
v 0.429256 1.797027 -0.145907
v 0.429256 1.797027 0.145907
v 0.337265 1.721532 -0.145907
v 0.337265 1.721532 0.145907
v 0.232312 1.665433 -0.145907
v 0.232312 1.665433 0.145907
v 0.118432 1.630888 -0.145907
v 0.118432 1.630888 0.145907
v 0.000000 1.619224 -0.145907
v 0.000000 1.619224 0.145907
v -0.118432 1.630888 -0.145907
v -0.118432 1.630888 0.145907
v -0.232312 1.665433 -0.145907
v -0.232312 1.665433 0.145907
v -0.337265 1.721532 -0.145907
v -0.337265 1.721532 0.145907
v -0.429256 1.797027 -0.145907
v -0.429256 1.797027 0.145907
v -0.504752 1.889019 -0.145907
v -0.504752 1.889019 0.145907
v -0.560851 1.993972 -0.145907
v -0.560851 1.993972 0.145907
v -0.595396 2.107852 -0.145907
v -0.595396 2.107852 0.145907
v -0.607060 2.226284 -0.145907
v -0.607060 2.226284 0.145907
v -0.595396 2.344715 -0.145907
v -0.595396 2.344715 0.145907
v -0.560851 2.458596 -0.145907
v -0.560851 2.458596 0.145907
v -0.504752 2.563548 -0.145907
v -0.504752 2.563548 0.145907
v -0.429256 2.655540 -0.145907
v -0.429256 2.655540 0.145907
v -0.337265 2.731036 -0.145907
v -0.337265 2.731036 0.145907
v -0.232312 2.787134 -0.145907
v -0.232312 2.787134 0.145907
v -0.118432 2.821680 -0.145907
v -0.118432 2.821680 0.145907
v -0.000000 2.563460 -0.064265
v 0.195090 3.207069 -0.042357
v 0.065780 2.556982 -0.064265
v 0.129032 2.537794 -0.064265
v 0.555570 3.057753 -0.042357
v 0.187325 2.506636 -0.064265
v 0.238420 2.464704 -0.064265
v 0.831470 2.781854 -0.042357
v 0.280352 2.413609 -0.064265
v 0.311510 2.355316 -0.064265
v 0.980785 2.421374 -0.042357
v 0.330698 2.292064 -0.064265
v 0.337176 2.226284 -0.064265
v 0.980785 2.031193 -0.042357
v 0.330698 2.160504 -0.064265
v 0.311510 2.097252 -0.064265
v 0.831470 1.670714 -0.042357
v 0.280352 2.038959 -0.064265
v 0.238420 1.987864 -0.064265
v 0.555570 1.394814 -0.042357
v 0.187325 1.945932 -0.064265
v 0.129032 1.914773 -0.064265
v 0.195090 1.245499 -0.042357
v 0.065780 1.895586 -0.064265
v -0.000000 1.889107 -0.064265
v -0.195090 1.245499 -0.042357
v -0.065780 1.895586 -0.064265
v -0.129032 1.914773 -0.064265
v -0.555570 1.394814 -0.042357
v -0.187325 1.945932 -0.064265
v -0.238420 1.987864 -0.064265
v -0.831470 1.670714 -0.042357
v -0.280352 2.038959 -0.064265
v -0.311510 2.097252 -0.064265
v -0.980785 2.031193 -0.042357
v -0.330698 2.160504 -0.064265
v -0.337176 2.226284 -0.064265
v -0.980785 2.421374 -0.042357
v -0.330698 2.292064 -0.064265
v -0.311510 2.355316 -0.064265
v -0.831470 2.781854 -0.042357
v -0.280352 2.413609 -0.064265
v -0.238420 2.464704 -0.064265
v -0.555570 3.057753 -0.042357
v -0.187325 2.506636 -0.064265
v -0.129032 2.537794 -0.064265
v -0.195090 3.207069 -0.042357
v -0.065780 2.556982 -0.064265
v 0.158228 2.603189 -0.064265
v 0.290420 2.513948 -0.064265
v 0.378397 2.380912 -0.064265
v 0.408767 2.224335 -0.064265
v 0.376906 2.068055 -0.064265
v 0.287664 1.935864 -0.064265
v 0.154628 1.847887 -0.064265
v -0.001948 1.817517 -0.064265
v -0.158228 1.849378 -0.064265
v -0.290420 1.938620 -0.064265
v -0.378397 2.071656 -0.064265
v -0.408767 2.228232 -0.064265
v -0.376906 2.384512 -0.064265
v -0.287664 2.516703 -0.064265
v -0.154628 2.604681 -0.064265
v 0.001948 2.635051 -0.064265
v -0.000000 3.226284 0.000008
v 0.195090 3.207069 0.000008
v 0.382683 3.150163 0.000008
v 0.555570 3.057753 0.000008
v 0.707107 2.933391 0.000008
v 0.831470 2.781854 0.000008
v 0.923879 2.608967 0.000008
v 0.980785 2.421374 0.000008
v 1.000000 2.226284 0.000008
v 0.980785 2.031193 0.000008
v 0.923879 1.843600 0.000008
v 0.831470 1.670714 0.000008
v 0.707107 1.519177 0.000008
v 0.555570 1.394814 0.000008
v 0.382683 1.302404 0.000008
v 0.195090 1.245499 0.000008
v -0.000000 1.226284 0.000008
v -0.195090 1.245499 0.000008
v -0.382683 1.302404 0.000008
v -0.555570 1.394814 0.000008
v -0.707107 1.519177 0.000008
v -0.831470 1.670714 0.000008
v -0.923879 1.843600 0.000008
v -0.980785 2.031193 0.000008
v -1.000000 2.226284 0.000008
v -0.980785 2.421374 0.000008
v -0.923879 2.608967 0.000008
v -0.831470 2.781854 0.000008
v -0.707107 2.933391 0.000008
v -0.555570 3.057753 0.000008
v -0.382683 3.150163 0.000008
v -0.195090 3.207069 0.000008
v -0.000000 2.563460 0.068115
v 0.195090 3.207069 0.046207
v 0.065780 2.556982 0.068115
v 0.129032 2.537794 0.068115
v 0.555570 3.057753 0.046207
v 0.187325 2.506636 0.068115
v 0.238420 2.464704 0.068115
v 0.831470 2.781854 0.046207
v 0.280352 2.413609 0.068115
v 0.311510 2.355316 0.068115
v 0.980785 2.421374 0.046207
v 0.330698 2.292064 0.068115
v 0.337176 2.226284 0.068115
v 0.980785 2.031193 0.046207
v 0.330698 2.160504 0.068115
v 0.311510 2.097252 0.068115
v 0.831470 1.670714 0.046207
v 0.280352 2.038959 0.068115
v 0.238420 1.987864 0.068115
v 0.555570 1.394814 0.046207
v 0.187325 1.945932 0.068115
v 0.129032 1.914773 0.068115
v 0.195090 1.245499 0.046207
v 0.065780 1.895586 0.068115
v -0.000000 1.889107 0.068115
v -0.195090 1.245499 0.046207
v -0.065780 1.895586 0.068115
v -0.129032 1.914773 0.068115
v -0.555570 1.394814 0.046207
v -0.187325 1.945932 0.068115
v -0.238420 1.987864 0.068115
v -0.831470 1.670714 0.046207
v -0.280352 2.038959 0.068115
v -0.311510 2.097252 0.068115
v -0.980785 2.031193 0.046207
v -0.330698 2.160504 0.068115
v -0.337176 2.226284 0.068115
v -0.980785 2.421374 0.046207
v -0.330698 2.292064 0.068115
v -0.311510 2.355316 0.068115
v -0.831470 2.781854 0.046207
v -0.280352 2.413609 0.068115
v -0.238420 2.464704 0.068115
v -0.555570 3.057753 0.046207
v -0.187325 2.506636 0.068115
v -0.129032 2.537794 0.068115
v -0.195090 3.207069 0.046207
v -0.065780 2.556982 0.068115
v 0.158228 2.603189 0.068115
v 0.290420 2.513948 0.068115
v 0.378397 2.380912 0.068115
v 0.408767 2.224335 0.068115
v 0.376906 2.068055 0.068115
v 0.287664 1.935864 0.068115
v 0.154628 1.847887 0.068115
v -0.001948 1.817517 0.068115
v -0.158228 1.849378 0.068115
v -0.290420 1.938620 0.068115
v -0.378397 2.071656 0.068115
v -0.408767 2.228232 0.068115
v -0.376906 2.384512 0.068115
v -0.287664 2.516703 0.068115
v -0.154628 2.604681 0.068115
v 0.001948 2.635051 0.068115
v -0.000000 3.226284 0.000291
v 0.195090 3.207069 0.000291
v 0.382683 3.150163 0.000291
v 0.555570 3.057753 0.000291
v 0.707107 2.933391 0.000291
v 0.831470 2.781854 0.000291
v 0.923879 2.608967 0.000291
v 0.980785 2.421374 0.000291
v 1.000000 2.226284 0.000291
v 0.980785 2.031193 0.000291
v 0.923879 1.843600 0.000291
v 0.831470 1.670714 0.000291
v 0.707107 1.519177 0.000291
v 0.555570 1.394814 0.000291
v 0.382683 1.302404 0.000291
v 0.195090 1.245499 0.000291
v -0.000000 1.226284 0.000291
v -0.195090 1.245499 0.000291
v -0.382683 1.302404 0.000291
v -0.555570 1.394814 0.000291
v -0.707107 1.519177 0.000291
v -0.831470 1.670714 0.000291
v -0.923879 1.843600 0.000291
v -0.980785 2.031193 0.000291
v -1.000000 2.226284 0.000291
v -0.980785 2.421374 0.000291
v -0.923879 2.608967 0.000291
v -0.831470 2.781854 0.000291
v -0.707107 2.933391 0.000291
v -0.555570 3.057753 0.000291
v -0.382683 3.150163 0.000291
v -0.195090 3.207069 0.000291
v -0.042100 3.222137 -0.042357
v 0.042100 3.222137 -0.042357
v -0.000000 3.226284 -0.038313
v 0.342201 3.162443 -0.042357
v 0.419992 3.130221 -0.042357
v 0.382683 3.150163 -0.038313
v 0.674406 2.960227 -0.042357
v 0.733944 2.900689 -0.042357
v 0.707107 2.933391 -0.038313
v 0.903938 2.646276 -0.042357
v 0.936160 2.568485 -0.042357
v 0.923879 2.608967 -0.038313
v 0.995853 2.268384 -0.042357
v 0.995853 2.184184 -0.042357
v 1.000000 2.226284 -0.038313
v 0.936160 1.884082 -0.042357
v 0.903938 1.806292 -0.042357
v 0.923879 1.843600 -0.038313
v 0.733944 1.551878 -0.042357
v 0.674406 1.492340 -0.042357
v 0.707107 1.519177 -0.038313
v 0.419992 1.322346 -0.042357
v 0.342201 1.290124 -0.042357
v 0.382683 1.302404 -0.038313
v 0.042100 1.230430 -0.042357
v -0.042100 1.230430 -0.042357
v -0.000000 1.226284 -0.038313
v -0.342201 1.290124 -0.042357
v -0.419992 1.322346 -0.042357
v -0.382683 1.302404 -0.038313
v -0.674406 1.492340 -0.042357
v -0.733944 1.551878 -0.042357
v -0.707107 1.519177 -0.038313
v -0.903938 1.806292 -0.042357
v -0.936160 1.884082 -0.042357
v -0.923879 1.843600 -0.038313
v -0.995853 2.184184 -0.042357
v -0.995853 2.268384 -0.042357
v -1.000000 2.226284 -0.038313
v -0.936160 2.568485 -0.042357
v -0.903938 2.646276 -0.042357
v -0.923879 2.608967 -0.038313
v -0.733944 2.900689 -0.042357
v -0.674406 2.960227 -0.042357
v -0.707107 2.933391 -0.038313
v -0.419992 3.130221 -0.042357
v -0.342201 3.162443 -0.042357
v -0.382683 3.150163 -0.038313
v -0.011350 3.185071 -0.222434
v -0.021476 3.183730 -0.221450
v 0.356427 3.116431 -0.222434
v 0.346558 3.119068 -0.221450
v 0.669940 2.912274 -0.222434
v 0.661831 2.918487 -0.221450
v 0.881461 2.603681 -0.222434
v 0.876347 2.612524 -0.221450
v 0.958787 2.237633 -0.222434
v 0.957447 2.247760 -0.221450
v 0.890147 1.869857 -0.222434
v 0.892784 1.879726 -0.221450
v 0.685990 1.556344 -0.222434
v 0.692203 1.564453 -0.221450
v 0.377398 1.344823 -0.222434
v 0.386240 1.349937 -0.221450
v 0.011350 1.267496 -0.222434
v 0.021476 1.268837 -0.221450
v -0.356427 1.336137 -0.222434
v -0.346558 1.333500 -0.221450
v -0.669940 1.540293 -0.222434
v -0.661831 1.534081 -0.221450
v -0.881461 1.848886 -0.222434
v -0.876347 1.840044 -0.221450
v -0.958787 2.214934 -0.222434
v -0.957447 2.204808 -0.221450
v -0.890147 2.582710 -0.222434
v -0.892784 2.572842 -0.221450
v -0.685990 2.896224 -0.222434
v -0.692203 2.888115 -0.221450
v -0.377398 3.107745 -0.222434
v -0.386240 3.102631 -0.221450
v 0.042100 3.222137 0.046207
v -0.042100 3.222137 0.046207
v -0.000000 3.226284 0.042163
v 0.419992 3.130222 0.046207
v 0.342201 3.162443 0.046207
v 0.382683 3.150163 0.042163
v 0.733944 2.900689 0.046207
v 0.674406 2.960227 0.046207
v 0.707107 2.933391 0.042163
v 0.936160 2.568485 0.046207
v 0.903938 2.646276 0.046207
v 0.923879 2.608967 0.042163
v 0.995853 2.184184 0.046207
v 0.995853 2.268384 0.046207
v 1.000000 2.226284 0.042163
v 0.903938 1.806292 0.046207
v 0.936160 1.884082 0.046207
v 0.923879 1.843600 0.042163
v 0.674406 1.492340 0.046207
v 0.733944 1.551878 0.046207
v 0.707107 1.519177 0.042163
v 0.342201 1.290124 0.046207
v 0.419992 1.322346 0.046207
v 0.382683 1.302404 0.042163
v -0.042100 1.230430 0.046207
v 0.042100 1.230430 0.046207
v -0.000000 1.226284 0.042163
v -0.419992 1.322346 0.046207
v -0.342201 1.290124 0.046207
v -0.382683 1.302404 0.042163
v -0.733944 1.551878 0.046207
v -0.674406 1.492340 0.046207
v -0.707107 1.519177 0.042163
v -0.936160 1.884082 0.046207
v -0.903938 1.806292 0.046207
v -0.923879 1.843600 0.042163
v -0.995853 2.268384 0.046207
v -0.995853 2.184184 0.046207
v -1.000000 2.226284 0.042163
v -0.903938 2.646276 0.046207
v -0.936160 2.568485 0.046207
v -0.923879 2.608967 0.042163
v -0.674406 2.960227 0.046207
v -0.733944 2.900689 0.046207
v -0.707107 2.933391 0.042163
v -0.342201 3.162443 0.046207
v -0.419992 3.130221 0.046207
v -0.382683 3.150163 0.042163
v -0.021476 3.183730 0.225300
v -0.011350 3.185071 0.226284
v 0.346558 3.119068 0.225300
v 0.356427 3.116431 0.226284
v 0.661831 2.918487 0.225300
v 0.669940 2.912274 0.226284
v 0.876347 2.612524 0.225300
v 0.881461 2.603681 0.226284
v 0.957447 2.247760 0.225300
v 0.958787 2.237633 0.226284
v 0.892784 1.879726 0.225300
v 0.890147 1.869857 0.226284
v 0.692203 1.564453 0.225300
v 0.685990 1.556344 0.226284
v 0.386240 1.349937 0.225300
v 0.377398 1.344823 0.226284
v 0.021476 1.268837 0.225300
v 0.011350 1.267496 0.226284
v -0.346558 1.333500 0.225300
v -0.356427 1.336137 0.226284
v -0.661831 1.534081 0.225300
v -0.669940 1.540293 0.226284
v -0.876347 1.840044 0.225300
v -0.881461 1.848886 0.226284
v -0.957447 2.204808 0.225300
v -0.958787 2.214934 0.226284
v -0.892784 2.572842 0.225300
v -0.890147 2.582710 0.226284
v -0.692203 2.888115 0.225300
v -0.685990 2.896224 0.226284
v -0.386240 3.102631 0.225300
v -0.377398 3.107745 0.226284
v -0.800966 0.074782 -0.035336
v -0.800966 0.074782 0.036936
v -0.632351 1.458095 -0.035336
v -0.632351 1.458095 0.036936
v -0.156840 -0.003732 -0.035336
v -0.156840 -0.003732 0.036936
v 0.011775 1.379581 -0.035336
v 0.011775 1.379581 0.036936
v -0.310288 1.418838 -0.035336
v -0.310288 1.418838 0.036936
v -0.422677 0.496803 -0.035336
v -0.422677 0.496803 0.036936
v 0.800965 0.074782 -0.035336
v 0.800965 0.074782 0.036936
v 0.632351 1.458095 -0.035336
v 0.632351 1.458095 0.036936
v 0.156840 -0.003732 -0.035336
v 0.156840 -0.003732 0.036936
v -0.011775 1.379582 -0.035336
v -0.011775 1.379582 0.036936
v 0.310288 1.418838 -0.035336
v 0.310288 1.418838 0.036936
v 0.422677 0.496803 -0.035336
v 0.422677 0.496803 0.036936
vn -0.0000 1.0000 -0.0000
vn 0.1951 0.9808 -0.0000
vn 0.3827 0.9239 -0.0000
vn 0.5556 0.8315 -0.0000
vn 0.7071 0.7071 -0.0000
vn 0.8315 0.5556 -0.0000
vn 0.9239 0.3827 -0.0000
vn 0.9808 0.1951 -0.0000
vn 1.0000 -0.0000 -0.0000
vn 0.9808 -0.1951 -0.0000
vn 0.9239 -0.3827 -0.0000
vn 0.8315 -0.5556 -0.0000
vn 0.7071 -0.7071 -0.0000
vn 0.5556 -0.8315 -0.0000
vn 0.3827 -0.9239 -0.0000
vn 0.1951 -0.9808 -0.0000
vn -0.0000 -1.0000 -0.0000
vn -0.1951 -0.9808 -0.0000
vn -0.3827 -0.9239 -0.0000
vn -0.5556 -0.8315 -0.0000
vn -0.7071 -0.7071 -0.0000
vn -0.8315 -0.5556 -0.0000
vn -0.9239 -0.3827 -0.0000
vn -0.9808 -0.1951 -0.0000
vn -1.0000 -0.0000 -0.0000
vn -0.9808 0.1951 -0.0000
vn -0.9239 0.3827 -0.0000
vn -0.8315 0.5556 -0.0000
vn -0.7071 0.7071 -0.0000
vn -0.5556 0.8315 -0.0000
vn -0.3827 0.9239 -0.0000
vn -0.0000 -0.0000 1.0000
vn -0.1951 0.9808 -0.0000
vn -0.0000 -0.0000 -1.0000
vn -0.0000 0.6982 -0.7159
vn 0.2672 0.6451 -0.7159
vn 0.4937 0.4937 -0.7159
vn 0.6451 0.2672 -0.7159
vn 0.6982 -0.0000 -0.7159
vn 0.6451 -0.2672 -0.7159
vn 0.4937 -0.4937 -0.7159
vn 0.2672 -0.6451 -0.7159
vn -0.0000 -0.6982 -0.7159
vn -0.2672 -0.6451 -0.7159
vn -0.4937 -0.4937 -0.7159
vn -0.6451 -0.2672 -0.7159
vn -0.6982 -0.0000 -0.7159
vn -0.6451 0.2672 -0.7159
vn -0.4937 0.4937 -0.7159
vn -0.2672 0.6451 -0.7159
vn -0.0076 -0.1441 -0.9895
vn -0.0622 -0.1302 -0.9895
vn -0.1073 -0.0965 -0.9895
vn -0.1361 -0.0481 -0.9895
vn -0.1441 0.0076 -0.9895
vn -0.1302 0.0622 -0.9895
vn -0.0965 0.1073 -0.9895
vn -0.0481 0.1361 -0.9895
vn 0.0076 0.1441 -0.9895
vn 0.0622 0.1302 -0.9895
vn 0.1073 0.0965 -0.9895
vn 0.1361 0.0481 -0.9895
vn 0.1441 -0.0076 -0.9895
vn 0.1302 -0.0622 -0.9895
vn 0.0965 -0.1073 -0.9895
vn 0.0481 -0.1361 -0.9895
vn -0.0000 0.6982 0.7159
vn 0.2672 0.6451 0.7159
vn 0.4937 0.4937 0.7159
vn 0.6451 0.2672 0.7159
vn 0.6982 -0.0000 0.7159
vn 0.6451 -0.2672 0.7159
vn 0.4937 -0.4937 0.7159
vn 0.2672 -0.6451 0.7159
vn -0.0000 -0.6982 0.7159
vn -0.2672 -0.6451 0.7159
vn -0.4937 -0.4937 0.7159
vn -0.6451 -0.2672 0.7159
vn -0.6982 -0.0000 0.7159
vn -0.6451 0.2672 0.7159
vn -0.4937 0.4937 0.7159
vn -0.2672 0.6451 0.7159
vn -0.0565 -0.2772 0.9592
vn -0.0076 -0.1441 0.9895
vn -0.1583 -0.2345 0.9591
vn -0.0622 -0.1302 0.9895
vn -0.2360 -0.1560 0.9592
vn -0.1073 -0.0965 0.9895
vn -0.2777 -0.0539 0.9592
vn -0.1361 -0.0481 0.9895
vn -0.2772 0.0565 0.9591
vn -0.1441 0.0076 0.9895
vn -0.2345 0.1583 0.9591
vn -0.1302 0.0622 0.9895
vn -0.1560 0.2360 0.9592
vn -0.0965 0.1073 0.9895
vn -0.0539 0.2777 0.9592
vn -0.0481 0.1361 0.9895
vn 0.0565 0.2772 0.9592
vn 0.0076 0.1441 0.9895
vn 0.1583 0.2345 0.9592
vn 0.0622 0.1302 0.9895
vn 0.2360 0.1560 0.9592
vn 0.2360 0.1560 0.9591
vn 0.1073 0.0965 0.9895
vn 0.2777 0.0539 0.9592
vn 0.1361 0.0481 0.9895
vn 0.2772 -0.0565 0.9592
vn 0.1441 -0.0076 0.9895
vn 0.2345 -0.1583 0.9592
vn 0.1302 -0.0622 0.9895
vn 0.1561 -0.2360 0.9592
vn 0.0965 -0.1073 0.9895
vn 0.0538 -0.2777 0.9592
vn 0.0481 -0.1361 0.9895
vn -0.0055 0.9793 -0.2025
vn -0.1121 0.9693 -0.2187
vn -0.1493 0.9631 -0.2237
vn 0.2675 0.9384 -0.2187
vn 0.3696 0.9068 -0.2025
vn 0.3748 0.9049 -0.2016
vn 0.6062 0.7647 -0.2187
vn 0.6885 0.6964 -0.2025
vn 0.6926 0.6926 -0.2016
vn 0.8527 0.4745 -0.2187
vn 0.9026 0.3799 -0.2025
vn 0.9049 0.3748 -0.2016
vn 0.9693 0.1120 -0.2187
vn 0.9793 0.0055 -0.2025
vn 0.9795 -0.0000 -0.2016
vn 0.9384 -0.2674 -0.2187
vn 0.9068 -0.3696 -0.2025
vn 0.9049 -0.3748 -0.2016
vn 0.7647 -0.6062 -0.2187
vn 0.6964 -0.6885 -0.2025
vn 0.6926 -0.6926 -0.2016
vn 0.4745 -0.8527 -0.2187
vn 0.3799 -0.9026 -0.2025
vn 0.3748 -0.9049 -0.2016
vn 0.1121 -0.9693 -0.2187
vn 0.0055 -0.9793 -0.2025
vn -0.0000 -0.9795 -0.2016
vn -0.2674 -0.9384 -0.2187
vn -0.3696 -0.9068 -0.2025
vn -0.3748 -0.9049 -0.2016
vn -0.6062 -0.7647 -0.2187
vn -0.6885 -0.6964 -0.2025
vn -0.6926 -0.6926 -0.2016
vn -0.8527 -0.4745 -0.2187
vn -0.9026 -0.3799 -0.2025
vn -0.9049 -0.3748 -0.2016
vn -0.9693 -0.1120 -0.2187
vn -0.9793 -0.0055 -0.2025
vn -0.9795 -0.0000 -0.2016
vn -0.9384 0.2674 -0.2187
vn -0.9068 0.3696 -0.2025
vn -0.9049 0.3748 -0.2016
vn -0.7647 0.6062 -0.2187
vn -0.6964 0.6885 -0.2025
vn -0.6926 0.6926 -0.2016
vn -0.4745 0.8527 -0.2187
vn -0.3799 0.9026 -0.2025
vn -0.3748 0.9049 -0.2016
vn -0.0055 0.9793 0.2025
vn -0.1121 0.9693 0.2187
vn -0.0000 0.9795 0.2016
vn 0.2674 0.9384 0.2187
vn 0.3696 0.9068 0.2025
vn 0.2307 0.9470 0.2237
vn 0.6062 0.7647 0.2187
vn 0.6885 0.6964 0.2025
vn 0.5755 0.7866 0.2237
vn 0.8527 0.4745 0.2187
vn 0.9026 0.3799 0.2025
vn 0.8327 0.5065 0.2237
vn 0.9693 0.1120 0.2187
vn 0.9793 0.0055 0.2025
vn 0.9632 0.1493 0.2237
vn 0.9384 -0.2674 0.2187
vn 0.9068 -0.3696 0.2025
vn 0.9470 -0.2307 0.2237
vn 0.7647 -0.6062 0.2187
vn 0.6964 -0.6885 0.2025
vn 0.7866 -0.5755 0.2237
vn 0.4745 -0.8527 0.2187
vn 0.3799 -0.9026 0.2025
vn 0.5065 -0.8327 0.2237
vn 0.1121 -0.9693 0.2187
vn 0.0055 -0.9793 0.2025
vn 0.1493 -0.9631 0.2237
vn -0.2674 -0.9384 0.2187
vn -0.3696 -0.9068 0.2025
vn -0.2307 -0.9470 0.2237
vn -0.6062 -0.7647 0.2187
vn -0.6885 -0.6964 0.2025
vn -0.5755 -0.7866 0.2237
vn -0.8527 -0.4745 0.2187
vn -0.9026 -0.3799 0.2025
vn -0.8327 -0.5065 0.2237
vn -0.9693 -0.1120 0.2187
vn -0.9793 -0.0055 0.2025
vn -0.9632 -0.1493 0.2237
vn -0.9384 0.2674 0.2187
vn -0.9068 0.3696 0.2025
vn -0.9470 0.2307 0.2237
vn -0.7647 0.6062 0.2186
vn -0.6964 0.6885 0.2025
vn -0.7866 0.5755 0.2237
vn -0.4745 0.8527 0.2187
vn -0.3799 0.9026 0.2025
vn -0.5065 0.8327 0.2237
vn 0.0980 0.9952 -0.0000
vn 0.5777 0.4005 -0.7112
vn 0.5923 0.3566 -0.7225
vn 0.0954 0.9690 -0.2278
vn -0.6466 0.3582 -0.6735
vn -0.6925 0.1896 -0.6960
vn -0.7145 -0.2207 -0.6639
vn -0.0980 0.9952 -0.0000
vn 0.2903 0.9569 -0.0000
vn -0.4603 0.5784 -0.6735
vn -0.5672 0.4402 -0.6960
vn -0.7446 0.0695 -0.6639
vn 0.6870 0.1489 -0.7112
vn 0.6837 0.1028 -0.7225
vn 0.4590 0.8587 -0.2278
vn 0.4714 0.8819 -0.0000
vn 0.6344 0.7730 -0.0000
vn -0.2039 0.7105 -0.6735
vn -0.3556 0.6238 -0.6960
vn -0.6613 0.3492 -0.6639
vn 0.6917 -0.1253 -0.7112
vn 0.6710 -0.1666 -0.7225
vn 0.7527 0.6177 -0.2278
vn 0.7730 0.6344 -0.0000
vn 0.8819 0.4714 -0.0000
vn 0.0835 0.7345 -0.6735
vn -0.0898 0.7124 -0.6960
vn -0.4773 0.5757 -0.6639
vn 0.5911 -0.3805 -0.7112
vn 0.5561 -0.4107 -0.7225
vn 0.9318 0.2827 -0.2278
vn 0.9569 0.2903 -0.0000
vn 0.9952 0.0980 -0.0000
vn 0.3582 0.6466 -0.6735
vn 0.1896 0.6925 -0.6960
vn -0.2207 0.7145 -0.6639
vn 0.4005 -0.5777 -0.7112
vn 0.3566 -0.5923 -0.7225
vn 0.9690 -0.0954 -0.2278
vn 0.9952 -0.0980 -0.0000
vn 0.9569 -0.2903 -0.0000
vn 0.5784 0.4603 -0.6735
vn 0.4402 0.5672 -0.6960
vn 0.0695 0.7446 -0.6639
vn 0.1489 -0.6870 -0.7112
vn 0.1028 -0.6836 -0.7225
vn 0.8587 -0.4590 -0.2278
vn 0.8819 -0.4714 -0.0000
vn 0.7730 -0.6344 -0.0000
vn 0.7105 0.2039 -0.6735
vn 0.6238 0.3556 -0.6960
vn 0.3492 0.6613 -0.6639
vn -0.1253 -0.6917 -0.7112
vn -0.1666 -0.6710 -0.7225
vn 0.6177 -0.7527 -0.2278
vn 0.6344 -0.7730 -0.0000
vn 0.4714 -0.8819 -0.0000
vn 0.7345 -0.0835 -0.6735
vn 0.7124 0.0898 -0.6960
vn 0.5757 0.4773 -0.6639
vn -0.3805 -0.5911 -0.7112
vn -0.4107 -0.5561 -0.7225
vn 0.2827 -0.9318 -0.2278
vn 0.2903 -0.9569 -0.0000
vn 0.0980 -0.9952 -0.0000
vn 0.6466 -0.3582 -0.6735
vn 0.6925 -0.1896 -0.6960
vn 0.7145 0.2207 -0.6639
vn -0.5777 -0.4005 -0.7112
vn -0.5923 -0.3566 -0.7225
vn -0.0954 -0.9690 -0.2278
vn -0.0980 -0.9952 -0.0000
vn -0.2903 -0.9569 -0.0000
vn 0.4603 -0.5784 -0.6735
vn 0.5672 -0.4402 -0.6960
vn 0.7446 -0.0695 -0.6639
vn -0.6870 -0.1489 -0.7112
vn -0.6836 -0.1028 -0.7225
vn -0.4590 -0.8587 -0.2278
vn -0.4714 -0.8819 -0.0000
vn -0.6344 -0.7730 -0.0000
vn 0.2039 -0.7105 -0.6735
vn 0.3556 -0.6238 -0.6960
vn 0.6613 -0.3492 -0.6639
vn -0.6917 0.1253 -0.7112
vn -0.6710 0.1666 -0.7225
vn -0.7527 -0.6177 -0.2278
vn -0.7730 -0.6344 -0.0000
vn -0.8819 -0.4714 -0.0000
vn -0.0835 -0.7345 -0.6735
vn 0.0898 -0.7124 -0.6960
vn 0.4773 -0.5757 -0.6639
vn -0.5911 0.3805 -0.7112
vn -0.5561 0.4107 -0.7225
vn -0.9318 -0.2827 -0.2278
vn -0.9569 -0.2903 -0.0000
vn -0.9952 -0.0980 -0.0000
vn -0.3582 -0.6466 -0.6735
vn -0.1896 -0.6925 -0.6960
vn 0.2207 -0.7145 -0.6639
vn -0.4005 0.5777 -0.7112
vn -0.3566 0.5923 -0.7225
vn -0.9690 0.0954 -0.2278
vn -0.9952 0.0980 -0.0000
vn -0.9569 0.2903 -0.0000
vn -0.5784 -0.4603 -0.6735
vn -0.4402 -0.5672 -0.6960
vn -0.0695 -0.7446 -0.6639
vn -0.1489 0.6870 -0.7112
vn -0.1028 0.6836 -0.7225
vn -0.8587 0.4590 -0.2278
vn -0.8819 0.4714 -0.0000
vn -0.7730 0.6344 -0.0000
vn -0.7105 -0.2039 -0.6735
vn -0.6238 -0.3556 -0.6960
vn -0.3492 -0.6613 -0.6639
vn 0.1253 0.6917 -0.7112
vn 0.1666 0.6710 -0.7225
vn -0.6177 0.7527 -0.2278
vn -0.6344 0.7730 -0.0000
vn -0.4714 0.8819 -0.0000
vn -0.7345 0.0835 -0.6735
vn -0.7124 -0.0898 -0.6960
vn -0.5757 -0.4773 -0.6639
vn 0.3805 0.5911 -0.7112
vn 0.4107 0.5561 -0.7225
vn -0.2827 0.9318 -0.2278
vn -0.2903 0.9569 -0.0000
vn 0.5923 0.3566 0.7225
vn 0.5777 0.4005 0.7112
vn 0.0954 0.9690 0.2278
vn -0.6466 0.3582 0.6735
vn -0.6925 0.1896 0.6960
vn -0.0956 0.9710 0.2192
vn -0.4603 0.5784 0.6735
vn -0.5672 0.4402 0.6960
vn 0.2832 0.9337 0.2192
vn 0.6837 0.1028 0.7225
vn 0.6870 0.1489 0.7112
vn 0.4590 0.8587 0.2278
vn -0.2039 0.7105 0.6735
vn -0.3556 0.6238 0.6960
vn 0.6190 0.7542 0.2192
vn 0.6710 -0.1666 0.7225
vn 0.6917 -0.1253 0.7112
vn 0.7527 0.6177 0.2278
vn 0.0835 0.7345 0.6735
vn -0.0898 0.7124 0.6960
vn 0.8605 0.4599 0.2192
vn 0.5561 -0.4107 0.7225
vn 0.5911 -0.3805 0.7112
vn 0.9318 0.2827 0.2278
vn 0.3582 0.6466 0.6735
vn 0.1896 0.6925 0.6960
vn 0.9710 0.0956 0.2192
vn 0.3566 -0.5923 0.7225
vn 0.4005 -0.5777 0.7112
vn 0.9690 -0.0954 0.2278
vn 0.5784 0.4603 0.6735
vn 0.4402 0.5672 0.6960
vn 0.9337 -0.2832 0.2192
vn 0.1028 -0.6836 0.7225
vn 0.1489 -0.6870 0.7112
vn 0.8587 -0.4590 0.2278
vn 0.7105 0.2039 0.6735
vn 0.6238 0.3556 0.6960
vn 0.7542 -0.6190 0.2192
vn -0.1666 -0.6710 0.7225
vn -0.1253 -0.6917 0.7112
vn 0.6177 -0.7527 0.2278
vn 0.7345 -0.0835 0.6735
vn 0.7124 0.0898 0.6960
vn 0.4599 -0.8605 0.2192
vn -0.4107 -0.5561 0.7225
vn -0.3805 -0.5911 0.7112
vn 0.2827 -0.9318 0.2278
vn 0.6466 -0.3582 0.6735
vn 0.6925 -0.1896 0.6960
vn 0.0956 -0.9710 0.2192
vn -0.5923 -0.3566 0.7225
vn -0.5777 -0.4005 0.7112
vn -0.0954 -0.9690 0.2278
vn 0.4603 -0.5784 0.6735
vn 0.5672 -0.4402 0.6960
vn -0.2832 -0.9337 0.2192
vn -0.6836 -0.1028 0.7225
vn -0.6870 -0.1489 0.7112
vn -0.4590 -0.8587 0.2278
vn 0.2039 -0.7105 0.6735
vn 0.3556 -0.6238 0.6960
vn -0.6190 -0.7542 0.2192
vn -0.6710 0.1666 0.7225
vn -0.6917 0.1253 0.7112
vn -0.7527 -0.6177 0.2278
vn -0.0835 -0.7345 0.6735
vn 0.0898 -0.7124 0.6960
vn -0.8605 -0.4599 0.2192
vn -0.5561 0.4107 0.7225
vn -0.5911 0.3805 0.7112
vn -0.9318 -0.2827 0.2278
vn -0.3582 -0.6466 0.6735
vn -0.1896 -0.6925 0.6960
vn -0.9710 -0.0956 0.2192
vn -0.3566 0.5923 0.7225
vn -0.4005 0.5777 0.7112
vn -0.9690 0.0954 0.2278
vn -0.5784 -0.4603 0.6735
vn -0.4402 -0.5672 0.6960
vn -0.9337 0.2832 0.2192
vn -0.1028 0.6836 0.7225
vn -0.1489 0.6870 0.7112
vn -0.8587 0.4590 0.2278
vn -0.7105 -0.2039 0.6735
vn -0.6238 -0.3556 0.6960
vn -0.7542 0.6190 0.2192
vn 0.1666 0.6710 0.7225
vn 0.1253 0.6917 0.7112
vn -0.6177 0.7527 0.2278
vn -0.7345 0.0835 0.6735
vn -0.7124 -0.0898 0.6960
vn -0.4599 0.8605 0.2192
vn 0.4107 0.5561 0.7225
vn 0.3805 0.5911 0.7112
vn -0.2827 0.9318 0.2278
vn -0.9927 0.1210 -0.0000
vn 0.1210 0.9927 -0.0000
vn 0.9927 -0.1210 -0.0000
vn 0.7446 -0.6675 -0.0000
vn -0.8832 -0.4691 -0.0000
vn 0.9927 0.1210 -0.0000
vn -0.1210 0.9927 -0.0000
vn -0.9927 -0.1210 -0.0000
vn -0.7446 -0.6675 -0.0000
vn 0.8832 -0.4691 -0.0000
vn -0.0565 -0.2772 -0.9592
vn -0.1583 -0.2345 -0.9592
vn -0.2360 -0.1560 -0.9592
vn -0.2777 -0.0539 -0.9592
vn -0.2772 0.0565 -0.9591
vn -0.2345 0.1583 -0.9591
vn -0.1560 0.2360 -0.9592
vn -0.0539 0.2777 -0.9592
vn 0.0565 0.2772 -0.9592
vn 0.1583 0.2345 -0.9592
vn 0.2360 0.1560 -0.9592
vn 0.2777 0.0539 -0.9592
vn 0.2772 -0.0565 -0.9591
vn 0.2345 -0.1583 -0.9591
vn 0.1560 -0.2360 -0.9592
vn 0.0539 -0.2777 -0.9592
vn -0.0000 0.9795 -0.2016
vn 0.2307 0.9469 -0.2237
vn 0.5755 0.7866 -0.2237
vn 0.8327 0.5065 -0.2237
vn 0.9632 0.1493 -0.2237
vn 0.9470 -0.2307 -0.2237
vn 0.7866 -0.5755 -0.2237
vn 0.5065 -0.8327 -0.2237
vn 0.1493 -0.9631 -0.2237
vn -0.2307 -0.9470 -0.2237
vn -0.5755 -0.7866 -0.2237
vn -0.8327 -0.5065 -0.2237
vn -0.9632 -0.1493 -0.2237
vn -0.9470 0.2307 -0.2237
vn -0.7866 0.5755 -0.2237
vn -0.5065 0.8327 -0.2237
vn -0.1493 0.9631 0.2237
vn 0.3748 0.9049 0.2016
vn 0.6926 0.6926 0.2016
vn 0.9049 0.3748 0.2016
vn 0.9795 -0.0000 0.2016
vn 0.9049 -0.3748 0.2016
vn 0.6926 -0.6926 0.2016
vn 0.3748 -0.9049 0.2016
vn -0.0000 -0.9795 0.2016
vn -0.3748 -0.9049 0.2016
vn -0.6926 -0.6926 0.2016
vn -0.9049 -0.3748 0.2016
vn -0.9795 -0.0000 0.2016
vn -0.9049 0.3748 0.2016
vn -0.6926 0.6926 0.2016
vn -0.3748 0.9049 0.2016
vn 0.6581 -0.0129 -0.7528
vn -0.0956 0.9710 -0.2192
vn 0.2832 0.9337 -0.2192
vn 0.6031 -0.2637 -0.7528
vn 0.6190 0.7542 -0.2192
vn 0.4562 -0.4744 -0.7528
vn 0.8605 0.4599 -0.2192
vn 0.2400 -0.6129 -0.7528
vn 0.9710 0.0956 -0.2192
vn -0.0129 -0.6581 -0.7528
vn 0.9337 -0.2832 -0.2192
vn -0.2637 -0.6031 -0.7528
vn 0.7542 -0.6190 -0.2192
vn -0.4744 -0.4562 -0.7528
vn 0.4599 -0.8605 -0.2192
vn -0.6129 -0.2400 -0.7528
vn 0.0956 -0.9710 -0.2192
vn -0.6581 0.0129 -0.7528
vn -0.2832 -0.9337 -0.2192
vn -0.6031 0.2637 -0.7528
vn -0.6190 -0.7542 -0.2192
vn -0.4562 0.4744 -0.7528
vn -0.8605 -0.4599 -0.2192
vn -0.2400 0.6129 -0.7528
vn -0.9710 -0.0956 -0.2192
vn 0.0129 0.6581 -0.7528
vn -0.9337 0.2832 -0.2192
vn 0.2637 0.6031 -0.7528
vn -0.7542 0.6190 -0.2192
vn 0.4744 0.4562 -0.7528
vn -0.4599 0.8605 -0.2192
vn 0.6129 0.2400 -0.7528
vn 0.6581 -0.0129 0.7528
vn -0.7145 -0.2207 0.6639
vn -0.7446 0.0695 0.6639
vn 0.6031 -0.2637 0.7528
vn -0.6613 0.3492 0.6639
vn 0.4562 -0.4744 0.7528
vn -0.4773 0.5757 0.6639
vn 0.2400 -0.6129 0.7528
vn -0.2207 0.7145 0.6639
vn -0.0129 -0.6581 0.7528
vn 0.0695 0.7446 0.6639
vn -0.2637 -0.6031 0.7528
vn 0.3492 0.6613 0.6639
vn -0.4744 -0.4562 0.7528
vn 0.5757 0.4773 0.6639
vn -0.6129 -0.2400 0.7528
vn 0.7145 0.2207 0.6639
vn -0.6581 0.0129 0.7528
vn 0.7446 -0.0695 0.6639
vn -0.6031 0.2637 0.7528
vn 0.6613 -0.3492 0.6639
vn -0.4562 0.4744 0.7528
vn 0.4773 -0.5757 0.6639
vn -0.2400 0.6129 0.7528
vn 0.2207 -0.7145 0.6639
vn 0.0129 0.6581 0.7528
vn -0.0695 -0.7446 0.6639
vn 0.2637 0.6031 0.7528
vn -0.3492 -0.6613 0.6639
vn 0.4744 0.4562 0.7528
vn -0.5757 -0.4773 0.6639
vn 0.6129 0.2400 0.7528
vt 0.500000 0.985253
vt 0.594668 0.975929
vt 0.685698 0.948316
vt 0.769592 0.903473
vt 0.843126 0.843126
vt 0.903473 0.769592
vt 0.948316 0.685698
vt 0.975929 0.594668
vt 0.985253 0.500000
vt 0.975929 0.405332
vt 0.948316 0.314302
vt 0.903473 0.230408
vt 0.843126 0.156874
vt 0.769592 0.096527
vt 0.685698 0.051684
vt 0.594668 0.024071
vt 0.500000 0.014747
vt 0.405332 0.024071
vt 0.314302 0.051684
vt 0.230408 0.096527
vt 0.156874 0.156874
vt 0.096527 0.230408
vt 0.051684 0.314302
vt 0.024071 0.405332
vt 0.014747 0.500000
vt 0.024071 0.594668
vt 0.051684 0.685698
vt 0.096527 0.769592
vt 0.156874 0.843126
vt 0.230408 0.903473
vt 0.314302 0.948316
vt 0.405332 0.975929
vt 0.250000 0.078309
vt 0.078309 0.250000
vt 0.250000 0.421691
vt 0.703178 0.014612
vt 0.985388 0.203178
vt 0.796822 0.485388
vt 0.184297 0.091378
vt 0.408622 0.184297
vt 0.315703 0.408622
vt 0.796822 0.014612
vt 0.514612 0.203178
vt 0.703178 0.485388
vt 0.006744 0.500000
vt 0.000000 0.500000
vt 0.944244 0.500000
vt 0.937500 0.500000
vt 0.932925 0.500549
vt 0.881744 0.500000
vt 0.875000 0.500000
vt 0.870425 0.500549
vt 0.819244 0.500000
vt 0.812500 0.500000
vt 0.807925 0.500549
vt 0.756744 0.500000
vt 0.750000 0.500000
vt 0.745425 0.500549
vt 0.694244 0.500000
vt 0.687500 0.500000
vt 0.682925 0.500549
vt 0.631744 0.500000
vt 0.625000 0.500000
vt 0.620425 0.500549
vt 0.569244 0.500000
vt 0.562500 0.500000
vt 0.557925 0.500549
vt 0.506744 0.500000
vt 0.500000 0.500000
vt 0.495425 0.500549
vt 0.444244 0.500000
vt 0.437500 0.500000
vt 0.432925 0.500549
vt 0.381744 0.500000
vt 0.375000 0.500000
vt 0.370425 0.500549
vt 0.319244 0.500000
vt 0.312500 0.500000
vt 0.307925 0.500549
vt 0.256744 0.500000
vt 0.250000 0.500000
vt 0.245425 0.500549
vt 0.194244 0.500000
vt 0.187500 0.500000
vt 0.182925 0.500549
vt 0.131744 0.500000
vt 0.125000 0.500000
vt 0.120425 0.500549
vt 0.069244 0.500000
vt 0.062500 0.500000
vt 0.057925 0.500549
vt 0.283495 0.418392
vt 0.203178 0.485388
vt 0.345387 0.392756
vt 0.296822 0.485388
vt 0.392756 0.345387
vt 0.371404 0.371404
vt 0.383337 0.449553
vt 0.418392 0.283495
vt 0.408622 0.315703
vt 0.449553 0.383337
vt 0.418392 0.216505
vt 0.421691 0.250000
vt 0.485388 0.296822
vt 0.392756 0.154613
vt 0.485388 0.203178
vt 0.345387 0.107244
vt 0.371404 0.128596
vt 0.449553 0.116663
vt 0.283495 0.081608
vt 0.315703 0.091378
vt 0.383337 0.050447
vt 0.216505 0.081608
vt 0.296822 0.014612
vt 0.154613 0.107244
vt 0.203178 0.014612
vt 0.107244 0.154613
vt 0.128596 0.128596
vt 0.116663 0.050447
vt 0.081608 0.216505
vt 0.091378 0.184297
vt 0.050447 0.116663
vt 0.081608 0.283495
vt 0.014612 0.203178
vt 0.107244 0.345387
vt 0.091378 0.315703
vt 0.014612 0.296822
vt 0.154613 0.392756
vt 0.128596 0.371404
vt 0.050447 0.383337
vt 0.216505 0.418392
vt 0.184297 0.408622
vt 0.116663 0.449553
vt 0.006744 0.500000
vt 0.930756 0.500000
vt 0.942859 0.499257
vt 0.868256 0.500000
vt 0.880359 0.499257
vt 0.805756 0.500000
vt 0.817859 0.499257
vt 0.743256 0.500000
vt 0.755359 0.499257
vt 0.680756 0.500000
vt 0.692859 0.499257
vt 0.618256 0.500000
vt 0.630359 0.499257
vt 0.555756 0.500000
vt 0.567859 0.499257
vt 0.493256 0.500000
vt 0.505359 0.499257
vt 0.430756 0.500000
vt 0.442859 0.499257
vt 0.368256 0.500000
vt 0.380359 0.499257
vt 0.305756 0.500000
vt 0.317859 0.499257
vt 0.243256 0.500000
vt 0.255359 0.499257
vt 0.180756 0.500000
vt 0.192859 0.499257
vt 0.118256 0.500000
vt 0.130359 0.499257
vt 0.055756 0.500000
vt 0.067859 0.499257
vt 0.253078 0.489697
vt 0.248505 0.487668
vt 0.344572 0.470273
vt 0.339570 0.470148
vt 0.421668 0.417315
vt 0.416999 0.419113
vt 0.472629 0.338884
vt 0.469004 0.342333
vt 0.489697 0.246922
vt 0.487668 0.251495
vt 0.470273 0.155428
vt 0.470148 0.160430
vt 0.417315 0.078332
vt 0.419113 0.083001
vt 0.338884 0.027371
vt 0.342333 0.030996
vt 0.246922 0.010303
vt 0.251495 0.012332
vt 0.155428 0.029727
vt 0.160430 0.029852
vt 0.078332 0.082685
vt 0.083001 0.080887
vt 0.027371 0.161116
vt 0.030996 0.157667
vt 0.010303 0.253078
vt 0.012332 0.248505
vt 0.029727 0.344572
vt 0.029852 0.339570
vt 0.082685 0.421668
vt 0.080887 0.416999
vt 0.161116 0.472629
vt 0.157667 0.469004
vt 0.000000 0.970869
vt 0.002236 1.000000
vt 0.935446 1.000000
vt 0.872946 1.000000
vt 0.810446 1.000000
vt 0.747946 1.000000
vt 0.685446 1.000000
vt 0.622946 1.000000
vt 0.560446 1.000000
vt 0.497946 1.000000
vt 0.435446 1.000000
vt 0.372946 1.000000
vt 0.310446 1.000000
vt 0.247946 1.000000
vt 0.185446 1.000000
vt 0.122946 1.000000
vt 0.060446 1.000000
vt 0.000000 0.970869
vt 0.939736 1.000000
vt 0.872946 1.000000
vt 0.877236 1.000000
vt 0.810446 1.000000
vt 0.814736 1.000000
vt 0.747946 1.000000
vt 0.752236 1.000000
vt 0.685446 1.000000
vt 0.689736 1.000000
vt 0.622946 1.000000
vt 0.627236 1.000000
vt 0.564736 1.000000
vt 0.502236 1.000000
vt 0.435446 1.000000
vt 0.439736 1.000000
vt 0.377236 1.000000
vt 0.310446 1.000000
vt 0.314736 1.000000
vt 0.252236 1.000000
vt 0.189736 1.000000
vt 0.127236 1.000000
vt 0.060446 1.000000
vt 0.064736 1.000000
vt 0.968750 0.500000
vt 0.993256 0.500000
vt 0.997946 1.000000
vt 0.031250 0.500000
vt 0.031250 1.000000
vt 0.968750 1.000000
vt 0.906250 0.500000
vt 0.906250 1.000000
vt 0.843750 0.500000
vt 0.814736 1.000000
vt 0.843750 1.000000
vt 0.781250 0.500000
vt 0.781250 1.000000
vt 0.718750 0.500000
vt 0.718750 1.000000
vt 0.656250 0.500000
vt 0.656250 1.000000
vt 0.593750 0.500000
vt 0.593750 1.000000
vt 0.531250 0.500000
vt 0.531250 1.000000
vt 0.468750 0.500000
vt 0.439736 1.000000
vt 0.468750 1.000000
vt 0.406250 0.500000
vt 0.406250 1.000000
vt 0.343750 0.500000
vt 0.343750 1.000000
vt 0.281250 0.500000
vt 0.281250 1.000000
vt 0.218750 0.500000
vt 0.189736 1.000000
vt 0.218750 1.000000
vt 0.156250 0.500000
vt 0.127236 1.000000
vt 0.156250 1.000000
vt 0.093750 0.500000
vt 0.093750 1.000000
vt 1.000000 0.500000
vt 0.625000 0.000000
vt 0.375000 0.250000
vt 0.375000 0.000000
vt 0.625000 0.375000
vt 0.375000 0.375000
vt 0.375000 0.750000
vt 0.625000 0.875000
vt 0.375000 1.000000
vt 0.375000 0.875000
vt 0.250000 0.750000
vt 0.750000 0.750000
vt 0.625000 0.750000
vt 0.125000 0.750000
vt 0.625000 0.250000
vt 0.750000 0.490000
vt 0.658156 0.471731
vt 0.616663 0.449553
vt 0.580294 0.419706
vt 0.550447 0.383337
vt 0.528269 0.341844
vt 0.514612 0.296822
vt 0.510000 0.250000
vt 0.528269 0.158156
vt 0.550447 0.116663
vt 0.580294 0.080294
vt 0.616663 0.050447
vt 0.658156 0.028269
vt 0.750000 0.010000
vt 0.841844 0.028269
vt 0.883337 0.050447
vt 0.919706 0.080294
vt 0.949553 0.116663
vt 0.971731 0.158156
vt 0.990000 0.250000
vt 0.985388 0.296822
vt 0.971731 0.341844
vt 0.949553 0.383337
vt 0.919706 0.419706
vt 0.883337 0.449553
vt 0.841844 0.471731
vt 0.339570 0.470148
vt 0.472629 0.338884
vt 0.470148 0.160430
vt 0.470273 0.155428
vt 0.342333 0.030996
vt 0.338884 0.027371
vt 0.251495 0.012332
vt 0.246922 0.010303
vt 0.160430 0.029852
vt 0.155428 0.029727
vt 0.030996 0.157667
vt 0.027371 0.161116
vt 0.012332 0.248505
vt 0.010303 0.253078
vt 0.029852 0.339570
vt 0.029727 0.344572
vt 0.157667 0.469004
vt 0.161116 0.472629
vt 0.625000 1.000000
vt 0.875000 0.750000
s 1
usemtl マテリアル.002
f 2/1/1 3/2/2 1/1/1
f 4/2/2 5/3/3 3/2/2
f 5/3/3 8/4/4 7/4/4
f 8/4/4 9/5/5 7/4/4
f 10/5/5 11/6/6 9/5/5
f 12/6/6 13/7/7 11/6/6
f 13/7/7 16/8/8 15/8/8
f 16/8/8 17/9/9 15/8/8
f 18/9/9 19/10/10 17/9/9
f 19/10/10 22/11/11 21/11/11
f 22/11/11 23/12/12 21/11/11
f 24/12/12 25/13/13 23/12/12
f 26/13/13 27/14/14 25/13/13
f 27/14/14 30/15/15 29/15/15
f 30/15/15 31/16/16 29/15/15
f 32/16/16 33/17/17 31/16/16
f 34/17/17 35/18/18 33/17/17
f 36/18/18 37/19/19 35/18/18
f 38/19/19 39/20/20 37/19/19
f 40/20/20 41/21/21 39/20/20
f 42/21/21 43/22/22 41/21/21
f 44/22/22 45/23/23 43/22/22
f 46/23/23 47/24/24 45/23/23
f 48/24/24 49/25/25 47/24/24
f 50/25/25 51/26/26 49/25/25
f 52/26/26 53/27/27 51/26/26
f 54/27/27 55/28/28 53/27/27
f 56/28/28 57/29/29 55/28/28
f 58/29/29 59/30/30 57/29/29
f 60/30/30 61/31/31 59/30/30
f 6/3/32 54/27/32 38/19/32
f 62/31/31 63/32/33 61/31/31
f 64/32/33 1/1/1 63/32/33
f 31/16/34 47/24/34 63/32/34
f 2/1/1 4/2/2 3/2/2
f 4/2/2 6/3/3 5/3/3
f 5/3/3 6/3/3 8/4/4
f 8/4/4 10/5/5 9/5/5
f 10/5/5 12/6/6 11/6/6
f 12/6/6 14/7/7 13/7/7
f 13/7/7 14/7/7 16/8/8
f 16/8/8 18/9/9 17/9/9
f 18/9/9 20/10/10 19/10/10
f 19/10/10 20/10/10 22/11/11
f 22/11/11 24/12/12 23/12/12
f 24/12/12 26/13/13 25/13/13
f 26/13/13 28/14/14 27/14/14
f 27/14/14 28/14/14 30/15/15
f 30/15/15 32/16/16 31/16/16
f 32/16/16 34/17/17 33/17/17
f 34/17/17 36/18/18 35/18/18
f 36/18/18 38/19/19 37/19/19
f 38/19/19 40/20/20 39/20/20
f 40/20/20 42/21/21 41/21/21
f 42/21/21 44/22/22 43/22/22
f 44/22/22 46/23/23 45/23/23
f 46/23/23 48/24/24 47/24/24
f 48/24/24 50/25/25 49/25/25
f 50/25/25 52/26/26 51/26/26
f 52/26/26 54/27/27 53/27/27
f 54/27/27 56/28/28 55/28/28
f 56/28/28 58/29/29 57/29/29
f 58/29/29 60/30/30 59/30/30
f 60/30/30 62/31/31 61/31/31
f 6/3/32 4/2/32 2/1/32
f 2/1/32 64/32/32 62/31/32
f 62/31/32 60/30/32 58/29/32
f 58/29/32 56/28/32 62/31/32
f 56/28/32 54/27/32 62/31/32
f 54/27/32 52/26/32 50/25/32
f 50/25/32 48/24/32 54/27/32
f 48/24/32 46/23/32 54/27/32
f 46/23/32 44/22/32 42/21/32
f 42/21/32 40/20/32 38/19/32
f 38/19/32 36/18/32 34/17/32
f 34/17/32 32/16/32 30/15/32
f 30/15/32 28/14/32 26/13/32
f 26/13/32 24/12/32 22/11/32
f 22/11/32 20/10/32 18/9/32
f 18/9/32 16/8/32 22/11/32
f 16/8/32 14/7/32 22/11/32
f 14/7/32 12/6/32 6/3/32
f 12/6/32 10/5/32 6/3/32
f 10/5/32 8/4/32 6/3/32
f 6/3/32 2/1/32 62/31/32
f 46/23/32 42/21/32 38/19/32
f 38/19/32 34/17/32 30/15/32
f 30/15/32 26/13/32 22/11/32
f 6/3/32 62/31/32 54/27/32
f 54/27/32 46/23/32 38/19/32
f 38/19/32 30/15/32 6/3/32
f 30/15/32 22/11/32 6/3/32
f 22/11/32 14/7/32 6/3/32
f 62/31/31 64/32/33 63/32/33
f 64/32/33 2/1/1 1/1/1
f 63/32/34 1/1/34 3/2/34
f 3/2/34 5/3/34 63/32/34
f 5/3/34 7/4/34 63/32/34
f 7/4/34 9/5/34 11/6/34
f 11/6/34 13/7/34 15/8/34
f 15/8/34 17/9/34 19/10/34
f 19/10/34 21/11/34 23/12/34
f 23/12/34 25/13/34 27/14/34
f 27/14/34 29/15/34 23/12/34
f 29/15/34 31/16/34 23/12/34
f 31/16/34 33/17/34 39/20/34
f 33/17/34 35/18/34 39/20/34
f 35/18/34 37/19/34 39/20/34
f 39/20/34 41/21/34 47/24/34
f 41/21/34 43/22/34 47/24/34
f 43/22/34 45/23/34 47/24/34
f 47/24/34 49/25/34 51/26/34
f 51/26/34 53/27/34 55/28/34
f 55/28/34 57/29/34 59/30/34
f 59/30/34 61/31/34 55/28/34
f 61/31/34 63/32/34 55/28/34
f 7/4/34 11/6/34 63/32/34
f 11/6/34 15/8/34 63/32/34
f 15/8/34 19/10/34 31/16/34
f 19/10/34 23/12/34 31/16/34
f 47/24/34 51/26/34 55/28/34
f 31/16/34 39/20/34 47/24/34
f 47/24/34 55/28/34 63/32/34
f 63/32/34 15/8/34 31/16/34
usemtl マテリアル
f 89/33/34 101/34/34 65/35/34
f 146/36/32 138/37/32 130/38/32
f 188/39/32 176/40/32 164/41/32
f 240/42/34 248/43/34 256/44/34
f 257/45/35 259/46/35 258/46/35
f 260/47/36 262/48/36 261/49/36
f 263/50/37 265/51/37 264/52/37
f 266/53/38 268/54/38 267/55/38
f 269/56/39 271/57/39 270/58/39
f 272/59/40 274/60/40 273/61/40
f 275/62/41 277/63/41 276/64/41
f 278/65/42 280/66/42 279/67/42
f 281/68/43 283/69/43 282/70/43
f 284/71/44 286/72/44 285/73/44
f 287/74/45 289/75/45 288/76/45
f 290/77/46 292/78/46 291/79/46
f 293/80/47 295/81/47 294/82/47
f 296/83/48 298/84/48 297/85/48
f 299/86/49 301/87/49 300/88/49
f 302/89/50 304/90/50 303/91/50
f 67/92/34 65/35/34 128/93/51
f 70/94/34 68/41/34 113/95/52
f 73/96/34 71/97/34 114/98/53
f 76/99/34 74/100/34 115/101/54
f 79/102/34 77/103/34 116/104/55
f 82/105/34 80/40/34 117/106/56
f 85/107/34 83/108/34 118/109/57
f 88/110/34 86/111/34 119/112/58
f 91/113/34 89/33/34 120/114/59
f 94/115/34 92/39/34 121/116/60
f 97/117/34 95/118/34 122/119/61
f 100/120/34 98/121/34 123/122/62
f 103/123/34 101/34/34 124/124/63
f 106/125/34 104/126/34 125/127/64
f 109/128/34 107/129/34 126/130/65
f 112/131/34 110/132/34 127/133/66
f 337/46/67 339/46/67 338/134/67
f 340/135/68 342/48/68 341/136/68
f 343/137/69 345/51/69 344/138/69
f 346/139/70 348/54/70 347/140/70
f 349/141/71 351/57/71 350/142/71
f 352/143/72 354/60/72 353/144/72
f 355/145/73 357/63/73 356/146/73
f 358/147/74 360/66/74 359/148/74
f 361/149/75 363/69/75 362/150/75
f 364/151/76 366/72/76 365/152/76
f 367/153/77 369/75/77 368/154/77
f 370/155/78 372/78/78 371/156/78
f 373/157/79 375/81/79 374/158/79
f 376/159/80 378/84/80 377/160/80
f 379/161/81 381/87/81 380/162/81
f 382/163/82 384/90/82 383/164/82
f 386/165/83 385/166/83 224/93/84
f 388/167/85 387/168/85 209/95/86
f 390/169/87 389/170/87 210/98/88
f 392/171/89 391/172/89 211/101/90
f 394/173/91 393/174/91 212/104/92
f 396/175/93 395/176/93 213/106/94
f 398/177/95 397/178/95 214/109/96
f 400/179/97 399/180/97 215/112/98
f 402/181/99 401/182/99 216/114/100
f 404/183/101 403/184/101 217/116/102
f 406/185/103 405/186/104 218/119/105
f 408/187/106 407/188/106 219/122/107
f 410/189/108 409/190/108 220/124/109
f 412/191/110 411/192/110 221/127/111
f 414/193/112 413/194/112 222/130/113
f 416/195/114 415/196/114 223/133/115
f 257/45/116 305/197/117 306/198/118
f 307/199/119 260/47/120 261/49/121
f 309/200/122 263/50/123 264/52/124
f 311/201/125 266/53/126 267/55/127
f 313/202/128 269/56/129 270/58/130
f 315/203/131 272/59/132 273/61/133
f 317/204/134 275/62/135 276/64/136
f 319/205/137 278/65/138 279/67/139
f 321/206/140 281/68/141 282/70/142
f 323/207/143 284/71/144 285/73/145
f 325/208/146 287/74/147 288/76/148
f 327/209/149 290/77/150 291/79/151
f 329/210/152 293/80/153 294/82/154
f 331/211/155 296/83/156 297/85/157
f 333/212/158 299/86/159 300/88/160
f 335/213/161 302/89/162 303/91/163
f 338/134/164 386/214/165 337/46/166
f 388/199/167 341/136/168 387/215/169
f 390/216/170 344/138/171 389/217/172
f 392/218/173 347/140/174 391/219/175
f 394/220/176 350/142/177 393/221/178
f 396/222/179 353/144/180 395/223/181
f 398/224/182 356/146/183 397/225/184
f 400/205/185 359/148/186 399/226/187
f 402/206/188 362/150/189 401/227/190
f 404/228/191 365/152/192 403/229/193
f 406/208/194 368/154/195 405/230/196
f 408/231/197 371/156/198 407/232/199
f 410/210/200 374/158/201 409/233/202
f 412/211/203 377/160/204 411/234/205
f 414/212/206 380/162/207 413/235/208
f 416/236/209 383/164/210 415/237/211
f 130/238/2 66/238/2 258/239/212
f 66/238/213 305/240/214 258/239/215
f 111/241/216 306/198/217 128/242/218
f 129/46/1 259/46/1 257/45/219
f 131/48/3 262/48/3 260/47/220
f 66/238/221 308/215/222 113/243/223
f 69/244/224 307/199/225 261/49/226
f 132/244/4 69/244/4 261/49/227
f 133/51/5 265/51/5 263/50/228
f 69/244/229 310/217/230 114/245/231
f 72/246/232 309/200/233 264/52/234
f 134/246/6 72/246/6 264/52/235
f 135/54/7 268/54/7 266/53/236
f 72/246/237 312/247/238 115/248/239
f 75/249/240 311/201/241 267/55/242
f 136/249/8 75/249/8 267/55/243
f 137/57/9 271/57/9 269/56/244
f 75/249/245 314/221/246 116/250/247
f 78/251/248 313/202/249 270/58/250
f 138/251/10 78/251/10 270/58/251
f 139/60/11 274/60/11 272/59/252
f 78/251/253 316/223/254 117/252/255
f 81/253/256 315/203/257 273/61/258
f 140/253/12 81/253/12 273/61/259
f 141/63/13 277/63/13 275/62/260
f 81/253/261 318/225/262 118/254/263
f 84/255/264 317/204/265 276/64/266
f 142/255/14 84/255/14 276/64/267
f 143/66/15 280/66/15 278/65/268
f 84/255/269 320/226/270 119/256/271
f 87/257/272 319/205/273 279/67/274
f 144/257/16 87/257/16 279/67/275
f 145/69/17 283/69/17 281/68/276
f 87/257/277 322/227/278 120/258/279
f 90/259/280 321/206/281 282/70/282
f 146/259/18 90/259/18 282/70/283
f 147/72/19 286/72/19 284/71/284
f 90/259/285 324/260/286 121/261/287
f 93/262/288 323/207/289 285/73/290
f 148/262/20 93/262/20 285/73/291
f 149/75/21 289/75/21 287/74/292
f 93/262/293 326/230/294 122/263/295
f 96/264/296 325/208/297 288/76/298
f 150/264/22 96/264/22 288/76/299
f 151/78/23 292/78/23 290/77/300
f 96/264/301 328/232/302 123/265/303
f 99/266/304 327/209/305 291/79/306
f 152/266/24 99/266/24 291/79/307
f 153/81/25 295/81/25 293/80/308
f 99/266/309 330/233/310 124/267/311
f 102/268/312 329/210/313 294/82/314
f 154/268/26 102/268/26 294/82/315
f 155/84/27 298/84/27 296/83/316
f 102/268/317 332/269/318 125/270/319
f 105/271/320 331/211/321 297/85/322
f 156/271/28 105/271/28 297/85/323
f 157/87/29 301/87/29 299/86/324
f 105/271/325 334/272/326 126/273/327
f 108/274/328 333/212/329 300/88/330
f 158/274/30 108/274/30 300/88/331
f 159/90/31 304/90/31 302/89/332
f 108/274/333 336/237/334 127/275/335
f 111/241/336 335/213/337 303/91/338
f 160/241/33 111/241/33 303/91/339
f 225/276/1 337/239/212 226/238/2
f 386/240/340 162/238/341 337/239/342
f 207/241/343 385/198/344 338/134/345
f 338/134/219 225/46/1 256/241/33
f 341/136/220 227/48/3 226/238/2
f 162/238/346 387/215/347 341/136/348
f 388/199/349 165/244/350 340/135/351
f 227/48/3 340/135/227 228/244/4
f 344/138/228 229/51/5 228/244/4
f 165/244/352 389/217/353 344/138/354
f 390/216/355 168/246/356 343/137/357
f 229/51/5 343/137/235 230/246/6
f 347/140/236 231/54/7 230/246/6
f 168/246/358 391/219/359 347/140/360
f 392/218/361 171/249/362 346/139/363
f 231/54/7 346/139/243 232/249/8
f 350/142/244 233/57/9 232/249/8
f 171/249/364 393/221/365 350/142/366
f 394/220/367 174/251/368 349/141/369
f 233/57/9 349/141/251 234/251/10
f 353/144/252 235/60/11 234/251/10
f 174/251/370 395/223/371 353/144/372
f 396/222/373 177/253/374 352/143/375
f 235/60/11 352/143/259 236/253/12
f 356/146/260 237/63/13 236/253/12
f 177/253/376 397/225/377 356/146/378
f 398/224/379 180/255/380 355/145/381
f 237/63/13 355/145/267 238/255/14
f 359/148/268 239/66/15 238/255/14
f 180/255/382 399/226/383 359/148/384
f 400/205/385 183/257/386 358/147/387
f 239/66/15 358/147/275 240/257/16
f 362/150/276 241/69/17 240/257/16
f 183/257/388 401/227/389 362/150/390
f 402/206/391 186/259/392 361/149/393
f 241/69/17 361/149/283 242/259/18
f 365/152/284 243/72/19 242/259/18
f 186/259/394 403/229/395 365/152/396
f 404/228/397 189/262/398 364/151/399
f 243/72/19 364/151/291 244/262/20
f 368/154/292 245/75/21 244/262/20
f 189/262/400 405/230/401 368/154/402
f 406/208/403 192/264/404 367/153/405
f 245/75/21 367/153/299 246/264/22
f 371/156/300 247/78/23 246/264/22
f 192/264/406 407/232/407 371/156/408
f 408/231/409 195/266/410 370/155/411
f 247/78/23 370/155/307 248/266/24
f 374/158/308 249/81/25 248/266/24
f 195/266/412 409/233/413 374/158/414
f 410/210/415 198/268/416 373/157/417
f 249/81/25 373/157/315 250/268/26
f 377/160/316 251/84/27 250/268/26
f 198/268/418 411/234/419 377/160/420
f 412/211/421 201/271/422 376/159/423
f 251/84/27 376/159/323 252/271/28
f 380/162/324 253/87/29 252/271/28
f 201/271/424 413/235/425 380/162/426
f 414/212/427 204/274/428 379/161/429
f 253/87/29 379/161/331 254/274/30
f 383/164/332 255/90/31 254/274/30
f 204/274/430 415/237/431 383/164/432
f 416/236/433 207/241/434 382/163/435
f 255/90/31 382/163/339 256/241/33
f 65/35/34 67/92/34 68/41/34
f 68/41/34 70/94/34 71/97/34
f 71/97/34 73/96/34 74/100/34
f 74/100/34 76/99/34 71/97/34
f 76/99/34 77/103/34 71/97/34
f 77/103/34 79/102/34 83/108/34
f 79/102/34 80/40/34 83/108/34
f 80/40/34 82/105/34 83/108/34
f 83/108/34 85/107/34 89/33/34
f 85/107/34 86/111/34 89/33/34
f 86/111/34 88/110/34 89/33/34
f 89/33/34 91/113/34 92/39/34
f 92/39/34 94/115/34 89/33/34
f 94/115/34 95/118/34 89/33/34
f 95/118/34 97/117/34 98/121/34
f 98/121/34 100/120/34 95/118/34
f 100/120/34 101/34/34 95/118/34
f 101/34/34 103/123/34 104/126/34
f 104/126/34 106/125/34 101/34/34
f 106/125/34 107/129/34 101/34/34
f 107/129/34 109/128/34 110/132/34
f 110/132/34 112/131/34 65/35/34
f 65/35/34 68/41/34 77/103/34
f 68/41/34 71/97/34 77/103/34
f 107/129/34 110/132/34 101/34/34
f 110/132/34 65/35/34 101/34/34
f 77/103/34 83/108/34 89/33/34
f 89/33/34 95/118/34 101/34/34
f 65/35/34 77/103/34 89/33/34
f 130/38/32 129/291/32 160/44/32
f 160/44/32 159/292/32 158/293/32
f 158/293/32 157/294/32 156/295/32
f 156/295/32 155/296/32 158/293/32
f 155/296/32 154/297/32 158/293/32
f 154/297/32 153/298/32 152/43/32
f 152/43/32 151/299/32 154/297/32
f 151/299/32 150/300/32 154/297/32
f 150/300/32 149/301/32 146/36/32
f 149/301/32 148/302/32 146/36/32
f 148/302/32 147/303/32 146/36/32
f 146/36/32 145/304/32 144/42/32
f 144/42/32 143/305/32 142/306/32
f 142/306/32 141/307/32 140/308/32
f 140/308/32 139/309/32 142/306/32
f 139/309/32 138/37/32 142/306/32
f 138/37/32 137/310/32 136/311/32
f 136/311/32 135/312/32 134/313/32
f 134/313/32 133/314/32 130/38/32
f 133/314/32 132/315/32 130/38/32
f 132/315/32 131/316/32 130/38/32
f 130/38/32 160/44/32 154/297/32
f 160/44/32 158/293/32 154/297/32
f 146/36/32 144/42/32 138/37/32
f 144/42/32 142/306/32 138/37/32
f 138/37/32 136/311/32 130/38/32
f 136/311/32 134/313/32 130/38/32
f 154/297/32 150/300/32 146/36/32
f 130/38/32 154/297/32 146/36/32
f 164/41/32 163/92/32 161/35/32
f 161/35/32 208/131/32 206/132/32
f 206/132/32 205/128/32 200/126/32
f 205/128/32 203/129/32 200/126/32
f 203/129/32 202/125/32 200/126/32
f 200/126/32 199/123/32 197/34/32
f 197/34/32 196/120/32 194/121/32
f 194/121/32 193/117/32 191/118/32
f 191/118/32 190/115/32 188/39/32
f 188/39/32 187/113/32 185/33/32
f 185/33/32 184/110/32 182/111/32
f 182/111/32 181/107/32 179/108/32
f 179/108/32 178/105/32 182/111/32
f 178/105/32 176/40/32 182/111/32
f 176/40/32 175/102/32 173/103/32
f 173/103/32 172/99/32 170/100/32
f 170/100/32 169/96/32 167/97/32
f 167/97/32 166/94/32 170/100/32
f 166/94/32 164/41/32 170/100/32
f 164/41/32 161/35/32 206/132/32
f 200/126/32 197/34/32 188/39/32
f 197/34/32 194/121/32 188/39/32
f 194/121/32 191/118/32 188/39/32
f 188/39/32 185/33/32 176/40/32
f 185/33/32 182/111/32 176/40/32
f 176/40/32 173/103/32 164/41/32
f 173/103/32 170/100/32 164/41/32
f 164/41/32 206/132/32 188/39/32
f 206/132/32 200/126/32 188/39/32
f 256/44/34 225/291/34 226/38/34
f 226/38/34 227/316/34 228/315/34
f 228/315/34 229/314/34 230/313/34
f 230/313/34 231/312/34 228/315/34
f 231/312/34 232/311/34 228/315/34
f 232/311/34 233/310/34 234/37/34
f 234/37/34 235/309/34 232/311/34
f 235/309/34 236/308/34 232/311/34
f 236/308/34 237/307/34 240/42/34
f 237/307/34 238/306/34 240/42/34
f 238/306/34 239/305/34 240/42/34
f 240/42/34 241/304/34 242/36/34
f 242/36/34 243/303/34 244/302/34
f 244/302/34 245/301/34 246/300/34
f 246/300/34 247/299/34 244/302/34
f 247/299/34 248/43/34 244/302/34
f 248/43/34 249/298/34 250/297/34
f 250/297/34 251/296/34 252/295/34
f 252/295/34 253/294/34 256/44/34
f 253/294/34 254/293/34 256/44/34
f 254/293/34 255/292/34 256/44/34
f 256/44/34 226/38/34 232/311/34
f 226/38/34 228/315/34 232/311/34
f 240/42/34 242/36/34 248/43/34
f 242/36/34 244/302/34 248/43/34
f 248/43/34 250/297/34 256/44/34
f 250/297/34 252/295/34 256/44/34
f 232/311/34 236/308/34 240/42/34
f 256/44/34 232/311/34 240/42/34
f 65/35/34 112/131/34 128/93/51
f 128/93/51 306/166/446 305/165/446
f 305/165/446 113/95/52 128/93/51
f 113/95/52 67/92/34 128/93/51
f 68/41/34 67/92/34 113/95/52
f 113/95/52 308/317/447 307/167/447
f 307/167/447 114/98/53 113/95/52
f 114/98/53 70/94/34 113/95/52
f 71/97/34 70/94/34 114/98/53
f 114/98/53 310/170/448 309/169/448
f 309/169/448 115/101/54 114/98/53
f 115/101/54 73/96/34 114/98/53
f 74/100/34 73/96/34 115/101/54
f 115/101/54 312/172/449 311/318/449
f 311/318/449 116/104/55 115/101/54
f 116/104/55 76/99/34 115/101/54
f 77/103/34 76/99/34 116/104/55
f 116/104/55 314/174/450 313/173/450
f 313/173/450 117/106/56 116/104/55
f 117/106/56 79/102/34 116/104/55
f 80/40/34 79/102/34 117/106/56
f 117/106/56 316/319/451 315/320/451
f 315/320/451 118/109/57 117/106/56
f 118/109/57 82/105/34 117/106/56
f 83/108/34 82/105/34 118/109/57
f 118/109/57 318/178/452 317/177/452
f 317/177/452 119/112/58 118/109/57
f 119/112/58 85/107/34 118/109/57
f 86/111/34 85/107/34 119/112/58
f 119/112/58 320/321/453 319/322/453
f 319/322/453 120/114/59 119/112/58
f 120/114/59 88/110/34 119/112/58
f 89/33/34 88/110/34 120/114/59
f 120/114/59 322/323/454 321/324/454
f 321/324/454 121/116/60 120/114/59
f 121/116/60 91/113/34 120/114/59
f 92/39/34 91/113/34 121/116/60
f 121/116/60 324/325/455 323/326/455
f 323/326/455 122/119/61 121/116/60
f 122/119/61 94/115/34 121/116/60
f 95/118/34 94/115/34 122/119/61
f 122/119/61 326/186/456 325/185/456
f 325/185/456 123/122/62 122/119/61
f 123/122/62 97/117/34 122/119/61
f 98/121/34 97/117/34 123/122/62
f 123/122/62 328/327/457 327/328/457
f 327/328/457 124/124/63 123/122/62
f 124/124/63 100/120/34 123/122/62
f 101/34/34 100/120/34 124/124/63
f 124/124/63 330/329/458 329/330/458
f 329/330/458 125/127/64 124/124/63
f 125/127/64 103/123/34 124/124/63
f 104/126/34 103/123/34 125/127/64
f 125/127/64 332/331/459 331/332/459
f 331/332/459 126/130/65 125/127/64
f 126/130/65 106/125/34 125/127/64
f 107/129/34 106/125/34 126/130/65
f 126/130/65 334/194/460 333/193/460
f 333/193/460 127/133/66 126/130/65
f 127/133/66 109/128/34 126/130/65
f 110/132/34 109/128/34 127/133/66
f 127/133/66 336/333/461 335/334/461
f 335/334/461 128/93/51 127/133/66
f 128/93/51 112/131/34 127/133/66
f 224/93/84 208/131/32 161/35/32
f 161/35/32 163/92/32 224/93/84
f 163/92/32 209/95/86 224/93/84
f 209/95/86 386/165/83 224/93/84
f 209/95/86 163/92/32 164/41/32
f 164/41/32 166/94/32 209/95/86
f 166/94/32 210/98/88 209/95/86
f 210/98/88 388/167/85 209/95/86
f 210/98/88 166/94/32 167/97/32
f 167/97/32 169/96/32 210/98/88
f 169/96/32 211/101/90 210/98/88
f 211/101/90 390/169/87 210/98/88
f 211/101/90 169/96/32 170/100/32
f 170/100/32 172/99/32 211/101/90
f 172/99/32 212/104/92 211/101/90
f 212/104/92 392/171/89 211/101/90
f 212/104/92 172/99/32 173/103/32
f 173/103/32 175/102/32 212/104/92
f 175/102/32 213/106/94 212/104/92
f 213/106/94 394/173/91 212/104/92
f 213/106/94 175/102/32 176/40/32
f 176/40/32 178/105/32 213/106/94
f 178/105/32 214/109/96 213/106/94
f 214/109/96 396/175/93 213/106/94
f 214/109/96 178/105/32 179/108/32
f 179/108/32 181/107/32 214/109/96
f 181/107/32 215/112/98 214/109/96
f 215/112/98 398/177/95 214/109/96
f 215/112/98 181/107/32 182/111/32
f 182/111/32 184/110/32 215/112/98
f 184/110/32 216/114/100 215/112/98
f 216/114/100 400/179/97 215/112/98
f 216/114/100 184/110/32 185/33/32
f 185/33/32 187/113/32 216/114/100
f 187/113/32 217/116/102 216/114/100
f 217/116/102 402/181/99 216/114/100
f 217/116/102 187/113/32 188/39/32
f 188/39/32 190/115/32 217/116/102
f 190/115/32 218/119/105 217/116/102
f 218/119/105 404/183/101 217/116/102
f 218/119/105 190/115/32 191/118/32
f 191/118/32 193/117/32 218/119/105
f 193/117/32 219/122/107 218/119/105
f 219/122/107 406/185/103 218/119/105
f 219/122/107 193/117/32 194/121/32
f 194/121/32 196/120/32 219/122/107
f 196/120/32 220/124/109 219/122/107
f 220/124/109 408/187/106 219/122/107
f 220/124/109 196/120/32 197/34/32
f 197/34/32 199/123/32 220/124/109
f 199/123/32 221/127/111 220/124/109
f 221/127/111 410/189/108 220/124/109
f 221/127/111 199/123/32 200/126/32
f 200/126/32 202/125/32 221/127/111
f 202/125/32 222/130/113 221/127/111
f 222/130/113 412/191/110 221/127/111
f 222/130/113 202/125/32 203/129/32
f 203/129/32 205/128/32 222/130/113
f 205/128/32 223/133/115 222/130/113
f 223/133/115 414/193/112 222/130/113
f 223/133/115 205/128/32 206/132/32
f 206/132/32 208/131/32 223/133/115
f 208/131/32 224/93/84 223/133/115
f 224/93/84 416/195/114 223/133/115
f 257/45/116 258/46/462 305/197/117
f 307/199/119 308/215/463 260/47/120
f 309/200/122 310/217/464 263/50/123
f 311/201/125 312/247/465 266/53/126
f 313/202/128 314/221/466 269/56/129
f 315/203/131 316/223/467 272/59/132
f 317/204/134 318/225/468 275/62/135
f 319/205/137 320/226/469 278/65/138
f 321/206/140 322/227/470 281/68/141
f 323/207/143 324/260/471 284/71/144
f 325/208/146 326/230/472 287/74/147
f 327/209/149 328/232/473 290/77/150
f 329/210/152 330/233/474 293/80/153
f 331/211/155 332/269/475 296/83/156
f 333/212/158 334/272/476 299/86/159
f 335/213/161 336/237/477 302/89/162
f 338/134/164 385/198/478 386/214/165
f 388/199/167 340/135/479 341/136/168
f 390/216/170 343/137/480 344/138/171
f 392/218/173 346/139/481 347/140/174
f 394/220/176 349/141/482 350/142/177
f 396/222/179 352/143/483 353/144/180
f 398/224/182 355/145/484 356/146/183
f 400/205/185 358/147/485 359/148/186
f 402/206/188 361/149/486 362/150/189
f 404/228/191 364/151/487 365/152/192
f 406/208/194 367/153/488 368/154/195
f 408/231/197 370/155/489 371/156/198
f 410/210/200 373/157/490 374/158/201
f 412/211/203 376/159/491 377/160/204
f 414/212/206 379/161/492 380/162/207
f 416/236/209 382/163/493 383/164/210
f 258/239/212 259/276/1 129/276/1
f 129/276/1 130/238/2 258/239/212
f 66/238/213 113/243/494 305/240/214
f 111/241/216 257/45/495 306/198/217
f 257/45/219 111/241/33 160/241/33
f 160/241/33 129/46/1 257/45/219
f 260/47/220 66/238/2 130/238/2
f 130/238/2 131/48/3 260/47/220
f 66/238/221 260/47/496 308/215/222
f 69/244/224 114/245/497 307/199/225
f 261/49/227 262/48/3 131/48/3
f 131/48/3 132/244/4 261/49/227
f 263/50/228 69/244/4 132/244/4
f 132/244/4 133/51/5 263/50/228
f 69/244/229 263/50/498 310/217/230
f 72/246/232 115/248/499 309/200/233
f 264/52/235 265/51/5 133/51/5
f 133/51/5 134/246/6 264/52/235
f 266/53/236 72/246/6 134/246/6
f 134/246/6 135/54/7 266/53/236
f 72/246/237 266/53/500 312/247/238
f 75/249/240 116/250/501 311/201/241
f 267/55/243 268/54/7 135/54/7
f 135/54/7 136/249/8 267/55/243
f 269/56/244 75/249/8 136/249/8
f 136/249/8 137/57/9 269/56/244
f 75/249/245 269/56/502 314/221/246
f 78/251/248 117/252/503 313/202/249
f 270/58/251 271/57/9 137/57/9
f 137/57/9 138/251/10 270/58/251
f 272/59/252 78/251/10 138/251/10
f 138/251/10 139/60/11 272/59/252
f 78/251/253 272/59/504 316/223/254
f 81/253/256 118/254/505 315/203/257
f 273/61/259 274/60/11 139/60/11
f 139/60/11 140/253/12 273/61/259
f 275/62/260 81/253/12 140/253/12
f 140/253/12 141/63/13 275/62/260
f 81/253/261 275/62/506 318/225/262
f 84/255/264 119/256/507 317/204/265
f 276/64/267 277/63/13 141/63/13
f 141/63/13 142/255/14 276/64/267
f 278/65/268 84/255/14 142/255/14
f 142/255/14 143/66/15 278/65/268
f 84/255/269 278/65/508 320/226/270
f 87/257/272 120/258/509 319/205/273
f 279/67/275 280/66/15 143/66/15
f 143/66/15 144/257/16 279/67/275
f 281/68/276 87/257/16 144/257/16
f 144/257/16 145/69/17 281/68/276
f 87/257/277 281/68/510 322/227/278
f 90/259/280 121/261/511 321/206/281
f 282/70/283 283/69/17 145/69/17
f 145/69/17 146/259/18 282/70/283
f 284/71/284 90/259/18 146/259/18
f 146/259/18 147/72/19 284/71/284
f 90/259/285 284/71/512 324/260/286
f 93/262/288 122/263/513 323/207/289
f 285/73/291 286/72/19 147/72/19
f 147/72/19 148/262/20 285/73/291
f 287/74/292 93/262/20 148/262/20
f 148/262/20 149/75/21 287/74/292
f 93/262/293 287/74/514 326/230/294
f 96/264/296 123/265/515 325/208/297
f 288/76/299 289/75/21 149/75/21
f 149/75/21 150/264/22 288/76/299
f 290/77/300 96/264/22 150/264/22
f 150/264/22 151/78/23 290/77/300
f 96/264/301 290/77/516 328/232/302
f 99/266/304 124/267/517 327/209/305
f 291/79/307 292/78/23 151/78/23
f 151/78/23 152/266/24 291/79/307
f 293/80/308 99/266/24 152/266/24
f 152/266/24 153/81/25 293/80/308
f 99/266/309 293/80/518 330/233/310
f 102/268/312 125/270/519 329/210/313
f 294/82/315 295/81/25 153/81/25
f 153/81/25 154/268/26 294/82/315
f 296/83/316 102/268/26 154/268/26
f 154/268/26 155/84/27 296/83/316
f 102/268/317 296/83/520 332/269/318
f 105/271/320 126/273/521 331/211/321
f 297/85/323 298/84/27 155/84/27
f 155/84/27 156/271/28 297/85/323
f 299/86/324 105/271/28 156/271/28
f 156/271/28 157/87/29 299/86/324
f 105/271/325 299/86/522 334/272/326
f 108/274/328 127/275/523 333/212/329
f 300/88/331 301/87/29 157/87/29
f 157/87/29 158/274/30 300/88/331
f 302/89/332 108/274/30 158/274/30
f 158/274/30 159/90/31 302/89/332
f 108/274/333 302/89/524 336/237/334
f 111/241/336 128/242/525 335/213/337
f 303/91/339 304/90/31 159/90/31
f 159/90/31 160/241/33 303/91/339
f 339/276/1 337/239/212 225/276/1
f 337/239/212 162/238/2 226/238/2
f 386/240/340 209/243/526 162/238/341
f 207/241/343 224/242/527 385/198/344
f 256/241/33 207/241/33 338/134/219
f 338/134/219 339/46/1 225/46/1
f 226/238/2 162/238/2 341/136/220
f 341/136/220 342/48/3 227/48/3
f 162/238/346 209/243/528 387/215/347
f 388/199/349 210/245/529 165/244/350
f 342/48/3 340/135/227 227/48/3
f 340/135/227 165/244/4 228/244/4
f 228/244/4 165/244/4 344/138/228
f 344/138/228 345/51/5 229/51/5
f 165/244/352 210/245/530 389/217/353
f 390/216/355 211/248/531 168/246/356
f 345/51/5 343/137/235 229/51/5
f 343/137/235 168/246/6 230/246/6
f 230/246/6 168/246/6 347/140/236
f 347/140/236 348/54/7 231/54/7
f 168/246/358 211/248/532 391/219/359
f 392/218/361 212/250/533 171/249/362
f 348/54/7 346/139/243 231/54/7
f 346/139/243 171/249/8 232/249/8
f 232/249/8 171/249/8 350/142/244
f 350/142/244 351/57/9 233/57/9
f 171/249/364 212/250/534 393/221/365
f 394/220/367 213/252/535 174/251/368
f 351/57/9 349/141/251 233/57/9
f 349/141/251 174/251/10 234/251/10
f 234/251/10 174/251/10 353/144/252
f 353/144/252 354/60/11 235/60/11
f 174/251/370 213/252/536 395/223/371
f 396/222/373 214/254/537 177/253/374
f 354/60/11 352/143/259 235/60/11
f 352/143/259 177/253/12 236/253/12
f 236/253/12 177/253/12 356/146/260
f 356/146/260 357/63/13 237/63/13
f 177/253/376 214/254/538 397/225/377
f 398/224/379 215/256/539 180/255/380
f 357/63/13 355/145/267 237/63/13
f 355/145/267 180/255/14 238/255/14
f 238/255/14 180/255/14 359/148/268
f 359/148/268 360/66/15 239/66/15
f 180/255/382 215/256/540 399/226/383
f 400/205/385 216/258/541 183/257/386
f 360/66/15 358/147/275 239/66/15
f 358/147/275 183/257/16 240/257/16
f 240/257/16 183/257/16 362/150/276
f 362/150/276 363/69/17 241/69/17
f 183/257/388 216/258/542 401/227/389
f 402/206/391 217/261/543 186/259/392
f 363/69/17 361/149/283 241/69/17
f 361/149/283 186/259/18 242/259/18
f 242/259/18 186/259/18 365/152/284
f 365/152/284 366/72/19 243/72/19
f 186/259/394 217/261/544 403/229/395
f 404/228/397 218/263/545 189/262/398
f 366/72/19 364/151/291 243/72/19
f 364/151/291 189/262/20 244/262/20
f 244/262/20 189/262/20 368/154/292
f 368/154/292 369/75/21 245/75/21
f 189/262/400 218/263/546 405/230/401
f 406/208/403 219/265/547 192/264/404
f 369/75/21 367/153/299 245/75/21
f 367/153/299 192/264/22 246/264/22
f 246/264/22 192/264/22 371/156/300
f 371/156/300 372/78/23 247/78/23
f 192/264/406 219/265/548 407/232/407
f 408/231/409 220/267/549 195/266/410
f 372/78/23 370/155/307 247/78/23
f 370/155/307 195/266/24 248/266/24
f 248/266/24 195/266/24 374/158/308
f 374/158/308 375/81/25 249/81/25
f 195/266/412 220/267/550 409/233/413
f 410/210/415 221/270/551 198/268/416
f 375/81/25 373/157/315 249/81/25
f 373/157/315 198/268/26 250/268/26
f 250/268/26 198/268/26 377/160/316
f 377/160/316 378/84/27 251/84/27
f 198/268/418 221/270/552 411/234/419
f 412/211/421 222/273/553 201/271/422
f 378/84/27 376/159/323 251/84/27
f 376/159/323 201/271/28 252/271/28
f 252/271/28 201/271/28 380/162/324
f 380/162/324 381/87/29 253/87/29
f 201/271/424 222/273/554 413/235/425
f 414/212/427 223/275/555 204/274/428
f 381/87/29 379/161/331 253/87/29
f 379/161/331 204/274/30 254/274/30
f 254/274/30 204/274/30 383/164/332
f 383/164/332 384/90/31 255/90/31
f 204/274/430 223/275/556 415/237/431
f 416/236/433 224/242/557 207/241/434
f 384/90/31 382/163/339 255/90/31
f 382/163/339 207/241/33 256/241/33
usemtl マテリアル.001
f 418/277/436 419/278/436 417/279/436
f 426/280/437 423/75/437 425/281/437
f 424/63/438 421/282/438 423/75/438
f 428/283/439 417/284/439 427/285/439
f 423/75/34 427/286/34 425/81/34
f 420/51/32 428/287/32 426/57/32
f 424/63/32 428/287/32 422/288/32
f 419/87/34 427/286/34 417/289/34
f 422/288/440 427/285/440 421/282/440
f 420/290/437 425/281/437 419/278/437
f 431/278/441 430/277/441 429/279/441
f 435/75/442 438/280/442 437/281/442
f 433/282/443 436/63/443 435/75/443
f 429/284/444 440/283/444 439/285/444
f 439/286/34 435/75/34 437/81/34
f 440/287/32 432/51/32 438/57/32
f 436/63/32 440/287/32 438/57/32
f 431/87/34 439/286/34 437/81/34
f 439/285/445 434/288/445 433/282/445
f 437/281/442 432/290/442 431/278/442
f 418/277/436 420/290/436 419/278/436
f 426/280/437 424/63/437 423/75/437
f 424/63/438 422/288/438 421/282/438
f 428/283/439 418/335/439 417/284/439
f 423/75/34 421/282/34 427/286/34
f 420/51/32 418/336/32 428/287/32
f 424/63/32 426/57/32 428/287/32
f 419/87/34 425/81/34 427/286/34
f 422/288/440 428/283/440 427/285/440
f 420/290/437 426/280/437 425/281/437
f 431/278/441 432/290/441 430/277/441
f 435/75/442 436/63/442 438/280/442
f 433/282/443 434/288/443 436/63/443
f 429/284/444 430/335/444 440/283/444
f 439/286/34 433/282/34 435/75/34
f 440/287/32 430/336/32 432/51/32
f 436/63/32 434/288/32 440/287/32
f 431/87/34 429/289/34 439/286/34
f 439/285/445 440/283/445 434/288/445
f 437/281/442 438/280/442 432/290/442
