# Blender 5.1.2
# www.blender.org
mtllib desk.mtl
o 立方体
v -5.154982 -0.165120 3.189988
v -5.154982 0.165120 3.189988
v -5.154982 -0.165120 -3.189988
v -5.154982 0.165120 -3.189988
v 5.154982 -0.165120 3.189988
v 5.154982 0.165120 3.189988
v 5.154982 -0.165120 -3.189988
v 5.154982 0.165120 -3.189988
vn -1.0000 -0.0000 -0.0000
vn -0.0000 -0.0000 -1.0000
vn 1.0000 -0.0000 -0.0000
vn -0.0000 -0.0000 1.0000
vn -0.0000 -1.0000 -0.0000
vn -0.0000 1.0000 -0.0000
vt 0.933790 0.450951
vt 0.956418 0.013797
vt 0.956418 0.450951
vt 0.888076 0.720233
vt 0.910704 0.013797
vt 0.910704 0.720233
vt 0.990600 0.012999
vt 0.967947 0.450633
vt 0.967947 0.012999
vt 0.933561 0.013797
vt 0.910933 0.720233
vt 0.910933 0.013797
vt 0.807976 0.021609
vt 0.218934 0.973548
vt 0.808001 0.973533
vt 0.218910 0.021624
vt 0.933790 0.013797
vt 0.888076 0.013797
vt 0.990600 0.450633
vt 0.933561 0.720233
s 0
usemtl マテリアル
f 2/1/1 3/2/1 1/3/1
f 4/4/2 7/5/2 3/6/2
f 8/7/3 5/8/3 7/9/3
f 6/10/4 1/11/4 5/12/4
f 7/13/5 1/14/5 3/15/5
f 4/15/6 6/16/6 8/13/6
f 2/1/1 4/17/1 3/2/1
f 4/4/2 8/18/2 7/5/2
f 8/7/3 6/19/3 5/8/3
f 6/10/4 2/20/4 1/11/4
f 7/13/5 5/16/5 1/14/5
f 4/15/6 2/14/6 6/16/6
