# Blender 4.5.3 LTS
# www.blender.org
mtllib __clay_block_01_4.mtl
o clay_block_4
v -0.500000 0.500000 0.500000
v -0.500000 0.500000 -0.500000
v -1.500000 -0.500000 0.500000
v -0.500000 -0.500000 0.500000
v -1.500000 0.500000 1.500000
v -2.500000 0.500000 0.500000
v -1.500000 0.500000 0.500000
v -1.500000 0.500000 -0.500000
v -1.500000 1.500000 0.500000
v -0.500000 0.500000 1.500000
v 0.500000 0.500000 0.500000
v -0.500000 1.500000 0.500000
v 0.500000 -0.350000 0.500000
v 0.350000 -0.500000 0.500000
v 0.479904 -0.425000 0.500000
v 0.425000 -0.479904 0.500000
v 0.350000 -0.500000 -0.350000
v 0.350000 -0.350000 -0.500000
v 0.500000 -0.350000 -0.350000
v 0.350000 -0.479961 -0.424902
v 0.424902 -0.479961 -0.350000
v 0.421732 -0.460495 -0.421732
v 0.424902 -0.350000 -0.479961
v 0.350000 -0.424902 -0.479961
v 0.421732 -0.421732 -0.460495
v 0.479961 -0.424902 -0.350000
v 0.479961 -0.350000 -0.424902
v 0.460495 -0.421732 -0.421732
v 0.350000 0.500000 -0.500000
v 0.500000 0.500000 -0.350000
v 0.425000 0.500000 -0.479904
v 0.479904 0.500000 -0.425000
v -0.500000 -0.350000 -0.500000
v -0.500000 -0.500000 -0.350000
v -0.500000 -0.425000 -0.479904
v -0.500000 -0.479904 -0.425000
v -1.500000 -0.500000 -0.350000
v -1.500000 -0.350000 -0.500000
v -1.500000 -0.479904 -0.425000
v -1.500000 -0.425000 -0.479904
v -2.350000 -0.350000 -0.500000
v -2.350000 -0.500000 -0.350000
v -2.500000 -0.350000 -0.350000
v -2.350000 -0.424902 -0.479961
v -2.424901 -0.350000 -0.479961
v -2.421732 -0.421732 -0.460495
v -2.424901 -0.479961 -0.350000
v -2.350000 -0.479961 -0.424902
v -2.421732 -0.460495 -0.421732
v -2.479960 -0.350000 -0.424902
v -2.479960 -0.424902 -0.350000
v -2.460495 -0.421732 -0.421732
v -2.500000 0.500000 -0.350000
v -2.350000 0.500000 -0.500000
v -2.479904 0.500000 -0.425000
v -2.425000 0.500000 -0.479904
v -0.500000 -0.350000 1.500000
v -0.500000 -0.500000 1.350000
v -0.500000 -0.425000 1.479904
v -0.500000 -0.479904 1.425000
v 0.350000 -0.500000 1.350000
v 0.500000 -0.350000 1.350000
v 0.350000 -0.350000 1.500000
v 0.424902 -0.479961 1.350000
v 0.350000 -0.479961 1.424901
v 0.421732 -0.460495 1.421732
v 0.479961 -0.350000 1.424901
v 0.479961 -0.424902 1.350000
v 0.460495 -0.421732 1.421732
v 0.350000 -0.424902 1.479960
v 0.424902 -0.350000 1.479960
v 0.421732 -0.421732 1.460495
v 0.500000 0.500000 1.350000
v 0.350000 0.500000 1.500000
v 0.479904 0.500000 1.425000
v 0.425000 0.500000 1.479904
v -1.500000 -0.350000 1.500000
v -1.500000 -0.500000 1.350000
v -1.500000 -0.425000 1.479904
v -1.500000 -0.479904 1.425000
v -2.500000 -0.350000 1.350000
v -2.350000 -0.500000 1.350000
v -2.350000 -0.350000 1.500000
v -2.479960 -0.424902 1.350000
v -2.479960 -0.350000 1.424901
v -2.460495 -0.421732 1.421732
v -2.350000 -0.479961 1.424901
v -2.424901 -0.479961 1.350000
v -2.421732 -0.460495 1.421732
v -2.424901 -0.350000 1.479960
v -2.350000 -0.424902 1.479960
v -2.421732 -0.421732 1.460495
v -2.500000 -0.350000 0.500000
v -2.350000 -0.500000 0.500000
v -2.479904 -0.425000 0.500000
v -2.425000 -0.479904 0.500000
v 0.350000 1.500000 0.500000
v 0.500000 1.350000 0.500000
v 0.425000 1.479904 0.500000
v 0.479904 1.425000 0.500000
v 0.500000 1.350000 -0.350000
v 0.350000 1.350000 -0.500000
v 0.350000 1.500000 -0.350000
v 0.479961 1.350000 -0.424902
v 0.479961 1.424901 -0.350000
v 0.460495 1.421732 -0.421732
v 0.350000 1.424901 -0.479961
v 0.424902 1.350000 -0.479961
v 0.421732 1.421732 -0.460495
v 0.424902 1.479960 -0.350000
v 0.350000 1.479960 -0.424902
v 0.421732 1.460495 -0.421732
v -0.500000 1.350000 -0.500000
v -0.500000 1.500000 -0.350000
v -0.500000 1.425000 -0.479904
v -0.500000 1.479904 -0.425000
v -1.500000 1.350000 -0.500000
v -1.500000 1.500000 -0.350000
v -1.500000 1.425000 -0.479904
v -1.500000 1.479904 -0.425000
v -2.500000 1.350000 0.500000
v -2.350000 1.500000 0.500000
v -2.479904 1.425000 0.500000
v -2.425000 1.479904 0.500000
v -2.500000 1.350000 -0.350000
v -2.350000 1.500000 -0.350000
v -2.350000 1.350000 -0.500000
v -2.479960 1.424901 -0.350000
v -2.479960 1.350000 -0.424902
v -2.460495 1.421732 -0.421732
v -2.350000 1.479960 -0.424902
v -2.424901 1.479960 -0.350000
v -2.421732 1.460495 -0.421732
v -2.424901 1.350000 -0.479961
v -2.350000 1.424901 -0.479961
v -2.421732 1.421732 -0.460495
v -0.500000 1.500000 1.350000
v -0.500000 1.350000 1.500000
v -0.500000 1.479904 1.425000
v -0.500000 1.425000 1.479904
v 0.350000 1.350000 1.500000
v 0.500000 1.350000 1.350000
v 0.350000 1.500000 1.350000
v 0.424902 1.350000 1.479960
v 0.350000 1.424901 1.479960
v 0.421732 1.421732 1.460495
v 0.479961 1.424901 1.350000
v 0.479961 1.350000 1.424901
v 0.460495 1.421732 1.421732
v 0.350000 1.479960 1.424901
v 0.424902 1.479960 1.350000
v 0.421732 1.460495 1.421732
v -1.500000 1.500000 1.350000
v -1.500000 1.350000 1.500000
v -1.500000 1.479904 1.425000
v -1.500000 1.425000 1.479904
v -2.500000 0.500000 1.350000
v -2.350000 0.500000 1.500000
v -2.479904 0.500000 1.425000
v -2.425000 0.500000 1.479904
v -2.350000 1.350000 1.500000
v -2.350000 1.500000 1.350000
v -2.500000 1.350000 1.350000
v -2.350000 1.424901 1.479960
v -2.424901 1.350000 1.479960
v -2.421732 1.421732 1.460495
v -2.424901 1.479960 1.350000
v -2.350000 1.479960 1.424901
v -2.421732 1.460495 1.421732
v -2.479960 1.350000 1.424901
v -2.479960 1.424901 1.350000
v -2.460495 1.421732 1.421732
vn -0.5774 0.5774 0.5774
vn -0.4082 0.4082 -0.8165
vn -0.4082 -0.8165 0.4082
vn -0.4082 -0.8165 0.4083
vn -0.4082 0.4082 0.8165
vn -0.8165 0.4082 0.4082
vn -0.4082 0.4083 -0.8165
vn -0.4082 0.8165 0.4083
vn -0.4082 0.4083 0.8165
vn 0.8165 0.4082 0.4082
vn -0.4082 0.8165 0.4082
vn 0.8999 -0.1185 0.4196
vn 0.1185 -0.8999 0.4196
vn 0.7952 -0.4591 0.3961
vn 0.4591 -0.7952 0.3961
vn 0.1280 -0.9835 -0.1280
vn 0.1280 -0.1280 -0.9835
vn 0.9835 -0.1280 -0.1280
vn 0.1216 -0.8623 -0.4916
vn 0.4916 -0.8623 -0.1216
vn 0.4488 -0.7727 -0.4488
vn 0.4916 -0.1216 -0.8623
vn 0.1216 -0.4916 -0.8623
vn 0.4488 -0.4488 -0.7727
vn 0.8623 -0.4916 -0.1216
vn 0.8623 -0.1216 -0.4916
vn 0.7727 -0.4488 -0.4488
vn 0.1185 0.4196 -0.8999
vn 0.8999 0.4196 -0.1185
vn 0.4591 0.3961 -0.7952
vn 0.7952 0.3961 -0.4591
vn -0.4196 -0.1185 -0.8999
vn -0.4196 -0.8999 -0.1185
vn -0.3961 -0.4591 -0.7952
vn -0.3961 -0.7952 -0.4591
vn -0.1280 -0.1280 -0.9835
vn -0.1280 -0.9835 -0.1280
vn -0.9835 -0.1280 -0.1280
vn -0.1216 -0.4916 -0.8623
vn -0.4916 -0.1216 -0.8623
vn -0.4488 -0.4488 -0.7727
vn -0.4916 -0.8623 -0.1216
vn -0.1216 -0.8623 -0.4916
vn -0.4488 -0.7727 -0.4488
vn -0.8623 -0.1216 -0.4916
vn -0.8623 -0.4916 -0.1216
vn -0.7727 -0.4488 -0.4488
vn -0.8999 0.4196 -0.1185
vn -0.1185 0.4196 -0.8999
vn -0.7952 0.3961 -0.4591
vn -0.4591 0.3961 -0.7952
vn -0.4196 -0.1185 0.8999
vn -0.4196 -0.8999 0.1185
vn -0.3961 -0.4591 0.7952
vn -0.3961 -0.7952 0.4591
vn 0.1280 -0.9835 0.1280
vn 0.9835 -0.1280 0.1280
vn 0.1280 -0.1280 0.9835
vn 0.4916 -0.8623 0.1216
vn 0.1216 -0.8623 0.4916
vn 0.4488 -0.7727 0.4488
vn 0.8623 -0.1216 0.4916
vn 0.8623 -0.4916 0.1216
vn 0.7727 -0.4488 0.4488
vn 0.1216 -0.4916 0.8623
vn 0.4916 -0.1216 0.8623
vn 0.4488 -0.4488 0.7727
vn 0.8999 0.4196 0.1185
vn 0.1185 0.4196 0.8999
vn 0.7952 0.3961 0.4591
vn 0.4591 0.3961 0.7952
vn -0.9835 -0.1280 0.1280
vn -0.1280 -0.9835 0.1280
vn -0.1280 -0.1280 0.9835
vn -0.8623 -0.4916 0.1216
vn -0.8623 -0.1216 0.4916
vn -0.7727 -0.4488 0.4488
vn -0.1216 -0.8623 0.4916
vn -0.4916 -0.8623 0.1216
vn -0.4488 -0.7727 0.4488
vn -0.4916 -0.1216 0.8623
vn -0.1216 -0.4916 0.8623
vn -0.4488 -0.4488 0.7727
vn -0.8999 -0.1185 0.4196
vn -0.1185 -0.8999 0.4196
vn -0.7952 -0.4591 0.3961
vn -0.4591 -0.7952 0.3961
vn 0.1185 0.8999 0.4196
vn 0.8999 0.1185 0.4196
vn 0.4591 0.7952 0.3961
vn 0.7952 0.4591 0.3961
vn 0.9835 0.1280 -0.1280
vn 0.1280 0.1280 -0.9835
vn 0.1280 0.9835 -0.1280
vn 0.8623 0.1216 -0.4916
vn 0.8623 0.4916 -0.1216
vn 0.7727 0.4488 -0.4488
vn 0.1216 0.4916 -0.8623
vn 0.4916 0.1216 -0.8623
vn 0.4488 0.4488 -0.7727
vn 0.4916 0.8623 -0.1216
vn 0.1216 0.8623 -0.4916
vn 0.4488 0.7727 -0.4488
vn -0.4196 0.1185 -0.8999
vn -0.4196 0.8999 -0.1185
vn -0.3961 0.4591 -0.7952
vn -0.3961 0.7952 -0.4591
vn -0.8999 0.1185 0.4196
vn -0.1185 0.8999 0.4196
vn -0.7952 0.4591 0.3961
vn -0.4591 0.7952 0.3961
vn -0.9835 0.1280 -0.1280
vn -0.1280 0.9835 -0.1280
vn -0.1280 0.1280 -0.9835
vn -0.8623 0.4916 -0.1216
vn -0.8623 0.1216 -0.4916
vn -0.7727 0.4488 -0.4488
vn -0.1216 0.8623 -0.4916
vn -0.4916 0.8623 -0.1216
vn -0.4488 0.7727 -0.4488
vn -0.4916 0.1216 -0.8623
vn -0.1216 0.4916 -0.8623
vn -0.4488 0.4488 -0.7727
vn -0.4196 0.8999 0.1185
vn -0.4196 0.1185 0.8999
vn -0.3961 0.7952 0.4591
vn -0.3961 0.4591 0.7952
vn 0.1280 0.1280 0.9835
vn 0.9835 0.1280 0.1280
vn 0.1280 0.9835 0.1280
vn 0.4916 0.1216 0.8623
vn 0.1216 0.4916 0.8623
vn 0.4488 0.4488 0.7727
vn 0.8623 0.4916 0.1216
vn 0.8623 0.1216 0.4916
vn 0.7727 0.4488 0.4488
vn 0.1216 0.8623 0.4916
vn 0.4916 0.8623 0.1216
vn 0.4488 0.7727 0.4488
vn -0.8999 0.4196 0.1185
vn -0.1185 0.4196 0.8999
vn -0.7952 0.3961 0.4591
vn -0.4591 0.3961 0.7952
vn -0.1280 0.1280 0.9835
vn -0.1280 0.9835 0.1280
vn -0.9835 0.1280 0.1280
vn -0.1216 0.4916 0.8623
vn -0.4916 0.1216 0.8623
vn -0.4488 0.4488 0.7727
vn -0.4916 0.8623 0.1216
vn -0.1216 0.8623 0.4916
vn -0.4488 0.7727 0.4488
vn -0.8623 0.1216 0.4916
vn -0.8623 0.4916 0.1216
vn -0.7727 0.4488 0.4488
vt -0.500000 -0.500000
vt -1.500000 0.500000
vt -1.500000 -0.500000
vt -0.500000 -1.500000
vt -1.500000 -1.500000
vt -0.500000 0.500000
vt -1.500000 1.500000
vt 0.350000 0.424902
vt 0.424902 0.350000
vt 0.350000 0.350000
vt 0.350000 -0.479961
vt 0.421732 -0.421732
vt 0.421732 -0.460495
vt 0.424902 -0.350000
vt 0.350000 -0.424902
vt 0.350000 -0.350000
vt 0.460495 -0.421732
vt 0.479961 -0.350000
vt 0.460495 0.421732
vt 0.479961 0.350000
vt -2.350000 -0.424902
vt -2.424901 -0.350000
vt -2.350000 -0.350000
vt -2.350000 -0.479961
vt -2.421732 -0.421732
vt -2.424901 0.350000
vt -2.350000 0.424902
vt -2.350000 0.350000
vt 0.424902 -1.350000
vt 0.350000 -1.424901
vt 0.350000 -1.350000
vt -1.350000 -0.479961
vt -1.421732 -0.421732
vt -1.421732 -0.460495
vt -1.424901 -0.350000
vt -1.350000 -0.424902
vt -1.350000 -0.350000
vt -1.460495 -0.421732
vt 0.350000 -1.479960
vt 0.421732 -1.421732
vt 0.421732 -1.460495
vt -2.350000 -1.424901
vt -2.424901 -1.350000
vt -2.350000 -1.350000
vt -2.421732 -1.460495
vt -2.421732 -1.421732
vt -1.479960 -0.350000
vt 0.424902 1.350000
vt 0.350000 1.424901
vt 0.350000 1.350000
vt 0.460495 1.421732
vt 0.421732 1.421732
vt 0.421732 1.460495
vt 0.421732 0.421732
vt -2.350000 1.479960
vt -2.421732 1.421732
vt -2.421732 1.460495
vt -2.424901 1.350000
vt -2.350000 1.424901
vt -2.350000 1.350000
vt 0.479961 1.350000
vt -1.350000 1.424901
vt -1.424901 1.350000
vt -1.350000 1.350000
vt 0.460495 -1.421732
vt 0.479961 -1.350000
vt 0.350000 1.479960
vt -1.460495 1.421732
vt -1.421732 1.421732
vt -1.421732 1.460495
vt -2.479960 -1.350000
vt -1.479960 1.350000
vt -0.500000 -0.350000
vt -0.500000 -0.425000
vt 0.350000 -0.500000
vt 0.350000 0.500000
vt 0.425000 0.500000
vt 0.479904 0.500000
vt -1.500000 -0.425000
vt -1.500000 -0.350000
vt -1.500000 -0.479904
vt -0.500000 0.425000
vt -1.500000 0.350000
vt -1.500000 0.425000
vt -2.350000 0.500000
vt -0.500000 -1.350000
vt -1.350000 0.500000
vt -2.350000 -0.500000
vt -0.500000 1.350000
vt -0.500000 1.425000
vt 0.425000 -0.500000
vt 0.479904 -0.500000
vt -0.500000 0.479904
vt 0.350000 0.479961
vt -0.500000 0.350000
vt -0.500000 1.479904
vt -0.500000 -1.425000
vt -1.425000 0.500000
vt -0.500000 -0.479904
vt -2.425000 -0.500000
vt -1.500000 -1.425000
vt -1.500000 -1.350000
vt -1.479904 0.500000
vt -2.425000 0.500000
vt -1.500000 1.350000
vt -1.500000 0.479904
vt -1.500000 1.425000
vt -2.350000 0.479961
vt -1.500000 1.479904
vt 0.500000 -0.350000
vt 0.479904 0.425000
vt 0.425000 0.479904
vt -2.500000 0.350000
vt 0.350000 -1.500000
vt 0.500000 -1.350000
vt 0.479904 1.425000
vt 0.425000 1.479904
vt 0.350000 1.500000
vt 0.500000 1.350000
vt -2.500000 1.350000
vt -2.350000 1.500000
vt -1.350000 1.500000
vt -2.350000 -1.500000
vt -0.500000 1.500000
vt -2.421732 -0.460495
vt -2.421732 0.421732
vt -2.421732 0.460495
vt -1.350000 1.479960
vt 0.425000 -0.479904
vt 0.479904 -0.425000
vt 0.500000 0.500000
vt 0.500000 -0.500000
vt 0.500000 0.350000
vt -2.500000 -0.500000
vt -2.425000 0.479904
vt -2.479904 0.425000
vt -1.350000 -0.500000
vt -1.425000 -0.479904
vt -1.479904 -0.425000
vt 0.425000 -1.479904
vt 0.479904 -1.425000
vt -2.500000 0.500000
vt -2.500000 -0.350000
vt -2.479904 -0.425000
vt -2.425000 -0.479904
vt -2.425000 1.479904
vt -2.479904 1.425000
vt -1.479904 1.425000
vt -1.425000 1.479904
vt -2.500000 -1.350000
vt -2.479904 -1.425000
vt -2.425000 -1.479904
s 1
usemtl ClayMat_4
f 1/1/1 8/2/7 7/3/1
f 4/1/4 7/2/1 3/3/3
f 10/4/9 7/3/1 5/5/5
f 1/6/1 9/7/8 7/2/1
f 20/8/19 21/9/20 17/10/16
f 20/11/19 25/12/24 22/13/21
f 23/14/22 24/15/23 18/16/17
f 27/14/26 25/17/24 23/18/22
f 26/15/25 27/14/26 19/16/18
f 21/9/20 28/19/27 26/20/25
f 22/13/21 25/17/24 28/12/27
f 44/21/39 45/22/40 41/23/36
f 48/24/43 46/25/41 44/21/39
f 47/26/42 48/27/43 42/28/37
f 51/15/46 49/13/44 47/11/42
f 50/14/45 51/15/46 43/16/38
f 50/14/45 46/17/41 52/12/47
f 46/17/41 49/13/44 52/12/47
f 64/29/59 65/30/60 61/31/56
f 64/32/59 69/33/64 66/34/61
f 67/35/62 68/36/63 62/37/57
f 67/35/62 72/38/67 69/33/64
f 70/15/65 71/14/66 63/16/58
f 70/39/65 66/40/61 72/41/67
f 66/34/61 69/33/64 72/38/67
f 84/36/75 85/35/76 81/37/72
f 84/36/75 89/34/80 86/33/77
f 87/42/78 88/43/79 82/44/73
f 87/42/78 92/45/83 89/46/80
f 90/22/81 91/21/82 83/23/74
f 85/35/76 92/38/83 90/47/81
f 86/33/77 89/34/80 92/38/83
f 104/48/95 105/49/96 101/50/92
f 104/48/95 109/51/100 106/52/97
f 107/49/98 108/48/99 102/50/93
f 107/49/98 112/53/103 109/52/100
f 110/9/101 111/8/102 103/10/94
f 105/20/96 112/54/103 110/9/101
f 106/52/97 109/51/100 112/53/103
f 128/49/115 129/48/116 125/50/112
f 128/49/115 133/53/120 130/52/117
f 131/27/118 132/26/119 126/28/113
f 131/55/118 136/56/123 133/57/120
f 134/58/121 135/59/122 127/60/114
f 129/48/116 136/51/123 134/61/121
f 130/52/117 133/53/120 136/51/123
f 144/48/131 145/49/132 141/50/128
f 148/61/135 146/52/133 144/48/131
f 147/62/134 148/63/135 142/64/129
f 151/29/138 149/65/136 147/66/134
f 150/30/137 151/29/138 143/31/130
f 145/49/132 152/53/139 150/67/137
f 146/68/133 149/69/136 152/70/139
f 164/59/147 165/58/148 161/60/144
f 168/55/151 166/56/149 164/59/147
f 167/43/150 168/42/151 162/44/145
f 171/71/154 169/46/152 167/43/150
f 170/63/153 171/62/154 163/64/146
f 165/72/148 172/69/155 170/63/153
f 166/68/149 169/70/152 172/69/155
f 13/73/12 26/15/25 19/16/18
f 15/74/14 21/11/20 26/15/25
f 21/9/20 14/75/13 17/10/16
f 30/76/29 27/14/26 32/77/31
f 27/14/26 31/78/30 32/77/31
f 23/14/22 29/76/28 31/77/30
f 33/73/32 40/79/34 38/80/32
f 35/74/34 39/81/35 40/79/34
f 36/82/35 37/83/33 39/84/35
f 53/76/48 50/14/45 43/16/38
f 55/77/50 45/18/40 50/14/45
f 45/22/40 54/85/49 41/23/36
f 57/73/52 70/15/65 63/16/58
f 59/74/54 65/11/60 70/15/65
f 65/30/60 58/86/53 61/31/56
f 73/87/68 67/35/62 62/37/57
f 75/78/70 71/14/66 67/18/62
f 71/14/66 74/76/69 63/16/58
f 93/73/84 84/36/75 81/37/72
f 95/74/86 88/32/79 84/36/75
f 88/43/79 94/88/85 82/44/73
f 98/89/89 105/49/96 100/90/91
f 105/20/96 99/91/90 100/92/91
f 110/9/101 97/75/88 99/91/90
f 113/89/104 107/49/98 102/50/93
f 115/93/106 111/8/102 107/94/98
f 111/8/102 114/95/105 103/10/94
f 121/89/108 128/49/115 125/50/112
f 123/90/110 132/67/119 128/49/115
f 132/26/119 122/88/109 126/28/113
f 138/89/125 145/49/132 140/90/127
f 145/49/132 139/96/126 140/90/127
f 150/30/137 137/86/124 139/97/126
f 157/87/140 170/63/153 163/64/146
f 159/98/142 165/72/148 170/63/153
f 165/58/148 158/85/141 161/60/144
f 33/73/32 24/15/23 35/74/34
f 24/15/23 36/99/35 35/74/34
f 20/8/19 34/95/33 36/82/35
f 93/73/84 51/15/46 95/74/86
f 51/15/46 96/99/87 95/74/86
f 47/26/42 94/88/85 96/100/87
f 38/80/32 44/21/39 41/23/36
f 44/21/39 39/81/35 48/24/43
f 48/27/43 37/83/33 42/28/37
f 13/73/12 68/36/63 15/74/14
f 68/36/63 16/99/15 15/74/14
f 64/29/59 14/75/13 16/91/15
f 77/80/52 59/74/54 57/73/52
f 79/79/54 60/99/55 59/74/54
f 80/101/55 58/86/53 60/97/55
f 77/80/52 91/21/82 79/79/54
f 91/21/82 80/81/55 79/79/54
f 87/42/78 78/102/53 80/101/55
f 157/87/140 85/35/76 159/98/142
f 85/35/76 160/103/143 159/98/142
f 90/22/81 158/85/141 160/104/143
f 30/76/29 104/48/95 101/50/92
f 32/77/31 108/61/99 104/48/95
f 108/48/99 29/76/28 102/50/93
f 117/105/104 115/90/106 113/89/104
f 119/106/106 116/82/107 115/93/106
f 120/84/107 114/95/105 116/82/107
f 117/105/104 135/59/122 119/107/106
f 135/108/122 120/84/107 119/106/106
f 131/27/118 118/83/105 120/84/107
f 53/76/48 129/48/116 55/77/50
f 129/48/116 56/78/51 55/77/50
f 134/58/121 54/85/49 56/104/51
f 98/89/89 147/62/134 142/64/129
f 100/92/91 151/29/138 147/66/134
f 151/29/138 97/75/88 143/31/130
f 73/87/68 148/63/135 75/98/70
f 75/78/70 144/48/131 76/77/71
f 144/48/131 74/76/69 76/77/71
f 138/89/125 156/107/127 154/105/125
f 140/90/127 155/109/126 156/107/127
f 139/97/126 153/102/124 155/101/126
f 121/89/108 171/62/154 123/90/110
f 171/62/154 124/96/111 123/90/110
f 167/43/150 122/88/109 124/100/111
f 154/105/125 164/59/147 161/60/144
f 156/107/127 168/55/151 164/59/147
f 168/42/151 153/102/124 162/44/145
f 19/16/18 11/6/10 13/73/12
f 34/95/33 14/75/13 4/1/4
f 13/73/12 73/87/68 62/37/57
f 14/75/13 13/110/12 1/6/1
f 4/1/4 61/31/56 58/86/53
f 33/73/32 29/76/28 18/16/17
f 2/6/2 102/50/93 29/76/28
f 32/111/31 31/112/30 29/76/28
f 30/76/29 98/89/89 11/6/10
f 38/80/32 2/6/2 33/73/32
f 37/83/33 4/1/4 3/3/3
f 34/75/33 1/6/1 33/110/32
f 42/28/37 3/3/3 94/88/85
f 37/75/33 7/6/1 38/110/32
f 41/23/36 8/2/7 38/80/32
f 6/6/6 43/16/38 93/73/84
f 121/89/108 53/76/48 6/6/6
f 53/113/48 7/3/1 54/85/49
f 54/85/49 117/105/104 8/2/7
f 63/16/58 10/6/9 57/73/52
f 57/73/52 5/2/5 77/80/52
f 57/80/52 10/2/9 1/6/1
f 3/3/3 58/86/53 78/102/53
f 11/6/10 142/64/129 73/87/68
f 74/114/69 73/115/68 1/1/1
f 74/76/69 138/89/125 10/6/9
f 77/80/52 158/85/141 83/23/74
f 77/80/52 5/2/5 7/6/1
f 94/88/85 78/102/53 82/44/73
f 157/87/140 93/73/84 81/37/72
f 94/88/85 3/3/3 7/2/1
f 97/75/88 114/95/105 12/1/11
f 143/31/130 12/1/11 137/86/124
f 100/116/91 99/117/90 97/118/88
f 8/2/7 113/89/104 2/6/2
f 116/117/107 115/116/106 113/119/104
f 12/1/11 118/83/105 9/3/8
f 9/3/8 126/28/113 122/88/109
f 120/117/107 119/116/106 117/119/104
f 163/64/146 6/6/6 157/87/140
f 121/120/108 7/2/1 122/121/109
f 153/102/124 122/88/109 162/44/145
f 137/86/124 9/3/8 153/102/124
f 138/105/125 137/122/124 1/6/1
f 10/6/9 154/105/125 5/2/5
f 154/105/125 153/122/124 7/6/1
f 5/2/5 161/60/144 158/85/141
f 158/123/141 5/5/5 7/3/1
f 1/1/1 2/6/2 8/2/7
f 4/1/4 1/6/1 7/2/1
f 10/4/9 1/1/1 7/3/1
f 1/6/1 12/124/11 9/7/8
f 20/8/19 22/54/21 21/9/20
f 20/11/19 24/15/23 25/12/24
f 23/14/22 25/12/24 24/15/23
f 27/14/26 28/12/27 25/17/24
f 26/15/25 28/12/27 27/14/26
f 21/11/20 22/13/21 28/12/27
f 44/21/39 46/25/41 45/22/40
f 48/24/43 49/125/44 46/25/41
f 47/26/42 49/126/44 48/27/43
f 51/15/46 52/12/47 49/13/44
f 50/14/45 52/12/47 51/15/46
f 50/14/45 45/18/40 46/17/41
f 64/29/59 66/40/61 65/30/60
f 64/32/59 68/36/63 69/33/64
f 67/35/62 69/33/64 68/36/63
f 67/18/62 71/14/66 72/12/67
f 70/15/65 72/12/67 71/14/66
f 70/15/65 65/11/60 66/13/61
f 84/36/75 86/33/77 85/35/76
f 84/36/75 88/32/79 89/34/80
f 87/42/78 89/46/80 88/43/79
f 87/24/78 91/21/82 92/25/83
f 90/22/81 92/25/83 91/21/82
f 85/35/76 86/33/77 92/38/83
f 104/48/95 106/52/97 105/49/96
f 104/48/95 108/61/99 109/51/100
f 107/49/98 109/52/100 108/48/99
f 107/94/98 111/8/102 112/54/103
f 110/9/101 112/54/103 111/8/102
f 105/49/96 106/52/97 112/53/103
f 128/49/115 130/52/117 129/48/116
f 128/49/115 132/67/119 133/53/120
f 131/27/118 133/126/120 132/26/119
f 131/27/118 135/108/122 136/127/123
f 134/58/121 136/56/123 135/59/122
f 129/48/116 130/52/117 136/51/123
f 144/48/131 146/52/133 145/49/132
f 148/63/135 149/69/136 146/68/133
f 147/62/134 149/69/136 148/63/135
f 151/128/138 152/70/139 149/69/136
f 150/30/137 152/40/139 151/29/138
f 145/49/132 146/52/133 152/53/139
f 164/59/147 166/56/149 165/58/148
f 168/55/151 169/57/152 166/56/149
f 167/43/150 169/46/152 168/42/151
f 171/62/154 172/69/155 169/70/152
f 170/63/153 172/69/155 171/62/154
f 165/72/148 166/68/149 172/69/155
f 13/73/12 15/74/14 26/15/25
f 15/74/14 16/99/15 21/11/20
f 21/9/20 16/91/15 14/75/13
f 30/76/29 19/16/18 27/14/26
f 27/14/26 23/18/22 31/78/30
f 23/14/22 18/16/17 29/76/28
f 33/73/32 35/74/34 40/79/34
f 35/74/34 36/99/35 39/81/35
f 36/82/35 34/95/33 37/83/33
f 53/76/48 55/77/50 50/14/45
f 55/77/50 56/78/51 45/18/40
f 45/22/40 56/104/51 54/85/49
f 57/73/52 59/74/54 70/15/65
f 59/74/54 60/99/55 65/11/60
f 65/30/60 60/97/55 58/86/53
f 73/87/68 75/98/70 67/35/62
f 75/78/70 76/77/71 71/14/66
f 71/14/66 76/77/71 74/76/69
f 93/73/84 95/74/86 84/36/75
f 95/74/86 96/99/87 88/32/79
f 88/43/79 96/100/87 94/88/85
f 98/89/89 101/50/92 105/49/96
f 105/20/96 110/9/101 99/91/90
f 110/9/101 103/10/94 97/75/88
f 113/89/104 115/90/106 107/49/98
f 115/93/106 116/82/107 111/8/102
f 111/8/102 116/82/107 114/95/105
f 121/89/108 123/90/110 128/49/115
f 123/90/110 124/96/111 132/67/119
f 132/26/119 124/100/111 122/88/109
f 138/89/125 141/50/128 145/49/132
f 145/49/132 150/67/137 139/96/126
f 150/30/137 143/31/130 137/86/124
f 157/87/140 159/98/142 170/63/153
f 159/98/142 160/103/143 165/72/148
f 165/58/148 160/104/143 158/85/141
f 33/73/32 18/16/17 24/15/23
f 24/15/23 20/11/19 36/99/35
f 20/8/19 17/10/16 34/95/33
f 93/73/84 43/16/38 51/15/46
f 51/15/46 47/11/42 96/99/87
f 47/26/42 42/28/37 94/88/85
f 38/80/32 40/79/34 44/21/39
f 44/21/39 40/79/34 39/81/35
f 48/27/43 39/84/35 37/83/33
f 13/73/12 62/37/57 68/36/63
f 68/36/63 64/32/59 16/99/15
f 64/29/59 61/31/56 14/75/13
f 77/80/52 79/79/54 59/74/54
f 79/79/54 80/81/55 60/99/55
f 80/101/55 78/102/53 58/86/53
f 77/80/52 83/23/74 91/21/82
f 91/21/82 87/24/78 80/81/55
f 87/42/78 82/44/73 78/102/53
f 157/87/140 81/37/72 85/35/76
f 85/35/76 90/47/81 160/103/143
f 90/22/81 83/23/74 158/85/141
f 30/76/29 32/77/31 104/48/95
f 32/77/31 31/78/30 108/61/99
f 108/48/99 31/77/30 29/76/28
f 117/105/104 119/107/106 115/90/106
f 119/106/106 120/84/107 116/82/107
f 120/84/107 118/83/105 114/95/105
f 117/105/104 127/60/114 135/59/122
f 135/108/122 131/27/118 120/84/107
f 131/27/118 126/28/113 118/83/105
f 53/76/48 125/50/112 129/48/116
f 129/48/116 134/61/121 56/78/51
f 134/58/121 127/60/114 54/85/49
f 98/89/89 100/90/91 147/62/134
f 100/92/91 99/91/90 151/29/138
f 151/29/138 99/91/90 97/75/88
f 73/87/68 142/64/129 148/63/135
f 75/78/70 148/61/135 144/48/131
f 144/48/131 141/50/128 74/76/69
f 138/89/125 140/90/127 156/107/127
f 140/90/127 139/96/126 155/109/126
f 139/97/126 137/86/124 153/102/124
f 121/89/108 163/64/146 171/62/154
f 171/62/154 167/128/150 124/96/111
f 167/43/150 162/44/145 122/88/109
f 154/105/125 156/107/127 164/59/147
f 156/107/127 155/109/126 168/55/151
f 168/42/151 155/101/126 153/102/124
f 19/16/18 30/76/29 11/6/10
f 34/95/33 17/10/16 14/75/13
f 13/73/12 11/6/10 73/87/68
f 1/6/1 4/1/4 14/75/13
f 14/75/13 16/129/15 15/130/14
f 15/130/14 13/110/12 14/75/13
f 13/110/12 11/131/10 1/6/1
f 4/1/4 14/75/13 61/31/56
f 33/73/32 2/6/2 29/76/28
f 2/6/2 113/89/104 102/50/93
f 2/6/2 1/1/1 29/76/28
f 1/1/1 11/132/10 30/133/29
f 29/76/28 1/1/1 30/133/29
f 30/133/29 32/111/31 29/76/28
f 30/76/29 101/50/92 98/89/89
f 38/80/32 8/2/7 2/6/2
f 37/83/33 34/95/33 4/1/4
f 34/75/33 4/1/4 1/6/1
f 1/6/1 2/131/2 33/110/32
f 33/110/32 35/130/34 36/129/35
f 36/129/35 34/75/33 33/110/32
f 42/28/37 37/83/33 3/3/3
f 37/75/33 3/1/3 7/6/1
f 7/6/1 8/131/7 38/110/32
f 38/110/32 40/130/34 39/129/35
f 39/129/35 37/75/33 38/110/32
f 41/23/36 54/85/49 8/2/7
f 6/6/6 53/76/48 43/16/38
f 121/89/108 125/50/112 53/76/48
f 53/113/48 6/134/6 7/3/1
f 7/3/1 8/2/7 54/85/49
f 54/85/49 56/135/51 55/136/50
f 55/136/50 53/113/48 54/85/49
f 54/85/49 127/60/114 117/105/104
f 63/16/58 74/76/69 10/6/9
f 57/73/52 10/6/9 5/2/5
f 4/1/4 58/137/53 1/6/1
f 58/137/53 60/138/55 57/80/52
f 1/6/1 58/137/53 57/80/52
f 60/138/55 59/139/54 57/80/52
f 3/3/3 4/1/4 58/86/53
f 11/6/10 98/89/89 142/64/129
f 1/1/1 10/4/9 74/114/69
f 74/114/69 76/140/71 75/141/70
f 75/141/70 73/115/68 74/114/69
f 73/115/68 11/132/10 1/1/1
f 74/76/69 141/50/128 138/89/125
f 77/80/52 5/2/5 158/85/141
f 3/1/3 78/137/53 7/6/1
f 78/137/53 80/138/55 77/80/52
f 7/6/1 78/137/53 77/80/52
f 80/138/55 79/139/54 77/80/52
f 94/88/85 3/3/3 78/102/53
f 157/87/140 6/6/6 93/73/84
f 6/142/6 93/143/84 7/2/1
f 93/143/84 95/144/86 94/88/85
f 7/2/1 93/143/84 94/88/85
f 95/144/86 96/145/87 94/88/85
f 97/75/88 103/10/94 114/95/105
f 143/31/130 97/75/88 12/1/11
f 12/124/11 1/6/1 97/118/88
f 1/6/1 11/131/10 98/119/89
f 97/118/88 1/6/1 98/119/89
f 98/119/89 100/116/91 97/118/88
f 8/2/7 117/105/104 113/89/104
f 2/131/2 1/6/1 113/119/104
f 1/6/1 12/124/11 114/118/105
f 113/119/104 1/6/1 114/118/105
f 114/118/105 116/117/107 113/119/104
f 12/1/11 114/95/105 118/83/105
f 9/3/8 118/83/105 126/28/113
f 8/131/7 7/6/1 117/119/104
f 7/6/1 9/124/8 118/118/105
f 117/119/104 7/6/1 118/118/105
f 118/118/105 120/117/107 117/119/104
f 163/64/146 121/89/108 6/6/6
f 121/120/108 6/142/6 7/2/1
f 7/2/1 9/7/8 122/121/109
f 122/121/109 124/146/111 123/147/110
f 123/147/110 121/120/108 122/121/109
f 153/102/124 9/3/8 122/88/109
f 137/86/124 12/1/11 9/3/8
f 1/6/1 10/2/9 138/105/125
f 138/105/125 140/148/127 139/149/126
f 139/149/126 137/122/124 138/105/125
f 137/122/124 12/124/11 1/6/1
f 10/6/9 138/89/125 154/105/125
f 7/6/1 5/2/5 154/105/125
f 154/105/125 156/148/127 155/149/126
f 155/149/126 153/122/124 154/105/125
f 153/122/124 9/124/8 7/6/1
f 5/2/5 154/105/125 161/60/144
f 6/134/6 157/150/140 7/3/1
f 157/150/140 159/151/142 158/123/141
f 7/3/1 157/150/140 158/123/141
f 159/151/142 160/152/143 158/123/141
