# Blender 4.1.1
# www.blender.org
mtllib __clay_block_09_36.mtl
o clay_block_36
v -0.350000 -0.350000 0.500000
v -0.500000 -0.350000 0.350000
v -0.350000 -0.500000 0.350000
v -0.424902 -0.350000 0.479961
v -0.350000 -0.424902 0.479961
v -0.421732 -0.421732 0.460495
v -0.479961 -0.424902 0.350000
v -0.479961 -0.350000 0.424902
v -0.460495 -0.421732 0.421732
v -0.350000 -0.479961 0.424902
v -0.424902 -0.479961 0.350000
v -0.421732 -0.460495 0.421732
v 0.350000 -0.350000 0.500000
v 0.350000 -0.500000 0.350000
v 0.500000 -0.350000 0.350000
v 0.350000 -0.424902 0.479961
v 0.424902 -0.350000 0.479961
v 0.421732 -0.421732 0.460495
v 0.424902 -0.479961 0.350000
v 0.350000 -0.479961 0.424902
v 0.421732 -0.460495 0.421732
v 0.479961 -0.350000 0.424902
v 0.479961 -0.424902 0.350000
v 0.460495 -0.421732 0.421732
v 0.350000 -0.350000 -0.500000
v 0.500000 -0.350000 -0.350000
v 0.350000 -0.500000 -0.350000
v 0.424902 -0.350000 -0.479961
v 0.350000 -0.424902 -0.479961
v 0.421732 -0.421732 -0.460495
v 0.479961 -0.424902 -0.350000
v 0.479961 -0.350000 -0.424902
v 0.460495 -0.421732 -0.421732
v 0.350000 -0.479961 -0.424902
v 0.424902 -0.479961 -0.350000
v 0.421732 -0.460495 -0.421732
v -0.500000 -0.350000 -0.350000
v -0.350000 -0.350000 -0.500000
v -0.350000 -0.500000 -0.350000
v -0.479961 -0.350000 -0.424902
v -0.479961 -0.424902 -0.350000
v -0.460495 -0.421732 -0.421732
v -0.350000 -0.424902 -0.479961
v -0.424902 -0.350000 -0.479961
v -0.421732 -0.421732 -0.460495
v -0.424902 -0.479961 -0.350000
v -0.350000 -0.479961 -0.424902
v -0.421732 -0.460495 -0.421732
v -0.500000 0.350000 0.350000
v -0.350000 0.350000 0.500000
v -0.350000 0.500000 0.350000
v -0.479961 0.350000 0.424902
v -0.479961 0.424902 0.350000
v -0.460495 0.421732 0.421732
v -0.350000 0.424902 0.479961
v -0.424902 0.350000 0.479961
v -0.421732 0.421732 0.460495
v -0.424902 0.479961 0.350000
v -0.350000 0.479961 0.424902
v -0.421732 0.460495 0.421732
v 0.350000 0.350000 0.500000
v 0.500000 0.350000 0.350000
v 0.350000 0.500000 0.350000
v 0.424902 0.350000 0.479961
v 0.350000 0.424902 0.479961
v 0.421732 0.421732 0.460495
v 0.479961 0.424902 0.350000
v 0.479961 0.350000 0.424902
v 0.460495 0.421732 0.421732
v 0.350000 0.479961 0.424902
v 0.424902 0.479961 0.350000
v 0.421732 0.460495 0.421732
v 0.500000 0.350000 -0.350000
v 0.350000 0.350000 -0.500000
v 0.350000 0.500000 -0.350000
v 0.479961 0.350000 -0.424902
v 0.479961 0.424902 -0.350000
v 0.460495 0.421732 -0.421732
v 0.350000 0.424902 -0.479961
v 0.424902 0.350000 -0.479961
v 0.421732 0.421732 -0.460495
v 0.424902 0.479961 -0.350000
v 0.350000 0.479961 -0.424902
v 0.421732 0.460495 -0.421732
v -0.500000 0.350000 -0.350000
v -0.350000 0.500000 -0.350000
v -0.350000 0.350000 -0.500000
v -0.479961 0.424902 -0.350000
v -0.479961 0.350000 -0.424902
v -0.460495 0.421732 -0.421732
v -0.350000 0.479961 -0.424902
v -0.424902 0.479961 -0.350000
v -0.421732 0.460495 -0.421732
v -0.424902 0.350000 -0.479961
v -0.350000 0.424902 -0.479961
v -0.421732 0.421732 -0.460495
vn -0.1280 -0.1280 0.9835
vn -0.9835 -0.1280 0.1280
vn -0.1280 -0.9835 0.1280
vn -0.4916 -0.1216 0.8623
vn -0.1216 -0.4916 0.8623
vn -0.4488 -0.4488 0.7727
vn -0.8623 -0.4916 0.1216
vn -0.8623 -0.1216 0.4916
vn -0.7727 -0.4488 0.4488
vn -0.1216 -0.8623 0.4916
vn -0.4916 -0.8623 0.1216
vn -0.4488 -0.7727 0.4488
vn 0.1280 -0.1280 0.9835
vn 0.1280 -0.9835 0.1280
vn 0.9835 -0.1280 0.1280
vn 0.1216 -0.4916 0.8623
vn 0.4916 -0.1216 0.8623
vn 0.4488 -0.4488 0.7727
vn 0.4916 -0.8623 0.1216
vn 0.1216 -0.8623 0.4916
vn 0.4488 -0.7727 0.4488
vn 0.8623 -0.1216 0.4916
vn 0.8623 -0.4916 0.1216
vn 0.7727 -0.4488 0.4488
vn 0.1280 -0.1280 -0.9835
vn 0.9835 -0.1280 -0.1280
vn 0.1280 -0.9835 -0.1280
vn 0.4916 -0.1216 -0.8623
vn 0.1216 -0.4916 -0.8623
vn 0.4488 -0.4488 -0.7727
vn 0.8623 -0.4916 -0.1216
vn 0.8623 -0.1216 -0.4916
vn 0.7727 -0.4488 -0.4488
vn 0.1216 -0.8623 -0.4916
vn 0.4916 -0.8623 -0.1216
vn 0.4488 -0.7727 -0.4488
vn -0.9835 -0.1280 -0.1280
vn -0.1280 -0.1280 -0.9835
vn -0.1280 -0.9835 -0.1280
vn -0.8623 -0.1216 -0.4916
vn -0.8623 -0.4916 -0.1216
vn -0.7727 -0.4488 -0.4488
vn -0.1216 -0.4916 -0.8623
vn -0.4916 -0.1216 -0.8623
vn -0.4488 -0.4488 -0.7727
vn -0.4916 -0.8623 -0.1216
vn -0.1216 -0.8623 -0.4916
vn -0.4488 -0.7727 -0.4488
vn -0.9835 0.1280 0.1280
vn -0.1280 0.1280 0.9835
vn -0.1280 0.9835 0.1280
vn -0.8623 0.1216 0.4916
vn -0.8623 0.4916 0.1216
vn -0.7727 0.4488 0.4488
vn -0.1216 0.4916 0.8623
vn -0.4916 0.1216 0.8623
vn -0.4488 0.4488 0.7727
vn -0.4916 0.8623 0.1216
vn -0.1216 0.8623 0.4916
vn -0.4488 0.7727 0.4488
vn 0.1280 0.1280 0.9835
vn 0.9835 0.1280 0.1280
vn 0.1280 0.9835 0.1280
vn 0.4916 0.1216 0.8623
vn 0.1216 0.4916 0.8623
vn 0.4488 0.4488 0.7727
vn 0.8623 0.4916 0.1216
vn 0.8623 0.1216 0.4916
vn 0.7727 0.4488 0.4488
vn 0.1216 0.8623 0.4916
vn 0.4916 0.8623 0.1216
vn 0.4488 0.7727 0.4488
vn 0.9835 0.1280 -0.1280
vn 0.1280 0.1280 -0.9835
vn 0.1280 0.9835 -0.1280
vn 0.8623 0.1216 -0.4916
vn 0.8623 0.4916 -0.1216
vn 0.7727 0.4488 -0.4488
vn 0.1216 0.4916 -0.8623
vn 0.4916 0.1216 -0.8623
vn 0.4488 0.4488 -0.7727
vn 0.4916 0.8623 -0.1216
vn 0.1216 0.8623 -0.4916
vn 0.4488 0.7727 -0.4488
vn -0.9835 0.1280 -0.1280
vn -0.1280 0.9835 -0.1280
vn -0.1280 0.1280 -0.9835
vn -0.8623 0.4916 -0.1216
vn -0.8623 0.1216 -0.4916
vn -0.7727 0.4488 -0.4488
vn -0.1216 0.8623 -0.4916
vn -0.4916 0.8623 -0.1216
vn -0.4488 0.7727 -0.4488
vn -0.4916 0.1216 -0.8623
vn -0.1216 0.4916 -0.8623
vn -0.4488 0.4488 -0.7727
vt -0.350000 0.350000
vt 0.350000 -0.350000
vt -0.350000 -0.350000
vt 0.350000 0.350000
vt -0.424902 -0.350000
vt -0.350000 -0.424902
vt -0.460495 -0.421732
vt -0.479961 -0.350000
vt -0.350000 -0.479961
vt -0.421732 -0.421732
vt -0.421732 -0.460495
vt 0.350000 -0.424902
vt 0.424902 -0.350000
vt 0.421732 -0.460495
vt 0.350000 -0.479961
vt 0.460495 -0.421732
vt 0.479961 -0.350000
vt 0.424902 0.350000
vt 0.460495 0.421732
vt 0.479961 0.350000
vt 0.350000 0.424902
vt 0.421732 -0.421732
vt -0.350000 0.424902
vt -0.421732 0.460495
vt -0.350000 0.479961
vt -0.424902 0.350000
vt -0.460495 0.421732
vt -0.479961 0.350000
vt -0.421732 0.421732
vt 0.350000 0.479961
vt 0.421732 0.421732
vt 0.421732 0.460495
s 1
usemtl ClayMat_36
f 49/1/49 37/2/37 2/3/2
f 39/1/39 14/2/14 3/3/3
f 63/2/63 86/1/86 51/3/51
f 38/3/38 74/4/74 25/2/25
f 26/2/26 62/1/62 15/3/15
f 4/5/4 5/6/5 1/3/1
f 8/5/8 6/7/6 4/8/4
f 7/6/7 8/5/8 2/3/2
f 11/5/11 9/7/9 7/8/7
f 10/6/10 11/5/11 3/3/3
f 10/9/10 6/10/6 12/11/12
f 6/7/6 9/10/9 12/11/12
f 16/12/16 17/13/17 13/2/13
f 20/12/20 18/14/18 16/15/16
f 19/13/19 20/12/20 14/2/14
f 19/9/19 24/10/24 21/11/21
f 22/5/22 23/6/23 15/3/15
f 17/13/17 24/16/24 22/17/22
f 18/7/18 21/11/21 24/10/24
f 28/13/28 29/12/29 25/2/25
f 32/13/32 30/16/30 28/17/28
f 31/12/31 32/13/32 26/2/26
f 35/18/35 33/19/33 31/20/31
f 34/21/34 35/18/35 27/4/27
f 34/15/34 30/22/30 36/14/36
f 30/16/30 33/22/33 36/14/36
f 40/13/40 41/12/41 37/2/37
f 44/5/44 42/7/42 40/8/40
f 43/6/43 44/5/44 38/3/38
f 47/23/47 45/24/45 43/25/43
f 46/26/46 47/23/47 39/1/39
f 46/15/46 42/22/42 48/14/48
f 42/22/42 45/16/45 48/14/48
f 52/26/52 53/23/53 49/1/49
f 56/26/56 54/27/54 52/28/52
f 55/23/55 56/26/56 50/1/50
f 59/6/59 57/11/57 55/9/55
f 58/5/58 59/6/59 51/3/51
f 58/25/58 54/29/54 60/24/60
f 54/29/54 57/27/57 60/24/60
f 64/18/64 65/21/65 61/4/61
f 68/26/68 66/27/66 64/28/64
f 67/23/67 68/26/68 62/1/62
f 71/13/71 69/16/69 67/17/67
f 70/12/70 71/13/71 63/2/63
f 70/30/70 66/31/66 72/32/72
f 66/27/66 69/29/69 72/24/72
f 76/18/76 77/21/77 73/4/73
f 80/18/80 78/19/78 76/20/76
f 79/21/79 80/18/80 74/4/74
f 83/21/83 81/32/81 79/30/79
f 82/18/82 83/21/83 75/4/75
f 82/30/82 78/31/78 84/32/84
f 78/31/78 81/19/81 84/32/84
f 88/21/88 89/18/89 85/4/85
f 92/26/92 90/27/90 88/28/88
f 91/23/91 92/26/92 86/1/86
f 91/25/91 96/29/96 93/24/93
f 94/26/94 95/23/95 87/1/87
f 89/18/89 96/19/96 94/20/94
f 90/31/90 93/32/93 96/19/96
f 1/3/1 16/12/16 13/2/13
f 5/6/5 20/15/20 16/12/16
f 10/6/10 14/2/14 20/12/20
f 37/2/37 7/6/7 2/3/2
f 41/12/41 11/9/11 7/6/7
f 46/26/46 3/3/3 11/5/11
f 25/2/25 43/6/43 38/3/38
f 29/12/29 47/9/47 43/6/43
f 34/21/34 39/1/39 47/23/47
f 15/3/15 31/12/31 26/2/26
f 23/6/23 35/15/35 31/12/31
f 19/13/19 27/4/27 35/18/35
f 49/1/49 88/21/88 85/4/85
f 53/23/53 92/30/92 88/21/88
f 58/5/58 86/1/86 92/26/92
f 61/4/61 55/23/55 50/1/50
f 65/21/65 59/25/59 55/23/55
f 70/12/70 51/3/51 59/6/59
f 73/4/73 67/23/67 62/1/62
f 77/21/77 71/25/71 67/23/67
f 82/18/82 63/2/63 71/13/71
f 87/1/87 79/21/79 74/4/74
f 95/23/95 83/30/83 79/21/79
f 91/23/91 75/4/75 83/21/83
f 2/3/2 52/26/52 49/1/49
f 8/5/8 56/28/56 52/26/52
f 4/5/4 50/1/50 56/26/56
f 62/1/62 22/5/22 15/3/15
f 68/26/68 17/8/17 22/5/22
f 64/18/64 13/2/13 17/13/17
f 26/2/26 76/18/76 73/4/73
f 32/13/32 80/20/80 76/18/76
f 28/13/28 74/4/74 80/18/80
f 85/4/85 40/13/40 37/2/37
f 89/18/89 44/17/44 40/13/40
f 94/26/94 38/3/38 44/5/44
f 13/2/13 50/1/50 1/3/1
f 49/1/49 85/4/85 37/2/37
f 39/1/39 27/4/27 14/2/14
f 63/2/63 75/4/75 86/1/86
f 38/3/38 87/1/87 74/4/74
f 26/2/26 73/4/73 62/1/62
f 4/5/4 6/10/6 5/6/5
f 8/5/8 9/10/9 6/7/6
f 7/6/7 9/10/9 8/5/8
f 11/9/11 12/11/12 9/10/9
f 10/6/10 12/10/12 11/5/11
f 10/9/10 5/6/5 6/10/6
f 16/12/16 18/22/18 17/13/17
f 20/15/20 21/14/21 18/22/18
f 19/13/19 21/22/21 20/12/20
f 19/9/19 23/6/23 24/10/24
f 22/5/22 24/10/24 23/6/23
f 17/8/17 18/7/18 24/10/24
f 28/13/28 30/22/30 29/12/29
f 32/13/32 33/22/33 30/16/30
f 31/12/31 33/22/33 32/13/32
f 35/15/35 36/14/36 33/22/33
f 34/21/34 36/31/36 35/18/35
f 34/15/34 29/12/29 30/22/30
f 40/13/40 42/22/42 41/12/41
f 44/17/44 45/16/45 42/22/42
f 43/6/43 45/10/45 44/5/44
f 47/9/47 48/11/48 45/10/45
f 46/26/46 48/29/48 47/23/47
f 46/15/46 41/12/41 42/22/42
f 52/26/52 54/29/54 53/23/53
f 56/28/56 57/27/57 54/29/54
f 55/23/55 57/29/57 56/26/56
f 59/25/59 60/24/60 57/29/57
f 58/5/58 60/10/60 59/6/59
f 58/25/58 53/23/53 54/29/54
f 64/18/64 66/31/66 65/21/65
f 68/26/68 69/29/69 66/27/66
f 67/23/67 69/29/69 68/26/68
f 71/25/71 72/24/72 69/29/69
f 70/12/70 72/22/72 71/13/71
f 70/30/70 65/21/65 66/31/66
f 76/18/76 78/31/78 77/21/77
f 80/20/80 81/19/81 78/31/78
f 79/21/79 81/31/81 80/18/80
f 83/30/83 84/32/84 81/31/81
f 82/18/82 84/31/84 83/21/83
f 82/30/82 77/21/77 78/31/78
f 88/21/88 90/31/90 89/18/89
f 92/30/92 93/32/93 90/31/90
f 91/23/91 93/29/93 92/26/92
f 91/25/91 95/23/95 96/29/96
f 94/26/94 96/29/96 95/23/95
f 89/18/89 90/31/90 96/19/96
f 1/3/1 5/6/5 16/12/16
f 5/6/5 10/9/10 20/15/20
f 10/6/10 3/3/3 14/2/14
f 37/2/37 41/12/41 7/6/7
f 41/12/41 46/15/46 11/9/11
f 46/26/46 39/1/39 3/3/3
f 25/2/25 29/12/29 43/6/43
f 29/12/29 34/15/34 47/9/47
f 34/21/34 27/4/27 39/1/39
f 15/3/15 23/6/23 31/12/31
f 23/6/23 19/9/19 35/15/35
f 19/13/19 14/2/14 27/4/27
f 49/1/49 53/23/53 88/21/88
f 53/23/53 58/25/58 92/30/92
f 58/5/58 51/3/51 86/1/86
f 61/4/61 65/21/65 55/23/55
f 65/21/65 70/30/70 59/25/59
f 70/12/70 63/2/63 51/3/51
f 73/4/73 77/21/77 67/23/67
f 77/21/77 82/30/82 71/25/71
f 82/18/82 75/4/75 63/2/63
f 87/1/87 95/23/95 79/21/79
f 95/23/95 91/25/91 83/30/83
f 91/23/91 86/1/86 75/4/75
f 2/3/2 8/5/8 52/26/52
f 8/5/8 4/8/4 56/28/56
f 4/5/4 1/3/1 50/1/50
f 62/1/62 68/26/68 22/5/22
f 68/26/68 64/28/64 17/8/17
f 64/18/64 61/4/61 13/2/13
f 26/2/26 32/13/32 76/18/76
f 32/13/32 28/17/28 80/20/80
f 28/13/28 25/2/25 74/4/74
f 85/4/85 89/18/89 40/13/40
f 89/18/89 94/20/94 44/17/44
f 94/26/94 87/1/87 38/3/38
f 13/2/13 61/4/61 50/1/50
