# Blender 4.5.3 LTS
# www.blender.org
mtllib __clay_block_03_5.mtl
o clay_block_5
v -0.350000 -0.500000 0.500000
v -0.500000 -0.350000 0.500000
v -0.425000 -0.479904 0.500000
v -0.479904 -0.425000 0.500000
v 0.500000 -0.350000 0.500000
v 0.350000 -0.500000 0.500000
v 0.479904 -0.425000 0.500000
v 0.425000 -0.479904 0.500000
v 0.350000 -0.350000 -0.500000
v 0.500000 -0.350000 -0.350000
v 0.350000 -0.500000 -0.350000
v 0.424902 -0.350000 -0.479961
v 0.350000 -0.424902 -0.479961
v 0.421732 -0.421732 -0.460495
v 0.479961 -0.424902 -0.350000
v 0.479961 -0.350000 -0.424902
v 0.460495 -0.421732 -0.421732
v 0.350000 -0.479961 -0.424902
v 0.424902 -0.479961 -0.350000
v 0.421732 -0.460495 -0.421732
v -0.500000 -0.350000 -0.350000
v -0.350000 -0.350000 -0.500000
v -0.350000 -0.500000 -0.350000
v -0.479961 -0.350000 -0.424902
v -0.479961 -0.424902 -0.350000
v -0.460495 -0.421732 -0.421732
v -0.350000 -0.424902 -0.479961
v -0.424902 -0.350000 -0.479961
v -0.421732 -0.421732 -0.460495
v -0.424902 -0.479961 -0.350000
v -0.350000 -0.479961 -0.424902
v -0.421732 -0.460495 -0.421732
v -0.500000 0.350000 0.650000
v -0.350000 0.500000 0.500000
v -0.479904 0.425000 0.575000
v -0.425000 0.479904 0.520096
v 0.350000 0.500000 -0.350000
v 0.500000 0.350000 -0.350000
v 0.350000 0.350000 -0.500000
v 0.424902 0.479961 -0.350000
v 0.350000 0.479961 -0.424902
v 0.421732 0.460495 -0.421732
v 0.479961 0.350000 -0.424902
v 0.479961 0.424902 -0.350000
v 0.460495 0.421732 -0.421732
v 0.350000 0.424902 -0.479961
v 0.424902 0.350000 -0.479961
v 0.421732 0.421732 -0.460495
v -0.500000 0.350000 -0.350000
v -0.350000 0.500000 -0.350000
v -0.350000 0.350000 -0.500000
v -0.479961 0.424902 -0.350000
v -0.479961 0.350000 -0.424902
v -0.460495 0.421732 -0.421732
v -0.350000 0.479961 -0.424902
v -0.424902 0.479961 -0.350000
v -0.421732 0.460495 -0.421732
v -0.424902 0.350000 -0.479961
v -0.350000 0.424902 -0.479961
v -0.421732 0.421732 -0.460495
v -0.350000 -0.500000 1.350000
v -0.350000 -0.350000 1.500000
v -0.500000 -0.350000 1.350000
v -0.350000 -0.479961 1.424901
v -0.424902 -0.479961 1.350000
v -0.421732 -0.460495 1.421732
v -0.424902 -0.350000 1.479960
v -0.350000 -0.424902 1.479960
v -0.421732 -0.421732 1.460495
v -0.479961 -0.424902 1.350000
v -0.479961 -0.350000 1.424901
v -0.460495 -0.421732 1.421732
v 0.350000 -0.350000 1.500000
v 0.350000 -0.500000 1.350000
v 0.500000 -0.350000 1.350000
v 0.350000 -0.424902 1.479960
v 0.424902 -0.350000 1.479960
v 0.421732 -0.421732 1.460495
v 0.424902 -0.479961 1.350000
v 0.350000 -0.479961 1.424901
v 0.421732 -0.460495 1.421732
v 0.479961 -0.350000 1.424901
v 0.479961 -0.424902 1.350000
v 0.460495 -0.421732 1.421732
v -0.350000 0.500000 1.500000
v -0.500000 0.500000 1.350000
v -0.425000 0.500000 1.479904
v -0.479904 0.500000 1.425000
v 0.350000 0.500000 0.500000
v 0.500000 0.350000 0.650000
v 0.425000 0.479904 0.520096
v 0.479904 0.425000 0.575000
v 0.350000 0.500000 1.500000
v 0.500000 0.500000 1.350000
v 0.425000 0.500000 1.479904
v 0.479904 0.500000 1.425000
v -0.500000 1.350000 1.350000
v -0.350000 1.350000 1.500000
v -0.350000 1.500000 1.350000
v -0.479961 1.350000 1.424901
v -0.479961 1.424901 1.350000
v -0.460495 1.421732 1.421732
v -0.350000 1.424901 1.479960
v -0.424902 1.350000 1.479960
v -0.421732 1.421732 1.460495
v -0.424902 1.479960 1.350000
v -0.350000 1.479960 1.424901
v -0.421732 1.460495 1.421732
v 0.350000 1.350000 1.500000
v 0.500000 1.350000 1.350000
v 0.350000 1.500000 1.350000
v 0.424902 1.350000 1.479960
v 0.350000 1.424901 1.479960
v 0.421732 1.421732 1.460495
v 0.479961 1.424901 1.350000
v 0.479961 1.350000 1.424901
v 0.460495 1.421732 1.421732
v 0.350000 1.479960 1.424901
v 0.424902 1.479960 1.350000
v 0.421732 1.460495 1.421732
v 0.500000 1.350000 0.650000
v 0.350000 1.350000 0.500000
v 0.350000 1.500000 0.650000
v 0.479961 1.350000 0.575098
v 0.479961 1.424901 0.650000
v 0.460495 1.421732 0.578268
v 0.350000 1.424901 0.520039
v 0.424902 1.350000 0.520039
v 0.421732 1.421732 0.539505
v 0.424902 1.479960 0.650000
v 0.350000 1.479960 0.575098
v 0.421732 1.460495 0.578268
v -0.500000 1.350000 0.650000
v -0.350000 1.500000 0.650000
v -0.350000 1.350000 0.500000
v -0.479961 1.424901 0.650000
v -0.479961 1.350000 0.575098
v -0.460495 1.421732 0.578268
v -0.350000 1.479960 0.575098
v -0.424902 1.479960 0.650000
v -0.421732 1.460495 0.578268
v -0.424902 1.350000 0.520039
v -0.350000 1.424901 0.520039
v -0.421732 1.421732 0.539505
vn -0.1185 -0.8999 0.4196
vn -0.8934 -0.1273 0.4308
vn -0.4591 -0.7952 0.3961
vn -0.7952 -0.4591 0.3961
vn 0.8934 -0.1273 0.4308
vn 0.1185 -0.8999 0.4196
vn 0.7952 -0.4591 0.3961
vn 0.4591 -0.7952 0.3961
vn 0.1280 -0.1280 -0.9835
vn 0.9835 -0.1280 -0.1280
vn 0.1280 -0.9835 -0.1280
vn 0.4916 -0.1216 -0.8623
vn 0.1216 -0.4916 -0.8623
vn 0.4488 -0.4488 -0.7727
vn 0.8623 -0.4916 -0.1216
vn 0.8623 -0.1216 -0.4916
vn 0.7727 -0.4488 -0.4488
vn 0.1216 -0.8623 -0.4916
vn 0.4916 -0.8623 -0.1216
vn 0.4488 -0.7727 -0.4488
vn -0.9835 -0.1280 -0.1280
vn -0.1280 -0.1280 -0.9835
vn -0.1280 -0.9835 -0.1280
vn -0.8623 -0.1216 -0.4916
vn -0.8623 -0.4916 -0.1216
vn -0.7727 -0.4488 -0.4488
vn -0.1216 -0.4916 -0.8623
vn -0.4916 -0.1216 -0.8623
vn -0.4488 -0.4488 -0.7727
vn -0.4916 -0.8623 -0.1216
vn -0.1216 -0.8623 -0.4916
vn -0.4488 -0.7727 -0.4488
vn -0.9581 0.2318 0.1682
vn -0.1565 0.9798 -0.1248
vn -0.8740 0.4765 0.0950
vn -0.6236 0.7635 -0.1680
vn 0.1280 0.9835 -0.1280
vn 0.9835 0.1280 -0.1280
vn 0.1280 0.1280 -0.9835
vn 0.4916 0.8623 -0.1216
vn 0.1216 0.8623 -0.4916
vn 0.4488 0.7727 -0.4488
vn 0.8623 0.1216 -0.4916
vn 0.8623 0.4916 -0.1216
vn 0.7727 0.4488 -0.4488
vn 0.1216 0.4916 -0.8623
vn 0.4916 0.1216 -0.8623
vn 0.4488 0.4488 -0.7727
vn -0.9835 0.1280 -0.1280
vn -0.1280 0.9835 -0.1280
vn -0.1280 0.1280 -0.9835
vn -0.8623 0.4916 -0.1216
vn -0.8623 0.1216 -0.4916
vn -0.7727 0.4488 -0.4488
vn -0.1216 0.8623 -0.4916
vn -0.4916 0.8623 -0.1216
vn -0.4488 0.7727 -0.4488
vn -0.4916 0.1216 -0.8623
vn -0.1216 0.4916 -0.8623
vn -0.4488 0.4488 -0.7727
vn -0.1280 -0.9835 0.1280
vn -0.1280 -0.1280 0.9835
vn -0.9835 -0.1280 0.1280
vn -0.1216 -0.8623 0.4916
vn -0.4916 -0.8623 0.1216
vn -0.4488 -0.7727 0.4488
vn -0.4916 -0.1216 0.8623
vn -0.1216 -0.4916 0.8623
vn -0.4488 -0.4488 0.7727
vn -0.8623 -0.4916 0.1216
vn -0.8623 -0.1216 0.4916
vn -0.7727 -0.4488 0.4488
vn 0.1280 -0.1280 0.9835
vn 0.1280 -0.9835 0.1280
vn 0.9835 -0.1280 0.1280
vn 0.1216 -0.4916 0.8623
vn 0.4916 -0.1216 0.8623
vn 0.4488 -0.4488 0.7727
vn 0.4916 -0.8623 0.1216
vn 0.1216 -0.8623 0.4916
vn 0.4488 -0.7727 0.4488
vn 0.8623 -0.1216 0.4916
vn 0.8623 -0.4916 0.1216
vn 0.7727 -0.4488 0.4488
vn -0.1185 0.4196 0.8999
vn -0.9062 0.4083 0.1102
vn -0.4591 0.3961 0.7952
vn -0.7952 0.3961 0.4591
vn 0.1565 0.9798 -0.1248
vn 0.9581 0.2318 0.1682
vn 0.6236 0.7635 -0.1680
vn 0.8740 0.4765 0.0950
vn 0.1185 0.4196 0.8999
vn 0.9062 0.4083 0.1102
vn 0.4591 0.3961 0.7952
vn 0.7952 0.3961 0.4591
vn -0.9835 0.1280 0.1280
vn -0.1280 0.1280 0.9835
vn -0.1280 0.9835 0.1280
vn -0.8623 0.1216 0.4916
vn -0.8623 0.4916 0.1216
vn -0.7727 0.4488 0.4488
vn -0.1216 0.4916 0.8623
vn -0.4916 0.1216 0.8623
vn -0.4488 0.4488 0.7727
vn -0.4916 0.8623 0.1216
vn -0.1216 0.8623 0.4916
vn -0.4488 0.7727 0.4488
vn 0.1280 0.1280 0.9835
vn 0.9835 0.1280 0.1280
vn 0.1280 0.9835 0.1280
vn 0.4916 0.1216 0.8623
vn 0.1216 0.4916 0.8623
vn 0.4488 0.4488 0.7727
vn 0.8623 0.4916 0.1216
vn 0.8623 0.1216 0.4916
vn 0.7727 0.4488 0.4488
vn 0.1216 0.8623 0.4916
vn 0.4916 0.8623 0.1216
vn 0.4488 0.7727 0.4488
vt 0.424902 -0.350000
vt 0.350000 -0.424902
vt 0.350000 -0.350000
vt 0.460495 -0.421732
vt 0.479961 -0.350000
vt 0.424902 0.350000
vt 0.460495 0.421732
vt 0.479961 0.350000
vt 0.350000 0.424902
vt 0.350000 0.350000
vt 0.350000 -0.479961
vt 0.421732 -0.421732
vt 0.421732 -0.460495
vt -0.424902 -0.350000
vt -0.460495 -0.421732
vt -0.479961 -0.350000
vt -0.350000 -0.424902
vt -0.350000 -0.350000
vt -0.350000 0.424902
vt -0.421732 0.460495
vt -0.350000 0.479961
vt -0.424902 0.350000
vt -0.350000 0.350000
vt 0.350000 0.479961
vt 0.421732 0.421732
vt 0.421732 0.460495
vt -0.460495 0.421732
vt -0.479961 0.350000
vt -0.421732 0.421732
vt -0.350000 -1.424901
vt -0.424902 -1.350000
vt -0.350000 -1.350000
vt -0.421732 -0.460495
vt -0.350000 -0.479961
vt -0.421732 -0.421732
vt -1.350000 -0.424902
vt -1.424901 -0.350000
vt -1.350000 -0.350000
vt -1.350000 -0.479961
vt -1.421732 -0.421732
vt -1.421732 -0.460495
vt -1.460495 -0.421732
vt 0.350000 -1.479960
vt 0.421732 -1.421732
vt 0.421732 -1.460495
vt 0.424902 -1.350000
vt 0.350000 -1.424901
vt 0.350000 -1.350000
vt -1.424901 1.350000
vt -1.350000 1.424901
vt -1.350000 1.350000
vt -0.424902 1.350000
vt -0.460495 1.421732
vt -0.479961 1.350000
vt -0.350000 1.424901
vt -0.350000 1.350000
vt -0.421732 1.460495
vt -0.421732 1.421732
vt -1.350000 1.479960
vt -1.421732 1.421732
vt -1.421732 1.460495
vt -1.460495 1.421732
vt 0.424902 1.350000
vt 0.350000 1.424901
vt 0.350000 1.350000
vt 0.479961 1.350000
vt 0.421732 1.421732
vt 0.460495 -1.421732
vt 0.479961 -1.350000
vt 0.421732 1.460495
vt 0.350000 1.479960
vt -0.575098 1.350000
vt -0.650000 1.424901
vt -0.650000 1.350000
vt 0.460495 1.421732
vt 0.424902 -0.650000
vt 0.350000 -0.575098
vt 0.350000 -0.650000
vt 0.479961 -0.650000
vt 0.421732 -0.578268
vt -0.578268 1.460495
vt -0.578268 1.421732
vt -0.350000 -0.575098
vt -0.424902 -0.650000
vt -0.350000 -0.650000
vt -0.350000 1.479960
vt -0.500000 -0.350000
vt -0.500000 -0.425000
vt -0.500000 -0.479904
vt -0.350000 -0.500000
vt -0.425000 -0.500000
vt 0.350000 -0.500000
vt -0.575000 0.425000
vt -0.520096 0.479904
vt -1.350000 0.500000
vt -1.425000 0.500000
vt -0.425000 0.500000
vt -0.479904 0.500000
vt -0.350000 0.500000
vt -0.479961 -1.350000
vt -0.479961 -0.650000
vt 0.479904 0.500000
vt 0.425000 0.500000
vt 0.350000 0.500000
vt -0.650000 0.350000
vt 0.425000 -0.520096
vt 0.425000 -0.500000
vt 0.425000 0.479904
vt -0.425000 0.479904
vt 0.500000 -0.350000
vt 0.350000 -1.500000
vt 0.500000 -1.350000
vt -0.421732 -1.421732
vt -0.350000 -1.479960
vt -0.421732 -1.460495
vt -1.479960 1.350000
vt -0.460495 -1.421732
vt -0.421732 -0.578268
vt -0.425000 -0.520096
vt -0.500000 0.500000
vt -0.479904 -0.425000
vt -0.425000 -0.479904
vt 0.425000 -0.479904
vt 0.479904 -0.425000
vt 0.500000 0.350000
vt 0.479904 0.425000
vt -0.500000 0.350000
vt -0.479904 0.425000
vt -0.500000 -1.350000
vt -0.479904 -1.425000
vt -0.350000 -1.500000
vt -0.425000 -1.479904
vt 0.425000 -1.479904
vt 0.479904 -1.425000
s 1
usemtl ClayMat_5
f 12/1/12 13/2/13 9/3/9
f 16/1/16 14/4/14 12/5/12
f 15/2/15 16/1/16 10/3/10
f 19/6/19 17/7/17 15/8/15
f 18/9/18 19/6/19 11/10/11
f 18/11/18 14/12/14 20/13/20
f 14/4/14 17/12/17 20/13/20
f 24/1/24 25/2/25 21/3/21
f 28/14/28 26/15/26 24/16/24
f 27/17/27 28/14/28 22/18/22
f 31/19/31 29/20/29 27/21/27
f 30/22/30 31/19/31 23/23/23
f 30/11/30 26/12/26 32/13/32
f 26/12/26 29/4/29 32/13/32
f 40/6/40 41/9/41 37/10/37
f 40/24/40 45/25/45 42/26/42
f 43/6/43 44/9/44 38/10/38
f 47/6/47 45/7/45 43/8/43
f 46/9/46 47/6/47 39/10/39
f 41/9/41 48/26/48 46/24/46
f 42/26/42 45/25/45 48/7/48
f 52/9/52 53/6/53 49/10/49
f 56/22/56 54/27/54 52/28/52
f 55/19/55 56/22/56 50/23/50
f 55/21/55 60/29/60 57/20/57
f 58/22/58 59/19/59 51/23/51
f 53/6/53 60/7/60 58/8/58
f 54/25/54 57/26/57 60/7/60
f 64/30/64 65/31/65 61/32/61
f 68/17/68 66/33/66 64/34/64
f 67/14/67 68/17/68 62/18/62
f 71/16/71 69/35/69 67/14/67
f 70/36/70 71/37/71 63/38/63
f 65/39/65 72/40/72 70/36/70
f 66/41/66 69/42/69 72/40/72
f 76/2/76 77/1/77 73/3/73
f 76/43/76 81/44/81 78/45/78
f 79/46/79 80/47/80 74/48/74
f 79/39/79 84/40/84 81/41/81
f 82/37/82 83/36/83 75/38/75
f 82/37/82 78/42/78 84/40/84
f 78/42/78 81/41/81 84/40/84
f 100/49/100 101/50/101 97/51/97
f 104/52/104 102/53/102 100/54/100
f 103/55/103 104/52/104 98/56/98
f 103/55/103 108/57/108 105/58/105
f 106/31/106 107/30/107 99/32/99
f 106/59/106 102/60/102 108/61/108
f 102/60/102 105/62/105 108/61/108
f 112/63/112 113/64/113 109/65/109
f 116/66/116 114/67/114 112/63/112
f 115/50/115 116/49/116 110/51/110
f 119/46/119 117/68/117 115/69/115
f 118/47/118 119/46/119 111/48/111
f 113/64/113 120/70/120 118/71/118
f 114/62/114 117/60/117 120/61/120
f 124/72/43 125/73/44 121/74/38
f 124/66/43 129/67/48 126/75/45
f 127/64/46 128/63/47 122/65/39
f 127/64/46 132/70/42 129/67/48
f 130/76/40 131/77/41 123/78/37
f 125/79/44 132/80/42 130/76/40
f 126/75/45 129/67/48 132/70/42
f 136/73/52 137/72/53 133/74/49
f 136/73/52 141/81/57 138/82/54
f 139/83/55 140/84/56 134/85/50
f 143/55/59 141/57/57 139/86/55
f 142/52/58 143/55/59 135/56/51
f 142/52/58 138/53/54 144/58/60
f 138/53/54 141/57/57 144/58/60
f 2/87/2 25/2/25 4/88/4
f 25/2/25 3/89/3 4/88/4
f 30/22/30 1/90/1 3/91/3
f 9/3/9 27/17/27 22/18/22
f 13/2/13 31/34/31 27/17/27
f 18/9/18 23/23/23 31/19/31
f 5/87/5 15/2/15 10/3/10
f 7/88/7 19/11/19 15/2/15
f 19/6/19 6/92/6 11/10/11
f 49/10/49 35/93/35 52/9/52
f 52/9/52 36/94/36 56/24/56
f 56/22/56 34/90/34 50/23/50
f 51/23/51 46/9/46 39/10/39
f 59/19/59 41/24/41 46/9/46
f 55/19/55 37/10/37 41/9/41
f 10/3/10 43/6/43 38/10/38
f 16/1/16 47/8/47 43/6/43
f 12/1/12 39/10/39 47/6/47
f 49/10/49 24/1/24 21/3/21
f 53/6/53 28/5/28 24/1/24
f 58/22/58 22/18/22 28/14/28
f 73/3/73 68/17/68 76/2/76
f 68/17/68 80/11/80 76/2/76
f 64/30/64 74/48/74 80/47/80
f 86/95/86 71/37/71 88/96/88
f 71/16/71 87/97/87 88/98/88
f 67/14/67 85/99/85 87/97/87
f 97/51/97 136/73/52 133/74/49
f 101/100/101 140/84/56 136/101/52
f 106/31/106 134/85/50 140/84/56
f 109/65/109 103/55/103 98/56/98
f 113/64/113 107/86/107 103/55/103
f 118/47/118 99/32/99 107/30/107
f 121/74/38 115/50/115 110/51/110
f 125/79/44 119/46/119 115/69/115
f 119/46/119 123/78/37 111/48/111
f 135/56/51 127/64/46 122/65/39
f 143/55/59 131/71/41 127/64/46
f 139/83/55 123/78/37 131/77/41
f 94/95/94 116/49/116 96/96/96
f 96/102/96 112/63/112 95/103/95
f 112/63/112 93/104/93 95/103/95
f 38/10/38 92/93/92 90/105/90
f 44/9/44 91/94/91 92/93/92
f 40/6/40 89/92/89 91/106/91
f 2/87/2 70/36/70 63/38/63
f 4/88/4 65/39/65 70/36/70
f 65/31/65 1/90/1 61/32/61
f 5/87/5 83/36/83 7/88/7
f 83/36/83 8/89/8 7/88/7
f 79/46/79 6/92/6 8/107/8
f 94/95/94 82/37/82 75/38/75
f 96/102/96 77/1/77 82/5/82
f 77/1/77 93/104/93 73/3/73
f 86/95/86 100/49/100 97/51/97
f 88/98/88 104/52/104 100/54/100
f 104/52/104 85/99/85 98/56/98
f 121/74/38 92/93/92 124/72/43
f 124/66/43 91/108/91 128/63/47
f 128/63/47 89/104/89 122/65/39
f 133/74/49 35/93/35 33/105/33
f 137/72/53 36/94/36 35/93/35
f 142/52/58 34/99/34 36/109/36
f 1/90/1 74/48/74 61/32/61
f 6/92/6 5/110/5 89/104/89
f 23/23/23 6/92/6 1/90/1
f 2/87/2 49/10/49 21/3/21
f 63/38/63 33/105/33 2/87/2
f 5/87/5 38/10/38 90/105/90
f 75/38/75 90/105/90 94/95/94
f 22/18/22 39/10/39 9/3/9
f 89/92/89 50/23/50 34/90/34
f 86/95/86 133/74/49 33/105/33
f 93/111/93 94/112/94 89/92/89
f 34/99/34 122/65/39 89/104/89
f 73/3/73 85/99/85 62/18/62
f 93/104/93 98/56/98 85/99/85
f 94/95/94 121/74/38 110/51/110
f 111/48/111 134/85/50 99/32/99
f 12/1/12 14/12/14 13/2/13
f 16/1/16 17/12/17 14/4/14
f 15/2/15 17/12/17 16/1/16
f 19/11/19 20/13/20 17/12/17
f 18/9/18 20/25/20 19/6/19
f 18/11/18 13/2/13 14/12/14
f 24/1/24 26/12/26 25/2/25
f 28/5/28 29/4/29 26/12/26
f 27/17/27 29/35/29 28/14/28
f 31/34/31 32/33/32 29/35/29
f 30/22/30 32/29/32 31/19/31
f 30/11/30 25/2/25 26/12/26
f 40/6/40 42/25/42 41/9/41
f 40/24/40 44/9/44 45/25/45
f 43/6/43 45/25/45 44/9/44
f 47/8/47 48/7/48 45/25/45
f 46/9/46 48/25/48 47/6/47
f 41/24/41 42/26/42 48/25/48
f 52/9/52 54/25/54 53/6/53
f 56/24/56 57/26/57 54/25/54
f 55/19/55 57/29/57 56/22/56
f 55/21/55 59/19/59 60/29/60
f 58/22/58 60/29/60 59/19/59
f 53/6/53 54/25/54 60/7/60
f 64/30/64 66/113/66 65/31/65
f 68/114/68 69/115/69 66/113/66
f 67/14/67 69/35/69 68/17/68
f 71/37/71 72/40/72 69/42/69
f 70/36/70 72/40/72 71/37/71
f 65/39/65 66/41/66 72/40/72
f 76/2/76 78/12/78 77/1/77
f 76/2/76 80/11/80 81/13/81
f 79/46/79 81/44/81 80/47/80
f 79/39/79 83/36/83 84/40/84
f 82/37/82 84/40/84 83/36/83
f 82/5/82 77/1/77 78/12/78
f 100/49/100 102/60/102 101/50/101
f 104/116/104 105/62/105 102/60/102
f 103/55/103 105/58/105 104/52/104
f 103/55/103 107/86/107 108/57/108
f 106/31/106 108/113/108 107/30/107
f 106/31/106 101/100/101 102/117/102
f 112/63/112 114/67/114 113/64/113
f 116/49/116 117/60/117 114/62/114
f 115/50/115 117/60/117 116/49/116
f 119/59/119 120/61/120 117/60/117
f 118/47/118 120/44/120 119/46/119
f 113/64/113 114/67/114 120/70/120
f 124/72/43 126/82/45 125/73/44
f 124/66/43 128/63/47 129/67/48
f 127/64/46 129/67/48 128/63/47
f 127/64/46 131/71/41 132/70/42
f 130/76/40 132/80/42 131/77/41
f 125/73/44 126/82/45 132/81/42
f 136/73/52 138/82/54 137/72/53
f 136/101/52 140/84/56 141/118/57
f 139/83/55 141/118/57 140/84/56
f 143/55/59 144/58/60 141/57/57
f 142/52/58 144/58/60 143/55/59
f 142/52/58 137/54/53 138/53/54
f 2/87/2 21/3/21 25/2/25
f 25/2/25 30/11/30 3/89/3
f 30/22/30 23/23/23 1/90/1
f 9/3/9 13/2/13 27/17/27
f 13/2/13 18/11/18 31/34/31
f 18/9/18 11/10/11 23/23/23
f 5/87/5 7/88/7 15/2/15
f 7/88/7 8/89/8 19/11/19
f 19/6/19 8/107/8 6/92/6
f 49/10/49 33/105/33 35/93/35
f 52/9/52 35/93/35 36/94/36
f 56/22/56 36/119/36 34/90/34
f 51/23/51 59/19/59 46/9/46
f 59/19/59 55/21/55 41/24/41
f 55/19/55 50/23/50 37/10/37
f 10/3/10 16/1/16 43/6/43
f 16/1/16 12/5/12 47/8/47
f 12/1/12 9/3/9 39/10/39
f 49/10/49 53/6/53 24/1/24
f 53/6/53 58/8/58 28/5/28
f 58/22/58 51/23/51 22/18/22
f 73/3/73 62/18/62 68/17/68
f 68/17/68 64/34/64 80/11/80
f 64/30/64 61/32/61 74/48/74
f 86/95/86 63/38/63 71/37/71
f 71/16/71 67/14/67 87/97/87
f 67/14/67 62/18/62 85/99/85
f 97/51/97 101/50/101 136/73/52
f 101/100/101 106/31/106 140/84/56
f 106/31/106 99/32/99 134/85/50
f 109/65/109 113/64/113 103/55/103
f 113/64/113 118/71/118 107/86/107
f 118/47/118 111/48/111 99/32/99
f 121/74/38 125/73/44 115/50/115
f 125/79/44 130/76/40 119/46/119
f 119/46/119 130/76/40 123/78/37
f 135/56/51 143/55/59 127/64/46
f 143/55/59 139/86/55 131/71/41
f 139/83/55 134/85/50 123/78/37
f 94/95/94 110/51/110 116/49/116
f 96/102/96 116/66/116 112/63/112
f 112/63/112 109/65/109 93/104/93
f 38/10/38 44/9/44 92/93/92
f 44/9/44 40/24/40 91/94/91
f 40/6/40 37/10/37 89/92/89
f 2/87/2 4/88/4 70/36/70
f 4/88/4 3/89/3 65/39/65
f 65/31/65 3/91/3 1/90/1
f 5/87/5 75/38/75 83/36/83
f 83/36/83 79/39/79 8/89/8
f 79/46/79 74/48/74 6/92/6
f 94/95/94 96/96/96 82/37/82
f 96/102/96 95/103/95 77/1/77
f 77/1/77 95/103/95 93/104/93
f 86/95/86 88/96/88 100/49/100
f 88/98/88 87/97/87 104/52/104
f 104/52/104 87/97/87 85/99/85
f 121/74/38 90/105/90 92/93/92
f 124/72/43 92/93/92 91/94/91
f 128/63/47 91/108/91 89/104/89
f 133/74/49 137/72/53 35/93/35
f 137/54/53 142/52/58 36/109/36
f 142/52/58 135/56/51 34/99/34
f 1/90/1 6/92/6 74/48/74
f 33/105/33 2/87/2 34/120/34
f 2/87/2 4/121/4 1/90/1
f 4/121/4 3/122/3 1/90/1
f 1/90/1 6/92/6 34/99/34
f 6/92/6 8/123/8 5/110/5
f 8/123/8 7/124/7 5/110/5
f 5/87/5 90/105/90 89/120/89
f 90/125/90 92/126/92 91/108/91
f 89/104/89 90/125/90 91/108/91
f 89/104/89 34/99/34 6/92/6
f 34/99/34 36/109/36 33/127/33
f 36/109/36 35/128/35 33/127/33
f 2/87/2 1/90/1 34/99/34
f 23/23/23 11/10/11 6/92/6
f 2/87/2 33/105/33 49/10/49
f 63/38/63 86/95/86 33/105/33
f 5/87/5 10/3/10 38/10/38
f 75/38/75 5/87/5 90/105/90
f 22/18/22 51/23/51 39/10/39
f 89/92/89 37/10/37 50/23/50
f 86/95/86 97/51/97 133/74/49
f 33/105/33 86/95/86 34/120/34
f 86/129/86 88/130/88 85/131/85
f 88/130/88 87/132/87 85/131/85
f 85/131/85 93/111/93 34/90/34
f 93/111/93 95/133/95 94/112/94
f 95/133/95 96/134/96 94/112/94
f 94/95/94 90/105/90 89/120/89
f 89/92/89 34/90/34 93/111/93
f 86/129/86 85/131/85 34/90/34
f 34/99/34 135/56/51 122/65/39
f 73/3/73 93/104/93 85/99/85
f 93/104/93 109/65/109 98/56/98
f 94/95/94 90/105/90 121/74/38
f 111/48/111 123/78/37 134/85/50
