# Blender 4.1.1
# www.blender.org
mtllib __clay_block_04_4.mtl
o clay_block_4
v 0.350000 -0.500000 -0.350000
v 0.350000 -0.350000 -0.500000
v 0.500000 -0.350000 -0.350000
v 0.350000 -0.479961 -0.424902
v 0.424902 -0.479961 -0.350000
v 0.421732 -0.460495 -0.421732
v 0.424902 -0.350000 -0.479961
v 0.350000 -0.424902 -0.479961
v 0.421732 -0.421732 -0.460495
v 0.479961 -0.424902 -0.350000
v 0.479961 -0.350000 -0.424902
v 0.460495 -0.421732 -0.421732
v -0.350000 -0.500000 -0.350000
v -0.500000 -0.350000 -0.350000
v -0.350000 -0.350000 -0.500000
v -0.424902 -0.479961 -0.350000
v -0.350000 -0.479961 -0.424902
v -0.421732 -0.460495 -0.421732
v -0.479961 -0.350000 -0.424902
v -0.479961 -0.424902 -0.350000
v -0.460495 -0.421732 -0.421732
v -0.350000 -0.424902 -0.479961
v -0.424902 -0.350000 -0.479961
v -0.421732 -0.421732 -0.460495
v 0.350000 0.500000 -0.350000
v 0.500000 0.350000 -0.350000
v 0.350000 0.350000 -0.500000
v 0.424902 0.479961 -0.350000
v 0.350000 0.479961 -0.424902
v 0.421732 0.460495 -0.421732
v 0.479961 0.350000 -0.424902
v 0.479961 0.424902 -0.350000
v 0.460495 0.421732 -0.421732
v 0.350000 0.424902 -0.479961
v 0.424902 0.350000 -0.479961
v 0.421732 0.421732 -0.460495
v -0.350000 0.500000 -0.350000
v -0.350000 0.350000 -0.500000
v -0.500000 0.350000 -0.350000
v -0.350000 0.479961 -0.424902
v -0.424902 0.479961 -0.350000
v -0.421732 0.460495 -0.421732
v -0.424902 0.350000 -0.479961
v -0.350000 0.424902 -0.479961
v -0.421732 0.421732 -0.460495
v -0.479961 0.424902 -0.350000
v -0.479961 0.350000 -0.424902
v -0.460495 0.421732 -0.421732
v -0.350000 -0.500000 1.500000
v -0.500000 -0.350000 1.500000
v -0.425000 -0.479904 1.500000
v -0.479904 -0.425000 1.500000
v 0.500000 -0.350000 1.500000
v 0.350000 -0.500000 1.500000
v 0.479904 -0.425000 1.500000
v 0.425000 -0.479904 1.500000
v 0.350000 -0.500000 0.500000
v 0.500000 -0.350000 0.500000
v 0.425000 -0.479904 0.500000
v 0.479904 -0.425000 0.500000
v -0.500000 -0.350000 0.500000
v -0.350000 -0.500000 0.500000
v -0.479904 -0.425000 0.500000
v -0.425000 -0.479904 0.500000
v -0.500000 0.350000 1.500000
v -0.350000 0.500000 1.500000
v -0.479904 0.425000 1.500000
v -0.425000 0.479904 1.500000
v 0.350000 0.500000 1.500000
v 0.500000 0.350000 1.500000
v 0.425000 0.479904 1.500000
v 0.479904 0.425000 1.500000
v 0.500000 0.350000 0.500000
v 0.350000 0.500000 0.500000
v 0.479904 0.425000 0.500000
v 0.425000 0.479904 0.500000
v -0.350000 0.500000 0.500000
v -0.500000 0.350000 0.500000
v -0.425000 0.479904 0.500000
v -0.479904 0.425000 0.500000
v 0.500000 -0.350000 2.500000
v 0.350000 -0.500000 2.500000
v 0.479904 -0.425000 2.500000
v 0.425000 -0.479904 2.500000
v -0.500000 0.350000 2.500000
v -0.350000 0.500000 2.500000
v -0.479904 0.425000 2.500000
v -0.425000 0.479904 2.500000
v -0.350000 -0.350000 3.500000
v -0.500000 -0.350000 3.350000
v -0.350000 -0.500000 3.350000
v -0.424902 -0.350000 3.479960
v -0.350000 -0.424902 3.479960
v -0.421732 -0.421732 3.460495
v -0.479961 -0.424902 3.350000
v -0.479961 -0.350000 3.424901
v -0.460495 -0.421732 3.421732
v -0.350000 -0.479961 3.424901
v -0.424902 -0.479961 3.350000
v -0.421732 -0.460495 3.421732
v 0.350000 -0.500000 3.350000
v 0.500000 -0.350000 3.350000
v 0.350000 -0.350000 3.500000
v 0.424902 -0.479961 3.350000
v 0.350000 -0.479961 3.424901
v 0.421732 -0.460495 3.421732
v 0.479961 -0.350000 3.424901
v 0.479961 -0.424902 3.350000
v 0.460495 -0.421732 3.421732
v 0.350000 -0.424902 3.479960
v 0.424902 -0.350000 3.479960
v 0.421732 -0.421732 3.460495
v -0.500000 -0.350000 2.500000
v -0.350000 -0.500000 2.500000
v -0.479904 -0.425000 2.500000
v -0.425000 -0.479904 2.500000
v -0.350000 0.500000 3.350000
v -0.500000 0.350000 3.350000
v -0.350000 0.350000 3.500000
v -0.424902 0.479961 3.350000
v -0.350000 0.479961 3.424901
v -0.421732 0.460495 3.421732
v -0.479961 0.350000 3.424901
v -0.479961 0.424902 3.350000
v -0.460495 0.421732 3.421732
v -0.350000 0.424902 3.479960
v -0.424902 0.350000 3.479960
v -0.421732 0.421732 3.460495
v 0.350000 0.350000 3.500000
v 0.500000 0.350000 3.350000
v 0.350000 0.500000 3.350000
v 0.424902 0.350000 3.479960
v 0.350000 0.424902 3.479960
v 0.421732 0.421732 3.460495
v 0.479961 0.424902 3.350000
v 0.479961 0.350000 3.424901
v 0.460495 0.421732 3.421732
v 0.350000 0.479961 3.424901
v 0.424902 0.479961 3.350000
v 0.421732 0.460495 3.421732
v 0.500000 0.350000 2.500000
v 0.350000 0.500000 2.500000
v 0.479904 0.425000 2.500000
v 0.425000 0.479904 2.500000
vn 0.1280 -0.9835 -0.1280
vn 0.1280 -0.1280 -0.9835
vn 0.9835 -0.1280 -0.1280
vn 0.1216 -0.8623 -0.4916
vn 0.4916 -0.8623 -0.1216
vn 0.4488 -0.7727 -0.4488
vn 0.4916 -0.1216 -0.8623
vn 0.1216 -0.4916 -0.8623
vn 0.4488 -0.4488 -0.7727
vn 0.8623 -0.4916 -0.1216
vn 0.8623 -0.1216 -0.4916
vn 0.7727 -0.4488 -0.4488
vn -0.1280 -0.9835 -0.1280
vn -0.9835 -0.1280 -0.1280
vn -0.1280 -0.1280 -0.9835
vn -0.4916 -0.8623 -0.1216
vn -0.1216 -0.8623 -0.4916
vn -0.4488 -0.7727 -0.4488
vn -0.8623 -0.1216 -0.4916
vn -0.8623 -0.4916 -0.1216
vn -0.7727 -0.4488 -0.4488
vn -0.1216 -0.4916 -0.8623
vn -0.4916 -0.1216 -0.8623
vn -0.4488 -0.4488 -0.7727
vn 0.1280 0.9835 -0.1280
vn 0.9835 0.1280 -0.1280
vn 0.1280 0.1280 -0.9835
vn 0.4916 0.8623 -0.1216
vn 0.1216 0.8623 -0.4916
vn 0.4488 0.7727 -0.4488
vn 0.8623 0.1216 -0.4916
vn 0.8623 0.4916 -0.1216
vn 0.7727 0.4488 -0.4488
vn 0.1216 0.4916 -0.8623
vn 0.4916 0.1216 -0.8623
vn 0.4488 0.4488 -0.7727
vn -0.1280 0.9835 -0.1280
vn -0.1280 0.1280 -0.9835
vn -0.9835 0.1280 -0.1280
vn -0.1216 0.8623 -0.4916
vn -0.4916 0.8623 -0.1216
vn -0.4488 0.7727 -0.4488
vn -0.4916 0.1216 -0.8623
vn -0.1216 0.4916 -0.8623
vn -0.4488 0.4488 -0.7727
vn -0.8623 0.4916 -0.1216
vn -0.8623 0.1216 -0.4916
vn -0.7727 0.4488 -0.4488
vn -0.1185 -0.8999 0.4196
vn -0.8999 -0.1185 0.4196
vn -0.4591 -0.7952 0.3961
vn -0.7952 -0.4591 0.3961
vn 0.8999 -0.1185 0.4196
vn 0.1185 -0.8999 0.4196
vn 0.7952 -0.4591 0.3961
vn 0.4591 -0.7952 0.3961
vn 0.1185 -0.8999 -0.4196
vn 0.8999 -0.1185 -0.4196
vn 0.4591 -0.7952 -0.3961
vn 0.7952 -0.4591 -0.3961
vn -0.8999 -0.1185 -0.4196
vn -0.1185 -0.8999 -0.4196
vn -0.7952 -0.4591 -0.3961
vn -0.4591 -0.7952 -0.3961
vn -0.8999 0.1185 0.4196
vn -0.1185 0.8999 0.4196
vn -0.7952 0.4591 0.3961
vn -0.4591 0.7952 0.3961
vn 0.1185 0.8999 0.4196
vn 0.8999 0.1185 0.4196
vn 0.4591 0.7952 0.3961
vn 0.7952 0.4591 0.3961
vn 0.8999 0.1185 -0.4196
vn 0.1185 0.8999 -0.4196
vn 0.7952 0.4591 -0.3961
vn 0.4591 0.7952 -0.3961
vn -0.1185 0.8999 -0.4196
vn -0.8999 0.1185 -0.4196
vn -0.4591 0.7952 -0.3961
vn -0.7952 0.4591 -0.3961
vn -0.1280 -0.1280 0.9835
vn -0.9835 -0.1280 0.1280
vn -0.1280 -0.9835 0.1280
vn -0.4916 -0.1216 0.8623
vn -0.1216 -0.4916 0.8623
vn -0.4488 -0.4488 0.7727
vn -0.8623 -0.4916 0.1216
vn -0.8623 -0.1216 0.4916
vn -0.7727 -0.4488 0.4488
vn -0.1216 -0.8623 0.4916
vn -0.4916 -0.8623 0.1216
vn -0.4488 -0.7727 0.4488
vn 0.1280 -0.9835 0.1280
vn 0.9835 -0.1280 0.1280
vn 0.1280 -0.1280 0.9835
vn 0.4916 -0.8623 0.1216
vn 0.1216 -0.8623 0.4916
vn 0.4488 -0.7727 0.4488
vn 0.8623 -0.1216 0.4916
vn 0.8623 -0.4916 0.1216
vn 0.7727 -0.4488 0.4488
vn 0.1216 -0.4916 0.8623
vn 0.4916 -0.1216 0.8623
vn 0.4488 -0.4488 0.7727
vn -0.1280 0.9835 0.1280
vn -0.9835 0.1280 0.1280
vn -0.1280 0.1280 0.9835
vn -0.4916 0.8623 0.1216
vn -0.1216 0.8623 0.4916
vn -0.4488 0.7727 0.4488
vn -0.8623 0.1216 0.4916
vn -0.8623 0.4916 0.1216
vn -0.7727 0.4488 0.4488
vn -0.1216 0.4916 0.8623
vn -0.4916 0.1216 0.8623
vn -0.4488 0.4488 0.7727
vn 0.1280 0.1280 0.9835
vn 0.9835 0.1280 0.1280
vn 0.1280 0.9835 0.1280
vn 0.4916 0.1216 0.8623
vn 0.1216 0.4916 0.8623
vn 0.4488 0.4488 0.7727
vn 0.8623 0.4916 0.1216
vn 0.8623 0.1216 0.4916
vn 0.7727 0.4488 0.4488
vn 0.1216 0.8623 0.4916
vn 0.4916 0.8623 0.1216
vn 0.4488 0.7727 0.4488
vt -0.500000 0.350000
vt 0.350000 -0.350000
vt -0.500000 -0.350000
vt -0.350000 -1.500000
vt 0.350000 -2.500000
vt -0.350000 -2.500000
vt -0.350000 0.350000
vt 0.350000 -0.500000
vt -0.350000 -0.500000
vt -1.500000 0.350000
vt -1.500000 -0.350000
vt 0.350000 -1.500000
vt -2.500000 0.350000
vt -2.500000 -0.350000
vt 0.500000 -0.350000
vt 0.350000 0.500000
vt 0.350000 -3.350000
vt -0.350000 -3.350000
vt -0.350000 0.500000
vt 0.500000 0.350000
vt -3.350000 0.350000
vt -3.350000 -0.350000
vt -0.350000 -0.350000
vt 0.350000 0.424902
vt 0.424902 0.350000
vt 0.350000 0.350000
vt 0.350000 -0.479961
vt 0.421732 -0.421732
vt 0.421732 -0.460495
vt 0.424902 -0.350000
vt 0.350000 -0.424902
vt 0.460495 -0.421732
vt 0.479961 -0.350000
vt 0.460495 0.421732
vt 0.479961 0.350000
vt -0.424902 0.350000
vt -0.350000 0.424902
vt -0.424902 -0.350000
vt -0.460495 -0.421732
vt -0.479961 -0.350000
vt -0.350000 -0.424902
vt -0.421732 0.460495
vt -0.350000 0.479961
vt 0.350000 0.479961
vt 0.421732 0.421732
vt 0.421732 0.460495
vt -0.421732 0.421732
vt -0.460495 0.421732
vt -0.479961 0.350000
vt -0.421732 -0.421732
vt -3.350000 -0.424902
vt -3.424901 -0.350000
vt -3.350000 -0.479961
vt -3.421732 -0.421732
vt -0.350000 -3.424901
vt -0.424902 -3.350000
vt -0.421732 -0.460495
vt -0.350000 -0.479961
vt 0.424902 -3.350000
vt 0.350000 -3.424901
vt -3.421732 -0.460495
vt -3.350000 0.479961
vt -3.421732 0.421732
vt -3.421732 0.460495
vt -3.424901 0.350000
vt -3.350000 0.424902
vt -1.500000 -0.425000
vt -0.500000 -0.425000
vt -1.500000 -0.479904
vt -0.425000 -0.500000
vt -0.425000 -1.500000
vt -0.500000 -0.479904
vt 0.425000 -1.500000
vt 0.425000 -0.500000
vt -0.500000 0.425000
vt -1.500000 0.425000
vt -0.500000 0.479904
vt -1.500000 0.479904
vt -2.500000 -0.425000
vt -2.500000 0.425000
vt -2.500000 -0.479904
vt -0.425000 -2.500000
vt 0.425000 -2.500000
vt -2.500000 0.479904
vt -0.479904 -0.425000
vt -0.425000 -0.479904
vt 0.425000 -0.479904
vt 0.479904 -0.425000
vt 0.479904 0.425000
vt 0.425000 0.479904
vt -0.425000 0.479904
vt -0.479904 0.425000
vt -0.421732 -3.421732
vt 0.421732 -3.421732
s 1
usemtl ClayMat_4
f 78/1/78 14/2/14 61/3/61
f 49/4/49 82/5/54 114/6/49
f 3/2/3 73/1/73 58/3/58
f 13/7/13 57/8/57 62/9/62
f 74/8/74 37/7/37 77/9/77
f 65/10/65 61/3/61 50/11/50
f 142/5/69 66/4/66 86/6/66
f 62/9/62 54/12/54 49/4/49
f 69/12/69 77/9/77 66/4/66
f 53/11/53 141/13/70 81/14/53
f 85/13/65 50/11/50 113/14/50
f 53/15/53 69/16/69 65/1/65
f 114/6/49 101/17/93 91/18/83
f 131/17/119 86/6/66 117/18/105
f 61/3/61 77/19/77 73/20/73
f 58/3/58 70/10/70 53/11/53
f 81/14/53 130/21/118 102/22/94
f 118/21/106 113/14/50 90/22/82
f 81/15/53 142/16/69 85/1/65
f 103/2/95 119/7/107 89/23/81
f 4/24/4 5/25/5 1/26/1
f 4/27/4 9/28/9 6/29/6
f 7/30/7 8/31/8 2/2/2
f 11/30/11 9/32/9 7/33/7
f 10/31/10 11/30/11 3/2/3
f 5/25/5 12/34/12 10/35/10
f 6/29/6 9/32/9 12/28/12
f 16/36/16 17/37/17 13/7/13
f 16/27/16 21/28/21 18/29/18
f 19/30/19 20/31/20 14/2/14
f 23/38/23 21/39/21 19/40/19
f 22/41/22 23/38/23 15/23/15
f 17/37/17 24/42/24 22/43/22
f 18/29/18 21/28/21 24/32/24
f 28/25/28 29/24/29 25/26/25
f 28/44/28 33/45/33 30/46/30
f 31/25/31 32/24/32 26/26/26
f 35/25/35 33/34/33 31/35/31
f 34/24/34 35/25/35 27/26/27
f 29/24/29 36/46/36 34/44/34
f 30/46/30 33/45/33 36/34/36
f 40/37/40 41/36/41 37/7/37
f 40/43/40 45/47/45 42/42/42
f 43/36/43 44/37/44 38/7/38
f 47/25/47 45/34/45 43/35/43
f 46/24/46 47/25/47 39/26/39
f 41/36/41 48/48/48 46/49/46
f 42/46/42 45/34/45 48/45/48
f 92/38/84 93/41/85 89/23/81
f 96/40/88 94/50/86 92/38/84
f 95/51/87 96/52/88 90/22/82
f 99/53/91 97/54/89 95/51/87
f 98/55/90 99/56/91 91/18/83
f 93/41/85 100/57/92 98/58/90
f 94/50/86 97/39/89 100/57/92
f 104/59/96 105/60/97 101/17/93
f 104/53/96 109/54/101 106/61/98
f 107/52/99 108/51/100 102/22/94
f 107/33/99 112/28/104 109/32/101
f 110/31/102 111/30/103 103/2/95
f 110/31/102 106/29/98 112/28/104
f 106/29/98 109/32/101 112/28/104
f 120/56/108 121/55/109 117/18/105
f 120/62/108 125/63/113 122/64/110
f 123/65/111 124/66/112 118/21/106
f 123/49/111 128/47/116 125/48/113
f 126/37/114 127/36/115 119/7/107
f 126/37/114 122/42/110 128/47/116
f 122/42/110 125/48/113 128/47/116
f 132/25/120 133/24/121 129/26/117
f 136/35/124 134/45/122 132/25/120
f 135/66/123 136/65/124 130/21/118
f 139/62/127 137/63/125 135/66/123
f 138/60/126 139/59/127 131/17/119
f 133/24/121 140/46/128 138/44/126
f 134/45/122 137/34/125 140/46/128
f 2/2/2 22/41/22 15/23/15
f 8/31/8 17/58/17 22/41/22
f 4/24/4 13/7/13 17/37/17
f 38/7/38 34/24/34 27/26/27
f 44/37/44 29/44/29 34/24/34
f 40/37/40 25/26/25 29/24/29
f 3/2/3 31/25/31 26/26/26
f 11/30/11 35/35/35 31/25/31
f 7/30/7 27/26/27 35/25/35
f 39/26/39 19/30/19 14/2/14
f 47/25/47 23/33/23 19/30/19
f 43/36/43 15/23/15 23/38/23
f 61/3/61 52/67/52 50/11/50
f 63/68/63 51/69/51 52/67/52
f 64/70/64 49/4/49 51/71/51
f 53/11/53 60/68/60 58/3/58
f 55/67/55 59/72/59 60/68/60
f 56/73/56 57/8/57 59/74/59
f 65/10/65 80/75/80 78/1/78
f 67/76/67 79/77/79 80/75/80
f 68/71/68 77/9/77 79/70/79
f 73/1/73 72/76/72 70/10/70
f 75/75/75 71/78/71 72/76/72
f 76/74/76 69/12/69 71/73/71
f 103/2/95 93/41/85 110/31/102
f 93/41/85 105/27/97 110/31/102
f 98/55/90 101/17/93 105/60/97
f 113/14/50 95/51/87 90/22/82
f 115/79/52 99/53/91 95/51/87
f 99/56/91 114/6/49 91/18/83
f 119/7/107 133/24/121 126/37/114
f 133/24/121 121/43/109 126/37/114
f 138/60/126 117/18/105 121/55/109
f 141/13/70 135/66/123 130/21/118
f 143/80/72 139/62/127 135/66/123
f 139/59/127 142/5/69 131/17/119
f 90/22/82 123/65/111 118/21/106
f 96/40/88 127/36/115 123/49/111
f 92/38/84 119/7/107 127/36/115
f 130/21/118 107/52/99 102/22/94
f 136/35/124 111/30/103 107/33/99
f 132/25/120 103/2/95 111/30/103
f 61/3/61 20/31/20 63/68/63
f 20/31/20 64/72/64 63/68/63
f 16/36/16 62/9/62 64/70/64
f 58/3/58 10/31/10 3/2/3
f 60/68/60 5/27/5 10/31/10
f 5/25/5 57/8/57 1/26/1
f 78/1/78 46/24/46 39/26/39
f 80/75/80 41/44/41 46/24/46
f 41/36/41 77/9/77 37/7/37
f 73/1/73 32/24/32 75/75/75
f 32/24/32 76/77/76 75/75/75
f 28/25/28 74/8/74 76/74/76
f 50/11/50 115/79/52 113/14/50
f 52/67/52 116/81/51 115/79/52
f 51/71/51 114/6/49 116/82/51
f 81/14/53 55/67/55 53/11/53
f 83/79/55 56/69/56 55/67/55
f 84/83/56 54/12/54 56/73/56
f 85/13/65 67/76/67 65/10/65
f 87/80/67 68/78/68 67/76/67
f 88/82/68 66/4/66 68/71/68
f 70/10/70 143/80/72 141/13/70
f 72/76/72 144/84/71 143/80/72
f 71/73/71 142/5/69 144/83/71
f 81/14/53 108/51/100 83/79/55
f 108/51/100 84/81/56 83/79/55
f 104/59/96 82/5/54 84/83/56
f 85/13/65 124/66/112 87/80/67
f 124/66/112 88/84/68 87/80/67
f 120/56/108 86/6/66 88/82/68
f 15/23/15 27/26/27 2/2/2
f 78/1/78 39/26/39 14/2/14
f 49/4/49 54/12/54 82/5/54
f 3/2/3 26/26/26 73/1/73
f 13/7/13 1/26/1 57/8/57
f 74/8/74 25/26/25 37/7/37
f 65/10/65 78/1/78 61/3/61
f 142/5/69 69/12/69 66/4/66
f 62/9/62 57/8/57 54/12/54
f 69/12/69 74/8/74 77/9/77
f 53/11/53 70/10/70 141/13/70
f 85/13/65 65/10/65 50/11/50
f 65/1/65 50/3/50 49/9/49
f 50/3/50 52/85/52 49/9/49
f 52/85/52 51/86/51 49/9/49
f 49/9/49 54/8/54 53/15/53
f 54/8/54 56/87/56 53/15/53
f 56/87/56 55/88/55 53/15/53
f 53/15/53 70/20/70 69/16/69
f 70/20/70 72/89/72 69/16/69
f 72/89/72 71/90/71 69/16/69
f 69/16/69 66/19/66 65/1/65
f 66/19/66 68/91/68 65/1/65
f 68/91/68 67/92/67 65/1/65
f 65/1/65 49/9/49 53/15/53
f 114/6/49 82/5/54 101/17/93
f 131/17/119 142/5/69 86/6/66
f 73/20/73 58/15/58 57/8/57
f 58/15/58 60/88/60 57/8/57
f 60/88/60 59/87/59 57/8/57
f 57/8/57 62/9/62 61/3/61
f 62/9/62 64/86/64 61/3/61
f 64/86/64 63/85/63 61/3/61
f 61/3/61 78/1/78 77/19/77
f 78/1/78 80/92/80 77/19/77
f 80/92/80 79/91/79 77/19/77
f 77/19/77 74/16/74 73/20/73
f 74/16/74 76/90/76 73/20/73
f 76/90/76 75/89/75 73/20/73
f 73/20/73 57/8/57 61/3/61
f 58/3/58 73/1/73 70/10/70
f 81/14/53 141/13/70 130/21/118
f 118/21/106 85/13/65 113/14/50
f 85/1/65 113/3/50 114/9/49
f 113/3/50 115/85/52 114/9/49
f 115/85/52 116/86/51 114/9/49
f 114/9/49 82/8/54 81/15/53
f 82/8/54 84/87/56 81/15/53
f 84/87/56 83/88/55 81/15/53
f 81/15/53 141/20/70 142/16/69
f 141/20/70 143/89/72 142/16/69
f 143/89/72 144/90/71 142/16/69
f 142/16/69 86/19/66 85/1/65
f 86/19/66 88/91/68 85/1/65
f 88/91/68 87/92/67 85/1/65
f 85/1/65 114/9/49 81/15/53
f 103/2/95 129/26/117 119/7/107
f 4/24/4 6/45/6 5/25/5
f 4/27/4 8/31/8 9/28/9
f 7/30/7 9/28/9 8/31/8
f 11/30/11 12/28/12 9/32/9
f 10/31/10 12/28/12 11/30/11
f 5/27/5 6/29/6 12/28/12
f 16/36/16 18/47/18 17/37/17
f 16/27/16 20/31/20 21/28/21
f 19/30/19 21/28/21 20/31/20
f 23/33/23 24/32/24 21/28/21
f 22/41/22 24/50/24 23/38/23
f 17/58/17 18/57/18 24/50/24
f 28/25/28 30/45/30 29/24/29
f 28/44/28 32/24/32 33/45/33
f 31/25/31 33/45/33 32/24/32
f 35/35/35 36/34/36 33/45/33
f 34/24/34 36/45/36 35/25/35
f 29/44/29 30/46/30 36/45/36
f 40/37/40 42/47/42 41/36/41
f 40/43/40 44/37/44 45/47/45
f 43/36/43 45/47/45 44/37/44
f 47/25/47 48/45/48 45/34/45
f 46/24/46 48/45/48 47/25/47
f 41/44/41 42/46/42 48/45/48
f 92/38/84 94/50/86 93/41/85
f 96/40/88 97/39/89 94/50/86
f 95/51/87 97/54/89 96/52/88
f 99/53/91 100/61/92 97/54/89
f 98/55/90 100/93/92 99/56/91
f 93/41/85 94/50/86 100/57/92
f 104/59/96 106/94/98 105/60/97
f 104/53/96 108/51/100 109/54/101
f 107/52/99 109/54/101 108/51/100
f 107/33/99 111/30/103 112/28/104
f 110/31/102 112/28/104 111/30/103
f 110/31/102 105/27/97 106/29/98
f 120/56/108 122/93/110 121/55/109
f 120/62/108 124/66/112 125/63/113
f 123/65/111 125/63/113 124/66/112
f 123/49/111 127/36/115 128/47/116
f 126/37/114 128/47/116 127/36/115
f 126/37/114 121/43/109 122/42/110
f 132/25/120 134/45/122 133/24/121
f 136/35/124 137/34/125 134/45/122
f 135/66/123 137/63/125 136/65/124
f 139/62/127 140/64/128 137/63/125
f 138/60/126 140/94/128 139/59/127
f 133/24/121 134/45/122 140/46/128
f 2/2/2 8/31/8 22/41/22
f 8/31/8 4/27/4 17/58/17
f 4/24/4 1/26/1 13/7/13
f 38/7/38 44/37/44 34/24/34
f 44/37/44 40/43/40 29/44/29
f 40/37/40 37/7/37 25/26/25
f 3/2/3 11/30/11 31/25/31
f 11/30/11 7/33/7 35/35/35
f 7/30/7 2/2/2 27/26/27
f 39/26/39 47/25/47 19/30/19
f 47/25/47 43/35/43 23/33/23
f 43/36/43 38/7/38 15/23/15
f 61/3/61 63/68/63 52/67/52
f 63/68/63 64/72/64 51/69/51
f 64/70/64 62/9/62 49/4/49
f 53/11/53 55/67/55 60/68/60
f 55/67/55 56/69/56 59/72/59
f 56/73/56 54/12/54 57/8/57
f 65/10/65 67/76/67 80/75/80
f 67/76/67 68/78/68 79/77/79
f 68/71/68 66/4/66 77/9/77
f 73/1/73 75/75/75 72/76/72
f 75/75/75 76/77/76 71/78/71
f 76/74/76 74/8/74 69/12/69
f 103/2/95 89/23/81 93/41/85
f 93/41/85 98/58/90 105/27/97
f 98/55/90 91/18/83 101/17/93
f 113/14/50 115/79/52 95/51/87
f 115/79/52 116/81/51 99/53/91
f 99/56/91 116/82/51 114/6/49
f 119/7/107 129/26/117 133/24/121
f 133/24/121 138/44/126 121/43/109
f 138/60/126 131/17/119 117/18/105
f 141/13/70 143/80/72 135/66/123
f 143/80/72 144/84/71 139/62/127
f 139/59/127 144/83/71 142/5/69
f 90/22/82 96/52/88 123/65/111
f 96/40/88 92/38/84 127/36/115
f 92/38/84 89/23/81 119/7/107
f 130/21/118 136/65/124 107/52/99
f 136/35/124 132/25/120 111/30/103
f 132/25/120 129/26/117 103/2/95
f 61/3/61 14/2/14 20/31/20
f 20/31/20 16/27/16 64/72/64
f 16/36/16 13/7/13 62/9/62
f 58/3/58 60/68/60 10/31/10
f 60/68/60 59/72/59 5/27/5
f 5/25/5 59/74/59 57/8/57
f 78/1/78 80/75/80 46/24/46
f 80/75/80 79/77/79 41/44/41
f 41/36/41 79/70/79 77/9/77
f 73/1/73 26/26/26 32/24/32
f 32/24/32 28/44/28 76/77/76
f 28/25/28 25/26/25 74/8/74
f 50/11/50 52/67/52 115/79/52
f 52/67/52 51/69/51 116/81/51
f 51/71/51 49/4/49 114/6/49
f 81/14/53 83/79/55 55/67/55
f 83/79/55 84/81/56 56/69/56
f 84/83/56 82/5/54 54/12/54
f 85/13/65 87/80/67 67/76/67
f 87/80/67 88/84/68 68/78/68
f 88/82/68 86/6/66 66/4/66
f 70/10/70 72/76/72 143/80/72
f 72/76/72 71/78/71 144/84/71
f 71/73/71 69/12/69 142/5/69
f 81/14/53 102/22/94 108/51/100
f 108/51/100 104/53/96 84/81/56
f 104/59/96 101/17/93 82/5/54
f 85/13/65 118/21/106 124/66/112
f 124/66/112 120/62/108 88/84/68
f 120/56/108 117/18/105 86/6/66
f 15/23/15 38/7/38 27/26/27
