# Blender 4.1.1
# www.blender.org
mtllib __clay_block_08_151.mtl
o clay_block_151
v -0.500000 0.500000 0.500000
v -0.500000 -0.500000 0.500000
v 0.500000 -0.350000 0.500000
v 0.350000 -0.500000 0.500000
v 0.479904 -0.425000 0.500000
v 0.425000 -0.479904 0.500000
v 0.350000 -0.500000 -0.350000
v 0.350000 -0.350000 -0.500000
v 0.500000 -0.350000 -0.350000
v 0.350000 -0.479961 -0.424902
v 0.424902 -0.479961 -0.350000
v 0.421732 -0.460495 -0.421732
v 0.424902 -0.350000 -0.479961
v 0.350000 -0.424902 -0.479961
v 0.421732 -0.421732 -0.460495
v 0.479961 -0.424902 -0.350000
v 0.479961 -0.350000 -0.424902
v 0.460495 -0.421732 -0.421732
v 0.350000 0.500000 0.500000
v 0.500000 0.350000 0.500000
v 0.425000 0.479904 0.500000
v 0.479904 0.425000 0.500000
v 0.500000 0.350000 -0.350000
v 0.350000 0.350000 -0.500000
v 0.350000 0.500000 -0.350000
v 0.479961 0.350000 -0.424902
v 0.479961 0.424902 -0.350000
v 0.460495 0.421732 -0.421732
v 0.350000 0.424902 -0.479961
v 0.424902 0.350000 -0.479961
v 0.421732 0.421732 -0.460495
v 0.424902 0.479961 -0.350000
v 0.350000 0.479961 -0.424902
v 0.421732 0.460495 -0.421732
v -0.500000 0.350000 -0.500000
v -0.500000 0.500000 -0.350000
v -0.500000 0.425000 -0.479904
v -0.500000 0.479904 -0.425000
v -1.350000 -0.500000 0.500000
v -1.500000 -0.350000 0.500000
v -1.425000 -0.479904 0.500000
v -1.479904 -0.425000 0.500000
v -0.500000 -0.350000 -0.500000
v -0.500000 -0.500000 -0.350000
v -0.500000 -0.425000 -0.479904
v -0.500000 -0.479904 -0.425000
v -1.500000 -0.350000 -0.350000
v -1.350000 -0.350000 -0.500000
v -1.350000 -0.500000 -0.350000
v -1.479960 -0.350000 -0.424902
v -1.479960 -0.424902 -0.350000
v -1.460495 -0.421732 -0.421732
v -1.350000 -0.424902 -0.479961
v -1.424901 -0.350000 -0.479961
v -1.421732 -0.421732 -0.460495
v -1.424901 -0.479961 -0.350000
v -1.350000 -0.479961 -0.424902
v -1.421732 -0.460495 -0.421732
v -1.350000 0.350000 -0.500000
v -1.500000 0.350000 -0.350000
v -1.350000 0.500000 -0.350000
v -1.424901 0.350000 -0.479961
v -1.350000 0.424902 -0.479961
v -1.421732 0.421732 -0.460495
v -1.479960 0.424902 -0.350000
v -1.479960 0.350000 -0.424902
v -1.460495 0.421732 -0.421732
v -1.350000 0.479961 -0.424902
v -1.424901 0.479961 -0.350000
v -1.421732 0.460495 -0.421732
v 0.500000 -0.350000 1.350000
v 0.350000 -0.350000 1.500000
v 0.350000 -0.500000 1.350000
v 0.479961 -0.350000 1.424901
v 0.479961 -0.424902 1.350000
v 0.460495 -0.421732 1.421732
v 0.350000 -0.424902 1.479960
v 0.424902 -0.350000 1.479960
v 0.421732 -0.421732 1.460495
v 0.424902 -0.479961 1.350000
v 0.350000 -0.479961 1.424901
v 0.421732 -0.460495 1.421732
v 0.500000 0.350000 1.350000
v 0.350000 0.500000 1.350000
v 0.350000 0.350000 1.500000
v 0.479961 0.424902 1.350000
v 0.479961 0.350000 1.424901
v 0.460495 0.421732 1.421732
v 0.350000 0.479961 1.424901
v 0.424902 0.479961 1.350000
v 0.421732 0.460495 1.421732
v 0.424902 0.350000 1.479960
v 0.350000 0.424902 1.479960
v 0.421732 0.421732 1.460495
v -1.350000 -0.500000 1.350000
v -1.350000 -0.350000 1.500000
v -1.500000 -0.350000 1.350000
v -1.350000 -0.479961 1.424901
v -1.424901 -0.479961 1.350000
v -1.421732 -0.460495 1.421732
v -1.424901 -0.350000 1.479960
v -1.350000 -0.424902 1.479960
v -1.421732 -0.421732 1.460495
v -1.479960 -0.424902 1.350000
v -1.479960 -0.350000 1.424901
v -1.460495 -0.421732 1.421732
v -0.500000 -0.500000 1.350000
v -0.500000 -0.350000 1.500000
v -0.500000 -0.479904 1.425000
v -0.500000 -0.425000 1.479904
v -1.500000 0.350000 1.350000
v -1.350000 0.350000 1.500000
v -1.350000 0.500000 1.350000
v -1.479960 0.350000 1.424901
v -1.479960 0.424902 1.350000
v -1.460495 0.421732 1.421732
v -1.350000 0.424902 1.479960
v -1.424901 0.350000 1.479960
v -1.421732 0.421732 1.460495
v -1.424901 0.479961 1.350000
v -1.350000 0.479961 1.424901
v -1.421732 0.460495 1.421732
v -0.500000 0.350000 1.500000
v -0.500000 0.500000 1.350000
v -0.500000 0.425000 1.479904
v -0.500000 0.479904 1.425000
v -1.350000 0.500000 0.500000
v -1.500000 0.350000 0.500000
v -1.425000 0.479904 0.500000
v -1.479904 0.425000 0.500000
vn -0.4082 0.8165 0.4083
vn -0.4082 -0.8165 0.4082
vn 0.8999 -0.1185 0.4196
vn 0.1185 -0.8999 0.4196
vn 0.7952 -0.4591 0.3961
vn 0.4591 -0.7952 0.3961
vn 0.1280 -0.9835 -0.1280
vn 0.1280 -0.1280 -0.9835
vn 0.9835 -0.1280 -0.1280
vn 0.1216 -0.8623 -0.4916
vn 0.4916 -0.8623 -0.1216
vn 0.4488 -0.7727 -0.4488
vn 0.4916 -0.1216 -0.8623
vn 0.1216 -0.4916 -0.8623
vn 0.4488 -0.4488 -0.7727
vn 0.8623 -0.4916 -0.1216
vn 0.8623 -0.1216 -0.4916
vn 0.7727 -0.4488 -0.4488
vn 0.1185 0.8999 0.4196
vn 0.8999 0.1185 0.4196
vn 0.4591 0.7952 0.3961
vn 0.7952 0.4591 0.3961
vn 0.9835 0.1280 -0.1280
vn 0.1280 0.1280 -0.9835
vn 0.1280 0.9835 -0.1280
vn 0.8623 0.1216 -0.4916
vn 0.8623 0.4916 -0.1216
vn 0.7727 0.4488 -0.4488
vn 0.1216 0.4916 -0.8623
vn 0.4916 0.1216 -0.8623
vn 0.4488 0.4488 -0.7727
vn 0.4916 0.8623 -0.1216
vn 0.1216 0.8623 -0.4916
vn 0.4488 0.7727 -0.4488
vn -0.4196 0.1185 -0.8999
vn -0.4196 0.8999 -0.1185
vn -0.3961 0.4591 -0.7952
vn -0.3961 0.7952 -0.4591
vn -0.1185 -0.8999 0.4196
vn -0.8999 -0.1185 0.4196
vn -0.4591 -0.7952 0.3961
vn -0.7952 -0.4591 0.3961
vn -0.4196 -0.1185 -0.8999
vn -0.4196 -0.8999 -0.1185
vn -0.3961 -0.4591 -0.7952
vn -0.3961 -0.7952 -0.4591
vn -0.9835 -0.1280 -0.1280
vn -0.1280 -0.1280 -0.9835
vn -0.1280 -0.9835 -0.1280
vn -0.8623 -0.1216 -0.4916
vn -0.8623 -0.4916 -0.1216
vn -0.7727 -0.4488 -0.4488
vn -0.1216 -0.4916 -0.8623
vn -0.4916 -0.1216 -0.8623
vn -0.4488 -0.4488 -0.7727
vn -0.4916 -0.8623 -0.1216
vn -0.1216 -0.8623 -0.4916
vn -0.4488 -0.7727 -0.4488
vn -0.1280 0.1280 -0.9835
vn -0.9835 0.1280 -0.1280
vn -0.1280 0.9835 -0.1280
vn -0.4916 0.1216 -0.8623
vn -0.1216 0.4916 -0.8623
vn -0.4488 0.4488 -0.7727
vn -0.8623 0.4916 -0.1216
vn -0.8623 0.1216 -0.4916
vn -0.7727 0.4488 -0.4488
vn -0.1216 0.8623 -0.4916
vn -0.4916 0.8623 -0.1216
vn -0.4488 0.7727 -0.4488
vn 0.9835 -0.1280 0.1280
vn 0.1280 -0.1280 0.9835
vn 0.1280 -0.9835 0.1280
vn 0.8623 -0.1216 0.4916
vn 0.8623 -0.4916 0.1216
vn 0.7727 -0.4488 0.4488
vn 0.1216 -0.4916 0.8623
vn 0.4916 -0.1216 0.8623
vn 0.4488 -0.4488 0.7727
vn 0.4916 -0.8623 0.1216
vn 0.1216 -0.8623 0.4916
vn 0.4488 -0.7727 0.4488
vn 0.9835 0.1280 0.1280
vn 0.1280 0.9835 0.1280
vn 0.1280 0.1280 0.9835
vn 0.8623 0.4916 0.1216
vn 0.8623 0.1216 0.4916
vn 0.7727 0.4488 0.4488
vn 0.1216 0.8623 0.4916
vn 0.4916 0.8623 0.1216
vn 0.4488 0.7727 0.4488
vn 0.4916 0.1216 0.8623
vn 0.1216 0.4916 0.8623
vn 0.4488 0.4488 0.7727
vn -0.1280 -0.9835 0.1280
vn -0.1280 -0.1280 0.9835
vn -0.9835 -0.1280 0.1280
vn -0.1216 -0.8623 0.4916
vn -0.4916 -0.8623 0.1216
vn -0.4488 -0.7727 0.4488
vn -0.4916 -0.1216 0.8623
vn -0.1216 -0.4916 0.8623
vn -0.4488 -0.4488 0.7727
vn -0.8623 -0.4916 0.1216
vn -0.8623 -0.1216 0.4916
vn -0.7727 -0.4488 0.4488
vn -0.4196 -0.8999 0.1185
vn -0.4196 -0.1185 0.8999
vn -0.3961 -0.7952 0.4591
vn -0.3961 -0.4591 0.7952
vn -0.9835 0.1280 0.1280
vn -0.1280 0.1280 0.9835
vn -0.1280 0.9835 0.1280
vn -0.8623 0.1216 0.4916
vn -0.8623 0.4916 0.1216
vn -0.7727 0.4488 0.4488
vn -0.1216 0.4916 0.8623
vn -0.4916 0.1216 0.8623
vn -0.4488 0.4488 0.7727
vn -0.4916 0.8623 0.1216
vn -0.1216 0.8623 0.4916
vn -0.4488 0.7727 0.4488
vn -0.4196 0.1185 0.8999
vn -0.4196 0.8999 0.1185
vn -0.3961 0.4591 0.7952
vn -0.3961 0.7952 0.4591
vn -0.1185 0.8999 0.4196
vn -0.8999 0.1185 0.4196
vn -0.4591 0.7952 0.3961
vn -0.7952 0.4591 0.3961
vt -0.500000 -0.500000
vt 0.350000 -1.350000
vt -0.500000 -1.350000
vt -0.500000 0.350000
vt 0.350000 -0.500000
vt -0.500000 -0.350000
vt -1.350000 0.350000
vt -1.350000 -0.350000
vt 0.350000 -0.350000
vt -1.350000 -0.500000
vt -1.350000 -1.350000
vt 0.479904 -0.425000
vt 0.425000 -0.479904
vt 0.350000 0.350000
vt 0.350000 0.500000
vt 0.500000 0.350000
vt -1.425000 0.479904
vt -1.479904 0.425000
vt -1.500000 0.350000
vt -1.500000 -0.350000
vt -1.350000 0.500000
vt 0.350000 0.424902
vt 0.424902 0.350000
vt 0.350000 -0.479961
vt 0.421732 -0.421732
vt 0.421732 -0.460495
vt 0.424902 -0.350000
vt 0.350000 -0.424902
vt 0.460495 -0.421732
vt 0.479961 -0.350000
vt 0.460495 0.421732
vt 0.479961 0.350000
vt 0.421732 0.460495
vt 0.350000 0.479961
vt 0.421732 0.421732
vt -1.350000 -0.424902
vt -1.424901 -0.350000
vt -1.350000 -0.479961
vt -1.421732 -0.421732
vt -1.424901 0.350000
vt -1.350000 0.424902
vt -1.460495 -0.421732
vt -1.421732 -0.460495
vt -1.460495 0.421732
vt -1.421732 0.421732
vt -1.479960 0.350000
vt -1.350000 0.479961
vt -1.421732 0.460495
vt 0.350000 -1.479960
vt 0.421732 -1.421732
vt 0.421732 -1.460495
vt 0.424902 -1.350000
vt 0.350000 -1.424901
vt -1.350000 -1.424901
vt -1.424901 -1.350000
vt -1.421732 -1.460495
vt -1.421732 -1.421732
vt -1.479960 -0.350000
vt -1.460495 -1.421732
vt -0.500000 -0.425000
vt -0.500000 0.425000
vt -0.500000 0.479904
vt 0.425000 -0.500000
vt -0.500000 -0.479904
vt -1.425000 -0.500000
vt -0.500000 -1.425000
vt -0.500000 0.500000
vt 0.425000 0.479904
vt 0.479904 0.425000
vt 0.500000 -0.350000
vt -1.479904 -0.425000
vt -1.425000 -0.479904
s 1
usemtl ClayMat_151
f 2/1/2 73/2/73 107/3/107
f 84/2/84 1/1/1 124/3/124
f 44/4/44 4/5/4 2/1/2
f 19/5/19 36/4/36 1/1/1
f 3/6/3 83/7/83 71/8/71
f 128/4/128 47/9/47 40/6/40
f 39/10/39 107/3/107 95/11/95
f 48/8/48 35/4/35 43/6/43
f 72/9/72 123/4/123 108/6/108
f 45/12/45 46/13/46 44/5/44
f 111/7/111 40/6/40 97/8/97
f 43/6/43 24/14/24 8/9/8
f 1/1/1 61/7/61 127/10/127
f 108/6/108 112/7/112 96/8/96
f 19/15/19 4/5/4 20/16/20
f 124/3/124 127/10/127 113/11/113
f 129/17/129 130/18/130 128/19/128
f 107/10/107 108/20/108 124/21/124
f 49/7/49 2/1/2 39/10/39
f 10/22/10 11/23/11 7/14/7
f 10/24/10 15/25/15 12/26/12
f 13/27/13 14/28/14 8/9/8
f 17/27/17 15/29/15 13/30/13
f 16/28/16 17/27/17 9/9/9
f 11/23/11 18/31/18 16/32/16
f 12/26/12 15/29/15 18/25/18
f 26/23/26 27/22/27 23/14/23
f 30/23/30 28/31/28 26/32/26
f 29/22/29 30/23/30 24/14/24
f 33/22/33 31/33/31 29/34/29
f 32/23/32 33/22/33 25/14/25
f 32/34/32 28/35/28 34/33/34
f 28/35/28 31/31/31 34/33/34
f 50/27/50 51/28/51 47/9/47
f 54/30/54 52/25/52 50/27/50
f 53/36/53 54/37/54 48/8/48
f 57/38/57 55/39/55 53/36/53
f 56/40/56 57/41/57 49/7/49
f 51/28/51 58/26/58 56/24/56
f 52/42/52 55/39/55 58/43/58
f 62/40/62 63/41/63 59/7/59
f 62/40/62 67/44/67 64/45/64
f 65/22/65 66/23/66 60/14/60
f 65/46/65 70/45/70 67/44/67
f 68/41/68 69/40/69 61/7/61
f 68/47/68 64/45/64 70/48/70
f 64/45/64 67/44/67 70/48/70
f 74/37/74 75/36/75 71/8/71
f 74/37/74 79/42/79 76/39/76
f 77/28/77 78/27/78 72/9/72
f 77/49/77 82/50/82 79/51/79
f 80/52/80 81/53/81 73/2/73
f 80/38/80 76/39/76 82/43/82
f 76/39/76 79/42/79 82/43/82
f 86/41/86 87/40/87 83/7/83
f 90/47/90 88/45/88 86/41/86
f 89/53/89 90/52/90 84/2/84
f 93/22/93 91/33/91 89/34/89
f 92/23/92 93/22/93 85/14/85
f 87/32/87 94/35/94 92/23/92
f 88/45/88 91/48/91 94/44/94
f 98/54/98 99/55/99 95/11/95
f 98/54/98 103/56/103 100/57/100
f 101/37/101 102/36/102 96/8/96
f 105/37/105 103/42/103 101/58/101
f 104/36/104 105/37/105 97/8/97
f 99/38/99 106/39/106 104/36/104
f 100/57/100 103/56/103 106/59/106
f 114/40/114 115/41/115 111/7/111
f 118/46/118 116/45/116 114/40/114
f 117/41/117 118/40/118 112/7/112
f 121/47/121 119/45/119 117/41/117
f 120/55/120 121/54/121 113/11/113
f 120/55/120 116/59/116 122/57/122
f 116/59/116 119/56/119 122/57/122
f 3/6/3 16/28/16 9/9/9
f 5/60/5 11/24/11 16/28/16
f 11/23/11 4/5/4 7/14/7
f 20/4/20 27/22/27 22/61/22
f 27/22/27 21/62/21 22/61/22
f 32/23/32 19/5/19 21/63/21
f 35/4/35 29/22/29 24/14/24
f 37/61/37 33/34/33 29/22/29
f 33/22/33 36/4/36 25/14/25
f 9/9/9 26/23/26 23/14/23
f 17/27/17 30/32/30 26/23/26
f 13/27/13 24/14/24 30/23/30
f 40/6/40 51/28/51 42/60/42
f 51/28/51 41/64/41 42/60/42
f 56/40/56 39/10/39 41/65/41
f 43/6/43 53/36/53 48/8/48
f 45/60/45 57/38/57 53/36/53
f 57/41/57 44/4/44 49/7/49
f 47/9/47 66/23/66 50/27/50
f 66/23/66 54/30/54 50/27/50
f 62/40/62 48/8/48 54/37/54
f 83/7/83 74/37/74 71/8/71
f 87/32/87 78/27/78 74/30/74
f 78/27/78 85/14/85 72/9/72
f 108/6/108 102/36/102 110/60/110
f 102/36/102 109/64/109 110/60/110
f 98/54/98 107/3/107 109/66/109
f 128/4/128 115/41/115 130/61/130
f 115/41/115 129/62/129 130/61/130
f 120/55/120 127/10/127 129/65/129
f 123/4/123 117/41/117 112/7/112
f 125/61/125 121/47/121 117/41/117
f 121/54/121 124/3/124 113/11/113
f 97/8/97 114/40/114 111/7/111
f 105/37/105 118/46/118 114/40/114
f 118/40/118 96/8/96 112/7/112
f 43/6/43 14/28/14 45/60/45
f 14/28/14 46/64/46 45/60/45
f 10/22/10 44/4/44 46/61/46
f 128/4/128 65/22/65 60/14/60
f 130/61/130 69/34/69 65/22/65
f 69/40/69 127/10/127 61/7/61
f 35/4/35 63/41/63 37/61/37
f 63/41/63 38/62/38 37/61/37
f 68/41/68 36/4/36 38/61/38
f 108/6/108 77/28/77 72/9/72
f 110/60/110 81/24/81 77/28/77
f 81/53/81 107/3/107 73/2/73
f 3/6/3 75/36/75 5/60/5
f 75/36/75 6/64/6 5/60/5
f 80/52/80 4/5/4 6/63/6
f 123/4/123 93/22/93 125/61/125
f 93/22/93 126/62/126 125/61/125
f 89/53/89 124/3/124 126/66/126
f 20/4/20 86/41/86 83/7/83
f 22/61/22 90/47/90 86/41/86
f 90/52/90 19/5/19 84/2/84
f 40/6/40 104/36/104 97/8/97
f 42/60/42 99/38/99 104/36/104
f 99/55/99 39/10/39 95/11/95
f 9/9/9 20/4/20 3/6/3
f 2/1/2 4/5/4 73/2/73
f 84/2/84 19/5/19 1/1/1
f 44/4/44 7/14/7 4/5/4
f 19/5/19 25/14/25 36/4/36
f 3/6/3 20/4/20 83/7/83
f 128/4/128 60/14/60 47/9/47
f 39/10/39 2/1/2 107/3/107
f 48/8/48 59/7/59 35/4/35
f 72/9/72 85/14/85 123/4/123
f 44/5/44 2/1/2 1/67/1
f 1/67/1 36/15/36 44/5/44
f 36/15/36 38/68/38 35/16/35
f 44/5/44 36/15/36 35/16/35
f 38/68/38 37/69/37 35/16/35
f 35/16/35 43/70/43 44/5/44
f 43/70/43 45/12/45 44/5/44
f 111/7/111 128/4/128 40/6/40
f 43/6/43 35/4/35 24/14/24
f 1/1/1 36/4/36 61/7/61
f 108/6/108 123/4/123 112/7/112
f 1/67/1 2/1/2 4/5/4
f 4/5/4 6/13/6 5/12/5
f 5/12/5 3/70/3 4/5/4
f 3/70/3 20/16/20 4/5/4
f 20/16/20 22/69/22 21/68/21
f 21/68/21 19/15/19 20/16/20
f 19/15/19 1/67/1 4/5/4
f 124/3/124 1/1/1 127/10/127
f 128/19/128 40/20/40 39/10/39
f 40/20/40 42/71/42 39/10/39
f 42/71/42 41/72/41 39/10/39
f 39/10/39 2/1/2 1/67/1
f 1/67/1 127/21/127 39/10/39
f 127/21/127 129/17/129 128/19/128
f 39/10/39 127/21/127 128/19/128
f 2/1/2 107/10/107 124/21/124
f 107/10/107 109/72/109 108/20/108
f 109/72/109 110/71/110 108/20/108
f 108/20/108 123/19/123 124/21/124
f 123/19/123 125/18/125 124/21/124
f 125/18/125 126/17/126 124/21/124
f 124/21/124 1/67/1 2/1/2
f 49/7/49 44/4/44 2/1/2
f 10/22/10 12/35/12 11/23/11
f 10/24/10 14/28/14 15/25/15
f 13/27/13 15/25/15 14/28/14
f 17/27/17 18/25/18 15/29/15
f 16/28/16 18/25/18 17/27/17
f 11/24/11 12/26/12 18/25/18
f 26/23/26 28/35/28 27/22/27
f 30/32/30 31/31/31 28/35/28
f 29/22/29 31/35/31 30/23/30
f 33/34/33 34/33/34 31/35/31
f 32/23/32 34/35/34 33/22/33
f 32/34/32 27/22/27 28/35/28
f 50/27/50 52/25/52 51/28/51
f 54/37/54 55/39/55 52/42/52
f 53/36/53 55/39/55 54/37/54
f 57/38/57 58/43/58 55/39/55
f 56/40/56 58/45/58 57/41/57
f 51/46/51 52/44/52 58/45/58
f 62/40/62 64/45/64 63/41/63
f 62/32/62 66/23/66 67/35/67
f 65/22/65 67/35/67 66/23/66
f 65/22/65 69/34/69 70/33/70
f 68/41/68 70/45/70 69/40/69
f 68/47/68 63/41/63 64/45/64
f 74/37/74 76/39/76 75/36/75
f 74/30/74 78/27/78 79/25/79
f 77/28/77 79/25/79 78/27/78
f 77/28/77 81/24/81 82/26/82
f 80/52/80 82/50/82 81/53/81
f 80/38/80 75/36/75 76/39/76
f 86/41/86 88/45/88 87/40/87
f 90/47/90 91/48/91 88/45/88
f 89/53/89 91/50/91 90/52/90
f 93/49/93 94/51/94 91/50/91
f 92/23/92 94/35/94 93/22/93
f 87/40/87 88/45/88 94/44/94
f 98/54/98 100/57/100 99/55/99
f 98/38/98 102/36/102 103/39/103
f 101/37/101 103/39/103 102/36/102
f 105/37/105 106/39/106 103/42/103
f 104/36/104 106/39/106 105/37/105
f 99/55/99 100/57/100 106/59/106
f 114/40/114 116/45/116 115/41/115
f 118/46/118 119/44/119 116/45/116
f 117/41/117 119/45/119 118/40/118
f 121/54/121 122/57/122 119/56/119
f 120/55/120 122/57/122 121/54/121
f 120/47/120 115/41/115 116/45/116
f 3/6/3 5/60/5 16/28/16
f 5/60/5 6/64/6 11/24/11
f 11/23/11 6/63/6 4/5/4
f 20/4/20 23/14/23 27/22/27
f 27/22/27 32/34/32 21/62/21
f 32/23/32 25/14/25 19/5/19
f 35/4/35 37/61/37 29/22/29
f 37/61/37 38/62/38 33/34/33
f 33/22/33 38/61/38 36/4/36
f 9/9/9 17/27/17 26/23/26
f 17/27/17 13/30/13 30/32/30
f 13/27/13 8/9/8 24/14/24
f 40/6/40 47/9/47 51/28/51
f 51/28/51 56/24/56 41/64/41
f 56/40/56 49/7/49 39/10/39
f 43/6/43 45/60/45 53/36/53
f 45/60/45 46/64/46 57/38/57
f 57/41/57 46/61/46 44/4/44
f 47/9/47 60/14/60 66/23/66
f 66/23/66 62/32/62 54/30/54
f 62/40/62 59/7/59 48/8/48
f 83/7/83 87/40/87 74/37/74
f 87/32/87 92/23/92 78/27/78
f 78/27/78 92/23/92 85/14/85
f 108/6/108 96/8/96 102/36/102
f 102/36/102 98/38/98 109/64/109
f 98/54/98 95/11/95 107/3/107
f 128/4/128 111/7/111 115/41/115
f 115/41/115 120/47/120 129/62/129
f 120/55/120 113/11/113 127/10/127
f 123/4/123 125/61/125 117/41/117
f 125/61/125 126/62/126 121/47/121
f 121/54/121 126/66/126 124/3/124
f 97/8/97 105/37/105 114/40/114
f 105/37/105 101/58/101 118/46/118
f 118/40/118 101/37/101 96/8/96
f 43/6/43 8/9/8 14/28/14
f 14/28/14 10/24/10 46/64/46
f 10/22/10 7/14/7 44/4/44
f 128/4/128 130/61/130 65/22/65
f 130/61/130 129/62/129 69/34/69
f 69/40/69 129/65/129 127/10/127
f 35/4/35 59/7/59 63/41/63
f 63/41/63 68/47/68 38/62/38
f 68/41/68 61/7/61 36/4/36
f 108/6/108 110/60/110 77/28/77
f 110/60/110 109/64/109 81/24/81
f 81/53/81 109/66/109 107/3/107
f 3/6/3 71/8/71 75/36/75
f 75/36/75 80/38/80 6/64/6
f 80/52/80 73/2/73 4/5/4
f 123/4/123 85/14/85 93/22/93
f 93/22/93 89/34/89 126/62/126
f 89/53/89 84/2/84 124/3/124
f 20/4/20 22/61/22 86/41/86
f 22/61/22 21/62/21 90/47/90
f 90/52/90 21/63/21 19/5/19
f 40/6/40 42/60/42 104/36/104
f 42/60/42 41/64/41 99/38/99
f 99/55/99 41/65/41 39/10/39
f 9/9/9 23/14/23 20/4/20
