# Blender 4.1.1
# www.blender.org
mtllib __clay_block_08_30.mtl
o clay_block_30
v -0.500000 -0.500000 0.500000
v -0.500000 0.500000 0.500000
v -1.500000 0.500000 0.500000
v 0.500000 -0.350000 0.500000
v 0.350000 -0.500000 0.500000
v 0.479904 -0.425000 0.500000
v 0.425000 -0.479904 0.500000
v 0.350000 -0.500000 -0.350000
v 0.350000 -0.350000 -0.500000
v 0.500000 -0.350000 -0.350000
v 0.350000 -0.479961 -0.424902
v 0.424902 -0.479961 -0.350000
v 0.421732 -0.460495 -0.421732
v 0.424902 -0.350000 -0.479961
v 0.350000 -0.424902 -0.479961
v 0.421732 -0.421732 -0.460495
v 0.479961 -0.424902 -0.350000
v 0.479961 -0.350000 -0.424902
v 0.460495 -0.421732 -0.421732
v 0.350000 0.350000 -0.500000
v 0.350000 0.500000 -0.350000
v 0.500000 0.350000 -0.350000
v 0.350000 0.424902 -0.479961
v 0.424902 0.350000 -0.479961
v 0.421732 0.421732 -0.460495
v 0.424902 0.479961 -0.350000
v 0.350000 0.479961 -0.424902
v 0.421732 0.460495 -0.421732
v 0.479961 0.350000 -0.424902
v 0.479961 0.424902 -0.350000
v 0.460495 0.421732 -0.421732
v -1.350000 -0.500000 0.500000
v -1.500000 -0.350000 0.500000
v -1.425000 -0.479904 0.500000
v -1.479904 -0.425000 0.500000
v -0.500000 -0.350000 -0.500000
v -0.500000 -0.500000 -0.350000
v -0.500000 -0.425000 -0.479904
v -0.500000 -0.479904 -0.425000
v -1.500000 -0.350000 -0.350000
v -1.350000 -0.350000 -0.500000
v -1.350000 -0.500000 -0.350000
v -1.479960 -0.350000 -0.424902
v -1.479960 -0.424902 -0.350000
v -1.460495 -0.421732 -0.421732
v -1.350000 -0.424902 -0.479961
v -1.424901 -0.350000 -0.479961
v -1.421732 -0.421732 -0.460495
v -1.424901 -0.479961 -0.350000
v -1.350000 -0.479961 -0.424902
v -1.421732 -0.460495 -0.421732
v -0.500000 -0.350000 1.500000
v -0.500000 -0.500000 1.350000
v -0.500000 -0.425000 1.479904
v -0.500000 -0.479904 1.425000
v 0.350000 -0.500000 1.350000
v 0.500000 -0.350000 1.350000
v 0.350000 -0.350000 1.500000
v 0.424902 -0.479961 1.350000
v 0.350000 -0.479961 1.424901
v 0.421732 -0.460495 1.421732
v 0.479961 -0.350000 1.424901
v 0.479961 -0.424902 1.350000
v 0.460495 -0.421732 1.421732
v 0.350000 -0.424902 1.479960
v 0.424902 -0.350000 1.479960
v 0.421732 -0.421732 1.460495
v 0.350000 0.500000 1.350000
v 0.350000 0.350000 1.500000
v 0.500000 0.350000 1.350000
v 0.350000 0.479961 1.424901
v 0.424902 0.479961 1.350000
v 0.421732 0.460495 1.421732
v 0.424902 0.350000 1.479960
v 0.350000 0.424902 1.479960
v 0.421732 0.421732 1.460495
v 0.479961 0.424902 1.350000
v 0.479961 0.350000 1.424901
v 0.460495 0.421732 1.421732
v 0.500000 0.350000 0.500000
v 0.350000 0.500000 0.500000
v 0.479904 0.425000 0.500000
v 0.425000 0.479904 0.500000
v -1.500000 -0.350000 1.350000
v -1.350000 -0.500000 1.350000
v -1.350000 -0.350000 1.500000
v -1.479960 -0.424902 1.350000
v -1.479960 -0.350000 1.424901
v -1.460495 -0.421732 1.421732
v -1.350000 -0.479961 1.424901
v -1.424901 -0.479961 1.350000
v -1.421732 -0.460495 1.421732
v -1.424901 -0.350000 1.479960
v -1.350000 -0.424902 1.479960
v -1.421732 -0.421732 1.460495
v -1.350000 0.500000 1.500000
v -1.500000 0.500000 1.350000
v -1.425000 0.500000 1.479904
v -1.479904 0.500000 1.425000
v -0.500000 0.500000 1.350000
v -0.650000 0.350000 1.500000
v -0.520096 0.479904 1.425000
v -0.575000 0.425000 1.479904
v -0.500000 0.500000 -0.350000
v -0.650000 0.350000 -0.500000
v -0.520096 0.479904 -0.425000
v -0.575000 0.425000 -0.479904
v -1.350000 0.500000 -0.500000
v -1.500000 0.500000 -0.350000
v -1.425000 0.500000 -0.479904
v -1.479904 0.500000 -0.425000
v -0.650000 1.500000 0.500000
v -0.500000 1.350000 0.500000
v -0.575000 1.479904 0.500000
v -0.520096 1.425000 0.500000
v -0.500000 1.350000 -0.350000
v -0.650000 1.350000 -0.500000
v -0.650000 1.500000 -0.350000
v -0.520039 1.350000 -0.424902
v -0.520039 1.424901 -0.350000
v -0.539505 1.421732 -0.421732
v -0.650000 1.424901 -0.479961
v -0.575098 1.350000 -0.479961
v -0.578268 1.421732 -0.460495
v -0.575098 1.479960 -0.350000
v -0.650000 1.479960 -0.424902
v -0.578268 1.460495 -0.421732
v -1.350000 1.500000 -0.350000
v -1.350000 1.350000 -0.500000
v -1.500000 1.350000 -0.350000
v -1.350000 1.479960 -0.424902
v -1.424901 1.479960 -0.350000
v -1.421732 1.460495 -0.421732
v -1.424901 1.350000 -0.479961
v -1.350000 1.424901 -0.479961
v -1.421732 1.421732 -0.460495
v -1.479960 1.424901 -0.350000
v -1.479960 1.350000 -0.424902
v -1.460495 1.421732 -0.421732
v -1.500000 1.350000 1.350000
v -1.350000 1.350000 1.500000
v -1.350000 1.500000 1.350000
v -1.479960 1.350000 1.424901
v -1.479960 1.424901 1.350000
v -1.460495 1.421732 1.421732
v -1.350000 1.424901 1.479960
v -1.424901 1.350000 1.479960
v -1.421732 1.421732 1.460495
v -1.424901 1.479960 1.350000
v -1.350000 1.479960 1.424901
v -1.421732 1.460495 1.421732
v -0.650000 1.350000 1.500000
v -0.500000 1.350000 1.350000
v -0.650000 1.500000 1.350000
v -0.575098 1.350000 1.479960
v -0.650000 1.424901 1.479960
v -0.578268 1.421732 1.460495
v -0.520039 1.424901 1.350000
v -0.520039 1.350000 1.424901
v -0.539505 1.421732 1.421732
v -0.650000 1.479960 1.424901
v -0.575098 1.479960 1.350000
v -0.578268 1.460495 1.421732
v -1.350000 1.500000 0.500000
v -1.500000 1.350000 0.500000
v -1.425000 1.479904 0.500000
v -1.479904 1.425000 0.500000
vn -0.4083 -0.8165 0.4082
vn -0.0000 0.8000 0.6000
vn -0.8165 0.4083 0.4082
vn 0.8999 -0.1185 0.4196
vn 0.1185 -0.8999 0.4196
vn 0.7952 -0.4591 0.3961
vn 0.4591 -0.7952 0.3961
vn 0.1280 -0.9835 -0.1280
vn 0.1280 -0.1280 -0.9835
vn 0.9835 -0.1280 -0.1280
vn 0.1216 -0.8623 -0.4916
vn 0.4916 -0.8623 -0.1216
vn 0.4488 -0.7727 -0.4488
vn 0.4916 -0.1216 -0.8623
vn 0.1216 -0.4916 -0.8623
vn 0.4488 -0.4488 -0.7727
vn 0.8623 -0.4916 -0.1216
vn 0.8623 -0.1216 -0.4916
vn 0.7727 -0.4488 -0.4488
vn 0.1280 0.1280 -0.9835
vn 0.1280 0.9835 -0.1280
vn 0.9835 0.1280 -0.1280
vn 0.1216 0.4916 -0.8623
vn 0.4916 0.1216 -0.8623
vn 0.4488 0.4488 -0.7727
vn 0.4916 0.8623 -0.1216
vn 0.1216 0.8623 -0.4916
vn 0.4488 0.7727 -0.4488
vn 0.8623 0.1216 -0.4916
vn 0.8623 0.4916 -0.1216
vn 0.7727 0.4488 -0.4488
vn -0.1185 -0.8999 0.4196
vn -0.8999 -0.1185 0.4196
vn -0.4591 -0.7952 0.3961
vn -0.7952 -0.4591 0.3961
vn -0.4308 -0.1273 -0.8934
vn -0.4196 -0.8999 -0.1185
vn -0.3961 -0.4591 -0.7952
vn -0.3961 -0.7952 -0.4591
vn -0.9835 -0.1280 -0.1280
vn -0.1280 -0.1280 -0.9835
vn -0.1280 -0.9835 -0.1280
vn -0.8623 -0.1216 -0.4916
vn -0.8623 -0.4916 -0.1216
vn -0.7727 -0.4488 -0.4488
vn -0.1216 -0.4916 -0.8623
vn -0.4916 -0.1216 -0.8623
vn -0.4488 -0.4488 -0.7727
vn -0.4916 -0.8623 -0.1216
vn -0.1216 -0.8623 -0.4916
vn -0.4488 -0.7727 -0.4488
vn -0.4308 -0.1273 0.8934
vn -0.4196 -0.8999 0.1185
vn -0.3961 -0.4591 0.7952
vn -0.3961 -0.7952 0.4591
vn 0.1280 -0.9835 0.1280
vn 0.9835 -0.1280 0.1280
vn 0.1280 -0.1280 0.9835
vn 0.4916 -0.8623 0.1216
vn 0.1216 -0.8623 0.4916
vn 0.4488 -0.7727 0.4488
vn 0.8623 -0.1216 0.4916
vn 0.8623 -0.4916 0.1216
vn 0.7727 -0.4488 0.4488
vn 0.1216 -0.4916 0.8623
vn 0.4916 -0.1216 0.8623
vn 0.4488 -0.4488 0.7727
vn 0.1280 0.9835 0.1280
vn 0.1280 0.1280 0.9835
vn 0.9835 0.1280 0.1280
vn 0.1216 0.8623 0.4916
vn 0.4916 0.8623 0.1216
vn 0.4488 0.7727 0.4488
vn 0.4916 0.1216 0.8623
vn 0.1216 0.4916 0.8623
vn 0.4488 0.4488 0.7727
vn 0.8623 0.4916 0.1216
vn 0.8623 0.1216 0.4916
vn 0.7727 0.4488 0.4488
vn 0.8999 0.1185 0.4196
vn 0.1185 0.8999 0.4196
vn 0.7952 0.4591 0.3961
vn 0.4591 0.7952 0.3961
vn -0.9835 -0.1280 0.1280
vn -0.1280 -0.9835 0.1280
vn -0.1280 -0.1280 0.9835
vn -0.8623 -0.4916 0.1216
vn -0.8623 -0.1216 0.4916
vn -0.7727 -0.4488 0.4488
vn -0.1216 -0.8623 0.4916
vn -0.4916 -0.8623 0.1216
vn -0.4488 -0.7727 0.4488
vn -0.4916 -0.1216 0.8623
vn -0.1216 -0.4916 0.8623
vn -0.4488 -0.4488 0.7727
vn -0.1102 0.4083 0.9062
vn -0.8999 0.4196 0.1185
vn -0.4591 0.3961 0.7952
vn -0.7952 0.3961 0.4591
vn 0.1248 0.9798 0.1565
vn -0.1682 0.2318 0.9581
vn 0.1680 0.7635 0.6236
vn -0.0950 0.4765 0.8740
vn 0.1248 0.9798 -0.1564
vn -0.1682 0.2318 -0.9581
vn 0.1680 0.7635 -0.6236
vn -0.0950 0.4765 -0.8740
vn -0.1102 0.4083 -0.9062
vn -0.8999 0.4196 -0.1185
vn -0.4591 0.3961 -0.7952
vn -0.7952 0.3961 -0.4591
vn 0.4489 0.4488 -0.7727
vn -0.1280 0.9835 -0.1280
vn -0.1280 0.1280 -0.9835
vn -0.9835 0.1280 -0.1280
vn -0.1216 0.8623 -0.4916
vn -0.4916 0.8623 -0.1216
vn -0.4488 0.7727 -0.4488
vn -0.4916 0.1216 -0.8623
vn -0.1216 0.4916 -0.8623
vn -0.4488 0.4488 -0.7727
vn -0.8623 0.4916 -0.1216
vn -0.8623 0.1216 -0.4916
vn -0.7727 0.4488 -0.4488
vn -0.9835 0.1280 0.1280
vn -0.1280 0.1280 0.9835
vn -0.1280 0.9835 0.1280
vn -0.8623 0.1216 0.4916
vn -0.8623 0.4916 0.1216
vn -0.7727 0.4488 0.4488
vn -0.1216 0.4916 0.8623
vn -0.4916 0.1216 0.8623
vn -0.4488 0.4488 0.7727
vn -0.4916 0.8623 0.1216
vn -0.1216 0.8623 0.4916
vn -0.4488 0.7727 0.4488
vn -0.1185 0.8999 0.4196
vn -0.8999 0.1185 0.4196
vn -0.4591 0.7952 0.3961
vn -0.7952 0.4591 0.3961
vt 0.350000 -0.350000
vt -0.500000 0.350000
vt -0.500000 -0.350000
vt -0.500000 0.500000
vt 0.350000 0.350000
vt 0.350000 -0.500000
vt -0.500000 -0.500000
vt -1.350000 0.350000
vt -1.350000 -0.350000
vt -0.650000 0.350000
vt 0.350000 0.500000
vt -0.500000 1.350000
vt -1.350000 0.500000
vt 0.479904 -0.425000
vt 0.425000 -0.479904
vt -1.350000 -0.500000
vt -0.500000 -1.350000
vt -1.350000 -1.350000
vt -0.650000 1.350000
vt -1.350000 1.350000
vt 0.500000 0.350000
vt 0.350000 -1.350000
vt -1.500000 -0.350000
vt -0.650000 -1.350000
vt -1.425000 0.479904
vt -1.479904 0.425000
vt -1.500000 0.350000
vt -0.650000 -0.500000
vt -1.425000 1.479904
vt -1.479904 1.425000
vt -1.500000 1.350000
vt -1.500000 -1.350000
vt -1.350000 -1.500000
vt 0.350000 0.424902
vt 0.424902 0.350000
vt 0.350000 -0.479961
vt 0.421732 -0.421732
vt 0.421732 -0.460495
vt 0.424902 -0.350000
vt 0.350000 -0.424902
vt 0.460495 -0.421732
vt 0.479961 -0.350000
vt 0.460495 0.421732
vt 0.479961 0.350000
vt 0.421732 0.460495
vt 0.350000 0.479961
vt 0.421732 0.421732
vt -1.350000 -0.424902
vt -1.424901 -0.350000
vt -1.350000 -0.479961
vt -1.421732 -0.421732
vt -1.424901 0.350000
vt -1.350000 0.424902
vt -1.460495 -0.421732
vt -1.421732 -0.460495
vt 0.424902 -1.350000
vt 0.350000 -1.424901
vt 0.350000 -1.479960
vt 0.421732 -1.421732
vt 0.421732 -1.460495
vt -1.350000 0.479961
vt -1.421732 0.421732
vt -1.421732 0.460495
vt -1.460495 0.421732
vt -1.350000 -1.424901
vt -1.424901 -1.350000
vt -1.421732 -1.460495
vt -1.421732 -1.421732
vt -1.479960 -0.350000
vt -1.460495 -1.421732
vt 0.424902 1.350000
vt 0.350000 1.424901
vt 0.350000 1.350000
vt 0.460495 1.421732
vt 0.421732 1.421732
vt -0.650000 1.424901
vt -0.575098 1.350000
vt -0.578268 1.460495
vt -0.578268 1.421732
vt -0.575098 0.350000
vt -0.650000 0.424902
vt 0.421732 1.460495
vt 0.350000 1.479960
vt -1.350000 1.479960
vt -1.421732 1.421732
vt -1.421732 1.460495
vt -1.424901 1.350000
vt -1.350000 1.424901
vt 0.479961 1.350000
vt -1.460495 1.421732
vt -1.479960 1.350000
vt -0.650000 -1.424901
vt -0.575098 -1.350000
vt -0.650000 1.479960
vt -0.500000 -0.425000
vt -0.500000 -0.479904
vt -1.425000 -0.500000
vt -0.500000 0.425000
vt -1.425000 0.500000
vt -1.479904 0.500000
vt -0.500000 1.425000
vt -0.520039 0.350000
vt -0.575000 -0.500000
vt -0.520096 -0.500000
vt -0.650000 0.479961
vt 0.425000 0.479904
vt -0.575000 0.425000
vt 0.425000 0.500000
vt 0.479904 0.500000
vt -0.500000 1.479904
vt -0.500000 0.479904
vt 0.425000 -0.500000
vt -0.520096 0.479904
vt -0.520096 -1.425000
vt -0.500000 -1.425000
vt 0.500000 -0.350000
vt 0.479904 0.425000
vt -1.500000 0.500000
vt -1.479904 -0.425000
vt -1.425000 -0.479904
vt -1.500000 -0.500000
vt -0.520096 1.425000
vt -0.650000 1.500000
vt -0.575000 1.479904
vt -1.350000 1.500000
vt -1.479904 -1.425000
vt -1.425000 -1.479904
vt -1.479960 0.350000
vt -0.578268 0.421732
vt -0.578268 -1.421732
vt -0.520096 0.425000
s 1
usemtl ClayMat_30
f 10/1/10 80/2/80 4/3/4
f 3/4/3 40/1/40 33/3/33
f 36/3/36 20/5/20 9/1/9
f 81/6/81 104/2/104 2/7/2
f 4/3/4 70/8/70 57/9/57
f 52/3/52 69/5/69 101/10/101
f 41/9/41 105/10/105 36/3/36
f 104/11/104 113/12/80 2/4/2
f 97/13/97 33/3/33 84/9/84
f 38/14/38 39/15/39 37/6/37
f 32/16/32 53/17/53 85/18/85
f 37/2/37 5/6/5 1/7/1
f 96/13/96 152/19/69 141/20/126
f 86/9/86 101/10/101 96/13/96
f 81/11/81 5/6/5 80/21/80
f 68/22/68 2/7/2 100/17/100
f 32/16/32 1/7/1 2/4/2
f 140/20/125 3/4/3 97/13/97
f 53/16/53 52/23/52 100/13/100
f 42/8/42 1/7/1 32/16/32
f 154/24/68 164/16/137 142/18/127
f 110/25/110 111/26/111 109/27/109
f 165/12/138 109/11/109 3/4/3
f 112/28/81 128/8/113 164/16/137
f 166/29/139 167/30/140 165/31/138
f 97/32/97 96/33/96 100/17/100
f 108/13/108 117/19/20 105/10/105
f 2/4/2 153/20/70 100/13/100
f 11/34/11 12/35/12 8/5/8
f 11/36/11 16/37/16 13/38/13
f 14/39/14 15/40/15 9/1/9
f 18/39/18 16/41/16 14/42/14
f 17/40/17 18/39/18 10/1/10
f 12/35/12 19/43/19 17/44/17
f 13/38/13 16/41/16 19/37/19
f 23/34/23 24/35/24 20/5/20
f 27/34/27 25/45/25 23/46/23
f 26/35/26 27/34/27 21/5/21
f 26/46/26 31/47/31 28/45/28
f 29/35/29 30/34/30 22/5/22
f 24/35/24 31/43/31 29/44/29
f 25/43/25 28/45/28 31/47/31
f 43/39/43 44/40/44 40/1/40
f 47/42/47 45/37/45 43/39/43
f 46/48/46 47/49/47 41/9/41
f 50/50/50 48/51/48 46/48/46
f 49/52/49 50/53/50 42/8/42
f 44/40/44 51/38/51 49/36/49
f 45/54/45 48/51/48 51/55/51
f 59/56/59 60/57/60 56/22/56
f 59/50/59 64/51/64 61/55/61
f 62/49/62 63/48/63 57/9/57
f 62/49/62 67/54/67 64/51/64
f 65/40/65 66/39/66 58/1/58
f 65/58/65 61/59/61 67/60/67
f 61/55/61 64/51/64 67/54/67
f 71/57/71 72/56/72 68/22/68
f 75/34/75 73/45/73 71/46/71
f 74/35/74 75/34/75 69/5/69
f 78/44/78 76/47/76 74/35/74
f 77/53/77 78/52/78 70/8/70
f 72/61/72 79/62/79 77/53/77
f 73/63/73 76/64/76 79/62/79
f 87/48/87 88/49/88 84/9/84
f 91/50/91 89/51/89 87/48/87
f 90/65/90 91/66/91 85/18/85
f 90/65/90 95/67/95 92/68/92
f 93/49/93 94/48/94 86/9/86
f 88/49/88 95/54/95 93/69/93
f 89/70/89 92/68/92 95/67/95
f 119/71/29 120/72/30 116/73/22
f 119/71/29 124/74/112 121/75/31
f 122/76/23 123/77/24 117/19/20
f 122/76/23 127/78/28 124/79/112
f 125/80/26 126/81/27 118/10/21
f 120/72/30 127/82/28 125/83/26
f 121/75/31 124/74/112 127/82/28
f 131/53/116 132/52/117 128/8/113
f 131/84/116 136/85/121 133/86/118
f 134/87/119 135/88/120 129/20/114
f 138/71/123 136/74/121 134/89/119
f 137/72/122 138/71/123 130/73/115
f 137/72/122 133/82/118 139/75/124
f 133/86/118 136/85/121 139/90/124
f 143/87/128 144/88/129 140/20/125
f 147/91/132 145/85/130 143/87/128
f 146/88/131 147/87/132 141/20/126
f 150/84/135 148/85/133 146/88/131
f 149/66/134 150/65/135 142/18/127
f 149/84/134 145/85/130 151/86/136
f 145/85/130 148/90/133 151/86/136
f 155/77/74 156/76/75 152/19/69
f 155/91/74 160/85/79 157/90/76
f 158/88/77 159/87/78 153/20/70
f 158/88/77 163/86/73 160/85/79
f 161/92/71 162/93/72 154/24/68
f 156/76/75 163/78/73 161/94/71
f 157/90/76 160/85/79 163/86/73
f 4/3/4 17/40/17 10/1/10
f 6/95/6 12/36/12 17/40/17
f 12/35/12 5/6/5 8/5/8
f 10/1/10 29/35/29 22/5/22
f 18/39/18 24/44/24 29/35/29
f 14/39/14 20/5/20 24/35/24
f 33/3/33 44/40/44 35/95/35
f 44/40/44 34/96/34 35/95/35
f 49/52/49 32/16/32 34/97/34
f 36/3/36 46/48/46 41/9/41
f 38/95/38 50/50/50 46/48/46
f 50/53/50 37/2/37 42/8/42
f 52/3/52 65/40/65 58/1/58
f 54/95/54 60/36/60 65/40/65
f 60/57/60 53/17/53 56/22/56
f 80/2/80 77/53/77 70/8/70
f 82/98/82 72/61/72 77/53/77
f 72/56/72 81/6/81 68/22/68
f 70/8/70 62/49/62 57/9/57
f 78/44/78 66/39/66 62/42/62
f 66/39/66 69/5/69 58/1/58
f 97/13/97 88/49/88 99/99/99
f 88/49/88 98/100/98 99/99/99
f 93/49/93 96/13/96 98/99/98
f 113/12/80 120/72/30 115/101/82
f 120/102/30 114/103/83 115/104/82
f 125/80/26 112/28/81 114/103/83
f 129/20/114 122/76/23 117/19/20
f 135/61/120 126/81/27 122/105/23
f 131/53/116 118/10/21 126/81/27
f 104/11/104 119/71/29 116/73/22
f 106/106/106 123/89/24 119/71/29
f 107/107/107 117/19/20 123/77/24
f 109/11/109 138/71/123 111/108/111
f 111/108/111 134/89/119 110/109/110
f 134/87/119 108/13/108 110/99/110
f 165/12/138 144/88/129 167/101/140
f 167/101/140 149/84/134 166/110/139
f 149/66/134 164/16/137 166/97/139
f 152/19/69 146/88/131 141/20/126
f 156/76/75 150/84/135 146/88/131
f 161/92/71 142/18/127 150/65/135
f 36/3/36 15/40/15 38/95/38
f 15/40/15 39/96/39 38/95/38
f 11/34/11 37/2/37 39/98/39
f 80/2/80 30/34/30 82/98/82
f 30/34/30 83/111/83 82/98/82
f 26/35/26 81/6/81 83/112/83
f 20/5/20 107/107/107 23/34/23
f 23/34/23 106/113/106 27/46/27
f 27/34/27 104/2/104 21/5/21
f 109/11/109 43/39/43 40/1/40
f 111/108/111 47/42/47 43/39/43
f 47/49/47 108/13/108 41/9/41
f 4/3/4 63/48/63 6/95/6
f 63/48/63 7/96/7 6/95/6
f 59/56/59 5/6/5 7/112/7
f 69/5/69 103/107/103 101/10/101
f 75/34/75 102/113/102 103/107/103
f 71/57/71 100/17/100 102/114/102
f 52/3/52 94/48/94 54/95/54
f 94/48/94 55/96/55 54/95/54
f 90/65/90 53/17/53 55/115/55
f 33/3/33 87/48/87 84/9/84
f 35/95/35 91/50/91 87/48/87
f 91/66/91 32/16/32 85/18/85
f 165/12/138 137/72/122 130/73/115
f 167/101/140 132/83/117 137/72/122
f 132/52/117 164/16/137 128/8/113
f 113/12/80 158/88/77 153/20/70
f 115/101/82 162/84/72 158/88/77
f 162/93/72 112/28/81 154/24/68
f 97/13/97 143/87/128 140/20/125
f 99/99/99 147/91/132 143/87/128
f 147/87/132 96/13/96 141/20/126
f 100/13/100 159/87/78 102/25/102
f 102/113/102 155/77/74 103/107/103
f 103/107/103 152/19/69 101/10/101
f 1/7/1 56/22/56 53/17/53
f 10/1/10 22/5/22 80/2/80
f 3/4/3 109/11/109 40/1/40
f 36/3/36 105/10/105 20/5/20
f 81/6/81 21/5/21 104/2/104
f 4/3/4 80/2/80 70/8/70
f 52/3/52 58/1/58 69/5/69
f 41/9/41 108/13/108 105/10/105
f 104/11/104 116/73/22 113/12/80
f 97/13/97 3/4/3 33/3/33
f 37/6/37 1/7/1 104/11/104
f 1/7/1 2/4/2 104/11/104
f 104/11/104 106/106/106 105/21/105
f 37/6/37 104/11/104 36/116/36
f 106/106/106 107/117/107 105/21/105
f 105/10/105 36/3/36 104/4/104
f 36/116/36 38/14/38 37/6/37
f 32/16/32 1/7/1 53/17/53
f 37/2/37 8/5/8 5/6/5
f 96/13/96 101/10/101 152/19/69
f 86/9/86 52/3/52 101/10/101
f 2/4/2 1/7/1 5/6/5
f 5/6/5 7/15/7 6/14/6
f 6/14/6 4/116/4 5/6/5
f 4/116/4 80/21/80 5/6/5
f 80/21/80 82/117/82 83/106/83
f 83/106/83 81/11/81 80/21/80
f 81/11/81 2/4/2 5/6/5
f 68/22/68 81/6/81 2/7/2
f 3/118/3 33/23/33 2/4/2
f 33/23/33 35/119/35 32/16/32
f 2/4/2 33/23/33 32/16/32
f 35/119/35 34/120/34 32/16/32
f 140/20/125 165/12/138 3/4/3
f 1/7/1 53/16/53 100/13/100
f 53/16/53 55/120/55 54/119/54
f 52/23/52 53/16/53 54/119/54
f 52/3/52 101/10/101 100/4/100
f 101/27/101 103/26/103 102/25/102
f 100/13/100 101/27/101 102/25/102
f 100/13/100 2/4/2 1/7/1
f 42/8/42 37/2/37 1/7/1
f 154/24/68 112/28/81 164/16/137
f 109/27/109 3/121/3 104/2/104
f 3/121/3 2/7/2 104/2/104
f 109/27/109 104/2/104 108/13/108
f 105/10/105 108/13/108 104/4/104
f 108/13/108 110/25/110 109/27/109
f 165/12/138 130/73/115 109/11/109
f 112/28/81 118/10/21 128/8/113
f 165/31/138 3/118/3 2/4/2
f 2/4/2 113/12/80 165/31/138
f 113/12/80 115/122/82 112/123/81
f 165/31/138 113/12/80 112/123/81
f 115/122/82 114/124/83 112/123/81
f 112/123/81 164/125/137 165/31/138
f 164/125/137 166/29/139 165/31/138
f 3/121/3 97/32/97 100/17/100
f 97/32/97 99/126/99 98/127/98
f 96/33/96 97/32/97 98/127/98
f 96/13/96 101/10/101 100/4/100
f 100/17/100 2/7/2 3/121/3
f 108/13/108 129/20/114 117/19/20
f 2/4/2 113/12/80 153/20/70
f 11/34/11 13/47/13 12/35/12
f 11/36/11 15/40/15 16/37/16
f 14/39/14 16/37/16 15/40/15
f 18/39/18 19/37/19 16/41/16
f 17/40/17 19/37/19 18/39/18
f 12/36/12 13/38/13 19/37/19
f 23/34/23 25/47/25 24/35/24
f 27/46/27 28/45/28 25/47/25
f 26/35/26 28/47/28 27/34/27
f 26/46/26 30/34/30 31/47/31
f 29/35/29 31/47/31 30/34/30
f 24/44/24 25/43/25 31/47/31
f 43/39/43 45/37/45 44/40/44
f 47/49/47 48/51/48 45/54/45
f 46/48/46 48/51/48 47/49/47
f 50/50/50 51/55/51 48/51/48
f 49/52/49 51/62/51 50/53/50
f 44/128/44 45/64/45 51/62/51
f 59/56/59 61/59/61 60/57/60
f 59/50/59 63/48/63 64/51/64
f 62/49/62 64/51/64 63/48/63
f 62/42/62 66/39/66 67/37/67
f 65/40/65 67/37/67 66/39/66
f 65/40/65 60/36/60 61/38/61
f 71/57/71 73/59/73 72/56/72
f 75/58/75 76/60/76 73/59/73
f 74/35/74 76/47/76 75/34/75
f 78/52/78 79/62/79 76/64/76
f 77/53/77 79/62/79 78/52/78
f 72/61/72 73/63/73 79/62/79
f 87/48/87 89/51/89 88/49/88
f 91/66/91 92/68/92 89/70/89
f 90/65/90 92/68/92 91/66/91
f 90/50/90 94/48/94 95/51/95
f 93/49/93 95/51/95 94/48/94
f 88/49/88 89/51/89 95/54/95
f 119/71/29 121/75/31 120/72/30
f 119/71/29 123/89/24 124/74/112
f 122/76/23 124/79/112 123/77/24
f 122/105/23 126/81/27 127/129/28
f 125/80/26 127/129/28 126/81/27
f 120/72/30 121/75/31 127/82/28
f 131/53/116 133/62/118 132/52/117
f 131/53/116 135/61/120 136/63/121
f 134/87/119 136/85/121 135/88/120
f 138/91/123 139/90/124 136/85/121
f 137/72/122 139/75/124 138/71/123
f 137/72/122 132/83/117 133/82/118
f 143/87/128 145/85/130 144/88/129
f 147/91/132 148/90/133 145/85/130
f 146/88/131 148/85/133 147/87/132
f 150/84/135 151/86/136 148/85/133
f 149/66/134 151/68/136 150/65/135
f 149/84/134 144/88/129 145/85/130
f 155/77/74 157/79/76 156/76/75
f 155/91/74 159/87/78 160/85/79
f 158/88/77 160/85/79 159/87/78
f 158/88/77 162/84/72 163/86/73
f 161/92/71 163/130/73 162/93/72
f 156/76/75 157/79/76 163/78/73
f 4/3/4 6/95/6 17/40/17
f 6/95/6 7/96/7 12/36/12
f 12/35/12 7/112/7 5/6/5
f 10/1/10 18/39/18 29/35/29
f 18/39/18 14/42/14 24/44/24
f 14/39/14 9/1/9 20/5/20
f 33/3/33 40/1/40 44/40/44
f 44/40/44 49/36/49 34/96/34
f 49/52/49 42/8/42 32/16/32
f 36/3/36 38/95/38 46/48/46
f 38/95/38 39/96/39 50/50/50
f 50/53/50 39/98/39 37/2/37
f 52/3/52 54/95/54 65/40/65
f 54/95/54 55/96/55 60/36/60
f 60/57/60 55/115/55 53/17/53
f 80/2/80 82/98/82 77/53/77
f 82/98/82 83/111/83 72/61/72
f 72/56/72 83/112/83 81/6/81
f 70/8/70 78/52/78 62/49/62
f 78/44/78 74/35/74 66/39/66
f 66/39/66 74/35/74 69/5/69
f 97/13/97 84/9/84 88/49/88
f 88/49/88 93/69/93 98/100/98
f 93/49/93 86/9/86 96/13/96
f 113/12/80 116/73/22 120/72/30
f 120/72/30 125/83/26 114/110/83
f 125/80/26 118/10/21 112/28/81
f 129/20/114 135/88/120 122/76/23
f 135/61/120 131/53/116 126/81/27
f 131/53/116 128/8/113 118/10/21
f 104/11/104 106/106/106 119/71/29
f 106/113/106 107/107/107 123/77/24
f 107/107/107 105/10/105 117/19/20
f 109/11/109 130/73/115 138/71/123
f 111/108/111 138/71/123 134/89/119
f 134/87/119 129/20/114 108/13/108
f 165/12/138 140/20/125 144/88/129
f 167/101/140 144/88/129 149/84/134
f 149/66/134 142/18/127 164/16/137
f 152/19/69 156/76/75 146/88/131
f 156/76/75 161/94/71 150/84/135
f 161/92/71 154/24/68 142/18/127
f 36/3/36 9/1/9 15/40/15
f 15/40/15 11/36/11 39/96/39
f 11/34/11 8/5/8 37/2/37
f 80/2/80 22/5/22 30/34/30
f 30/34/30 26/46/26 83/111/83
f 26/35/26 21/5/21 81/6/81
f 20/5/20 105/10/105 107/107/107
f 23/34/23 107/107/107 106/113/106
f 27/34/27 106/131/106 104/2/104
f 109/11/109 111/108/111 43/39/43
f 111/108/111 110/109/110 47/42/47
f 47/49/47 110/99/110 108/13/108
f 4/3/4 57/9/57 63/48/63
f 63/48/63 59/50/59 7/96/7
f 59/56/59 56/22/56 5/6/5
f 69/5/69 75/34/75 103/107/103
f 75/34/75 71/46/71 102/113/102
f 71/57/71 68/22/68 100/17/100
f 52/3/52 86/9/86 94/48/94
f 94/48/94 90/50/90 55/96/55
f 90/65/90 85/18/85 53/17/53
f 33/3/33 35/95/35 87/48/87
f 35/95/35 34/96/34 91/50/91
f 91/66/91 34/97/34 32/16/32
f 165/12/138 167/101/140 137/72/122
f 167/101/140 166/110/139 132/83/117
f 132/52/117 166/97/139 164/16/137
f 113/12/80 115/101/82 158/88/77
f 115/104/82 114/103/83 162/93/72
f 162/93/72 114/103/83 112/28/81
f 97/13/97 99/99/99 143/87/128
f 99/99/99 98/100/98 147/91/132
f 147/87/132 98/99/98 96/13/96
f 100/13/100 153/20/70 159/87/78
f 102/25/102 159/87/78 155/91/74
f 103/107/103 155/77/74 152/19/69
f 1/7/1 5/6/5 56/22/56
