# Blender 4.1.1
# www.blender.org
mtllib __clay_block_02_11.mtl
o clay_block_11
v 0.350000 -0.500000 0.350000
v 0.500000 -0.350000 0.350000
v 0.350000 -0.350000 0.500000
v 0.424902 -0.479961 0.350000
v 0.350000 -0.479961 0.424902
v 0.421732 -0.460495 0.421732
v 0.479961 -0.350000 0.424902
v 0.479961 -0.424902 0.350000
v 0.460495 -0.421732 0.421732
v 0.350000 -0.424902 0.479961
v 0.424902 -0.350000 0.479961
v 0.421732 -0.421732 0.460495
v 0.350000 -0.500000 -0.350000
v 0.350000 -0.350000 -0.500000
v 0.500000 -0.350000 -0.350000
v 0.350000 -0.479961 -0.424902
v 0.424902 -0.479961 -0.350000
v 0.421732 -0.460495 -0.421732
v 0.424902 -0.350000 -0.479961
v 0.350000 -0.424902 -0.479961
v 0.421732 -0.421732 -0.460495
v 0.479961 -0.424902 -0.350000
v 0.479961 -0.350000 -0.424902
v 0.460495 -0.421732 -0.421732
v 0.350000 0.500000 0.350000
v 0.350000 0.350000 0.500000
v 0.500000 0.350000 0.350000
v 0.350000 0.479961 0.424902
v 0.424902 0.479961 0.350000
v 0.421732 0.460495 0.421732
v 0.424902 0.350000 0.479961
v 0.350000 0.424902 0.479961
v 0.421732 0.421732 0.460495
v 0.479961 0.424902 0.350000
v 0.479961 0.350000 0.424902
v 0.460495 0.421732 0.421732
v 0.350000 0.500000 -0.350000
v 0.500000 0.350000 -0.350000
v 0.350000 0.350000 -0.500000
v 0.424902 0.479961 -0.350000
v 0.350000 0.479961 -0.424902
v 0.421732 0.460495 -0.421732
v 0.479961 0.350000 -0.424902
v 0.479961 0.424902 -0.350000
v 0.460495 0.421732 -0.421732
v 0.350000 0.424902 -0.479961
v 0.424902 0.350000 -0.479961
v 0.421732 0.421732 -0.460495
v -1.500000 -0.350000 0.500000
v -1.500000 -0.500000 0.350000
v -1.500000 -0.425000 0.479904
v -1.500000 -0.479904 0.425000
v -0.500000 -0.500000 0.350000
v -0.500000 -0.350000 0.500000
v -0.500000 -0.479904 0.425000
v -0.500000 -0.425000 0.479904
v -0.500000 -0.500000 -0.350000
v -0.500000 -0.350000 -0.500000
v -0.500000 -0.479904 -0.425000
v -0.500000 -0.425000 -0.479904
v -1.500000 0.500000 0.350000
v -1.500000 0.350000 0.500000
v -1.500000 0.479904 0.425000
v -1.500000 0.425000 0.479904
v -0.500000 0.350000 0.500000
v -0.500000 0.500000 0.350000
v -0.500000 0.425000 0.479904
v -0.500000 0.479904 0.425000
v -0.500000 0.500000 -0.350000
v -0.500000 0.350000 -0.500000
v -0.500000 0.479904 -0.425000
v -0.500000 0.425000 -0.479904
v -1.500000 0.350000 -0.500000
v -1.500000 0.500000 -0.350000
v -1.500000 0.425000 -0.479904
v -1.500000 0.479904 -0.425000
v -2.350000 -0.500000 0.350000
v -2.350000 -0.350000 0.500000
v -2.500000 -0.350000 0.350000
v -2.350000 -0.479961 0.424902
v -2.424901 -0.479961 0.350000
v -2.421732 -0.460495 0.421732
v -2.424901 -0.350000 0.479961
v -2.350000 -0.424902 0.479961
v -2.421732 -0.421732 0.460495
v -2.479960 -0.424902 0.350000
v -2.479960 -0.350000 0.424902
v -2.460495 -0.421732 0.421732
v -1.500000 -0.350000 -0.500000
v -1.500000 -0.500000 -0.350000
v -1.500000 -0.425000 -0.479904
v -1.500000 -0.479904 -0.425000
v -2.500000 -0.350000 -0.350000
v -2.350000 -0.350000 -0.500000
v -2.350000 -0.500000 -0.350000
v -2.479960 -0.350000 -0.424902
v -2.479960 -0.424902 -0.350000
v -2.460495 -0.421732 -0.421732
v -2.350000 -0.424902 -0.479961
v -2.424901 -0.350000 -0.479961
v -2.421732 -0.421732 -0.460495
v -2.424901 -0.479961 -0.350000
v -2.350000 -0.479961 -0.424902
v -2.421732 -0.460495 -0.421732
v -2.350000 0.500000 0.350000
v -2.500000 0.350000 0.350000
v -2.350000 0.350000 0.500000
v -2.424901 0.479961 0.350000
v -2.350000 0.479961 0.424902
v -2.421732 0.460495 0.421732
v -2.479960 0.350000 0.424902
v -2.479960 0.424902 0.350000
v -2.460495 0.421732 0.421732
v -2.350000 0.424902 0.479961
v -2.424901 0.350000 0.479961
v -2.421732 0.421732 0.460495
v -2.350000 0.500000 -0.350000
v -2.350000 0.350000 -0.500000
v -2.500000 0.350000 -0.350000
v -2.350000 0.479961 -0.424902
v -2.424901 0.479961 -0.350000
v -2.421732 0.460495 -0.421732
v -2.424901 0.350000 -0.479961
v -2.350000 0.424902 -0.479961
v -2.421732 0.421732 -0.460495
v -2.479960 0.424902 -0.350000
v -2.479960 0.350000 -0.424902
v -2.460495 0.421732 -0.421732
vn 0.1280 -0.9835 0.1280
vn 0.9835 -0.1280 0.1280
vn 0.1280 -0.1280 0.9835
vn 0.4916 -0.8623 0.1216
vn 0.1216 -0.8623 0.4916
vn 0.4488 -0.7727 0.4488
vn 0.8623 -0.1216 0.4916
vn 0.8623 -0.4916 0.1216
vn 0.7727 -0.4488 0.4488
vn 0.1216 -0.4916 0.8623
vn 0.4916 -0.1216 0.8623
vn 0.4488 -0.4488 0.7727
vn 0.1280 -0.9835 -0.1280
vn 0.1280 -0.1280 -0.9835
vn 0.9835 -0.1280 -0.1280
vn 0.1216 -0.8623 -0.4916
vn 0.4916 -0.8623 -0.1216
vn 0.4488 -0.7727 -0.4488
vn 0.4916 -0.1216 -0.8623
vn 0.1216 -0.4916 -0.8623
vn 0.4488 -0.4488 -0.7727
vn 0.8623 -0.4916 -0.1216
vn 0.8623 -0.1216 -0.4916
vn 0.7727 -0.4488 -0.4488
vn 0.1280 0.9835 0.1280
vn 0.1280 0.1280 0.9835
vn 0.9835 0.1280 0.1280
vn 0.1216 0.8623 0.4916
vn 0.4916 0.8623 0.1216
vn 0.4488 0.7727 0.4488
vn 0.4916 0.1216 0.8623
vn 0.1216 0.4916 0.8623
vn 0.4488 0.4488 0.7727
vn 0.8623 0.4916 0.1216
vn 0.8623 0.1216 0.4916
vn 0.7727 0.4488 0.4488
vn 0.1280 0.9835 -0.1280
vn 0.9835 0.1280 -0.1280
vn 0.1280 0.1280 -0.9835
vn 0.4916 0.8623 -0.1216
vn 0.1216 0.8623 -0.4916
vn 0.4488 0.7727 -0.4488
vn 0.8623 0.1216 -0.4916
vn 0.8623 0.4916 -0.1216
vn 0.7727 0.4488 -0.4488
vn 0.1216 0.4916 -0.8623
vn 0.4916 0.1216 -0.8623
vn 0.4488 0.4488 -0.7727
vn -0.4196 -0.1185 0.8999
vn -0.4196 -0.8999 0.1185
vn -0.3961 -0.4591 0.7952
vn -0.3961 -0.7952 0.4591
vn 0.4196 -0.8999 0.1185
vn 0.4196 -0.1185 0.8999
vn 0.3961 -0.7952 0.4591
vn 0.3961 -0.4591 0.7952
vn 0.4196 -0.8999 -0.1185
vn 0.4196 -0.1185 -0.8999
vn 0.3961 -0.7952 -0.4591
vn 0.3961 -0.4591 -0.7952
vn -0.4196 0.8999 0.1185
vn -0.4196 0.1185 0.8999
vn -0.3961 0.7952 0.4591
vn -0.3961 0.4591 0.7952
vn 0.4196 0.1185 0.8999
vn 0.4196 0.8999 0.1185
vn 0.3961 0.4591 0.7952
vn 0.3961 0.7952 0.4591
vn 0.4196 0.8999 -0.1185
vn 0.4196 0.1185 -0.8999
vn 0.3961 0.7952 -0.4591
vn 0.3961 0.4591 -0.7952
vn -0.4196 0.1185 -0.8999
vn -0.4196 0.8999 -0.1185
vn -0.3961 0.4591 -0.7952
vn -0.3961 0.7952 -0.4591
vn -0.1280 -0.9835 0.1280
vn -0.1280 -0.1280 0.9835
vn -0.9835 -0.1280 0.1280
vn -0.1216 -0.8623 0.4916
vn -0.4916 -0.8623 0.1216
vn -0.4488 -0.7727 0.4488
vn -0.4916 -0.1216 0.8623
vn -0.1216 -0.4916 0.8623
vn -0.4488 -0.4488 0.7727
vn -0.8623 -0.4916 0.1216
vn -0.8623 -0.1216 0.4916
vn -0.7727 -0.4488 0.4488
vn -0.4196 -0.1185 -0.8999
vn -0.4196 -0.8999 -0.1185
vn -0.3961 -0.4591 -0.7952
vn -0.3961 -0.7952 -0.4591
vn -0.9835 -0.1280 -0.1280
vn -0.1280 -0.1280 -0.9835
vn -0.1280 -0.9835 -0.1280
vn -0.8623 -0.1216 -0.4916
vn -0.8623 -0.4916 -0.1216
vn -0.7727 -0.4488 -0.4488
vn -0.1216 -0.4916 -0.8623
vn -0.4916 -0.1216 -0.8623
vn -0.4488 -0.4488 -0.7727
vn -0.4916 -0.8623 -0.1216
vn -0.1216 -0.8623 -0.4916
vn -0.4488 -0.7727 -0.4488
vn -0.1280 0.9835 0.1280
vn -0.9835 0.1280 0.1280
vn -0.1280 0.1280 0.9835
vn -0.4916 0.8623 0.1216
vn -0.1216 0.8623 0.4916
vn -0.4488 0.7727 0.4488
vn -0.8623 0.1216 0.4916
vn -0.8623 0.4916 0.1216
vn -0.7727 0.4488 0.4488
vn -0.1216 0.4916 0.8623
vn -0.4916 0.1216 0.8623
vn -0.4488 0.4488 0.7727
vn -0.1280 0.9835 -0.1280
vn -0.1280 0.1280 -0.9835
vn -0.9835 0.1280 -0.1280
vn -0.1216 0.8623 -0.4916
vn -0.4916 0.8623 -0.1216
vn -0.4488 0.7727 -0.4488
vn -0.4916 0.1216 -0.8623
vn -0.1216 0.4916 -0.8623
vn -0.4488 0.4488 -0.7727
vn -0.8623 0.4916 -0.1216
vn -0.8623 0.1216 -0.4916
vn -0.7727 0.4488 -0.4488
vt -0.500000 -0.350000
vt 0.350000 0.350000
vt 0.350000 -0.350000
vt -1.500000 0.350000
vt -1.500000 -0.350000
vt -0.500000 0.350000
vt -2.350000 0.350000
vt -2.350000 -0.350000
vt 0.500000 -0.350000
vt 0.350000 0.500000
vt -0.350000 0.500000
vt 0.500000 0.350000
vt 0.350000 -0.500000
vt -0.350000 0.350000
vt -0.350000 -0.350000
vt 0.424902 -0.350000
vt 0.350000 -0.424902
vt -0.350000 -0.479961
vt -0.421732 -0.421732
vt -0.421732 -0.460495
vt -0.424902 -0.350000
vt -0.350000 -0.424902
vt 0.460495 -0.421732
vt 0.479961 -0.350000
vt 0.421732 -0.460495
vt 0.350000 -0.479961
vt -0.460495 -0.421732
vt 0.350000 0.424902
vt 0.424902 0.350000
vt 0.421732 -0.421732
vt 0.460495 0.421732
vt 0.479961 0.350000
vt 0.350000 0.479961
vt 0.421732 0.421732
vt 0.421732 0.460495
vt -0.424902 0.350000
vt -0.460495 0.421732
vt -0.479961 0.350000
vt -0.350000 0.424902
vt -0.421732 0.460495
vt -0.421732 0.421732
vt -2.350000 -0.424902
vt -2.424901 -0.350000
vt -2.350000 -0.479961
vt -2.421732 -0.421732
vt -2.421732 -0.460495
vt -0.479961 -0.350000
vt -2.424901 0.350000
vt -2.350000 0.424902
vt -0.350000 0.479961
vt -2.350000 0.479961
vt -2.421732 0.421732
vt -2.421732 0.460495
vt -0.500000 -0.425000
vt -1.500000 -0.425000
vt -0.500000 -0.479904
vt -1.500000 0.425000
vt -0.500000 0.425000
vt -1.500000 0.479904
vt -0.500000 0.479904
vt -1.500000 -0.479904
vt -0.350000 -0.500000
vt -0.479904 -0.425000
vt -0.425000 -0.479904
vt 0.425000 -0.479904
vt 0.479904 -0.425000
vt 0.479904 0.425000
vt 0.425000 0.479904
vt -0.425000 0.479904
vt -0.479904 0.425000
s 1
usemtl ClayMat_11
f 58/1/58 39/2/39 14/3/14
f 54/1/54 62/4/62 49/5/49
f 57/6/57 1/3/1 53/1/53
f 25/3/25 69/6/69 66/1/66
f 3/3/3 65/6/65 54/1/54
f 95/7/95 50/5/50 77/8/77
f 94/8/94 73/4/73 89/5/89
f 49/5/49 107/7/107 78/8/78
f 61/5/61 117/7/117 105/8/105
f 89/5/89 70/6/70 58/1/58
f 90/4/90 53/1/53 50/5/50
f 58/9/58 69/10/69 65/6/65
f 66/1/66 74/4/74 61/5/61
f 61/11/61 73/12/73 90/13/90
f 106/14/106 93/3/93 79/15/79
f 4/16/4 5/17/5 1/3/1
f 4/18/4 9/19/9 6/20/6
f 7/21/7 8/22/8 2/15/2
f 11/16/11 9/23/9 7/24/7
f 10/17/10 11/16/11 3/3/3
f 5/17/5 12/25/12 10/26/10
f 6/20/6 9/19/9 12/27/12
f 16/28/16 17/29/17 13/2/13
f 16/26/16 21/30/21 18/25/18
f 19/16/19 20/17/20 14/3/14
f 23/16/23 21/23/21 19/24/19
f 22/17/22 23/16/23 15/3/15
f 17/29/17 24/31/24 22/32/22
f 18/25/18 21/23/21 24/30/24
f 28/17/28 29/16/29 25/3/25
f 28/33/28 33/34/33 30/35/30
f 31/29/31 32/28/32 26/2/26
f 35/36/35 33/37/33 31/38/31
f 34/39/34 35/36/35 27/14/27
f 29/16/29 36/23/36 34/24/34
f 30/40/30 33/37/33 36/41/36
f 40/29/40 41/28/41 37/2/37
f 40/33/40 45/34/45 42/35/42
f 43/29/43 44/28/44 38/2/38
f 47/29/47 45/31/45 43/32/43
f 46/28/46 47/29/47 39/2/39
f 41/28/41 48/35/48 46/33/46
f 42/35/42 45/34/45 48/31/48
f 80/42/80 81/43/81 77/8/77
f 80/44/80 85/45/85 82/46/82
f 83/43/83 84/42/84 78/8/78
f 87/21/87 85/27/85 83/47/83
f 86/22/86 87/21/87 79/15/79
f 86/22/86 82/20/82 88/19/88
f 82/20/82 85/27/85 88/19/88
f 96/16/96 97/17/97 93/3/93
f 96/16/96 101/23/101 98/30/98
f 99/42/99 100/43/100 94/8/94
f 103/44/103 101/45/101 99/42/99
f 102/48/102 103/49/103 95/7/95
f 97/17/97 104/25/104 102/26/102
f 98/30/98 101/23/101 104/25/104
f 108/43/108 109/42/109 105/8/105
f 112/39/112 110/40/110 108/50/108
f 111/36/111 112/39/112 106/14/106
f 111/36/111 116/37/116 113/41/113
f 114/49/114 115/48/115 107/7/107
f 109/51/109 116/52/116 114/49/114
f 110/40/110 113/41/113 116/37/116
f 120/49/120 121/48/121 117/7/117
f 120/51/120 125/52/125 122/53/122
f 123/48/123 124/49/124 118/7/118
f 127/29/127 125/31/125 123/32/123
f 126/28/126 127/29/127 119/2/119
f 126/28/126 122/35/122 128/34/128
f 122/35/122 125/31/125 128/34/128
f 2/15/2 22/17/22 15/3/15
f 8/22/8 17/26/17 22/17/22
f 4/16/4 13/2/13 17/29/17
f 38/2/38 34/39/34 27/14/27
f 44/28/44 29/50/29 34/39/34
f 40/29/40 25/3/25 29/16/29
f 27/14/27 7/21/7 2/15/2
f 35/36/35 11/47/11 7/21/7
f 31/29/31 3/3/3 11/16/11
f 15/3/15 43/29/43 38/2/38
f 23/16/23 47/32/47 43/29/43
f 19/16/19 39/2/39 47/29/47
f 49/5/49 56/54/56 54/1/54
f 51/55/51 55/56/55 56/54/56
f 52/55/52 53/1/53 55/54/55
f 65/6/65 64/57/64 62/4/62
f 67/58/67 63/59/63 64/57/64
f 68/54/68 61/5/61 63/55/63
f 73/4/73 72/58/72 70/6/70
f 75/57/75 71/60/71 72/58/72
f 76/57/76 69/6/69 71/58/71
f 79/15/79 97/17/97 86/22/86
f 97/17/97 81/18/81 86/22/86
f 102/48/102 77/8/77 81/43/81
f 89/5/89 99/42/99 94/8/94
f 99/42/99 92/61/92 103/44/103
f 103/49/103 90/4/90 95/7/95
f 119/2/119 112/39/112 126/28/126
f 112/39/112 121/33/121 126/28/126
f 108/43/108 117/7/117 121/48/121
f 79/15/79 111/36/111 106/14/106
f 87/21/87 115/38/115 111/36/111
f 83/43/83 107/7/107 115/48/115
f 119/2/119 96/16/96 93/3/93
f 127/29/127 100/24/100 96/16/96
f 123/48/123 94/8/94 100/43/100
f 54/1/54 10/17/10 3/3/3
f 56/54/56 5/26/5 10/17/10
f 5/17/5 53/1/53 1/3/1
f 58/1/58 20/17/20 60/54/60
f 20/17/20 59/56/59 60/54/60
f 16/28/16 57/6/57 59/58/59
f 65/6/65 32/28/32 67/58/67
f 32/28/32 68/60/68 67/58/67
f 28/17/28 66/1/66 68/54/68
f 70/6/70 46/28/46 39/2/39
f 72/58/72 41/33/41 46/28/46
f 41/28/41 69/6/69 37/2/37
f 58/1/58 91/55/91 89/5/89
f 60/54/60 92/61/92 91/55/91
f 59/58/59 90/4/90 92/57/92
f 49/5/49 84/42/84 51/55/51
f 84/42/84 52/61/52 51/55/51
f 80/42/80 50/5/50 52/55/52
f 62/4/62 114/49/114 107/7/107
f 114/49/114 63/59/63 109/51/109
f 109/42/109 61/5/61 105/8/105
f 73/4/73 124/49/124 75/57/75
f 124/49/124 76/59/76 75/57/75
f 120/49/120 74/4/74 76/57/76
f 15/3/15 27/14/27 2/15/2
f 58/1/58 70/6/70 39/2/39
f 54/1/54 65/6/65 62/4/62
f 57/6/57 13/2/13 1/3/1
f 25/3/25 37/2/37 69/6/69
f 3/3/3 26/2/26 65/6/65
f 95/7/95 90/4/90 50/5/50
f 94/8/94 118/7/118 73/4/73
f 49/5/49 62/4/62 107/7/107
f 61/5/61 74/4/74 117/7/117
f 89/5/89 73/4/73 70/6/70
f 90/4/90 57/6/57 53/1/53
f 65/6/65 54/1/54 53/62/53
f 54/1/54 56/63/56 53/62/53
f 56/63/56 55/64/55 53/62/53
f 53/62/53 57/13/57 58/9/58
f 57/13/57 59/65/59 58/9/58
f 59/65/59 60/66/60 58/9/58
f 58/9/58 70/12/70 69/10/69
f 70/12/70 72/67/72 69/10/69
f 72/67/72 71/68/71 69/10/69
f 69/10/69 66/11/66 65/6/65
f 66/11/66 68/69/68 65/6/65
f 68/69/68 67/70/67 65/6/65
f 65/6/65 53/62/53 58/9/58
f 66/1/66 69/6/69 74/4/74
f 90/13/90 50/62/50 49/1/49
f 50/62/50 52/64/52 49/1/49
f 52/64/52 51/63/51 49/1/49
f 49/1/49 62/6/62 61/11/61
f 62/6/62 64/70/64 61/11/61
f 64/70/64 63/69/63 61/11/61
f 61/11/61 74/10/74 73/12/73
f 74/10/74 76/68/76 73/12/73
f 76/68/76 75/67/75 73/12/73
f 73/12/73 89/9/89 90/13/90
f 89/9/89 91/66/91 90/13/90
f 91/66/91 92/65/92 90/13/90
f 90/13/90 49/1/49 61/11/61
f 106/14/106 119/2/119 93/3/93
f 4/16/4 6/30/6 5/17/5
f 4/18/4 8/22/8 9/19/9
f 7/21/7 9/19/9 8/22/8
f 11/47/11 12/27/12 9/19/9
f 10/17/10 12/30/12 11/16/11
f 5/26/5 6/25/6 12/30/12
f 16/28/16 18/34/18 17/29/17
f 16/26/16 20/17/20 21/30/21
f 19/16/19 21/30/21 20/17/20
f 23/16/23 24/30/24 21/23/21
f 22/17/22 24/30/24 23/16/23
f 17/26/17 18/25/18 24/30/24
f 28/17/28 30/30/30 29/16/29
f 28/33/28 32/28/32 33/34/33
f 31/29/31 33/34/33 32/28/32
f 35/36/35 36/41/36 33/37/33
f 34/39/34 36/41/36 35/36/35
f 29/50/29 30/40/30 36/41/36
f 40/29/40 42/34/42 41/28/41
f 40/33/40 44/28/44 45/34/45
f 43/29/43 45/34/45 44/28/44
f 47/32/47 48/31/48 45/34/45
f 46/28/46 48/34/48 47/29/47
f 41/33/41 42/35/42 48/34/48
f 80/42/80 82/45/82 81/43/81
f 80/44/80 84/42/84 85/45/85
f 83/43/83 85/45/85 84/42/84
f 87/21/87 88/19/88 85/27/85
f 86/22/86 88/19/88 87/21/87
f 86/22/86 81/18/81 82/20/82
f 96/16/96 98/30/98 97/17/97
f 96/16/96 100/24/100 101/23/101
f 99/42/99 101/45/101 100/43/100
f 103/44/103 104/46/104 101/45/101
f 102/48/102 104/52/104 103/49/103
f 97/17/97 98/30/98 104/25/104
f 108/43/108 110/45/110 109/42/109
f 112/39/112 113/41/113 110/40/110
f 111/36/111 113/41/113 112/39/112
f 111/36/111 115/38/115 116/37/116
f 114/49/114 116/52/116 115/48/115
f 109/51/109 110/53/110 116/52/116
f 120/49/120 122/52/122 121/48/121
f 120/51/120 124/49/124 125/52/125
f 123/48/123 125/52/125 124/49/124
f 127/29/127 128/34/128 125/31/125
f 126/28/126 128/34/128 127/29/127
f 126/28/126 121/33/121 122/35/122
f 2/15/2 8/22/8 22/17/22
f 8/22/8 4/18/4 17/26/17
f 4/16/4 1/3/1 13/2/13
f 38/2/38 44/28/44 34/39/34
f 44/28/44 40/33/40 29/50/29
f 40/29/40 37/2/37 25/3/25
f 27/14/27 35/36/35 7/21/7
f 35/36/35 31/38/31 11/47/11
f 31/29/31 26/2/26 3/3/3
f 15/3/15 23/16/23 43/29/43
f 23/16/23 19/24/19 47/32/47
f 19/16/19 14/3/14 39/2/39
f 49/5/49 51/55/51 56/54/56
f 51/55/51 52/61/52 55/56/55
f 52/55/52 50/5/50 53/1/53
f 65/6/65 67/58/67 64/57/64
f 67/58/67 68/60/68 63/59/63
f 68/54/68 66/1/66 61/5/61
f 73/4/73 75/57/75 72/58/72
f 75/57/75 76/59/76 71/60/71
f 76/57/76 74/4/74 69/6/69
f 79/15/79 93/3/93 97/17/97
f 97/17/97 102/26/102 81/18/81
f 102/48/102 95/7/95 77/8/77
f 89/5/89 91/55/91 99/42/99
f 99/42/99 91/55/91 92/61/92
f 103/49/103 92/57/92 90/4/90
f 119/2/119 106/14/106 112/39/112
f 112/39/112 108/50/108 121/33/121
f 108/43/108 105/8/105 117/7/117
f 79/15/79 87/21/87 111/36/111
f 87/21/87 83/47/83 115/38/115
f 83/43/83 78/8/78 107/7/107
f 119/2/119 127/29/127 96/16/96
f 127/29/127 123/32/123 100/24/100
f 123/48/123 118/7/118 94/8/94
f 54/1/54 56/54/56 10/17/10
f 56/54/56 55/56/55 5/26/5
f 5/17/5 55/54/55 53/1/53
f 58/1/58 14/3/14 20/17/20
f 20/17/20 16/26/16 59/56/59
f 16/28/16 13/2/13 57/6/57
f 65/6/65 26/2/26 32/28/32
f 32/28/32 28/33/28 68/60/68
f 28/17/28 25/3/25 66/1/66
f 70/6/70 72/58/72 46/28/46
f 72/58/72 71/60/71 41/33/41
f 41/28/41 71/58/71 69/6/69
f 58/1/58 60/54/60 91/55/91
f 60/54/60 59/56/59 92/61/92
f 59/58/59 57/6/57 90/4/90
f 49/5/49 78/8/78 84/42/84
f 84/42/84 80/44/80 52/61/52
f 80/42/80 77/8/77 50/5/50
f 62/4/62 64/57/64 114/49/114
f 114/49/114 64/57/64 63/59/63
f 109/42/109 63/55/63 61/5/61
f 73/4/73 118/7/118 124/49/124
f 124/49/124 120/51/120 76/59/76
f 120/49/120 117/7/117 74/4/74
f 15/3/15 38/2/38 27/14/27
