# Blender 4.1.1
# www.blender.org
mtllib __clay_block_09_6.mtl
o clay_block_6
v -0.500000 0.500000 0.500000
v -1.500000 0.500000 0.500000
v -1.500000 0.500000 -0.500000
v -0.500000 0.500000 -0.500000
v -0.500000 -0.350000 0.500000
v -0.500000 -0.500000 0.350000
v -0.500000 -0.425000 0.479904
v -0.500000 -0.479904 0.425000
v 0.350000 -0.350000 0.500000
v 0.350000 -0.500000 0.350000
v 0.500000 -0.350000 0.350000
v 0.350000 -0.424902 0.479961
v 0.424902 -0.350000 0.479961
v 0.421732 -0.421732 0.460495
v 0.424902 -0.479961 0.350000
v 0.350000 -0.479961 0.424902
v 0.421732 -0.460495 0.421732
v 0.479961 -0.350000 0.424902
v 0.479961 -0.424902 0.350000
v 0.460495 -0.421732 0.421732
v 0.350000 -0.500000 -0.350000
v 0.350000 -0.350000 -0.500000
v 0.500000 -0.350000 -0.350000
v 0.350000 -0.479961 -0.424902
v 0.424902 -0.479961 -0.350000
v 0.421732 -0.460495 -0.421732
v 0.424902 -0.350000 -0.479961
v 0.350000 -0.424902 -0.479961
v 0.421732 -0.421732 -0.460495
v 0.479961 -0.424902 -0.350000
v 0.479961 -0.350000 -0.424902
v 0.460495 -0.421732 -0.421732
v 0.500000 0.500000 0.350000
v 0.350000 0.500000 0.500000
v 0.479904 0.500000 0.425000
v 0.425000 0.500000 0.479904
v 0.350000 0.500000 -0.500000
v 0.500000 0.500000 -0.350000
v 0.425000 0.500000 -0.479904
v 0.479904 0.500000 -0.425000
v -0.500000 -0.500000 -0.350000
v -0.500000 -0.350000 -0.500000
v -0.500000 -0.479904 -0.425000
v -0.500000 -0.425000 -0.479904
v -2.350000 -0.350000 0.500000
v -2.500000 -0.350000 0.350000
v -2.350000 -0.500000 0.350000
v -2.424901 -0.350000 0.479961
v -2.350000 -0.424902 0.479961
v -2.421732 -0.421732 0.460495
v -2.479960 -0.424902 0.350000
v -2.479960 -0.350000 0.424902
v -2.460495 -0.421732 0.421732
v -2.350000 -0.479961 0.424902
v -2.424901 -0.479961 0.350000
v -2.421732 -0.460495 0.421732
v -1.500000 -0.500000 0.350000
v -1.500000 -0.350000 0.500000
v -1.500000 -0.479904 0.425000
v -1.500000 -0.425000 0.479904
v -1.500000 -0.350000 -0.500000
v -1.500000 -0.500000 -0.350000
v -1.500000 -0.425000 -0.479904
v -1.500000 -0.479904 -0.425000
v -2.500000 -0.350000 -0.350000
v -2.350000 -0.350000 -0.500000
v -2.350000 -0.500000 -0.350000
v -2.479960 -0.350000 -0.424902
v -2.479960 -0.424902 -0.350000
v -2.460495 -0.421732 -0.421732
v -2.350000 -0.424902 -0.479961
v -2.424901 -0.350000 -0.479961
v -2.421732 -0.421732 -0.460495
v -2.424901 -0.479961 -0.350000
v -2.350000 -0.479961 -0.424902
v -2.421732 -0.460495 -0.421732
v -2.350000 0.500000 0.500000
v -2.500000 0.500000 0.350000
v -2.425000 0.500000 0.479904
v -2.479904 0.500000 0.425000
v -2.500000 0.500000 -0.350000
v -2.350000 0.500000 -0.500000
v -2.479904 0.500000 -0.425000
v -2.425000 0.500000 -0.479904
v -0.500000 1.500000 0.350000
v -0.500000 1.350000 0.500000
v -0.500000 1.479904 0.425000
v -0.500000 1.425000 0.479904
v 0.350000 1.350000 0.500000
v 0.500000 1.350000 0.350000
v 0.350000 1.500000 0.350000
v 0.424902 1.350000 0.479961
v 0.350000 1.424901 0.479961
v 0.421732 1.421732 0.460495
v 0.479961 1.424901 0.350000
v 0.479961 1.350000 0.424902
v 0.460495 1.421732 0.421732
v 0.350000 1.479960 0.424902
v 0.424902 1.479960 0.350000
v 0.421732 1.460495 0.421732
v 0.500000 1.350000 -0.350000
v 0.350000 1.350000 -0.500000
v 0.350000 1.500000 -0.350000
v 0.479961 1.350000 -0.424902
v 0.479961 1.424901 -0.350000
v 0.460495 1.421732 -0.421732
v 0.350000 1.424901 -0.479961
v 0.424902 1.350000 -0.479961
v 0.421732 1.421732 -0.460495
v 0.424902 1.479960 -0.350000
v 0.350000 1.479960 -0.424902
v 0.421732 1.460495 -0.421732
v -1.500000 1.500000 0.350000
v -1.500000 1.350000 0.500000
v -1.500000 1.479904 0.425000
v -1.500000 1.425000 0.479904
v -0.500000 1.350000 -0.500000
v -0.500000 1.500000 -0.350000
v -0.500000 1.425000 -0.479904
v -0.500000 1.479904 -0.425000
v -2.500000 1.350000 0.350000
v -2.350000 1.350000 0.500000
v -2.350000 1.500000 0.350000
v -2.479960 1.350000 0.424902
v -2.479960 1.424901 0.350000
v -2.460495 1.421732 0.421732
v -2.350000 1.424901 0.479961
v -2.424901 1.350000 0.479961
v -2.421732 1.421732 0.460495
v -2.424901 1.479960 0.350000
v -2.350000 1.479960 0.424902
v -2.421732 1.460495 0.421732
v -1.500000 1.500000 -0.350000
v -1.500000 1.350000 -0.500000
v -1.500000 1.479904 -0.425000
v -1.500000 1.425000 -0.479904
v -2.500000 1.350000 -0.350000
v -2.350000 1.500000 -0.350000
v -2.350000 1.350000 -0.500000
v -2.479960 1.424901 -0.350000
v -2.479960 1.350000 -0.424902
v -2.460495 1.421732 -0.421732
v -2.350000 1.479960 -0.424902
v -2.424901 1.479960 -0.350000
v -2.421732 1.460495 -0.421732
v -2.424901 1.350000 -0.479961
v -2.350000 1.424901 -0.479961
v -2.421732 1.421732 -0.460495
vn -0.4082 0.4083 0.8165
vn -0.4082 0.4082 0.8165
vn -0.4083 0.4083 -0.8165
vn -0.4083 0.4082 -0.8165
vn -0.4196 -0.1185 0.8999
vn -0.4196 -0.8999 0.1185
vn -0.3961 -0.4591 0.7952
vn -0.3961 -0.7952 0.4591
vn 0.1280 -0.1280 0.9835
vn 0.1280 -0.9835 0.1280
vn 0.9835 -0.1280 0.1280
vn 0.1216 -0.4916 0.8623
vn 0.4916 -0.1216 0.8623
vn 0.4488 -0.4488 0.7727
vn 0.4916 -0.8623 0.1216
vn 0.1216 -0.8623 0.4916
vn 0.4488 -0.7727 0.4488
vn 0.8623 -0.1216 0.4916
vn 0.8623 -0.4916 0.1216
vn 0.7727 -0.4488 0.4488
vn 0.1280 -0.9835 -0.1280
vn 0.1280 -0.1280 -0.9835
vn 0.9835 -0.1280 -0.1280
vn 0.1216 -0.8623 -0.4916
vn 0.4916 -0.8623 -0.1216
vn 0.4488 -0.7727 -0.4488
vn 0.4916 -0.1216 -0.8623
vn 0.1216 -0.4916 -0.8623
vn 0.4488 -0.4488 -0.7727
vn 0.8623 -0.4916 -0.1216
vn 0.8623 -0.1216 -0.4916
vn 0.7727 -0.4488 -0.4488
vn 0.8999 0.4196 0.1185
vn 0.1185 0.4196 0.8999
vn 0.7952 0.3961 0.4591
vn 0.4591 0.3961 0.7952
vn 0.1185 0.4196 -0.8999
vn 0.8999 0.4196 -0.1185
vn 0.4591 0.3961 -0.7952
vn 0.7952 0.3961 -0.4591
vn -0.4196 -0.8999 -0.1185
vn -0.4196 -0.1185 -0.8999
vn -0.3961 -0.7952 -0.4591
vn -0.3961 -0.4591 -0.7952
vn -0.1280 -0.1280 0.9835
vn -0.9835 -0.1280 0.1280
vn -0.1280 -0.9835 0.1280
vn -0.4916 -0.1216 0.8623
vn -0.1216 -0.4916 0.8623
vn -0.4488 -0.4488 0.7727
vn -0.8623 -0.4916 0.1216
vn -0.8623 -0.1216 0.4916
vn -0.7727 -0.4488 0.4488
vn -0.1216 -0.8623 0.4916
vn -0.4916 -0.8623 0.1216
vn -0.4488 -0.7727 0.4488
vn -0.9835 -0.1280 -0.1280
vn -0.1280 -0.1280 -0.9835
vn -0.1280 -0.9835 -0.1280
vn -0.8623 -0.1216 -0.4916
vn -0.8623 -0.4916 -0.1216
vn -0.7727 -0.4488 -0.4488
vn -0.1216 -0.4916 -0.8623
vn -0.4916 -0.1216 -0.8623
vn -0.4488 -0.4488 -0.7727
vn -0.4916 -0.8623 -0.1216
vn -0.1216 -0.8623 -0.4916
vn -0.4488 -0.7727 -0.4488
vn -0.1185 0.4196 0.8999
vn -0.8999 0.4196 0.1185
vn -0.4591 0.3961 0.7952
vn -0.7952 0.3961 0.4591
vn -0.8999 0.4196 -0.1185
vn -0.1185 0.4196 -0.8999
vn -0.7952 0.3961 -0.4591
vn -0.4591 0.3961 -0.7952
vn -0.4196 0.8999 0.1185
vn -0.4196 0.1185 0.8999
vn -0.3961 0.7952 0.4591
vn -0.3961 0.4591 0.7952
vn 0.1280 0.1280 0.9835
vn 0.9835 0.1280 0.1280
vn 0.1280 0.9835 0.1280
vn 0.4916 0.1216 0.8623
vn 0.1216 0.4916 0.8623
vn 0.4488 0.4488 0.7727
vn 0.8623 0.4916 0.1216
vn 0.8623 0.1216 0.4916
vn 0.7727 0.4488 0.4488
vn 0.1216 0.8623 0.4916
vn 0.4916 0.8623 0.1216
vn 0.4488 0.7727 0.4488
vn 0.9835 0.1280 -0.1280
vn 0.1280 0.1280 -0.9835
vn 0.1280 0.9835 -0.1280
vn 0.8623 0.1216 -0.4916
vn 0.8623 0.4916 -0.1216
vn 0.7727 0.4488 -0.4488
vn 0.1216 0.4916 -0.8623
vn 0.4916 0.1216 -0.8623
vn 0.4488 0.4488 -0.7727
vn 0.4916 0.8623 -0.1216
vn 0.1216 0.8623 -0.4916
vn 0.4488 0.7727 -0.4488
vn -0.4196 0.1185 -0.8999
vn -0.4196 0.8999 -0.1185
vn -0.3961 0.4591 -0.7952
vn -0.3961 0.7952 -0.4591
vn -0.9835 0.1280 0.1280
vn -0.1280 0.1280 0.9835
vn -0.1280 0.9835 0.1280
vn -0.8623 0.1216 0.4916
vn -0.8623 0.4916 0.1216
vn -0.7727 0.4488 0.4488
vn -0.1216 0.4916 0.8623
vn -0.4916 0.1216 0.8623
vn -0.4488 0.4488 0.7727
vn -0.4916 0.8623 0.1216
vn -0.1216 0.8623 0.4916
vn -0.4488 0.7727 0.4488
vn -0.9835 0.1280 -0.1280
vn -0.1280 0.9835 -0.1280
vn -0.1280 0.1280 -0.9835
vn -0.8623 0.4916 -0.1216
vn -0.8623 0.1216 -0.4916
vn -0.7727 0.4488 -0.4488
vn -0.1216 0.8623 -0.4916
vn -0.4916 0.8623 -0.1216
vn -0.4488 0.7727 -0.4488
vn -0.4916 0.1216 -0.8623
vn -0.1216 0.4916 -0.8623
vn -0.4488 0.4488 -0.7727
vt -1.500000 0.350000
vt -0.500000 -0.350000
vt -1.500000 -0.350000
vt -0.500000 0.500000
vt 0.350000 1.350000
vt 0.350000 0.500000
vt -1.500000 0.500000
vt -0.500000 1.350000
vt 0.350000 -0.350000
vt -0.500000 0.350000
vt -0.350000 0.500000
vt -0.350000 -0.350000
vt -0.500000 -0.500000
vt -1.500000 -0.500000
vt 0.479904 -0.425000
vt 0.425000 -0.479904
vt 0.350000 -0.500000
vt -2.350000 0.500000
vt -2.350000 -0.350000
vt -1.500000 1.350000
vt -2.350000 0.350000
vt -0.350000 1.350000
vt 0.500000 0.350000
vt 0.500000 1.350000
vt 0.350000 1.500000
vt -2.425000 0.479904
vt -2.479904 0.425000
vt -2.500000 0.350000
vt -2.350000 1.350000
vt 0.350000 -0.424902
vt 0.424902 -0.350000
vt 0.421732 -0.460495
vt 0.350000 -0.479961
vt -0.350000 -0.479961
vt -0.421732 -0.421732
vt -0.421732 -0.460495
vt -0.424902 -0.350000
vt -0.350000 -0.424902
vt 0.460495 -0.421732
vt 0.479961 -0.350000
vt -0.460495 -0.421732
vt 0.350000 0.424902
vt 0.424902 0.350000
vt 0.350000 0.350000
vt 0.421732 -0.421732
vt 0.460495 0.421732
vt 0.479961 0.350000
vt -2.424901 -0.350000
vt -2.350000 -0.424902
vt -0.479961 -0.350000
vt -2.350000 -0.479961
vt -2.421732 -0.421732
vt -2.421732 -0.460495
vt -2.424901 0.350000
vt -2.350000 0.424902
vt 0.424902 1.350000
vt 0.350000 1.424901
vt -0.479961 1.350000
vt -0.421732 1.421732
vt -0.460495 1.421732
vt -0.350000 1.424901
vt -0.424902 1.350000
vt -0.421732 1.460495
vt 0.460495 1.421732
vt 0.421732 1.421732
vt 0.421732 1.460495
vt 0.421732 0.421732
vt -2.350000 1.424901
vt -2.424901 1.350000
vt -0.350000 1.479960
vt -2.350000 1.479960
vt -2.421732 1.421732
vt -2.421732 1.460495
vt 0.479961 1.350000
vt -0.500000 -0.425000
vt -0.425000 0.500000
vt 0.425000 0.500000
vt 0.479904 0.500000
vt -1.500000 -0.425000
vt -1.500000 -0.479904
vt -0.479904 0.500000
vt -2.425000 0.500000
vt -0.500000 1.425000
vt -0.500000 -0.479904
vt 0.350000 1.479960
vt -1.500000 1.425000
vt -2.350000 0.479961
vt -1.500000 0.425000
vt -1.500000 0.479904
vt -0.500000 0.425000
vt -0.500000 0.479904
vt 0.350000 0.479961
vt -0.350000 -0.500000
vt -0.425000 -0.479904
vt -0.479904 -0.425000
vt 0.500000 0.500000
vt 0.500000 -0.350000
vt 0.479904 0.425000
vt 0.425000 0.479904
vt -0.479904 1.425000
vt -0.425000 1.479904
vt -0.350000 1.500000
vt 0.425000 1.479904
vt 0.479904 1.425000
vt -2.500000 -0.350000
vt -2.350000 -0.500000
vt -2.479904 -0.425000
vt -2.425000 -0.479904
vt -2.421732 0.421732
vt -2.421732 0.460495
s 1
usemtl ClayMat_6
f 62/1/41 6/2/6 57/3/6
f 4/4/4 102/5/94 37/6/37
f 5/2/5 2/7/2 58/3/5
f 34/6/34 86/8/78 1/4/1
f 42/2/42 37/6/37 22/9/22
f 41/10/41 10/9/10 6/2/6
f 23/9/23 33/11/33 11/12/11
f 1/13/1 3/7/3 2/14/2
f 44/15/44 43/16/43 41/17/41
f 58/3/5 77/18/69 45/19/45
f 66/19/58 3/7/3 61/3/42
f 78/11/70 65/9/57 46/12/46
f 82/18/74 134/20/105 3/7/3
f 67/21/59 57/3/6 47/19/47
f 121/22/109 81/6/73 78/11/70
f 63/15/44 64/16/43 62/17/41
f 85/2/77 133/1/106 113/3/77
f 38/6/38 90/22/82 33/11/33
f 61/3/42 4/4/4 42/2/42
f 37/6/37 34/17/34 38/23/38
f 1/4/1 114/20/78 2/7/2
f 117/24/105 86/8/78 118/25/106
f 113/3/77 138/21/122 123/19/111
f 3/7/3 117/8/105 4/4/4
f 134/24/105 114/8/78 133/25/106
f 84/26/76 83/27/75 81/28/73
f 91/9/83 118/10/106 85/2/77
f 2/7/2 122/29/110 77/18/69
f 12/30/12 13/31/13 9/9/9
f 16/30/16 14/32/14 12/33/12
f 15/31/15 16/30/16 10/9/10
f 15/34/15 20/35/20 17/36/17
f 18/37/18 19/38/19 11/12/11
f 13/31/13 20/39/20 18/40/18
f 14/41/14 17/36/17 20/35/20
f 24/42/24 25/43/25 21/44/21
f 24/33/24 29/45/29 26/32/26
f 27/31/27 28/30/28 22/9/22
f 31/31/31 29/39/29 27/40/27
f 30/30/30 31/31/31 23/9/23
f 25/43/25 32/46/32 30/47/30
f 26/32/26 29/39/29 32/45/32
f 48/48/48 49/49/49 45/19/45
f 52/37/52 50/41/50 48/50/48
f 51/38/51 52/37/52 46/12/46
f 51/38/51 56/36/56 53/35/53
f 54/49/54 55/48/55 47/19/47
f 54/51/54 50/52/50 56/53/56
f 50/41/50 53/35/53 56/36/56
f 68/31/60 69/30/61 65/9/57
f 68/31/60 73/39/65 70/45/62
f 71/49/63 72/48/64 66/19/58
f 75/51/67 73/52/65 71/49/63
f 74/54/66 75/55/67 67/21/59
f 69/30/61 76/32/68 74/33/66
f 70/45/62 73/39/65 76/32/68
f 92/56/84 93/57/85 89/5/81
f 92/58/84 97/59/89 94/60/86
f 95/61/87 96/62/88 90/22/82
f 95/61/87 100/63/92 97/59/89
f 98/30/90 99/31/91 91/9/83
f 93/33/85 100/45/92 98/30/90
f 94/60/86 97/59/89 100/63/92
f 104/56/96 105/57/97 101/5/93
f 104/56/96 109/64/101 106/65/98
f 107/57/99 108/56/100 102/5/94
f 107/57/99 112/66/104 109/65/101
f 110/43/102 111/42/103 103/44/95
f 105/47/97 112/67/104 110/43/102
f 106/65/98 109/64/101 112/66/104
f 124/62/112 125/61/113 121/22/109
f 124/62/112 129/60/117 126/59/114
f 127/68/115 128/69/116 122/29/110
f 131/49/119 129/53/117 127/51/115
f 130/48/118 131/49/119 123/19/111
f 125/61/113 132/63/120 130/70/118
f 126/59/114 129/60/117 132/63/120
f 140/57/124 141/56/125 137/5/121
f 140/57/124 145/66/129 142/65/126
f 143/55/127 144/54/128 138/21/122
f 143/71/127 148/72/132 145/73/129
f 146/69/130 147/68/131 139/29/123
f 141/56/125 148/64/132 146/74/130
f 142/65/126 145/66/129 148/64/132
f 5/2/5 12/30/12 9/9/9
f 7/75/7 16/33/16 12/30/12
f 16/30/16 6/2/6 10/9/10
f 11/12/11 30/30/30 23/9/23
f 19/38/19 25/33/25 30/30/30
f 15/31/15 21/44/21 25/43/25
f 33/11/33 18/37/18 11/12/11
f 35/76/35 13/50/13 18/37/18
f 13/31/13 34/6/34 9/9/9
f 38/6/38 31/31/31 40/77/40
f 31/31/31 39/78/39 40/77/40
f 27/31/27 37/6/37 39/77/39
f 58/3/5 49/49/49 60/79/7
f 49/49/49 59/80/8 60/79/7
f 54/49/54 57/3/6 59/79/8
f 46/12/46 69/30/61 51/38/51
f 69/30/61 55/34/55 51/38/51
f 74/54/66 47/19/47 55/48/55
f 61/3/42 71/49/63 66/19/58
f 71/49/63 64/80/43 75/51/67
f 75/55/67 62/1/41 67/21/59
f 78/11/70 52/37/52 80/76/72
f 52/37/52 79/81/71 80/76/72
f 48/48/48 77/18/69 79/82/71
f 81/6/73 68/31/60 65/9/57
f 83/77/75 72/40/64 68/31/60
f 72/48/64 82/18/74 66/19/58
f 86/8/78 93/57/85 88/83/80
f 93/33/85 87/75/79 88/84/80
f 98/30/90 85/2/77 87/75/79
f 101/5/93 95/61/87 90/22/82
f 105/47/97 99/31/91 95/40/87
f 110/43/102 91/9/83 99/31/91
f 121/22/109 140/57/124 137/5/121
f 125/61/113 144/85/128 140/57/124
f 130/48/118 138/21/122 144/54/128
f 134/20/105 147/68/131 136/86/107
f 147/87/131 135/88/108 136/89/107
f 143/55/127 133/1/106 135/88/108
f 42/2/42 28/30/28 44/75/44
f 28/30/28 43/84/43 44/75/44
f 24/42/24 41/10/41 43/90/43
f 58/3/5 7/75/7 5/2/5
f 60/79/7 8/84/8 7/75/7
f 59/79/8 6/2/6 8/75/8
f 42/2/42 63/79/44 61/3/42
f 44/75/44 64/80/43 63/79/44
f 43/90/43 62/1/41 64/88/43
f 117/8/105 107/57/99 102/5/94
f 119/91/107 111/42/103 107/92/99
f 111/42/103 118/10/106 103/44/95
f 33/11/33 96/62/88 35/76/35
f 96/62/88 36/81/36 35/76/35
f 92/56/84 34/6/34 36/77/36
f 38/6/38 104/56/96 101/5/93
f 40/77/40 108/74/100 104/56/96
f 108/56/100 37/6/37 102/5/94
f 86/8/78 116/86/80 114/20/78
f 88/84/80 115/79/79 116/80/80
f 87/75/79 113/3/77 115/79/79
f 134/20/105 119/83/107 117/8/105
f 136/89/107 120/90/108 119/91/107
f 135/88/108 118/10/106 120/90/108
f 114/20/78 127/68/115 122/29/110
f 116/80/80 131/49/119 127/51/115
f 131/49/119 113/3/77 123/19/111
f 78/11/70 124/62/112 121/22/109
f 80/76/72 128/58/116 124/62/112
f 128/69/116 77/18/69 122/29/110
f 81/6/73 141/56/125 83/77/75
f 141/56/125 84/78/76 83/77/75
f 146/69/130 82/18/74 84/82/76
f 9/9/9 1/4/1 5/2/5
f 62/1/41 41/10/41 6/2/6
f 4/4/4 117/8/105 102/5/94
f 5/2/5 1/4/1 2/7/2
f 34/6/34 89/5/81 86/8/78
f 42/2/42 4/4/4 37/6/37
f 41/10/41 21/44/21 10/9/10
f 23/9/23 38/6/38 33/11/33
f 1/13/1 4/4/4 3/7/3
f 41/17/41 6/93/6 5/2/5
f 6/93/6 8/94/8 5/2/5
f 8/94/8 7/95/7 5/2/5
f 5/2/5 1/4/1 4/96/4
f 4/96/4 42/97/42 5/2/5
f 42/97/42 44/15/44 41/17/41
f 5/2/5 42/97/42 41/17/41
f 58/3/5 2/7/2 77/18/69
f 66/19/58 82/18/74 3/7/3
f 78/11/70 81/6/73 65/9/57
f 82/18/74 139/29/123 134/20/105
f 67/21/59 62/1/41 57/3/6
f 121/22/109 137/5/121 81/6/73
f 62/17/41 57/93/6 58/2/5
f 57/93/6 59/94/8 58/2/5
f 59/94/8 60/95/7 58/2/5
f 58/2/5 2/4/2 3/96/3
f 3/96/3 61/97/42 58/2/5
f 61/97/42 63/15/44 62/17/41
f 58/2/5 61/97/42 62/17/41
f 85/2/77 118/10/106 133/1/106
f 38/6/38 101/5/93 90/22/82
f 61/3/42 3/7/3 4/4/4
f 4/4/4 1/13/1 34/17/34
f 34/17/34 36/16/36 35/15/35
f 35/15/35 33/97/33 34/17/34
f 33/97/33 38/23/38 34/17/34
f 38/23/38 40/98/40 39/99/39
f 39/99/39 37/6/37 38/23/38
f 37/6/37 4/4/4 34/17/34
f 1/4/1 86/8/78 114/20/78
f 4/96/4 1/4/1 86/8/78
f 86/8/78 88/100/80 87/101/79
f 87/101/79 85/102/77 86/8/78
f 85/102/77 118/25/106 86/8/78
f 118/25/106 120/103/108 119/104/107
f 119/104/107 117/24/105 118/25/106
f 117/24/105 4/96/4 86/8/78
f 113/3/77 133/1/106 138/21/122
f 3/7/3 134/20/105 117/8/105
f 3/96/3 2/4/2 114/8/78
f 114/8/78 116/100/80 115/101/79
f 115/101/79 113/102/77 114/8/78
f 113/102/77 133/25/106 114/8/78
f 133/25/106 135/103/108 136/104/107
f 136/104/107 134/24/105 133/25/106
f 134/24/105 3/96/3 114/8/78
f 81/28/73 78/105/70 77/106/69
f 78/105/70 80/107/72 77/106/69
f 80/107/72 79/108/71 77/106/69
f 77/106/69 2/14/2 3/7/3
f 3/7/3 82/18/74 77/106/69
f 82/18/74 84/26/76 81/28/73
f 77/106/69 82/18/74 81/28/73
f 91/9/83 103/44/95 118/10/106
f 2/7/2 114/20/78 122/29/110
f 12/30/12 14/45/14 13/31/13
f 16/33/16 17/32/17 14/45/14
f 15/31/15 17/45/17 16/30/16
f 15/34/15 19/38/19 20/35/20
f 18/37/18 20/35/20 19/38/19
f 13/50/13 14/41/14 20/35/20
f 24/42/24 26/67/26 25/43/25
f 24/33/24 28/30/28 29/45/29
f 27/31/27 29/45/29 28/30/28
f 31/31/31 32/45/32 29/39/29
f 30/30/30 32/45/32 31/31/31
f 25/33/25 26/32/26 32/45/32
f 48/48/48 50/52/50 49/49/49
f 52/37/52 53/35/53 50/41/50
f 51/38/51 53/35/53 52/37/52
f 51/38/51 55/34/55 56/36/56
f 54/49/54 56/52/56 55/48/55
f 54/51/54 49/49/49 50/52/50
f 68/31/60 70/45/62 69/30/61
f 68/31/60 72/40/64 73/39/65
f 71/49/63 73/52/65 72/48/64
f 75/51/67 76/53/68 73/52/65
f 74/54/66 76/109/68 75/55/67
f 69/30/61 70/45/62 76/32/68
f 92/56/84 94/65/86 93/57/85
f 92/58/84 96/62/88 97/59/89
f 95/61/87 97/59/89 96/62/88
f 95/40/87 99/31/91 100/45/92
f 98/30/90 100/45/92 99/31/91
f 93/57/85 94/65/86 100/66/92
f 104/56/96 106/65/98 105/57/97
f 104/56/96 108/74/100 109/64/101
f 107/57/99 109/65/101 108/56/100
f 107/92/99 111/42/103 112/67/104
f 110/43/102 112/67/104 111/42/103
f 105/57/97 106/65/98 112/66/104
f 124/62/112 126/59/114 125/61/113
f 124/62/112 128/58/116 129/60/117
f 127/68/115 129/72/117 128/69/116
f 131/71/119 132/73/120 129/72/117
f 130/48/118 132/52/120 131/49/119
f 125/61/113 126/59/114 132/63/120
f 140/57/124 142/65/126 141/56/125
f 140/57/124 144/85/128 145/66/129
f 143/55/127 145/109/129 144/54/128
f 143/55/127 147/87/131 148/110/132
f 146/69/130 148/72/132 147/68/131
f 141/56/125 142/65/126 148/64/132
f 5/2/5 7/75/7 12/30/12
f 7/75/7 8/84/8 16/33/16
f 16/30/16 8/75/8 6/2/6
f 11/12/11 19/38/19 30/30/30
f 19/38/19 15/34/15 25/33/25
f 15/31/15 10/9/10 21/44/21
f 33/11/33 35/76/35 18/37/18
f 35/76/35 36/81/36 13/50/13
f 13/31/13 36/77/36 34/6/34
f 38/6/38 23/9/23 31/31/31
f 31/31/31 27/40/27 39/78/39
f 27/31/27 22/9/22 37/6/37
f 58/3/5 45/19/45 49/49/49
f 49/49/49 54/51/54 59/80/8
f 54/49/54 47/19/47 57/3/6
f 46/12/46 65/9/57 69/30/61
f 69/30/61 74/33/66 55/34/55
f 74/54/66 67/21/59 47/19/47
f 61/3/42 63/79/44 71/49/63
f 71/49/63 63/79/44 64/80/43
f 75/55/67 64/88/43 62/1/41
f 78/11/70 46/12/46 52/37/52
f 52/37/52 48/50/48 79/81/71
f 48/48/48 45/19/45 77/18/69
f 81/6/73 83/77/75 68/31/60
f 83/77/75 84/78/76 72/40/64
f 72/48/64 84/82/76 82/18/74
f 86/8/78 89/5/81 93/57/85
f 93/33/85 98/30/90 87/75/79
f 98/30/90 91/9/83 85/2/77
f 101/5/93 105/57/97 95/61/87
f 105/47/97 110/43/102 99/31/91
f 110/43/102 103/44/95 91/9/83
f 121/22/109 125/61/113 140/57/124
f 125/61/113 130/70/118 144/85/128
f 130/48/118 123/19/111 138/21/122
f 134/20/105 139/29/123 147/68/131
f 147/87/131 143/55/127 135/88/108
f 143/55/127 138/21/122 133/1/106
f 42/2/42 22/9/22 28/30/28
f 28/30/28 24/33/24 43/84/43
f 24/42/24 21/44/21 41/10/41
f 58/3/5 60/79/7 7/75/7
f 60/79/7 59/80/8 8/84/8
f 59/79/8 57/3/6 6/2/6
f 42/2/42 44/75/44 63/79/44
f 44/75/44 43/84/43 64/80/43
f 43/90/43 41/10/41 62/1/41
f 117/8/105 119/83/107 107/57/99
f 119/91/107 120/90/108 111/42/103
f 111/42/103 120/90/108 118/10/106
f 33/11/33 90/22/82 96/62/88
f 96/62/88 92/58/84 36/81/36
f 92/56/84 89/5/81 34/6/34
f 38/6/38 40/77/40 104/56/96
f 40/77/40 39/78/39 108/74/100
f 108/56/100 39/77/39 37/6/37
f 86/8/78 88/83/80 116/86/80
f 88/84/80 87/75/79 115/79/79
f 87/75/79 85/2/77 113/3/77
f 134/20/105 136/86/107 119/83/107
f 136/89/107 135/88/108 120/90/108
f 135/88/108 133/1/106 118/10/106
f 114/20/78 116/86/80 127/68/115
f 116/80/80 115/79/79 131/49/119
f 131/49/119 115/79/79 113/3/77
f 78/11/70 80/76/72 124/62/112
f 80/76/72 79/81/71 128/58/116
f 128/69/116 79/82/71 77/18/69
f 81/6/73 137/5/121 141/56/125
f 141/56/125 146/74/130 84/78/76
f 146/69/130 139/29/123 82/18/74
f 9/9/9 34/6/34 1/4/1
