# Blender 4.1.1
# www.blender.org
mtllib __clay_block_10_5.mtl
o clay_block_5
v 1.500000 0.500000 3.500000
v 2.500000 0.500000 3.500000
v 1.500000 -0.500000 3.500000
v 0.500000 0.500000 2.500000
v 1.500000 -0.500000 4.500000
v 1.500000 0.500000 5.500000
v 0.500000 0.500000 5.500000
v -0.500000 0.500000 2.500000
v 1.500000 0.500000 2.500000
v 2.500000 1.500000 3.500000
v 0.500000 1.500000 2.500000
v 2.500000 0.500000 4.500000
v 1.500000 0.500000 4.500000
v -0.500000 0.500000 5.500000
v -0.500000 2.500000 2.500000
v -0.500000 2.500000 1.500000
v 1.500000 1.500000 2.500000
v 1.500000 2.500000 3.500000
v -0.500000 1.500000 2.500000
v 1.500000 1.500000 4.500000
v 1.500000 1.500000 3.500000
v 1.500000 2.500000 4.500000
v 1.500000 1.500000 5.500000
v 2.500000 1.500000 4.500000
v -0.500000 1.500000 5.500000
v 0.500000 1.500000 5.500000
v -0.500000 2.500000 5.500000
v 0.500000 2.500000 6.500000
v -0.500000 2.500000 7.500000
v 0.500000 2.500000 7.500000
v -0.500000 2.500000 0.500000
v 0.500000 2.500000 0.500000
v 0.500000 3.500000 0.500000
v 0.500000 3.500000 1.500000
v -0.500000 3.500000 0.500000
v 0.500000 2.500000 1.500000
v 0.500000 3.500000 2.500000
v -0.500000 3.500000 1.500000
v 0.500000 2.500000 3.500000
v 0.500000 3.500000 3.500000
v -0.500000 3.500000 3.500000
v 0.500000 2.500000 4.500000
v -0.500000 3.500000 4.500000
v -0.500000 3.500000 6.500000
v -0.500000 3.500000 5.500000
v -0.500000 2.500000 6.500000
v -0.500000 3.500000 2.500000
v 0.500000 3.500000 4.500000
v 0.500000 3.500000 5.500000
v 0.500000 3.500000 6.500000
v -0.500000 3.500000 7.500000
v 0.500000 3.500000 7.500000
v 0.350000 -0.350000 -0.500000
v 0.500000 -0.350000 -0.350000
v 0.350000 -0.500000 -0.350000
v 0.424902 -0.350000 -0.479961
v 0.350000 -0.424902 -0.479961
v 0.421732 -0.421732 -0.460495
v 0.479961 -0.424902 -0.350000
v 0.479961 -0.350000 -0.424902
v 0.460495 -0.421732 -0.421732
v 0.350000 -0.479961 -0.424902
v 0.424902 -0.479961 -0.350000
v 0.421732 -0.460495 -0.421732
v -0.350000 -0.350000 -0.500000
v -0.350000 -0.500000 -0.350000
v -0.500000 -0.350000 -0.350000
v -0.350000 -0.424902 -0.479961
v -0.424902 -0.350000 -0.479961
v -0.421732 -0.421732 -0.460495
v -0.424902 -0.479961 -0.350000
v -0.350000 -0.479961 -0.424902
v -0.421732 -0.460495 -0.421732
v -0.479961 -0.350000 -0.424902
v -0.479961 -0.424902 -0.350000
v -0.460495 -0.421732 -0.421732
v -0.350000 -0.500000 1.500000
v -0.500000 -0.350000 1.500000
v -0.425000 -0.479904 1.500000
v -0.479904 -0.425000 1.500000
v 0.500000 -0.350000 0.500000
v 0.350000 -0.500000 0.500000
v 0.479904 -0.425000 0.500000
v 0.425000 -0.479904 0.500000
v -0.500000 -0.350000 0.500000
v -0.350000 -0.500000 0.500000
v -0.479904 -0.425000 0.500000
v -0.425000 -0.479904 0.500000
v 0.350000 0.500000 1.500000
v 0.500000 0.350000 1.650000
v 0.425000 0.479904 1.520096
v 0.479904 0.425000 1.575000
v 0.500000 0.350000 0.350000
v 0.350000 0.500000 0.500000
v 0.479904 0.425000 0.425000
v 0.425000 0.479904 0.479904
v 0.500000 -0.350000 1.500000
v 0.350000 -0.500000 1.500000
v 0.479904 -0.425000 1.500000
v 0.425000 -0.479904 1.500000
v -0.500000 0.350000 1.650000
v -0.350000 0.500000 1.500000
v -0.479904 0.425000 1.575000
v -0.425000 0.479904 1.520096
v 2.500000 -0.350000 3.500000
v 2.350000 -0.500000 3.500000
v 2.479904 -0.425000 3.500000
v 2.425000 -0.479904 3.500000
v 2.350000 -0.350000 2.500000
v 2.500000 -0.350000 2.650000
v 2.350000 -0.500000 2.650000
v 2.424901 -0.350000 2.520040
v 2.350000 -0.424902 2.520040
v 2.421732 -0.421732 2.539505
v 2.479960 -0.424902 2.650000
v 2.479960 -0.350000 2.575099
v 2.460495 -0.421732 2.578268
v 2.350000 -0.479961 2.575099
v 2.424901 -0.479961 2.650000
v 2.421732 -0.460495 2.578268
v 1.500000 -0.500000 2.650000
v 1.500000 -0.350000 2.500000
v 1.500000 -0.479904 2.575000
v 1.500000 -0.425000 2.520096
v 0.500000 -0.350000 2.500000
v 0.350000 -0.500000 2.650000
v 0.479904 -0.425000 2.520096
v 0.425000 -0.479904 2.575000
v -0.500000 -0.350000 3.350000
v -0.350000 -0.500000 3.350000
v -0.350000 -0.350000 3.500000
v -0.479961 -0.424902 3.350000
v -0.479961 -0.350000 3.424901
v -0.460495 -0.421732 3.421732
v -0.350000 -0.479961 3.424901
v -0.424902 -0.479961 3.350000
v -0.421732 -0.460495 3.421732
v -0.424902 -0.350000 3.479960
v -0.350000 -0.424902 3.479960
v -0.421732 -0.421732 3.460495
v -0.500000 -0.350000 2.500000
v -0.350000 -0.500000 2.500000
v -0.479904 -0.425000 2.500000
v -0.425000 -0.479904 2.500000
v 0.500000 0.350000 3.500000
v 0.650000 0.500000 3.500000
v 0.500000 0.500000 3.350000
v 0.500000 0.650000 3.500000
v 0.350000 0.500000 3.500000
v 0.520096 0.425000 3.500000
v 0.575000 0.479904 3.500000
v 2.500000 -0.350000 4.500000
v 2.350000 -0.500000 4.500000
v 2.479904 -0.425000 4.500000
v 2.425000 -0.479904 4.500000
v 0.650000 -0.500000 3.350000
v 0.500000 -0.350000 3.500000
v 0.575000 -0.479904 3.425000
v 0.520096 -0.425000 3.479904
v 0.650000 0.500000 4.500000
v 0.500000 0.350000 4.500000
v 0.350000 0.500000 4.500000
v 0.500000 0.650000 4.500000
v 0.500000 0.500000 4.650000
v 0.575000 0.479904 4.500000
v 0.520096 0.425000 4.500000
v 1.500000 -0.350000 5.500000
v 1.500000 -0.500000 5.350000
v 1.500000 -0.425000 5.479904
v 1.500000 -0.479904 5.425000
v 2.350000 -0.500000 5.350000
v 2.500000 -0.350000 5.350000
v 2.350000 -0.350000 5.500000
v 2.424901 -0.479961 5.350000
v 2.350000 -0.479961 5.424902
v 2.421732 -0.460495 5.421732
v 2.479960 -0.350000 5.424902
v 2.479960 -0.424902 5.350000
v 2.460495 -0.421732 5.421732
v 2.350000 -0.424902 5.479961
v 2.424901 -0.350000 5.479961
v 2.421732 -0.421732 5.460495
v 2.500000 0.500000 5.350000
v 2.350000 0.500000 5.500000
v 2.479904 0.500000 5.425000
v 2.425000 0.500000 5.479904
v 0.500000 -0.350000 5.500000
v 0.350000 -0.500000 5.350000
v 0.479904 -0.425000 5.479904
v 0.425000 -0.479904 5.425000
v 0.500000 -0.350000 4.500000
v 0.650000 -0.500000 4.650000
v 0.520096 -0.425000 4.520096
v 0.575000 -0.479904 4.575000
v -0.350000 -0.350000 4.500000
v -0.350000 -0.500000 4.650000
v -0.500000 -0.350000 4.650000
v -0.350000 -0.424902 4.520039
v -0.424902 -0.350000 4.520039
v -0.421732 -0.421732 4.539505
v -0.424902 -0.479961 4.650000
v -0.350000 -0.479961 4.575098
v -0.421732 -0.460495 4.578268
v -0.479961 -0.350000 4.575098
v -0.479961 -0.424902 4.650000
v -0.460495 -0.421732 4.578268
v -0.350000 -0.500000 6.500000
v -0.500000 -0.350000 6.500000
v -0.425000 -0.479904 6.500000
v -0.479904 -0.425000 6.500000
v -0.500000 -0.350000 5.500000
v -0.350000 -0.500000 5.500000
v -0.479904 -0.425000 5.500000
v -0.425000 -0.479904 5.500000
v -0.350000 0.500000 6.500000
v -0.500000 0.350000 6.350000
v -0.425000 0.479904 6.479904
v -0.479904 0.425000 6.425000
v 0.500000 0.350000 6.350000
v 0.350000 0.500000 6.500000
v 0.479904 0.425000 6.425000
v 0.425000 0.479904 6.479904
v 0.500000 -0.350000 6.500000
v 0.350000 -0.500000 6.500000
v 0.479904 -0.425000 6.500000
v 0.425000 -0.479904 6.500000
v -0.350000 -0.350000 8.500000
v -0.500000 -0.350000 8.350000
v -0.350000 -0.500000 8.350000
v -0.424902 -0.350000 8.479960
v -0.350000 -0.424902 8.479960
v -0.421732 -0.421732 8.460495
v -0.479961 -0.424902 8.350000
v -0.479961 -0.350000 8.424902
v -0.460495 -0.421732 8.421732
v -0.350000 -0.479961 8.424902
v -0.424902 -0.479961 8.350000
v -0.421732 -0.460495 8.421732
v 0.350000 -0.350000 8.500000
v 0.350000 -0.500000 8.350000
v 0.500000 -0.350000 8.350000
v 0.350000 -0.424902 8.479960
v 0.424902 -0.350000 8.479960
v 0.421732 -0.421732 8.460495
v 0.424902 -0.479961 8.350000
v 0.350000 -0.479961 8.424902
v 0.421732 -0.460495 8.421732
v 0.479961 -0.350000 8.424902
v 0.479961 -0.424902 8.350000
v 0.460495 -0.421732 8.421732
v 0.350000 -0.500000 7.500000
v 0.500000 -0.350000 7.500000
v 0.425000 -0.479904 7.500000
v 0.479904 -0.425000 7.500000
v -0.500000 -0.350000 7.500000
v -0.350000 -0.500000 7.500000
v -0.479904 -0.425000 7.500000
v -0.425000 -0.479904 7.500000
v -0.350000 0.500000 8.500000
v -0.500000 0.500000 8.350000
v -0.425000 0.500000 8.479904
v -0.479904 0.500000 8.425000
v 0.350000 0.500000 7.500000
v 0.500000 0.350000 7.650000
v 0.425000 0.479904 7.520096
v 0.479904 0.425000 7.575000
v -0.500000 0.350000 7.650000
v -0.350000 0.500000 7.500000
v -0.479904 0.425000 7.575000
v -0.425000 0.479904 7.520096
v -0.500000 0.350000 0.350000
v -0.350000 0.500000 0.500000
v -0.479904 0.425000 0.425000
v -0.425000 0.479904 0.479904
v 0.500000 0.500000 -0.350000
v 0.350000 0.500000 -0.500000
v 0.479904 0.500000 -0.425000
v 0.425000 0.500000 -0.479904
v -0.350000 0.500000 -0.500000
v -0.500000 0.500000 -0.350000
v -0.425000 0.500000 -0.479904
v -0.479904 0.500000 -0.425000
v -0.350000 1.500000 0.500000
v -0.500000 1.650000 0.350000
v -0.425000 1.520096 0.479904
v -0.479904 1.575000 0.425000
v 0.500000 1.650000 0.350000
v 0.350000 1.500000 0.500000
v 0.479904 1.575000 0.425000
v 0.425000 1.520096 0.479904
v 0.350000 1.500000 -0.500000
v 0.500000 1.500000 -0.350000
v 0.425000 1.500000 -0.479904
v 0.479904 1.500000 -0.425000
v -0.500000 1.500000 -0.350000
v -0.350000 1.500000 -0.500000
v -0.479904 1.500000 -0.425000
v -0.425000 1.500000 -0.479904
v 0.350000 1.500000 1.500000
v 0.500000 1.650000 1.650000
v 0.425000 1.520096 1.520096
v 0.479904 1.575000 1.575000
v 2.500000 0.500000 2.650000
v 2.350000 0.500000 2.500000
v 2.479904 0.500000 2.575000
v 2.425000 0.500000 2.520096
v 2.350000 1.500000 2.500000
v 2.500000 1.500000 2.650000
v 2.425000 1.500000 2.520096
v 2.479904 1.500000 2.575000
v -0.350000 0.500000 3.500000
v -0.500000 0.500000 3.350000
v -0.425000 0.500000 3.479904
v -0.479904 0.500000 3.425000
v -0.350000 0.500000 4.500000
v -0.500000 0.500000 4.650000
v -0.425000 0.500000 4.520096
v -0.479904 0.500000 4.575000
v -0.500000 1.500000 4.650000
v -0.350000 1.500000 4.500000
v -0.479904 1.500000 4.575000
v -0.425000 1.500000 4.520096
v 0.500000 0.500000 8.350000
v 0.350000 0.500000 8.500000
v 0.479904 0.500000 8.425000
v 0.425000 0.500000 8.479904
v -0.350000 1.500000 8.500000
v -0.500000 1.500000 8.350000
v -0.425000 1.500000 8.479904
v -0.479904 1.500000 8.425000
v -0.500000 1.650000 7.650000
v -0.350000 1.500000 7.500000
v -0.479904 1.575000 7.575000
v -0.425000 1.520096 7.520096
v -0.500000 1.650000 1.650000
v -0.350000 1.500000 1.500000
v -0.479904 1.575000 1.575000
v -0.425000 1.520096 1.520096
v 2.350000 2.500000 3.500000
v 2.500000 2.350000 3.500000
v 2.425000 2.479904 3.500000
v 2.479904 2.425000 3.500000
v 2.500000 2.350000 2.650000
v 2.350000 2.350000 2.500000
v 2.350000 2.500000 2.650000
v 2.479960 2.350000 2.575099
v 2.479960 2.424901 2.650000
v 2.460495 2.421732 2.578268
v 2.350000 2.424901 2.520040
v 2.424901 2.350000 2.520040
v 2.421732 2.421732 2.539505
v 2.424901 2.479960 2.650000
v 2.350000 2.479960 2.575099
v 2.421732 2.460495 2.578268
v 0.650000 1.500000 3.500000
v 0.500000 1.650000 3.500000
v 0.350000 1.500000 3.500000
v 0.500000 1.500000 3.350000
v 0.500000 1.350000 3.500000
v 0.575000 1.520096 3.500000
v 0.520096 1.575000 3.500000
v 1.500000 2.350000 2.500000
v 1.500000 2.500000 2.650000
v 1.500000 2.425000 2.520096
v 1.500000 2.479904 2.575000
v -0.350000 1.500000 3.500000
v -0.500000 1.500000 3.350000
v -0.425000 1.500000 3.479904
v -0.479904 1.500000 3.425000
v 2.350000 1.500000 5.500000
v 2.500000 1.500000 5.350000
v 2.425000 1.500000 5.479904
v 2.479904 1.500000 5.425000
v 2.350000 2.500000 5.350000
v 2.350000 2.350000 5.500000
v 2.500000 2.350000 5.350000
v 2.350000 2.479960 5.424902
v 2.424901 2.479960 5.350000
v 2.421732 2.460495 5.421732
v 2.424901 2.350000 5.479961
v 2.350000 2.424901 5.479961
v 2.421732 2.421732 5.460495
v 2.479960 2.424901 5.350000
v 2.479960 2.350000 5.424902
v 2.460495 2.421732 5.421732
v 2.500000 2.350000 4.500000
v 2.350000 2.500000 4.500000
v 2.479904 2.425000 4.500000
v 2.425000 2.479904 4.500000
v 1.500000 2.500000 5.350000
v 1.500000 2.350000 5.500000
v 1.500000 2.479904 5.425000
v 1.500000 2.425000 5.479904
v 0.500000 1.650000 4.500000
v 0.650000 1.500000 4.500000
v 0.500000 1.350000 4.500000
v 0.500000 1.500000 4.650000
v 0.350000 1.500000 4.500000
v 0.520096 1.575000 4.500000
v 0.575000 1.520096 4.500000
v -0.500000 2.650000 4.650000
v -0.350000 2.500000 4.500000
v -0.479904 2.575000 4.575000
v -0.425000 2.520096 4.520096
v -0.350000 1.500000 6.500000
v -0.500000 1.650000 6.350000
v -0.425000 1.520096 6.479904
v -0.479904 1.575000 6.425000
v 0.500000 1.650000 6.350000
v 0.350000 1.500000 6.500000
v 0.479904 1.575000 6.425000
v 0.425000 1.520096 6.479904
v 0.350000 1.500000 8.500000
v 0.500000 1.500000 8.350000
v 0.425000 1.500000 8.479904
v 0.479904 1.500000 8.425000
v 0.350000 1.500000 7.500000
v 0.500000 1.650000 7.650000
v 0.425000 1.520096 7.520096
v 0.479904 1.575000 7.575000
v -0.350000 2.500000 8.500000
v -0.500000 2.500000 8.350000
v -0.425000 2.500000 8.479904
v -0.479904 2.500000 8.425000
v 0.500000 2.500000 8.350000
v 0.350000 2.500000 8.500000
v 0.479904 2.500000 8.425000
v 0.425000 2.500000 8.479904
v 0.500000 2.500000 -0.350000
v 0.350000 2.500000 -0.500000
v 0.479904 2.500000 -0.425000
v 0.425000 2.500000 -0.479904
v -0.350000 2.500000 -0.500000
v -0.500000 2.500000 -0.350000
v -0.425000 2.500000 -0.479904
v -0.479904 2.500000 -0.425000
v 0.350000 3.500000 -0.500000
v 0.500000 3.500000 -0.350000
v 0.425000 3.500000 -0.479904
v 0.479904 3.500000 -0.425000
v -0.500000 3.500000 -0.350000
v -0.350000 3.500000 -0.500000
v -0.479904 3.500000 -0.425000
v -0.425000 3.500000 -0.479904
v 0.500000 2.500000 2.650000
v 0.500000 2.350000 2.500000
v 0.500000 2.500000 2.350000
v 0.500000 2.650000 2.500000
v 0.350000 2.500000 2.500000
v 0.500000 2.479904 2.575000
v 0.500000 2.425000 2.520096
v -0.350000 2.500000 3.500000
v -0.500000 2.650000 3.350000
v -0.425000 2.520096 3.479904
v -0.479904 2.575000 3.425000
v 0.500000 2.350000 5.500000
v 0.500000 2.500000 5.350000
v 0.350000 2.500000 5.500000
v 0.500000 2.650000 5.500000
v 0.500000 2.500000 5.650000
v 0.500000 2.425000 5.479904
v 0.500000 2.479904 5.425000
v 0.350000 4.500000 0.500000
v 0.500000 4.350000 0.500000
v 0.425000 4.479904 0.500000
v 0.479904 4.425000 0.500000
v 0.500000 4.350000 -0.350000
v 0.350000 4.350000 -0.500000
v 0.350000 4.500000 -0.350000
v 0.479961 4.350000 -0.424902
v 0.479961 4.424901 -0.350000
v 0.460495 4.421731 -0.421732
v 0.350000 4.424901 -0.479961
v 0.424902 4.350000 -0.479961
v 0.421732 4.421731 -0.460495
v 0.424902 4.479960 -0.350000
v 0.350000 4.479960 -0.424902
v 0.421732 4.460495 -0.421732
v -0.350000 4.350000 -0.500000
v -0.500000 4.350000 -0.350000
v -0.350000 4.500000 -0.350000
v -0.424902 4.350000 -0.479961
v -0.350000 4.424901 -0.479961
v -0.421732 4.421731 -0.460495
v -0.479961 4.424901 -0.350000
v -0.479961 4.350000 -0.424902
v -0.460495 4.421731 -0.421732
v -0.350000 4.479960 -0.424902
v -0.424902 4.479960 -0.350000
v -0.421732 4.460495 -0.421732
v -0.500000 4.350000 1.500000
v -0.350000 4.500000 1.500000
v -0.479904 4.425000 1.500000
v -0.425000 4.479904 1.500000
v -0.350000 4.500000 0.500000
v -0.500000 4.350000 0.500000
v -0.425000 4.479904 0.500000
v -0.479904 4.425000 0.500000
v 0.350000 4.500000 1.500000
v 0.500000 4.350000 1.500000
v 0.425000 4.479904 1.500000
v 0.479904 4.425000 1.500000
v 0.350000 4.500000 2.500000
v 0.500000 4.350000 2.500000
v 0.425000 4.479904 2.500000
v 0.479904 4.425000 2.500000
v -0.500000 4.350000 2.500000
v -0.350000 4.500000 2.500000
v -0.479904 4.425000 2.500000
v -0.425000 4.479904 2.500000
v 0.350000 4.500000 3.500000
v 0.500000 4.350000 3.500000
v 0.425000 4.479904 3.500000
v 0.479904 4.425000 3.500000
v -0.500000 4.350000 3.500000
v -0.350000 4.500000 3.500000
v -0.479904 4.425000 3.500000
v -0.425000 4.479904 3.500000
v 0.350000 4.500000 5.500000
v 0.500000 4.350000 5.500000
v 0.425000 4.479904 5.500000
v 0.479904 4.425000 5.500000
v 0.500000 4.350000 4.500000
v 0.350000 4.500000 4.500000
v 0.479904 4.425000 4.500000
v 0.425000 4.479904 4.500000
v -0.500000 4.350000 4.500000
v -0.350000 4.500000 4.500000
v -0.479904 4.425000 4.500000
v -0.425000 4.479904 4.500000
v -0.500000 4.350000 5.500000
v -0.350000 4.500000 5.500000
v -0.479904 4.425000 5.500000
v -0.425000 4.479904 5.500000
v -0.500000 4.350000 7.500000
v -0.350000 4.500000 7.500000
v -0.479904 4.425000 7.500000
v -0.425000 4.479904 7.500000
v 0.350000 4.500000 6.500000
v 0.500000 4.350000 6.500000
v 0.425000 4.479904 6.500000
v 0.479904 4.425000 6.500000
v -0.350000 4.500000 6.500000
v -0.500000 4.350000 6.500000
v -0.425000 4.479904 6.500000
v -0.479904 4.425000 6.500000
v -0.500000 3.500000 8.350000
v -0.350000 3.500000 8.500000
v -0.479904 3.500000 8.425000
v -0.425000 3.500000 8.479904
v 0.350000 3.500000 8.500000
v 0.500000 3.500000 8.350000
v 0.425000 3.500000 8.479904
v 0.479904 3.500000 8.425000
v -0.350000 4.500000 8.350000
v -0.500000 4.350000 8.350000
v -0.350000 4.350000 8.500000
v -0.424902 4.479961 8.350000
v -0.350000 4.479961 8.424902
v -0.421732 4.460495 8.421732
v -0.479961 4.350000 8.424902
v -0.479961 4.424902 8.350000
v -0.460495 4.421732 8.421732
v -0.350000 4.424902 8.479960
v -0.424902 4.350000 8.479960
v -0.421732 4.421732 8.460495
v 0.350000 4.350000 8.500000
v 0.500000 4.350000 8.350000
v 0.350000 4.500000 8.350000
v 0.424902 4.350000 8.479960
v 0.350000 4.424901 8.479960
v 0.421732 4.421731 8.460495
v 0.479961 4.424901 8.350000
v 0.479961 4.350000 8.424902
v 0.460495 4.421731 8.421732
v 0.350000 4.479960 8.424902
v 0.424902 4.479960 8.350000
v 0.421732 4.460495 8.421732
v 0.500000 4.350000 7.500000
v 0.350000 4.500000 7.500000
v 0.479904 4.425000 7.500000
v 0.425000 4.479904 7.500000
vn -0.5774 0.5774 0.5773
vn 0.8165 0.4082 0.4083
vn -0.4190 -0.8159 0.3985
vn -0.0000 0.9983 -0.0581
vn -0.3974 -0.8179 0.4162
vn -0.4082 0.4082 0.8165
vn -0.0000 0.5817 0.8134
vn -0.8291 0.4114 0.3785
vn -0.4083 0.4082 -0.8165
vn 0.8165 0.4082 0.4082
vn -0.0000 0.9983 0.0581
vn -0.6667 0.6667 0.3333
vn -0.8054 0.3997 0.4377
vn -0.8054 0.4377 0.3996
vn -0.4082 0.4082 -0.8165
vn -0.4082 0.8165 0.4082
vn -0.8165 0.4082 0.4082
vn -0.6667 0.3333 0.6667
vn -0.4083 0.4082 0.8165
vn 0.8165 0.4083 0.4082
vn -0.0000 0.6151 0.7885
vn -0.8054 0.3996 0.4377
vn 0.8291 0.3785 0.4114
vn 0.8054 0.4377 0.3996
vn -0.8951 -0.0389 0.4442
vn 0.8951 -0.0389 0.4442
vn 0.8054 0.4377 0.3997
vn 0.8165 0.4083 0.4083
vn -0.0000 0.5547 0.8320
vn 0.8150 0.4067 0.4127
vn -0.8291 0.3785 0.4114
vn -0.0000 0.8944 0.4472
vn 0.8183 0.4099 0.4030
vn 0.1280 -0.1280 -0.9835
vn 0.9835 -0.1280 -0.1280
vn 0.1280 -0.9835 -0.1280
vn 0.4916 -0.1216 -0.8623
vn 0.1216 -0.4916 -0.8623
vn 0.4488 -0.4488 -0.7727
vn 0.8623 -0.4916 -0.1216
vn 0.8623 -0.1216 -0.4916
vn 0.7727 -0.4488 -0.4488
vn 0.1216 -0.8623 -0.4916
vn 0.4916 -0.8623 -0.1216
vn 0.4488 -0.7727 -0.4488
vn -0.1280 -0.1280 -0.9835
vn -0.1280 -0.9835 -0.1280
vn -0.9835 -0.1280 -0.1280
vn -0.1216 -0.4916 -0.8623
vn -0.4916 -0.1216 -0.8623
vn -0.4488 -0.4488 -0.7727
vn -0.4916 -0.8623 -0.1216
vn -0.1216 -0.8623 -0.4916
vn -0.4488 -0.7727 -0.4488
vn -0.8623 -0.1216 -0.4916
vn -0.8623 -0.4916 -0.1216
vn -0.7727 -0.4488 -0.4488
vn -0.1185 -0.8999 0.4196
vn -0.8934 -0.1273 0.4308
vn -0.4591 -0.7952 0.3961
vn -0.7952 -0.4591 0.3961
vn 0.9062 -0.1102 0.4083
vn 0.1185 -0.8999 0.4196
vn 0.7952 -0.4591 0.3961
vn 0.4591 -0.7952 0.3961
vn -0.9062 -0.1102 0.4083
vn 0.0575 0.9834 0.1718
vn 0.8407 0.4389 0.3171
vn 0.6236 0.7635 -0.1680
vn 0.8740 0.4765 0.0950
vn 0.9655 0.1503 0.2126
vn 0.2647 0.6302 0.7299
vn 0.8740 -0.0950 0.4765
vn 0.6236 0.1680 0.7635
vn 0.8934 -0.1273 0.4308
vn -0.8407 0.4389 0.3171
vn -0.0575 0.9834 0.1718
vn -0.8740 0.4765 0.0950
vn -0.6236 0.7635 -0.1680
vn 0.8999 -0.1185 0.4196
vn -0.4196 -0.8999 -0.1185
vn -0.4196 -0.1185 -0.8999
vn -0.3961 -0.7952 -0.4591
vn -0.3961 -0.4591 -0.7952
vn 0.5533 0.1624 -0.8170
vn -0.4243 -0.8865 0.1845
vn 0.5135 -0.6875 -0.5135
vn 0.2085 -0.9555 -0.2085
vn -0.9835 -0.1280 0.1280
vn -0.1280 -0.9835 0.1280
vn -0.1280 -0.1280 0.9835
vn -0.8623 -0.4916 0.1216
vn -0.8623 -0.1216 0.4916
vn -0.7727 -0.4488 0.4488
vn -0.1216 -0.8623 0.4916
vn -0.4916 -0.8623 0.1216
vn -0.4488 -0.7727 0.4488
vn -0.4916 -0.1216 0.8623
vn -0.1216 -0.4916 0.8623
vn -0.4488 -0.4488 0.7727
vn -0.8999 -0.1185 0.4196
vn -0.1273 -0.8934 0.4308
vn -0.7543 -0.0651 0.6533
vn -0.1447 0.6646 0.7331
vn -0.7675 0.6410 0.0117
vn -0.6034 -0.0000 0.7975
vn -0.1673 0.5847 0.7938
vn -0.4265 0.4906 0.7598
vn -0.4059 0.7539 0.5166
vn -0.2631 -0.9091 0.3229
vn -0.6917 -0.2292 0.6849
vn -0.2085 -0.9555 0.2085
vn -0.5135 -0.6875 0.5135
vn -0.2111 0.9762 -0.0499
vn -0.9918 -0.0855 0.0948
vn -0.1673 0.5847 -0.7938
vn -0.6034 -0.0000 -0.7975
vn -0.7675 0.6410 -0.0117
vn -0.4589 0.8523 0.2510
vn -0.6558 0.7543 -0.0288
vn -0.4196 -0.1185 0.8999
vn -0.4196 -0.8999 0.1185
vn -0.3961 -0.4591 0.7952
vn -0.3961 -0.7952 0.4591
vn 0.1280 -0.9835 0.1280
vn 0.9835 -0.1280 0.1280
vn 0.1280 -0.1280 0.9835
vn 0.4916 -0.8623 0.1216
vn 0.1216 -0.8623 0.4916
vn 0.4488 -0.7727 0.4488
vn 0.8623 -0.1216 0.4916
vn 0.8623 -0.4916 0.1216
vn 0.7727 -0.4488 0.4488
vn 0.1216 -0.4916 0.8623
vn 0.4916 -0.1216 0.8623
vn 0.4488 -0.4488 0.7727
vn 0.8999 0.4196 0.1185
vn 0.1185 0.4196 0.8999
vn 0.7952 0.3961 0.4591
vn 0.4591 0.3961 0.7952
vn 0.0752 -0.1317 0.9884
vn -0.2631 -0.9222 0.2833
vn -0.1049 -0.5038 0.8574
vn -0.3119 -0.7161 0.6244
vn -0.9889 -0.0998 0.1102
vn -0.4275 -0.8385 0.3379
vn -0.8574 -0.5038 0.1049
vn -0.6244 -0.7161 0.3119
vn -0.4488 -0.4489 -0.7727
vn -0.4489 -0.7727 -0.4488
vn -0.1102 -0.9062 0.4083
vn -0.2404 0.6934 0.6793
vn -0.9424 0.2896 0.1672
vn -0.6236 0.1680 0.7635
vn -0.8740 -0.0950 0.4765
vn 0.9424 0.2896 0.1672
vn 0.2404 0.6934 0.6793
vn 0.4489 -0.7727 0.4488
vn 0.7727 -0.4488 0.4489
vn 0.1185 -0.8999 -0.4196
vn 0.9062 -0.1102 -0.4083
vn 0.4591 -0.7952 -0.3961
vn 0.7952 -0.4591 -0.3961
vn -0.9062 -0.1102 -0.4083
vn -0.1185 -0.8999 -0.4196
vn -0.7952 -0.4591 -0.3961
vn -0.4591 -0.7952 -0.3961
vn -0.1185 0.4196 0.8999
vn -0.9062 0.4083 0.1102
vn -0.4591 0.3961 0.7952
vn -0.7952 0.3961 0.4591
vn 0.2647 0.6302 -0.7299
vn 0.9655 0.1502 -0.2126
vn 0.6236 0.1680 -0.7635
vn 0.8740 -0.0950 -0.4765
vn -0.9655 0.1502 -0.2126
vn -0.2647 0.6302 -0.7299
vn -0.8740 -0.0950 -0.4765
vn -0.6236 0.1680 -0.7635
vn -0.9655 0.1503 0.2126
vn -0.2647 0.6302 0.7299
vn 0.9062 0.4083 -0.1102
vn 0.1185 0.4196 -0.8999
vn 0.7952 0.3961 -0.4591
vn 0.4591 0.3961 -0.7952
vn -0.1185 0.4196 -0.8999
vn -0.9062 0.4083 -0.1102
vn -0.4591 0.3961 -0.7952
vn -0.7952 0.3961 -0.4591
vn -0.0575 0.1718 0.9834
vn -0.8407 0.3171 0.4389
vn -0.6236 -0.1680 0.7635
vn -0.8740 0.0950 0.4765
vn 0.8407 0.3171 0.4389
vn 0.0575 0.1719 0.9834
vn 0.8740 0.0950 0.4765
vn 0.6236 -0.1680 0.7635
vn 0.8934 0.4308 -0.1273
vn -0.8934 0.4308 -0.1273
vn 0.1950 -0.6015 -0.7747
vn 0.9377 0.2867 0.1960
vn 0.6236 -0.1680 -0.7635
vn 0.8740 0.0950 -0.4765
vn 0.8999 0.4196 -0.1185
vn -0.8999 0.4196 0.1185
vn -0.8999 0.4196 -0.1185
vn 0.9062 0.4083 0.1102
vn -0.8934 0.4308 0.1273
vn -0.8741 0.0679 0.4809
vn -0.0922 -0.9198 -0.3814
vn -0.8740 -0.4765 0.0950
vn -0.6236 -0.7635 -0.1680
vn -0.9377 0.2867 0.1960
vn -0.1950 -0.6015 -0.7747
vn -0.8740 0.0950 -0.4765
vn -0.6236 -0.1680 -0.7635
vn 0.1185 0.8999 0.4196
vn 0.8999 0.1185 0.4196
vn 0.4591 0.7952 0.3961
vn 0.7952 0.4591 0.3961
vn 0.9835 0.1280 -0.1280
vn 0.1280 0.1280 -0.9835
vn 0.1280 0.9835 -0.1280
vn 0.8623 0.1216 -0.4916
vn 0.8623 0.4916 -0.1216
vn 0.7727 0.4488 -0.4488
vn 0.1216 0.4916 -0.8623
vn 0.4916 0.1216 -0.8623
vn 0.4488 0.4488 -0.7727
vn 0.4916 0.8623 -0.1216
vn 0.1216 0.8623 -0.4916
vn 0.4488 0.7727 -0.4488
vn -0.1452 -0.0183 0.9892
vn -0.7289 0.0239 0.6842
vn 0.0531 0.4630 0.8848
vn -0.7148 0.6756 0.1807
vn -0.4144 0.2055 0.8866
vn -0.4906 -0.4265 0.7598
vn -0.4265 -0.4906 0.7598
vn -0.4196 0.1185 -0.8999
vn -0.4196 0.8999 -0.1185
vn -0.3961 0.4591 -0.7952
vn -0.3961 0.7952 -0.4591
vn 0.1280 0.9835 0.1280
vn 0.1280 0.1280 0.9835
vn 0.9835 0.1280 0.1280
vn 0.1216 0.8623 0.4916
vn 0.4916 0.8623 0.1216
vn 0.4488 0.7727 0.4488
vn 0.4916 0.1216 0.8623
vn 0.1216 0.4916 0.8623
vn 0.4488 0.4488 0.7727
vn 0.8623 0.4916 0.1216
vn 0.8623 0.1216 0.4916
vn 0.7727 0.4488 0.4488
vn -0.4196 0.8999 0.1185
vn -0.4196 0.1185 0.8999
vn -0.3961 0.7952 0.4591
vn -0.3961 0.4591 0.7952
vn -0.9994 0.0327 0.0134
vn -0.6651 -0.0837 -0.7421
vn -0.4144 0.2055 -0.8866
vn -0.7148 0.6756 -0.1807
vn 0.0531 0.4630 -0.8848
vn -0.6558 -0.7543 -0.0288
vn -0.7543 -0.6558 -0.0288
vn -0.9260 0.2612 0.2725
vn 0.1605 -0.7097 -0.6860
vn -0.9555 -0.2085 -0.2085
vn -0.6875 -0.5135 -0.5135
vn -0.1700 -0.2463 0.9542
vn -0.8906 0.2907 0.3498
vn 0.8906 0.2907 0.3498
vn 0.1700 -0.2463 0.9542
vn 0.8934 0.4308 0.1273
vn 0.0922 -0.9198 -0.3814
vn 0.8741 0.0679 0.4809
vn 0.6236 -0.7635 -0.1680
vn 0.8740 -0.4765 0.0950
vn 0.8999 -0.4196 -0.1185
vn 0.1185 -0.4196 -0.8999
vn 0.7952 -0.3961 -0.4591
vn 0.4591 -0.3961 -0.7952
vn -0.1185 -0.4196 -0.8999
vn -0.8999 -0.4196 -0.1185
vn -0.4591 -0.3961 -0.7952
vn -0.7952 -0.3961 -0.4591
vn -0.0299 0.9806 -0.1940
vn 0.8418 0.5323 0.0899
vn 0.7916 0.6093 -0.0462
vn 0.9716 -0.0000 0.2365
vn 0.0171 0.7316 0.6815
vn -0.9988 -0.0239 -0.0429
vn -0.7303 0.6217 0.2833
vn -0.1447 -0.0358 0.9888
vn -0.8515 0.3401 0.3990
vn -0.8741 0.0950 0.4765
vn -0.0134 -0.0327 0.9994
vn 0.0498 0.9760 0.2118
vn 0.0169 0.6444 0.7645
vn 0.7975 -0.0000 0.6034
vn 0.7938 0.5847 0.1673
vn 0.0288 0.7543 0.6558
vn -0.2510 0.8523 0.4589
vn -0.1280 0.1280 -0.9835
vn -0.9835 0.1280 -0.1280
vn -0.1280 0.9835 -0.1280
vn -0.4916 0.1216 -0.8623
vn -0.1216 0.4916 -0.8623
vn -0.4488 0.4488 -0.7727
vn -0.8623 0.4916 -0.1216
vn -0.8623 0.1216 -0.4916
vn -0.7727 0.4488 -0.4488
vn -0.1216 0.8623 -0.4916
vn -0.4916 0.8623 -0.1216
vn -0.4488 0.7727 -0.4488
vn -0.8999 0.1185 0.4196
vn -0.1185 0.8999 0.4196
vn -0.7952 0.4591 0.3961
vn -0.4591 0.7952 0.3961
vn -0.1280 0.9835 0.1280
vn -0.9835 0.1280 0.1280
vn -0.1280 0.1280 0.9835
vn -0.4916 0.8623 0.1216
vn -0.1216 0.8623 0.4916
vn -0.4488 0.7727 0.4488
vn -0.8623 0.1216 0.4916
vn -0.8623 0.4916 0.1216
vn -0.7727 0.4488 0.4489
vn -0.1216 0.4916 0.8623
vn -0.4916 0.1216 0.8623
vn -0.4488 0.4488 0.7727
vt 0.350000 -0.350000
vt -0.350000 0.350000
vt -0.500000 -0.350000
vt -2.500000 1.500000
vt -1.650000 0.350000
vt -2.500000 0.500000
vt -1.500000 -0.350000
vt 0.350000 -0.500000
vt -0.350000 -0.500000
vt -0.350000 -2.500000
vt 0.350000 -1.500000
vt 0.350000 -2.650000
vt -0.350000 0.500000
vt 0.350000 1.500000
vt 0.350000 0.500000
vt 0.500000 -0.350000
vt -0.350000 -1.500000
vt -2.500000 -0.350000
vt -3.350000 0.500000
vt -3.350000 -0.350000
vt 1.500000 -3.500000
vt 2.350000 -4.500000
vt 1.500000 -4.500000
vt -2.650000 0.500000
vt -3.500000 1.500000
vt -3.500000 0.500000
vt 1.500000 -2.650000
vt 2.350000 -3.500000
vt 0.650000 -3.350000
vt -3.500000 -0.350000
vt -4.500000 0.500000
vt -4.500000 -0.350000
vt 1.500000 0.500000
vt 1.500000 -0.350000
vt -2.650000 -0.500000
vt -4.500000 0.350000
vt 0.650000 -3.500000
vt 0.650000 -4.500000
vt -0.350000 -3.350000
vt 0.650000 0.500000
vt 0.650000 1.500000
vt 0.500000 0.650000
vt -3.350000 1.500000
vt -0.350000 -0.350000
vt 0.500000 0.350000
vt 2.350000 0.500000
vt 2.350000 -0.350000
vt 2.500000 -4.500000
vt 0.650000 -4.650000
vt 2.350000 -0.500000
vt 2.500000 -0.350000
vt -3.500000 -0.500000
vt -4.500000 -0.500000
vt 2.350000 -5.350000
vt 1.500000 -5.350000
vt -4.575000 -0.479904
vt -4.650000 -0.500000
vt 0.575000 0.479904
vt 0.520096 0.425000
vt -5.350000 0.500000
vt -5.350000 -0.350000
vt -0.350000 -4.650000
vt 0.350000 -5.350000
vt -0.350000 -5.500000
vt 0.500000 0.500000
vt 1.500000 1.500000
vt 0.500000 1.350000
vt -5.500000 -0.350000
vt -5.500000 0.500000
vt -4.500000 1.350000
vt -4.500000 0.650000
vt -4.650000 0.500000
vt 0.350000 -6.500000
vt -0.350000 -6.500000
vt -4.650000 -0.350000
vt -6.350000 0.350000
vt -6.500000 -0.350000
vt 0.350000 -7.500000
vt -0.350000 -7.500000
vt -7.650000 0.350000
vt -7.500000 -0.350000
vt -6.350000 1.650000
vt -0.350000 1.500000
vt -8.350000 -0.350000
vt 0.350000 -8.350000
vt -0.350000 -8.350000
vt -8.350000 1.500000
vt -8.350000 0.500000
vt -0.350000 1.650000
vt 0.350000 2.500000
vt 2.350000 1.500000
vt -0.500000 1.500000
vt -0.500000 0.500000
vt -2.650000 -0.350000
vt 2.500000 0.500000
vt 2.479904 -2.575000
vt 2.425000 -2.520096
vt 2.350000 -2.500000
vt -2.650000 1.500000
vt -3.500000 2.350000
vt 1.500000 2.500000
vt 1.500000 -2.500000
vt 0.500000 -3.500000
vt 0.500000 -3.350000
vt 0.350000 -3.500000
vt -0.500000 -3.350000
vt -5.500000 1.500000
vt -4.500000 1.500000
vt -5.350000 1.500000
vt 2.350000 -5.500000
vt 2.500000 -5.350000
vt 0.500000 1.500000
vt 1.500000 -5.500000
vt 0.500000 -4.650000
vt -0.350000 2.500000
vt -0.500000 -4.650000
vt 0.350000 -4.500000
vt -5.500000 2.500000
vt -4.650000 1.500000
vt -0.500000 -6.350000
vt 0.500000 -6.350000
vt -0.500000 -7.650000
vt 0.500000 -7.650000
vt 0.350000 -8.500000
vt 0.500000 -8.350000
vt -0.500000 2.500000
vt -1.650000 1.650000
vt -2.350000 2.500000
vt -2.500000 2.350000
vt -1.500000 2.500000
vt 0.500000 -1.500000
vt -0.500000 -0.500000
vt -0.500000 -1.500000
vt -0.425000 1.520096
vt -0.479904 1.575000
vt -0.500000 1.650000
vt 0.500000 2.500000
vt 0.500000 3.500000
vt -0.350000 -3.500000
vt 0.350000 -2.500000
vt 0.500000 1.650000
vt -4.500000 2.350000
vt 2.350000 2.350000
vt -2.500000 2.500000
vt 1.500000 2.350000
vt 0.500000 -2.650000
vt -2.575000 2.479904
vt -2.520096 2.425000
vt -1.500000 3.500000
vt -4.500000 2.500000
vt -3.500000 1.650000
vt -4.500000 1.650000
vt 2.479904 2.425000
vt 2.425000 2.479904
vt 2.350000 2.500000
vt 0.500000 -4.500000
vt 0.500000 -5.350000
vt -2.650000 2.500000
vt -5.500000 3.500000
vt -4.650000 2.650000
vt -5.350000 2.350000
vt 0.500000 2.350000
vt -5.500000 2.350000
vt -5.350000 2.500000
vt -0.500000 -6.500000
vt 0.500000 -5.650000
vt 0.350000 -5.500000
vt -8.350000 2.500000
vt -7.650000 1.650000
vt -0.425000 -4.520096
vt -0.479904 -4.575000
vt -5.500000 2.650000
vt -6.500000 3.500000
vt -5.650000 2.500000
vt -7.500000 2.500000
vt 0.500000 -7.500000
vt -0.500000 -7.500000
vt -8.350000 3.500000
vt -0.350000 3.500000
vt -0.500000 3.500000
vt -0.500000 4.350000
vt 0.350000 3.500000
vt -0.500000 0.350000
vt 0.500000 -2.500000
vt -0.500000 -2.500000
vt 0.500000 2.425000
vt 0.500000 -2.350000
vt -2.500000 3.500000
vt -0.500000 -3.500000
vt -3.350000 2.650000
vt 0.500000 2.650000
vt -4.500000 3.500000
vt -0.500000 -4.500000
vt -0.350000 -4.500000
vt -3.500000 2.500000
vt 0.500000 -5.500000
vt -0.500000 -5.500000
vt 0.500000 -6.500000
vt -6.500000 2.500000
vt -7.500000 3.500000
vt -8.350000 4.350000
vt -0.500000 -8.350000
vt -0.350000 -8.500000
vt -1.500000 4.350000
vt -0.425000 0.479904
vt -0.479904 0.425000
vt 0.350000 4.350000
vt -2.500000 2.650000
vt -3.500000 3.500000
vt -0.425000 4.479904
vt -0.479904 4.425000
vt -2.500000 4.350000
vt -3.500000 4.350000
vt -4.500000 4.350000
vt -5.500000 4.350000
vt -6.500000 4.350000
vt -7.500000 4.350000
vt -0.350000 4.350000
vt 0.424902 -0.350000
vt 0.350000 -0.424902
vt 0.460495 -0.421732
vt 0.479961 -0.350000
vt 0.424902 0.350000
vt 0.460495 0.421732
vt 0.479961 0.350000
vt 0.350000 0.424902
vt 0.350000 0.350000
vt 0.350000 -0.479961
vt 0.421732 -0.421732
vt 0.421732 -0.460495
vt -0.350000 -0.424902
vt -0.424902 -0.350000
vt -0.350000 0.424902
vt -0.421732 0.460495
vt -0.350000 0.479961
vt -0.424902 0.350000
vt -0.460495 -0.421732
vt -0.479961 -0.350000
vt 2.424901 -0.350000
vt 2.350000 -0.424902
vt -2.575099 -0.350000
vt -2.539505 -0.421732
vt -2.520040 -0.350000
vt -2.650000 -0.424902
vt -2.650000 -0.479961
vt -2.578268 -0.421732
vt 2.350000 -2.575099
vt 2.424901 -2.650000
vt 2.350000 -2.650000
vt 2.421732 -0.460495
vt 2.350000 -0.479961
vt -2.578268 -0.460495
vt -3.350000 -0.424902
vt -3.424901 -0.350000
vt -3.350000 -0.479961
vt -3.421732 -0.421732
vt -0.350000 -3.424901
vt -0.424902 -3.350000
vt -0.421732 -0.460495
vt -0.350000 -0.479961
vt -0.421732 -0.421732
vt 0.520096 -4.500000
vt 2.424901 -5.350000
vt 2.350000 -5.424902
vt -5.350000 -0.479961
vt -5.421732 -0.421732
vt -5.421732 -0.460495
vt -5.424902 -0.350000
vt -5.350000 -0.424902
vt -5.460495 -0.421732
vt 2.350000 -5.479961
vt 2.421732 -5.421732
vt 2.421732 -5.460495
vt -0.424902 -4.650000
vt -0.350000 -4.575098
vt -4.650000 -0.424902
vt -4.578268 -0.460495
vt -4.650000 -0.479961
vt -4.575098 -0.350000
vt -4.539505 -0.421732
vt -4.578268 -0.421732
vt -8.350000 -0.424902
vt -8.424902 -0.350000
vt -8.421732 -0.460495
vt -8.421732 -0.421732
vt -0.350000 -8.424902
vt -0.424902 -8.350000
vt 0.424902 -8.350000
vt 0.350000 -8.424902
vt -8.350000 -0.479961
vt -2.575099 2.350000
vt -2.650000 2.424901
vt -2.650000 2.350000
vt -2.539505 2.421732
vt -2.578268 2.421732
vt 2.350000 2.424901
vt 2.424901 2.350000
vt 2.421732 2.460495
vt 2.421732 2.421732
vt -2.578268 2.460495
vt -2.650000 2.479960
vt 0.520096 -3.500000
vt -5.424902 2.350000
vt -5.460495 2.421732
vt -5.479961 2.350000
vt -5.350000 2.424901
vt -5.350000 2.479960
vt -5.421732 2.421732
vt -5.421732 2.460495
vt -4.500000 1.520096
vt 0.500000 -2.520096
vt 0.424902 4.350000
vt 0.350000 4.424901
vt 0.460495 4.421731
vt 0.421732 4.421731
vt 0.421732 0.460495
vt 0.350000 0.479961
vt 0.421732 0.421732
vt 0.421732 4.460495
vt -0.424902 4.350000
vt -0.350000 4.424901
vt 0.479961 4.350000
vt -0.460495 0.421732
vt -0.479961 0.350000
vt -0.421732 0.421732
vt -0.479961 -8.350000
vt -0.421732 -8.421732
vt -8.424902 4.350000
vt -8.350000 4.424902
vt -0.424902 4.350000
vt -0.460495 4.421732
vt -0.479961 4.350000
vt -0.350000 4.424902
vt -0.350000 4.479961
vt -0.421732 4.421732
vt -0.421732 4.460495
vt -8.350000 4.424901
vt -8.424902 4.350000
vt 0.460495 -8.421732
vt 0.479961 -8.350000
vt 0.350000 4.479960
vt -1.500000 -0.425000
vt -0.500000 -0.425000
vt -1.500000 -0.479904
vt -0.425000 -0.500000
vt -0.425000 -1.500000
vt -1.575000 0.425000
vt -0.425000 0.425000
vt -1.520096 0.479904
vt 0.425000 -1.520096
vt 1.500000 -0.425000
vt 1.500000 -0.479904
vt 1.500000 -2.575000
vt -3.500000 -0.479904
vt -2.500000 -0.425000
vt -5.425000 0.500000
vt -5.479961 -0.350000
vt 0.520096 -0.425000
vt 0.575000 -4.575000
vt -6.500000 -0.425000
vt -5.500000 -0.425000
vt -6.500000 -0.479904
vt -0.425000 -5.500000
vt -0.425000 -6.500000
vt -7.500000 -0.425000
vt -7.500000 -0.479904
vt 0.425000 -7.500000
vt -8.425000 0.500000
vt -8.479960 -0.350000
vt -8.479904 0.500000
vt -0.425000 0.500000
vt -0.425000 1.575000
vt -0.479904 1.520096
vt 0.425000 1.500000
vt 0.425000 0.500000
vt 0.479904 1.500000
vt 0.479904 0.500000
vt -0.425000 1.500000
vt -2.575000 1.500000
vt -2.575000 0.500000
vt -2.520096 1.500000
vt 2.425000 0.500000
vt 2.425000 1.500000
vt -4.575000 0.500000
vt -4.575000 1.500000
vt -4.520096 0.500000
vt -3.500000 2.425000
vt -3.500000 2.479904
vt 2.425000 -3.500000
vt -4.500000 2.425000
vt -5.425000 1.500000
vt -5.479904 1.500000
vt -8.425000 1.500000
vt -8.425000 2.500000
vt -8.479904 1.500000
vt 0.425000 2.500000
vt 0.425000 3.500000
vt 0.479904 3.500000
vt 0.479904 2.500000
vt -0.425000 3.500000
vt -0.425000 2.500000
vt -0.500000 4.425000
vt -0.500000 4.479904
vt 0.425000 -0.500000
vt -1.500000 4.425000
vt -5.500000 4.425000
vt -4.500000 4.425000
vt -5.500000 4.479904
vt 0.425000 -4.500000
vt 0.425000 -5.500000
vt -6.500000 4.425000
vt -7.500000 4.425000
vt -6.500000 4.479904
vt -0.425000 -7.500000
vt 0.479904 -7.500000
vt -0.479904 3.500000
vt -8.425000 3.500000
vt -8.479904 3.500000
vt -0.500000 -0.479904
vt 0.425000 -1.500000
vt -0.479904 0.479904
vt -0.425000 -1.520096
vt -0.425000 -0.479904
vt -2.500000 -0.479904
vt -0.425000 -2.500000
vt -2.520096 -0.425000
vt 0.425000 -2.575000
vt -2.520096 0.500000
vt 0.479904 -0.425000
vt 0.425000 -0.479904
vt 0.520096 -0.425000
vt 0.520096 -3.479904
vt 0.575000 -3.425000
vt -3.425000 0.500000
vt -0.479904 0.500000
vt -3.500000 -0.425000
vt -4.500000 -0.425000
vt 2.425000 -4.500000
vt -4.520096 -0.425000
vt 0.520096 -4.520096
vt -3.500000 0.425000
vt -3.500000 0.350000
vt -4.500000 0.425000
vt -3.500000 0.479904
vt 0.575000 -4.500000
vt 0.575000 -3.500000
vt -4.500000 -0.479904
vt 0.479904 -5.479904
vt 1.500000 -5.425000
vt 1.500000 -5.479904
vt 0.425000 -5.425000
vt -5.500000 -0.479904
vt -5.479904 -0.425000
vt 0.425000 -6.500000
vt -6.425000 0.425000
vt -7.575000 0.425000
vt -6.479904 0.479904
vt -0.425000 -7.520096
vt -0.425000 -6.479904
vt -7.520096 0.479904
vt 0.425000 -6.479904
vt 0.425000 -7.520096
vt 0.425000 0.479904
vt -1.575000 1.575000
vt 0.479904 1.575000
vt 0.425000 0.479904
vt 0.425000 1.520096
vt -0.425000 0.479904
vt -0.479904 0.425000
vt -3.425000 1.500000
vt -0.479904 1.500000
vt -5.479904 0.500000
vt -6.425000 1.575000
vt -6.479904 1.520096
vt -0.425000 0.479904
vt -0.425000 1.520096
vt -6.425000 1.575000
vt 0.425000 1.520096
vt 0.425000 0.479904
vt -7.575000 1.575000
vt -7.520096 1.520096
vt -7.575000 1.575000
vt -0.479904 -0.425000
vt -0.479904 -1.575000
vt -0.425000 -0.479904
vt 0.479904 -1.575000
vt 0.425000 -0.479904
vt 0.479904 -0.425000
vt 1.500000 2.425000
vt 2.350000 2.479960
vt -2.520040 2.350000
vt 1.500000 2.479904
vt 0.500000 -2.575000
vt -3.425000 2.575000
vt -0.425000 2.520096
vt -0.479904 2.575000
vt -4.500000 2.479904
vt -4.500000 1.575000
vt 0.500000 -5.425000
vt 0.500000 -5.479904
vt -4.575000 2.575000
vt -4.520096 2.520096
vt -4.520096 1.500000
vt -8.479904 2.500000
vt -0.479904 -3.425000
vt -0.479904 -0.500000
vt -1.500000 4.479904
vt -2.500000 4.425000
vt -2.500000 4.479904
vt 0.425000 -2.500000
vt -3.500000 4.425000
vt -0.425000 -3.500000
vt -3.500000 4.479904
vt 0.425000 -3.500000
vt -0.425000 -4.500000
vt -4.500000 4.479904
vt -7.500000 4.479904
vt -8.350000 4.479961
vt -0.479904 -0.425000
vt 0.479904 -0.425000
vt 0.479904 0.425000
vt -1.500000 0.500000
vt 0.479904 0.425000
vt -2.575000 -0.479904
vt -3.350000 -0.500000
vt -3.425000 -0.479904
vt 0.575000 -0.479904
vt -3.500000 0.650000
vt -3.500000 1.350000
vt 2.500000 -3.500000
vt 1.500000 -0.500000
vt 2.425000 -0.479904
vt 2.479904 -0.425000
vt -5.350000 -0.500000
vt -5.425000 -0.479904
vt -3.479904 -0.425000
vt 0.650000 -0.500000
vt -6.500000 0.500000
vt 0.479904 -6.425000
vt -0.479904 -6.425000
vt -7.500000 0.500000
vt -0.479904 -7.575000
vt 0.479904 -7.575000
vt -0.500000 -1.650000
vt 0.500000 -1.650000
vt 2.500000 1.500000
vt 2.500000 -2.650000
vt 0.520096 1.575000
vt 0.575000 1.520096
vt -0.425000 -3.479904
vt 2.425000 -5.479904
vt 2.479904 -5.425000
vt -0.479904 -8.425000
vt -0.425000 -8.479904
vt 0.425000 -8.479904
vt 0.479904 -8.425000
vt 0.500000 -0.500000
vt -0.500000 2.650000
vt 2.500000 2.350000
vt -5.479904 2.425000
vt -5.425000 2.479904
vt -0.479904 2.575000
vt -7.500000 1.500000
vt 0.500000 2.479904
vt -0.425000 2.520096
vt 0.500000 4.350000
vt 0.479904 4.425000
vt 0.350000 4.500000
vt 0.425000 4.479904
vt -0.350000 4.500000
vt 2.421732 -0.421732
vt 2.421732 -2.578268
vt -3.421732 -0.460495
vt -0.421732 -3.421732
vt -4.500000 0.479904
vt -0.421732 -4.578268
vt -0.421732 -4.539505
vt -4.520039 -0.350000
vt 0.421732 -8.421732
vt -3.500000 1.520096
vt -0.421732 4.421731
vt -0.421732 4.460495
vt -8.421732 4.421732
vt -8.421732 4.460495
vt -8.421732 4.421731
vt -8.350000 4.479960
vt -8.421732 4.460495
vt -8.479960 4.350000
vt 0.479904 -0.425000
vt -3.500000 1.575000
vt -0.479904 -7.500000
s 1
usemtl ClayMat_5
f 54/1/35 93/2/71 81/3/62
f 19/4/13 101/5/76 8/6/8
f 81/3/62 90/5/68 97/7/75
f 66/2/47 82/8/63 86/9/58
f 271/2/180 67/1/48 85/3/66
f 101/5/76 85/3/66 78/7/59
f 142/10/102 98/11/63 126/12/86
f 102/13/77 299/14/200 89/15/67
f 82/8/63 81/16/62 94/15/72
f 89/11/67 272/9/181 102/17/77
f 141/18/101 101/5/76 78/7/59
f 98/8/63 97/16/75 89/15/67
f 125/18/85 90/5/68 4/6/4
f 312/19/205 141/18/101 129/20/89
f 90/5/68 11/4/11 4/6/4
f 86/9/58 98/11/63 77/17/58
f 3/21/3 153/22/63 5/23/5
f 303/24/204 10/25/10 2/26/2
f 121/27/81 106/28/63 3/21/3
f 156/29/110 121/27/81 3/21/3
f 105/30/80 12/31/10 152/32/80
f 125/16/85 9/33/9 122/34/82
f 121/35/81 1/26/1 122/18/82
f 161/36/115 157/30/111 191/32/145
f 13/23/12 146/37/104 160/38/114
f 130/39/90 126/12/86 156/29/110
f 141/3/101 142/9/102 125/16/85
f 147/19/105 125/18/85 126/35/86
f 146/40/104 355/41/233 148/42/106
f 358/43/236 11/4/11 4/6/4
f 149/15/107 131/44/91 145/45/103
f 122/34/82 304/46/183 109/47/34
f 12/48/10 1/21/1 13/23/12
f 156/29/110 5/23/5 192/49/146
f 106/50/63 105/51/80 1/33/1
f 13/31/12 3/52/3 5/53/5
f 160/40/114 163/42/117 395/41/261
f 5/23/5 171/54/125 168/55/122
f 194/56/148 192/57/146 191/32/145
f 151/58/109 150/59/108 145/45/103
f 152/32/80 183/60/137 172/61/126
f 196/62/47 188/63/142 212/64/151
f 167/34/121 7/65/7 187/16/141
f 153/50/63 152/51/80 13/33/12
f 192/49/146 168/55/122 188/63/142
f 184/46/138 23/66/19 6/33/6
f 315/13/186 398/14/264 396/67/262
f 167/68/121 6/69/6 13/31/12
f 396/70/262 163/71/117 164/72/118
f 212/64/151 224/73/63 207/74/58
f 173/47/127 6/33/6 167/34/121
f 14/69/13 197/75/48 211/68/101
f 165/58/119 166/59/120 161/45/115
f 216/76/153 211/68/101 208/77/66
f 187/68/141 219/76/156 223/77/62
f 263/78/172 215/74/152 268/79/177
f 267/80/176 208/77/66 255/81/164
f 211/3/101 212/9/151 187/16/141
f 207/74/58 251/78/160 256/79/165
f 224/8/63 223/16/62 220/15/157
f 406/82/272 14/69/13 216/76/153
f 239/1/127 259/13/168 227/44/91
f 220/15/157 405/83/271 215/13/152
f 228/84/89 267/80/176 255/81/164
f 268/13/177 417/14/276 263/15/172
f 256/79/165 240/85/125 229/86/90
f 328/87/208 267/80/176 260/88/169
f 256/9/165 255/3/164 268/13/177
f 241/84/126 264/80/173 323/88/207
f 284/3/191 283/9/190 287/16/194
f 275/15/182 287/89/194 93/2/71
f 284/89/191 434/90/285 295/14/199
f 275/45/182 276/15/183 94/8/72
f 279/13/186 291/14/183 276/15/183
f 9/33/9 307/91/183 304/46/183
f 4/65/4 19/92/13 8/93/8
f 94/15/72 283/83/190 272/13/181
f 110/94/35 2/26/2 105/30/80
f 367/43/205 8/6/8 312/19/205
f 2/95/2 21/66/18 1/33/1
f 305/96/184 306/97/185 304/98/183
f 308/99/204 340/100/218 10/25/10
f 21/25/18 9/6/9 1/26/1
f 355/41/233 21/66/18 18/101/16
f 146/37/104 1/21/1 9/102/9
f 4/65/4 17/66/15 9/33/9
f 359/103/237 358/104/236 357/105/235
f 355/37/233 20/23/17 395/38/261
f 149/105/107 147/104/105 312/106/205
f 25/107/8 316/72/206 14/69/13
f 24/48/20 21/21/18 20/23/17
f 12/95/10 20/66/17 13/33/12
f 2/26/2 24/108/20 12/31/10
f 20/108/17 1/26/1 13/31/12
f 374/54/244 22/23/16 390/55/256
f 12/31/10 371/109/137 183/60/137
f 184/110/138 183/111/137 13/23/12
f 23/107/19 13/31/12 6/69/6
f 395/41/261 20/66/17 22/101/16
f 6/33/6 26/112/21 7/65/7
f 195/44/46 162/15/116 161/45/115
f 6/113/6 160/38/114 164/114/118
f 398/14/264 320/83/186 402/115/268
f 7/65/7 25/92/8 14/93/13
f 316/116/206 164/114/118 162/117/116
f 27/118/22 319/119/206 25/107/8
f 406/120/272 405/74/271 409/121/273
f 216/120/153 215/74/152 219/121/156
f 223/77/62 264/80/173 252/81/161
f 7/69/7 409/82/273 219/76/156
f 331/122/209 332/79/210 418/123/277
f 324/124/138 323/125/207 263/78/172
f 264/80/173 414/87/275 323/88/207
f 284/89/191 280/15/187 271/2/180
f 324/15/138 327/83/168 259/13/168
f 287/89/194 429/90/280 32/126/26
f 300/127/201 447/128/290 446/129/289
f 287/89/194 36/130/27 300/127/201
f 16/130/14 284/89/191 335/127/213
f 292/45/198 291/15/183 288/8/195
f 36/131/27 31/132/25 16/133/14
f 338/134/216 337/135/215 335/136/213
f 296/83/186 430/90/281 291/14/183
f 283/9/190 299/11/200 336/17/214
f 452/115/295 39/137/29 40/138/30
f 452/139/295 449/140/292 453/106/296
f 335/136/213 336/83/214 300/141/201
f 339/28/217 363/27/241 18/21/16
f 387/22/217 18/21/16 22/23/16
f 10/25/10 386/142/218 24/108/20
f 310/96/184 309/97/185 307/98/183
f 17/66/15 344/143/222 307/91/183
f 367/43/205 15/144/8 19/4/13
f 11/112/11 362/145/240 17/66/15
f 18/21/16 445/146/288 39/103/29
f 365/147/243 364/148/242 362/129/240
f 356/141/234 39/137/29 452/115/295
f 447/128/290 36/130/27 34/149/10
f 42/150/32 356/151/234 394/152/260
f 370/91/138 391/145/257 23/66/19
f 342/153/220 341/154/219 339/155/217
f 390/55/256 42/156/32 457/157/299
f 356/151/234 445/158/288 446/129/289
f 22/150/16 21/25/18 20/108/17
f 358/104/236 355/37/233 17/102/15
f 22/23/16 39/103/29 42/156/32
f 45/159/17 401/160/267 27/118/22
f 367/106/205 366/139/168 358/104/236
f 388/153/220 389/154/219 387/155/217
f 24/108/20 376/161/246 371/109/137
f 370/110/138 371/111/137 20/23/17
f 23/66/19 456/162/298 26/112/21
f 391/163/257 390/164/256 20/108/17
f 397/119/263 456/163/298 457/164/299
f 23/113/19 395/38/261 397/114/263
f 402/115/268 42/137/32 48/138/33
f 46/165/31 460/166/302 458/167/300
f 422/168/205 331/169/209 328/87/208
f 322/170/188 321/171/189 319/116/206
f 459/172/301 49/159/28 50/173/20
f 460/174/302 409/82/273 456/163/298
f 409/82/273 30/175/24 418/169/277
f 29/175/14 406/82/272 331/169/209
f 30/176/24 46/165/31 29/177/14
f 405/74/271 417/78/276 332/79/210
f 418/169/277 425/168/137 414/87/275
f 15/144/8 335/127/213 19/4/13
f 547/178/205 29/175/14 422/168/205
f 413/124/138 414/125/275 417/78/276
f 426/90/138 548/179/168 421/115/168
f 413/14/138 421/115/168 327/83/168
f 429/90/280 33/180/10 32/126/26
f 496/181/317 441/182/206 35/180/17
f 32/137/26 35/180/17 31/126/25
f 429/45/280 434/183/285 430/15/281
f 35/180/17 434/90/285 31/126/25
f 438/182/204 464/181/218 33/180/10
f 34/131/10 35/132/17 38/133/17
f 36/137/27 38/180/17 16/126/14
f 32/126/26 34/149/10 36/130/27
f 38/149/17 31/126/25 16/130/14
f 37/184/28 38/133/17 47/185/17
f 446/162/289 451/186/294 449/90/292
f 449/140/292 447/187/290 16/133/14
f 47/188/17 16/130/14 15/144/8
f 40/103/30 47/185/17 41/189/31
f 453/190/296 47/188/17 15/144/8
f 448/191/291 37/138/28 47/180/17
f 459/172/301 457/164/299 48/192/33
f 43/192/14 453/190/296 401/160/267
f 48/156/33 41/189/31 43/193/14
f 452/139/295 42/156/32 402/194/268
f 39/195/29 48/192/33 42/150/32
f 406/82/272 27/118/22 25/107/8
f 49/196/28 43/193/14 45/197/17
f 463/8/217 481/2/307 495/9/318
f 25/92/8 456/162/298 458/90/300
f 401/116/267 458/167/300 402/194/268
f 50/198/20 45/197/17 44/165/17
f 28/137/23 44/180/17 46/126/31
f 459/191/301 49/138/28 45/180/17
f 44/173/17 27/118/22 46/199/31
f 52/176/10 44/165/17 51/177/17
f 30/137/24 51/180/17 29/126/14
f 28/199/23 52/200/10 30/175/24
f 51/200/17 46/199/31 29/175/14
f 52/200/10 568/201/246 552/178/137
f 422/202/205 421/203/168 425/125/137
f 433/115/284 437/182/183 430/90/281
f 30/175/24 552/178/137 425/168/137
f 499/11/217 495/9/318 492/17/318
f 33/180/10 500/204/218 34/149/10
f 444/205/188 443/206/189 441/183/206
f 442/179/186 468/207/222 437/182/183
f 445/158/288 448/208/291 40/209/30
f 497/210/320 498/211/319 496/181/317
f 503/140/217 492/17/318 508/10/318
f 491/204/317 35/180/17 38/149/17
f 507/212/317 38/149/17 47/188/17
f 34/149/10 504/212/218 37/188/28
f 37/188/28 512/213/218 40/209/30
f 511/105/217 508/10/318 516/139/318
f 494/210/320 493/211/319 491/181/317
f 510/210/320 509/211/319 507/181/317
f 40/209/30 523/214/218 48/192/33
f 515/213/317 47/188/17 41/209/31
f 524/117/217 516/139/318 528/194/318
f 518/210/320 517/211/319 515/181/317
f 531/215/317 43/192/14 45/159/17
f 527/214/317 41/209/31 43/192/14
f 48/192/33 520/215/218 49/159/28
f 530/210/320 529/211/319 527/181/317
f 49/159/28 540/216/218 50/173/20
f 539/73/217 532/64/318 543/74/318
f 544/216/317 45/159/17 44/173/17
f 534/210/320 533/211/319 531/181/317
f 50/173/20 579/217/218 52/200/10
f 519/167/217 528/194/318 532/64/318
f 535/217/317 44/173/17 51/200/17
f 569/85/244 536/79/318 555/86/321
f 580/78/217 543/74/318 536/79/318
f 551/182/138 557/218/323 548/179/168
f 556/201/322 51/200/17 547/178/205
f 545/210/320 546/211/319 544/181/317
f 547/202/205 548/203/168 552/125/137
f 538/210/320 537/211/319 535/181/317
f 56/219/37 57/220/38 53/1/34
f 60/219/41 58/221/39 56/222/37
f 59/220/40 60/219/41 54/1/35
f 63/223/44 61/224/42 59/225/40
f 62/226/43 63/223/44 55/227/36
f 62/228/43 58/229/39 64/230/45
f 58/221/39 61/229/42 64/230/45
f 68/231/49 69/232/50 65/44/46
f 72/233/53 70/234/51 68/235/49
f 71/236/52 72/233/53 66/2/47
f 71/228/52 76/229/57 73/230/54
f 74/219/55 75/220/56 67/1/48
f 69/232/50 76/237/57 74/238/55
f 70/221/51 73/230/54 76/229/57
f 112/239/37 113/240/38 109/47/34
f 116/241/41 114/242/39 112/243/37
f 115/244/40 116/241/41 110/94/35
f 119/245/44 117/246/42 115/244/40
f 118/247/43 119/248/44 111/249/36
f 113/240/38 120/250/45 118/251/43
f 114/242/39 117/246/42 120/252/45
f 132/253/92 133/254/93 129/20/89
f 136/255/96 134/256/94 132/253/92
f 135/257/95 136/258/96 130/39/90
f 139/231/99 137/259/97 135/260/95
f 138/232/98 139/231/99 131/44/91
f 133/238/93 140/261/100 138/232/98
f 134/237/94 137/259/97 140/261/100
f 166/262/120 162/117/116 164/114/118
f 174/263/128 175/264/129 171/54/125
f 174/265/128 179/266/133 176/267/130
f 177/268/131 178/269/132 172/61/126
f 177/268/131 182/270/136 179/266/133
f 180/240/134 181/239/135 173/47/127
f 180/271/134 176/272/130 182/273/136
f 176/267/130 179/266/133 182/270/136
f 198/231/49 199/232/50 195/44/46
f 202/260/53 200/261/149 198/231/49
f 201/274/52 202/275/53 196/62/47
f 205/276/56 203/277/150 201/278/52
f 204/279/55 205/276/56 197/75/48
f 199/232/50 206/237/57 204/238/55
f 200/280/149 203/277/150 206/281/57
f 230/232/98 231/231/99 227/44/91
f 230/232/98 235/237/94 232/261/100
f 233/282/92 234/283/93 228/84/89
f 233/282/92 238/284/97 235/285/94
f 236/286/95 237/287/96 229/86/90
f 231/231/99 238/259/97 236/260/95
f 232/261/100 235/237/94 238/259/97
f 242/220/134 243/219/135 239/1/127
f 246/228/129 244/229/136 242/220/134
f 245/288/128 246/289/129 240/85/125
f 249/282/132 247/284/158 245/290/128
f 248/283/131 249/282/132 241/84/126
f 243/219/135 250/221/159 248/222/131
f 244/229/136 247/230/158 250/221/159
f 346/291/224 347/292/225 343/293/221
f 346/291/224 351/294/229 348/295/226
f 349/296/227 350/297/228 344/143/222
f 349/296/227 354/298/232 351/299/229
f 352/248/230 353/247/231 345/249/223
f 347/292/225 354/300/232 352/301/230
f 348/295/226 351/294/229 354/300/232
f 361/302/239 357/105/235 358/104/236
f 377/264/247 378/263/248 374/54/244
f 377/264/247 382/273/252 379/272/249
f 380/297/250 381/296/251 375/143/245
f 384/303/254 382/304/252 380/305/250
f 383/306/253 384/303/254 376/161/246
f 378/307/248 385/308/255 383/306/253
f 379/309/249 382/304/252 385/308/255
f 400/310/266 396/70/262 397/119/263
f 451/311/294 447/187/290 449/140/292
f 470/312/224 471/313/225 467/207/221
f 470/312/224 475/314/229 472/315/226
f 473/313/227 474/312/228 468/207/222
f 477/226/231 475/316/229 473/317/227
f 476/223/230 477/226/231 469/227/223
f 471/225/225 478/318/232 476/223/230
f 472/315/226 475/314/229 478/319/232
f 482/320/308 483/321/309 479/218/305
f 482/322/308 487/315/313 484/314/310
f 485/313/311 486/312/312 480/207/306
f 489/236/315 487/323/313 485/324/311
f 488/233/314 489/236/315 481/2/307
f 483/235/309 490/325/316 488/233/314
f 484/314/310 487/315/313 490/319/316
f 558/287/324 559/286/325 555/86/321
f 562/326/328 560/327/326 558/287/324
f 561/328/327 562/329/328 556/201/322
f 565/330/331 563/331/329 561/332/327
f 564/333/330 565/330/331 557/218/323
f 559/334/325 566/335/332 564/333/330
f 560/336/326 563/331/329 566/335/332
f 570/312/250 571/313/251 567/207/245
f 570/312/250 575/314/255 572/315/252
f 573/337/253 574/338/254 568/201/246
f 577/288/248 575/339/255 573/340/253
f 576/289/247 577/288/248 569/85/244
f 571/313/251 578/319/249 576/341/247
f 572/315/252 575/314/255 578/319/249
f 53/1/34 68/231/49 65/44/46
f 57/220/38 72/260/53 68/231/49
f 62/226/43 66/2/47 72/233/53
f 85/3/66 80/342/61 78/7/59
f 87/343/61 79/344/60 80/342/61
f 88/345/60 77/17/58 79/346/60
f 93/2/71 92/347/70 90/5/68
f 95/348/73 91/349/69 92/347/70
f 91/350/69 94/8/72 89/11/67
f 122/34/82 113/240/38 124/351/84
f 124/351/84 118/251/43 123/352/83
f 118/247/43 121/27/81 123/353/83
f 105/30/80 115/244/40 110/94/35
f 115/244/40 108/354/65 119/245/44
f 119/248/44 106/28/63 111/249/36
f 141/18/101 132/253/92 129/20/89
f 143/355/61 136/255/96 132/253/92
f 136/258/96 142/10/102 130/39/90
f 167/34/121 180/240/134 173/47/127
f 169/351/123 175/251/129 180/240/134
f 175/264/129 168/55/122 171/54/125
f 183/60/137 177/268/131 172/61/126
f 185/356/139 181/357/135 177/268/131
f 181/239/135 184/46/138 173/47/127
f 191/16/145 198/231/49 195/44/46
f 193/358/147 202/260/53 198/231/49
f 194/359/148 196/62/47 202/275/53
f 211/68/101 210/360/61 208/77/66
f 213/361/61 209/362/60 210/360/61
f 214/363/60 207/74/58 209/364/60
f 239/1/127 231/231/99 242/220/134
f 231/231/99 246/228/129 242/220/134
f 236/286/95 240/85/125 246/289/129
f 255/81/164 233/282/92 228/84/89
f 257/365/166 237/290/96 233/282/92
f 237/287/96 256/79/165 229/86/90
f 252/81/161 249/282/132 254/365/163
f 254/365/163 245/290/128 253/366/162
f 245/288/128 251/78/160 253/367/162
f 260/88/169 234/283/93 262/368/171
f 262/368/171 230/369/98 261/370/170
f 230/232/98 259/13/168 261/371/170
f 271/2/180 286/372/193 284/89/191
f 273/348/155 285/373/192 286/372/193
f 274/205/154 283/83/190 285/134/192
f 275/15/182 294/374/184 292/14/198
f 277/375/184 293/376/185 294/374/184
f 278/375/185 291/14/183 293/374/185
f 295/14/199 282/375/189 280/15/187
f 297/374/189 281/377/188 282/375/189
f 298/378/188 279/13/186 281/371/188
f 303/24/204 310/379/184 308/99/204
f 305/380/184 309/381/185 310/379/184
f 306/382/185 307/91/183 309/383/185
f 319/119/206 318/384/189 316/72/206
f 321/385/189 317/386/188 318/384/189
f 322/378/188 315/13/186 317/371/188
f 340/100/218 347/292/225 342/387/220
f 347/292/225 341/388/219 342/387/220
f 352/248/230 339/28/217 341/389/219
f 386/142/218 383/306/253 376/161/246
f 388/390/220 378/307/248 383/306/253
f 378/263/248 387/22/217 374/54/244
f 371/109/137 384/303/254 373/391/139
f 384/303/254 372/392/140 373/391/139
f 380/297/250 370/91/138 372/383/140
f 425/168/137 416/393/139 414/87/275
f 427/394/139 415/395/140 416/393/139
f 428/396/140 413/14/138 415/374/140
f 429/90/280 440/397/184 438/182/204
f 431/396/282 439/398/185 440/397/184
f 432/396/283 437/182/183 439/397/185
f 441/182/206 436/396/287 434/90/285
f 443/397/189 435/399/286 436/396/287
f 444/400/188 433/115/284 435/401/286
f 464/181/218 471/313/225 466/402/220
f 471/313/225 465/403/219 466/402/220
f 476/223/230 463/8/217 465/404/219
f 479/218/305 473/313/227 468/207/222
f 483/235/309 477/226/231 473/317/227
f 488/233/314 469/227/223 477/226/231
f 491/204/317 498/402/319 496/181/317
f 493/405/319 497/403/320 498/402/319
f 494/346/320 495/9/318 497/345/320
f 523/214/218 522/406/220 520/215/218
f 525/407/220 521/408/219 522/406/220
f 526/409/219 519/167/217 521/410/219
f 535/217/317 546/411/319 544/216/317
f 537/412/319 545/413/320 546/411/319
f 538/414/320 543/74/318 545/364/320
f 557/218/323 571/313/251 564/333/330
f 571/313/251 559/334/325 564/333/330
f 576/289/247 555/86/321 559/286/325
f 579/217/218 573/337/253 568/201/246
f 581/415/220 577/288/248 573/340/253
f 577/288/248 580/78/217 569/85/244
f 547/178/205 561/328/327 556/201/322
f 549/416/171 565/330/331 561/332/327
f 565/330/331 548/179/168 557/218/323
f 552/178/137 574/338/254 554/417/139
f 574/338/254 553/418/140 554/417/139
f 570/312/250 551/182/138 553/397/140
f 85/3/66 75/220/56 87/343/61
f 75/220/56 88/419/60 87/343/61
f 71/236/52 86/9/58 88/345/60
f 81/3/62 59/220/40 54/1/35
f 83/343/64 63/228/44 59/220/40
f 63/223/44 82/8/63 55/227/36
f 275/15/182 60/219/41 277/375/184
f 60/219/41 278/377/185 277/375/184
f 56/219/37 276/15/183 278/375/185
f 280/15/187 74/219/55 67/1/48
f 282/375/189 69/222/50 74/219/55
f 69/232/50 279/13/186 65/44/46
f 97/7/75 83/343/64 81/3/62
f 99/342/64 84/419/65 83/343/64
f 100/420/65 82/8/63 84/404/65
f 101/5/76 273/348/155 271/2/180
f 103/347/78 274/421/154 273/348/155
f 104/422/79 272/9/181 274/423/154
f 78/7/59 143/355/61 141/18/101
f 80/342/61 144/424/60 143/355/61
f 79/346/60 142/10/102 144/425/60
f 125/18/85 99/342/64 97/7/75
f 127/426/87 100/344/65 99/342/64
f 128/427/88 98/11/63 100/420/65
f 303/24/204 116/241/41 305/380/184
f 116/241/41 306/428/185 305/380/184
f 112/239/37 304/46/183 306/382/185
f 125/16/85 124/351/84 127/429/87
f 127/429/87 123/352/83 128/430/88
f 128/427/88 121/27/81 126/12/86
f 157/16/111 139/231/99 159/431/113
f 159/432/113 135/257/95 158/433/112
f 158/433/112 130/39/90 156/29/110
f 312/19/205 133/254/93 314/434/171
f 314/435/171 138/232/98 313/371/170
f 138/232/98 311/13/168 313/371/170
f 152/32/80 107/436/64 105/30/80
f 154/437/64 108/354/65 107/436/64
f 155/438/65 106/28/63 108/389/65
f 157/30/111 193/439/147 191/32/145
f 159/432/113 194/359/148 193/440/147
f 194/359/148 156/29/110 192/49/146
f 161/36/115 150/441/108 145/442/103
f 166/443/120 151/444/109 150/441/108
f 165/445/119 146/37/104 151/446/109
f 152/32/80 178/269/132 154/437/64
f 178/269/132 155/447/65 154/437/64
f 174/263/128 153/22/63 155/438/65
f 187/16/141 169/351/123 167/34/121
f 189/448/143 170/449/124 169/450/123
f 190/451/144 168/55/122 170/449/124
f 211/68/101 205/276/56 213/361/61
f 213/361/61 201/278/52 214/452/60
f 201/274/52 212/64/151 214/363/60
f 316/72/206 204/279/55 197/75/48
f 318/435/189 199/232/50 204/238/55
f 199/232/50 315/13/186 195/44/46
f 187/68/141 225/360/64 189/453/143
f 189/448/143 226/454/65 190/451/144
f 190/451/144 224/73/63 188/63/142
f 208/77/66 257/365/166 255/81/164
f 210/360/61 258/366/167 257/365/166
f 209/364/60 256/79/165 258/414/167
f 252/81/161 225/360/64 223/77/62
f 254/365/163 226/362/65 225/360/64
f 253/367/162 224/73/63 226/454/65
f 267/80/176 218/455/155 216/76/153
f 269/456/178 217/457/154 218/455/155
f 270/458/179 215/74/152 217/459/154
f 219/76/156 266/456/175 264/80/173
f 221/455/73 265/460/174 266/456/175
f 222/461/74 263/78/172 265/462/174
f 323/88/207 248/283/131 241/84/126
f 325/377/139 243/219/135 248/222/131
f 243/219/135 324/15/138 239/1/127
f 93/2/71 289/372/196 95/348/73
f 289/372/196 96/421/74 95/348/73
f 96/463/74 288/14/195 94/15/72
f 90/5/68 302/464/203 300/127/201
f 302/465/203 91/466/69 301/467/202
f 91/466/69 299/14/200 301/467/202
f 335/127/213 103/347/78 101/5/76
f 337/135/215 104/468/79 103/469/78
f 338/134/216 102/13/77 104/468/79
f 312/19/205 369/470/171 367/43/205
f 314/435/171 368/378/170 369/471/171
f 313/371/170 366/83/168 368/378/170
f 371/109/137 185/356/139 183/60/137
f 373/391/139 186/472/140 185/356/139
f 372/383/140 184/46/138 186/382/140
f 216/76/153 408/473/193 406/82/272
f 218/455/155 407/474/192 408/473/193
f 217/475/154 405/83/271 407/476/192
f 409/82/273 221/455/73 219/76/156
f 411/477/196 222/457/74 221/455/73
f 412/478/197 220/15/157 222/479/74
f 260/88/169 330/393/171 328/87/208
f 262/368/171 329/395/170 330/393/171
f 261/371/170 327/83/168 329/378/170
f 414/87/275 325/368/139 323/88/207
f 416/393/139 326/370/140 325/368/139
f 415/374/140 324/15/138 326/375/140
f 264/80/173 420/480/279 418/169/277
f 266/456/175 419/481/278 420/480/279
f 265/479/174 417/14/276 419/478/278
f 331/169/209 269/456/178 267/80/176
f 333/482/211 270/460/179 269/456/178
f 270/475/179 332/83/210 268/13/177
f 292/14/198 431/396/282 429/90/280
f 294/374/184 432/399/283 431/396/282
f 293/374/185 430/90/281 432/396/283
f 434/90/285 297/374/189 295/14/199
f 436/396/287 298/376/188 297/374/189
f 435/401/286 296/83/186 298/378/188
f 284/89/191 337/464/215 335/127/213
f 286/483/193 338/422/216 337/484/215
f 285/485/192 336/17/214 338/422/216
f 300/127/201 289/372/196 287/89/194
f 302/486/203 290/487/197 289/488/196
f 301/350/202 288/8/195 290/487/197
f 362/145/240 349/296/227 344/143/222
f 364/489/242 353/490/231 349/296/227
f 353/247/231 363/27/241 345/249/223
f 308/99/204 346/291/224 343/293/221
f 310/379/184 350/491/228 346/291/224
f 350/297/228 307/91/183 344/143/222
f 446/162/289 364/489/242 362/145/240
f 451/186/294 365/492/243 364/489/242
f 450/493/293 363/27/241 365/353/243
f 367/43/205 455/494/297 453/190/296
f 369/471/171 454/495/192 455/496/297
f 368/378/170 452/115/295 454/495/192
f 340/100/218 388/390/220 386/142/218
f 342/387/220 389/497/219 388/390/220
f 341/389/219 387/22/217 389/438/219
f 356/151/234 399/498/265 394/152/260
f 361/302/239 400/445/266 399/262/265
f 360/446/238 395/38/261 400/445/266
f 391/145/257 381/296/251 393/489/259
f 381/271/251 392/449/258 393/450/259
f 377/264/247 390/55/256 392/449/258
f 391/145/257 461/186/303 456/162/298
f 393/450/259 462/499/304 461/500/303
f 392/449/258 457/157/299 462/499/304
f 319/119/206 403/501/269 321/385/189
f 321/385/189 404/502/270 322/503/188
f 322/378/188 402/115/268 320/83/186
f 406/82/272 333/482/211 331/169/209
f 408/473/193 334/481/212 333/482/211
f 407/459/192 332/79/210 334/458/212
f 418/169/277 411/477/196 409/82/273
f 420/480/279 412/474/197 411/477/196
f 419/462/278 410/73/274 412/461/197
f 328/87/208 424/394/171 422/168/205
f 330/393/171 423/504/170 424/394/171
f 329/378/170 421/115/168 423/401/170
f 453/190/296 403/501/269 401/160/267
f 455/505/297 404/170/270 403/171/269
f 404/170/270 452/139/295 402/194/268
f 422/168/205 549/417/171 547/178/205
f 424/394/171 550/418/170 549/417/171
f 423/401/170 548/179/168 550/400/170
f 552/178/137 427/394/139 425/168/137
f 554/417/139 428/504/140 427/394/139
f 553/397/140 426/90/138 428/396/140
f 496/181/317 485/313/311 480/207/306
f 498/506/319 489/236/315 485/324/311
f 489/236/315 495/9/318 481/2/307
f 438/182/204 470/312/224 467/207/221
f 440/397/184 474/322/228 470/312/224
f 474/312/228 437/182/183 468/207/222
f 441/182/206 486/312/312 443/397/189
f 486/312/312 444/398/188 443/397/189
f 482/320/308 442/179/186 444/400/188
f 464/181/218 502/405/220 500/204/218
f 466/402/220 501/507/219 502/405/220
f 465/404/219 499/11/217 501/420/219
f 507/212/317 493/405/319 491/204/317
f 509/508/319 494/507/320 493/405/319
f 510/425/320 492/17/318 494/346/320
f 500/204/218 506/508/220 504/212/218
f 502/405/220 505/509/219 506/508/220
f 501/420/219 503/140/217 505/510/219
f 515/213/317 509/508/319 507/212/317
f 517/511/319 510/509/320 509/508/319
f 518/512/320 508/10/318 510/425/320
f 504/212/218 514/511/220 512/213/218
f 506/508/220 513/513/219 514/511/220
f 505/510/219 511/105/217 513/514/219
f 527/214/317 517/511/319 515/213/317
f 529/407/319 518/513/320 517/511/319
f 530/515/320 516/139/318 518/512/320
f 512/213/218 525/407/220 523/214/218
f 514/511/220 526/516/219 525/407/220
f 513/514/219 524/117/217 526/409/219
f 531/215/317 529/407/319 527/214/317
f 533/406/319 530/516/320 529/407/319
f 534/363/320 528/194/318 530/515/320
f 544/216/317 533/406/319 531/215/317
f 546/411/319 534/408/320 533/406/319
f 545/364/320 532/64/318 534/363/320
f 520/215/218 542/411/220 540/216/218
f 522/406/220 541/413/219 542/411/220
f 521/410/219 539/73/217 541/454/219
f 540/216/218 581/412/220 579/217/218
f 542/411/220 582/517/219 581/412/220
f 541/454/219 580/78/217 582/367/219
f 535/217/317 562/329/328 537/412/319
f 537/412/319 558/518/324 538/517/320
f 558/287/324 536/79/318 538/414/320
f 65/44/46 276/15/183 53/1/34
f 54/1/35 275/15/182 93/2/71
f 19/4/13 335/127/213 101/5/76
f 81/3/62 93/2/71 90/5/68
f 66/2/47 55/227/36 82/8/63
f 271/2/180 280/15/187 67/1/48
f 101/5/76 271/2/180 85/3/66
f 142/10/102 77/17/58 98/11/63
f 102/13/77 336/83/214 299/14/200
f 271/2/180 85/3/66 272/93/181
f 85/3/66 87/519/61 86/9/58
f 87/519/61 88/423/60 86/9/58
f 86/9/58 82/8/63 272/13/181
f 82/8/63 84/430/65 81/16/62
f 84/430/65 83/520/64 81/16/62
f 81/3/62 93/2/71 94/93/72
f 93/45/71 95/521/73 96/463/74
f 94/15/72 93/45/71 96/463/74
f 94/15/72 272/13/181 82/8/63
f 272/13/181 274/205/154 271/183/180
f 274/205/154 273/206/155 271/183/180
f 85/3/66 86/9/58 272/13/181
f 89/11/67 94/8/72 272/9/181
f 141/18/101 8/6/8 101/5/76
f 101/5/76 78/7/59 102/522/77
f 78/3/59 80/519/61 77/9/58
f 80/519/61 79/423/60 77/9/58
f 77/9/58 98/8/63 102/13/77
f 98/8/63 100/430/65 97/16/75
f 100/430/65 99/520/64 97/16/75
f 97/7/75 90/5/68 89/522/67
f 90/45/68 92/523/70 91/466/69
f 89/15/67 90/45/68 91/466/69
f 89/15/67 102/13/77 98/8/63
f 102/13/77 104/468/79 101/183/76
f 104/468/79 103/469/78 101/183/76
f 78/3/59 77/9/58 102/13/77
f 125/18/85 97/7/75 90/5/68
f 312/19/205 8/6/8 141/18/101
f 90/5/68 300/127/201 11/4/11
f 86/9/58 82/8/63 98/11/63
f 3/21/3 106/28/63 153/22/63
f 303/24/204 308/99/204 10/25/10
f 121/27/81 111/249/36 106/28/63
f 156/29/110 126/12/86 121/27/81
f 105/30/80 2/26/2 12/31/10
f 125/16/85 4/65/4 9/33/9
f 121/35/81 3/52/3 1/26/1
f 1/26/1 9/6/9 122/18/82
f 122/18/82 124/426/84 123/524/83
f 123/524/83 121/35/81 122/18/82
f 161/36/115 145/442/103 157/30/111
f 13/23/12 1/21/1 146/37/104
f 130/39/90 142/10/102 126/12/86
f 8/93/8 141/3/101 125/16/85
f 141/3/101 143/519/61 144/423/60
f 142/9/102 141/3/101 144/423/60
f 142/10/102 126/12/86 125/184/85
f 126/35/86 128/524/88 127/426/87
f 125/16/85 126/8/86 127/429/87
f 125/16/85 4/65/4 8/93/8
f 126/35/86 156/525/110 147/19/105
f 156/525/110 158/526/112 157/30/111
f 158/527/112 159/431/113 157/16/111
f 145/442/103 149/26/107 147/19/105
f 149/105/107 148/103/106 147/104/105
f 157/30/111 145/442/103 156/525/110
f 128/524/88 126/35/86 125/18/85
f 125/16/85 127/429/87 128/430/88
f 147/19/105 4/6/4 125/18/85
f 156/525/110 145/442/103 147/19/105
f 148/528/106 147/19/105 146/26/104
f 146/40/104 1/33/1 21/66/18
f 21/66/18 355/41/233 146/40/104
f 355/41/233 359/67/237 148/42/106
f 4/6/4 147/19/105 358/43/236
f 147/19/105 148/528/106 358/43/236
f 148/528/106 359/529/237 358/43/236
f 311/13/168 131/44/91 149/15/107
f 131/44/91 157/16/111 145/45/103
f 122/34/82 9/33/9 304/46/183
f 12/48/10 2/530/2 1/21/1
f 156/29/110 3/21/3 5/23/5
f 1/33/1 3/531/3 106/50/63
f 106/50/63 108/532/65 107/533/64
f 107/533/64 105/51/80 106/50/63
f 105/51/80 2/95/2 1/33/1
f 13/31/12 1/26/1 3/52/3
f 20/66/17 13/33/12 160/40/114
f 160/31/114 164/72/118 163/71/117
f 163/42/117 396/67/262 395/41/261
f 395/41/261 20/66/17 160/40/114
f 5/23/5 153/22/63 171/54/125
f 192/57/146 188/534/142 164/72/118
f 188/534/142 190/535/144 187/68/141
f 192/57/146 164/72/118 161/36/115
f 190/535/144 189/453/143 187/68/141
f 187/68/141 7/69/7 164/72/118
f 164/114/118 163/156/117 162/117/116
f 161/36/115 191/32/145 192/57/146
f 191/32/145 193/439/147 194/56/148
f 164/72/118 162/31/116 161/36/115
f 187/68/141 164/72/118 188/534/142
f 145/45/103 157/16/111 146/40/104
f 157/30/111 159/536/113 156/525/110
f 159/536/113 158/526/112 156/525/110
f 156/537/110 3/531/3 146/40/104
f 3/531/3 1/33/1 146/40/104
f 146/40/104 151/58/109 145/45/103
f 156/537/110 146/40/104 157/16/111
f 152/32/80 12/31/10 183/60/137
f 196/62/47 192/49/146 188/63/142
f 167/34/121 6/33/6 7/65/7
f 13/33/12 5/531/5 153/50/63
f 153/50/63 155/532/65 154/533/64
f 154/533/64 152/51/80 153/50/63
f 152/51/80 12/95/10 13/33/12
f 192/49/146 5/23/5 168/55/122
f 184/46/138 370/91/138 23/66/19
f 396/67/262 163/42/117 162/15/116
f 162/15/116 315/13/186 396/67/262
f 315/13/186 320/83/186 398/14/264
f 398/117/264 397/114/263 396/156/262
f 5/53/5 168/534/122 13/31/12
f 168/534/122 170/535/124 167/68/121
f 13/31/12 168/534/122 167/68/121
f 170/535/124 169/453/123 167/68/121
f 164/72/118 7/69/7 26/107/21
f 26/107/21 397/119/263 164/72/118
f 397/119/263 396/70/262 164/72/118
f 212/64/151 188/63/142 224/73/63
f 173/47/127 184/46/138 6/33/6
f 14/69/13 316/72/206 197/75/48
f 161/45/115 191/16/145 160/40/114
f 191/32/145 193/439/147 192/57/146
f 193/439/147 194/56/148 192/57/146
f 192/537/146 5/531/5 160/40/114
f 5/531/5 13/33/12 160/40/114
f 160/40/114 165/58/119 161/45/115
f 192/537/146 160/40/114 191/16/145
f 216/76/153 14/69/13 211/68/101
f 187/68/141 7/69/7 219/76/156
f 263/78/172 220/73/157 215/74/152
f 267/80/176 216/76/153 208/77/66
f 14/93/13 211/3/101 187/16/141
f 211/3/101 213/519/61 214/423/60
f 212/9/151 211/3/101 214/423/60
f 212/64/151 188/63/142 187/196/141
f 188/534/142 190/535/144 189/453/143
f 187/68/141 188/534/142 189/453/143
f 187/16/141 7/65/7 14/93/13
f 207/74/58 224/73/63 251/78/160
f 216/76/153 208/77/66 215/538/152
f 208/3/66 210/519/61 207/9/58
f 210/519/61 209/423/60 207/9/58
f 207/9/58 224/8/63 215/13/152
f 224/8/63 226/430/65 223/16/62
f 226/430/65 225/520/64 223/16/62
f 223/77/62 219/76/156 220/538/157
f 219/121/156 221/539/73 222/461/74
f 220/73/157 219/121/156 222/461/74
f 220/15/157 215/13/152 224/8/63
f 215/74/152 217/459/154 216/120/153
f 217/459/154 218/540/155 216/120/153
f 208/3/66 207/9/58 215/13/152
f 406/82/272 25/107/8 14/69/13
f 239/1/127 324/15/138 259/13/168
f 220/15/157 410/14/274 405/83/271
f 228/84/89 260/88/169 267/80/176
f 268/13/177 332/83/210 417/14/276
f 256/79/165 251/78/160 240/85/125
f 328/87/208 331/169/209 267/80/176
f 264/80/173 252/81/161 263/541/172
f 252/16/161 254/520/163 251/8/160
f 254/520/163 253/430/162 251/8/160
f 251/8/160 256/9/165 263/15/172
f 256/9/165 258/423/167 255/3/164
f 258/423/167 257/519/166 255/3/164
f 255/81/164 267/80/176 268/541/177
f 267/122/176 269/542/178 270/458/179
f 268/79/177 267/122/176 270/458/179
f 268/13/177 263/15/172 256/9/165
f 263/78/172 265/462/174 264/123/173
f 265/462/174 266/543/175 264/123/173
f 252/16/161 251/8/160 263/15/172
f 241/84/126 252/81/161 264/80/173
f 31/126/25 284/136/191 287/141/194
f 284/3/191 286/483/193 285/485/192
f 283/9/190 284/3/191 285/485/192
f 283/9/190 288/8/195 287/16/194
f 288/8/195 290/487/197 287/16/194
f 290/487/197 289/488/196 287/16/194
f 287/141/194 32/137/26 31/126/25
f 275/15/182 292/14/198 287/89/194
f 284/89/191 31/126/25 434/90/285
f 280/15/187 271/2/180 272/93/181
f 272/9/181 94/8/72 279/13/186
f 93/2/71 275/15/182 94/93/72
f 275/45/182 277/521/184 276/15/183
f 277/521/184 278/463/185 276/15/183
f 276/15/183 279/13/186 94/8/72
f 279/13/186 281/205/188 280/183/187
f 281/205/188 282/206/189 280/183/187
f 272/9/181 279/13/186 280/183/187
f 279/13/186 296/83/186 291/14/183
f 9/33/9 17/66/15 307/91/183
f 4/65/4 11/112/11 19/92/13
f 101/544/76 8/185/8 4/184/4
f 4/184/4 90/545/68 101/544/76
f 101/183/76 90/45/68 89/15/67
f 89/15/67 102/13/77 101/183/76
f 94/15/72 288/14/195 283/83/190
f 110/94/35 303/24/204 2/26/2
f 367/43/205 19/4/13 8/6/8
f 2/95/2 10/546/10 21/66/18
f 9/102/9 1/21/1 304/98/183
f 1/21/1 2/530/2 303/547/204
f 304/98/183 1/21/1 303/547/204
f 303/547/204 305/96/184 304/98/183
f 308/99/204 343/293/221 340/100/218
f 21/25/18 17/4/15 9/6/9
f 39/137/29 356/141/234 18/101/16
f 356/141/234 361/548/239 355/41/233
f 18/101/16 356/141/234 355/41/233
f 361/548/239 360/549/238 355/41/233
f 4/184/4 147/104/105 9/102/9
f 147/104/105 146/37/104 9/102/9
f 4/65/4 11/112/11 17/66/15
f 366/83/168 311/13/168 357/14/235
f 311/13/168 149/15/107 359/67/237
f 357/14/235 311/13/168 359/67/237
f 149/15/107 148/42/106 359/67/237
f 355/37/233 21/21/18 20/23/17
f 8/185/8 312/106/205 147/104/105
f 312/106/205 314/505/171 311/139/168
f 8/185/8 147/104/105 4/184/4
f 314/505/171 313/550/170 311/139/168
f 311/139/168 149/105/107 312/106/205
f 25/107/8 319/119/206 316/72/206
f 24/48/20 10/530/10 21/21/18
f 12/95/10 24/546/20 20/66/17
f 2/26/2 10/25/10 24/108/20
f 20/108/17 21/25/18 1/26/1
f 374/54/244 387/22/217 22/23/16
f 12/31/10 24/108/20 371/109/137
f 13/23/12 6/113/6 184/110/138
f 184/110/138 186/551/140 185/552/139
f 185/552/139 183/111/137 184/110/138
f 183/111/137 12/48/10 13/23/12
f 23/107/19 20/108/17 13/31/12
f 42/137/32 394/141/260 22/101/16
f 394/141/260 399/548/265 395/41/261
f 22/101/16 394/141/260 395/41/261
f 399/548/265 400/549/266 395/41/261
f 6/33/6 23/66/19 26/112/21
f 161/45/115 191/16/145 195/44/46
f 195/44/46 315/13/186 162/15/116
f 164/114/118 7/196/7 6/113/6
f 6/113/6 13/23/12 160/38/114
f 42/137/32 394/141/260 402/115/268
f 394/141/260 398/14/264 402/115/268
f 7/65/7 26/112/21 25/92/8
f 316/116/206 14/197/13 164/114/118
f 14/197/13 7/196/7 164/114/118
f 317/170/188 318/171/189 316/116/206
f 162/117/116 315/194/186 316/116/206
f 315/194/186 317/170/188 316/116/206
f 27/118/22 401/160/267 319/119/206
f 46/126/31 406/136/272 409/141/273
f 406/120/272 408/540/193 407/459/192
f 405/74/271 406/120/272 407/459/192
f 405/74/271 410/73/274 409/121/273
f 410/73/274 412/461/197 409/121/273
f 412/461/197 411/539/196 409/121/273
f 409/141/273 28/137/23 46/126/31
f 14/197/13 216/120/153 219/121/156
f 215/74/152 220/73/157 219/121/156
f 219/121/156 7/196/7 14/197/13
f 223/77/62 219/76/156 264/80/173
f 7/69/7 26/107/21 409/82/273
f 29/126/14 331/136/209 418/141/277
f 331/122/209 333/542/211 334/458/212
f 332/79/210 331/122/209 334/458/212
f 332/79/210 417/78/276 418/123/277
f 417/78/276 419/462/278 418/123/277
f 419/462/278 420/543/279 418/123/277
f 418/141/277 30/137/24 29/126/14
f 267/80/176 260/88/169 268/541/177
f 260/202/169 262/553/171 259/203/168
f 262/553/171 261/554/170 259/203/168
f 259/203/168 324/124/138 268/79/177
f 324/124/138 326/555/140 323/125/207
f 326/555/140 325/556/139 323/125/207
f 323/88/207 264/80/173 263/541/172
f 263/78/172 268/79/177 324/124/138
f 260/202/169 259/203/168 268/79/177
f 264/80/173 418/169/277 414/87/275
f 284/89/191 295/14/199 280/15/187
f 324/15/138 413/14/138 327/83/168
f 287/89/194 292/14/198 429/90/280
f 446/129/289 11/4/11 300/127/201
f 300/127/201 36/130/27 447/128/290
f 287/89/194 32/126/26 36/130/27
f 16/130/14 31/126/25 284/89/191
f 295/14/199 284/89/191 283/92/190
f 283/9/190 288/8/195 296/13/186
f 287/89/194 292/14/198 288/92/195
f 292/45/198 294/521/184 291/15/183
f 294/521/184 293/463/185 291/15/183
f 291/15/183 296/13/186 288/8/195
f 296/13/186 298/205/188 295/183/199
f 298/205/188 297/206/189 295/183/199
f 283/9/190 296/13/186 295/183/199
f 36/131/27 32/557/26 31/132/25
f 335/544/213 19/185/13 11/184/11
f 11/184/11 300/545/201 335/544/213
f 300/141/201 302/465/203 301/467/202
f 335/136/213 300/141/201 299/14/200
f 301/467/202 299/14/200 300/141/201
f 299/14/200 336/83/214 335/136/213
f 336/83/214 338/134/216 335/136/213
f 296/83/186 433/115/284 430/90/281
f 283/9/190 288/8/195 299/11/200
f 41/180/31 453/558/296 40/138/30
f 453/558/296 455/496/297 452/115/295
f 40/138/30 453/558/296 452/115/295
f 455/496/297 454/495/192 452/115/295
f 15/185/8 453/106/296 449/140/292
f 452/139/295 39/103/29 445/146/288
f 445/146/288 449/140/292 452/139/295
f 16/126/14 335/136/213 300/141/201
f 336/83/214 299/14/200 300/141/201
f 300/141/201 36/137/27 16/126/14
f 339/28/217 345/249/223 363/27/241
f 387/22/217 339/28/217 18/21/16
f 10/25/10 340/100/218 386/142/218
f 17/102/15 21/21/18 307/98/183
f 21/21/18 10/530/10 308/547/204
f 307/98/183 21/21/18 308/547/204
f 308/547/204 310/96/184 307/98/183
f 17/66/15 362/145/240 344/143/222
f 367/43/205 453/190/296 15/144/8
f 11/112/11 446/162/289 362/145/240
f 18/21/16 363/27/241 445/146/288
f 17/4/15 21/25/18 362/129/240
f 21/25/18 18/195/16 363/158/241
f 362/129/240 21/25/18 363/158/241
f 363/158/241 365/147/243 362/129/240
f 452/115/295 366/83/168 357/14/235
f 357/14/235 356/141/234 452/115/295
f 37/188/28 448/208/291 34/149/10
f 448/208/291 447/128/290 34/149/10
f 42/150/32 39/195/29 356/151/234
f 370/91/138 375/143/245 391/145/257
f 18/101/16 21/66/18 339/155/217
f 21/66/18 10/546/10 340/559/218
f 339/155/217 21/66/18 340/559/218
f 340/559/218 342/153/220 339/155/217
f 390/55/256 22/23/16 42/156/32
f 358/104/236 357/105/235 356/103/234
f 356/151/234 39/195/29 445/158/288
f 445/158/288 450/147/293 451/148/294
f 451/148/294 446/129/289 445/158/288
f 446/129/289 11/4/11 358/43/236
f 356/151/234 446/129/289 358/43/236
f 22/150/16 18/195/16 21/25/18
f 358/43/236 359/529/237 355/25/233
f 355/37/233 21/21/18 17/102/15
f 17/102/15 11/184/11 358/104/236
f 22/23/16 18/21/16 39/103/29
f 45/159/17 43/192/14 401/160/267
f 19/185/13 367/106/205 358/104/236
f 367/106/205 369/505/171 366/139/168
f 369/505/171 368/550/170 366/139/168
f 366/139/168 357/105/235 358/104/236
f 358/104/236 11/184/11 19/185/13
f 22/101/16 20/66/17 387/155/217
f 20/66/17 24/546/20 386/559/218
f 387/155/217 20/66/17 386/559/218
f 386/559/218 388/153/220 387/155/217
f 24/108/20 386/142/218 376/161/246
f 20/23/17 23/113/19 370/110/138
f 370/110/138 372/551/140 373/552/139
f 373/552/139 371/111/137 370/110/138
f 371/111/137 24/48/20 20/23/17
f 23/66/19 391/145/257 456/162/298
f 20/108/17 23/107/19 391/163/257
f 391/163/257 393/560/259 392/561/258
f 392/561/258 390/164/256 391/163/257
f 390/164/256 22/150/16 20/108/17
f 397/119/263 26/107/21 456/163/298
f 456/163/298 461/560/303 462/561/304
f 462/561/304 457/164/299 456/163/298
f 457/164/299 42/150/32 394/152/260
f 394/156/260 398/117/264 397/114/263
f 457/164/299 394/152/260 397/119/263
f 397/114/263 26/196/21 23/113/19
f 23/113/19 20/23/17 395/38/261
f 395/108/261 396/70/262 397/119/263
f 43/180/14 401/558/267 48/138/33
f 401/558/267 403/562/269 402/115/268
f 48/138/33 401/558/267 402/115/268
f 403/171/269 404/170/270 402/194/268
f 27/197/22 46/165/31 458/167/300
f 46/165/31 28/198/23 460/166/302
f 460/174/302 459/172/301 458/118/300
f 422/168/205 29/175/14 331/169/209
f 319/116/206 25/197/8 26/196/21
f 26/196/21 397/114/263 319/116/206
f 397/114/263 398/117/264 319/116/206
f 398/117/264 320/194/186 319/116/206
f 320/194/186 322/170/188 319/116/206
f 50/173/20 28/199/23 460/174/302
f 460/174/302 459/172/301 50/173/20
f 28/199/23 409/82/273 460/174/302
f 409/82/273 26/107/21 456/163/298
f 409/82/273 28/199/23 30/175/24
f 25/197/8 406/120/272 409/121/273
f 409/121/273 26/196/21 25/197/8
f 29/175/14 46/199/31 406/82/272
f 30/176/24 28/198/23 46/165/31
f 405/74/271 410/73/274 417/78/276
f 418/169/277 30/175/24 425/168/137
f 15/144/8 16/130/14 335/127/213
f 547/178/205 51/200/17 29/175/14
f 331/169/209 328/87/208 332/563/210
f 328/202/208 330/553/171 327/203/168
f 330/553/171 329/554/170 327/203/168
f 327/203/168 413/124/138 332/79/210
f 413/124/138 415/555/140 414/125/275
f 415/555/140 416/556/139 414/125/275
f 414/87/275 418/169/277 417/563/276
f 417/78/276 332/79/210 413/124/138
f 328/202/208 327/203/168 332/79/210
f 426/90/138 551/182/138 548/179/168
f 413/14/138 426/90/138 421/115/168
f 429/90/280 438/182/204 33/180/10
f 496/181/317 480/207/306 441/182/206
f 32/137/26 33/138/10 35/180/17
f 32/557/26 31/132/25 434/183/285
f 434/183/285 436/206/287 435/205/286
f 435/205/286 433/13/284 434/183/285
f 433/13/284 430/15/281 434/183/285
f 430/15/281 432/463/283 431/521/282
f 431/521/282 429/45/280 430/15/281
f 429/45/280 32/557/26 434/183/285
f 35/180/17 441/182/206 434/90/285
f 438/182/204 467/207/221 464/181/218
f 34/131/10 33/557/10 35/132/17
f 36/137/27 34/138/10 38/180/17
f 32/126/26 33/180/10 34/149/10
f 38/149/17 35/180/17 31/126/25
f 37/184/28 34/131/10 38/133/17
f 15/126/8 19/92/13 449/90/292
f 19/92/13 11/112/11 446/162/289
f 19/92/13 446/162/289 449/90/292
f 450/493/293 445/146/288 449/140/292
f 451/186/294 450/564/293 449/90/292
f 16/133/14 15/185/8 449/140/292
f 449/144/292 448/208/291 447/128/290
f 447/187/290 36/131/27 16/133/14
f 47/188/17 38/149/17 16/130/14
f 40/103/30 37/184/28 47/185/17
f 453/190/296 41/209/31 47/188/17
f 47/180/17 15/126/8 449/90/292
f 449/90/292 448/191/291 47/180/17
f 459/172/301 458/118/300 457/164/299
f 457/164/299 42/150/32 48/192/33
f 48/192/33 49/159/28 459/172/301
f 43/192/14 41/209/31 453/190/296
f 48/156/33 40/103/30 41/189/31
f 452/139/295 39/103/29 42/156/32
f 39/195/29 40/209/30 48/192/33
f 406/82/272 46/199/31 27/118/22
f 49/196/28 48/156/33 43/193/14
f 463/8/217 469/227/223 481/2/307
f 27/126/22 25/92/8 458/90/300
f 25/92/8 26/112/21 456/162/298
f 456/163/298 460/174/302 458/118/300
f 401/116/267 27/197/22 458/167/300
f 458/167/300 457/157/299 402/194/268
f 457/157/299 42/156/32 402/194/268
f 402/194/268 404/170/270 401/116/267
f 404/565/270 403/562/269 401/558/267
f 50/198/20 49/196/28 45/197/17
f 28/137/23 50/138/20 44/180/17
f 45/180/17 27/126/22 458/90/300
f 458/90/300 459/191/301 45/180/17
f 44/173/17 45/159/17 27/118/22
f 52/176/10 50/198/20 44/165/17
f 30/137/24 52/138/10 51/180/17
f 28/199/23 50/173/20 52/200/10
f 51/200/17 44/173/17 46/199/31
f 52/200/10 579/217/218 568/201/246
f 29/177/14 422/202/205 425/125/137
f 422/202/205 424/553/171 421/203/168
f 424/553/171 423/554/170 421/203/168
f 421/203/168 426/124/138 425/125/137
f 426/124/138 428/555/140 425/125/137
f 428/555/140 427/556/139 425/125/137
f 425/125/137 30/176/24 29/177/14
f 433/115/284 442/179/186 437/182/183
f 30/175/24 52/200/10 552/178/137
f 499/11/217 463/8/217 495/9/318
f 33/180/10 464/181/218 500/204/218
f 441/183/206 35/132/17 33/557/10
f 33/557/10 438/45/204 441/183/206
f 438/45/204 440/521/184 437/15/183
f 441/183/206 438/45/204 437/15/183
f 440/521/184 439/463/185 437/15/183
f 437/15/183 442/13/186 441/183/206
f 442/13/186 444/205/188 441/183/206
f 442/179/186 479/218/305 468/207/222
f 40/209/30 39/195/29 445/158/288
f 445/158/288 449/144/292 448/208/291
f 448/208/291 37/188/28 40/209/30
f 496/181/317 35/180/17 33/138/10
f 33/138/10 464/566/218 496/181/317
f 464/566/218 466/567/220 463/568/217
f 496/181/317 464/566/218 463/568/217
f 466/567/220 465/569/219 463/568/217
f 463/568/217 495/570/318 496/181/317
f 495/570/318 497/210/320 496/181/317
f 503/140/217 499/11/217 492/17/318
f 491/204/317 496/181/317 35/180/17
f 507/212/317 491/204/317 38/149/17
f 34/149/10 500/204/218 504/212/218
f 37/188/28 504/212/218 512/213/218
f 511/105/217 503/140/217 508/10/318
f 491/181/317 38/180/17 34/138/10
f 34/138/10 500/566/218 491/181/317
f 500/566/218 502/567/220 499/568/217
f 491/181/317 500/566/218 499/568/217
f 502/567/220 501/569/219 499/568/217
f 499/568/217 492/570/318 491/181/317
f 492/570/318 494/210/320 491/181/317
f 507/181/317 47/180/17 37/138/28
f 37/138/28 504/566/218 507/181/317
f 504/566/218 506/567/220 503/568/217
f 507/181/317 504/566/218 503/568/217
f 506/567/220 505/569/219 503/568/217
f 503/568/217 508/570/318 507/181/317
f 508/570/318 510/210/320 507/181/317
f 40/209/30 512/213/218 523/214/218
f 515/213/317 507/212/317 47/188/17
f 524/117/217 511/105/217 516/139/318
f 515/181/317 41/180/31 40/138/30
f 40/138/30 512/566/218 515/181/317
f 512/566/218 514/567/220 511/568/217
f 515/181/317 512/566/218 511/568/217
f 514/567/220 513/569/219 511/568/217
f 511/568/217 516/570/318 515/181/317
f 516/570/318 518/210/320 515/181/317
f 531/215/317 527/214/317 43/192/14
f 527/214/317 515/213/317 41/209/31
f 48/192/33 523/214/218 520/215/218
f 527/181/317 43/180/14 48/138/33
f 48/138/33 523/566/218 527/181/317
f 523/566/218 525/567/220 524/568/217
f 527/181/317 523/566/218 524/568/217
f 525/567/220 526/569/219 524/568/217
f 524/568/217 528/570/318 527/181/317
f 528/570/318 530/210/320 527/181/317
f 49/159/28 520/215/218 540/216/218
f 539/73/217 519/167/217 532/64/318
f 544/216/317 531/215/317 45/159/17
f 531/181/317 45/180/17 49/138/28
f 49/138/28 520/566/218 531/181/317
f 520/566/218 522/567/220 519/568/217
f 531/181/317 520/566/218 519/568/217
f 522/567/220 521/569/219 519/568/217
f 519/568/217 532/570/318 531/181/317
f 532/570/318 534/210/320 531/181/317
f 50/173/20 540/216/218 579/217/218
f 519/167/217 524/117/217 528/194/318
f 535/217/317 544/216/317 44/173/17
f 569/85/244 580/78/217 536/79/318
f 580/78/217 539/73/217 543/74/318
f 551/182/138 567/207/245 557/218/323
f 556/201/322 535/217/317 51/200/17
f 544/181/317 44/180/17 50/138/20
f 50/138/20 540/566/218 544/181/317
f 540/566/218 542/567/220 539/568/217
f 544/181/317 540/566/218 539/568/217
f 542/567/220 541/569/219 539/568/217
f 539/568/217 543/570/318 544/181/317
f 543/570/318 545/210/320 544/181/317
f 51/177/17 547/202/205 552/125/137
f 547/202/205 549/553/171 548/203/168
f 549/553/171 550/554/170 548/203/168
f 548/203/168 551/124/138 552/125/137
f 551/124/138 553/555/140 552/125/137
f 553/555/140 554/556/139 552/125/137
f 552/125/137 52/176/10 51/177/17
f 535/181/317 51/180/17 52/138/10
f 52/138/10 579/566/218 535/181/317
f 579/566/218 581/567/220 580/568/217
f 535/181/317 579/566/218 580/568/217
f 581/567/220 582/569/219 580/568/217
f 580/568/217 536/570/318 535/181/317
f 536/570/318 538/210/320 535/181/317
f 56/219/37 58/229/39 57/220/38
f 60/219/41 61/229/42 58/221/39
f 59/220/40 61/229/42 60/219/41
f 63/228/44 64/230/45 61/229/42
f 62/226/43 64/318/45 63/223/44
f 62/228/43 57/220/38 58/229/39
f 68/231/49 70/261/51 69/232/50
f 72/260/53 73/259/54 70/261/51
f 71/236/52 73/325/54 72/233/53
f 71/228/52 75/220/56 76/229/57
f 74/219/55 76/229/57 75/220/56
f 69/222/50 70/221/51 76/229/57
f 112/239/37 114/571/39 113/240/38
f 116/241/41 117/246/42 114/242/39
f 115/244/40 117/246/42 116/241/41
f 119/245/44 120/252/45 117/246/42
f 118/247/43 120/572/45 119/248/44
f 113/240/38 114/571/39 120/250/45
f 132/253/92 134/256/94 133/254/93
f 136/255/96 137/573/97 134/256/94
f 135/257/95 137/574/97 136/258/96
f 139/231/99 140/261/100 137/259/97
f 138/232/98 140/261/100 139/231/99
f 133/238/93 134/237/94 140/261/100
f 149/15/107 145/45/103 150/59/108
f 151/446/109 146/37/104 147/104/105
f 149/105/107 150/302/108 147/104/105
f 150/441/108 151/444/109 147/19/105
f 164/114/118 160/38/114 165/445/119
f 166/59/120 161/45/115 162/15/116
f 164/72/118 165/575/119 166/443/120
f 174/263/128 176/272/130 175/264/129
f 174/265/128 178/269/132 179/266/133
f 177/268/131 179/266/133 178/269/132
f 177/268/131 181/357/135 182/270/136
f 180/240/134 182/571/136 181/239/135
f 180/240/134 175/251/129 176/250/130
f 198/231/49 200/261/149 199/232/50
f 202/275/53 203/576/150 200/577/149
f 201/274/52 203/576/150 202/275/53
f 205/276/56 206/281/57 203/277/150
f 204/279/55 206/281/57 205/276/56
f 199/578/50 200/280/149 206/281/57
f 230/232/98 232/261/100 231/231/99
f 230/232/98 234/238/93 235/237/94
f 233/282/92 235/285/94 234/283/93
f 233/282/92 237/290/96 238/284/97
f 236/286/95 238/327/97 237/287/96
f 231/231/99 232/261/100 238/259/97
f 242/220/134 244/229/136 243/219/135
f 246/228/129 247/230/158 244/229/136
f 245/288/128 247/579/158 246/289/129
f 249/282/132 250/285/159 247/284/158
f 248/283/131 250/285/159 249/282/132
f 243/219/135 244/229/136 250/221/159
f 346/291/224 348/295/226 347/292/225
f 346/291/224 350/491/228 351/294/229
f 349/296/227 351/299/229 350/297/228
f 349/296/227 353/490/231 354/298/232
f 352/248/230 354/572/232 353/247/231
f 347/292/225 348/295/226 354/300/232
f 359/67/237 355/41/233 360/549/238
f 361/548/239 356/141/234 357/14/235
f 359/529/237 360/580/238 358/43/236
f 360/446/238 361/302/239 358/104/236
f 377/264/247 379/272/249 378/263/248
f 377/490/247 381/296/251 382/299/252
f 380/297/250 382/299/252 381/296/251
f 384/303/254 385/308/255 382/304/252
f 383/306/253 385/308/255 384/303/254
f 378/307/248 379/309/249 385/308/255
f 398/14/264 394/141/260 399/548/265
f 400/549/266 395/41/261 396/67/262
f 398/117/264 399/262/265 397/114/263
f 399/262/265 400/445/266 397/114/263
f 451/148/294 446/129/289 447/128/290
f 460/174/302 456/163/298 461/560/303
f 462/499/304 457/157/299 458/167/300
f 460/166/302 461/500/303 458/167/300
f 461/500/303 462/499/304 458/167/300
f 470/312/224 472/315/226 471/313/225
f 470/312/224 474/322/228 475/314/229
f 473/313/227 475/315/229 474/312/228
f 477/341/231 478/319/232 475/315/229
f 476/223/230 478/318/232 477/226/231
f 471/313/225 472/315/226 478/319/232
f 482/320/308 484/581/310 483/321/309
f 482/322/308 486/312/312 487/315/313
f 485/313/311 487/315/313 486/312/312
f 489/341/315 490/319/316 487/315/313
f 488/233/314 490/325/316 489/236/315
f 483/321/309 484/581/310 490/582/316
f 558/287/324 560/327/326 559/286/325
f 562/329/328 563/583/329 560/584/326
f 561/328/327 563/583/329 562/329/328
f 565/330/331 566/335/332 563/331/329
f 564/333/330 566/335/332 565/330/331
f 559/334/325 560/336/326 566/335/332
f 570/312/250 572/315/252 571/313/251
f 570/312/250 574/322/254 575/314/255
f 573/337/253 575/585/255 574/338/254
f 577/586/248 578/587/249 575/585/255
f 576/289/247 578/579/249 577/288/248
f 571/313/251 572/315/252 578/319/249
f 53/1/34 57/220/38 68/231/49
f 57/220/38 62/228/43 72/260/53
f 62/226/43 55/227/36 66/2/47
f 85/3/66 87/343/61 80/342/61
f 87/343/61 88/419/60 79/344/60
f 88/345/60 86/9/58 77/17/58
f 93/2/71 95/348/73 92/347/70
f 95/348/73 96/421/74 91/349/69
f 91/350/69 96/430/74 94/8/72
f 122/34/82 109/47/34 113/240/38
f 124/351/84 113/240/38 118/251/43
f 118/247/43 111/249/36 121/27/81
f 105/30/80 107/436/64 115/244/40
f 115/244/40 107/436/64 108/354/65
f 119/248/44 108/389/65 106/28/63
f 141/18/101 143/355/61 132/253/92
f 143/355/61 144/424/60 136/255/96
f 136/258/96 144/425/60 142/10/102
f 167/34/121 169/351/123 180/240/134
f 169/450/123 170/449/124 175/264/129
f 175/264/129 170/449/124 168/55/122
f 183/60/137 185/356/139 177/268/131
f 185/356/139 186/472/140 181/357/135
f 181/239/135 186/382/140 184/46/138
f 191/16/145 193/358/147 198/231/49
f 193/440/147 194/359/148 202/275/53
f 194/359/148 192/49/146 196/62/47
f 211/68/101 213/361/61 210/360/61
f 213/361/61 214/452/60 209/362/60
f 214/363/60 212/64/151 207/74/58
f 239/1/127 227/44/91 231/231/99
f 231/231/99 236/260/95 246/228/129
f 236/286/95 229/86/90 240/85/125
f 255/81/164 257/365/166 233/282/92
f 257/365/166 258/366/167 237/290/96
f 237/287/96 258/414/167 256/79/165
f 252/81/161 241/84/126 249/282/132
f 254/365/163 249/282/132 245/290/128
f 245/288/128 240/85/125 251/78/160
f 260/88/169 228/84/89 234/283/93
f 262/435/171 234/238/93 230/232/98
f 230/232/98 227/44/91 259/13/168
f 271/2/180 273/348/155 286/372/193
f 273/348/155 274/421/154 285/373/192
f 274/205/154 272/13/181 283/83/190
f 275/15/182 277/375/184 294/374/184
f 277/375/184 278/377/185 293/376/185
f 278/375/185 276/15/183 291/14/183
f 295/14/199 297/374/189 282/375/189
f 297/374/189 298/376/188 281/377/188
f 298/378/188 296/83/186 279/13/186
f 303/24/204 305/380/184 310/379/184
f 305/380/184 306/428/185 309/381/185
f 306/382/185 304/46/183 307/91/183
f 319/119/206 321/385/189 318/384/189
f 321/385/189 322/503/188 317/386/188
f 322/378/188 320/83/186 315/13/186
f 340/100/218 343/293/221 347/292/225
f 347/292/225 352/301/230 341/388/219
f 352/248/230 345/249/223 339/28/217
f 386/142/218 388/390/220 383/306/253
f 388/390/220 389/497/219 378/307/248
f 378/263/248 389/438/219 387/22/217
f 371/109/137 376/161/246 384/303/254
f 384/303/254 380/305/250 372/392/140
f 380/297/250 375/143/245 370/91/138
f 425/168/137 427/394/139 416/393/139
f 427/394/139 428/504/140 415/395/140
f 428/396/140 426/90/138 413/14/138
f 429/90/280 431/396/282 440/397/184
f 431/396/282 432/399/283 439/398/185
f 432/396/283 430/90/281 437/182/183
f 441/182/206 443/397/189 436/396/287
f 443/397/189 444/398/188 435/399/286
f 444/400/188 442/179/186 433/115/284
f 464/181/218 467/207/221 471/313/225
f 471/225/225 476/223/230 465/404/219
f 476/223/230 469/227/223 463/8/217
f 479/218/305 483/321/309 473/313/227
f 483/235/309 488/233/314 477/226/231
f 488/233/314 481/2/307 469/227/223
f 491/204/317 493/405/319 498/402/319
f 493/405/319 494/507/320 497/403/320
f 494/346/320 492/17/318 495/9/318
f 523/214/218 525/407/220 522/406/220
f 525/407/220 526/516/219 521/408/219
f 526/409/219 524/117/217 519/167/217
f 535/217/317 537/412/319 546/411/319
f 537/412/319 538/517/320 545/413/320
f 538/414/320 536/79/318 543/74/318
f 557/218/323 567/207/245 571/313/251
f 571/313/251 576/341/247 559/334/325
f 576/289/247 569/85/244 555/86/321
f 579/217/218 581/412/220 573/337/253
f 581/412/220 582/517/219 577/586/248
f 577/288/248 582/367/219 580/78/217
f 547/178/205 549/417/171 561/328/327
f 549/417/171 550/418/170 565/588/331
f 565/330/331 550/400/170 548/179/168
f 552/178/137 568/201/246 574/338/254
f 574/322/254 570/312/250 553/397/140
f 570/312/250 567/207/245 551/182/138
f 85/3/66 67/1/48 75/220/56
f 75/220/56 71/228/52 88/419/60
f 71/236/52 66/2/47 86/9/58
f 81/3/62 83/343/64 59/220/40
f 83/343/64 84/419/65 63/228/44
f 63/223/44 84/404/65 82/8/63
f 275/15/182 54/1/35 60/219/41
f 60/219/41 56/222/37 278/377/185
f 56/219/37 53/1/34 276/15/183
f 280/15/187 282/375/189 74/219/55
f 282/375/189 281/377/188 69/222/50
f 69/232/50 281/371/188 279/13/186
f 97/7/75 99/342/64 83/343/64
f 99/342/64 100/344/65 84/419/65
f 100/420/65 98/11/63 82/8/63
f 101/5/76 103/347/78 273/348/155
f 103/484/78 104/422/79 274/423/154
f 104/422/79 102/17/77 272/9/181
f 78/7/59 80/342/61 143/355/61
f 80/342/61 79/344/60 144/424/60
f 79/346/60 77/17/58 142/10/102
f 125/18/85 127/426/87 99/342/64
f 127/426/87 128/524/88 100/344/65
f 128/427/88 126/12/86 98/11/63
f 303/24/204 110/94/35 116/241/41
f 116/241/41 112/243/37 306/428/185
f 112/239/37 109/47/34 304/46/183
f 125/16/85 122/34/82 124/351/84
f 127/429/87 124/351/84 123/352/83
f 128/427/88 123/353/83 121/27/81
f 157/16/111 131/44/91 139/231/99
f 159/431/113 139/231/99 135/260/95
f 158/433/112 135/257/95 130/39/90
f 312/19/205 129/20/89 133/254/93
f 314/435/171 133/238/93 138/232/98
f 138/232/98 131/44/91 311/13/168
f 152/32/80 154/437/64 107/436/64
f 154/437/64 155/447/65 108/354/65
f 155/438/65 153/22/63 106/28/63
f 157/30/111 159/536/113 193/439/147
f 159/536/113 158/526/112 194/56/148
f 194/359/148 158/433/112 156/29/110
f 161/36/115 166/443/120 150/441/108
f 166/443/120 165/575/119 151/444/109
f 165/445/119 160/38/114 146/37/104
f 152/32/80 172/61/126 178/269/132
f 178/269/132 174/265/128 155/447/65
f 174/263/128 171/54/125 153/22/63
f 187/16/141 189/589/143 169/351/123
f 189/448/143 190/451/144 170/449/124
f 190/451/144 188/63/142 168/55/122
f 211/68/101 197/75/48 205/276/56
f 213/361/61 205/276/56 201/278/52
f 201/274/52 196/62/47 212/64/151
f 316/72/206 318/384/189 204/279/55
f 318/384/189 317/386/188 199/578/50
f 199/232/50 317/371/188 315/13/186
f 187/68/141 223/77/62 225/360/64
f 189/453/143 225/360/64 226/362/65
f 190/451/144 226/454/65 224/73/63
f 208/77/66 210/360/61 257/365/166
f 210/360/61 209/362/60 258/366/167
f 209/364/60 207/74/58 256/79/165
f 252/81/161 254/365/163 225/360/64
f 254/365/163 253/366/162 226/362/65
f 253/367/162 251/78/160 224/73/63
f 267/80/176 269/456/178 218/455/155
f 269/456/178 270/460/179 217/457/154
f 270/458/179 268/79/177 215/74/152
f 219/76/156 221/455/73 266/456/175
f 221/455/73 222/457/74 265/460/174
f 222/461/74 220/73/157 263/78/172
f 323/88/207 325/368/139 248/283/131
f 325/368/139 326/370/140 243/369/135
f 243/219/135 326/375/140 324/15/138
f 93/2/71 287/89/194 289/372/196
f 289/465/196 290/467/197 96/463/74
f 96/463/74 290/467/197 288/14/195
f 90/5/68 92/347/70 302/464/203
f 302/465/203 92/523/70 91/466/69
f 91/466/69 89/15/67 299/14/200
f 335/127/213 337/464/215 103/347/78
f 337/135/215 338/134/216 104/468/79
f 338/134/216 336/83/214 102/13/77
f 312/19/205 314/434/171 369/470/171
f 314/435/171 313/371/170 368/378/170
f 313/371/170 311/13/168 366/83/168
f 371/109/137 373/391/139 185/356/139
f 373/391/139 372/392/140 186/472/140
f 372/383/140 370/91/138 184/46/138
f 216/76/153 218/455/155 408/473/193
f 218/455/155 217/457/154 407/474/192
f 217/475/154 215/13/152 405/83/271
f 409/82/273 411/477/196 221/455/73
f 411/477/196 412/474/197 222/457/74
f 412/478/197 410/14/274 220/15/157
f 260/88/169 262/368/171 330/393/171
f 262/368/171 261/370/170 329/395/170
f 261/371/170 259/13/168 327/83/168
f 414/87/275 416/393/139 325/368/139
f 416/393/139 415/395/140 326/370/140
f 415/374/140 413/14/138 324/15/138
f 264/80/173 266/456/175 420/480/279
f 266/456/175 265/460/174 419/481/278
f 265/479/174 263/15/172 417/14/276
f 331/169/209 333/482/211 269/456/178
f 333/482/211 334/481/212 270/460/179
f 270/475/179 334/476/212 332/83/210
f 292/14/198 294/374/184 431/396/282
f 294/374/184 293/376/185 432/399/283
f 293/374/185 291/14/183 430/90/281
f 434/90/285 436/396/287 297/374/189
f 436/396/287 435/399/286 298/376/188
f 435/401/286 433/115/284 296/83/186
f 284/89/191 286/372/193 337/464/215
f 286/483/193 285/485/192 338/422/216
f 285/485/192 283/9/190 336/17/214
f 300/127/201 302/464/203 289/372/196
f 302/486/203 301/350/202 290/487/197
f 301/350/202 299/11/200 288/8/195
f 362/145/240 364/489/242 349/296/227
f 364/489/242 365/492/243 353/490/231
f 353/247/231 365/353/243 363/27/241
f 308/99/204 310/379/184 346/291/224
f 310/379/184 309/381/185 350/491/228
f 350/297/228 309/383/185 307/91/183
f 446/162/289 451/186/294 364/489/242
f 451/186/294 450/564/293 365/492/243
f 450/493/293 445/146/288 363/27/241
f 367/43/205 369/470/171 455/494/297
f 369/471/171 368/378/170 454/495/192
f 368/378/170 366/83/168 452/115/295
f 340/100/218 342/387/220 388/390/220
f 342/387/220 341/388/219 389/497/219
f 341/389/219 339/28/217 387/22/217
f 356/151/234 361/590/239 399/498/265
f 361/302/239 360/446/238 400/445/266
f 360/446/238 355/37/233 395/38/261
f 391/145/257 375/143/245 381/296/251
f 381/296/251 377/490/247 392/492/258
f 377/264/247 374/54/244 390/55/256
f 391/145/257 393/489/259 461/186/303
f 393/450/259 392/449/258 462/499/304
f 392/449/258 390/55/256 457/157/299
f 319/119/206 401/160/267 403/501/269
f 321/385/189 403/501/269 404/502/270
f 322/378/188 404/565/270 402/115/268
f 406/82/272 408/473/193 333/482/211
f 408/540/193 407/459/192 334/458/212
f 407/459/192 405/74/271 332/79/210
f 418/169/277 420/480/279 411/477/196
f 420/543/279 419/462/278 412/461/197
f 419/462/278 417/78/276 410/73/274
f 328/87/208 330/393/171 424/394/171
f 330/393/171 329/395/170 423/504/170
f 329/378/170 327/83/168 421/115/168
f 453/190/296 455/494/297 403/501/269
f 455/505/297 454/550/192 404/170/270
f 404/170/270 454/550/192 452/139/295
f 422/168/205 424/394/171 549/417/171
f 424/394/171 423/504/170 550/418/170
f 423/401/170 421/115/168 548/179/168
f 552/178/137 554/417/139 427/394/139
f 554/417/139 553/418/140 428/504/140
f 553/397/140 551/182/138 426/90/138
f 496/181/317 498/402/319 485/313/311
f 498/402/319 497/403/320 489/341/315
f 489/236/315 497/345/320 495/9/318
f 438/182/204 440/397/184 470/312/224
f 440/397/184 439/398/185 474/322/228
f 474/312/228 439/397/185 437/182/183
f 441/182/206 480/207/306 486/312/312
f 486/312/312 482/322/308 444/398/188
f 482/320/308 479/218/305 442/179/186
f 464/181/218 466/402/220 502/405/220
f 466/402/220 465/403/219 501/507/219
f 465/404/219 463/8/217 499/11/217
f 507/212/317 509/508/319 493/405/319
f 509/508/319 510/509/320 494/507/320
f 510/425/320 508/10/318 492/17/318
f 500/204/218 502/405/220 506/508/220
f 502/405/220 501/507/219 505/509/219
f 501/420/219 499/11/217 503/140/217
f 515/213/317 517/511/319 509/508/319
f 517/511/319 518/513/320 510/509/320
f 518/512/320 516/139/318 508/10/318
f 504/212/218 506/508/220 514/511/220
f 506/508/220 505/509/219 513/513/219
f 505/510/219 503/140/217 511/105/217
f 527/214/317 529/407/319 517/511/319
f 529/407/319 530/516/320 518/513/320
f 530/515/320 528/194/318 516/139/318
f 512/213/218 514/511/220 525/407/220
f 514/511/220 513/513/219 526/516/219
f 513/514/219 511/105/217 524/117/217
f 531/215/317 533/406/319 529/407/319
f 533/406/319 534/408/320 530/516/320
f 534/363/320 532/64/318 528/194/318
f 544/216/317 546/411/319 533/406/319
f 546/411/319 545/413/320 534/408/320
f 545/364/320 543/74/318 532/64/318
f 520/215/218 522/406/220 542/411/220
f 522/406/220 521/408/219 541/413/219
f 521/410/219 519/167/217 539/73/217
f 540/216/218 542/411/220 581/412/220
f 542/411/220 541/413/219 582/517/219
f 541/454/219 539/73/217 580/78/217
f 535/217/317 556/201/322 562/329/328
f 537/591/319 562/326/328 558/287/324
f 558/287/324 555/86/321 536/79/318
f 65/44/46 279/13/186 276/15/183
