# Blender 4.5.3 LTS
# www.blender.org
mtllib __clay_block_01_9.mtl
o clay_block_9
v 0.150000 -0.850000 0.000000
v 0.000000 -0.850000 -0.150000
v 0.150000 -1.000000 -0.150000
v 0.075098 -0.850000 -0.020039
v 0.150000 -0.924902 -0.020039
v 0.078268 -0.921732 -0.039505
v 0.020039 -0.924902 -0.150000
v 0.020039 -0.850000 -0.075098
v 0.039505 -0.921732 -0.078268
v 0.150000 -0.979961 -0.075098
v 0.075098 -0.979961 -0.150000
v 0.078268 -0.960495 -0.078268
v 0.850000 -0.850000 0.000000
v 0.850000 -1.000000 -0.150000
v 1.000000 -0.850000 -0.150000
v 0.850000 -0.924902 -0.020039
v 0.924902 -0.850000 -0.020039
v 0.921732 -0.921732 -0.039505
v 0.924902 -0.979961 -0.150000
v 0.850000 -0.979961 -0.075098
v 0.921732 -0.960495 -0.078268
v 0.979961 -0.850000 -0.075098
v 0.979961 -0.924902 -0.150000
v 0.960495 -0.921732 -0.078268
v 0.850000 -0.850000 -1.000000
v 1.000000 -0.850000 -0.850000
v 0.850000 -1.000000 -0.850000
v 0.924902 -0.850000 -0.979961
v 0.850000 -0.924902 -0.979961
v 0.921732 -0.921732 -0.960495
v 0.979961 -0.924902 -0.850000
v 0.979961 -0.850000 -0.924902
v 0.960495 -0.921732 -0.921732
v 0.850000 -0.979961 -0.924902
v 0.924902 -0.979961 -0.850000
v 0.921732 -0.960495 -0.921732
v 0.000000 -0.850000 -0.850000
v 0.150000 -0.850000 -1.000000
v 0.150000 -1.000000 -0.850000
v 0.020039 -0.850000 -0.924902
v 0.020039 -0.924902 -0.850000
v 0.039505 -0.921732 -0.921732
v 0.150000 -0.924902 -0.979961
v 0.075098 -0.850000 -0.979961
v 0.078268 -0.921732 -0.960495
v 0.075098 -0.979961 -0.850000
v 0.150000 -0.979961 -0.924902
v 0.078268 -0.960495 -0.921732
v 1.000000 0.000000 -0.150000
v 0.850000 0.000000 0.000000
v 0.979904 0.000000 -0.075000
v 0.925000 0.000000 -0.020096
v 0.850000 0.000000 -1.000000
v 1.000000 0.000000 -0.850000
v 0.925000 0.000000 -0.979904
v 0.979904 0.000000 -0.925000
v 0.150000 0.000000 0.000000
v 0.000000 0.000000 -0.150000
v 0.075000 0.000000 -0.020096
v 0.020096 0.000000 -0.075000
v 0.000000 0.000000 -0.850000
v 0.150000 0.000000 -1.000000
v 0.020096 0.000000 -0.925000
v 0.075000 0.000000 -0.979904
v 0.000000 1.000000 -0.150000
v 0.150000 1.000000 0.000000
v 0.020096 1.000000 -0.075000
v 0.075000 1.000000 -0.020096
v 0.850000 1.000000 0.000000
v 1.000000 1.000000 -0.150000
v 0.925000 1.000000 -0.020096
v 0.979904 1.000000 -0.075000
v 1.000000 1.000000 -0.850000
v 0.850000 1.000000 -1.000000
v 0.979904 1.000000 -0.925000
v 0.925000 1.000000 -0.979904
v 0.150000 1.000000 -1.000000
v 0.000000 1.000000 -0.850000
v 0.075000 1.000000 -0.979904
v 0.020096 1.000000 -0.925000
v 0.000000 1.850000 -0.150000
v 0.150000 1.850000 0.000000
v 0.150000 2.000000 -0.150000
v 0.020039 1.850000 -0.075098
v 0.020039 1.924901 -0.150000
v 0.039505 1.921732 -0.078268
v 0.150000 1.924901 -0.020039
v 0.075098 1.850000 -0.020039
v 0.078268 1.921732 -0.039505
v 0.075098 1.979960 -0.150000
v 0.150000 1.979960 -0.075098
v 0.078268 1.960495 -0.078268
v 0.850000 1.850000 0.000000
v 1.000000 1.850000 -0.150000
v 0.850000 2.000000 -0.150000
v 0.924902 1.850000 -0.020039
v 0.850000 1.924901 -0.020039
v 0.921732 1.921732 -0.039505
v 0.979961 1.924901 -0.150000
v 0.979961 1.850000 -0.075098
v 0.960495 1.921732 -0.078268
v 0.850000 1.979960 -0.075098
v 0.924902 1.979960 -0.150000
v 0.921732 1.960495 -0.078268
v 1.000000 1.850000 -0.850000
v 0.850000 1.850000 -1.000000
v 0.850000 2.000000 -0.850000
v 0.979961 1.850000 -0.924902
v 0.979961 1.924901 -0.850000
v 0.960495 1.921732 -0.921732
v 0.850000 1.924901 -0.979961
v 0.924902 1.850000 -0.979961
v 0.921732 1.921732 -0.960495
v 0.924902 1.979960 -0.850000
v 0.850000 1.979960 -0.924902
v 0.921732 1.960495 -0.921732
v 0.000000 1.850000 -0.850000
v 0.150000 2.000000 -0.850000
v 0.150000 1.850000 -1.000000
v 0.020039 1.924901 -0.850000
v 0.020039 1.850000 -0.924902
v 0.039505 1.921732 -0.921732
v 0.150000 1.979960 -0.924902
v 0.075098 1.979960 -0.850000
v 0.078268 1.960495 -0.921732
v 0.075098 1.850000 -0.979961
v 0.150000 1.924901 -0.979961
v 0.078268 1.921732 -0.960495
vn -0.1280 -0.1280 0.9835
vn -0.9835 -0.1280 0.1280
vn -0.1280 -0.9835 0.1280
vn -0.4916 -0.1216 0.8623
vn -0.1216 -0.4916 0.8623
vn -0.4488 -0.4488 0.7727
vn -0.8623 -0.4916 0.1216
vn -0.8623 -0.1216 0.4916
vn -0.7727 -0.4488 0.4488
vn -0.1216 -0.8623 0.4916
vn -0.4916 -0.8623 0.1216
vn -0.4488 -0.7727 0.4488
vn 0.1280 -0.1280 0.9835
vn 0.1280 -0.9835 0.1280
vn 0.9835 -0.1280 0.1280
vn 0.1216 -0.4916 0.8623
vn 0.4916 -0.1216 0.8623
vn 0.4488 -0.4488 0.7727
vn 0.4916 -0.8623 0.1216
vn 0.1216 -0.8623 0.4916
vn 0.4488 -0.7727 0.4488
vn 0.8623 -0.1216 0.4916
vn 0.8623 -0.4916 0.1216
vn 0.7727 -0.4488 0.4488
vn 0.1280 -0.1280 -0.9835
vn 0.9835 -0.1280 -0.1280
vn 0.1280 -0.9835 -0.1280
vn 0.4916 -0.1216 -0.8623
vn 0.1216 -0.4916 -0.8623
vn 0.4488 -0.4488 -0.7727
vn 0.8623 -0.4916 -0.1216
vn 0.8623 -0.1216 -0.4916
vn 0.7727 -0.4488 -0.4488
vn 0.1216 -0.8623 -0.4916
vn 0.4916 -0.8623 -0.1216
vn 0.4488 -0.7727 -0.4488
vn -0.9835 -0.1280 -0.1280
vn -0.1280 -0.1280 -0.9835
vn -0.1280 -0.9835 -0.1280
vn -0.8623 -0.1216 -0.4916
vn -0.8623 -0.4916 -0.1216
vn -0.7727 -0.4488 -0.4488
vn -0.1216 -0.4916 -0.8623
vn -0.4916 -0.1216 -0.8623
vn -0.4488 -0.4488 -0.7727
vn -0.4916 -0.8623 -0.1216
vn -0.1216 -0.8623 -0.4916
vn -0.4488 -0.7727 -0.4488
vn 0.8999 0.4196 0.1185
vn 0.1185 0.4196 0.8999
vn 0.7952 0.3961 0.4591
vn 0.4591 0.3961 0.7952
vn 0.1185 0.4196 -0.8999
vn 0.8999 0.4196 -0.1185
vn 0.4591 0.3961 -0.7952
vn 0.7952 0.3961 -0.4591
vn -0.1185 0.4196 0.8999
vn -0.8999 0.4196 0.1185
vn -0.4591 0.3961 0.7952
vn -0.7952 0.3961 0.4591
vn -0.8999 0.4196 -0.1185
vn -0.1185 0.4196 -0.8999
vn -0.7952 0.3961 -0.4591
vn -0.4591 0.3961 -0.7952
vn -0.8999 -0.4196 0.1185
vn -0.1185 -0.4196 0.8999
vn -0.7952 -0.3961 0.4591
vn -0.4591 -0.3961 0.7952
vn 0.1185 -0.4196 0.8999
vn 0.8999 -0.4196 0.1185
vn 0.4591 -0.3961 0.7952
vn 0.7952 -0.3961 0.4591
vn 0.8999 -0.4196 -0.1185
vn 0.1185 -0.4196 -0.8999
vn 0.7952 -0.3961 -0.4591
vn 0.4591 -0.3961 -0.7952
vn -0.1185 -0.4196 -0.8999
vn -0.8999 -0.4196 -0.1185
vn -0.4591 -0.3961 -0.7952
vn -0.7952 -0.3961 -0.4591
vn -0.9835 0.1280 0.1280
vn -0.1280 0.1280 0.9835
vn -0.1280 0.9835 0.1280
vn -0.8623 0.1216 0.4916
vn -0.8623 0.4916 0.1216
vn -0.7727 0.4488 0.4488
vn -0.1216 0.4916 0.8623
vn -0.4916 0.1216 0.8623
vn -0.4488 0.4488 0.7727
vn -0.4916 0.8623 0.1216
vn -0.1216 0.8623 0.4916
vn -0.4488 0.7727 0.4488
vn 0.1280 0.1280 0.9835
vn 0.9835 0.1280 0.1280
vn 0.1280 0.9835 0.1280
vn 0.4916 0.1216 0.8623
vn 0.1216 0.4916 0.8623
vn 0.4488 0.4488 0.7727
vn 0.8623 0.4916 0.1216
vn 0.8623 0.1216 0.4916
vn 0.7727 0.4488 0.4488
vn 0.1216 0.8623 0.4916
vn 0.4916 0.8623 0.1216
vn 0.4488 0.7727 0.4488
vn 0.9835 0.1280 -0.1280
vn 0.1280 0.1280 -0.9835
vn 0.1280 0.9835 -0.1280
vn 0.8623 0.1216 -0.4916
vn 0.8623 0.4916 -0.1216
vn 0.7727 0.4488 -0.4488
vn 0.1216 0.4916 -0.8623
vn 0.4916 0.1216 -0.8623
vn 0.4488 0.4488 -0.7727
vn 0.4916 0.8623 -0.1216
vn 0.1216 0.8623 -0.4916
vn 0.4488 0.7727 -0.4488
vn -0.9835 0.1280 -0.1280
vn -0.1280 0.9835 -0.1280
vn -0.1280 0.1280 -0.9835
vn -0.8623 0.4916 -0.1216
vn -0.8623 0.1216 -0.4916
vn -0.7727 0.4488 -0.4488
vn -0.1216 0.8623 -0.4916
vn -0.4916 0.8623 -0.1216
vn -0.4488 0.7727 -0.4488
vn -0.4916 0.1216 -0.8623
vn -0.1216 0.4916 -0.8623
vn -0.4488 0.4488 -0.7727
vt 0.075098 -0.850000
vt 0.150000 -0.924902
vt 0.150000 -0.850000
vt 0.039505 -0.921732
vt 0.020039 -0.850000
vt 0.075098 0.150000
vt 0.039505 0.078268
vt 0.020039 0.150000
vt 0.150000 0.075098
vt 0.150000 0.150000
vt 0.078268 0.039505
vt 0.078268 0.078268
vt 0.850000 -0.924902
vt 0.924902 -0.850000
vt 0.850000 -0.850000
vt 0.850000 0.075098
vt 0.921732 0.039505
vt 0.850000 0.020039
vt 0.924902 0.150000
vt 0.850000 0.150000
vt 0.150000 -0.979961
vt 0.078268 -0.921732
vt 0.078268 -0.960495
vt 0.960495 -0.921732
vt 0.979961 -0.850000
vt 0.850000 -0.979961
vt 0.921732 -0.921732
vt 0.850000 0.924902
vt 0.924902 0.850000
vt 0.850000 0.850000
vt 0.921732 -0.960495
vt 0.075098 0.850000
vt 0.150000 0.924902
vt 0.150000 0.850000
vt 0.039505 0.921732
vt 0.078268 0.921732
vt 0.075098 1.850000
vt 0.150000 1.924901
vt 0.150000 1.850000
vt 0.020039 1.850000
vt 0.078268 1.921732
vt 0.150000 0.020039
vt 0.039505 1.921732
vt 0.078268 1.960495
vt 0.924902 1.850000
vt 0.850000 1.924901
vt 0.850000 1.850000
vt 0.150000 1.979960
vt 0.850000 1.979960
vt 0.921732 1.921732
vt 0.921732 1.960495
vt 0.979961 1.850000
vt 0.960495 1.921732
vt 0.020039 0.850000
vt 0.150000 0.000000
vt 0.075000 0.000000
vt 0.850000 0.000000
vt 0.925000 0.000000
vt 0.979904 0.000000
vt 0.150000 1.000000
vt 0.020096 1.000000
vt 0.075000 1.000000
vt 0.850000 1.000000
vt 0.925000 1.000000
vt 0.979904 1.000000
vt 0.020096 0.000000
vt 1.000000 0.150000
vt 0.000000 0.850000
vt 1.000000 0.850000
vt 0.921732 0.078268
vt 0.921732 0.921732
vt 0.000000 0.150000
vt 0.020096 0.075000
vt 0.075000 0.020096
vt 0.925000 0.020096
vt 0.979904 0.075000
vt 0.979904 0.925000
vt 0.925000 0.979904
vt 0.075000 0.979904
vt 0.020096 0.925000
s 1
usemtl ClayMat_9
f 4/1/4 5/2/5 1/3/1
f 8/1/8 6/4/6 4/5/4
f 7/2/7 8/1/8 2/3/2
f 11/6/11 9/7/9 7/8/7
f 10/9/10 11/6/11 3/10/3
f 10/9/10 6/11/6 12/12/12
f 6/11/6 9/7/9 12/12/12
f 16/13/16 17/14/17 13/15/13
f 20/16/20 18/17/18 16/18/16
f 19/19/19 20/16/20 14/20/14
f 19/21/19 24/22/24 21/23/21
f 22/1/22 23/2/23 15/3/15
f 22/1/22 18/4/18 24/22/24
f 18/4/18 21/23/21 24/22/24
f 28/14/28 29/13/29 25/15/25
f 32/14/32 30/24/30 28/25/28
f 31/13/31 32/14/32 26/15/26
f 35/26/35 33/27/33 31/13/31
f 34/28/34 35/29/35 27/30/27
f 34/26/34 30/27/30 36/31/36
f 30/24/30 33/27/33 36/31/36
f 40/14/40 41/13/41 37/15/37
f 44/1/44 42/4/42 40/5/40
f 43/2/43 44/1/44 38/3/38
f 47/21/47 45/22/45 43/2/43
f 46/32/46 47/33/47 39/34/39
f 46/32/46 42/35/42 48/36/48
f 42/4/42 45/22/45 48/23/48
f 84/37/84 85/38/85 81/39/81
f 88/40/88 86/41/86 84/37/84
f 87/38/87 88/37/88 82/39/82
f 91/9/91 89/11/89 87/42/87
f 90/6/90 91/9/91 83/10/83
f 85/8/85 92/12/92 90/6/90
f 86/41/86 89/43/89 92/44/92
f 96/45/96 97/46/97 93/47/93
f 100/37/100 98/43/98 96/40/96
f 99/38/99 100/37/100 94/39/94
f 103/48/103 101/41/101 99/38/99
f 102/16/102 103/19/103 95/20/95
f 102/49/102 98/50/98 104/51/104
f 98/43/98 101/41/101 104/44/104
f 108/45/108 109/46/109 105/47/105
f 112/52/112 110/50/110 108/45/108
f 111/46/111 112/45/112 106/47/106
f 115/49/115 113/50/113 111/46/111
f 114/29/114 115/28/115 107/30/107
f 114/49/114 110/50/110 116/51/116
f 110/50/110 113/53/113 116/51/116
f 120/46/120 121/45/121 117/47/117
f 124/32/124 122/35/122 120/54/120
f 123/33/123 124/32/124 118/34/118
f 127/38/127 125/44/125 123/48/123
f 126/37/126 127/38/127 119/39/119
f 126/37/126 122/43/122 128/41/128
f 122/43/122 125/44/125 128/41/128
f 1/3/1 16/13/16 13/15/13
f 5/42/5 20/16/20 16/18/16
f 10/9/10 14/20/14 20/16/20
f 37/15/37 7/2/7 2/3/2
f 41/54/41 11/6/11 7/8/7
f 46/32/46 3/10/3 11/6/11
f 25/15/25 43/2/43 38/3/38
f 29/13/29 47/21/47 43/2/43
f 34/28/34 39/34/39 47/33/47
f 15/3/15 31/13/31 26/15/26
f 23/2/23 35/26/35 31/13/31
f 19/19/19 27/30/27 35/29/35
f 49/55/49 22/1/22 15/3/15
f 51/56/51 17/5/17 22/1/22
f 17/14/17 50/57/50 13/15/13
f 54/57/54 32/14/32 56/58/56
f 32/14/32 55/59/55 56/58/56
f 28/14/28 53/57/53 55/58/55
f 81/39/81 120/46/120 117/47/117
f 85/8/85 124/32/124 120/54/120
f 90/6/90 118/34/118 124/32/124
f 93/47/93 87/38/87 82/39/82
f 97/18/97 91/9/91 87/42/87
f 102/16/102 83/10/83 91/9/91
f 105/47/105 99/38/99 94/39/94
f 109/46/109 103/48/103 99/38/99
f 114/29/114 95/20/95 103/19/103
f 119/39/119 111/46/111 106/47/106
f 127/38/127 115/49/115 111/46/111
f 123/33/123 107/30/107 115/28/115
f 65/60/65 84/37/84 81/39/81
f 84/37/84 68/61/68 88/40/88
f 88/37/88 66/60/66 82/39/82
f 70/60/70 100/37/100 72/62/72
f 100/37/100 71/61/71 72/62/72
f 96/45/96 69/63/69 71/64/71
f 73/63/73 108/45/108 105/47/105
f 75/64/75 112/52/112 108/45/108
f 112/45/112 74/63/74 106/47/106
f 78/63/78 121/45/121 80/64/80
f 121/45/121 79/65/79 80/64/80
f 126/37/126 77/60/77 79/62/79
f 58/55/58 8/1/8 60/56/60
f 60/56/60 4/5/4 59/66/59
f 4/1/4 57/55/57 59/56/59
f 61/57/61 40/14/40 37/15/37
f 63/66/63 44/1/44 40/5/40
f 44/1/44 62/55/62 38/3/38
f 58/55/58 67/62/67 65/60/65
f 60/56/60 68/61/68 67/62/67
f 59/56/59 66/60/66 68/62/68
f 70/60/70 51/56/51 49/55/49
f 72/62/72 52/66/52 51/56/51
f 71/64/71 50/57/50 52/58/52
f 54/57/54 75/64/75 73/63/73
f 56/58/56 76/65/76 75/64/75
f 55/58/55 74/63/74 76/64/76
f 78/63/78 63/58/63 61/57/61
f 80/64/80 64/59/64 63/58/63
f 79/62/79 62/55/62 64/56/64
f 13/15/13 57/55/57 1/3/1
f 39/34/39 14/20/14 3/10/3
f 58/55/58 37/15/37 2/3/2
f 26/15/26 49/55/49 15/3/15
f 38/3/38 53/57/53 25/15/25
f 54/57/54 70/60/70 49/55/49
f 49/67/49 53/63/53 61/68/61
f 50/57/50 66/60/66 57/55/57
f 62/55/62 74/63/74 53/57/53
f 65/60/65 61/57/61 58/55/58
f 69/63/69 82/39/82 66/60/66
f 77/60/77 73/69/73 69/57/69
f 81/39/81 78/63/78 65/60/65
f 73/63/73 94/39/94 70/60/70
f 77/60/77 106/47/106 74/63/74
f 95/20/95 118/34/118 83/10/83
f 4/1/4 6/22/6 5/2/5
f 8/1/8 9/22/9 6/4/6
f 7/2/7 9/22/9 8/1/8
f 11/6/11 12/12/12 9/7/9
f 10/9/10 12/12/12 11/6/11
f 10/9/10 5/42/5 6/11/6
f 16/13/16 18/27/18 17/14/17
f 20/16/20 21/70/21 18/17/18
f 19/19/19 21/70/21 20/16/20
f 19/21/19 23/2/23 24/22/24
f 22/1/22 24/22/24 23/2/23
f 22/1/22 17/5/17 18/4/18
f 28/14/28 30/27/30 29/13/29
f 32/14/32 33/27/33 30/24/30
f 31/13/31 33/27/33 32/14/32
f 35/26/35 36/31/36 33/27/33
f 34/28/34 36/71/36 35/29/35
f 34/26/34 29/13/29 30/27/30
f 40/14/40 42/27/42 41/13/41
f 44/1/44 45/22/45 42/4/42
f 43/2/43 45/22/45 44/1/44
f 47/21/47 48/23/48 45/22/45
f 46/32/46 48/36/48 47/33/47
f 46/32/46 41/54/41 42/35/42
f 84/37/84 86/41/86 85/38/85
f 88/40/88 89/43/89 86/41/86
f 87/38/87 89/41/89 88/37/88
f 91/48/91 92/44/92 89/41/89
f 90/6/90 92/12/92 91/9/91
f 85/38/85 86/41/86 92/44/92
f 96/45/96 98/50/98 97/46/97
f 100/37/100 101/41/101 98/43/98
f 99/38/99 101/41/101 100/37/100
f 103/48/103 104/44/104 101/41/101
f 102/16/102 104/70/104 103/19/103
f 102/16/102 97/18/97 98/17/98
f 108/45/108 110/50/110 109/46/109
f 112/52/112 113/53/113 110/50/110
f 111/46/111 113/50/113 112/45/112
f 115/49/115 116/51/116 113/50/113
f 114/29/114 116/71/116 115/28/115
f 114/49/114 109/46/109 110/50/110
f 120/46/120 122/50/122 121/45/121
f 124/49/124 125/51/125 122/50/122
f 123/33/123 125/36/125 124/32/124
f 127/38/127 128/41/128 125/44/125
f 126/37/126 128/41/128 127/38/127
f 126/37/126 121/40/121 122/43/122
f 1/3/1 5/2/5 16/13/16
f 5/42/5 10/9/10 20/16/20
f 10/9/10 3/10/3 14/20/14
f 37/15/37 41/13/41 7/2/7
f 41/54/41 46/32/46 11/6/11
f 46/32/46 39/34/39 3/10/3
f 25/15/25 29/13/29 43/2/43
f 29/13/29 34/26/34 47/21/47
f 34/28/34 27/30/27 39/34/39
f 15/3/15 23/2/23 31/13/31
f 23/2/23 19/21/19 35/26/35
f 19/19/19 14/20/14 27/30/27
f 49/55/49 51/56/51 22/1/22
f 51/56/51 52/66/52 17/5/17
f 17/14/17 52/58/52 50/57/50
f 54/57/54 26/15/26 32/14/32
f 32/14/32 28/25/28 55/59/55
f 28/14/28 25/15/25 53/57/53
f 81/39/81 85/38/85 120/46/120
f 85/8/85 90/6/90 124/32/124
f 90/6/90 83/10/83 118/34/118
f 93/47/93 97/46/97 87/38/87
f 97/18/97 102/16/102 91/9/91
f 102/16/102 95/20/95 83/10/83
f 105/47/105 109/46/109 99/38/99
f 109/46/109 114/49/114 103/48/103
f 114/29/114 107/30/107 95/20/95
f 119/39/119 127/38/127 111/46/111
f 127/38/127 123/48/123 115/49/115
f 123/33/123 118/34/118 107/30/107
f 65/60/65 67/62/67 84/37/84
f 84/37/84 67/62/67 68/61/68
f 88/37/88 68/62/68 66/60/66
f 70/60/70 94/39/94 100/37/100
f 100/37/100 96/40/96 71/61/71
f 96/45/96 93/47/93 69/63/69
f 73/63/73 75/64/75 108/45/108
f 75/64/75 76/65/76 112/52/112
f 112/45/112 76/64/76 74/63/74
f 78/63/78 117/47/117 121/45/121
f 121/40/121 126/37/126 79/62/79
f 126/37/126 119/39/119 77/60/77
f 58/55/58 2/3/2 8/1/8
f 60/56/60 8/1/8 4/5/4
f 4/1/4 1/3/1 57/55/57
f 61/57/61 63/58/63 40/14/40
f 63/58/63 64/59/64 44/25/44
f 44/1/44 64/56/64 62/55/62
f 58/55/58 60/56/60 67/62/67
f 60/56/60 59/66/59 68/61/68
f 59/56/59 57/55/57 66/60/66
f 70/60/70 72/62/72 51/56/51
f 72/62/72 71/61/71 52/66/52
f 71/64/71 69/63/69 50/57/50
f 54/57/54 56/58/56 75/64/75
f 56/58/56 55/59/55 76/65/76
f 55/58/55 53/57/53 74/63/74
f 78/63/78 80/64/80 63/58/63
f 80/64/80 79/65/79 64/59/64
f 79/62/79 77/60/77 62/55/62
f 13/15/13 50/57/50 57/55/57
f 39/34/39 27/30/27 14/20/14
f 58/55/58 61/57/61 37/15/37
f 26/15/26 54/57/54 49/55/49
f 38/3/38 62/55/62 53/57/53
f 54/57/54 73/63/73 70/60/70
f 61/68/61 58/72/58 57/55/57
f 58/72/58 60/73/60 57/55/57
f 60/73/60 59/74/59 57/55/57
f 57/55/57 50/57/50 49/67/49
f 50/57/50 52/75/52 49/67/49
f 52/75/52 51/76/51 49/67/49
f 49/67/49 54/69/54 53/63/53
f 54/69/54 56/77/56 53/63/53
f 56/77/56 55/78/55 53/63/53
f 53/63/53 62/60/62 61/68/61
f 62/60/62 64/79/64 61/68/61
f 64/79/64 63/80/63 61/68/61
f 61/68/61 57/55/57 49/67/49
f 50/57/50 69/63/69 66/60/66
f 62/55/62 77/60/77 74/63/74
f 65/60/65 78/63/78 61/57/61
f 69/63/69 93/47/93 82/39/82
f 69/57/69 66/55/66 65/72/65
f 66/55/66 68/74/68 65/72/65
f 68/74/68 67/73/67 65/72/65
f 65/72/65 78/68/78 77/60/77
f 78/68/78 80/80/80 77/60/77
f 80/80/80 79/79/79 77/60/77
f 77/60/77 74/63/74 73/69/73
f 74/63/74 76/78/76 73/69/73
f 76/78/76 75/77/75 73/69/73
f 73/69/73 70/67/70 69/57/69
f 70/67/70 72/76/72 69/57/69
f 72/76/72 71/75/71 69/57/69
f 69/57/69 65/72/65 77/60/77
f 81/39/81 117/47/117 78/63/78
f 73/63/73 105/47/105 94/39/94
f 77/60/77 119/39/119 106/47/106
f 95/20/95 107/30/107 118/34/118
