# Blender 4.1.1
# www.blender.org
mtllib __clay_block_09_39.mtl
o clay_block_39
v 0.500000 1.500000 -0.500000
v 0.500000 1.500000 0.500000
v -0.500000 1.500000 -0.500000
v -0.500000 1.500000 0.500000
v -0.350000 -0.350000 0.500000
v -0.500000 -0.350000 0.350000
v -0.350000 -0.500000 0.350000
v -0.424902 -0.350000 0.479961
v -0.350000 -0.424902 0.479961
v -0.421732 -0.421732 0.460495
v -0.479961 -0.424902 0.350000
v -0.479961 -0.350000 0.424902
v -0.460495 -0.421732 0.421732
v -0.350000 -0.479961 0.424902
v -0.424902 -0.479961 0.350000
v -0.421732 -0.460495 0.421732
v 0.350000 -0.350000 0.500000
v 0.350000 -0.500000 0.350000
v 0.500000 -0.350000 0.350000
v 0.350000 -0.424902 0.479961
v 0.424902 -0.350000 0.479961
v 0.421732 -0.421732 0.460495
v 0.424902 -0.479961 0.350000
v 0.350000 -0.479961 0.424902
v 0.421732 -0.460495 0.421732
v 0.479961 -0.350000 0.424902
v 0.479961 -0.424902 0.350000
v 0.460495 -0.421732 0.421732
v 0.350000 -0.350000 -0.500000
v 0.500000 -0.350000 -0.350000
v 0.350000 -0.500000 -0.350000
v 0.424902 -0.350000 -0.479961
v 0.350000 -0.424902 -0.479961
v 0.421732 -0.421732 -0.460495
v 0.479961 -0.424902 -0.350000
v 0.479961 -0.350000 -0.424902
v 0.460495 -0.421732 -0.421732
v 0.350000 -0.479961 -0.424902
v 0.424902 -0.479961 -0.350000
v 0.421732 -0.460495 -0.421732
v -0.500000 -0.350000 -0.350000
v -0.350000 -0.350000 -0.500000
v -0.350000 -0.500000 -0.350000
v -0.479961 -0.350000 -0.424902
v -0.479961 -0.424902 -0.350000
v -0.460495 -0.421732 -0.421732
v -0.350000 -0.424902 -0.479961
v -0.424902 -0.350000 -0.479961
v -0.421732 -0.421732 -0.460495
v -0.424902 -0.479961 -0.350000
v -0.350000 -0.479961 -0.424902
v -0.421732 -0.460495 -0.421732
v -0.350000 0.650000 0.500000
v -0.500000 0.500000 0.350000
v -0.425000 0.575000 0.479904
v -0.479904 0.520096 0.425000
v 0.350000 0.650000 -0.500000
v 0.500000 0.500000 -0.350000
v 0.425000 0.575000 -0.479904
v 0.479904 0.520096 -0.425000
v 1.500000 0.650000 0.350000
v 1.350000 0.650000 0.500000
v 1.350000 0.500000 0.350000
v 1.479960 0.650000 0.424902
v 1.479960 0.575098 0.350000
v 1.460495 0.578268 0.421732
v 1.350000 0.575098 0.479961
v 1.424901 0.650000 0.479961
v 1.421732 0.578268 0.460495
v 1.424901 0.520039 0.350000
v 1.350000 0.520039 0.424902
v 1.421732 0.539505 0.421732
v 1.500000 0.650000 -0.350000
v 1.350000 0.500000 -0.350000
v 1.350000 0.650000 -0.500000
v 1.479960 0.575098 -0.350000
v 1.479960 0.650000 -0.424902
v 1.460495 0.578268 -0.421732
v 1.350000 0.520039 -0.424902
v 1.424901 0.520039 -0.350000
v 1.421732 0.539505 -0.421732
v 1.424901 0.650000 -0.479961
v 1.350000 0.575098 -0.479961
v 1.421732 0.578268 -0.460495
v 0.500000 0.500000 0.350000
v 0.350000 0.650000 0.500000
v 0.479904 0.520096 0.425000
v 0.425000 0.575000 0.479904
v -1.350000 0.500000 0.350000
v -1.350000 0.650000 0.500000
v -1.500000 0.650000 0.350000
v -1.350000 0.520039 0.424902
v -1.424901 0.520039 0.350000
v -1.421732 0.539505 0.421732
v -1.424901 0.650000 0.479961
v -1.350000 0.575098 0.479961
v -1.421732 0.578268 0.460495
v -1.479960 0.575098 0.350000
v -1.479960 0.650000 0.424902
v -1.460495 0.578268 0.421732
v -0.350000 0.650000 -0.500000
v -0.500000 0.500000 -0.350000
v -0.425000 0.575000 -0.479904
v -0.479904 0.520096 -0.425000
v -1.500000 0.650000 -0.350000
v -1.350000 0.650000 -0.500000
v -1.350000 0.500000 -0.350000
v -1.479960 0.650000 -0.424902
v -1.479960 0.575098 -0.350000
v -1.460495 0.578268 -0.421732
v -1.350000 0.575098 -0.479961
v -1.424901 0.650000 -0.479961
v -1.421732 0.578268 -0.460495
v -1.424901 0.520039 -0.350000
v -1.350000 0.520039 -0.424902
v -1.421732 0.539505 -0.421732
v -1.350000 1.500000 0.500000
v -1.500000 1.500000 0.350000
v -1.425000 1.500000 0.479904
v -1.479904 1.500000 0.425000
v -1.500000 1.500000 -0.350000
v -1.350000 1.500000 -0.500000
v -1.479904 1.500000 -0.425000
v -1.425000 1.500000 -0.479904
v 1.350000 1.500000 0.500000
v 1.500000 1.500000 0.350000
v 1.425000 1.500000 0.479904
v 1.479904 1.500000 0.425000
v 1.500000 1.500000 -0.350000
v 1.350000 1.500000 -0.500000
v 1.479904 1.500000 -0.425000
v 1.425000 1.500000 -0.479904
v 1.350000 2.500000 0.350000
v 1.350000 2.350000 0.500000
v 1.500000 2.350000 0.350000
v 1.350000 2.479960 0.424902
v 1.424901 2.479960 0.350000
v 1.421732 2.460495 0.421732
v 1.424901 2.350000 0.479961
v 1.350000 2.424901 0.479961
v 1.421732 2.421732 0.460495
v 1.479960 2.424901 0.350000
v 1.479960 2.350000 0.424902
v 1.460495 2.421732 0.421732
v 1.350000 2.500000 -0.350000
v 1.500000 2.350000 -0.350000
v 1.350000 2.350000 -0.500000
v 1.424901 2.479960 -0.350000
v 1.350000 2.479960 -0.424902
v 1.421732 2.460495 -0.421732
v 1.479960 2.350000 -0.424902
v 1.479960 2.424901 -0.350000
v 1.460495 2.421732 -0.421732
v 1.350000 2.424901 -0.479961
v 1.424901 2.350000 -0.479961
v 1.421732 2.421732 -0.460495
v -0.500000 2.500000 0.350000
v -0.500000 2.350000 0.500000
v -0.500000 2.479904 0.425000
v -0.500000 2.425000 0.479904
v 0.500000 2.350000 0.500000
v 0.500000 2.500000 0.350000
v 0.500000 2.425000 0.479904
v 0.500000 2.479904 0.425000
v 0.500000 2.500000 -0.350000
v 0.500000 2.350000 -0.500000
v 0.500000 2.479904 -0.425000
v 0.500000 2.425000 -0.479904
v -0.500000 2.350000 -0.500000
v -0.500000 2.500000 -0.350000
v -0.500000 2.425000 -0.479904
v -0.500000 2.479904 -0.425000
v -1.500000 2.350000 0.350000
v -1.350000 2.350000 0.500000
v -1.350000 2.500000 0.350000
v -1.479960 2.350000 0.424902
v -1.479960 2.424901 0.350000
v -1.460495 2.421732 0.421732
v -1.350000 2.424901 0.479961
v -1.424901 2.350000 0.479961
v -1.421732 2.421732 0.460495
v -1.424901 2.479960 0.350000
v -1.350000 2.479960 0.424902
v -1.421732 2.460495 0.421732
v -1.500000 2.350000 -0.350000
v -1.350000 2.500000 -0.350000
v -1.350000 2.350000 -0.500000
v -1.479960 2.424901 -0.350000
v -1.479960 2.350000 -0.424902
v -1.460495 2.421732 -0.421732
v -1.350000 2.479960 -0.424902
v -1.424901 2.479960 -0.350000
v -1.421732 2.460495 -0.421732
v -1.424901 2.350000 -0.479961
v -1.350000 2.424901 -0.479961
v -1.421732 2.421732 -0.460495
vn -0.3997 0.4377 -0.8054
vn -0.3996 0.4377 0.8054
vn -0.4114 0.3785 -0.8291
vn -0.4114 0.3785 0.8291
vn -0.1280 -0.1280 0.9835
vn -0.9835 -0.1280 0.1280
vn -0.1280 -0.9835 0.1280
vn -0.4916 -0.1216 0.8623
vn -0.1216 -0.4916 0.8623
vn -0.4488 -0.4488 0.7727
vn -0.8623 -0.4916 0.1216
vn -0.8623 -0.1216 0.4916
vn -0.7727 -0.4488 0.4488
vn -0.1216 -0.8623 0.4916
vn -0.4916 -0.8623 0.1216
vn -0.4488 -0.7727 0.4488
vn 0.1280 -0.1280 0.9835
vn 0.1280 -0.9835 0.1280
vn 0.9835 -0.1280 0.1280
vn 0.1216 -0.4916 0.8623
vn 0.4916 -0.1216 0.8623
vn 0.4488 -0.4488 0.7727
vn 0.4916 -0.8623 0.1216
vn 0.1216 -0.8623 0.4916
vn 0.4488 -0.7727 0.4488
vn 0.8623 -0.1216 0.4916
vn 0.8623 -0.4916 0.1216
vn 0.7727 -0.4488 0.4488
vn 0.1280 -0.1280 -0.9835
vn 0.9835 -0.1280 -0.1280
vn 0.1280 -0.9835 -0.1280
vn 0.4916 -0.1216 -0.8623
vn 0.1216 -0.4916 -0.8623
vn 0.4488 -0.4488 -0.7727
vn 0.8623 -0.4916 -0.1216
vn 0.8623 -0.1216 -0.4916
vn 0.7727 -0.4488 -0.4488
vn 0.1216 -0.8623 -0.4916
vn 0.4916 -0.8623 -0.1216
vn 0.4488 -0.7727 -0.4488
vn -0.9835 -0.1280 -0.1280
vn -0.1280 -0.1280 -0.9835
vn -0.1280 -0.9835 -0.1280
vn -0.8623 -0.1216 -0.4916
vn -0.8623 -0.4916 -0.1216
vn -0.7727 -0.4488 -0.4488
vn -0.1216 -0.4916 -0.8623
vn -0.4916 -0.1216 -0.8623
vn -0.4488 -0.4488 -0.7727
vn -0.4916 -0.8623 -0.1216
vn -0.1216 -0.8623 -0.4916
vn -0.4488 -0.7727 -0.4488
vn -0.3778 0.3246 0.8671
vn -0.9542 -0.2463 0.1700
vn -0.4765 0.0950 0.8740
vn -0.7635 -0.1680 0.6236
vn -0.2274 0.2986 -0.9269
vn 0.7747 -0.6015 -0.1949
vn 0.4765 0.0950 -0.8740
vn 0.7635 -0.1680 -0.6236
vn 0.5894 -0.7968 0.1328
vn -0.3864 0.1794 0.9047
vn 0.5135 -0.5135 0.6875
vn 0.2085 -0.2085 0.9555
vn -0.4992 0.3859 -0.7758
vn -0.9789 0.1898 -0.0756
vn -0.6244 0.3119 -0.7161
vn -0.8574 0.1049 -0.5038
vn -0.1185 0.4196 0.8999
vn -0.8999 0.4196 0.1185
vn -0.4591 0.3961 0.7952
vn -0.7952 0.3961 0.4591
vn -0.8999 0.4196 -0.1185
vn -0.1185 0.4196 -0.8999
vn -0.7952 0.3961 -0.4591
vn -0.4591 0.3961 -0.7952
vn 0.1185 0.4196 0.8999
vn 0.8999 0.4196 0.1185
vn 0.4591 0.3961 0.7952
vn 0.7952 0.3961 0.4591
vn 0.8999 0.4196 -0.1185
vn 0.1185 0.4196 -0.8999
vn 0.7952 0.3961 -0.4591
vn 0.4591 0.3961 -0.7952
vn 0.1280 0.9835 0.1280
vn 0.1280 0.1280 0.9835
vn 0.9835 0.1280 0.1280
vn 0.1216 0.8623 0.4916
vn 0.4916 0.8623 0.1216
vn 0.4488 0.7727 0.4488
vn 0.4916 0.1216 0.8623
vn 0.1216 0.4916 0.8623
vn 0.4488 0.4488 0.7727
vn 0.8623 0.4916 0.1216
vn 0.8623 0.1216 0.4916
vn 0.7727 0.4488 0.4488
vn 0.1280 0.9835 -0.1280
vn 0.9835 0.1280 -0.1280
vn 0.1280 0.1280 -0.9835
vn 0.4916 0.8623 -0.1216
vn 0.1216 0.8623 -0.4916
vn 0.4488 0.7727 -0.4488
vn 0.8623 0.1216 -0.4916
vn 0.8623 0.4916 -0.1216
vn 0.7727 0.4488 -0.4488
vn 0.1216 0.4916 -0.8623
vn 0.4916 0.1216 -0.8623
vn 0.4488 0.4488 -0.7727
vn -0.4196 0.8999 0.1185
vn -0.4196 0.1185 0.8999
vn -0.3961 0.7952 0.4591
vn -0.3961 0.4591 0.7952
vn -0.4196 0.8999 -0.1185
vn -0.4196 0.1185 -0.8999
vn -0.3961 0.7952 -0.4591
vn -0.3961 0.4591 -0.7952
vn -0.9835 0.1280 0.1280
vn -0.1280 0.1280 0.9835
vn -0.1280 0.9835 0.1280
vn -0.8623 0.1216 0.4916
vn -0.8623 0.4916 0.1216
vn -0.7727 0.4488 0.4488
vn -0.1216 0.4916 0.8623
vn -0.4916 0.1216 0.8623
vn -0.4488 0.4488 0.7727
vn -0.4916 0.8623 0.1216
vn -0.1216 0.8623 0.4916
vn -0.4488 0.7727 0.4488
vn -0.9835 0.1280 -0.1280
vn -0.1280 0.9835 -0.1280
vn -0.1280 0.1280 -0.9835
vn -0.8623 0.4916 -0.1216
vn -0.8623 0.1216 -0.4916
vn -0.7727 0.4488 -0.4488
vn -0.1216 0.8623 -0.4916
vn -0.4916 0.8623 -0.1216
vn -0.4488 0.7727 -0.4488
vn -0.4916 0.1216 -0.8623
vn -0.1216 0.4916 -0.8623
vn -0.4488 0.4488 -0.7727
vt -0.350000 0.500000
vt 0.350000 -0.350000
vt -0.350000 -0.350000
vt -1.350000 0.650000
vt -0.500000 1.500000
vt -1.350000 1.500000
vt -0.350000 0.350000
vt -1.350000 0.350000
vt -0.500000 -0.350000
vt -1.350000 -0.350000
vt 0.350000 0.650000
vt 1.350000 0.650000
vt 0.500000 1.500000
vt 1.350000 1.500000
vt 0.500000 2.350000
vt -0.350000 1.500000
vt -0.350000 0.650000
vt 0.500000 -0.500000
vt -0.500000 0.500000
vt -0.500000 -0.500000
vt 0.500000 -0.350000
vt 0.350000 0.500000
vt -0.500000 0.350000
vt 0.500000 0.350000
vt 1.350000 -0.350000
vt -0.500000 2.350000
vt -0.479904 0.425000
vt -0.350000 2.350000
vt 0.350000 1.500000
vt 1.350000 2.350000
vt 1.350000 0.500000
vt 1.350000 -0.500000
vt 1.500000 0.350000
vt 0.350000 2.500000
vt -1.425000 0.479904
vt -1.479904 0.425000
vt -1.500000 0.350000
vt -1.350000 2.350000
vt -0.424902 -0.350000
vt -0.350000 -0.424902
vt -0.460495 -0.421732
vt -0.479961 -0.350000
vt -0.350000 -0.479961
vt -0.421732 -0.421732
vt -0.421732 -0.460495
vt 0.350000 -0.424902
vt 0.424902 -0.350000
vt 0.421732 -0.460495
vt 0.350000 -0.479961
vt 0.460495 -0.421732
vt 0.479961 -0.350000
vt 0.424902 0.350000
vt 0.460495 0.421732
vt 0.479961 0.350000
vt 0.350000 0.424902
vt 0.350000 0.350000
vt 0.421732 -0.421732
vt -0.350000 0.424902
vt -0.421732 0.460495
vt -0.350000 0.479961
vt -0.424902 0.350000
vt -0.424902 0.650000
vt -0.350000 0.575098
vt -0.479961 0.650000
vt -0.421732 0.578268
vt 1.350000 0.575098
vt 1.424901 0.650000
vt 1.350000 -0.424902
vt 1.421732 -0.460495
vt 1.350000 -0.479961
vt 1.424901 -0.350000
vt -0.421732 0.539505
vt -0.350000 0.520039
vt 1.460495 -0.421732
vt 1.421732 -0.421732
vt 0.350000 0.575098
vt 0.424902 0.650000
vt 1.479960 0.350000
vt 1.421732 0.421732
vt 1.460495 0.421732
vt 1.350000 0.424902
vt 1.424901 0.350000
vt 1.350000 0.350000
vt 1.421732 0.460495
vt 1.460495 0.578268
vt 1.421732 0.578268
vt -1.350000 -0.424902
vt -1.424901 -0.350000
vt -1.421732 -0.460495
vt -1.421732 -0.421732
vt -1.424901 0.650000
vt -1.350000 0.575098
vt -1.460495 0.578268
vt -1.421732 0.578268
vt -1.479960 -0.350000
vt -1.460495 -0.421732
vt 0.479961 0.650000
vt 0.421732 0.578268
vt -1.350000 0.424902
vt -1.421732 0.460495
vt -1.350000 0.479961
vt -1.424901 0.350000
vt 0.421732 0.539505
vt 0.350000 0.520039
vt -1.460495 0.421732
vt -1.421732 0.421732
vt 1.424901 2.350000
vt 1.350000 2.424901
vt -0.424902 2.350000
vt -0.460495 2.421732
vt -0.479961 2.350000
vt -0.350000 2.424901
vt -0.350000 2.479960
vt -0.421732 2.421732
vt 0.424902 2.350000
vt 0.350000 2.424901
vt 0.350000 2.350000
vt 0.479961 2.350000
vt 0.421732 2.421732
vt 1.350000 0.479961
vt -1.350000 2.424901
vt -1.424901 2.350000
vt -1.350000 -0.479961
vt 0.350000 2.479960
vt 0.460495 2.421732
vt -0.425000 0.520096
vt -0.479904 0.520096
vt -0.425000 0.575000
vt 0.425000 0.520096
vt 0.479904 0.520096
vt 0.425000 0.575000
vt -0.425000 1.500000
vt -0.479904 1.500000
vt -1.425000 1.500000
vt 0.425000 1.500000
vt 1.425000 1.500000
vt -0.500000 2.425000
vt 0.500000 -0.479904
vt -0.500000 -0.425000
vt -0.500000 -0.479904
vt 0.500000 -0.425000
vt 0.500000 2.425000
vt -0.500000 0.479904
vt 0.500000 0.425000
vt 0.500000 0.479904
vt -0.500000 0.425000
vt 0.479904 -0.425000
vt 0.479904 0.425000
vt 0.479904 1.500000
vt -0.479904 -0.425000
vt 0.500000 0.500000
vt -0.350000 -0.500000
vt -0.425000 -0.479904
vt 0.350000 -0.500000
vt 0.425000 -0.479904
vt -0.479904 0.575000
vt 0.425000 0.479904
vt -0.425000 0.479904
vt 0.479904 0.575000
vt -0.500000 0.650000
vt 0.500000 0.650000
vt 1.425000 -0.479904
vt 1.479904 -0.425000
vt 1.500000 -0.350000
vt 1.479904 0.425000
vt 1.425000 0.479904
vt -0.479904 2.425000
vt -0.425000 2.479904
vt -0.350000 2.500000
vt 0.425000 2.479904
vt 0.479904 2.425000
vt -1.500000 -0.350000
vt -1.350000 -0.500000
vt -1.479904 -0.425000
vt -1.425000 -0.479904
vt -1.350000 0.500000
vt 0.421732 0.421732
vt -0.421732 0.421732
vt 1.479960 -0.350000
vt -1.479960 0.350000
vt 1.421732 2.421732
vt 1.479960 2.350000
vt 1.460495 2.421732
vt -1.421732 2.421732
vt -1.460495 2.421732
vt -1.479960 2.350000
s 1
usemtl ClayMat_39
f 54/1/54 41/2/41 6/3/6
f 90/4/5 4/5/4 117/6/69
f 43/7/43 18/2/18 7/3/7
f 107/8/43 54/9/54 89/10/7
f 42/3/42 57/11/57 29/2/29
f 30/2/30 85/1/61 19/3/19
f 75/12/29 1/13/1 130/14/82
f 125/14/77 161/15/110 2/13/2
f 118/16/70 105/11/41 91/17/6
f 73/11/30 126/16/78 61/17/19
f 62/12/17 2/13/2 86/11/62
f 101/17/65 1/13/1 57/11/57
f 2/18/2 3/19/3 4/20/4
f 85/21/61 57/22/57 102/23/66
f 58/24/58 63/25/18 85/21/61
f 86/11/62 4/5/4 53/17/53
f 122/6/74 169/26/114 3/5/3
f 104/27/68 102/23/66 101/1/65
f 173/28/117 121/29/73 118/16/70
f 106/4/42 3/5/3 101/17/65
f 157/9/109 186/8/130 175/10/119
f 1/13/1 147/30/99 130/14/82
f 133/25/85 165/24/113 162/21/109
f 130/31/82 125/32/77 129/33/81
f 3/5/3 166/15/114 1/13/1
f 2/13/2 158/26/110 4/5/4
f 166/15/114 161/26/110 165/34/113
f 162/21/109 170/23/113 157/9/109
f 169/15/114 158/26/110 170/34/113
f 124/35/76 123/36/75 121/37/73
f 129/29/81 135/28/87 126/16/78
f 4/5/4 174/38/118 117/6/69
f 8/39/8 9/40/9 5/3/5
f 12/39/12 10/41/10 8/42/8
f 11/40/11 12/39/12 6/3/6
f 15/39/15 13/41/13 11/42/11
f 14/40/14 15/39/15 7/3/7
f 14/43/14 10/44/10 16/45/16
f 10/41/10 13/44/13 16/45/16
f 20/46/20 21/47/21 17/2/17
f 24/46/24 22/48/22 20/49/20
f 23/47/23 24/46/24 18/2/18
f 23/43/23 28/44/28 25/45/25
f 26/39/26 27/40/27 19/3/19
f 21/47/21 28/50/28 26/51/26
f 22/41/22 25/45/25 28/44/28
f 32/47/32 33/46/33 29/2/29
f 36/47/36 34/50/34 32/51/32
f 35/46/35 36/47/36 30/2/30
f 39/52/39 37/53/37 35/54/35
f 38/55/38 39/52/39 31/56/31
f 38/49/38 34/57/34 40/48/40
f 34/50/34 37/57/37 40/48/40
f 44/47/44 45/46/45 41/2/41
f 48/39/48 46/41/46 44/42/44
f 47/40/47 48/39/48 42/3/42
f 51/58/51 49/59/49 47/60/47
f 50/61/50 51/58/51 43/7/43
f 50/49/50 46/57/46 52/48/52
f 46/57/46 49/50/49 52/48/52
f 64/62/26 65/63/27 61/17/19
f 68/64/21 66/65/28 64/62/26
f 67/66/20 68/67/21 62/12/17
f 71/68/24 69/69/22 67/70/20
f 70/71/23 71/68/24 63/25/18
f 65/63/27 72/72/25 70/73/23
f 66/74/28 69/69/22 72/75/25
f 76/76/35 77/77/36 73/11/30
f 76/78/35 81/79/40 78/80/37
f 79/81/38 80/82/39 74/83/31
f 79/81/38 84/84/34 81/79/40
f 82/67/32 83/66/33 75/12/29
f 82/67/32 78/85/37 84/86/34
f 78/80/37 81/79/40 84/84/34
f 92/87/14 93/88/15 89/10/7
f 92/87/14 97/89/10 94/90/16
f 95/91/8 96/92/9 90/4/5
f 95/91/8 100/93/13 97/94/10
f 98/63/11 99/62/12 91/17/6
f 98/95/11 94/90/16 100/96/13
f 94/90/16 97/89/10 100/96/13
f 108/77/44 109/76/45 105/11/41
f 112/97/48 110/98/46 108/77/44
f 111/92/47 112/91/48 106/4/42
f 115/99/51 113/100/49 111/101/47
f 114/102/50 115/99/51 107/8/43
f 109/76/45 116/103/52 114/104/50
f 110/105/46 113/100/49 116/106/52
f 136/68/88 137/71/89 133/25/85
f 136/68/88 141/69/93 138/75/90
f 139/107/91 140/108/92 134/30/86
f 143/109/95 141/110/93 139/111/91
f 142/112/94 143/109/95 135/28/87
f 137/113/89 144/114/96 142/112/94
f 138/75/90 141/69/93 144/74/96
f 148/82/100 149/81/101 145/83/97
f 148/82/100 153/80/105 150/79/102
f 151/115/103 152/116/104 146/117/98
f 155/118/107 153/119/105 151/115/103
f 154/108/106 155/107/107 147/30/99
f 149/81/101 156/84/108 154/120/106
f 150/79/102 153/80/105 156/84/108
f 176/109/120 177/112/121 173/28/117
f 180/111/124 178/114/122 176/109/120
f 179/121/123 180/122/124 174/38/118
f 183/87/127 181/89/125 179/123/123
f 182/88/126 183/87/127 175/10/119
f 182/88/126 178/96/122 184/90/128
f 178/96/122 181/89/125 184/90/128
f 188/116/132 189/115/133 185/117/129
f 192/124/136 190/119/134 188/116/132
f 191/99/135 192/102/136 186/8/130
f 191/99/135 196/100/140 193/106/137
f 194/122/138 195/121/139 187/38/131
f 189/115/133 196/125/140 194/118/138
f 190/105/134 193/106/137 196/100/140
f 5/3/5 20/46/20 17/2/17
f 9/40/9 24/49/24 20/46/20
f 14/40/14 18/2/18 24/46/24
f 41/2/41 11/40/11 6/3/6
f 45/46/45 15/43/15 11/40/11
f 50/61/50 7/3/7 15/39/15
f 29/2/29 47/40/47 42/3/42
f 33/46/33 51/43/51 47/40/47
f 38/55/38 43/7/43 51/58/51
f 19/3/19 35/46/35 30/2/30
f 27/40/27 39/49/39 35/46/35
f 23/47/23 31/56/31 39/52/39
f 54/1/54 12/39/12 56/126/56
f 56/127/56 8/39/8 55/128/55
f 55/128/55 5/3/5 53/17/53
f 58/22/58 36/47/36 60/129/60
f 60/130/60 32/47/32 59/131/59
f 59/131/59 29/2/29 57/11/57
f 61/17/19 76/76/35 73/11/30
f 65/63/27 80/104/39 76/76/35
f 70/71/23 74/83/31 80/82/39
f 105/11/41 98/63/11 91/17/6
f 109/76/45 93/73/15 98/63/11
f 114/102/50 89/10/7 93/88/15
f 106/4/42 103/128/67 111/92/47
f 111/101/47 104/27/68 115/99/51
f 115/99/51 102/23/66 107/8/43
f 118/16/70 99/62/12 120/132/72
f 120/132/72 95/64/8 119/133/71
f 95/91/8 117/6/69 119/134/71
f 121/29/73 108/77/44 105/11/41
f 123/135/75 112/97/48 108/77/44
f 112/91/48 122/6/74 106/4/42
f 146/117/98 142/112/94 135/28/87
f 152/116/104 137/113/89 142/112/94
f 148/82/100 133/25/85 137/71/89
f 126/16/78 143/109/95 128/132/80
f 143/109/95 127/133/79 128/132/80
f 139/107/91 125/14/77 127/136/79
f 129/29/81 151/115/103 146/117/98
f 131/135/83 155/118/107 151/115/103
f 155/107/107 130/14/82 147/30/99
f 161/15/110 160/137/112 158/26/110
f 163/138/112 159/139/111 160/140/112
f 164/141/111 157/9/109 159/139/111
f 169/26/114 168/142/116 166/15/114
f 171/143/116 167/144/115 168/145/116
f 172/146/115 165/24/113 167/144/115
f 173/28/117 188/116/132 185/117/129
f 177/112/121 192/124/136 188/116/132
f 182/88/126 186/8/130 192/102/136
f 85/1/61 26/39/26 19/3/19
f 87/126/63 21/42/21 26/39/26
f 88/131/64 17/2/17 21/47/21
f 102/22/66 44/47/44 41/2/41
f 104/129/68 48/51/48 44/47/44
f 103/128/67 42/3/42 48/39/48
f 62/12/17 88/131/64 67/66/20
f 67/70/20 87/147/63 71/68/24
f 71/68/24 85/21/61 63/25/18
f 75/12/29 59/131/59 57/11/57
f 83/66/33 60/130/60 59/131/59
f 79/81/38 58/24/58 60/148/60
f 126/16/78 64/62/26 61/17/19
f 128/132/80 68/64/21 64/62/26
f 68/67/21 125/14/77 62/12/17
f 129/29/81 77/77/36 131/135/83
f 131/135/83 82/97/32 132/149/84
f 82/67/32 130/14/82 132/136/84
f 90/4/5 55/128/55 53/17/53
f 96/92/9 56/127/56 55/128/55
f 92/87/14 54/9/54 56/150/56
f 161/15/110 140/108/92 163/142/112
f 163/138/112 136/68/88 164/141/111
f 136/68/88 162/21/109 164/141/111
f 166/15/114 154/108/106 147/30/99
f 168/145/116 149/81/101 154/120/106
f 149/81/101 165/24/113 145/83/97
f 158/26/110 179/121/123 174/38/118
f 160/140/112 183/87/127 179/123/123
f 183/87/127 157/9/109 175/10/119
f 169/26/114 195/121/139 171/137/116
f 171/143/116 191/99/135 172/146/115
f 191/99/135 170/23/113 172/146/115
f 118/16/70 176/109/120 173/28/117
f 120/132/72 180/111/124 176/109/120
f 180/122/124 117/6/69 174/38/118
f 121/29/73 189/115/133 123/135/75
f 189/115/133 124/149/76 123/135/75
f 194/122/138 122/6/74 124/134/76
f 17/2/17 53/17/53 5/3/5
f 54/1/54 102/22/66 41/2/41
f 90/4/5 53/17/53 4/5/4
f 43/7/43 31/56/31 18/2/18
f 107/8/43 102/23/66 54/9/54
f 42/3/42 101/17/65 57/11/57
f 30/2/30 58/22/58 85/1/61
f 75/12/29 57/11/57 1/13/1
f 125/14/77 134/30/86 161/15/110
f 118/16/70 121/29/73 105/11/41
f 73/11/30 129/29/81 126/16/78
f 62/12/17 125/14/77 2/13/2
f 101/17/65 3/5/3 1/13/1
f 2/18/2 1/151/1 3/19/3
f 102/23/66 54/9/54 53/152/53
f 54/9/54 56/150/56 53/152/53
f 56/150/56 55/153/55 53/152/53
f 53/152/53 86/154/62 85/21/61
f 86/154/62 88/155/64 85/21/61
f 88/156/64 87/126/63 85/1/61
f 85/21/61 58/24/58 57/22/57
f 58/24/58 60/148/60 57/22/57
f 60/148/60 59/157/59 57/22/57
f 57/22/57 101/1/65 102/23/66
f 101/1/65 103/158/67 102/23/66
f 103/159/67 104/129/68 102/22/66
f 102/23/66 53/152/53 85/21/61
f 58/24/58 74/83/31 63/25/18
f 58/24/58 85/21/61 86/154/62
f 85/21/61 87/147/63 86/154/62
f 87/147/63 88/155/64 86/154/62
f 86/160/62 2/5/2 1/13/1
f 1/13/1 57/161/57 86/160/62
f 86/154/62 57/22/57 58/24/58
f 86/11/62 2/13/2 4/5/4
f 122/6/74 187/38/131 169/26/114
f 53/160/53 4/5/4 3/13/3
f 3/13/3 101/161/65 53/160/53
f 101/1/65 103/158/67 104/27/68
f 53/152/53 101/1/65 102/23/66
f 173/28/117 185/117/129 121/29/73
f 106/4/42 122/6/74 3/5/3
f 157/9/109 170/23/113 186/8/130
f 1/13/1 166/15/114 147/30/99
f 133/25/85 145/83/97 165/24/113
f 1/151/1 2/18/2 125/32/77
f 125/32/77 127/162/79 128/163/80
f 128/163/80 126/164/78 125/32/77
f 126/164/78 129/33/81 125/32/77
f 129/33/81 131/165/83 132/166/84
f 132/166/84 130/31/82 129/33/81
f 130/31/82 1/151/1 125/32/77
f 3/5/3 169/26/114 166/15/114
f 2/13/2 161/15/110 158/26/110
f 1/13/1 2/5/2 161/26/110
f 161/26/110 163/167/112 164/168/111
f 164/168/111 162/169/109 161/26/110
f 162/169/109 165/34/113 161/26/110
f 165/34/113 167/170/115 168/171/116
f 168/171/116 166/15/114 165/34/113
f 166/15/114 1/13/1 161/26/110
f 162/21/109 165/24/113 170/23/113
f 3/13/3 4/5/4 158/26/110
f 158/26/110 160/167/112 159/168/111
f 159/168/111 157/169/109 158/26/110
f 157/169/109 170/34/113 158/26/110
f 170/34/113 172/170/115 171/171/116
f 171/171/116 169/15/114 170/34/113
f 169/15/114 3/13/3 158/26/110
f 121/37/73 118/172/70 117/173/69
f 118/172/70 120/174/72 117/173/69
f 120/174/72 119/175/71 117/173/69
f 117/173/69 4/20/4 3/19/3
f 3/19/3 122/176/74 117/173/69
f 122/176/74 124/35/76 121/37/73
f 117/173/69 122/176/74 121/37/73
f 129/29/81 146/117/98 135/28/87
f 4/5/4 158/26/110 174/38/118
f 8/39/8 10/44/10 9/40/9
f 12/39/12 13/44/13 10/41/10
f 11/40/11 13/44/13 12/39/12
f 15/43/15 16/45/16 13/44/13
f 14/40/14 16/44/16 15/39/15
f 14/43/14 9/40/9 10/44/10
f 20/46/20 22/57/22 21/47/21
f 24/49/24 25/48/25 22/57/22
f 23/47/23 25/57/25 24/46/24
f 23/43/23 27/40/27 28/44/28
f 26/39/26 28/44/28 27/40/27
f 21/42/21 22/41/22 28/44/28
f 32/47/32 34/57/34 33/46/33
f 36/47/36 37/57/37 34/50/34
f 35/46/35 37/57/37 36/47/36
f 39/49/39 40/48/40 37/57/37
f 38/55/38 40/177/40 39/52/39
f 38/49/38 33/46/33 34/57/34
f 44/47/44 46/57/46 45/46/45
f 48/51/48 49/50/49 46/57/46
f 47/40/47 49/44/49 48/39/48
f 51/43/51 52/45/52 49/44/49
f 50/61/50 52/178/52 51/58/51
f 50/49/50 45/46/45 46/57/46
f 64/62/26 66/65/28 65/63/27
f 68/67/21 69/86/22 66/85/28
f 67/66/20 69/86/22 68/67/21
f 71/68/24 72/75/25 69/69/22
f 70/71/23 72/75/25 71/68/24
f 65/179/27 66/74/28 72/75/25
f 76/76/35 78/98/37 77/77/36
f 76/76/35 80/104/39 81/103/40
f 79/81/38 81/79/40 80/82/39
f 79/81/38 83/120/33 84/84/34
f 82/67/32 84/86/34 83/66/33
f 82/97/32 77/77/36 78/98/37
f 92/87/14 94/90/16 93/88/15
f 92/87/14 96/123/9 97/89/10
f 95/91/8 97/94/10 96/92/9
f 95/64/8 99/62/12 100/65/13
f 98/63/11 100/65/13 99/62/12
f 98/63/11 93/73/15 94/72/16
f 108/77/44 110/98/46 109/76/45
f 112/91/48 113/94/49 110/93/46
f 111/92/47 113/94/49 112/91/48
f 115/99/51 116/106/52 113/100/49
f 114/102/50 116/106/52 115/99/51
f 109/180/45 110/105/46 116/106/52
f 136/68/88 138/75/90 137/71/89
f 136/68/88 140/70/92 141/69/93
f 139/107/91 141/181/93 140/108/92
f 143/182/95 144/183/96 141/181/93
f 142/112/94 144/114/96 143/109/95
f 137/71/89 138/75/90 144/74/96
f 148/82/100 150/79/102 149/81/101
f 148/124/100 152/116/104 153/119/105
f 151/115/103 153/119/105 152/116/104
f 155/107/107 156/181/108 153/183/105
f 154/108/106 156/181/108 155/107/107
f 149/81/101 150/79/102 156/84/108
f 176/109/120 178/114/122 177/112/121
f 180/122/124 181/184/125 178/185/122
f 179/121/123 181/184/125 180/122/124
f 183/87/127 184/90/128 181/89/125
f 182/88/126 184/90/128 183/87/127
f 182/113/126 177/112/121 178/114/122
f 188/116/132 190/119/134 189/115/133
f 192/102/136 193/106/137 190/105/134
f 191/99/135 193/106/137 192/102/136
f 191/99/135 195/101/139 196/100/140
f 194/122/138 196/184/140 195/121/139
f 189/186/133 190/185/134 196/184/140
f 5/3/5 9/40/9 20/46/20
f 9/40/9 14/43/14 24/49/24
f 14/40/14 7/3/7 18/2/18
f 41/2/41 45/46/45 11/40/11
f 45/46/45 50/49/50 15/43/15
f 50/61/50 43/7/43 7/3/7
f 29/2/29 33/46/33 47/40/47
f 33/46/33 38/49/38 51/43/51
f 38/55/38 31/56/31 43/7/43
f 19/3/19 27/40/27 35/46/35
f 27/40/27 23/43/23 39/49/39
f 23/47/23 18/2/18 31/56/31
f 54/1/54 6/3/6 12/39/12
f 56/126/56 12/39/12 8/42/8
f 55/128/55 8/39/8 5/3/5
f 58/22/58 30/2/30 36/47/36
f 60/129/60 36/47/36 32/51/32
f 59/131/59 32/47/32 29/2/29
f 61/17/19 65/63/27 76/76/35
f 65/63/27 70/73/23 80/104/39
f 70/71/23 63/25/18 74/83/31
f 105/11/41 109/76/45 98/63/11
f 109/76/45 114/104/50 93/73/15
f 114/102/50 107/8/43 89/10/7
f 106/4/42 101/17/65 103/128/67
f 111/92/47 103/128/67 104/127/68
f 115/99/51 104/27/68 102/23/66
f 118/16/70 91/17/6 99/62/12
f 120/132/72 99/62/12 95/64/8
f 95/91/8 90/4/5 117/6/69
f 121/29/73 123/135/75 108/77/44
f 123/135/75 124/149/76 112/97/48
f 112/91/48 124/134/76 122/6/74
f 146/117/98 152/116/104 142/112/94
f 152/116/104 148/124/100 137/113/89
f 148/82/100 145/83/97 133/25/85
f 126/16/78 135/28/87 143/109/95
f 143/109/95 139/111/91 127/133/79
f 139/107/91 134/30/86 125/14/77
f 129/29/81 131/135/83 151/115/103
f 131/135/83 132/149/84 155/118/107
f 155/107/107 132/136/84 130/14/82
f 161/15/110 163/142/112 160/137/112
f 163/138/112 164/141/111 159/139/111
f 164/141/111 162/21/109 157/9/109
f 169/26/114 171/137/116 168/142/116
f 171/143/116 172/146/115 167/144/115
f 172/146/115 170/23/113 165/24/113
f 173/28/117 177/112/121 188/116/132
f 177/112/121 182/113/126 192/124/136
f 182/88/126 175/10/119 186/8/130
f 85/1/61 87/126/63 26/39/26
f 87/130/63 88/131/64 21/47/21
f 88/131/64 86/11/62 17/2/17
f 102/22/66 104/129/68 44/47/44
f 104/127/68 103/128/67 48/39/48
f 103/128/67 101/17/65 42/3/42
f 62/12/17 86/11/62 88/131/64
f 67/66/20 88/131/64 87/130/63
f 71/68/24 87/147/63 85/21/61
f 75/12/29 83/66/33 59/131/59
f 83/120/33 79/81/38 60/148/60
f 79/81/38 74/83/31 58/24/58
f 126/16/78 128/132/80 64/62/26
f 128/132/80 127/133/79 68/64/21
f 68/67/21 127/136/79 125/14/77
f 129/29/81 73/11/30 77/77/36
f 131/135/83 77/77/36 82/97/32
f 82/67/32 75/12/29 130/14/82
f 90/4/5 96/92/9 55/128/55
f 96/123/9 92/87/14 56/150/56
f 92/87/14 89/10/7 54/9/54
f 161/15/110 134/30/86 140/108/92
f 163/138/112 140/70/92 136/68/88
f 136/68/88 133/25/85 162/21/109
f 166/15/114 168/142/116 154/108/106
f 168/145/116 167/144/115 149/81/101
f 149/81/101 167/144/115 165/24/113
f 158/26/110 160/137/112 179/121/123
f 160/140/112 159/139/111 183/87/127
f 183/87/127 159/139/111 157/9/109
f 169/26/114 187/38/131 195/121/139
f 171/143/116 195/101/139 191/99/135
f 191/99/135 186/8/130 170/23/113
f 118/16/70 120/132/72 176/109/120
f 120/132/72 119/133/71 180/111/124
f 180/122/124 119/134/71 117/6/69
f 121/29/73 185/117/129 189/115/133
f 189/115/133 194/118/138 124/149/76
f 194/122/138 187/38/131 122/6/74
f 17/2/17 86/11/62 53/17/53
