# Blender 4.5.3 LTS
# www.blender.org
mtllib __clay_block_02_4.mtl
o clay_block_4
v -0.183333 0.150000 0.333333
v -0.333333 0.150000 0.183333
v -0.183333 0.000000 0.183333
v -0.258235 0.150000 0.313294
v -0.183333 0.075098 0.313294
v -0.255065 0.078268 0.293828
v -0.313294 0.075098 0.183333
v -0.313294 0.150000 0.258235
v -0.293828 0.078268 0.255065
v -0.183333 0.020039 0.258235
v -0.258235 0.020039 0.183333
v -0.255065 0.039505 0.255065
v 0.666667 0.000000 0.183333
v 0.666667 0.150000 0.333333
v 0.666667 0.020096 0.258333
v 0.666667 0.075000 0.313237
v 0.516667 0.000000 -0.516667
v 0.666667 0.150000 -0.666667
v 0.591667 0.020096 -0.591667
v 0.646571 0.075000 -0.646571
v -0.333333 0.150000 -0.666667
v -0.183333 0.000000 -0.666667
v -0.313237 0.075000 -0.666667
v -0.258333 0.020096 -0.666667
v -0.183333 1.000000 0.183333
v -0.333333 0.850000 0.183333
v -0.183333 0.850000 0.333333
v -0.258235 0.979961 0.183333
v -0.183333 0.979961 0.258235
v -0.255065 0.960495 0.255065
v -0.313294 0.850000 0.258235
v -0.313294 0.924902 0.183333
v -0.293828 0.921732 0.255065
v -0.183333 0.924902 0.313294
v -0.258235 0.850000 0.313294
v -0.255065 0.921732 0.293828
v 0.666667 0.850000 0.333333
v 0.666667 1.000000 0.183333
v 0.666667 0.925000 0.313237
v 0.666667 0.979904 0.258333
v 1.516667 0.000000 0.183333
v 1.666667 0.150000 0.183333
v 1.516667 0.150000 0.333333
v 1.591568 0.020039 0.183333
v 1.516667 0.020039 0.258235
v 1.588398 0.039505 0.255065
v 1.646627 0.150000 0.258235
v 1.646627 0.075098 0.183333
v 1.627162 0.078268 0.255065
v 1.516667 0.075098 0.313294
v 1.591568 0.150000 0.313294
v 1.588398 0.078268 0.293828
v 1.516667 0.000000 -0.516667
v 1.516667 0.150000 -0.666667
v 1.666667 0.150000 -0.516667
v 1.516667 0.020039 -0.591568
v 1.591568 0.020039 -0.516667
v 1.588398 0.039505 -0.588398
v 1.591568 0.150000 -0.646627
v 1.516667 0.075098 -0.646627
v 1.588398 0.078268 -0.627162
v 1.646627 0.075098 -0.516667
v 1.646627 0.150000 -0.591568
v 1.627162 0.078268 -0.588398
v 1.516667 1.000000 0.183333
v 1.516667 0.850000 0.333333
v 1.666667 0.850000 0.183333
v 1.516667 0.979961 0.258235
v 1.591568 0.979961 0.183333
v 1.588398 0.960495 0.255065
v 1.591568 0.850000 0.313294
v 1.516667 0.924902 0.313294
v 1.588398 0.921732 0.293828
v 1.646627 0.924902 0.183333
v 1.646627 0.850000 0.258235
v 1.627162 0.921732 0.255065
v 1.516667 1.000000 -0.516667
v 1.666667 0.850000 -0.516667
v 1.516667 0.850000 -0.666667
v 1.591568 0.979961 -0.516667
v 1.516667 0.979961 -0.591568
v 1.588398 0.960495 -0.588398
v 1.646627 0.850000 -0.591568
v 1.646627 0.924902 -0.516667
v 1.627162 0.921732 -0.588398
v 1.516667 0.924902 -0.646627
v 1.591568 0.850000 -0.646627
v 1.588398 0.921732 -0.627162
v 0.516667 0.000000 -1.516667
v 0.516667 0.150000 -1.666667
v 0.666667 0.150000 -1.516667
v 0.516667 0.020039 -1.591568
v 0.591568 0.020039 -1.516667
v 0.588398 0.039505 -1.588398
v 0.591568 0.150000 -1.646627
v 0.516667 0.075098 -1.646627
v 0.588398 0.078268 -1.627162
v 0.646627 0.075098 -1.516667
v 0.646627 0.150000 -1.591568
v 0.627162 0.078268 -1.588398
v -0.183333 0.000000 -1.516667
v -0.333333 0.150000 -1.516667
v -0.183333 0.150000 -1.666667
v -0.258235 0.020039 -1.516667
v -0.183333 0.020039 -1.591568
v -0.255065 0.039505 -1.588398
v -0.313294 0.150000 -1.591568
v -0.313294 0.075098 -1.516667
v -0.293828 0.078268 -1.588398
v -0.183333 0.075098 -1.646627
v -0.258235 0.150000 -1.646627
v -0.255065 0.078268 -1.627162
v -0.333333 0.850000 -0.666667
v -0.183333 1.000000 -0.666667
v -0.313237 0.925000 -0.666667
v -0.258333 0.979904 -0.666667
v 0.516667 1.000000 -0.516667
v 0.666667 0.850000 -0.666667
v 0.591667 0.979904 -0.591667
v 0.646571 0.925000 -0.646571
v 0.666667 0.850000 -1.516667
v 0.516667 0.850000 -1.666667
v 0.516667 1.000000 -1.516667
v 0.646627 0.850000 -1.591568
v 0.646627 0.924902 -1.516667
v 0.627162 0.921732 -1.588398
v 0.516667 0.924902 -1.646627
v 0.591568 0.850000 -1.646627
v 0.588398 0.921732 -1.627162
v 0.591568 0.979961 -1.516667
v 0.516667 0.979961 -1.591568
v 0.588398 0.960495 -1.588398
v -0.333333 0.850000 -1.516667
v -0.183333 1.000000 -1.516667
v -0.183333 0.850000 -1.666667
v -0.313294 0.924902 -1.516667
v -0.313294 0.850000 -1.591568
v -0.293828 0.921732 -1.588398
v -0.183333 0.979961 -1.591568
v -0.258235 0.979961 -1.516667
v -0.255065 0.960495 -1.588398
v -0.258235 0.850000 -1.646627
v -0.183333 0.924902 -1.646627
v -0.255065 0.921732 -1.627162
vn -0.1280 -0.1280 0.9835
vn -0.9835 -0.1280 0.1280
vn -0.1280 -0.9835 0.1280
vn -0.4916 -0.1216 0.8623
vn -0.1216 -0.4916 0.8623
vn -0.4488 -0.4488 0.7727
vn -0.8623 -0.4916 0.1216
vn -0.8623 -0.1216 0.4916
vn -0.7727 -0.4488 0.4488
vn -0.1216 -0.8623 0.4916
vn -0.4916 -0.8623 0.1216
vn -0.4488 -0.7727 0.4488
vn 0.4083 -0.9062 0.1102
vn 0.4196 -0.1185 0.8999
vn 0.3961 -0.7952 0.4591
vn 0.3961 -0.4591 0.7952
vn 0.2126 -0.9655 -0.1503
vn 0.7299 -0.2647 -0.6302
vn 0.4765 -0.8740 0.0950
vn 0.7635 -0.6236 -0.1680
vn -0.8999 -0.1185 -0.4196
vn -0.1102 -0.9062 -0.4083
vn -0.7952 -0.4591 -0.3961
vn -0.4591 -0.7952 -0.3961
vn -0.1280 0.9835 0.1280
vn -0.9835 0.1280 0.1280
vn -0.1280 0.1280 0.9835
vn -0.4916 0.8623 0.1216
vn -0.1216 0.8623 0.4916
vn -0.4488 0.7727 0.4488
vn -0.8623 0.1216 0.4916
vn -0.8623 0.4916 0.1216
vn -0.7727 0.4488 0.4488
vn -0.1216 0.4916 0.8623
vn -0.4916 0.1216 0.8623
vn -0.4488 0.4488 0.7727
vn 0.4196 0.1185 0.8999
vn 0.4083 0.9062 0.1102
vn 0.3961 0.4591 0.7952
vn 0.3961 0.7952 0.4591
vn 0.1280 -0.9835 0.1280
vn 0.9835 -0.1280 0.1280
vn 0.1280 -0.1280 0.9835
vn 0.4916 -0.8623 0.1216
vn 0.1216 -0.8623 0.4916
vn 0.4488 -0.7727 0.4488
vn 0.8623 -0.1216 0.4916
vn 0.8623 -0.4916 0.1216
vn 0.7727 -0.4488 0.4488
vn 0.1216 -0.4916 0.8623
vn 0.4916 -0.1216 0.8623
vn 0.4488 -0.4488 0.7727
vn 0.1280 -0.9835 -0.1280
vn 0.1280 -0.1280 -0.9835
vn 0.9835 -0.1280 -0.1280
vn 0.1216 -0.8623 -0.4916
vn 0.4916 -0.8623 -0.1216
vn 0.4488 -0.7727 -0.4488
vn 0.4916 -0.1216 -0.8623
vn 0.1216 -0.4916 -0.8623
vn 0.4488 -0.4488 -0.7727
vn 0.8623 -0.4916 -0.1216
vn 0.8623 -0.1216 -0.4916
vn 0.7727 -0.4488 -0.4488
vn 0.1280 0.9835 0.1280
vn 0.1280 0.1280 0.9835
vn 0.9835 0.1280 0.1280
vn 0.1216 0.8623 0.4916
vn 0.4916 0.8623 0.1216
vn 0.4488 0.7727 0.4488
vn 0.4916 0.1216 0.8623
vn 0.1216 0.4916 0.8623
vn 0.4488 0.4488 0.7727
vn 0.8623 0.4916 0.1216
vn 0.8623 0.1216 0.4916
vn 0.7727 0.4488 0.4488
vn 0.1280 0.9835 -0.1280
vn 0.9835 0.1280 -0.1280
vn 0.1280 0.1280 -0.9835
vn 0.4916 0.8623 -0.1216
vn 0.1216 0.8623 -0.4916
vn 0.4488 0.7727 -0.4488
vn 0.8623 0.1216 -0.4916
vn 0.8623 0.4916 -0.1216
vn 0.7727 0.4488 -0.4488
vn 0.1216 0.4916 -0.8623
vn 0.4916 0.1216 -0.8623
vn 0.4488 0.4488 -0.7727
vn -0.1280 -0.9835 -0.1280
vn -0.9835 -0.1280 -0.1280
vn -0.1280 -0.1280 -0.9835
vn -0.4916 -0.8623 -0.1216
vn -0.1216 -0.8623 -0.4916
vn -0.4488 -0.7727 -0.4488
vn -0.8623 -0.1216 -0.4916
vn -0.8623 -0.4916 -0.1216
vn -0.7727 -0.4488 -0.4488
vn -0.1216 -0.4916 -0.8623
vn -0.4916 -0.1216 -0.8623
vn -0.4488 -0.4488 -0.7727
vn -0.8999 0.1185 -0.4196
vn -0.1102 0.9062 -0.4083
vn -0.7952 0.4591 -0.3961
vn -0.4591 0.7952 -0.3961
vn 0.2126 0.9655 -0.1503
vn 0.7299 0.2647 -0.6302
vn 0.4765 0.8740 0.0950
vn 0.7635 0.6236 -0.1680
vn -0.9835 0.1280 -0.1280
vn -0.1280 0.9835 -0.1280
vn -0.1280 0.1280 -0.9835
vn -0.8623 0.4916 -0.1216
vn -0.8623 0.1216 -0.4916
vn -0.7727 0.4489 -0.4488
vn -0.1216 0.8623 -0.4916
vn -0.4916 0.8623 -0.1216
vn -0.4488 0.7727 -0.4488
vn -0.4916 0.1216 -0.8623
vn -0.1216 0.4916 -0.8623
vn -0.4488 0.4488 -0.7727
vt -0.258235 0.150000
vt -0.183333 0.075098
vt -0.183333 0.150000
vt -0.293828 0.078268
vt -0.313294 0.150000
vt -0.258235 -0.183333
vt -0.293828 -0.255065
vt -0.313294 -0.183333
vt -0.183333 -0.258235
vt -0.183333 -0.183333
vt -0.183333 0.020039
vt -0.255065 0.078268
vt -0.255065 0.039505
vt -0.258235 -0.183333
vt -0.183333 -0.258235
vt -0.293828 -0.255065
vt -0.255065 -0.255065
vt -0.258235 0.850000
vt -0.183333 0.924902
vt -0.183333 0.850000
vt -0.258235 0.850000
vt -0.293828 0.921732
vt -0.313294 0.850000
vt -0.183333 0.924902
vt -0.255065 -0.293828
vt -0.183333 -0.313294
vt 1.591568 -0.183333
vt 1.516667 -0.258235
vt 1.516667 -0.183333
vt 1.627162 -0.255065
vt 1.588398 -0.255065
vt -0.258235 0.150000
vt -0.183333 0.075098
vt -0.313294 0.150000
vt -0.255065 0.078268
vt 1.516667 0.075098
vt 1.591568 0.150000
vt 1.516667 0.150000
vt 1.588398 -0.293828
vt 1.516667 -0.313294
vt 1.516667 0.591568
vt 1.591568 0.516667
vt 1.516667 0.516667
vt 1.588398 0.627162
vt 1.588398 0.588398
vt 1.516667 0.075098
vt 1.516667 0.150000
vt 0.591568 0.150000
vt 0.627162 0.078268
vt 0.646627 0.150000
vt 0.516667 0.075098
vt 0.516667 0.150000
vt 1.646627 0.516667
vt 1.627162 0.588398
vt 1.516667 -0.258235
vt 1.516667 -0.183333
vt 1.591568 0.850000
vt 1.516667 0.924902
vt 1.516667 0.850000
vt -0.293828 0.921732
vt -0.313294 0.850000
vt 1.646627 -0.183333
vt 0.516667 0.924902
vt 0.588398 0.960495
vt 0.516667 0.979961
vt 0.591568 0.850000
vt 0.516667 0.850000
vt 0.627162 0.921732
vt 0.588398 0.921732
vt 1.516667 0.979961
vt 1.588398 0.921732
vt 0.516667 1.591568
vt 0.591568 1.516667
vt 0.516667 1.516667
vt 0.588398 1.627162
vt 0.588398 1.588398
vt 0.516667 0.075098
vt 0.627162 0.078268
vt 0.588398 0.078268
vt 0.646627 1.516667
vt 0.627162 1.588398
vt -0.258235 1.516667
vt -0.183333 1.591568
vt -0.183333 1.516667
vt -0.293828 1.588398
vt -0.255065 1.588398
vt -0.293828 0.078268
vt -0.183333 0.075098
vt -0.183333 0.020039
vt -0.255065 0.078268
vt -0.255065 1.627162
vt 1.646627 0.850000
vt 0.516667 1.646627
vt -0.258235 1.516667
vt -0.293828 1.588398
vt -0.313294 1.516667
vt -0.183333 1.591568
vt -0.183333 1.516667
vt -0.255065 1.627162
vt -0.255065 1.588398
vt -0.255065 0.921732
vt 0.666667 0.150000
vt 0.666667 0.075000
vt 0.666667 0.020096
vt 0.666667 -0.183333
vt 0.666667 -0.258333
vt -0.313237 0.666667
vt -0.183333 0.666667
vt 0.666667 0.850000
vt 0.666667 -0.313237
vt 0.516667 0.020039
vt -0.183333 0.979961
vt 0.646627 0.850000
vt 0.646571 0.925000
vt 0.646571 0.646571
vt 0.591667 0.591667
vt 0.516667 0.516667
vt 0.666667 0.925000
vt 0.666667 0.979904
vt -0.258333 0.666667
vt 0.646571 0.075000
vt 1.516667 0.020039
vt -0.333333 0.850000
vt -0.183333 1.000000
vt -0.255065 -0.255065
vt -0.183333 -0.313294
vt -0.255065 -0.293828
vt -0.313294 -0.183333
vt -0.255065 0.921732
vt -0.293828 0.078268
vt 1.588398 0.078268
vt 1.588398 0.078268
vt 0.588398 0.078268
vt 0.588398 0.039505
vt 1.646627 0.150000
vt 1.588398 0.039505
vt 1.627162 0.078268
vt 1.627162 0.921732
vt -0.183333 0.979961
vt -0.333333 0.150000
vt -0.313237 0.075000
vt -0.183333 0.000000
vt -0.258333 0.020096
vt 0.666667 0.666667
vt 0.516667 0.000000
vt 0.591667 0.020096
vt 0.516667 1.000000
vt 0.591667 0.979904
vt -0.258333 0.979904
vt -0.313237 0.925000
s 1
usemtl ClayMat_4
f 4/1/4 5/2/5 1/3/1
f 8/1/8 6/4/6 4/5/4
f 7/2/7 8/1/8 2/3/2
f 11/6/11 9/7/9 7/8/7
f 10/9/10 11/6/11 3/10/3
f 10/11/10 6/12/6 12/13/12
f 6/4/6 9/12/9 12/13/12
f 28/14/28 29/15/29 25/10/25
f 28/14/28 33/16/33 30/17/30
f 31/18/31 32/19/32 26/20/26
f 35/21/35 33/22/33 31/23/31
f 34/24/34 35/21/35 27/20/27
f 29/15/29 36/25/36 34/26/34
f 30/17/30 33/16/33 36/25/36
f 44/27/44 45/28/45 41/29/41
f 44/27/44 49/30/49 46/31/46
f 47/32/47 48/33/48 42/3/42
f 51/34/51 49/35/49 47/32/47
f 50/36/50 51/37/51 43/38/43
f 45/28/45 52/39/52 50/40/50
f 46/31/46 49/30/49 52/39/52
f 56/41/56 57/42/57 53/43/53
f 56/41/56 61/44/61 58/45/58
f 59/37/59 60/46/60 54/47/54
f 63/48/63 61/49/61 59/50/59
f 62/51/62 63/48/63 55/52/55
f 62/53/62 58/45/58 64/54/64
f 58/45/58 61/44/61 64/54/64
f 68/55/68 69/27/69 65/56/65
f 68/55/68 73/39/73 70/31/70
f 71/57/71 72/58/72 66/59/66
f 75/18/75 73/60/73 71/61/71
f 74/19/74 75/18/75 67/20/67
f 69/27/69 76/30/76 74/62/74
f 70/31/70 73/39/73 76/30/76
f 80/42/80 81/41/81 77/43/77
f 84/63/84 82/64/82 80/65/80
f 83/66/83 84/63/84 78/67/78
f 83/66/83 88/68/88 85/69/85
f 86/58/86 87/57/87 79/59/79
f 81/70/81 88/71/88 86/58/86
f 82/45/82 85/54/85 88/44/88
f 92/72/56 93/73/57 89/74/53
f 92/72/56 97/75/61 94/76/58
f 95/48/59 96/77/60 90/52/54
f 95/48/59 100/78/64 97/79/61
f 98/36/62 99/37/63 91/38/55
f 98/80/62 94/76/58 100/81/64
f 94/76/58 97/75/61 100/81/64
f 104/82/92 105/83/93 101/84/89
f 104/82/92 109/85/97 106/86/94
f 107/37/95 108/46/96 102/47/90
f 111/32/99 109/87/97 107/34/95
f 110/88/98 111/32/99 103/3/91
f 105/89/93 112/90/100 110/88/98
f 106/86/94 109/85/97 112/91/100
f 124/57/83 125/58/84 121/59/78
f 128/92/87 126/71/85 124/57/83
f 127/63/86 128/66/87 122/67/79
f 127/93/86 132/76/82 129/75/88
f 130/73/80 131/72/81 123/74/77
f 130/73/80 126/81/85 132/76/82
f 126/81/85 129/75/88 132/76/82
f 136/58/112 137/57/113 133/59/109
f 140/94/116 138/95/114 136/96/112
f 139/97/115 140/94/116 134/98/110
f 139/97/115 144/99/120 141/100/117
f 142/21/118 143/24/119 135/20/111
f 137/23/113 144/101/120 142/21/118
f 138/95/114 141/100/117 144/99/120
f 14/102/14 5/2/5 16/103/16
f 5/2/5 15/104/15 16/103/16
f 10/9/10 13/105/13 15/106/15
f 21/102/21 7/2/7 2/3/2
f 23/107/23 11/6/11 7/8/7
f 11/6/11 22/108/22 3/10/3
f 37/109/37 34/24/34 27/20/27
f 39/110/39 29/15/29 34/26/34
f 29/15/29 38/105/38 25/10/25
f 2/3/2 31/18/31 26/20/26
f 31/18/31 4/5/4 35/61/35
f 4/1/4 27/20/27 35/21/35
f 42/3/42 62/51/62 55/52/55
f 48/33/48 57/111/57 62/51/62
f 44/27/44 53/43/53 57/42/57
f 78/67/78 74/19/74 67/20/67
f 84/63/84 69/112/69 74/19/74
f 80/42/80 65/56/65 69/27/69
f 67/20/67 47/32/47 42/3/42
f 75/18/75 51/34/51 47/32/47
f 71/57/71 43/38/43 51/37/51
f 55/52/55 83/66/83 78/67/78
f 63/48/63 87/113/87 83/66/83
f 59/37/59 79/59/79 87/57/87
f 90/52/54 110/88/98 103/3/91
f 96/77/60 105/89/93 110/88/98
f 92/72/56 101/84/89 105/83/93
f 113/109/101 136/58/112 133/59/109
f 115/107/103 140/94/116 136/96/112
f 140/94/116 114/108/102 134/98/110
f 118/109/106 125/58/84 120/114/108
f 120/115/108 130/73/80 119/116/107
f 119/116/107 123/74/77 117/117/105
f 135/20/111 127/63/86 122/67/79
f 143/24/119 131/65/81 127/63/86
f 139/97/115 123/74/77 131/72/81
f 91/38/55 124/57/83 121/59/78
f 99/37/63 128/92/87 124/57/83
f 95/48/59 122/67/79 128/66/87
f 133/59/109 107/37/95 102/47/90
f 137/23/113 111/32/99 107/34/95
f 142/21/118 103/3/91 111/32/99
f 113/109/101 32/19/32 115/118/103
f 32/19/32 116/119/104 115/118/103
f 28/14/28 114/108/102 116/120/104
f 14/102/14 50/36/50 43/38/43
f 16/110/16 45/28/45 50/40/50
f 45/28/45 13/105/13 41/29/41
f 18/102/18 60/46/60 20/121/20
f 20/115/20 56/41/56 19/116/19
f 19/116/19 53/43/53 17/117/17
f 37/109/37 72/58/72 39/118/39
f 72/58/72 40/119/40 39/118/39
f 68/55/68 38/105/38 40/106/40
f 118/109/106 86/58/86 79/59/79
f 120/114/108 81/70/81 86/58/86
f 119/116/107 77/43/77 81/41/81
f 21/102/21 108/46/96 23/103/23
f 23/103/23 104/122/92 24/104/24
f 104/82/92 22/108/22 24/120/24
f 18/102/18 98/36/62 91/38/55
f 20/121/20 93/122/57 98/36/62
f 19/116/19 89/74/53 93/73/57
f 14/102/14 27/20/27 1/3/1
f 3/10/3 17/117/17 13/105/13
f 26/20/26 21/102/21 2/3/2
f 43/38/43 37/109/37 14/102/14
f 13/105/13 53/43/53 41/29/41
f 37/123/37 118/109/106 38/124/38
f 22/108/22 89/74/53 17/117/17
f 113/123/101 114/124/102 118/109/106
f 18/102/18 79/59/79 54/47/54
f 91/38/55 118/109/106 18/102/18
f 113/109/101 102/47/90 21/102/21
f 25/10/25 117/117/105 114/108/102
f 38/105/38 77/43/77 117/117/105
f 55/52/55 67/20/67 42/3/42
f 103/3/91 122/67/79 90/52/54
f 114/108/102 123/74/77 134/98/110
f 4/1/4 6/12/6 5/2/5
f 8/1/8 9/12/9 6/4/6
f 7/2/7 9/12/9 8/1/8
f 11/11/11 12/13/12 9/12/9
f 10/9/10 12/125/12 11/6/11
f 10/9/10 5/126/5 6/127/6
f 28/14/28 30/17/30 29/15/29
f 28/14/28 32/128/32 33/16/33
f 31/18/31 33/129/33 32/19/32
f 35/61/35 36/60/36 33/129/33
f 34/24/34 36/101/36 35/21/35
f 29/15/29 30/17/30 36/25/36
f 44/27/44 46/31/46 45/28/45
f 44/89/44 48/33/48 49/35/49
f 47/32/47 49/35/49 48/33/48
f 51/34/51 52/130/52 49/35/49
f 50/36/50 52/131/52 51/37/51
f 45/28/45 46/31/46 52/39/52
f 56/41/56 58/45/58 57/42/57
f 56/122/56 60/46/60 61/132/61
f 59/37/59 61/132/61 60/46/60
f 63/48/63 64/133/64 61/49/61
f 62/51/62 64/133/64 63/48/63
f 62/51/62 57/111/57 58/134/58
f 68/55/68 70/31/70 69/27/69
f 68/70/68 72/58/72 73/71/73
f 71/57/71 73/71/73 72/58/72
f 75/18/75 76/129/76 73/60/73
f 74/19/74 76/129/76 75/18/75
f 69/27/69 70/31/70 76/30/76
f 80/42/80 82/45/82 81/41/81
f 84/53/84 85/54/85 82/45/82
f 83/66/83 85/69/85 84/63/84
f 83/66/83 87/113/87 88/68/88
f 86/58/86 88/71/88 87/57/87
f 81/41/81 82/45/82 88/44/88
f 92/72/56 94/76/58 93/73/57
f 92/111/56 96/77/60 97/79/61
f 95/48/59 97/79/61 96/77/60
f 95/135/59 99/37/63 100/131/64
f 98/36/62 100/131/64 99/37/63
f 98/36/62 93/122/57 94/136/58
f 104/82/92 106/86/94 105/83/93
f 104/122/92 108/46/96 109/132/97
f 107/37/95 109/132/97 108/46/96
f 111/135/99 112/137/100 109/132/97
f 110/88/98 112/90/100 111/32/99
f 105/83/93 106/86/94 112/91/100
f 124/57/83 126/71/85 125/58/84
f 128/92/87 129/138/88 126/71/85
f 127/63/86 129/69/88 128/66/87
f 127/63/86 131/65/81 132/64/82
f 130/73/80 132/76/82 131/72/81
f 130/70/80 125/58/84 126/71/85
f 136/58/112 138/71/114 137/57/113
f 140/94/116 141/100/117 138/95/114
f 139/97/115 141/100/117 140/94/116
f 139/139/115 143/24/119 144/101/120
f 142/21/118 144/101/120 143/24/119
f 137/57/113 138/71/114 144/138/120
f 14/102/14 1/3/1 5/2/5
f 5/126/5 10/9/10 15/106/15
f 10/9/10 3/10/3 13/105/13
f 21/102/21 23/103/23 7/2/7
f 23/103/23 24/104/24 11/11/11
f 11/6/11 24/120/24 22/108/22
f 37/109/37 39/118/39 34/24/34
f 39/118/39 40/119/40 29/139/29
f 29/15/29 40/106/40 38/105/38
f 2/3/2 8/1/8 31/18/31
f 31/18/31 8/1/8 4/5/4
f 4/1/4 1/3/1 27/20/27
f 42/3/42 48/33/48 62/51/62
f 48/33/48 44/89/44 57/111/57
f 44/27/44 41/29/41 53/43/53
f 78/67/78 84/63/84 74/19/74
f 84/63/84 80/65/80 69/112/69
f 80/42/80 77/43/77 65/56/65
f 67/20/67 75/18/75 47/32/47
f 75/18/75 71/61/71 51/34/51
f 71/57/71 66/59/66 43/38/43
f 55/52/55 63/48/63 83/66/83
f 63/48/63 59/50/59 87/113/87
f 59/37/59 54/47/54 79/59/79
f 90/52/54 96/77/60 110/88/98
f 96/77/60 92/111/56 105/89/93
f 92/72/56 89/74/53 101/84/89
f 113/109/101 115/118/103 136/58/112
f 115/118/103 116/119/104 140/70/116
f 140/94/116 116/120/104 114/108/102
f 118/109/106 121/59/78 125/58/84
f 120/114/108 125/58/84 130/70/80
f 119/116/107 130/73/80 123/74/77
f 135/20/111 143/24/119 127/63/86
f 143/24/119 139/139/115 131/65/81
f 139/97/115 134/98/110 123/74/77
f 91/38/55 99/37/63 124/57/83
f 99/37/63 95/135/59 128/92/87
f 95/48/59 90/52/54 122/67/79
f 133/59/109 137/57/113 107/37/95
f 137/23/113 142/21/118 111/32/99
f 142/21/118 135/20/111 103/3/91
f 113/109/101 26/20/26 32/19/32
f 32/128/32 28/14/28 116/120/104
f 28/14/28 25/10/25 114/108/102
f 14/102/14 16/103/16 50/36/50
f 16/103/16 15/104/15 45/122/45
f 45/28/45 15/106/15 13/105/13
f 18/102/18 54/47/54 60/46/60
f 20/121/20 60/46/60 56/122/56
f 19/116/19 56/41/56 53/43/53
f 37/109/37 66/59/66 72/58/72
f 72/58/72 68/70/68 40/119/40
f 68/55/68 65/56/65 38/105/38
f 118/109/106 120/114/108 86/58/86
f 120/115/108 119/116/107 81/41/81
f 119/116/107 117/117/105 77/43/77
f 21/102/21 102/47/90 108/46/96
f 23/103/23 108/46/96 104/122/92
f 104/82/92 101/84/89 22/108/22
f 18/102/18 20/121/20 98/36/62
f 20/115/20 19/116/19 93/73/57
f 19/116/19 17/117/17 89/74/53
f 14/102/14 37/109/37 27/20/27
f 3/10/3 22/108/22 17/117/17
f 26/20/26 113/109/101 21/102/21
f 43/38/43 66/59/66 37/109/37
f 13/105/13 17/117/17 53/43/53
f 37/123/37 14/140/14 18/102/18
f 14/140/14 16/141/16 13/142/13
f 16/141/16 15/143/15 13/142/13
f 13/105/13 17/117/17 18/144/18
f 17/145/17 19/146/19 20/121/20
f 18/102/18 17/145/17 20/121/20
f 18/102/18 118/109/106 37/123/37
f 118/109/106 120/114/108 117/147/105
f 120/114/108 119/148/107 117/147/105
f 117/117/105 38/105/38 118/144/106
f 38/124/38 40/149/40 37/123/37
f 40/149/40 39/150/39 37/123/37
f 14/140/14 13/142/13 18/102/18
f 22/108/22 101/84/89 89/74/53
f 118/109/106 18/102/18 21/140/21
f 17/117/17 22/108/22 18/144/18
f 22/142/22 24/143/24 21/140/21
f 24/143/24 23/141/23 21/140/21
f 21/140/21 113/123/101 118/109/106
f 113/123/101 115/150/103 114/124/102
f 115/150/103 116/149/104 114/124/102
f 114/108/102 117/117/105 118/144/106
f 21/140/21 18/102/18 22/142/22
f 18/102/18 118/109/106 79/59/79
f 91/38/55 121/59/78 118/109/106
f 113/109/101 133/59/109 102/47/90
f 25/10/25 38/105/38 117/117/105
f 38/105/38 65/56/65 77/43/77
f 55/52/55 78/67/78 67/20/67
f 103/3/91 135/20/111 122/67/79
f 114/108/102 117/117/105 123/74/77
