# Blender 4.1.1
# www.blender.org
mtllib __clay_block_05_38.mtl
o clay_block_38
v -0.500000 0.500000 0.500000
v -0.500000 -0.500000 0.500000
v -1.500000 -0.500000 0.500000
v -0.500000 0.500000 1.500000
v -1.500000 0.500000 0.500000
v -2.500000 0.500000 0.500000
v -0.500000 0.500000 -0.500000
v -1.500000 0.500000 -0.500000
v 0.500000 0.500000 0.500000
v -1.500000 0.500000 1.500000
v -0.500000 1.500000 0.500000
v -1.500000 1.500000 1.500000
v -0.500000 1.500000 -0.500000
v -1.500000 1.500000 0.500000
v -1.500000 1.500000 -0.500000
v -1.500000 2.500000 0.500000
v 0.500000 1.500000 0.500000
v -0.500000 2.500000 0.500000
v -0.500000 1.500000 1.500000
v -2.500000 1.500000 0.500000
v 0.500000 -0.350000 0.500000
v 0.350000 -0.500000 0.500000
v 0.479904 -0.425000 0.500000
v 0.425000 -0.479904 0.500000
v 0.350000 -0.500000 -0.350000
v 0.350000 -0.350000 -0.500000
v 0.500000 -0.350000 -0.350000
v 0.350000 -0.479961 -0.424902
v 0.424902 -0.479961 -0.350000
v 0.421732 -0.460495 -0.421732
v 0.424902 -0.350000 -0.479961
v 0.350000 -0.424902 -0.479961
v 0.421732 -0.421732 -0.460495
v 0.479961 -0.424902 -0.350000
v 0.479961 -0.350000 -0.424902
v 0.460495 -0.421732 -0.421732
v 0.350000 0.500000 -0.500000
v 0.500000 0.500000 -0.350000
v 0.425000 0.500000 -0.479904
v 0.479904 0.500000 -0.425000
v -0.500000 -0.350000 -0.500000
v -0.500000 -0.500000 -0.350000
v -0.500000 -0.425000 -0.479904
v -0.500000 -0.479904 -0.425000
v -1.500000 -0.500000 -0.350000
v -1.500000 -0.350000 -0.500000
v -1.500000 -0.479904 -0.425000
v -1.500000 -0.425000 -0.479904
v -2.500000 -0.350000 -0.350000
v -2.350000 -0.350000 -0.500000
v -2.350000 -0.500000 -0.350000
v -2.479960 -0.350000 -0.424902
v -2.479960 -0.424902 -0.350000
v -2.460495 -0.421732 -0.421732
v -2.350000 -0.424902 -0.479961
v -2.424901 -0.350000 -0.479961
v -2.421732 -0.421732 -0.460495
v -2.424901 -0.479961 -0.350000
v -2.350000 -0.479961 -0.424902
v -2.421732 -0.460495 -0.421732
v 0.500000 -0.350000 1.350000
v 0.350000 -0.350000 1.500000
v 0.350000 -0.500000 1.350000
v 0.479961 -0.350000 1.424901
v 0.479961 -0.424902 1.350000
v 0.460495 -0.421732 1.421732
v 0.350000 -0.424902 1.479960
v 0.424902 -0.350000 1.479960
v 0.421732 -0.421732 1.460495
v 0.424902 -0.479961 1.350000
v 0.350000 -0.479961 1.424901
v 0.421732 -0.460495 1.421732
v 0.500000 0.500000 1.350000
v 0.350000 0.500000 1.500000
v 0.479904 0.500000 1.425000
v 0.425000 0.500000 1.479904
v -0.500000 -0.350000 1.500000
v -0.500000 -0.500000 1.350000
v -0.500000 -0.425000 1.479904
v -0.500000 -0.479904 1.425000
v -2.350000 -0.350000 1.500000
v -2.500000 -0.350000 1.350000
v -2.350000 -0.500000 1.350000
v -2.424901 -0.350000 1.479960
v -2.350000 -0.424902 1.479960
v -2.421732 -0.421732 1.460495
v -2.479960 -0.424902 1.350000
v -2.479960 -0.350000 1.424901
v -2.460495 -0.421732 1.421732
v -2.350000 -0.479961 1.424901
v -2.424901 -0.479961 1.350000
v -2.421732 -0.460495 1.421732
v -1.500000 -0.500000 1.350000
v -1.500000 -0.350000 1.500000
v -1.500000 -0.479904 1.425000
v -1.500000 -0.425000 1.479904
v -2.500000 -0.350000 0.500000
v -2.350000 -0.500000 0.500000
v -2.479904 -0.425000 0.500000
v -2.425000 -0.479904 0.500000
v -2.500000 0.500000 -0.350000
v -2.350000 0.500000 -0.500000
v -2.479904 0.500000 -0.425000
v -2.425000 0.500000 -0.479904
v 0.500000 1.500000 1.350000
v 0.350000 1.500000 1.500000
v 0.479904 1.500000 1.425000
v 0.425000 1.500000 1.479904
v -2.350000 0.500000 1.500000
v -2.500000 0.500000 1.350000
v -2.425000 0.500000 1.479904
v -2.479904 0.500000 1.425000
v 0.500000 1.500000 -0.350000
v 0.350000 1.500000 -0.500000
v 0.479904 1.500000 -0.425000
v 0.425000 1.500000 -0.479904
v 0.350000 2.350000 -0.500000
v 0.350000 2.500000 -0.350000
v 0.500000 2.350000 -0.350000
v 0.350000 2.424901 -0.479961
v 0.424902 2.350000 -0.479961
v 0.421732 2.421732 -0.460495
v 0.424902 2.479960 -0.350000
v 0.350000 2.479960 -0.424902
v 0.421732 2.460495 -0.421732
v 0.479961 2.350000 -0.424902
v 0.479961 2.424901 -0.350000
v 0.460495 2.421732 -0.421732
v -0.500000 2.350000 -0.500000
v -0.500000 2.500000 -0.350000
v -0.500000 2.425000 -0.479904
v -0.500000 2.479904 -0.425000
v -2.350000 1.500000 -0.500000
v -2.500000 1.500000 -0.350000
v -2.425000 1.500000 -0.479904
v -2.479904 1.500000 -0.425000
v -2.500000 2.350000 0.500000
v -2.350000 2.500000 0.500000
v -2.479904 2.425000 0.500000
v -2.425000 2.479904 0.500000
v -1.500000 2.500000 -0.350000
v -1.500000 2.350000 -0.500000
v -1.500000 2.479904 -0.425000
v -1.500000 2.425000 -0.479904
v -2.500000 2.350000 -0.350000
v -2.350000 2.500000 -0.350000
v -2.350000 2.350000 -0.500000
v -2.479960 2.424901 -0.350000
v -2.479960 2.350000 -0.424902
v -2.460495 2.421732 -0.421732
v -2.350000 2.479960 -0.424902
v -2.424901 2.479960 -0.350000
v -2.421732 2.460495 -0.421732
v -2.424901 2.350000 -0.479961
v -2.350000 2.424901 -0.479961
v -2.421732 2.421732 -0.460495
v 0.500000 2.350000 1.350000
v 0.350000 2.500000 1.350000
v 0.350000 2.350000 1.500000
v 0.479961 2.424901 1.350000
v 0.479961 2.350000 1.424901
v 0.460495 2.421732 1.421732
v 0.350000 2.479960 1.424901
v 0.424902 2.479960 1.350000
v 0.421732 2.460495 1.421732
v 0.424902 2.350000 1.479960
v 0.350000 2.424901 1.479960
v 0.421732 2.421732 1.460495
v 0.500000 2.350000 0.500000
v 0.350000 2.500000 0.500000
v 0.479904 2.425000 0.500000
v 0.425000 2.479904 0.500000
v -1.500000 2.500000 1.350000
v -1.500000 2.350000 1.500000
v -1.500000 2.479904 1.425000
v -1.500000 2.425000 1.479904
v -0.500000 2.350000 1.500000
v -0.500000 2.500000 1.350000
v -0.500000 2.425000 1.479904
v -0.500000 2.479904 1.425000
v -2.500000 1.500000 1.350000
v -2.350000 1.500000 1.500000
v -2.479904 1.500000 1.425000
v -2.425000 1.500000 1.479904
v -2.350000 2.350000 1.500000
v -2.350000 2.500000 1.350000
v -2.500000 2.350000 1.350000
v -2.350000 2.424901 1.479960
v -2.424901 2.350000 1.479960
v -2.421732 2.421732 1.460495
v -2.424901 2.479960 1.350000
v -2.350000 2.479960 1.424901
v -2.421732 2.460495 1.421732
v -2.479960 2.350000 1.424901
v -2.479960 2.424901 1.350000
v -2.460495 2.421732 1.421732
vn -0.5774 0.5774 0.5773
vn -0.4082 -0.8165 0.4083
vn -0.4082 -0.8165 0.4082
vn -0.4082 0.4083 0.8165
vn -0.5773 0.5773 0.5774
vn -0.8165 0.4082 0.4082
vn -0.4083 0.4082 -0.8165
vn -0.4082 0.4082 -0.8165
vn 0.8165 0.4082 0.4083
vn -0.4082 0.4082 0.8165
vn -0.4083 0.4082 0.8165
vn -0.4082 0.4083 -0.8165
vn -0.4082 0.8165 0.4083
vn 0.8165 0.4082 0.4082
vn -0.4082 0.8165 0.4082
vn -0.8165 0.4082 0.4083
vn 0.8999 -0.1185 0.4196
vn 0.1185 -0.8999 0.4196
vn 0.7952 -0.4591 0.3961
vn 0.4591 -0.7952 0.3961
vn 0.1280 -0.9835 -0.1280
vn 0.1280 -0.1280 -0.9835
vn 0.9835 -0.1280 -0.1280
vn 0.1216 -0.8623 -0.4916
vn 0.4916 -0.8623 -0.1216
vn 0.4488 -0.7727 -0.4488
vn 0.4916 -0.1216 -0.8623
vn 0.1216 -0.4916 -0.8623
vn 0.4488 -0.4488 -0.7727
vn 0.8623 -0.4916 -0.1216
vn 0.8623 -0.1216 -0.4916
vn 0.7727 -0.4488 -0.4488
vn 0.1185 0.4196 -0.8999
vn 0.8999 0.4196 -0.1185
vn 0.4591 0.3961 -0.7952
vn 0.7952 0.3961 -0.4591
vn -0.4196 -0.1185 -0.8999
vn -0.4196 -0.8999 -0.1185
vn -0.3961 -0.4591 -0.7952
vn -0.3961 -0.7952 -0.4591
vn -0.9835 -0.1280 -0.1280
vn -0.1280 -0.1280 -0.9835
vn -0.1280 -0.9835 -0.1280
vn -0.8623 -0.1216 -0.4916
vn -0.8623 -0.4916 -0.1216
vn -0.7727 -0.4488 -0.4488
vn -0.1216 -0.4916 -0.8623
vn -0.4916 -0.1216 -0.8623
vn -0.4488 -0.4488 -0.7727
vn -0.4916 -0.8623 -0.1216
vn -0.1216 -0.8623 -0.4916
vn -0.4488 -0.7727 -0.4488
vn 0.9835 -0.1280 0.1280
vn 0.1280 -0.1280 0.9835
vn 0.1280 -0.9835 0.1280
vn 0.8623 -0.1216 0.4916
vn 0.8623 -0.4916 0.1216
vn 0.7727 -0.4488 0.4488
vn 0.1216 -0.4916 0.8623
vn 0.4916 -0.1216 0.8623
vn 0.4488 -0.4488 0.7727
vn 0.4916 -0.8623 0.1216
vn 0.1216 -0.8623 0.4916
vn 0.4488 -0.7727 0.4488
vn 0.8999 0.4196 0.1185
vn 0.1185 0.4196 0.8999
vn 0.7952 0.3961 0.4591
vn 0.4591 0.3961 0.7952
vn -0.4196 -0.1185 0.8999
vn -0.4196 -0.8999 0.1185
vn -0.3961 -0.4591 0.7952
vn -0.3961 -0.7952 0.4591
vn -0.1280 -0.1280 0.9835
vn -0.9835 -0.1280 0.1280
vn -0.1280 -0.9835 0.1280
vn -0.4916 -0.1216 0.8623
vn -0.1216 -0.4916 0.8623
vn -0.4488 -0.4488 0.7727
vn -0.8623 -0.4916 0.1216
vn -0.8623 -0.1216 0.4916
vn -0.7727 -0.4488 0.4488
vn -0.1216 -0.8623 0.4916
vn -0.4916 -0.8623 0.1216
vn -0.4488 -0.7727 0.4488
vn -0.8999 -0.1185 0.4196
vn -0.1185 -0.8999 0.4196
vn -0.7952 -0.4591 0.3961
vn -0.4591 -0.7952 0.3961
vn -0.8999 0.4196 -0.1185
vn -0.1185 0.4196 -0.8999
vn -0.7952 0.3961 -0.4591
vn -0.4591 0.3961 -0.7952
vn -0.1185 0.4196 0.8999
vn -0.8999 0.4196 0.1185
vn -0.4591 0.3961 0.7952
vn -0.7952 0.3961 0.4591
vn 0.1280 0.1280 -0.9835
vn 0.1280 0.9835 -0.1280
vn 0.9835 0.1280 -0.1280
vn 0.1216 0.4916 -0.8623
vn 0.4916 0.1216 -0.8623
vn 0.4488 0.4488 -0.7727
vn 0.4916 0.8623 -0.1216
vn 0.1216 0.8623 -0.4916
vn 0.4488 0.7727 -0.4488
vn 0.8623 0.1216 -0.4916
vn 0.8623 0.4916 -0.1216
vn 0.7727 0.4488 -0.4488
vn -0.4196 0.1185 -0.8999
vn -0.4196 0.8999 -0.1185
vn -0.3961 0.4591 -0.7952
vn -0.3961 0.7952 -0.4591
vn -0.8999 0.1185 0.4196
vn -0.1185 0.8999 0.4196
vn -0.7952 0.4591 0.3961
vn -0.4591 0.7952 0.3961
vn -0.9835 0.1280 -0.1280
vn -0.1280 0.9835 -0.1280
vn -0.1280 0.1280 -0.9835
vn -0.8623 0.4916 -0.1216
vn -0.8623 0.1216 -0.4916
vn -0.7727 0.4488 -0.4488
vn -0.1216 0.8623 -0.4916
vn -0.4916 0.8623 -0.1216
vn -0.4488 0.7727 -0.4488
vn -0.4916 0.1216 -0.8623
vn -0.1216 0.4916 -0.8623
vn -0.4488 0.4488 -0.7727
vn 0.9835 0.1280 0.1280
vn 0.1280 0.9835 0.1280
vn 0.1280 0.1280 0.9835
vn 0.8623 0.4916 0.1216
vn 0.8623 0.1216 0.4916
vn 0.7727 0.4488 0.4488
vn 0.1216 0.8623 0.4916
vn 0.4916 0.8623 0.1216
vn 0.4488 0.7727 0.4488
vn 0.4916 0.1216 0.8623
vn 0.1216 0.4916 0.8623
vn 0.4488 0.4488 0.7727
vn 0.8999 0.1185 0.4196
vn 0.1185 0.8999 0.4196
vn 0.7952 0.4591 0.3961
vn 0.4591 0.7952 0.3961
vn -0.4196 0.8999 0.1185
vn -0.4196 0.1185 0.8999
vn -0.3961 0.7952 0.4591
vn -0.3961 0.4591 0.7952
vn -0.1280 0.1280 0.9835
vn -0.1280 0.9835 0.1280
vn -0.9835 0.1280 0.1280
vn -0.1216 0.4916 0.8623
vn -0.4916 0.1216 0.8623
vn -0.4488 0.4488 0.7727
vn -0.4916 0.8623 0.1216
vn -0.1216 0.8623 0.4916
vn -0.4489 0.7727 0.4488
vn -0.8623 0.1216 0.4916
vn -0.8623 0.4916 0.1216
vn -0.7727 0.4488 0.4488
vt -0.500000 -0.350000
vt -1.350000 0.500000
vt -1.350000 -0.350000
vt -1.500000 -0.350000
vt -0.500000 0.500000
vt -0.500000 -0.500000
vt 0.350000 -1.350000
vt -0.500000 -1.350000
vt 0.350000 0.500000
vt -0.500000 1.500000
vt -0.500000 0.350000
vt 0.350000 -0.500000
vt -2.350000 0.350000
vt -1.500000 -0.500000
vt -2.350000 -0.500000
vt 0.500000 -0.350000
vt -1.500000 0.500000
vt -1.500000 0.350000
vt -2.350000 -0.350000
vt 0.350000 1.500000
vt -0.500000 2.350000
vt -2.350000 0.500000
vt -1.500000 1.500000
vt 0.350000 -0.350000
vt -1.500000 -1.350000
vt -0.500000 -1.500000
vt -1.500000 -1.500000
vt 0.350000 2.350000
vt -2.350000 -1.350000
vt 0.500000 0.500000
vt 0.479904 0.425000
vt 0.425000 0.479904
vt -2.350000 1.500000
vt -1.500000 2.350000
vt -2.500000 1.500000
vt -2.500000 0.500000
vt -2.500000 0.350000
vt -1.350000 1.500000
vt 0.350000 -1.500000
vt 0.500000 -1.350000
vt -2.350000 -1.500000
vt -1.500000 2.500000
vt 0.425000 2.479904
vt 0.479904 2.425000
vt 0.500000 2.350000
vt -1.350000 2.350000
vt 0.350000 2.500000
vt -1.350000 2.500000
vt -2.350000 2.350000
vt -2.500000 2.350000
vt -2.350000 2.500000
vt 0.350000 0.424902
vt 0.424902 0.350000
vt 0.350000 0.350000
vt 0.350000 -0.479961
vt 0.421732 -0.421732
vt 0.421732 -0.460495
vt 0.424902 -0.350000
vt 0.350000 -0.424902
vt 0.460495 -0.421732
vt 0.479961 -0.350000
vt 0.460495 0.421732
vt 0.479961 0.350000
vt -2.350000 -0.424902
vt -2.424901 -0.350000
vt -2.350000 -0.479961
vt -2.421732 -0.421732
vt -2.424901 0.350000
vt -2.350000 0.424902
vt -1.424901 -0.350000
vt -1.350000 -0.424902
vt -1.460495 -0.421732
vt -1.421732 -0.421732
vt 0.350000 -1.479960
vt 0.421732 -1.421732
vt 0.421732 -1.460495
vt 0.424902 -1.350000
vt 0.350000 -1.424901
vt -1.350000 -0.479961
vt -1.421732 -0.460495
vt -1.479960 -0.350000
vt -2.350000 -1.424901
vt -2.424901 -1.350000
vt -2.421732 -1.460495
vt -2.421732 -1.421732
vt 0.350000 2.424901
vt 0.424902 2.350000
vt 0.421732 0.460495
vt 0.350000 0.479961
vt 0.421732 0.421732
vt 0.479961 2.350000
vt 0.421732 2.421732
vt 0.350000 2.479960
vt -2.421732 0.460495
vt -2.421732 0.421732
vt -2.424901 2.350000
vt -2.350000 2.424901
vt 0.460495 2.421732
vt 0.421732 2.460495
vt -1.350000 2.424901
vt -1.424901 2.350000
vt 0.460495 -1.421732
vt 0.479961 -1.350000
vt -2.350000 2.479960
vt -2.421732 2.421732
vt -2.479960 -1.350000
vt -1.479960 2.350000
vt -1.421732 2.421732
vt -1.460495 2.421732
vt -1.421732 2.460495
vt -0.500000 -0.425000
vt 0.425000 0.500000
vt 0.479904 0.500000
vt -1.500000 -0.425000
vt -1.500000 -0.479904
vt -0.500000 0.425000
vt -1.500000 0.425000
vt -1.500000 -1.425000
vt 0.425000 1.500000
vt -0.500000 2.425000
vt -1.500000 2.425000
vt -1.500000 0.479904
vt 0.479904 1.500000
vt -2.425000 1.500000
vt 0.479904 -0.500000
vt -1.500000 2.479904
vt -0.500000 -1.425000
vt -1.425000 1.500000
vt -0.500000 -0.479904
vt -2.425000 -0.500000
vt 0.425000 -0.500000
vt -1.425000 0.500000
vt -1.479904 0.500000
vt -2.425000 0.500000
vt -1.479904 1.500000
vt -0.500000 0.479904
vt -0.500000 2.479904
vt 0.479904 -0.425000
vt 0.425000 -0.479904
vt -1.350000 -0.500000
vt -1.425000 -0.479904
vt -1.479904 -0.425000
vt -2.500000 -0.350000
vt -2.479904 -0.425000
vt -2.425000 -0.479904
vt 0.500000 1.500000
vt 0.500000 -0.500000
vt 0.500000 0.350000
vt -2.500000 -0.500000
vt -2.425000 0.479904
vt -2.479904 0.425000
vt 0.425000 -1.479904
vt 0.479904 -1.425000
vt -2.500000 -1.350000
vt -2.479904 -1.425000
vt -2.425000 -1.479904
vt -0.500000 2.500000
vt -1.479904 2.425000
vt -1.425000 2.479904
vt -2.425000 2.479904
vt -2.479904 2.425000
vt -2.421732 -0.460495
vt -2.350000 0.479961
vt -1.350000 2.479960
s 1
usemtl ClayMat_38
f 21/1/17 73/2/65 61/3/53
f 46/4/37 7/5/7 41/1/37
f 2/6/2 63/7/55 78/8/70
f 38/9/34 17/10/14 9/5/9
f 42/11/38 22/12/18 2/6/2
f 51/13/43 3/14/3 98/15/86
f 42/12/38 1/5/1 41/16/37
f 1/6/1 8/17/8 5/14/5
f 2/6/2 5/17/5 3/14/3
f 45/18/38 2/6/2 3/14/3
f 50/19/42 8/17/8 46/4/37
f 45/12/38 5/5/5 46/16/37
f 106/20/66 177/21/146 19/10/10
f 102/22/90 15/23/12 8/17/8
f 6/5/6 49/24/41 97/1/85
f 62/24/54 4/5/4 77/1/69
f 41/1/37 37/9/33 26/24/22
f 77/1/69 10/17/10 94/4/69
f 74/9/66 19/10/10 4/5/4
f 22/12/18 21/16/17 1/5/1
f 3/14/3 78/8/70 93/25/70
f 94/4/69 109/22/93 81/19/73
f 4/26/4 5/14/5 10/27/10
f 77/4/69 4/17/4 1/5/1
f 98/15/86 3/14/3 5/17/5
f 110/2/94 97/1/85 82/3/74
f 13/10/8 117/28/97 114/20/33
f 98/15/86 93/25/70 83/29/75
f 94/4/69 10/17/10 5/5/5
f 113/20/34 169/21/141 17/10/14
f 9/30/9 11/10/5 1/5/1
f 40/31/36 39/32/35 37/9/33
f 7/5/7 114/20/33 37/9/33
f 11/10/5 7/30/7 1/5/1
f 11/6/5 15/17/12 14/14/1
f 1/5/1 14/23/1 5/17/5
f 8/17/8 13/10/8 7/5/7
f 14/10/1 8/30/8 5/5/5
f 133/33/90 142/34/109 15/23/12
f 5/17/5 20/35/16 6/36/6
f 20/10/16 101/9/89 6/5/6
f 101/37/89 5/14/5 102/22/90
f 181/38/94 6/5/6 110/2/94
f 9/5/9 105/38/65 73/2/65
f 74/39/66 73/40/65 1/6/1
f 19/23/10 1/5/1 4/17/4
f 19/26/10 14/14/1 12/27/11
f 4/5/4 12/23/11 10/17/10
f 12/23/11 5/5/5 10/17/10
f 109/41/93 10/27/10 5/14/5
f 10/17/10 182/33/93 109/22/93
f 18/6/15 141/18/110 16/14/13
f 19/10/10 174/34/146 12/23/11
f 115/31/36 116/32/35 114/9/33
f 170/12/142 130/11/110 18/6/15
f 137/21/113 134/20/89 20/10/16
f 15/23/12 129/21/109 13/10/8
f 11/10/5 16/42/13 14/23/1
f 132/43/112 131/44/111 129/45/109
f 158/7/130 18/6/15 178/8/145
f 187/46/151 20/10/16 181/38/94
f 173/25/145 138/15/114 186/29/150
f 16/14/13 146/13/118 138/15/114
f 134/37/89 14/14/1 133/22/90
f 171/44/143 172/43/144 170/47/142
f 17/10/14 157/46/129 105/38/65
f 106/39/66 105/40/65 11/6/5
f 182/41/93 12/27/11 14/14/1
f 174/34/146 173/48/145 14/10/1
f 12/23/11 185/49/149 182/33/93
f 177/34/146 178/48/145 11/10/5
f 143/43/112 144/44/111 142/45/109
f 178/8/145 16/14/13 173/25/145
f 137/50/113 14/23/1 138/51/114
f 28/52/24 29/53/25 25/54/21
f 28/55/24 33/56/29 30/57/26
f 31/58/27 32/59/28 26/24/22
f 35/58/31 33/60/29 31/61/27
f 34/59/30 35/58/31 27/24/23
f 29/53/25 36/62/32 34/63/30
f 30/57/26 33/60/29 36/56/32
f 52/58/44 53/59/45 49/24/41
f 52/58/44 57/60/49 54/56/46
f 55/64/47 56/65/48 50/19/42
f 59/66/51 57/67/49 55/64/47
f 58/68/50 59/69/51 51/13/43
f 53/59/45 60/57/52 58/55/50
f 54/56/46 57/60/49 60/57/52
f 64/70/56 65/71/57 61/3/53
f 64/70/56 69/72/61 66/73/58
f 67/59/59 68/58/60 62/24/54
f 67/74/59 72/75/64 69/76/61
f 70/77/62 71/78/63 63/7/55
f 70/79/62 66/73/58 72/80/64
f 66/73/58 69/72/61 72/80/64
f 84/65/76 85/64/77 81/19/73
f 88/70/80 86/72/78 84/81/76
f 87/71/79 88/70/80 82/3/74
f 87/71/79 92/80/84 89/73/81
f 90/82/82 91/83/83 83/29/75
f 90/82/82 86/84/78 92/85/84
f 86/72/78 89/73/81 92/80/84
f 120/86/100 121/87/101 117/28/97
f 124/52/104 122/88/102 120/89/100
f 123/53/103 124/52/104 118/54/98
f 123/53/103 128/62/108 125/90/105
f 126/87/106 127/86/107 119/28/99
f 121/91/101 128/92/108 126/87/106
f 122/88/102 125/90/105 128/62/108
f 148/86/120 149/87/121 145/28/117
f 152/93/124 150/92/122 148/86/120
f 151/69/123 152/68/124 146/13/118
f 151/69/123 156/94/128 153/95/125
f 154/96/126 155/97/127 147/49/119
f 149/87/121 156/98/128 154/91/126
f 150/92/122 153/99/125 156/98/128
f 160/100/132 161/101/133 157/46/129
f 164/77/136 162/102/134 160/103/132
f 163/78/135 164/77/136 158/7/130
f 163/78/135 168/76/140 165/75/137
f 166/87/138 167/86/139 159/28/131
f 161/91/133 168/92/140 166/87/138
f 162/102/134 165/75/137 168/76/140
f 188/97/152 189/96/153 185/49/149
f 192/104/156 190/105/154 188/97/152
f 191/83/155 192/82/156 186/29/150
f 195/106/159 193/85/157 191/83/155
f 194/101/158 195/100/159 187/46/151
f 189/107/153 196/108/160 194/101/158
f 190/109/154 193/110/157 196/108/160
f 21/1/17 34/59/30 27/24/23
f 23/111/19 29/55/25 34/59/30
f 29/53/25 22/12/18 25/54/21
f 38/9/34 35/58/31 40/112/36
f 35/58/31 39/113/35 40/112/36
f 31/58/27 37/9/33 39/112/35
f 41/1/37 48/114/39 46/4/37
f 43/111/39 47/115/40 48/114/39
f 44/116/40 45/18/38 47/117/40
f 73/2/65 64/70/56 61/3/53
f 75/113/67 68/58/60 64/61/56
f 68/58/60 74/9/66 62/24/54
f 94/4/69 85/64/77 96/114/71
f 85/64/77 95/115/72 96/114/71
f 90/82/82 93/25/70 95/118/72
f 97/1/85 87/71/79 82/3/74
f 99/111/87 91/79/83 87/71/79
f 91/83/83 98/15/86 83/29/75
f 113/20/34 126/87/106 119/28/99
f 115/119/36 121/91/101 126/87/106
f 121/87/101 114/20/33 117/28/97
f 137/21/113 148/86/120 145/28/117
f 139/120/115 152/93/124 148/86/120
f 152/68/124 138/15/114 146/13/118
f 142/34/109 155/97/127 144/121/111
f 144/122/111 151/69/123 143/117/112
f 151/69/123 141/18/110 143/117/112
f 134/20/89 149/87/121 136/119/91
f 149/87/121 135/123/92 136/119/91
f 154/96/126 133/33/90 135/124/92
f 169/21/141 160/100/132 157/46/129
f 171/125/143 164/77/136 160/103/132
f 164/77/136 170/12/142 158/7/130
f 177/21/146 176/121/148 174/34/146
f 179/120/148 175/126/147 176/121/148
f 180/127/147 173/25/145 175/118/147
f 181/38/94 194/101/158 187/46/151
f 183/128/96 189/107/153 194/101/158
f 189/96/153 182/33/93 185/49/149
f 41/1/37 32/59/28 43/111/39
f 32/59/28 44/129/40 43/111/39
f 28/52/24 42/11/38 44/116/40
f 97/1/85 53/59/45 99/111/87
f 53/59/45 100/129/88 99/111/87
f 58/68/50 98/15/86 100/130/88
f 46/4/37 55/64/47 50/19/42
f 55/64/47 47/115/40 59/66/51
f 59/69/51 45/18/38 51/13/43
f 101/9/89 52/58/44 49/24/41
f 103/112/91 56/61/48 52/58/44
f 56/65/48 102/22/90 50/19/42
f 77/1/69 67/59/59 62/24/54
f 79/111/71 71/55/63 67/59/59
f 71/78/63 78/8/70 63/7/55
f 21/1/17 65/71/57 23/111/19
f 65/71/57 24/129/20 23/111/19
f 70/77/62 22/12/18 24/131/20
f 94/4/69 79/111/71 77/1/69
f 96/114/71 80/129/72 79/111/71
f 95/118/72 78/8/70 80/127/72
f 110/2/94 88/70/80 112/132/96
f 88/70/80 111/133/95 112/132/96
f 84/65/76 109/22/93 111/134/95
f 38/9/34 115/119/36 113/20/34
f 40/112/36 116/123/35 115/119/36
f 39/112/35 114/20/33 116/119/35
f 134/20/89 103/112/91 101/9/89
f 136/119/91 104/113/92 103/112/91
f 135/124/92 102/22/90 104/134/92
f 105/38/65 75/132/67 73/2/65
f 107/123/67 76/112/68 75/113/67
f 108/119/68 74/9/66 76/112/68
f 110/2/94 183/128/96 181/38/94
f 112/132/96 184/135/95 183/128/96
f 111/134/95 182/33/93 184/124/95
f 169/21/141 127/86/107 171/120/143
f 127/63/107 172/131/144 171/125/143
f 123/53/103 170/12/142 172/131/144
f 129/21/109 120/86/100 117/28/97
f 131/136/111 124/52/104 120/89/100
f 124/52/104 130/11/110 118/54/98
f 142/34/109 131/120/111 129/21/109
f 144/122/111 132/116/112 131/136/111
f 143/117/112 130/11/110 132/116/112
f 177/21/146 167/86/139 179/120/148
f 167/86/139 180/137/147 179/120/148
f 163/78/135 178/8/145 180/127/147
f 105/38/65 161/101/133 107/128/67
f 161/91/133 108/119/68 107/123/67
f 166/87/138 106/20/66 108/119/68
f 137/21/113 195/100/159 139/120/115
f 195/100/159 140/137/116 139/120/115
f 191/83/155 138/15/114 140/130/116
f 174/34/146 188/97/152 185/49/149
f 188/97/152 175/126/147 192/104/156
f 192/82/156 173/25/145 186/29/150
f 27/24/23 9/5/9 21/1/17
f 21/1/17 9/5/9 73/2/65
f 46/4/37 8/17/8 7/5/7
f 2/6/2 22/12/18 63/7/55
f 38/9/34 113/20/34 17/10/14
f 42/11/38 25/54/21 22/12/18
f 51/13/43 45/18/38 3/14/3
f 42/12/38 2/6/2 1/5/1
f 1/5/1 7/30/7 41/16/37
f 41/16/37 43/138/39 44/139/40
f 44/139/40 42/12/38 41/16/37
f 1/6/1 7/5/7 8/17/8
f 2/6/2 1/5/1 5/17/5
f 45/18/38 42/11/38 2/6/2
f 50/19/42 102/22/90 8/17/8
f 45/12/38 3/6/3 5/5/5
f 5/5/5 8/30/8 46/16/37
f 46/16/37 48/138/39 47/139/40
f 47/139/40 45/12/38 46/16/37
f 106/20/66 159/28/131 177/21/146
f 102/22/90 133/33/90 15/23/12
f 6/5/6 101/9/89 49/24/41
f 62/24/54 74/9/66 4/5/4
f 41/1/37 7/5/7 37/9/33
f 77/1/69 4/5/4 10/17/10
f 74/9/66 106/20/66 19/10/10
f 1/5/1 2/6/2 22/12/18
f 22/12/18 24/139/20 23/138/19
f 23/138/19 21/16/17 22/12/18
f 21/16/17 9/30/9 1/5/1
f 3/14/3 2/6/2 78/8/70
f 94/4/69 10/17/10 109/22/93
f 4/26/4 1/6/1 5/14/5
f 2/6/2 78/140/70 1/5/1
f 78/140/70 80/141/72 77/4/69
f 1/5/1 78/140/70 77/4/69
f 80/141/72 79/142/71 77/4/69
f 6/36/6 97/143/85 5/17/5
f 97/143/85 99/144/87 98/15/86
f 5/17/5 97/143/85 98/15/86
f 99/144/87 100/145/88 98/15/86
f 110/2/94 6/5/6 97/1/85
f 13/10/8 129/21/109 117/28/97
f 98/15/86 3/14/3 93/25/70
f 3/6/3 93/140/70 5/5/5
f 93/140/70 95/141/72 94/4/69
f 5/5/5 93/140/70 94/4/69
f 95/141/72 96/142/71 94/4/69
f 113/20/34 119/28/99 169/21/141
f 9/30/9 17/146/14 11/10/5
f 7/5/7 1/6/1 37/9/33
f 1/6/1 9/147/9 38/148/34
f 37/9/33 1/6/1 38/148/34
f 38/148/34 40/31/36 37/9/33
f 7/5/7 13/10/8 114/20/33
f 11/10/5 13/146/8 7/30/7
f 11/6/5 13/5/8 15/17/12
f 1/5/1 11/10/5 14/23/1
f 8/17/8 15/23/12 13/10/8
f 14/10/1 15/146/12 8/30/8
f 133/33/90 147/49/119 142/34/109
f 5/17/5 14/23/1 20/35/16
f 20/10/16 134/20/89 101/9/89
f 101/37/89 6/149/6 5/14/5
f 5/14/5 8/17/8 102/22/90
f 102/22/90 104/150/92 103/151/91
f 103/151/91 101/37/89 102/22/90
f 181/38/94 20/10/16 6/5/6
f 9/5/9 17/10/14 105/38/65
f 1/6/1 4/26/4 74/39/66
f 74/39/66 76/152/68 75/153/67
f 75/153/67 73/40/65 74/39/66
f 73/40/65 9/147/9 1/6/1
f 19/23/10 11/10/5 1/5/1
f 19/26/10 11/6/5 14/14/1
f 4/5/4 19/10/10 12/23/11
f 12/23/11 14/10/1 5/5/5
f 6/149/6 110/154/94 5/14/5
f 110/154/94 112/155/96 109/41/93
f 5/14/5 110/154/94 109/41/93
f 112/155/96 111/156/95 109/41/93
f 10/17/10 12/23/11 182/33/93
f 18/6/15 130/11/110 141/18/110
f 19/10/10 177/21/146 174/34/146
f 13/5/8 11/6/5 114/9/33
f 11/6/5 17/147/14 113/148/34
f 114/9/33 11/6/5 113/148/34
f 113/148/34 115/31/36 114/9/33
f 170/12/142 118/54/98 130/11/110
f 137/21/113 145/28/117 134/20/89
f 15/23/12 142/34/109 129/21/109
f 11/10/5 18/157/15 16/42/13
f 13/146/8 11/10/5 129/45/109
f 11/10/5 18/157/15 130/47/110
f 129/45/109 11/10/5 130/47/110
f 130/47/110 132/43/112 129/45/109
f 158/7/130 170/12/142 18/6/15
f 187/46/151 137/21/113 20/10/16
f 173/25/145 16/14/13 138/15/114
f 16/14/13 141/18/110 146/13/118
f 134/37/89 20/149/16 14/14/1
f 14/14/1 15/17/12 133/22/90
f 133/22/90 135/150/92 136/151/91
f 136/151/91 134/37/89 133/22/90
f 18/157/15 11/10/5 170/47/142
f 11/10/5 17/146/14 169/45/141
f 170/47/142 11/10/5 169/45/141
f 169/45/141 171/44/143 170/47/142
f 17/10/14 169/21/141 157/46/129
f 11/6/5 19/26/10 106/39/66
f 106/39/66 108/152/68 107/153/67
f 107/153/67 105/40/65 106/39/66
f 105/40/65 17/147/14 11/6/5
f 20/149/16 181/154/94 14/14/1
f 181/154/94 183/155/96 182/41/93
f 14/14/1 181/154/94 182/41/93
f 183/155/96 184/156/95 182/41/93
f 14/10/1 12/23/11 174/34/146
f 174/34/146 176/158/148 175/159/147
f 175/159/147 173/48/145 174/34/146
f 173/48/145 16/157/13 14/10/1
f 12/23/11 174/34/146 185/49/149
f 11/10/5 19/23/10 177/34/146
f 177/34/146 179/158/148 180/159/147
f 180/159/147 178/48/145 177/34/146
f 178/48/145 18/157/15 11/10/5
f 15/146/12 14/10/1 142/45/109
f 14/10/1 16/157/13 141/47/110
f 142/45/109 14/10/1 141/47/110
f 141/47/110 143/43/112 142/45/109
f 178/8/145 18/6/15 16/14/13
f 137/50/113 20/35/16 14/23/1
f 14/23/1 16/42/13 138/51/114
f 138/51/114 140/160/116 139/161/115
f 139/161/115 137/50/113 138/51/114
f 28/52/24 30/90/26 29/53/25
f 28/55/24 32/59/28 33/56/29
f 31/58/27 33/56/29 32/59/28
f 35/58/31 36/56/32 33/60/29
f 34/59/30 36/56/32 35/58/31
f 29/55/25 30/57/26 36/56/32
f 52/58/44 54/56/46 53/59/45
f 52/58/44 56/61/48 57/60/49
f 55/64/47 57/67/49 56/65/48
f 59/66/51 60/162/52 57/67/49
f 58/68/50 60/95/52 59/69/51
f 53/59/45 54/56/46 60/57/52
f 64/70/56 66/73/58 65/71/57
f 64/61/56 68/58/60 69/56/61
f 67/59/59 69/56/61 68/58/60
f 67/59/59 71/55/63 72/57/64
f 70/77/62 72/75/64 71/78/63
f 70/79/62 65/71/57 66/73/58
f 84/65/76 86/67/78 85/64/77
f 88/70/80 89/73/81 86/72/78
f 87/71/79 89/73/81 88/70/80
f 87/71/79 91/79/83 92/80/84
f 90/82/82 92/85/84 91/83/83
f 90/66/82 85/64/77 86/67/78
f 120/86/100 122/92/102 121/87/101
f 124/52/104 125/90/105 122/88/102
f 123/53/103 125/90/105 124/52/104
f 123/53/103 127/63/107 128/62/108
f 126/87/106 128/92/108 127/86/107
f 121/91/101 122/98/102 128/92/108
f 148/86/120 150/92/122 149/87/121
f 152/93/124 153/99/125 150/92/122
f 151/69/123 153/95/125 152/68/124
f 151/69/123 155/163/127 156/94/128
f 154/96/126 156/105/128 155/97/127
f 149/87/121 150/92/122 156/98/128
f 160/100/132 162/108/134 161/101/133
f 164/77/136 165/75/137 162/102/134
f 163/78/135 165/75/137 164/77/136
f 163/93/135 167/86/139 168/92/140
f 166/87/138 168/92/140 167/86/139
f 161/101/133 162/108/134 168/109/140
f 188/97/152 190/105/154 189/96/153
f 192/82/156 193/85/157 190/84/154
f 191/83/155 193/85/157 192/82/156
f 195/100/159 196/108/160 193/110/157
f 194/101/158 196/108/160 195/100/159
f 189/107/153 190/109/154 196/108/160
f 21/1/17 23/111/19 34/59/30
f 23/111/19 24/129/20 29/55/25
f 29/53/25 24/131/20 22/12/18
f 38/9/34 27/24/23 35/58/31
f 35/58/31 31/61/27 39/113/35
f 31/58/27 26/24/22 37/9/33
f 41/1/37 43/111/39 48/114/39
f 43/111/39 44/129/40 47/115/40
f 44/116/40 42/11/38 45/18/38
f 73/2/65 75/132/67 64/70/56
f 75/113/67 76/112/68 68/58/60
f 68/58/60 76/112/68 74/9/66
f 94/4/69 81/19/73 85/64/77
f 85/64/77 90/66/82 95/115/72
f 90/82/82 83/29/75 93/25/70
f 97/1/85 99/111/87 87/71/79
f 99/111/87 100/129/88 91/79/83
f 91/83/83 100/130/88 98/15/86
f 113/20/34 115/119/36 126/87/106
f 115/119/36 116/123/35 121/91/101
f 121/87/101 116/119/35 114/20/33
f 137/21/113 139/120/115 148/86/120
f 139/120/115 140/137/116 152/93/124
f 152/68/124 140/130/116 138/15/114
f 142/34/109 147/49/119 155/97/127
f 144/122/111 155/163/127 151/69/123
f 151/69/123 146/13/118 141/18/110
f 134/20/89 145/28/117 149/87/121
f 149/87/121 154/91/126 135/123/92
f 154/96/126 147/49/119 133/33/90
f 169/21/141 171/120/143 160/100/132
f 171/125/143 172/131/144 164/77/136
f 164/77/136 172/131/144 170/12/142
f 177/21/146 179/120/148 176/121/148
f 179/120/148 180/137/147 175/126/147
f 180/127/147 178/8/145 173/25/145
f 181/38/94 183/128/96 194/101/158
f 183/128/96 184/135/95 189/107/153
f 189/96/153 184/124/95 182/33/93
f 41/1/37 26/24/22 32/59/28
f 32/59/28 28/55/24 44/129/40
f 28/52/24 25/54/21 42/11/38
f 97/1/85 49/24/41 53/59/45
f 53/59/45 58/55/50 100/129/88
f 58/68/50 51/13/43 98/15/86
f 46/4/37 48/114/39 55/64/47
f 55/64/47 48/114/39 47/115/40
f 59/69/51 47/117/40 45/18/38
f 101/9/89 103/112/91 52/58/44
f 103/112/91 104/113/92 56/61/48
f 56/65/48 104/134/92 102/22/90
f 77/1/69 79/111/71 67/59/59
f 79/111/71 80/129/72 71/55/63
f 71/78/63 80/127/72 78/8/70
f 21/1/17 61/3/53 65/71/57
f 65/71/57 70/79/62 24/129/20
f 70/77/62 63/7/55 22/12/18
f 94/4/69 96/114/71 79/111/71
f 96/114/71 95/115/72 80/129/72
f 95/118/72 93/25/70 78/8/70
f 110/2/94 82/3/74 88/70/80
f 88/70/80 84/81/76 111/133/95
f 84/65/76 81/19/73 109/22/93
f 38/9/34 40/112/36 115/119/36
f 40/112/36 39/113/35 116/123/35
f 39/112/35 37/9/33 114/20/33
f 134/20/89 136/119/91 103/112/91
f 136/119/91 135/123/92 104/113/92
f 135/124/92 133/33/90 102/22/90
f 105/38/65 107/128/67 75/132/67
f 107/123/67 108/119/68 76/112/68
f 108/119/68 106/20/66 74/9/66
f 110/2/94 112/132/96 183/128/96
f 112/132/96 111/133/95 184/135/95
f 111/134/95 109/22/93 182/33/93
f 169/21/141 119/28/99 127/86/107
f 127/63/107 123/53/103 172/131/144
f 123/53/103 118/54/98 170/12/142
f 129/21/109 131/120/111 120/86/100
f 131/136/111 132/116/112 124/52/104
f 124/52/104 132/116/112 130/11/110
f 142/34/109 144/121/111 131/120/111
f 144/122/111 143/117/112 132/116/112
f 143/117/112 141/18/110 130/11/110
f 177/21/146 159/28/131 167/86/139
f 167/86/139 163/93/135 180/137/147
f 163/78/135 158/7/130 178/8/145
f 105/38/65 157/46/129 161/101/133
f 161/91/133 166/87/138 108/119/68
f 166/87/138 159/28/131 106/20/66
f 137/21/113 187/46/151 195/100/159
f 195/100/159 191/164/155 140/137/116
f 191/83/155 186/29/150 138/15/114
f 174/34/146 176/121/148 188/97/152
f 188/97/152 176/121/148 175/126/147
f 192/82/156 175/118/147 173/25/145
f 27/24/23 38/9/34 9/5/9
