# Blender 4.5.3 LTS
# www.blender.org
mtllib __clay_block_01_10.mtl
o clay_block_10
v 0.150000 -0.516667 0.333333
v 0.000000 -0.516667 0.183333
v 0.150000 -0.666667 0.183333
v 0.075098 -0.516667 0.313294
v 0.150000 -0.591568 0.313294
v 0.078268 -0.588398 0.293828
v 0.020039 -0.591568 0.183333
v 0.020039 -0.516667 0.258235
v 0.039505 -0.588398 0.255065
v 0.150000 -0.646627 0.258235
v 0.075098 -0.646627 0.183333
v 0.078268 -0.627162 0.255065
v 0.850000 -0.516667 0.333333
v 0.850000 -0.666667 0.183333
v 1.000000 -0.516667 0.183333
v 0.850000 -0.591568 0.313294
v 0.924902 -0.516667 0.313294
v 0.921732 -0.588398 0.293828
v 0.924902 -0.646627 0.183333
v 0.850000 -0.646627 0.258235
v 0.921732 -0.627162 0.255065
v 0.979961 -0.516667 0.258235
v 0.979961 -0.591568 0.183333
v 0.960495 -0.588398 0.255065
v 0.850000 -0.516667 -0.666667
v 1.000000 -0.516667 -0.516667
v 0.850000 -0.666667 -0.516667
v 0.924902 -0.516667 -0.646627
v 0.850000 -0.591568 -0.646627
v 0.921732 -0.588398 -0.627162
v 0.979961 -0.591568 -0.516667
v 0.979961 -0.516667 -0.591568
v 0.960495 -0.588398 -0.588398
v 0.850000 -0.646627 -0.591568
v 0.924902 -0.646627 -0.516667
v 0.921732 -0.627162 -0.588398
v 0.000000 -0.516667 -0.516667
v 0.150000 -0.516667 -0.666667
v 0.150000 -0.666667 -0.516667
v 0.020039 -0.516667 -0.591568
v 0.020039 -0.591568 -0.516667
v 0.039505 -0.588398 -0.588398
v 0.150000 -0.591568 -0.646627
v 0.075098 -0.516667 -0.646627
v 0.078268 -0.588398 -0.627162
v 0.075098 -0.646627 -0.516667
v 0.150000 -0.646627 -0.591568
v 0.078268 -0.627162 -0.588398
v 0.850000 0.333333 -0.666667
v 1.000000 0.483333 -0.516667
v 0.925000 0.353429 -0.646571
v 0.979904 0.408333 -0.591667
v 0.000000 0.483333 -0.516667
v 0.150000 0.333333 -0.666667
v 0.020096 0.408333 -0.591667
v 0.075000 0.353429 -0.646571
v 0.000000 0.333333 0.183333
v 0.150000 0.333333 0.333333
v 0.020096 0.333333 0.258333
v 0.075000 0.333333 0.313237
v 0.850000 0.333333 0.333333
v 1.000000 0.333333 0.183333
v 0.925000 0.333333 0.313237
v 0.979904 0.333333 0.258333
v 0.000000 1.183333 0.183333
v 0.150000 1.183333 0.333333
v 0.150000 1.333333 0.183333
v 0.020039 1.183333 0.258235
v 0.020039 1.258235 0.183333
v 0.039505 1.255065 0.255065
v 0.150000 1.258235 0.313294
v 0.075098 1.183333 0.313294
v 0.078268 1.255065 0.293828
v 0.075098 1.313294 0.183333
v 0.150000 1.313294 0.258235
v 0.078268 1.293828 0.255065
v 0.850000 1.183333 0.333333
v 1.000000 1.183333 0.183333
v 0.850000 1.333333 0.183333
v 0.924902 1.183333 0.313294
v 0.850000 1.258235 0.313294
v 0.921732 1.255065 0.293828
v 0.979961 1.258235 0.183333
v 0.979961 1.183333 0.258235
v 0.960495 1.255065 0.255065
v 0.850000 1.313294 0.258235
v 0.924902 1.313294 0.183333
v 0.921732 1.293828 0.255065
v 1.000000 1.183333 -0.666667
v 0.850000 1.333333 -0.666667
v 0.979904 1.258333 -0.666667
v 0.925000 1.313237 -0.666667
v 0.150000 1.333333 -0.666667
v 0.000000 1.183333 -0.666667
v 0.075000 1.313237 -0.666667
v 0.020096 1.258333 -0.666667
v 0.850000 0.333333 -1.516667
v 0.850000 0.483333 -1.666667
v 1.000000 0.483333 -1.516667
v 0.850000 0.353373 -1.591568
v 0.924902 0.353373 -1.516667
v 0.921732 0.372838 -1.588398
v 0.924902 0.483333 -1.646627
v 0.850000 0.408432 -1.646627
v 0.921732 0.411602 -1.627162
v 0.979961 0.408432 -1.516667
v 0.979961 0.483333 -1.591568
v 0.960495 0.411602 -1.588398
v 0.150000 0.333333 -1.516667
v 0.000000 0.483333 -1.516667
v 0.150000 0.483333 -1.666667
v 0.075098 0.353373 -1.516667
v 0.150000 0.353373 -1.591568
v 0.078268 0.372838 -1.588398
v 0.020039 0.483333 -1.591568
v 0.020039 0.408432 -1.516667
v 0.039505 0.411602 -1.588398
v 0.150000 0.408432 -1.646627
v 0.075098 0.483333 -1.646627
v 0.078268 0.411602 -1.627162
v 0.850000 1.333333 -1.516667
v 1.000000 1.183333 -1.516667
v 0.850000 1.183333 -1.666667
v 0.924902 1.313294 -1.516667
v 0.850000 1.313294 -1.591568
v 0.921732 1.293828 -1.588398
v 0.979961 1.183333 -1.591568
v 0.979961 1.258235 -1.516667
v 0.960495 1.255065 -1.588398
v 0.850000 1.258235 -1.646627
v 0.924902 1.183333 -1.646627
v 0.921732 1.255065 -1.627162
v 0.150000 1.333333 -1.516667
v 0.150000 1.183333 -1.666667
v 0.000000 1.183333 -1.516667
v 0.150000 1.313294 -1.591568
v 0.075098 1.313294 -1.516667
v 0.078268 1.293828 -1.588398
v 0.075098 1.183333 -1.646627
v 0.150000 1.258235 -1.646627
v 0.078268 1.255065 -1.627162
v 0.020039 1.258235 -1.516667
v 0.020039 1.183333 -1.591568
v 0.039505 1.255065 -1.588398
vn -0.1280 -0.1280 0.9835
vn -0.9835 -0.1280 0.1280
vn -0.1280 -0.9835 0.1280
vn -0.4916 -0.1216 0.8623
vn -0.1216 -0.4916 0.8623
vn -0.4488 -0.4488 0.7727
vn -0.8623 -0.4916 0.1216
vn -0.8623 -0.1216 0.4916
vn -0.7727 -0.4488 0.4488
vn -0.1216 -0.8623 0.4916
vn -0.4916 -0.8623 0.1216
vn -0.4488 -0.7727 0.4488
vn 0.1280 -0.1280 0.9835
vn 0.1280 -0.9835 0.1280
vn 0.9835 -0.1280 0.1280
vn 0.1216 -0.4916 0.8623
vn 0.4916 -0.1216 0.8623
vn 0.4489 -0.4488 0.7727
vn 0.4916 -0.8623 0.1216
vn 0.1216 -0.8623 0.4916
vn 0.4488 -0.7727 0.4488
vn 0.8623 -0.1216 0.4916
vn 0.8623 -0.4916 0.1216
vn 0.7727 -0.4488 0.4488
vn 0.1280 -0.1280 -0.9835
vn 0.9835 -0.1280 -0.1280
vn 0.1280 -0.9835 -0.1280
vn 0.4916 -0.1216 -0.8623
vn 0.1216 -0.4916 -0.8623
vn 0.4488 -0.4488 -0.7727
vn 0.8623 -0.4916 -0.1216
vn 0.8623 -0.1216 -0.4916
vn 0.7727 -0.4488 -0.4488
vn 0.1216 -0.8623 -0.4916
vn 0.4916 -0.8623 -0.1216
vn 0.4488 -0.7727 -0.4488
vn -0.9835 -0.1280 -0.1280
vn -0.1280 -0.1280 -0.9835
vn -0.1280 -0.9835 -0.1280
vn -0.8623 -0.1216 -0.4916
vn -0.8623 -0.4916 -0.1216
vn -0.7727 -0.4488 -0.4488
vn -0.1216 -0.4916 -0.8623
vn -0.4916 -0.1216 -0.8623
vn -0.4488 -0.4488 -0.7727
vn -0.4916 -0.8623 -0.1216
vn -0.1216 -0.8623 -0.4916
vn -0.4488 -0.7727 -0.4488
vn 0.1565 -0.1248 -0.9798
vn 0.9581 0.1682 -0.2318
vn 0.6236 -0.1680 -0.7635
vn 0.8740 0.0950 -0.4765
vn -0.9581 0.1682 -0.2318
vn -0.1565 -0.1248 -0.9798
vn -0.8740 0.0950 -0.4765
vn -0.6236 -0.1680 -0.7635
vn -0.8934 0.4308 0.1273
vn -0.1185 0.4196 0.8999
vn -0.7952 0.3961 0.4591
vn -0.4591 0.3961 0.7952
vn 0.1185 0.4196 0.8999
vn 0.8934 0.4308 0.1273
vn 0.4591 0.3961 0.7952
vn 0.7952 0.3961 0.4591
vn -0.9835 0.1280 0.1280
vn -0.1280 0.1280 0.9835
vn -0.1280 0.9835 0.1280
vn -0.8623 0.1216 0.4916
vn -0.8623 0.4916 0.1216
vn -0.7727 0.4488 0.4488
vn -0.1216 0.4916 0.8623
vn -0.4916 0.1216 0.8623
vn -0.4488 0.4488 0.7727
vn -0.4916 0.8623 0.1216
vn -0.1216 0.8623 0.4916
vn -0.4488 0.7727 0.4488
vn 0.1280 0.1280 0.9835
vn 0.9835 0.1280 0.1280
vn 0.1280 0.9835 0.1280
vn 0.4916 0.1216 0.8623
vn 0.1216 0.4916 0.8623
vn 0.4488 0.4488 0.7727
vn 0.8623 0.4916 0.1216
vn 0.8623 0.1216 0.4916
vn 0.7727 0.4488 0.4488
vn 0.1216 0.8623 0.4916
vn 0.4916 0.8623 0.1216
vn 0.4488 0.7727 0.4488
vn 0.9062 0.1102 -0.4083
vn 0.1185 0.8999 -0.4196
vn 0.7952 0.4591 -0.3961
vn 0.4591 0.7952 -0.3961
vn -0.1185 0.8999 -0.4196
vn -0.9062 0.1102 -0.4083
vn -0.4591 0.7952 -0.3961
vn -0.7952 0.4591 -0.3961
vn 0.1280 0.9835 -0.1280
vn 0.9835 0.1280 -0.1280
vn 0.1280 0.1280 -0.9835
vn 0.4916 0.8623 -0.1216
vn 0.1216 0.8623 -0.4916
vn 0.4488 0.7727 -0.4488
vn 0.8623 0.1216 -0.4916
vn 0.8623 0.4916 -0.1216
vn 0.7727 0.4488 -0.4488
vn 0.1216 0.4916 -0.8623
vn 0.4916 0.1216 -0.8623
vn 0.4488 0.4488 -0.7727
vn -0.1280 0.9835 -0.1280
vn -0.1280 0.1280 -0.9835
vn -0.9835 0.1280 -0.1280
vn -0.1216 0.8623 -0.4916
vn -0.4916 0.8623 -0.1216
vn -0.4488 0.7727 -0.4488
vn -0.4916 0.1216 -0.8623
vn -0.1216 0.4916 -0.8623
vn -0.4488 0.4488 -0.7727
vn -0.8623 0.4916 -0.1216
vn -0.8623 0.1216 -0.4916
vn -0.7727 0.4488 -0.4488
vt 0.075098 -0.516667
vt 0.150000 -0.591568
vt 0.150000 -0.516667
vt -0.258235 -0.516667
vt -0.293828 -0.588398
vt -0.313294 -0.516667
vt -0.183333 -0.591568
vt -0.183333 -0.516667
vt -0.255065 -0.627162
vt -0.255065 -0.588398
vt 0.150000 -0.258235
vt 0.075098 -0.183333
vt 0.150000 -0.183333
vt 0.150000 -0.313294
vt 0.078268 -0.255065
vt 0.078268 -0.588398
vt 0.039505 -0.588398
vt 0.078268 -0.627162
vt 0.850000 -0.591568
vt 0.924902 -0.516667
vt 0.850000 -0.516667
vt 0.921732 -0.627162
vt 0.921732 -0.588398
vt 0.924902 -0.183333
vt 0.850000 -0.258235
vt 0.850000 -0.183333
vt -0.183333 -0.646627
vt 0.591568 -0.516667
vt 0.627162 -0.588398
vt 0.646627 -0.516667
vt 0.516667 -0.591568
vt 0.516667 -0.516667
vt 0.588398 -0.627162
vt 0.588398 -0.588398
vt 0.850000 0.591568
vt 0.924902 0.516667
vt 0.850000 0.516667
vt 0.850000 -0.646627
vt 0.150000 -0.646627
vt 0.075098 0.516667
vt 0.150000 0.591568
vt 0.150000 0.516667
vt 0.020039 0.516667
vt 0.078268 0.588398
vt -0.258235 1.183333
vt -0.183333 1.258235
vt -0.183333 1.183333
vt -0.313294 1.183333
vt -0.255065 1.255065
vt 0.150000 1.258235
vt 0.075098 1.183333
vt 0.150000 1.183333
vt 0.078268 -0.293828
vt 0.020039 -0.183333
vt 0.039505 1.255065
vt 0.078268 1.255065
vt 0.078268 1.293828
vt 0.924902 1.183333
vt 0.850000 1.258235
vt 0.850000 1.183333
vt -0.293828 1.255065
vt -0.255065 1.293828
vt 0.850000 1.313294
vt 0.921732 1.255065
vt 0.921732 1.293828
vt 0.850000 1.591568
vt 0.924902 1.516667
vt 0.850000 1.516667
vt 0.850000 0.408432
vt 0.921732 0.372838
vt 0.850000 0.353373
vt 0.924902 0.483333
vt 0.850000 0.483333
vt 1.646627 0.483333
vt 1.588398 0.411602
vt 1.627162 0.411602
vt 1.516667 0.408432
vt 1.591568 0.483333
vt 1.516667 0.483333
vt 1.588398 0.372838
vt 0.075098 1.516667
vt 0.150000 1.591568
vt 0.150000 1.516667
vt 1.516667 0.353373
vt 0.150000 0.408432
vt 0.075098 0.483333
vt 0.150000 0.483333
vt 0.150000 0.353373
vt 0.078268 0.411602
vt 1.516667 1.258235
vt 1.588398 1.293828
vt 1.516667 1.313294
vt 1.591568 1.183333
vt 1.516667 1.183333
vt 1.627162 1.255065
vt 1.588398 1.255065
vt 0.075098 1.516667
vt 0.150000 1.516667
vt 0.150000 1.313294
vt 0.020039 1.183333
vt 0.850000 -0.313294
vt 0.516667 -0.646627
vt 0.591667 0.408333
vt 0.516667 0.483333
vt 0.646571 0.353429
vt 0.850000 0.333333
vt 0.925000 0.353429
vt 0.020039 -0.516667
vt 0.075000 0.353429
vt 0.150000 0.333333
vt 0.666667 1.183333
vt 0.666667 1.258333
vt 0.666667 1.313237
vt 0.150000 0.666667
vt 0.075000 0.666667
vt -0.183333 1.313294
vt 0.850000 0.666667
vt -0.183333 0.333333
vt -0.258333 0.333333
vt -0.313237 0.333333
vt 0.925000 0.333333
vt 1.646627 1.183333
vt 0.020039 0.483333
vt 0.075000 0.333333
vt 0.646571 0.353429
vt 0.075000 0.646571
vt 0.020096 0.666667
vt 0.020039 1.516667
vt 0.925000 0.666667
vt 0.850000 -0.333333
vt 1.000000 -0.183333
vt 0.000000 1.183333
vt 0.150000 1.333333
vt 0.921732 -0.255065
vt 0.921732 0.588398
vt 0.921732 -0.293828
vt 0.921732 1.588398
vt 0.850000 1.646627
vt 0.921732 1.627162
vt 0.921732 0.411602
vt 0.078268 1.588398
vt 0.078268 1.627162
vt 0.078268 1.588398
vt 0.925000 0.646571
vt 0.666667 0.333333
vt 0.000000 -0.183333
vt 0.020096 -0.258333
vt 0.150000 -0.333333
vt 0.075000 -0.313237
vt 0.925000 -0.313237
vt 0.979904 -0.258333
vt 1.000000 0.516667
vt 0.979904 0.591667
vt 1.000000 0.483333
vt 0.000000 0.516667
vt 0.020096 0.591667
vt 0.850000 1.333333
vt 0.020096 1.258333
vt 0.075000 1.313237
vt 0.925000 1.313237
vt 1.000000 1.183333
vt 0.979904 1.258333
s 1
usemtl ClayMat_10
f 4/1/4 5/2/5 1/3/1
f 8/4/8 6/5/6 4/6/4
f 7/7/7 8/4/8 2/8/2
f 7/7/7 12/9/12 9/10/9
f 10/11/10 11/12/11 3/13/3
f 5/14/5 12/15/12 10/11/10
f 6/16/6 9/17/9 12/18/12
f 16/19/16 17/20/17 13/21/13
f 16/19/16 21/22/21 18/23/18
f 19/24/19 20/25/20 14/26/14
f 23/7/23 21/9/21 19/27/19
f 22/4/22 23/7/23 15/8/15
f 22/4/22 18/5/18 24/10/24
f 18/5/18 21/9/21 24/10/24
f 28/20/28 29/19/29 25/21/25
f 32/28/32 30/29/30 28/30/28
f 31/31/31 32/28/32 26/32/26
f 31/31/31 36/33/36 33/34/33
f 34/35/34 35/36/35 27/37/27
f 34/38/34 30/23/30 36/22/36
f 30/29/30 33/34/33 36/33/36
f 40/28/40 41/31/41 37/32/37
f 40/28/40 45/29/45 42/34/42
f 43/2/43 44/1/44 38/3/38
f 47/39/47 45/16/45 43/2/43
f 46/40/46 47/41/47 39/42/39
f 41/43/41 48/44/48 46/40/46
f 42/34/42 45/29/45 48/33/48
f 68/45/68 69/46/69 65/47/65
f 72/48/72 70/49/70 68/45/68
f 71/50/71 72/51/72 66/52/66
f 75/11/75 73/53/73 71/14/71
f 74/12/74 75/11/75 67/13/67
f 69/54/69 76/15/76 74/12/74
f 70/55/70 73/56/73 76/57/76
f 80/58/80 81/59/81 77/60/77
f 80/48/80 85/49/85 82/61/82
f 83/46/83 84/45/84 78/47/78
f 83/46/83 88/62/88 85/49/85
f 86/25/86 87/24/87 79/26/79
f 86/63/86 82/64/82 88/65/88
f 82/61/82 85/49/85 88/62/88
f 100/66/34 101/67/35 97/68/27
f 104/69/29 102/70/36 100/71/34
f 103/72/28 104/69/29 98/73/25
f 103/74/28 108/75/33 105/76/30
f 106/77/31 107/78/32 99/79/26
f 106/77/31 102/80/36 108/75/33
f 102/80/36 105/76/30 108/75/33
f 112/81/46 113/82/47 109/83/39
f 112/84/46 117/75/42 114/80/48
f 115/78/40 116/77/41 110/79/37
f 115/78/40 120/76/45 117/75/42
f 118/85/43 119/86/44 111/87/38
f 113/88/47 120/89/45 118/85/43
f 114/80/48 117/75/42 120/76/45
f 124/67/100 125/66/101 121/68/97
f 128/90/104 126/91/102 124/92/100
f 127/93/103 128/90/104 122/94/98
f 127/93/103 132/95/108 129/96/105
f 130/59/106 131/58/107 123/60/99
f 125/63/101 132/64/108 130/59/106
f 126/91/102 129/96/105 132/95/108
f 136/82/112 137/97/113 133/98/109
f 136/99/112 141/56/117 138/57/114
f 139/51/115 140/50/116 134/52/110
f 143/100/119 141/56/117 139/51/115
f 142/90/118 143/93/119 135/94/111
f 142/90/118 138/91/114 144/96/120
f 138/91/114 141/95/117 144/96/120
f 1/3/1 16/19/16 13/21/13
f 5/14/5 20/25/20 16/101/16
f 10/11/10 14/26/14 20/25/20
f 37/32/37 7/7/7 2/8/2
f 41/43/41 11/12/11 7/54/7
f 46/40/46 3/13/3 11/12/11
f 25/21/25 43/2/43 38/3/38
f 29/19/29 47/39/47 43/2/43
f 34/35/34 39/42/39 47/41/47
f 15/8/15 31/31/31 26/32/26
f 23/7/23 35/102/35 31/31/31
f 19/24/19 27/37/27 35/36/35
f 26/32/26 52/103/52 50/104/50
f 32/28/32 51/105/51 52/103/52
f 28/20/28 49/106/49 51/107/51
f 37/32/37 55/103/55 40/28/40
f 40/108/40 56/109/56 44/1/44
f 44/1/44 54/110/54 38/3/38
f 94/111/94 69/46/69 96/112/96
f 69/46/69 95/113/95 96/112/96
f 74/12/74 93/114/93 95/115/95
f 77/60/77 71/50/71 66/52/66
f 81/101/81 75/11/75 71/14/71
f 86/25/86 67/13/67 75/11/75
f 89/111/89 83/46/83 78/47/78
f 91/112/91 87/116/87 83/46/83
f 87/24/87 90/117/90 79/26/79
f 57/118/57 68/45/68 65/47/65
f 59/119/59 72/48/72 68/45/68
f 72/51/72 58/110/58 66/52/66
f 62/118/62 84/45/84 64/119/64
f 84/45/84 63/120/63 64/119/64
f 80/58/80 61/106/61 63/121/63
f 98/73/25 118/85/43 111/87/38
f 104/69/29 113/88/47 118/85/43
f 100/66/34 109/83/39 113/82/47
f 134/52/110 130/59/106 123/60/99
f 140/50/116 125/63/101 130/59/106
f 136/82/112 121/68/97 125/66/101
f 99/79/26 127/93/103 122/94/98
f 107/78/32 131/122/107 127/93/103
f 103/72/28 123/60/99 131/58/107
f 135/94/111 115/78/40 110/79/37
f 143/100/119 119/86/44 115/123/40
f 139/51/115 111/87/38 119/86/44
f 57/118/57 8/4/8 59/119/59
f 8/4/8 60/120/60 59/119/59
f 4/1/4 58/110/58 60/124/60
f 62/118/62 22/4/22 15/8/15
f 64/119/64 17/6/17 22/4/22
f 17/20/17 61/106/61 13/21/13
f 110/79/37 55/103/55 53/104/53
f 116/77/41 56/125/56 55/103/55
f 112/81/46 54/114/54 56/126/56
f 99/79/26 52/103/52 106/77/31
f 106/77/31 51/105/51 101/84/35
f 101/67/35 49/117/49 97/68/27
f 94/111/94 142/90/118 135/94/111
f 96/127/96 137/97/113 142/128/118
f 137/97/113 93/114/93 133/98/109
f 89/111/89 128/90/104 91/112/91
f 128/90/104 92/113/92 91/112/91
f 124/67/100 90/117/90 92/129/92
f 13/21/13 58/110/58 1/3/1
f 39/42/39 14/26/14 3/13/3
f 57/118/57 37/32/37 2/8/2
f 26/32/26 62/118/62 15/8/15
f 38/3/38 49/106/49 25/21/25
f 109/83/39 49/117/49 54/114/54
f 61/130/61 62/131/62 49/117/49
f 94/132/94 93/133/93 54/110/54
f 50/104/50 78/47/78 62/118/62
f 99/79/26 89/111/89 50/104/50
f 65/47/65 53/104/53 57/118/57
f 94/111/94 110/79/37 53/104/53
f 61/106/61 66/52/66 58/110/58
f 79/26/79 93/114/93 67/13/67
f 90/117/90 133/98/109 93/114/93
f 111/87/38 123/60/99 98/73/25
f 4/1/4 6/16/6 5/2/5
f 8/108/8 9/17/9 6/16/6
f 7/7/7 9/10/9 8/4/8
f 7/54/7 11/12/11 12/15/12
f 10/11/10 12/15/12 11/12/11
f 5/2/5 6/16/6 12/18/12
f 16/19/16 18/23/18 17/20/17
f 16/101/16 20/25/20 21/134/21
f 19/24/19 21/134/21 20/25/20
f 23/7/23 24/10/24 21/9/21
f 22/4/22 24/10/24 23/7/23
f 22/4/22 17/6/17 18/5/18
f 28/20/28 30/23/30 29/19/29
f 32/28/32 33/34/33 30/29/30
f 31/31/31 33/34/33 32/28/32
f 31/31/31 35/102/35 36/33/36
f 34/35/34 36/135/36 35/36/35
f 34/38/34 29/19/29 30/23/30
f 40/28/40 42/34/42 41/31/41
f 40/108/40 44/1/44 45/16/45
f 43/2/43 45/16/45 44/1/44
f 47/39/47 48/18/48 45/16/45
f 46/40/46 48/44/48 47/41/47
f 41/31/41 42/34/42 48/33/48
f 68/45/68 70/49/70 69/46/69
f 72/51/72 73/56/73 70/55/70
f 71/50/71 73/56/73 72/51/72
f 75/99/75 76/57/76 73/56/73
f 74/12/74 76/15/76 75/11/75
f 69/46/69 70/49/70 76/62/76
f 80/58/80 82/64/82 81/59/81
f 80/48/80 84/45/84 85/49/85
f 83/46/83 85/49/85 84/45/84
f 83/46/83 87/116/87 88/62/88
f 86/25/86 88/134/88 87/24/87
f 86/25/86 81/101/81 82/136/82
f 100/66/34 102/137/36 101/67/35
f 104/138/29 105/139/30 102/137/36
f 103/72/28 105/140/30 104/69/29
f 103/74/28 107/78/32 108/75/33
f 106/77/31 108/75/33 107/78/32
f 106/77/31 101/84/35 102/80/36
f 112/81/46 114/141/48 113/82/47
f 112/84/46 116/77/41 117/75/42
f 115/78/40 117/75/42 116/77/41
f 115/123/40 119/86/44 120/89/45
f 118/85/43 120/89/45 119/86/44
f 113/82/47 114/141/48 120/142/45
f 124/67/100 126/137/102 125/66/101
f 128/90/104 129/96/105 126/91/102
f 127/93/103 129/96/105 128/90/104
f 127/93/103 131/122/107 132/95/108
f 130/59/106 132/64/108 131/58/107
f 125/63/101 126/65/102 132/64/108
f 136/82/112 138/143/114 137/97/113
f 136/99/112 140/50/116 141/56/117
f 139/51/115 141/56/117 140/50/116
f 143/93/119 144/96/120 141/95/117
f 142/90/118 144/96/120 143/93/119
f 142/128/118 137/97/113 138/143/114
f 1/3/1 5/2/5 16/19/16
f 5/14/5 10/11/10 20/25/20
f 10/11/10 3/13/3 14/26/14
f 37/32/37 41/31/41 7/7/7
f 41/43/41 46/40/46 11/12/11
f 46/40/46 39/42/39 3/13/3
f 25/21/25 29/19/29 43/2/43
f 29/19/29 34/38/34 47/39/47
f 34/35/34 27/37/27 39/42/39
f 15/8/15 23/7/23 31/31/31
f 23/7/23 19/27/19 35/102/35
f 19/24/19 14/26/14 27/37/27
f 26/32/26 32/28/32 52/103/52
f 32/28/32 28/30/28 51/105/51
f 28/20/28 25/21/25 49/106/49
f 37/32/37 53/104/53 55/103/55
f 40/28/40 55/103/55 56/125/56
f 44/1/44 56/109/56 54/110/54
f 94/111/94 65/47/65 69/46/69
f 69/54/69 74/12/74 95/115/95
f 74/12/74 67/13/67 93/114/93
f 77/60/77 81/59/81 71/50/71
f 81/101/81 86/25/86 75/11/75
f 86/25/86 79/26/79 67/13/67
f 89/111/89 91/112/91 83/46/83
f 91/112/91 92/113/92 87/116/87
f 87/24/87 92/129/92 90/117/90
f 57/118/57 59/119/59 68/45/68
f 59/119/59 60/120/60 72/48/72
f 72/51/72 60/124/60 58/110/58
f 62/118/62 78/47/78 84/45/84
f 84/45/84 80/48/80 63/120/63
f 80/58/80 77/60/77 61/106/61
f 98/73/25 104/69/29 118/85/43
f 104/69/29 100/71/34 113/88/47
f 100/66/34 97/68/27 109/83/39
f 134/52/110 140/50/116 130/59/106
f 140/50/116 136/99/112 125/63/101
f 136/82/112 133/98/109 121/68/97
f 99/79/26 107/78/32 127/93/103
f 107/78/32 103/74/28 131/122/107
f 103/72/28 98/73/25 123/60/99
f 135/94/111 143/93/119 115/78/40
f 143/100/119 139/51/115 119/86/44
f 139/51/115 134/52/110 111/87/38
f 57/118/57 2/8/2 8/4/8
f 8/4/8 4/6/4 60/120/60
f 4/1/4 1/3/1 58/110/58
f 62/118/62 64/119/64 22/4/22
f 64/119/64 63/120/63 17/6/17
f 17/20/17 63/121/63 61/106/61
f 110/79/37 116/77/41 55/103/55
f 116/77/41 112/84/46 56/125/56
f 112/81/46 109/83/39 54/114/54
f 99/79/26 50/104/50 52/103/52
f 106/77/31 52/103/52 51/105/51
f 101/67/35 51/144/51 49/117/49
f 94/111/94 96/112/96 142/90/118
f 96/112/96 95/113/95 137/92/113
f 137/97/113 95/115/95 93/114/93
f 89/111/89 122/94/98 128/90/104
f 128/90/104 124/92/100 92/113/92
f 124/67/100 121/68/97 90/117/90
f 13/21/13 61/106/61 58/110/58
f 39/42/39 27/37/27 14/26/14
f 57/118/57 53/104/53 37/32/37
f 26/32/26 50/104/50 62/118/62
f 38/3/38 54/110/54 49/106/49
f 109/83/39 97/68/27 49/117/49
f 53/104/53 57/118/57 54/145/54
f 57/146/57 59/147/59 58/148/58
f 59/147/59 60/149/60 58/148/58
f 58/148/58 61/130/61 54/114/54
f 61/130/61 63/150/63 62/131/62
f 63/150/63 64/151/64 62/131/62
f 62/118/62 50/104/50 49/145/49
f 50/152/50 52/153/52 51/144/51
f 49/106/49 50/154/50 51/107/51
f 49/117/49 54/114/54 61/130/61
f 54/114/54 56/126/56 53/155/53
f 56/126/56 55/156/55 53/155/53
f 57/146/57 58/148/58 54/114/54
f 89/111/89 50/104/50 49/145/49
f 49/106/49 54/110/54 90/157/90
f 53/104/53 94/111/94 54/145/54
f 94/132/94 96/158/96 93/133/93
f 96/158/96 95/159/95 93/133/93
f 93/133/93 90/157/90 54/110/54
f 90/157/90 92/160/92 89/161/89
f 92/160/92 91/162/91 89/161/89
f 49/106/49 90/157/90 89/161/89
f 50/104/50 89/111/89 78/47/78
f 99/79/26 122/94/98 89/111/89
f 65/47/65 94/111/94 53/104/53
f 94/111/94 135/94/111 110/79/37
f 61/106/61 77/60/77 66/52/66
f 79/26/79 90/117/90 93/114/93
f 90/117/90 121/68/97 133/98/109
f 111/87/38 134/52/110 123/60/99
