# Blender 4.5.3 LTS
# www.blender.org
mtllib __clay_block_06_20.mtl
o clay_block_20
v 0.500000 -0.500000 0.500000
v 1.500000 0.500000 -0.500000
v 1.500000 0.500000 0.500000
v 2.500000 0.500000 -0.500000
v 3.500000 -0.500000 0.500000
v 4.500000 0.500000 0.500000
v 0.500000 -0.500000 1.500000
v -0.500000 0.500000 0.500000
v 2.500000 -0.500000 0.500000
v 1.500000 -0.500000 0.500000
v 3.500000 -0.500000 1.500000
v 2.500000 0.500000 1.500000
v 3.500000 0.500000 0.500000
v 4.500000 0.500000 1.500000
v 1.500000 -0.500000 1.500000
v 1.500000 -0.500000 2.500000
v 2.500000 -0.500000 2.500000
v 1.500000 0.500000 1.500000
v 2.500000 -0.500000 1.500000
v 3.500000 -0.500000 2.500000
v 4.500000 0.500000 2.500000
v -0.500000 0.500000 2.500000
v 0.500000 -0.500000 3.500000
v 0.500000 -0.500000 2.500000
v 0.500000 0.500000 3.500000
v 3.500000 0.500000 2.500000
v 1.500000 0.500000 4.500000
v 1.500000 -0.500000 3.500000
v 3.500000 -0.500000 3.500000
v 2.500000 -0.500000 3.500000
v 3.500000 0.500000 4.500000
v 0.500000 0.500000 -0.500000
v 2.500000 1.500000 0.500000
v 2.500000 0.500000 0.500000
v 3.500000 0.500000 -0.500000
v -0.500000 0.500000 1.500000
v 0.500000 0.500000 0.500000
v 0.500000 0.500000 1.500000
v 3.500000 0.500000 1.500000
v 3.500000 1.500000 1.500000
v 1.500000 0.500000 3.500000
v 0.500000 0.500000 2.500000
v 0.500000 1.500000 2.500000
v 1.500000 0.500000 2.500000
v 2.500000 0.500000 3.500000
v 2.500000 0.500000 2.500000
v 3.500000 0.500000 3.500000
v 4.500000 0.500000 3.500000
v 3.500000 1.500000 2.500000
v 0.500000 0.500000 4.500000
v -0.500000 0.500000 3.500000
v 1.500000 1.500000 3.500000
v 2.500000 0.500000 4.500000
v 1.500000 1.500000 1.500000
v 1.500000 1.500000 0.500000
v 0.500000 2.500000 1.500000
v 2.500000 2.500000 1.500000
v 1.500000 2.500000 0.500000
v 1.500000 1.500000 2.500000
v 0.500000 1.500000 1.500000
v 2.500000 1.500000 1.500000
v 2.500000 1.500000 3.500000
v 2.500000 1.500000 2.500000
v 1.500000 2.500000 1.500000
v 2.500000 2.500000 0.500000
v 0.500000 2.500000 2.500000
v 1.500000 2.500000 2.500000
v 2.500000 2.500000 2.500000
v 3.500000 2.500000 2.500000
v 3.500000 2.500000 1.500000
v 1.500000 2.500000 3.500000
v 2.500000 2.500000 3.500000
v -0.500000 -0.350000 -0.350000
v -0.350000 -0.350000 -0.500000
v -0.350000 -0.500000 -0.350000
v -0.479961 -0.350000 -0.424902
v -0.479961 -0.424902 -0.350000
v -0.460495 -0.421732 -0.421732
v -0.350000 -0.424902 -0.479961
v -0.424902 -0.350000 -0.479961
v -0.421732 -0.421732 -0.460495
v -0.424902 -0.479961 -0.350000
v -0.350000 -0.479961 -0.424902
v -0.421732 -0.460495 -0.421732
v 1.500000 -0.350000 -0.500000
v 1.500000 -0.500000 -0.350000
v 1.500000 -0.425000 -0.479904
v 1.500000 -0.479904 -0.425000
v 0.500000 -0.500000 -0.350000
v 0.500000 -0.350000 -0.500000
v 0.500000 -0.479904 -0.425000
v 0.500000 -0.425000 -0.479904
v 2.500000 -0.350000 -0.500000
v 2.500000 -0.500000 -0.350000
v 2.500000 -0.425000 -0.479904
v 2.500000 -0.479904 -0.425000
v 3.500000 -0.350000 -0.500000
v 3.500000 -0.500000 -0.350000
v 3.500000 -0.425000 -0.479904
v 3.500000 -0.479904 -0.425000
v 4.500000 -0.350000 -0.350000
v 4.350000 -0.500000 -0.350000
v 4.350000 -0.350000 -0.500000
v 4.479961 -0.424902 -0.350000
v 4.479961 -0.350000 -0.424902
v 4.460495 -0.421732 -0.421732
v 4.350000 -0.479961 -0.424902
v 4.424902 -0.479961 -0.350000
v 4.421732 -0.460495 -0.421732
v 4.424902 -0.350000 -0.479961
v 4.350000 -0.424902 -0.479961
v 4.421732 -0.421732 -0.460495
v 4.350000 0.500000 -0.500000
v 4.500000 0.500000 -0.350000
v 4.425000 0.500000 -0.479904
v 4.479904 0.500000 -0.425000
v -0.350000 -0.500000 1.500000
v -0.500000 -0.350000 1.500000
v -0.425000 -0.479904 1.500000
v -0.479904 -0.425000 1.500000
v -0.500000 -0.350000 0.500000
v -0.350000 -0.500000 0.500000
v -0.479904 -0.425000 0.500000
v -0.425000 -0.479904 0.500000
v 4.500000 -0.350000 1.500000
v 4.350000 -0.500000 1.500000
v 4.479904 -0.425000 1.500000
v 4.425000 -0.479904 1.500000
v 4.350000 -0.500000 0.500000
v 4.500000 -0.350000 0.500000
v 4.425000 -0.479904 0.500000
v 4.479904 -0.425000 0.500000
v 4.500000 -0.350000 2.500000
v 4.350000 -0.500000 2.500000
v 4.479904 -0.425000 2.500000
v 4.425000 -0.479904 2.500000
v -0.350000 -0.500000 3.500000
v -0.500000 -0.350000 3.500000
v -0.425000 -0.479904 3.500000
v -0.479904 -0.425000 3.500000
v -0.500000 -0.350000 2.500000
v -0.350000 -0.500000 2.500000
v -0.479904 -0.425000 2.500000
v -0.425000 -0.479904 2.500000
v 4.500000 -0.350000 3.500000
v 4.350000 -0.500000 3.500000
v 4.479904 -0.425000 3.500000
v 4.425000 -0.479904 3.500000
v -0.350000 -0.350000 4.500000
v -0.500000 -0.350000 4.350000
v -0.350000 -0.500000 4.350000
v -0.424902 -0.350000 4.479961
v -0.350000 -0.424902 4.479961
v -0.421732 -0.421732 4.460495
v -0.479961 -0.424902 4.350000
v -0.479961 -0.350000 4.424902
v -0.460495 -0.421732 4.421732
v -0.350000 -0.479961 4.424902
v -0.424902 -0.479961 4.350000
v -0.421732 -0.460495 4.421732
v 0.500000 -0.500000 4.350000
v 0.500000 -0.350000 4.500000
v 0.500000 -0.479904 4.425000
v 0.500000 -0.425000 4.479904
v 1.500000 -0.500000 4.350000
v 1.500000 -0.350000 4.500000
v 1.500000 -0.479904 4.425000
v 1.500000 -0.425000 4.479904
v 2.500000 -0.500000 4.350000
v 2.500000 -0.350000 4.500000
v 2.500000 -0.479904 4.425000
v 2.500000 -0.425000 4.479904
v 3.500000 -0.350000 4.500000
v 3.500000 -0.500000 4.350000
v 3.500000 -0.425000 4.479904
v 3.500000 -0.479904 4.425000
v 4.350000 -0.350000 4.500000
v 4.350000 -0.500000 4.350000
v 4.500000 -0.350000 4.350000
v 4.350000 -0.424902 4.479961
v 4.424901 -0.350000 4.479961
v 4.421731 -0.421732 4.460495
v 4.424901 -0.479961 4.350000
v 4.350000 -0.479961 4.424902
v 4.421731 -0.460495 4.421732
v 4.479960 -0.350000 4.424902
v 4.479960 -0.424902 4.350000
v 4.460495 -0.421732 4.421732
v -0.350000 0.500000 -0.500000
v -0.500000 0.500000 -0.350000
v -0.425000 0.500000 -0.479904
v -0.479904 0.500000 -0.425000
v -0.500000 1.350000 0.500000
v -0.350000 1.500000 0.500000
v -0.479904 1.425000 0.500000
v -0.425000 1.479904 0.500000
v 0.500000 1.500000 -0.350000
v 0.500000 1.350000 -0.500000
v 0.500000 1.479904 -0.425000
v 0.500000 1.425000 -0.479904
v -0.500000 1.350000 -0.350000
v -0.350000 1.500000 -0.350000
v -0.350000 1.350000 -0.500000
v -0.479961 1.424901 -0.350000
v -0.479961 1.350000 -0.424902
v -0.460495 1.421732 -0.421732
v -0.350000 1.479960 -0.424902
v -0.424902 1.479960 -0.350000
v -0.421732 1.460495 -0.421732
v -0.424902 1.350000 -0.479961
v -0.350000 1.424901 -0.479961
v -0.421732 1.421732 -0.460495
v 1.500000 1.500000 -0.350000
v 1.500000 1.350000 -0.500000
v 1.500000 1.479904 -0.425000
v 1.500000 1.425000 -0.479904
v 2.500000 1.500000 -0.350000
v 2.500000 1.350000 -0.500000
v 2.500000 1.479904 -0.425000
v 2.500000 1.425000 -0.479904
v 3.500000 1.500000 -0.350000
v 3.500000 1.350000 -0.500000
v 3.500000 1.479904 -0.425000
v 3.500000 1.425000 -0.479904
v 3.350000 1.500000 0.500000
v 3.500000 1.500000 0.650000
v 3.650000 1.500000 0.500000
v 3.500000 1.500000 0.350000
v 3.500000 1.350000 0.500000
v 3.425000 1.500000 0.520096
v 3.479904 1.500000 0.575000
v 4.350000 1.500000 0.500000
v 4.500000 1.350000 0.500000
v 4.425000 1.479904 0.500000
v 4.479904 1.425000 0.500000
v 4.500000 1.350000 -0.350000
v 4.350000 1.350000 -0.500000
v 4.350000 1.500000 -0.350000
v 4.479961 1.350000 -0.424902
v 4.479961 1.424901 -0.350000
v 4.460495 1.421732 -0.421732
v 4.350000 1.424901 -0.479961
v 4.424902 1.350000 -0.479961
v 4.421732 1.421732 -0.460495
v 4.424902 1.479960 -0.350000
v 4.350000 1.479960 -0.424902
v 4.421732 1.460495 -0.421732
v -0.500000 1.350000 1.500000
v -0.350000 1.500000 1.500000
v -0.479904 1.425000 1.500000
v -0.425000 1.479904 1.500000
v 0.500000 1.500000 0.650000
v 0.650000 1.500000 0.500000
v 0.500000 1.350000 0.500000
v 0.500000 1.500000 0.350000
v 0.350000 1.500000 0.500000
v 0.520096 1.500000 0.575000
v 0.575000 1.500000 0.520096
v 4.350000 1.500000 1.500000
v 4.500000 1.350000 1.500000
v 4.425000 1.479904 1.500000
v 4.479904 1.425000 1.500000
v -0.500000 1.350000 2.500000
v -0.350000 1.500000 2.500000
v -0.479904 1.425000 2.500000
v -0.425000 1.479904 2.500000
v -0.500000 1.350000 3.500000
v -0.350000 1.500000 3.500000
v -0.479904 1.425000 3.500000
v -0.425000 1.479904 3.500000
v 0.650000 1.500000 3.500000
v 0.500000 1.500000 3.350000
v 0.350000 1.500000 3.500000
v 0.500000 1.350000 3.500000
v 0.500000 1.500000 3.650000
v 0.575000 1.500000 3.479904
v 0.520096 1.500000 3.425000
v 3.500000 1.500000 3.350000
v 3.350000 1.500000 3.500000
v 3.500000 1.500000 3.650000
v 3.500000 1.350000 3.500000
v 3.650000 1.500000 3.500000
v 3.479904 1.500000 3.425000
v 3.425000 1.500000 3.479904
v 4.350000 1.500000 3.500000
v 4.500000 1.350000 3.500000
v 4.425000 1.479904 3.500000
v 4.479904 1.425000 3.500000
v 4.500000 1.350000 2.500000
v 4.350000 1.500000 2.500000
v 4.479904 1.425000 2.500000
v 4.425000 1.479904 2.500000
v -0.500000 0.500000 4.350000
v -0.350000 0.500000 4.500000
v -0.479904 0.500000 4.425000
v -0.425000 0.500000 4.479904
v -0.350000 1.500000 4.350000
v -0.500000 1.350000 4.350000
v -0.350000 1.350000 4.500000
v -0.424902 1.479960 4.350000
v -0.350000 1.479960 4.424901
v -0.421732 1.460495 4.421731
v -0.479961 1.350000 4.424901
v -0.479961 1.424901 4.350000
v -0.460495 1.421732 4.421731
v -0.350000 1.424901 4.479960
v -0.424902 1.350000 4.479960
v -0.421732 1.421732 4.460495
v 0.500000 1.350000 4.500000
v 0.500000 1.500000 4.350000
v 0.500000 1.425000 4.479904
v 0.500000 1.479904 4.425000
v 1.500000 1.500000 4.350000
v 1.500000 1.350000 4.500000
v 1.500000 1.479904 4.425000
v 1.500000 1.425000 4.479904
v 2.500000 1.350000 4.500000
v 2.500000 1.500000 4.350000
v 2.500000 1.425000 4.479904
v 2.500000 1.479904 4.425000
v 3.500000 1.350000 4.500000
v 3.500000 1.500000 4.350000
v 3.500000 1.425000 4.479904
v 3.500000 1.479904 4.425000
v 4.350000 0.500000 4.500000
v 4.500000 0.500000 4.350000
v 4.425000 0.500000 4.479904
v 4.479904 0.500000 4.425000
v 4.500000 1.350000 4.350000
v 4.350000 1.500000 4.350000
v 4.350000 1.350000 4.500000
v 4.479961 1.424901 4.350000
v 4.479961 1.350000 4.424901
v 4.460495 1.421732 4.421731
v 4.350000 1.479960 4.424901
v 4.424902 1.479960 4.350000
v 4.421732 1.460495 4.421731
v 4.424902 1.350000 4.479960
v 4.350000 1.424901 4.479960
v 4.421732 1.421732 4.460495
v 3.350000 2.500000 0.500000
v 3.500000 2.500000 0.650000
v 3.425000 2.500000 0.520096
v 3.479904 2.500000 0.575000
v 0.650000 2.500000 0.500000
v 0.500000 2.500000 0.650000
v 0.575000 2.500000 0.520096
v 0.520096 2.500000 0.575000
v 0.500000 3.350000 1.500000
v 0.650000 3.500000 1.500000
v 0.520096 3.425000 1.500000
v 0.575000 3.479904 1.500000
v 0.650000 3.500000 0.650000
v 0.650000 3.350000 0.500000
v 0.500000 3.350000 0.650000
v 0.650000 3.479960 0.575098
v 0.575098 3.479960 0.650000
v 0.578268 3.460495 0.578268
v 0.575098 3.350000 0.520039
v 0.650000 3.424901 0.520039
v 0.578268 3.421732 0.539505
v 0.520039 3.424901 0.650000
v 0.520039 3.350000 0.575098
v 0.539505 3.421732 0.578268
v 1.500000 3.500000 0.650000
v 1.500000 3.350000 0.500000
v 1.500000 3.479904 0.575000
v 1.500000 3.425000 0.520096
v 2.350000 3.500000 1.500000
v 2.500000 3.500000 1.650000
v 2.650000 3.500000 1.500000
v 2.500000 3.500000 1.350000
v 2.500000 3.350000 1.500000
v 2.425000 3.500000 1.520096
v 2.479904 3.500000 1.575000
v 3.350000 3.500000 1.500000
v 3.500000 3.350000 1.500000
v 3.425000 3.479904 1.500000
v 3.479904 3.425000 1.500000
v 3.500000 3.350000 0.650000
v 3.350000 3.350000 0.500000
v 3.350000 3.500000 0.650000
v 3.479960 3.350000 0.575098
v 3.479960 3.424901 0.650000
v 3.460495 3.421732 0.578268
v 3.350000 3.424901 0.520039
v 3.424901 3.350000 0.520039
v 3.421732 3.421732 0.539505
v 3.424901 3.479960 0.650000
v 3.350000 3.479960 0.575098
v 3.421732 3.460495 0.578268
v 2.500000 3.350000 0.500000
v 2.500000 3.500000 0.650000
v 2.500000 3.425000 0.520096
v 2.500000 3.479904 0.575000
v 0.500000 3.350000 2.500000
v 0.650000 3.500000 2.500000
v 0.520096 3.425000 2.500000
v 0.575000 3.479904 2.500000
v 1.650000 3.500000 2.500000
v 1.500000 3.500000 2.350000
v 1.350000 3.500000 2.500000
v 1.500000 3.350000 2.500000
v 1.500000 3.500000 2.650000
v 1.575000 3.500000 2.479904
v 1.520096 3.500000 2.425000
v 1.500000 3.500000 1.650000
v 1.650000 3.500000 1.500000
v 1.500000 3.350000 1.500000
v 1.500000 3.500000 1.350000
v 1.350000 3.500000 1.500000
v 1.520096 3.500000 1.575000
v 1.575000 3.500000 1.520096
v 0.500000 2.500000 3.350000
v 0.650000 2.500000 3.500000
v 0.520096 2.500000 3.425000
v 0.575000 2.500000 3.479904
v 0.650000 3.350000 3.500000
v 0.650000 3.500000 3.350000
v 0.500000 3.350000 3.350000
v 0.650000 3.424901 3.479960
v 0.575098 3.350000 3.479960
v 0.578268 3.421732 3.460495
v 0.575098 3.479960 3.350000
v 0.650000 3.479960 3.424901
v 0.578268 3.460495 3.421732
v 0.520039 3.350000 3.424901
v 0.520039 3.424901 3.350000
v 0.539505 3.421732 3.421732
v 1.500000 3.500000 3.350000
v 1.500000 3.350000 3.500000
v 1.500000 3.479904 3.425000
v 1.500000 3.425000 3.479904
v 2.500000 3.350000 3.500000
v 2.500000 3.500000 3.350000
v 2.500000 3.425000 3.479904
v 2.500000 3.479904 3.425000
v 3.350000 2.500000 3.500000
v 3.500000 2.500000 3.350000
v 3.425000 2.500000 3.479904
v 3.479904 2.500000 3.425000
v 3.350000 3.500000 3.350000
v 3.350000 3.350000 3.500000
v 3.500000 3.350000 3.350000
v 3.350000 3.479960 3.424901
v 3.424901 3.479960 3.350000
v 3.421732 3.460495 3.421732
v 3.424901 3.350000 3.479960
v 3.350000 3.424901 3.479960
v 3.421732 3.421732 3.460495
v 3.479960 3.424901 3.350000
v 3.479960 3.350000 3.424901
v 3.460495 3.421732 3.421732
v 3.500000 3.350000 2.500000
v 3.350000 3.500000 2.500000
v 3.479904 3.425000 2.500000
v 3.425000 3.479904 2.500000
v 2.500000 3.500000 2.350000
v 2.350000 3.500000 2.500000
v 2.500000 3.500000 2.650000
v 2.500000 3.350000 2.500000
v 2.650000 3.500000 2.500000
v 2.479904 3.500000 2.425000
v 2.425000 3.500000 2.479904
v 1.500000 4.350000 2.350000
v 1.650000 4.350000 2.500000
v 1.650000 4.500000 2.350000
v 1.520040 4.350000 2.424901
v 1.520040 4.424901 2.350000
v 1.539505 4.421731 2.421732
v 1.650000 4.424901 2.479960
v 1.575099 4.350000 2.479960
v 1.578268 4.421731 2.460495
v 1.575099 4.479960 2.350000
v 1.650000 4.479960 2.424901
v 1.578268 4.460495 2.421732
v 2.350000 4.350000 2.500000
v 2.500000 4.350000 2.350000
v 2.350000 4.500000 2.350000
v 2.424901 4.350000 2.479960
v 2.350000 4.424901 2.479960
v 2.421732 4.421731 2.460495
v 2.479960 4.424901 2.350000
v 2.479960 4.350000 2.424901
v 2.460495 4.421731 2.421732
v 2.350000 4.479960 2.424901
v 2.424901 4.479960 2.350000
v 2.421732 4.460495 2.421732
v 2.500000 4.350000 1.650000
v 2.350000 4.350000 1.500000
v 2.350000 4.500000 1.650000
v 2.479960 4.350000 1.575099
v 2.479960 4.424901 1.650000
v 2.460495 4.421731 1.578268
v 2.350000 4.424901 1.520040
v 2.424901 4.350000 1.520040
v 2.421732 4.421731 1.539505
v 2.424901 4.479960 1.650000
v 2.350000 4.479960 1.575099
v 2.421732 4.460495 1.578268
v 1.500000 4.350000 1.650000
v 1.650000 4.500000 1.650000
v 1.650000 4.350000 1.500000
v 1.520040 4.424902 1.650000
v 1.520040 4.350000 1.575099
v 1.539505 4.421732 1.578268
v 1.650000 4.479961 1.575099
v 1.575099 4.479961 1.650000
v 1.578268 4.460495 1.578268
v 1.575099 4.350000 1.520040
v 1.650000 4.424902 1.520040
v 1.578268 4.421732 1.539505
vn 0.4083 -0.8165 0.4082
vn 0.4082 0.4083 -0.8165
vn 0.5774 0.5774 0.5773
vn 0.4082 -0.8165 0.4082
vn 0.8165 0.4082 0.4082
vn -0.8165 0.4082 0.4082
vn 0.5774 0.5774 0.5774
vn 0.5773 0.5774 0.5773
vn 0.8165 0.4083 0.4082
vn -0.8165 0.4083 0.4082
vn 0.5773 0.5774 0.5774
vn 0.4082 0.4083 0.8165
vn 0.4082 -0.8165 0.4083
vn 0.4082 0.4082 -0.8165
vn 0.6000 0.8000 -0.0000
vn 0.5773 0.5773 0.5774
vn 0.5774 0.5773 0.5773
vn 0.6247 0.6247 0.4685
vn -0.0000 0.8000 0.6000
vn 0.4082 0.4082 0.8165
vn 0.4685 0.6247 0.6247
vn 0.5774 0.5773 0.5774
vn -0.8165 0.4082 0.4083
vn 0.4083 0.4082 0.8165
vn -0.9835 -0.1280 -0.1280
vn -0.1280 -0.1280 -0.9835
vn -0.1280 -0.9835 -0.1280
vn -0.8623 -0.1216 -0.4916
vn -0.8623 -0.4916 -0.1216
vn -0.7727 -0.4488 -0.4488
vn -0.1216 -0.4916 -0.8623
vn -0.4916 -0.1216 -0.8623
vn -0.4488 -0.4488 -0.7727
vn -0.4916 -0.8623 -0.1216
vn -0.1216 -0.8623 -0.4916
vn -0.4488 -0.7727 -0.4488
vn 0.4196 -0.1185 -0.8999
vn 0.4196 -0.8999 -0.1185
vn 0.3961 -0.4591 -0.7952
vn 0.3961 -0.7952 -0.4591
vn 0.9835 -0.1280 -0.1280
vn 0.1280 -0.9835 -0.1280
vn 0.1280 -0.1280 -0.9835
vn 0.8623 -0.4916 -0.1216
vn 0.8623 -0.1216 -0.4916
vn 0.7727 -0.4488 -0.4488
vn 0.1216 -0.8623 -0.4916
vn 0.4916 -0.8623 -0.1216
vn 0.4488 -0.7727 -0.4488
vn 0.4916 -0.1216 -0.8623
vn 0.1216 -0.4916 -0.8623
vn 0.4488 -0.4488 -0.7727
vn 0.1185 0.4196 -0.8999
vn 0.8999 0.4196 -0.1185
vn 0.4591 0.3961 -0.7952
vn 0.7952 0.3961 -0.4591
vn -0.1185 -0.8999 0.4196
vn -0.8999 -0.1185 0.4196
vn -0.4591 -0.7952 0.3961
vn -0.7952 -0.4591 0.3961
vn 0.8999 -0.1185 0.4196
vn 0.1185 -0.8999 0.4196
vn 0.7952 -0.4591 0.3961
vn 0.4591 -0.7952 0.3961
vn -0.1280 -0.1280 0.9835
vn -0.9835 -0.1280 0.1280
vn -0.1280 -0.9835 0.1280
vn -0.4916 -0.1216 0.8623
vn -0.1216 -0.4916 0.8623
vn -0.4488 -0.4489 0.7727
vn -0.8623 -0.4916 0.1216
vn -0.8623 -0.1216 0.4916
vn -0.7727 -0.4488 0.4488
vn -0.1216 -0.8623 0.4916
vn -0.4916 -0.8623 0.1216
vn -0.4489 -0.7727 0.4488
vn 0.4196 -0.8999 0.1185
vn 0.4196 -0.1185 0.8999
vn 0.3961 -0.7952 0.4591
vn 0.3961 -0.4591 0.7952
vn 0.1280 -0.1280 0.9835
vn 0.1280 -0.9835 0.1280
vn 0.9835 -0.1280 0.1280
vn 0.1216 -0.4916 0.8623
vn 0.4916 -0.1216 0.8623
vn 0.4488 -0.4488 0.7727
vn 0.4916 -0.8623 0.1216
vn 0.1216 -0.8623 0.4916
vn 0.4488 -0.7727 0.4488
vn 0.8623 -0.1216 0.4916
vn 0.8623 -0.4916 0.1216
vn 0.7727 -0.4488 0.4488
vn -0.1185 0.4196 -0.8999
vn -0.8999 0.4196 -0.1185
vn -0.4591 0.3961 -0.7952
vn -0.7952 0.3961 -0.4591
vn -0.8999 0.1185 0.4196
vn -0.1185 0.8999 0.4196
vn -0.7952 0.4591 0.3961
vn -0.4591 0.7952 0.3961
vn 0.4196 0.8999 -0.1185
vn 0.4196 0.1185 -0.8999
vn 0.3961 0.7952 -0.4591
vn 0.3961 0.4591 -0.7952
vn -0.9835 0.1280 -0.1280
vn -0.1280 0.9835 -0.1280
vn -0.1280 0.1280 -0.9835
vn -0.8623 0.4916 -0.1216
vn -0.8623 0.1216 -0.4916
vn -0.7727 0.4488 -0.4488
vn -0.1216 0.8623 -0.4916
vn -0.4916 0.8623 -0.1216
vn -0.4488 0.7727 -0.4488
vn -0.4916 0.1216 -0.8623
vn -0.1216 0.4916 -0.8623
vn -0.4488 0.4488 -0.7727
vn 0.1952 0.9702 -0.1433
vn 0.7289 0.6842 0.0239
vn -0.0531 0.8848 0.4630
vn 0.3632 0.9129 0.1864
vn 0.7148 0.1680 0.6789
vn 0.4059 0.5166 -0.7539
vn 0.4265 0.7598 -0.4906
vn 0.1185 0.8999 0.4196
vn 0.8999 0.1185 0.4196
vn 0.4591 0.7952 0.3961
vn 0.7952 0.4591 0.3961
vn 0.9835 0.1280 -0.1280
vn 0.1280 0.1280 -0.9835
vn 0.1280 0.9835 -0.1280
vn 0.8623 0.1216 -0.4916
vn 0.8623 0.4916 -0.1216
vn 0.7727 0.4488 -0.4488
vn 0.1216 0.4916 -0.8623
vn 0.4916 0.1216 -0.8623
vn 0.4488 0.4488 -0.7727
vn 0.4916 0.8623 -0.1216
vn 0.1216 0.8623 -0.4916
vn 0.4488 0.7727 -0.4488
vn 0.0056 0.9994 -0.0331
vn -0.1952 0.9702 -0.1433
vn 0.7173 0.2531 0.6491
vn 0.1434 0.9281 0.3435
vn -0.1995 0.8367 -0.5100
vn -0.4059 0.5166 -0.7539
vn 0.0239 0.6842 0.7289
vn -0.0183 0.9892 0.1452
vn 0.2055 0.8866 0.4143
vn 0.6756 0.1807 0.7148
vn 0.4630 0.8848 -0.0531
vn -0.4906 0.7598 0.4265
vn -0.4265 0.7598 0.4906
vn 0.7289 0.6842 -0.0239
vn -0.0239 0.6842 0.7289
vn 0.3283 0.9429 -0.0566
vn 0.7063 0.0478 0.7063
vn -0.0566 0.9429 0.3283
vn 0.4265 0.7598 0.4906
vn 0.4906 0.7598 0.4265
vn -0.8999 0.4196 0.1185
vn -0.1185 0.4196 0.8999
vn -0.7952 0.3961 0.4591
vn -0.4591 0.3961 0.7952
vn -0.1280 0.9835 0.1280
vn -0.9835 0.1280 0.1280
vn -0.1280 0.1280 0.9835
vn -0.4916 0.8623 0.1216
vn -0.1216 0.8623 0.4916
vn -0.4488 0.7727 0.4488
vn -0.8623 0.1216 0.4916
vn -0.8623 0.4916 0.1216
vn -0.7727 0.4488 0.4488
vn -0.1216 0.4916 0.8623
vn -0.4916 0.1216 0.8623
vn -0.4488 0.4488 0.7727
vn 0.4196 0.1185 0.8999
vn 0.4196 0.8999 0.1185
vn 0.3961 0.4591 0.7952
vn 0.3961 0.7952 0.4591
vn 0.1185 0.4196 0.8999
vn 0.8999 0.4196 0.1185
vn 0.4591 0.3961 0.7952
vn 0.7952 0.3961 0.4591
vn 0.9835 0.1280 0.1280
vn 0.1280 0.9835 0.1280
vn 0.1280 0.1280 0.9835
vn 0.8623 0.4916 0.1216
vn 0.8623 0.1216 0.4916
vn 0.7727 0.4489 0.4488
vn 0.1216 0.8623 0.4916
vn 0.4916 0.8623 0.1216
vn 0.4488 0.7727 0.4488
vn 0.4916 0.1216 0.8623
vn 0.1216 0.4916 0.8623
vn 0.4488 0.4488 0.7727
vn 0.4489 0.7727 -0.4488
vn 0.7173 0.2531 0.6492
vn 0.7727 0.4488 0.4488
vn 0.4489 0.4488 -0.7727
vt 1.500000 -0.500000
vt 0.500000 0.500000
vt 0.500000 -0.500000
vt 2.500000 -0.500000
vt 1.500000 0.500000
vt 3.500000 -0.500000
vt 2.500000 0.500000
vt 0.500000 -1.500000
vt -0.500000 -0.500000
vt -0.500000 -1.500000
vt -1.500000 0.500000
vt -1.500000 -0.500000
vt 1.500000 -1.500000
vt 2.500000 -1.500000
vt 3.500000 -1.500000
vt 4.500000 -1.500000
vt 0.500000 -2.500000
vt -0.500000 -2.500000
vt -2.500000 0.500000
vt -2.500000 -0.500000
vt 1.500000 -2.500000
vt 2.500000 -2.500000
vt 3.500000 -2.500000
vt 4.500000 -2.500000
vt 0.500000 -3.500000
vt -0.500000 -3.500000
vt -3.500000 0.500000
vt -3.500000 -0.500000
vt 1.500000 -3.500000
vt 2.500000 -3.500000
vt 3.500000 -3.500000
vt 4.500000 -3.500000
vt 1.500000 -4.500000
vt 0.500000 -4.500000
vt 2.500000 -4.500000
vt 3.500000 -4.500000
vt 1.500000 1.500000
vt 0.500000 1.500000
vt -0.500000 0.500000
vt -1.500000 1.500000
vt 3.500000 0.500000
vt 2.500000 1.500000
vt -2.500000 1.500000
vt -3.500000 1.500000
vt 0.500000 2.500000
vt -0.500000 1.500000
vt -1.500000 2.500000
vt 1.500000 2.500000
vt 2.500000 2.500000
vt 3.500000 1.500000
vt -2.500000 2.500000
vt -3.500000 2.500000
vt 0.424902 -0.350000
vt 0.350000 -0.424902
vt 0.350000 -0.350000
vt -0.424902 -0.350000
vt -0.460495 -0.421732
vt -0.479961 -0.350000
vt -0.350000 -0.424902
vt -0.350000 -0.350000
vt -0.350000 0.424902
vt -0.421732 0.460495
vt -0.350000 0.479961
vt -0.424902 0.350000
vt -0.350000 0.350000
vt 0.350000 -0.479961
vt 0.421732 -0.421732
vt 0.421732 -0.460495
vt 0.460495 -0.421732
vt 4.350000 0.424902
vt 4.424902 0.350000
vt 4.350000 0.350000
vt 4.350000 -0.424902
vt 4.421732 -0.460495
vt 4.350000 -0.479961
vt 4.424902 -0.350000
vt 4.350000 -0.350000
vt 0.479961 -0.350000
vt 4.460495 -0.421732
vt 4.421732 -0.421732
vt -4.479961 -0.350000
vt -4.421732 -0.421732
vt -4.460495 -0.421732
vt -4.350000 -0.424902
vt -4.424902 -0.350000
vt -4.350000 -0.350000
vt -4.421732 -0.460495
vt -0.350000 -4.424902
vt -0.424902 -4.350000
vt -0.350000 -4.350000
vt -0.421732 -4.460495
vt -0.421732 -4.421732
vt 4.350000 -0.424902
vt 4.424901 -0.350000
vt 4.350000 -0.479961
vt 4.421731 -0.421732
vt 4.424901 -4.350000
vt 4.350000 -4.424902
vt 4.350000 -4.350000
vt 4.460495 -4.421732
vt 4.421731 -4.421732
vt 4.421731 -4.460495
vt 0.350000 1.424901
vt 0.424902 1.350000
vt 0.350000 1.350000
vt 0.421732 1.460495
vt 0.421732 1.421732
vt -0.421732 0.421732
vt -0.424902 1.350000
vt -0.350000 1.424901
vt -0.350000 1.350000
vt 0.479961 1.350000
vt 0.460495 1.421732
vt 3.479904 1.500000
vt 3.650000 1.500000
vt 3.500000 1.350000
vt 4.479961 1.350000
vt 4.421732 1.421732
vt 4.460495 1.421732
vt 4.350000 1.424901
vt 4.424902 1.350000
vt 4.350000 1.350000
vt 4.421732 1.460495
vt 4.460495 0.421732
vt 4.421732 0.421732
vt 0.500000 -0.350000
vt 0.350000 -0.500000
vt 0.520096 1.500000
vt 0.350000 1.500000
vt 0.500000 1.350000
vt -3.479904 1.500000
vt -3.650000 1.500000
vt -3.500000 1.350000
vt -0.424902 -4.350000
vt -0.350000 -4.424901
vt -0.479961 -4.350000
vt -0.421732 -4.421731
vt -4.424901 1.350000
vt -4.350000 1.424901
vt -4.350000 1.350000
vt -4.460495 1.421732
vt -4.421731 1.421732
vt -0.350000 1.479960
vt -0.421732 1.421732
vt -4.421731 1.460495
vt -4.350000 1.479960
vt 4.350000 -4.424901
vt 4.424902 -4.350000
vt 4.421732 -4.460495
vt 4.421732 -4.421731
vt -4.479960 1.350000
vt 4.460495 -4.421731
vt 0.650000 -0.575098
vt 0.575098 -0.650000
vt 0.650000 -0.650000
vt 0.578268 -0.539505
vt 0.578268 -0.578268
vt 0.575098 3.350000
vt 0.650000 3.424901
vt 0.650000 3.350000
vt 0.520039 3.350000
vt 0.578268 3.421732
vt -0.650000 3.424901
vt -0.575098 3.350000
vt -0.650000 3.350000
vt -0.650000 3.479960
vt -0.578268 3.421732
vt 0.539505 -0.578268
vt 2.479904 3.500000
vt 2.650000 3.500000
vt 2.500000 3.350000
vt -0.539505 3.421732
vt 3.350000 3.424901
vt 3.424901 3.350000
vt 3.350000 3.350000
vt 3.350000 3.479960
vt 3.421732 3.421732
vt 3.424901 -0.650000
vt 3.350000 -0.575098
vt 3.350000 -0.650000
vt -0.578268 3.460495
vt 1.520096 3.500000
vt 1.350000 3.500000
vt 1.500000 3.350000
vt -1.500000 3.350000
vt -1.350000 3.500000
vt -1.500000 3.500000
vt 0.578268 3.460495
vt 0.575098 -3.350000
vt 0.650000 -3.424901
vt 0.650000 -3.350000
vt 0.539505 -3.421732
vt 0.578268 -3.421732
vt -3.424901 3.350000
vt -3.350000 3.424901
vt -3.350000 3.350000
vt -3.479960 3.350000
vt -3.421732 3.421732
vt 0.539505 3.421732
vt 3.350000 -3.424901
vt 3.424901 -3.350000
vt 3.350000 -3.350000
vt 3.421732 3.460495
vt -3.460495 3.421732
vt -3.421732 3.460495
vt -2.479904 3.500000
vt -2.650000 3.500000
vt -2.500000 3.350000
vt -2.424901 4.350000
vt -2.350000 4.424901
vt -2.350000 4.350000
vt -2.479960 4.350000
vt -2.421732 4.421731
vt 1.650000 4.424901
vt 1.575099 4.350000
vt 1.650000 4.350000
vt 1.578268 4.460495
vt 1.578268 4.421731
vt 1.575099 -2.350000
vt 1.650000 -2.424901
vt 1.650000 -2.350000
vt -2.421732 4.460495
vt -2.350000 4.479960
vt 1.539505 4.421731
vt 2.424901 4.350000
vt 2.350000 4.424901
vt 2.350000 4.350000
vt -2.460495 4.421731
vt 2.350000 -2.424901
vt 2.424901 -2.350000
vt 2.350000 -2.350000
vt 2.421732 4.460495
vt 2.350000 4.479960
vt -1.575099 4.350000
vt -1.650000 4.424901
vt -1.650000 4.350000
vt -1.539505 4.421731
vt -1.578268 4.421731
vt 2.421732 4.421731
vt 2.424901 -1.650000
vt 2.350000 -1.575099
vt 2.350000 -1.650000
vt 2.479960 -1.650000
vt 2.421732 -1.578268
vt -1.578268 4.460495
vt -1.650000 4.424902
vt -1.575099 4.350000
vt -1.650000 4.479961
vt -1.578268 4.421732
vt 1.650000 -1.575099
vt 1.575099 -1.650000
vt 1.650000 -1.650000
vt 1.650000 4.479961
vt 1.578268 4.421732
vt 1.578268 4.460495
vt 1.575099 4.350000
vt 1.650000 4.424902
vt -1.520040 4.350000
vt -1.539505 4.421732
vt -1.578268 4.460495
vt 1.500000 -0.350000
vt 0.500000 -0.425000
vt 1.500000 -0.425000
vt 0.500000 -0.479904
vt 1.500000 0.425000
vt 0.500000 0.350000
vt 0.500000 0.425000
vt 0.350000 0.500000
vt 0.425000 0.500000
vt 4.479961 -0.350000
vt 4.425000 0.500000
vt 4.479904 0.500000
vt 4.350000 0.500000
vt -0.500000 -0.350000
vt -1.500000 -0.425000
vt -1.500000 -0.350000
vt -0.500000 -0.425000
vt -1.500000 -0.479904
vt -0.425000 -0.500000
vt -0.350000 -1.500000
vt -0.425000 -1.500000
vt 4.479904 -1.500000
vt 4.425000 -0.500000
vt 4.479904 -0.500000
vt 4.425000 -1.500000
vt 4.350000 -0.500000
vt -2.500000 -0.350000
vt -3.500000 -0.425000
vt -3.500000 -0.350000
vt -2.500000 -0.425000
vt -3.500000 -0.479904
vt -0.425000 -2.500000
vt -0.350000 -3.500000
vt -0.425000 -3.500000
vt 3.500000 -0.350000
vt 3.500000 -0.479904
vt 3.500000 -4.350000
vt -0.500000 1.350000
vt -0.479904 -0.500000
vt -0.479961 0.350000
vt -0.350000 -0.500000
vt 0.500000 1.425000
vt 0.500000 0.479904
vt 0.479904 0.500000
vt -0.350000 0.500000
vt -0.425000 0.500000
vt -0.500000 1.425000
vt 4.479961 0.350000
vt -2.500000 1.350000
vt -3.500000 1.425000
vt 4.479904 -2.500000
vt 4.425000 -3.500000
vt 4.479904 -3.500000
vt 4.425000 -2.500000
vt 4.350000 -3.500000
vt 0.500000 -4.350000
vt -4.350000 0.500000
vt -0.479904 0.500000
vt -0.479961 1.350000
vt 2.500000 1.350000
vt 1.500000 1.425000
vt 1.500000 1.350000
vt 2.500000 -4.479904
vt 1.500000 -4.425000
vt 1.500000 -4.479904
vt 2.500000 -4.425000
vt 1.500000 -4.350000
vt -4.425000 0.500000
vt -4.479904 0.500000
vt -1.500000 3.425000
vt 0.650000 -1.500000
vt -0.650000 2.500000
vt -0.575000 2.500000
vt -0.520096 2.500000
vt 0.650000 2.500000
vt 0.575000 2.500000
vt -1.500000 3.479904
vt 3.350000 -1.500000
vt 3.425000 -1.500000
vt 2.500000 3.425000
vt 2.500000 -0.650000
vt -3.350000 2.500000
vt -3.425000 2.500000
vt 1.500000 3.425000
vt 1.500000 3.479904
vt 2.500000 -3.425000
vt 1.500000 -3.350000
vt 1.500000 -3.425000
vt -2.500000 3.425000
vt -3.350000 3.479960
vt 3.350000 -2.500000
vt -3.479904 2.500000
vt 3.350000 2.500000
vt 3.425000 2.500000
vt 1.650000 4.479960
vt -2.350000 3.500000
vt -2.425000 3.500000
vt 2.350000 3.500000
vt 2.425000 3.500000
vt -0.500000 -0.479904
vt -0.350000 -0.479961
vt 2.500000 -0.350000
vt 2.500000 -0.425000
vt 1.500000 -0.479904
vt 2.500000 0.425000
vt 1.500000 0.350000
vt 3.500000 -0.425000
vt 2.500000 -0.479904
vt 3.500000 0.425000
vt 2.500000 0.350000
vt 3.500000 0.350000
vt -2.500000 -0.479904
vt -0.350000 -2.500000
vt 4.350000 -1.500000
vt 4.350000 -2.500000
vt -0.350000 -4.479961
vt 0.500000 -4.425000
vt 0.500000 -4.479904
vt -4.350000 -0.479961
vt 2.500000 -4.350000
vt 3.500000 -4.425000
vt 3.500000 -4.479904
vt 1.500000 0.479904
vt 2.500000 1.425000
vt 2.500000 0.479904
vt 3.500000 1.425000
vt 3.500000 0.479904
vt 4.350000 0.479961
vt -1.500000 1.350000
vt -0.479904 -1.500000
vt -1.500000 1.425000
vt -0.479904 -2.500000
vt -2.500000 1.425000
vt -0.479904 -3.500000
vt -3.500000 1.479904
vt -0.575000 1.500000
vt -0.650000 1.500000
vt -0.520096 1.500000
vt 0.650000 1.500000
vt 0.575000 1.500000
vt 3.425000 1.500000
vt -3.350000 1.500000
vt 0.520096 2.500000
vt -3.425000 1.500000
vt 3.350000 1.500000
vt 0.650000 -0.520039
vt 1.500000 -0.575000
vt 1.500000 -0.520096
vt 1.500000 -0.650000
vt 2.500000 -0.575000
vt 2.500000 -0.520096
vt -0.520039 3.350000
vt 0.520096 -2.500000
vt 0.575000 -1.500000
vt 0.520096 -1.500000
vt 0.575000 -2.500000
vt -2.500000 3.479904
vt 3.425000 -2.500000
vt 0.650000 -2.500000
vt 0.650000 3.479960
vt 2.500000 3.479904
vt 2.500000 -3.350000
vt 1.650000 3.500000
vt -1.650000 3.500000
vt -1.520096 3.500000
vt -1.520040 4.350000
vt -1.575000 3.500000
vt 1.575000 3.500000
vt 4.479904 0.425000
vt 4.425000 0.479904
vt 4.500000 -0.350000
vt -4.350000 -0.500000
vt -0.500000 0.350000
vt 0.500000 -0.650000
vt 0.650000 -0.500000
vt -0.350000 1.500000
vt 0.479904 1.425000
vt 0.425000 1.479904
vt 3.350000 -0.500000
vt 3.650000 -0.500000
vt 3.500000 -0.650000
vt 3.479904 -0.575000
vt 3.425000 -0.520096
vt 4.350000 1.500000
vt 4.500000 1.350000
vt 4.479904 1.425000
vt 4.425000 1.479904
vt 0.500000 -3.350000
vt -0.425000 1.479904
vt -0.479904 1.425000
vt 0.500000 -3.650000
vt 0.350000 -3.500000
vt 0.650000 -3.500000
vt -4.425000 1.479904
vt -4.479904 1.425000
vt -4.500000 1.350000
vt 3.500000 -3.650000
vt 3.350000 -3.500000
vt 3.500000 -3.350000
vt 3.650000 -3.500000
vt -0.350000 -4.500000
vt -4.350000 1.500000
vt 4.350000 -4.500000
vt 4.500000 -4.350000
vt 1.500000 -1.350000
vt 0.500000 3.350000
vt 1.500000 -1.650000
vt 1.350000 -1.500000
vt 2.350000 -1.500000
vt 2.500000 -1.350000
vt -0.650000 3.500000
vt 2.650000 -1.500000
vt 2.500000 -2.350000
vt 3.350000 3.500000
vt 3.500000 3.350000
vt 2.650000 -2.500000
vt 2.500000 -1.650000
vt 1.500000 -2.650000
vt 1.350000 -2.500000
vt 0.575000 3.479904
vt 0.520096 3.425000
vt 2.350000 -2.500000
vt -3.425000 3.479904
vt -3.479904 3.425000
vt -3.500000 3.350000
vt 2.500000 -2.650000
vt 4.500000 -0.500000
vt -0.500000 2.500000
vt 3.500000 2.500000
vt -0.421732 -0.421732
vt -0.421732 -0.460495
vt -0.421732 1.460495
vt 0.350000 1.479960
vt 0.520096 -0.575000
vt 0.575000 -3.479904
vt 0.520096 -3.425000
vt 3.479904 -3.425000
vt 3.425000 -3.479904
vt -0.421732 -4.460495
vt 4.350000 1.479960
vt 2.479904 -1.575000
vt 2.500000 3.500000
vt 3.421732 -0.578268
vt 3.421732 -0.539505
vt 1.650000 -2.500000
vt 1.575000 -2.479904
vt 1.520096 -2.425000
vt 1.500000 -2.350000
vt 1.520096 -1.575000
vt 3.421732 -3.421732
vt 2.479904 -2.425000
vt 2.425000 -2.479904
vt 1.578268 -2.421732
vt 2.421732 -2.421732
vt 1.578268 -1.578268
vt 4.350000 -4.479961
vt -0.500000 1.479904
vt -1.650000 4.479960
vt 4.479961 -4.350000
vt 0.425000 -0.479904
vt 0.479904 -0.425000
vt 4.500000 0.350000
vt -0.479904 -0.425000
vt -0.425000 -0.479904
vt 4.425000 -0.479904
vt 4.479904 -0.425000
vt 4.500000 0.500000
vt -4.500000 0.500000
vt -4.500000 -0.350000
vt -4.479904 -0.425000
vt -4.425000 -0.479904
vt -0.425000 0.479904
vt -0.479904 0.425000
vt 0.575000 -0.520096
vt -0.500000 -4.350000
vt -0.479904 -4.425000
vt -0.425000 -4.479904
vt 4.425000 -4.479904
vt 4.479904 -4.425000
vt 0.650000 3.500000
vt 1.650000 -1.500000
vt -0.500000 3.350000
vt -0.520096 3.425000
vt -0.575000 3.479904
vt 2.425000 -1.520096
vt 1.575000 -1.520096
vt 3.479904 3.425000
vt 3.425000 3.479904
vt -2.500000 3.500000
vt -3.350000 3.500000
s 1
usemtl ClayMat_20
f 3/1/3 32/2/14 37/3/11
f 10/1/4 37/2/11 1/3/1
f 34/4/16 2/5/2 3/1/3
f 9/4/4 3/5/3 10/1/4
f 13/6/8 4/7/2 34/4/16
f 5/6/4 34/7/16 9/4/4
f 38/8/17 8/9/6 36/10/10
f 1/9/1 38/11/17 7/12/1
f 1/3/1 15/13/4 7/8/1
f 18/13/7 37/3/11 38/8/17
f 15/1/4 38/2/17 7/3/1
f 10/9/4 18/11/7 15/12/4
f 10/1/4 19/14/4 15/13/4
f 12/14/7 3/1/3 18/13/7
f 19/4/4 18/5/7 15/1/4
f 9/9/4 12/11/7 19/12/4
f 9/4/4 11/15/4 19/14/4
f 39/15/17 34/4/16 12/14/7
f 11/6/4 12/7/7 19/4/4
f 5/9/4 39/11/17 11/12/4
f 14/16/9 13/6/8 39/15/17
f 42/17/11 36/10/10 22/18/10
f 7/12/1 42/19/11 24/20/1
f 7/8/1 16/21/4 24/17/1
f 44/21/7 38/8/17 42/17/11
f 16/1/4 42/2/11 24/3/1
f 15/12/4 44/19/7 16/20/4
f 15/13/4 17/22/4 16/21/4
f 46/22/7 18/13/7 44/21/7
f 17/4/4 44/5/7 16/1/4
f 19/12/4 46/19/7 17/20/4
f 19/14/4 20/23/4 17/22/4
f 26/23/11 12/14/7 46/22/7
f 20/6/4 46/7/7 17/4/4
f 11/12/4 26/19/11 20/20/4
f 21/24/9 39/15/17 26/23/11
f 25/25/8 22/18/10 51/26/6
f 24/20/1 25/27/8 23/28/4
f 24/17/1 28/29/13 23/25/4
f 41/29/3 42/17/11 25/25/8
f 28/1/13 25/2/8 23/3/4
f 16/20/4 41/27/3 28/28/13
f 16/21/4 30/30/13 28/29/13
f 45/30/16 44/21/7 41/29/3
f 30/4/13 41/5/3 28/1/13
f 17/20/4 45/27/16 30/28/13
f 17/22/4 29/31/13 30/30/13
f 47/31/3 46/22/7 45/30/16
f 29/6/13 45/7/16 30/4/13
f 20/20/4 47/27/3 29/28/13
f 48/32/5 26/23/11 47/31/3
f 27/33/12 25/25/8 50/34/20
f 53/35/12 41/29/3 27/33/12
f 31/36/12 45/30/16 53/35/12
f 34/7/16 55/37/15 3/5/3
f 18/5/7 60/38/19 38/2/17
f 3/39/3 54/40/22 18/11/7
f 61/14/8 55/1/15 54/13/22
f 12/7/7 54/37/22 18/5/7
f 34/39/16 61/40/8 12/11/7
f 39/41/17 61/42/8 12/7/7
f 38/11/17 43/43/19 42/19/11
f 59/21/8 60/8/19 43/17/19
f 44/5/7 43/38/19 42/2/11
f 18/11/7 59/43/8 44/19/7
f 63/22/22 54/13/22 59/21/8
f 46/7/7 59/37/8 44/5/7
f 12/11/7 63/43/22 46/19/7
f 49/23/18 61/14/8 63/22/22
f 26/41/11 63/42/22 46/7/7
f 39/11/17 49/43/18 26/19/11
f 44/19/7 52/44/21 41/27/3
f 62/30/21 59/21/8 52/29/21
f 45/7/16 52/37/21 41/5/3
f 46/19/7 62/44/21 45/27/16
f 54/37/22 56/45/23 60/38/19
f 55/46/15 64/47/3 54/40/22
f 57/14/8 58/1/14 64/13/3
f 61/42/8 64/48/3 54/37/22
f 55/37/15 65/49/14 33/42/15
f 33/46/15 57/47/8 61/40/8
f 40/50/18 57/49/8 61/42/8
f 67/21/8 56/8/23 66/17/23
f 59/37/8 66/45/23 43/38/19
f 54/40/22 67/51/8 59/43/8
f 66/51/23 60/40/19 43/43/19
f 68/22/22 64/13/3 67/21/8
f 63/42/22 67/48/8 59/37/8
f 61/40/8 68/51/22 63/43/22
f 69/23/5 57/14/8 68/22/22
f 49/50/18 68/49/22 63/42/22
f 40/40/18 69/51/5 49/43/18
f 59/43/8 71/52/24 52/44/21
f 72/30/20 67/21/8 71/29/24
f 62/42/21 71/48/24 52/37/21
f 63/43/22 72/52/20 62/44/21
f 76/53/28 77/54/29 73/55/25
f 80/56/32 78/57/30 76/58/28
f 79/59/31 80/56/32 74/60/26
f 83/61/35 81/62/33 79/63/31
f 82/64/34 83/61/35 75/65/27
f 82/66/34 78/67/30 84/68/36
f 78/67/30 81/69/33 84/68/36
f 104/54/44 105/53/45 101/55/41
f 108/66/48 106/67/46 104/54/44
f 107/70/47 108/71/48 102/72/42
f 111/73/51 109/74/49 107/75/47
f 110/76/50 111/73/51 103/77/43
f 105/53/45 112/69/52 110/78/50
f 106/79/46 109/74/49 112/80/52
f 152/56/68 153/59/69 149/60/65
f 152/81/68 157/82/73 154/83/70
f 155/84/71 156/85/72 150/86/66
f 155/84/71 160/87/76 157/82/73
f 158/88/74 159/89/75 151/90/67
f 158/88/74 154/91/70 160/92/76
f 154/83/70 157/82/73 160/87/76
f 180/93/84 181/94/85 177/77/81
f 184/95/88 182/96/86 180/93/84
f 183/97/87 184/98/88 178/99/82
f 183/97/87 188/100/92 185/101/89
f 186/85/90 187/84/91 179/86/83
f 181/81/85 188/82/92 186/85/90
f 182/102/86 185/101/89 188/100/92
f 204/103/108 205/104/109 201/105/105
f 204/103/108 209/106/113 206/107/110
f 207/61/111 208/64/112 202/65/106
f 211/63/115 209/108/113 207/61/111
f 210/109/114 211/110/115 203/111/107
f 210/112/114 206/107/110 212/113/116
f 206/107/110 209/106/113 212/113/116
f 231/114/123 227/115/119 229/116/121
f 239/104/131 240/103/132 236/105/128
f 239/117/131 244/118/136 241/119/133
f 242/120/134 243/121/135 237/122/129
f 242/120/134 247/123/139 244/118/136
f 245/71/137 246/70/138 238/72/130
f 245/71/137 241/124/133 247/125/139
f 241/119/133 244/118/136 247/123/139
f 254/3/142 255/126/120 256/127/143
f 277/128/152 273/129/148 274/130/149
f 284/131/159 280/132/155 281/133/156
f 300/134/167 301/135/168 297/90/164
f 304/136/171 302/137/169 300/134/167
f 303/138/170 304/139/171 298/140/165
f 303/138/170 308/141/175 305/142/172
f 306/110/173 307/109/174 299/111/166
f 301/143/168 308/144/175 306/110/173
f 302/145/169 305/142/172 308/141/175
f 332/139/187 333/138/188 329/140/184
f 336/146/191 334/142/189 332/139/187
f 335/147/190 336/148/191 330/99/185
f 335/147/190 340/149/195 337/150/192
f 338/121/193 339/120/194 331/122/186
f 333/138/188 340/141/195 338/151/193
f 334/152/189 337/150/192 340/149/195
f 356/153/111 357/154/112 353/155/106
f 356/153/111 361/156/116 358/157/113
f 359/158/114 360/159/115 354/160/107
f 363/161/109 361/162/116 359/158/114
f 362/163/108 363/164/109 355/165/105
f 357/166/112 364/167/110 362/163/108
f 358/157/113 361/156/116 364/168/110
f 375/169/123 371/170/119 373/171/121
f 383/164/131 384/163/132 380/165/128
f 383/164/131 388/172/136 385/167/133
f 386/173/134 387/174/135 381/175/129
f 390/176/138 388/177/136 386/173/134
f 389/178/137 390/179/138 382/180/130
f 384/163/132 391/181/196 389/166/137
f 385/167/133 388/172/136 391/181/196
f 406/182/152 402/183/148 403/184/149
f 409/185/197 410/186/120 411/187/143
f 421/159/173 422/158/174 418/160/166
f 421/159/173 426/188/169 423/162/175
f 424/189/167 425/190/168 419/191/164
f 424/189/167 429/192/172 426/193/169
f 427/194/170 428/195/171 420/196/165
f 422/197/174 429/198/172 427/194/170
f 423/162/175 426/188/169 429/199/172
f 445/200/190 446/201/191 442/202/185
f 449/173/194 447/203/192 445/176/190
f 448/174/193 449/173/194 443/175/186
f 452/194/188 450/204/195 448/197/193
f 451/195/187 452/194/188 444/196/184
f 451/195/187 447/205/192 453/198/198
f 447/205/192 450/204/195 453/198/198
f 464/206/159 460/207/155 461/208/156
f 468/209/170 469/210/171 465/211/165
f 472/212/174 470/213/172 468/209/170
f 471/214/173 472/215/174 466/216/166
f 471/214/173 476/217/169 473/218/175
f 474/219/167 475/220/168 467/221/164
f 469/210/171 476/222/169 474/223/167
f 470/224/172 473/218/175 476/217/169
f 480/225/193 481/226/194 477/227/186
f 484/209/188 482/228/195 480/212/193
f 483/210/187 484/209/188 478/211/184
f 483/210/187 488/222/192 485/213/198
f 486/229/190 487/230/191 479/231/185
f 481/226/194 488/232/192 486/233/190
f 482/228/195 485/213/198 488/222/192
f 492/234/131 493/235/132 489/236/128
f 492/234/131 497/237/199 494/238/133
f 495/226/134 496/225/135 490/227/129
f 495/226/134 500/232/139 497/239/199
f 498/240/137 499/241/138 491/242/130
f 493/243/132 500/244/139 498/240/137
f 494/238/133 497/237/199 500/245/139
f 504/246/108 505/247/109 501/236/105
f 508/248/112 506/249/110 504/246/108
f 507/250/111 508/251/112 502/252/106
f 507/253/111 512/254/116 509/255/113
f 510/256/114 511/257/115 503/216/107
f 510/258/114 506/249/110 512/259/116
f 506/249/110 509/260/113 512/259/116
f 85/261/37 92/262/39 90/126/37
f 87/263/39 91/264/40 92/262/39
f 88/265/40 89/266/38 91/267/40
f 114/268/54 105/53/45 116/269/56
f 105/270/45 115/271/55 116/272/56
f 110/76/50 113/273/53 115/271/55
f 121/274/58 120/275/60 118/276/58
f 123/277/60 119/278/59 120/275/60
f 124/279/59 117/280/57 119/281/59
f 125/276/61 132/277/63 130/274/61
f 127/282/63 131/283/64 132/284/63
f 128/285/64 129/286/62 131/283/64
f 141/287/58 140/288/60 138/289/58
f 143/290/60 139/291/59 140/288/60
f 144/292/59 137/293/57 139/294/59
f 173/295/78 180/93/84 177/77/81
f 180/93/84 176/296/79 184/95/88
f 184/98/88 174/297/77 178/99/82
f 193/298/97 204/103/108 201/105/105
f 195/299/99 208/64/112 204/300/108
f 208/64/112 194/301/98 202/65/106
f 198/130/102 211/110/115 200/302/104
f 211/63/115 199/267/103 200/303/104
f 207/61/111 197/266/101 199/267/103
f 190/268/94 205/104/109 192/269/96
f 205/104/109 191/304/95 192/269/96
f 210/109/114 189/305/93 191/306/95
f 233/298/125 240/103/132 235/307/127
f 240/308/132 234/283/126 235/284/127
f 245/71/137 232/286/124 234/283/126
f 289/309/125 288/310/127 286/133/125
f 291/311/127 287/312/126 288/313/127
f 292/314/126 285/315/124 287/312/126
f 309/130/176 306/110/173 299/111/166
f 311/302/178 301/143/168 306/110/173
f 301/135/168 310/316/177 297/90/164
f 293/317/160 303/138/170 298/140/165
f 295/318/162 307/109/174 303/319/170
f 307/109/174 294/305/161 299/111/166
f 317/320/176 316/321/178 314/322/176
f 319/323/178 315/324/179 316/325/178
f 320/326/179 313/327/177 315/324/179
f 326/317/181 333/138/188 328/328/183
f 333/138/188 327/329/182 328/328/183
f 338/121/193 325/273/180 327/271/182
f 349/185/97 362/163/108 355/165/105
f 351/330/99 357/166/112 362/163/108
f 357/154/112 350/331/98 353/155/106
f 346/332/94 363/164/109 348/333/96
f 363/164/109 347/334/95 348/333/96
f 359/158/114 345/335/93 347/336/95
f 377/185/125 384/163/132 379/330/127
f 384/163/132 378/337/126 379/330/127
f 389/178/137 376/338/124 378/339/126
f 392/171/102 386/173/134 381/175/129
f 394/340/104 390/176/138 386/173/134
f 390/179/138 393/341/101 382/180/130
f 414/342/160 427/194/170 420/196/165
f 416/343/162 422/197/174 427/194/170
f 422/158/174 415/335/161 418/160/166
f 434/171/176 433/344/178 431/184/176
f 436/340/178 432/345/179 433/344/178
f 437/346/179 430/347/177 432/348/179
f 454/208/125 451/195/187 444/196/184
f 456/349/127 446/350/191 451/195/187
f 446/201/191 455/351/124 442/202/185
f 439/342/181 452/194/188 441/343/183
f 452/194/188 440/352/182 441/343/183
f 448/174/193 438/353/180 440/354/182
f 465/211/165 504/246/108 501/236/105
f 469/210/171 508/248/112 504/246/108
f 474/219/167 502/252/106 508/251/112
f 477/227/186 471/214/173 466/216/166
f 481/226/194 475/355/168 471/214/173
f 486/229/190 467/221/164 475/220/168
f 478/211/184 493/235/132 483/210/187
f 493/235/132 487/223/191 483/210/187
f 498/240/137 479/231/185 487/230/191
f 490/227/129 511/257/115 495/226/134
f 511/257/115 499/233/138 495/226/134
f 507/250/111 491/242/130 499/241/138
f 458/356/153 484/209/188 463/357/158
f 484/209/188 464/206/159 463/357/158
f 480/225/193 459/358/154 464/359/159
f 121/274/58 77/54/29 123/277/60
f 77/54/29 124/360/59 123/277/60
f 82/64/34 122/301/57 124/279/59
f 90/126/37 79/59/31 74/60/26
f 92/262/39 83/361/35 79/59/31
f 83/61/35 89/266/38 75/65/27
f 190/268/94 76/53/28 73/55/25
f 192/269/96 80/78/32 76/53/28
f 80/56/32 189/305/93 74/60/26
f 93/362/37 87/263/39 85/261/37
f 95/363/39 88/364/40 87/263/39
f 96/365/40 86/366/38 88/265/40
f 97/295/37 95/363/39 93/362/37
f 99/367/39 96/368/40 95/363/39
f 100/369/40 94/370/38 96/365/40
f 97/295/37 111/73/51 99/367/39
f 99/367/39 107/75/47 100/296/40
f 107/70/47 98/371/38 100/369/40
f 130/274/61 104/54/44 101/55/41
f 132/277/63 108/66/48 104/54/44
f 108/71/48 129/286/62 102/72/42
f 118/276/58 143/290/60 141/287/58
f 120/275/60 144/372/59 143/290/60
f 119/281/59 142/373/57 144/292/59
f 133/287/61 127/275/63 125/276/61
f 135/311/63 128/285/64 127/282/63
f 136/314/64 126/374/62 128/285/64
f 145/289/61 135/290/63 133/287/61
f 147/313/63 136/314/64 135/311/63
f 148/312/64 134/375/62 136/314/64
f 162/126/78 153/59/69 164/262/80
f 153/376/69 163/377/79 164/378/80
f 158/88/74 161/316/77 163/377/79
f 138/289/58 155/84/71 150/86/66
f 140/288/60 159/379/75 155/84/71
f 159/89/75 137/293/57 151/90/67
f 293/317/160 156/85/72 295/328/162
f 156/85/72 296/329/163 295/328/162
f 152/56/68 294/305/161 296/306/163
f 162/126/78 168/263/80 166/261/78
f 164/378/80 167/324/79 168/325/80
f 163/377/79 165/327/77 167/324/79
f 166/261/78 172/363/80 170/362/78
f 168/325/80 171/326/79 172/323/80
f 167/324/79 169/380/77 171/326/79
f 170/362/78 175/367/80 173/295/78
f 172/323/80 176/381/79 175/382/80
f 171/326/79 174/297/77 176/381/79
f 145/289/61 187/84/91 147/288/63
f 147/313/63 183/97/87 148/312/64
f 183/97/87 146/315/62 148/312/64
f 326/317/181 186/85/90 179/86/83
f 328/328/183 181/81/85 186/85/90
f 181/94/85 325/273/180 177/77/81
f 198/130/102 216/321/104 214/322/102
f 200/303/104 215/265/103 216/383/104
f 199/267/103 213/366/101 215/265/103
f 214/322/102 220/384/104 218/320/102
f 216/383/104 219/365/103 220/385/104
f 215/265/103 217/370/101 219/365/103
f 218/320/102 224/386/104 222/116/102
f 220/385/104 223/369/103 224/387/104
f 219/365/103 221/371/101 223/369/103
f 222/116/102 242/120/134 237/122/129
f 224/387/104 246/70/138 242/388/134
f 246/70/138 221/371/101 238/72/130
f 114/268/54 239/104/131 236/105/128
f 116/269/56 243/112/135 239/104/131
f 243/121/135 113/273/53 237/122/129
f 248/389/97 195/307/99 193/298/97
f 250/390/99 196/279/100 195/299/99
f 251/281/100 194/301/98 196/279/100
f 233/298/125 262/391/127 260/389/125
f 235/284/127 261/285/126 262/282/127
f 234/283/126 259/374/124 261/285/126
f 263/309/97 250/391/99 248/389/97
f 265/392/99 251/281/100 250/390/99
f 266/292/100 249/280/98 251/281/100
f 260/389/125 291/393/127 289/309/125
f 262/282/127 292/314/126 291/311/127
f 261/285/126 290/375/124 292/314/126
f 267/133/97 265/393/99 263/309/97
f 269/394/99 266/292/100 265/392/99
f 270/294/100 264/373/98 266/292/100
f 267/133/97 304/139/171 269/310/99
f 304/136/171 270/294/100 269/394/99
f 300/134/167 268/293/98 270/294/100
f 314/322/176 311/302/178 309/130/176
f 316/325/178 312/377/179 311/378/178
f 315/324/179 310/316/177 312/377/179
f 321/116/176 319/384/178 317/320/176
f 323/382/178 320/326/179 319/323/178
f 324/381/179 318/380/177 320/326/179
f 321/116/176 339/120/194 323/386/178
f 323/382/178 335/147/190 324/381/179
f 335/147/190 322/297/177 324/381/179
f 286/133/125 332/139/187 329/140/184
f 332/139/187 287/395/126 336/146/191
f 336/148/191 285/315/124 330/99/185
f 346/332/94 257/396/144 252/397/140
f 348/333/96 258/398/145 257/396/144
f 347/336/95 253/399/141 258/400/145
f 226/397/118 344/333/56 342/332/54
f 231/396/123 343/334/55 344/333/56
f 230/401/122 341/353/53 343/354/55
f 272/402/147 416/343/162 414/342/160
f 277/128/152 417/336/163 416/403/162
f 276/400/151 415/335/161 417/336/163
f 439/342/181 283/404/158 278/402/153
f 441/343/183 284/131/159 283/404/158
f 440/354/182 279/405/154 284/401/159
f 366/184/102 360/159/115 368/344/104
f 360/406/115 367/407/103 368/408/104
f 356/153/111 365/409/101 367/407/103
f 366/184/102 394/340/104 392/171/102
f 368/408/104 395/410/103 394/411/104
f 367/407/103 393/341/101 395/410/103
f 342/332/54 383/164/131 380/165/128
f 344/333/56 387/412/135 383/164/131
f 387/174/135 341/353/53 381/175/129
f 396/208/97 351/330/99 349/185/97
f 398/413/99 352/414/100 351/415/99
f 399/416/100 350/331/98 352/414/100
f 377/185/125 456/349/127 454/208/125
f 379/330/127 457/417/126 456/349/127
f 378/339/126 455/351/124 457/418/126
f 396/208/97 428/195/171 398/349/99
f 398/413/99 424/189/167 399/416/100
f 424/189/167 397/419/98 399/416/100
f 431/184/176 421/159/173 418/160/166
f 433/344/178 425/420/168 421/159/173
f 425/190/168 430/347/177 419/191/164
f 434/171/176 449/173/194 436/340/178
f 436/340/178 445/176/190 437/421/179
f 445/200/190 435/422/177 437/346/179
f 401/356/147 468/209/170 465/211/165
f 468/209/170 405/206/151 472/212/174
f 472/215/174 400/423/146 466/216/166
f 370/424/118 492/234/131 489/236/128
f 492/234/131 374/425/122 496/426/135
f 496/225/135 369/358/117 490/227/129
f 407/424/140 505/247/109 412/427/144
f 505/247/109 413/425/145 412/427/144
f 510/256/114 408/423/141 413/428/145
f 8/39/6 73/55/25 121/274/58
f 75/65/27 1/3/1 122/301/57
f 74/60/26 32/2/14 90/126/37
f 90/126/37 2/5/2 85/261/37
f 85/261/37 4/7/2 93/362/37
f 86/127/38 85/126/37 3/39/3
f 89/266/38 10/1/4 1/3/1
f 86/366/38 9/4/4 10/1/4
f 89/127/38 90/126/37 37/39/11
f 93/362/37 35/41/14 97/295/37
f 94/127/38 93/126/37 34/39/16
f 94/370/38 5/6/4 9/4/4
f 97/295/37 113/273/53 103/77/43
f 98/127/38 97/126/37 13/39/8
f 98/371/38 129/286/62 5/6/4
f 101/55/41 6/39/5 130/274/61
f 114/268/54 233/298/125 6/39/5
f 35/41/14 237/122/129 113/273/53
f 116/429/56 115/430/55 113/273/53
f 117/280/57 24/17/1 142/373/57
f 117/301/57 7/3/1 38/2/17
f 122/301/57 7/8/1 117/280/57
f 36/11/10 121/274/58 118/276/58
f 22/19/10 118/276/58 141/287/58
f 122/301/57 1/3/1 37/2/11
f 130/274/61 14/11/9 125/276/61
f 125/276/61 21/19/9 133/287/61
f 126/286/62 125/431/61 39/41/17
f 5/6/4 126/374/62 11/15/4
f 11/15/4 134/375/62 20/23/4
f 129/286/62 130/431/61 13/41/8
f 20/23/4 146/315/62 29/31/13
f 133/287/61 48/27/5 145/289/61
f 134/286/62 133/431/61 26/41/11
f 51/27/6 141/287/58 138/289/58
f 293/317/160 138/289/58 150/86/66
f 142/373/57 23/25/4 137/293/57
f 137/293/57 161/316/77 151/90/67
f 137/301/57 23/3/4 25/2/8
f 142/301/57 24/3/1 42/2/11
f 29/31/13 178/99/82 174/297/77
f 145/289/61 326/317/181 179/86/83
f 146/286/62 145/431/61 47/41/3
f 162/126/78 294/305/161 149/60/65
f 166/261/78 50/2/20 162/126/78
f 23/25/4 165/327/77 161/316/77
f 161/432/77 23/28/4 25/27/8
f 28/29/13 169/380/77 165/327/77
f 165/432/77 28/28/13 41/27/3
f 170/362/78 27/5/12 166/261/78
f 30/30/13 174/297/77 169/380/77
f 169/432/77 30/28/13 45/27/16
f 173/295/78 53/7/12 170/362/78
f 177/77/81 31/41/12 173/295/78
f 174/432/77 29/28/13 47/27/3
f 193/298/97 190/268/94 8/39/6
f 190/433/94 37/3/11 189/305/93
f 189/305/93 198/130/102 32/2/14
f 255/126/120 197/266/101 202/65/106
f 248/389/97 8/39/6 36/11/10
f 193/298/97 254/130/142 256/129/143
f 256/127/143 249/280/98 252/434/140
f 32/2/14 214/322/102 2/5/2
f 255/126/120 253/435/141 213/366/101
f 197/129/101 255/436/120 254/298/142
f 33/4/15 213/366/101 55/1/15
f 216/437/104 215/438/103 213/129/101
f 2/5/2 218/320/102 4/7/2
f 225/439/117 228/295/120 217/370/101
f 220/437/104 219/438/103 217/129/101
f 4/7/2 222/116/102 35/41/14
f 227/440/119 232/286/124 238/72/130
f 221/129/101 228/436/120 229/298/121
f 259/374/124 227/440/119 226/441/118
f 229/116/121 227/115/119 226/50/118
f 226/397/118 70/47/5 40/40/18
f 33/42/15 341/353/53 225/405/117
f 225/405/117 34/7/16 229/116/121
f 231/442/123 230/443/122 225/439/117
f 232/444/124 227/115/119 233/445/125
f 6/39/5 260/389/125 14/11/9
f 263/309/97 36/11/10 22/19/10
f 248/298/97 38/2/17 249/436/98
f 43/17/19 249/280/98 264/373/98
f 254/298/142 257/396/144 252/397/140
f 252/434/140 54/13/22 253/435/141
f 56/47/23 252/397/140 60/40/19
f 253/399/141 58/48/14 55/37/15
f 3/5/3 253/399/141 254/130/142
f 290/375/124 40/15/18 49/23/18
f 262/446/127 261/447/126 259/444/124
f 14/11/9 289/309/125 21/19/9
f 267/133/97 22/19/10 51/27/6
f 263/298/97 42/2/11 264/436/98
f 272/448/147 43/17/19 264/373/98
f 298/140/165 51/27/6 293/317/160
f 270/449/100 269/450/99 267/298/97
f 297/90/164 275/451/150 273/452/148
f 414/342/160 43/43/19 272/402/147
f 42/19/11 272/402/147 274/133/149
f 41/5/3 271/399/146 274/130/149
f 52/37/21 415/335/161 271/399/146
f 271/453/146 52/29/21 59/21/8
f 313/327/177 271/453/146 275/451/150
f 312/454/179 311/455/178 309/456/176
f 279/405/154 72/49/20 62/42/21
f 45/7/16 281/116/156 279/405/154
f 322/297/177 280/457/155 279/458/154
f 49/43/18 439/342/181 278/402/153
f 279/458/154 278/459/153 63/22/22
f 26/19/11 278/402/153 281/133/156
f 285/444/124 282/115/157 281/116/156
f 282/460/157 285/315/124 290/375/124
f 330/99/185 282/460/157 280/457/155
f 324/454/179 323/455/178 321/456/176
f 21/19/9 286/133/125 48/27/5
f 48/27/5 329/140/184 326/317/181
f 291/446/127 292/447/126 290/444/124
f 50/2/20 299/111/166 294/305/161
f 294/461/161 50/34/20 25/25/8
f 27/5/12 309/130/176 50/2/20
f 318/380/177 52/29/21 313/327/177
f 53/7/12 314/322/176 27/5/12
f 314/456/176 41/27/3 313/462/177
f 31/41/12 317/320/176 53/7/12
f 317/456/176 45/27/16 318/462/177
f 325/273/180 321/116/176 31/41/12
f 325/463/180 326/464/181 47/31/3
f 342/332/54 377/185/125 70/47/5
f 65/49/14 381/175/129 341/353/53
f 344/442/56 343/443/55 341/439/53
f 349/185/97 346/332/94 56/47/23
f 346/434/94 64/13/3 345/435/93
f 345/335/93 366/184/102 58/48/14
f 410/465/120 365/409/101 353/155/106
f 396/208/97 56/47/23 66/51/23
f 349/466/97 409/184/197 411/183/143
f 407/467/140 411/468/143 350/331/98
f 369/469/117 372/470/120 393/341/101
f 365/471/101 410/186/120 409/185/197
f 58/48/14 392/171/102 65/49/14
f 371/472/119 376/338/124 382/180/130
f 408/423/141 490/227/129 369/358/117
f 369/358/117 408/423/141 409/184/197
f 458/473/153 369/469/117 407/467/140
f 393/471/101 372/186/120 373/185/121
f 376/474/124 371/170/119 377/475/125
f 458/356/153 461/208/156 373/185/121
f 462/476/157 376/338/124 370/477/118
f 370/424/118 478/211/184 458/356/153
f 70/47/5 454/208/125 69/51/5
f 419/191/164 404/478/150 402/479/148
f 420/196/165 66/51/23 414/342/160
f 399/480/100 398/481/99 396/466/97
f 401/356/147 403/208/149 409/185/197
f 461/171/156 400/423/146 403/184/149
f 459/358/154 466/216/166 400/423/146
f 435/422/177 459/482/154 404/478/150
f 432/483/179 433/484/178 431/485/176
f 465/211/165 407/424/140 401/356/147
f 71/48/24 418/160/166 415/335/161
f 415/453/161 71/29/24 67/21/8
f 72/49/20 431/184/176 71/48/24
f 438/353/180 434/171/176 72/49/20
f 437/483/179 436/484/178 434/485/176
f 442/202/185 462/476/157 460/486/155
f 69/51/5 444/196/184 439/342/181
f 438/458/180 439/459/181 68/22/22
f 455/474/124 462/170/157 461/171/156
f 479/231/185 502/252/106 467/221/164
f 3/1/3 2/5/2 32/2/14
f 10/1/4 3/5/3 37/2/11
f 34/4/16 4/7/2 2/5/2
f 9/4/4 34/7/16 3/5/3
f 13/6/8 35/41/14 4/7/2
f 5/6/4 13/41/8 34/7/16
f 38/8/17 37/3/11 8/9/6
f 1/9/1 37/39/11 38/11/17
f 1/3/1 10/1/4 15/13/4
f 18/13/7 3/1/3 37/3/11
f 15/1/4 18/5/7 38/2/17
f 10/9/4 3/39/3 18/11/7
f 10/1/4 9/4/4 19/14/4
f 12/14/7 34/4/16 3/1/3
f 19/4/4 12/7/7 18/5/7
f 9/9/4 34/39/16 12/11/7
f 9/4/4 5/6/4 11/15/4
f 39/15/17 13/6/8 34/4/16
f 11/6/4 39/41/17 12/7/7
f 5/9/4 13/39/8 39/11/17
f 14/16/9 6/487/5 13/6/8
f 42/17/11 38/8/17 36/10/10
f 7/12/1 38/11/17 42/19/11
f 7/8/1 15/13/4 16/21/4
f 44/21/7 18/13/7 38/8/17
f 16/1/4 44/5/7 42/2/11
f 15/12/4 18/11/7 44/19/7
f 15/13/4 19/14/4 17/22/4
f 46/22/7 12/14/7 18/13/7
f 17/4/4 46/7/7 44/5/7
f 19/12/4 12/11/7 46/19/7
f 19/14/4 11/15/4 20/23/4
f 26/23/11 39/15/17 12/14/7
f 20/6/4 26/41/11 46/7/7
f 11/12/4 39/11/17 26/19/11
f 21/24/9 14/16/9 39/15/17
f 25/25/8 42/17/11 22/18/10
f 24/20/1 42/19/11 25/27/8
f 24/17/1 16/21/4 28/29/13
f 41/29/3 44/21/7 42/17/11
f 28/1/13 41/5/3 25/2/8
f 16/20/4 44/19/7 41/27/3
f 16/21/4 17/22/4 30/30/13
f 45/30/16 46/22/7 44/21/7
f 30/4/13 45/7/16 41/5/3
f 17/20/4 46/19/7 45/27/16
f 17/22/4 20/23/4 29/31/13
f 47/31/3 26/23/11 46/22/7
f 29/6/13 47/41/3 45/7/16
f 20/20/4 26/19/11 47/27/3
f 48/32/5 21/24/9 26/23/11
f 27/33/12 41/29/3 25/25/8
f 53/35/12 45/30/16 41/29/3
f 31/36/12 47/31/3 45/30/16
f 34/7/16 33/42/15 55/37/15
f 18/5/7 54/37/22 60/38/19
f 3/39/3 55/46/15 54/40/22
f 61/14/8 33/4/15 55/1/15
f 12/7/7 61/42/8 54/37/22
f 34/39/16 33/46/15 61/40/8
f 39/41/17 40/50/18 61/42/8
f 38/11/17 60/40/19 43/43/19
f 59/21/8 54/13/22 60/8/19
f 44/5/7 59/37/8 43/38/19
f 18/11/7 54/40/22 59/43/8
f 63/22/22 61/14/8 54/13/22
f 46/7/7 63/42/22 59/37/8
f 12/11/7 61/40/8 63/43/22
f 49/23/18 40/15/18 61/14/8
f 26/41/11 49/50/18 63/42/22
f 39/11/17 40/40/18 49/43/18
f 44/19/7 59/43/8 52/44/21
f 62/30/21 63/22/22 59/21/8
f 45/7/16 62/42/21 52/37/21
f 46/19/7 63/43/22 62/44/21
f 54/37/22 64/48/3 56/45/23
f 55/46/15 58/488/14 64/47/3
f 57/14/8 65/4/14 58/1/14
f 61/42/8 57/49/8 64/48/3
f 55/37/15 58/48/14 65/49/14
f 33/46/15 65/488/14 57/47/8
f 40/50/18 70/489/5 57/49/8
f 67/21/8 64/13/3 56/8/23
f 59/37/8 67/48/8 66/45/23
f 54/40/22 64/47/3 67/51/8
f 66/51/23 56/47/23 60/40/19
f 68/22/22 57/14/8 64/13/3
f 63/42/22 68/49/22 67/48/8
f 61/40/8 57/47/8 68/51/22
f 69/23/5 70/15/5 57/14/8
f 49/50/18 69/489/5 68/49/22
f 40/40/18 70/47/5 69/51/5
f 59/43/8 67/51/8 71/52/24
f 72/30/20 68/22/22 67/21/8
f 62/42/21 72/49/20 71/48/24
f 63/43/22 68/51/22 72/52/20
f 76/53/28 78/67/30 77/54/29
f 80/78/32 81/69/33 78/67/30
f 79/59/31 81/490/33 80/56/32
f 83/361/35 84/491/36 81/490/33
f 82/64/34 84/108/36 83/61/35
f 82/66/34 77/54/29 78/67/30
f 104/54/44 106/67/46 105/53/45
f 108/71/48 109/125/49 106/124/46
f 107/70/47 109/125/49 108/71/48
f 111/73/51 112/80/52 109/74/49
f 110/76/50 112/80/52 111/73/51
f 105/270/45 106/79/46 112/80/52
f 152/56/68 154/490/70 153/59/69
f 152/56/68 156/58/72 157/57/73
f 155/84/71 157/82/73 156/85/72
f 155/84/71 159/379/75 160/87/76
f 158/88/74 160/92/76 159/89/75
f 158/361/74 153/59/69 154/490/70
f 180/93/84 182/96/86 181/94/85
f 184/98/88 185/101/89 182/102/86
f 183/97/87 185/101/89 184/98/88
f 183/379/87 187/84/91 188/82/92
f 186/85/90 188/82/92 187/84/91
f 181/81/85 182/83/86 188/82/92
f 204/103/108 206/107/110 205/104/109
f 204/300/108 208/64/112 209/108/113
f 207/61/111 209/108/113 208/64/112
f 211/110/115 212/144/116 209/492/113
f 210/109/114 212/144/116 211/110/115
f 210/112/114 205/104/109 206/107/110
f 229/116/121 225/405/117 230/401/122
f 231/442/123 226/441/118 227/440/119
f 229/298/121 230/398/122 231/396/123
f 227/440/119 228/295/120 229/6/121
f 239/104/131 241/107/133 240/103/132
f 239/104/131 243/112/135 244/113/136
f 242/120/134 244/118/136 243/121/135
f 242/388/134 246/70/138 247/125/139
f 245/71/137 247/125/139 246/70/138
f 245/493/137 240/103/132 241/107/133
f 256/127/143 252/434/140 257/494/144
f 258/400/145 253/399/141 254/130/142
f 256/129/143 257/128/144 254/130/142
f 257/396/144 258/398/145 254/298/142
f 275/451/150 271/453/146 276/495/151
f 277/496/152 272/448/147 273/452/148
f 275/132/150 276/131/151 274/133/149
f 276/400/151 277/128/152 274/130/149
f 282/460/157 278/459/153 283/497/158
f 284/498/159 279/458/154 280/457/155
f 282/115/157 283/114/158 281/116/156
f 283/404/158 284/131/159 281/133/156
f 300/134/167 302/137/169 301/135/168
f 304/139/171 305/142/172 302/145/169
f 303/138/170 305/142/172 304/139/171
f 303/319/170 307/109/174 308/144/175
f 306/110/173 308/144/175 307/109/174
f 301/135/168 302/137/169 308/499/175
f 332/139/187 334/142/189 333/138/188
f 336/148/191 337/150/192 334/152/189
f 335/147/190 337/150/192 336/148/191
f 335/500/190 339/120/194 340/118/195
f 338/121/193 340/118/195 339/120/194
f 333/138/188 334/142/189 340/141/195
f 356/153/111 358/157/113 357/154/112
f 356/420/111 360/159/115 361/162/116
f 359/158/114 361/162/116 360/159/115
f 363/164/109 364/167/110 361/172/116
f 362/163/108 364/167/110 363/164/109
f 357/154/112 358/157/113 364/168/110
f 373/171/121 369/358/117 374/359/122
f 375/501/123 370/477/118 371/472/119
f 373/185/121 374/425/122 375/427/123
f 371/170/119 372/502/120 373/171/121
f 383/164/131 385/167/133 384/163/132
f 383/164/131 387/412/135 388/172/136
f 386/173/134 388/177/136 387/174/135
f 390/179/138 391/503/196 388/504/136
f 389/178/137 391/503/196 390/179/138
f 384/163/132 385/167/133 391/181/196
f 404/478/150 400/505/146 405/506/151
f 406/507/152 401/508/147 402/479/148
f 404/207/150 405/206/151 403/208/149
f 405/206/151 406/357/152 403/208/149
f 411/468/143 407/467/140 412/509/144
f 413/428/145 408/423/141 409/184/197
f 411/183/143 412/182/144 409/184/197
f 412/427/144 413/425/145 409/185/197
f 421/159/173 423/162/175 422/158/174
f 421/159/173 425/420/168 426/188/169
f 424/189/167 426/193/169 425/190/168
f 424/350/167 428/195/171 429/198/172
f 427/194/170 429/198/172 428/195/171
f 422/158/174 423/162/175 429/199/172
f 445/200/190 447/510/192 446/201/191
f 449/173/194 450/177/195 447/203/192
f 448/174/193 450/177/195 449/173/194
f 452/194/188 453/198/198 450/204/195
f 451/195/187 453/198/198 452/194/188
f 451/195/187 446/350/191 447/205/192
f 462/476/157 458/473/153 463/511/158
f 464/512/159 459/482/154 460/486/155
f 462/170/157 463/169/158 461/171/156
f 463/357/158 464/206/159 461/208/156
f 468/209/170 470/213/172 469/210/171
f 472/215/174 473/218/175 470/224/172
f 471/214/173 473/218/175 472/215/174
f 471/214/173 475/355/168 476/217/169
f 474/219/167 476/513/169 475/220/168
f 469/210/171 470/213/172 476/222/169
f 480/225/193 482/239/195 481/226/194
f 484/209/188 485/213/198 482/228/195
f 483/210/187 485/213/198 484/209/188
f 483/210/187 487/223/191 488/222/192
f 486/229/190 488/514/192 487/230/191
f 481/226/194 482/239/195 488/232/192
f 492/234/131 494/238/133 493/235/132
f 492/234/131 496/426/135 497/237/199
f 495/226/134 497/239/199 496/225/135
f 495/226/134 499/233/138 500/232/139
f 498/240/137 500/244/139 499/241/138
f 493/235/132 494/238/133 500/245/139
f 504/246/108 506/249/110 505/247/109
f 508/248/112 509/260/113 506/249/110
f 507/250/111 509/515/113 508/251/112
f 507/253/111 511/257/115 512/254/116
f 510/256/114 512/254/116 511/257/115
f 510/258/114 505/247/109 506/249/110
f 85/261/37 87/263/39 92/262/39
f 87/263/39 88/364/40 91/264/40
f 88/265/40 86/366/38 89/266/38
f 114/268/54 101/55/41 105/53/45
f 105/53/45 110/78/50 115/304/55
f 110/76/50 103/77/43 113/273/53
f 121/274/58 123/277/60 120/275/60
f 123/277/60 124/360/59 119/278/59
f 124/279/59 122/301/57 117/280/57
f 125/276/61 127/275/63 132/277/63
f 127/282/63 128/285/64 131/283/64
f 128/285/64 126/374/62 129/286/62
f 141/287/58 143/290/60 140/288/60
f 143/290/60 144/372/59 139/291/59
f 144/292/59 142/373/57 137/293/57
f 173/295/78 175/367/80 180/93/84
f 180/516/84 175/382/80 176/381/79
f 184/98/88 176/381/79 174/297/77
f 193/298/97 195/307/99 204/103/108
f 195/299/99 196/279/100 208/64/112
f 208/64/112 196/279/100 194/301/98
f 198/130/102 203/111/107 211/110/115
f 211/63/115 207/61/111 199/267/103
f 207/61/111 202/65/106 197/266/101
f 190/268/94 201/105/105 205/104/109
f 205/104/109 210/112/114 191/304/95
f 210/109/114 203/111/107 189/305/93
f 233/298/125 236/105/128 240/103/132
f 240/103/132 245/493/137 234/517/126
f 245/71/137 238/72/130 232/286/124
f 289/309/125 291/393/127 288/310/127
f 291/311/127 292/314/126 287/312/126
f 292/314/126 290/375/124 285/315/124
f 309/130/176 311/302/178 306/110/173
f 311/378/178 312/377/179 301/135/168
f 301/135/168 312/377/179 310/316/177
f 293/317/160 295/328/162 303/138/170
f 295/328/162 296/329/163 307/151/174
f 307/109/174 296/306/163 294/305/161
f 317/320/176 319/384/178 316/321/178
f 319/323/178 320/326/179 315/324/179
f 320/326/179 318/380/177 313/327/177
f 326/317/181 329/140/184 333/138/188
f 333/138/188 338/151/193 327/329/182
f 338/121/193 331/122/186 325/273/180
f 349/185/97 351/330/99 362/163/108
f 351/415/99 352/414/100 357/154/112
f 357/154/112 352/414/100 350/331/98
f 346/332/94 355/165/105 363/164/109
f 363/164/109 359/412/114 347/334/95
f 359/158/114 354/160/107 345/335/93
f 377/185/125 380/165/128 384/163/132
f 384/163/132 389/166/137 378/337/126
f 389/178/137 382/180/130 376/338/124
f 392/171/102 394/340/104 386/173/134
f 394/411/104 395/410/103 390/179/138
f 390/179/138 395/410/103 393/341/101
f 414/342/160 416/343/162 427/194/170
f 416/403/162 417/336/163 422/158/174
f 422/158/174 417/336/163 415/335/161
f 434/171/176 436/340/178 433/344/178
f 436/340/178 437/421/179 432/345/179
f 437/346/179 435/422/177 430/347/177
f 454/208/125 456/349/127 451/195/187
f 456/349/127 457/417/126 446/350/191
f 446/201/191 457/418/126 455/351/124
f 439/342/181 444/196/184 452/194/188
f 452/194/188 448/197/193 440/352/182
f 448/174/193 443/175/186 438/353/180
f 465/211/165 469/210/171 504/246/108
f 469/210/171 474/223/167 508/248/112
f 474/219/167 467/221/164 502/252/106
f 477/227/186 481/226/194 471/214/173
f 481/226/194 486/233/190 475/355/168
f 486/229/190 479/231/185 467/221/164
f 478/211/184 489/236/128 493/235/132
f 493/235/132 498/518/137 487/223/191
f 498/240/137 491/242/130 479/231/185
f 490/227/129 503/216/107 511/257/115
f 511/257/115 507/253/111 499/233/138
f 507/250/111 502/252/106 491/242/130
f 458/356/153 478/211/184 484/209/188
f 484/209/188 480/212/193 464/206/159
f 480/225/193 477/227/186 459/358/154
f 121/274/58 73/55/25 77/54/29
f 77/54/29 82/66/34 124/360/59
f 82/64/34 75/65/27 122/301/57
f 90/126/37 92/262/39 79/59/31
f 92/262/39 91/264/40 83/361/35
f 83/61/35 91/267/40 89/266/38
f 190/268/94 192/269/96 76/53/28
f 192/269/96 191/304/95 80/78/32
f 80/56/32 191/306/95 189/305/93
f 93/362/37 95/363/39 87/263/39
f 95/363/39 96/368/40 88/364/40
f 96/365/40 94/370/38 86/366/38
f 97/295/37 99/367/39 95/363/39
f 99/367/39 100/296/40 96/368/40
f 100/369/40 98/371/38 94/370/38
f 97/295/37 103/77/43 111/73/51
f 99/367/39 111/73/51 107/75/47
f 107/70/47 102/72/42 98/371/38
f 130/274/61 132/277/63 104/54/44
f 132/284/63 131/283/64 108/71/48
f 108/71/48 131/283/64 129/286/62
f 118/276/58 120/275/60 143/290/60
f 120/275/60 119/278/59 144/372/59
f 119/281/59 117/280/57 142/373/57
f 133/287/61 135/290/63 127/275/63
f 135/311/63 136/314/64 128/285/64
f 136/314/64 134/375/62 126/374/62
f 145/289/61 147/288/63 135/290/63
f 147/313/63 148/312/64 136/314/64
f 148/312/64 146/315/62 134/375/62
f 162/126/78 149/60/65 153/59/69
f 153/59/69 158/361/74 163/264/79
f 158/88/74 151/90/67 161/316/77
f 138/289/58 140/288/60 155/84/71
f 140/288/60 139/291/59 159/379/75
f 159/89/75 139/294/59 137/293/57
f 293/317/160 150/86/66 156/85/72
f 156/58/72 152/56/68 296/306/163
f 152/56/68 149/60/65 294/305/161
f 162/126/78 164/262/80 168/263/80
f 164/378/80 163/377/79 167/324/79
f 163/377/79 161/316/77 165/327/77
f 166/261/78 168/263/80 172/363/80
f 168/325/80 167/324/79 171/326/79
f 167/324/79 165/327/77 169/380/77
f 170/362/78 172/363/80 175/367/80
f 172/323/80 171/326/79 176/381/79
f 171/326/79 169/380/77 174/297/77
f 145/289/61 179/86/83 187/84/91
f 147/288/63 187/84/91 183/379/87
f 183/97/87 178/99/82 146/315/62
f 326/317/181 328/328/183 186/85/90
f 328/328/183 327/329/182 181/81/85
f 181/94/85 327/271/182 325/273/180
f 198/130/102 200/302/104 216/321/104
f 200/303/104 199/267/103 215/265/103
f 199/267/103 197/266/101 213/366/101
f 214/322/102 216/321/104 220/384/104
f 216/383/104 215/265/103 219/365/103
f 215/265/103 213/366/101 217/370/101
f 218/320/102 220/384/104 224/386/104
f 220/385/104 219/365/103 223/369/103
f 219/365/103 217/370/101 221/371/101
f 222/116/102 224/386/104 242/120/134
f 224/387/104 223/369/103 246/70/138
f 246/70/138 223/369/103 221/371/101
f 114/268/54 116/269/56 239/104/131
f 116/272/56 115/271/55 243/121/135
f 243/121/135 115/271/55 113/273/53
f 248/389/97 250/391/99 195/307/99
f 250/390/99 251/281/100 196/279/100
f 251/281/100 249/280/98 194/301/98
f 233/298/125 235/307/127 262/391/127
f 235/284/127 234/283/126 261/285/126
f 234/283/126 232/286/124 259/374/124
f 263/309/97 265/393/99 250/391/99
f 265/392/99 266/292/100 251/281/100
f 266/292/100 264/373/98 249/280/98
f 260/389/125 262/391/127 291/393/127
f 262/282/127 261/285/126 292/314/126
f 261/285/126 259/374/124 290/375/124
f 267/133/97 269/310/99 265/393/99
f 269/394/99 270/294/100 266/292/100
f 270/294/100 268/293/98 264/373/98
f 267/133/97 298/140/165 304/139/171
f 304/136/171 300/134/167 270/294/100
f 300/134/167 297/90/164 268/293/98
f 314/322/176 316/321/178 311/302/178
f 316/325/178 315/324/179 312/377/179
f 315/324/179 313/327/177 310/316/177
f 321/116/176 323/386/178 319/384/178
f 323/382/178 324/381/179 320/326/179
f 324/381/179 322/297/177 318/380/177
f 321/116/176 331/122/186 339/120/194
f 323/386/178 339/120/194 335/500/190
f 335/147/190 330/99/185 322/297/177
f 286/133/125 288/310/127 332/139/187
f 332/519/187 288/313/127 287/312/126
f 336/148/191 287/312/126 285/315/124
f 346/332/94 348/333/96 257/396/144
f 348/333/96 347/334/95 258/398/145
f 347/336/95 345/335/93 253/399/141
f 226/397/118 231/396/123 344/333/56
f 231/396/123 230/398/122 343/334/55
f 230/401/122 225/405/117 341/353/53
f 272/402/147 277/404/152 416/343/162
f 277/128/152 276/400/151 417/336/163
f 276/400/151 271/399/146 415/335/161
f 439/342/181 441/343/183 283/404/158
f 441/343/183 440/352/182 284/131/159
f 440/354/182 438/353/180 279/405/154
f 366/184/102 354/160/107 360/159/115
f 360/159/115 356/420/111 367/345/103
f 356/153/111 353/155/106 365/409/101
f 366/184/102 368/344/104 394/340/104
f 368/408/104 367/407/103 395/410/103
f 367/407/103 365/409/101 393/341/101
f 342/332/54 344/333/56 383/164/131
f 344/333/56 343/334/55 387/412/135
f 387/174/135 343/354/55 341/353/53
f 396/208/97 398/349/99 351/330/99
f 398/413/99 399/416/100 352/414/100
f 399/416/100 397/419/98 350/331/98
f 377/185/125 379/330/127 456/349/127
f 379/330/127 378/337/126 457/417/126
f 378/339/126 376/338/124 455/351/124
f 396/208/97 420/196/165 428/195/171
f 398/349/99 428/195/171 424/350/167
f 424/189/167 419/191/164 397/419/98
f 431/184/176 433/344/178 421/159/173
f 433/344/178 432/345/179 425/420/168
f 425/190/168 432/348/179 430/347/177
f 434/171/176 443/175/186 449/173/194
f 436/340/178 449/173/194 445/176/190
f 445/200/190 442/202/185 435/422/177
f 401/356/147 406/357/152 468/209/170
f 468/209/170 406/357/152 405/206/151
f 472/215/174 405/428/151 400/423/146
f 370/424/118 375/427/123 492/234/131
f 492/234/131 375/427/123 374/425/122
f 496/225/135 374/359/122 369/358/117
f 407/424/140 501/236/105 505/247/109
f 505/247/109 510/258/114 413/425/145
f 510/256/114 503/216/107 408/423/141
f 8/39/6 190/268/94 73/55/25
f 75/65/27 89/266/38 1/3/1
f 74/60/26 189/305/93 32/2/14
f 90/126/37 32/2/14 2/5/2
f 85/261/37 2/5/2 4/7/2
f 3/39/3 10/9/4 86/127/38
f 86/127/38 88/520/40 87/521/39
f 87/521/39 85/126/37 86/127/38
f 85/126/37 2/2/2 3/39/3
f 89/266/38 86/366/38 10/1/4
f 86/366/38 94/370/38 9/4/4
f 37/39/11 1/9/1 89/127/38
f 89/127/38 91/520/40 92/521/39
f 92/521/39 90/126/37 89/127/38
f 90/126/37 32/2/14 37/39/11
f 93/362/37 4/7/2 35/41/14
f 34/39/16 9/9/4 94/127/38
f 94/127/38 96/520/40 95/521/39
f 95/521/39 93/126/37 94/127/38
f 93/126/37 4/2/2 34/39/16
f 94/370/38 98/371/38 5/6/4
f 97/295/37 35/41/14 113/273/53
f 13/39/8 5/9/4 98/127/38
f 98/127/38 100/520/40 99/521/39
f 99/521/39 97/126/37 98/127/38
f 97/126/37 35/2/14 13/39/8
f 98/371/38 102/72/42 129/286/62
f 101/55/41 114/268/54 6/39/5
f 114/268/54 236/105/128 233/298/125
f 35/41/14 222/116/102 237/122/129
f 35/41/14 13/6/8 113/273/53
f 13/6/8 6/487/5 114/522/54
f 113/273/53 13/6/8 114/522/54
f 114/522/54 116/429/56 113/273/53
f 117/280/57 7/8/1 24/17/1
f 36/39/10 118/274/58 38/2/17
f 118/274/58 120/523/60 117/301/57
f 38/2/17 118/274/58 117/301/57
f 120/523/60 119/524/59 117/301/57
f 122/301/57 1/3/1 7/8/1
f 36/11/10 8/39/6 121/274/58
f 22/19/10 36/11/10 118/276/58
f 8/39/6 121/274/58 37/2/11
f 121/274/58 123/523/60 122/301/57
f 37/2/11 121/274/58 122/301/57
f 123/523/60 124/524/59 122/301/57
f 130/274/61 6/39/5 14/11/9
f 125/276/61 14/11/9 21/19/9
f 39/41/17 11/6/4 126/286/62
f 126/286/62 128/525/64 127/526/63
f 127/526/63 125/431/61 126/286/62
f 125/431/61 14/527/9 39/41/17
f 5/6/4 129/286/62 126/374/62
f 11/15/4 126/374/62 134/375/62
f 13/41/8 5/6/4 129/286/62
f 129/286/62 131/525/64 132/526/63
f 132/526/63 130/431/61 129/286/62
f 130/431/61 6/527/5 13/41/8
f 20/23/4 134/375/62 146/315/62
f 133/287/61 21/19/9 48/27/5
f 26/41/11 20/6/4 134/286/62
f 134/286/62 136/525/64 135/526/63
f 135/526/63 133/431/61 134/286/62
f 133/431/61 21/527/9 26/41/11
f 51/27/6 22/19/10 141/287/58
f 293/317/160 51/27/6 138/289/58
f 142/373/57 24/17/1 23/25/4
f 137/293/57 23/25/4 161/316/77
f 51/39/6 138/274/58 25/2/8
f 138/274/58 140/523/60 137/301/57
f 25/2/8 138/274/58 137/301/57
f 140/523/60 139/524/59 137/301/57
f 22/39/10 141/274/58 42/2/11
f 141/274/58 143/523/60 142/301/57
f 42/2/11 141/274/58 142/301/57
f 143/523/60 144/524/59 142/301/57
f 29/31/13 146/315/62 178/99/82
f 145/289/61 48/27/5 326/317/181
f 47/41/3 29/6/13 146/286/62
f 146/286/62 148/525/64 147/526/63
f 147/526/63 145/431/61 146/286/62
f 145/431/61 48/527/5 47/41/3
f 162/126/78 50/2/20 294/305/161
f 166/261/78 27/5/12 50/2/20
f 23/25/4 28/29/13 165/327/77
f 50/528/20 162/529/78 25/27/8
f 162/529/78 164/530/80 161/432/77
f 25/27/8 162/529/78 161/432/77
f 164/530/80 163/531/79 161/432/77
f 28/29/13 30/30/13 169/380/77
f 27/528/12 166/529/78 41/27/3
f 166/529/78 168/530/80 165/432/77
f 41/27/3 166/529/78 165/432/77
f 168/530/80 167/531/79 165/432/77
f 170/362/78 53/7/12 27/5/12
f 30/30/13 29/31/13 174/297/77
f 53/528/12 170/529/78 45/27/16
f 170/529/78 172/530/80 169/432/77
f 45/27/16 170/529/78 169/432/77
f 172/530/80 171/531/79 169/432/77
f 173/295/78 31/41/12 53/7/12
f 177/77/81 325/273/180 31/41/12
f 31/528/12 173/529/78 47/27/3
f 173/529/78 175/530/80 174/432/77
f 47/27/3 173/529/78 174/432/77
f 175/530/80 176/531/79 174/432/77
f 193/298/97 201/105/105 190/268/94
f 190/433/94 8/9/6 37/3/11
f 37/3/11 32/2/14 189/305/93
f 189/305/93 191/532/95 192/533/96
f 192/533/96 190/433/94 189/305/93
f 189/305/93 203/111/107 198/130/102
f 202/65/106 194/301/98 256/127/143
f 256/127/143 255/126/120 202/65/106
f 248/389/97 193/298/97 8/39/6
f 193/298/97 8/39/6 254/130/142
f 8/39/6 37/2/11 254/130/142
f 196/449/100 195/450/99 193/298/97
f 256/129/143 194/436/98 193/298/97
f 194/436/98 196/449/100 193/298/97
f 194/301/98 249/280/98 256/127/143
f 249/280/98 60/8/19 252/434/140
f 32/2/14 198/130/102 214/322/102
f 255/436/120 254/298/142 253/46/141
f 253/435/141 55/1/15 213/366/101
f 213/366/101 197/266/101 255/126/120
f 254/298/142 37/39/11 32/2/14
f 32/2/14 198/130/102 254/298/142
f 198/130/102 200/437/104 197/129/101
f 254/298/142 198/130/102 197/129/101
f 200/437/104 199/438/103 197/129/101
f 33/4/15 217/370/101 213/366/101
f 55/46/15 3/39/3 213/129/101
f 3/39/3 2/2/2 214/130/102
f 213/129/101 3/39/3 214/130/102
f 214/130/102 216/437/104 213/129/101
f 2/5/2 214/322/102 218/320/102
f 217/370/101 33/4/15 225/439/117
f 225/439/117 229/6/121 228/295/120
f 228/295/120 221/371/101 217/370/101
f 33/46/15 34/39/16 217/129/101
f 34/39/16 4/2/2 218/130/102
f 217/129/101 34/39/16 218/130/102
f 218/130/102 220/437/104 217/129/101
f 4/7/2 218/320/102 222/116/102
f 221/371/101 228/295/120 238/72/130
f 228/295/120 227/440/119 238/72/130
f 229/298/121 13/39/8 35/2/14
f 35/2/14 222/130/102 229/298/121
f 222/130/102 224/437/104 221/129/101
f 229/298/121 222/130/102 221/129/101
f 224/437/104 223/438/103 221/129/101
f 226/441/118 40/15/18 259/374/124
f 259/374/124 232/286/124 227/440/119
f 40/40/18 39/11/17 226/397/118
f 39/11/17 13/39/8 229/298/121
f 39/11/17 229/298/121 226/397/118
f 226/397/118 342/332/54 70/47/5
f 33/42/15 65/49/14 341/353/53
f 33/42/15 34/7/16 225/405/117
f 34/7/16 13/41/8 229/116/121
f 33/4/15 61/14/8 225/439/117
f 61/14/8 40/15/18 226/441/118
f 225/439/117 61/14/8 226/441/118
f 226/441/118 231/442/123 225/439/117
f 229/116/121 13/41/8 6/527/5
f 6/527/5 233/445/125 229/116/121
f 233/445/125 235/446/127 232/444/124
f 229/116/121 233/445/125 227/115/119
f 235/446/127 234/447/126 232/444/124
f 6/39/5 233/298/125 260/389/125
f 263/309/97 248/389/97 36/11/10
f 248/298/97 36/39/10 38/2/17
f 38/2/17 60/38/19 249/436/98
f 249/436/98 251/449/100 250/450/99
f 250/450/99 248/298/97 249/436/98
f 43/17/19 60/8/19 249/280/98
f 60/40/19 38/11/17 252/397/140
f 38/11/17 37/39/11 254/298/142
f 38/11/17 254/298/142 252/397/140
f 252/434/140 60/8/19 54/13/22
f 54/13/22 55/1/15 253/435/141
f 253/435/141 258/534/145 257/494/144
f 257/494/144 252/434/140 253/435/141
f 56/47/23 346/332/94 252/397/140
f 253/399/141 345/335/93 58/48/14
f 254/130/142 37/2/11 3/5/3
f 3/5/3 55/37/15 253/399/141
f 290/375/124 259/374/124 40/15/18
f 40/50/18 39/41/17 259/444/124
f 39/41/17 14/527/9 260/445/125
f 259/444/124 39/41/17 260/445/125
f 260/445/125 262/446/127 259/444/124
f 14/11/9 260/389/125 289/309/125
f 267/133/97 263/309/97 22/19/10
f 263/298/97 22/39/10 42/2/11
f 42/2/11 43/38/19 264/436/98
f 264/436/98 266/449/100 265/450/99
f 265/450/99 263/298/97 264/436/98
f 264/373/98 268/293/98 273/452/148
f 273/452/148 272/448/147 264/373/98
f 298/140/165 267/133/97 51/27/6
f 267/298/97 51/39/6 25/2/8
f 25/2/8 274/130/149 267/298/97
f 274/130/149 273/129/148 267/298/97
f 273/129/148 268/436/98 267/298/97
f 268/436/98 270/449/100 267/298/97
f 268/293/98 297/90/164 273/452/148
f 297/90/164 310/316/177 275/451/150
f 275/451/150 274/25/149 273/452/148
f 414/342/160 66/51/23 43/43/19
f 274/133/149 25/27/8 42/19/11
f 42/19/11 43/43/19 272/402/147
f 272/448/147 273/452/148 274/25/149
f 274/130/149 25/2/8 41/5/3
f 41/5/3 52/37/21 271/399/146
f 271/44/146 275/132/150 274/133/149
f 52/37/21 71/48/24 415/335/161
f 43/17/19 272/448/147 59/21/8
f 272/448/147 277/496/152 271/453/146
f 59/21/8 272/448/147 271/453/146
f 277/496/152 276/495/151 271/453/146
f 275/451/150 310/316/177 313/327/177
f 313/327/177 52/29/21 271/453/146
f 309/456/176 50/528/20 25/27/8
f 25/27/8 274/133/149 309/456/176
f 274/133/149 275/132/150 309/456/176
f 275/132/150 310/462/177 309/456/176
f 310/462/177 312/454/179 309/456/176
f 279/405/154 438/353/180 72/49/20
f 62/42/21 45/7/16 279/405/154
f 45/7/16 47/41/3 281/116/156
f 281/31/156 280/457/155 279/458/154
f 62/30/21 318/380/177 279/458/154
f 318/380/177 322/297/177 279/458/154
f 49/43/18 69/51/5 439/342/181
f 63/22/22 62/30/21 279/458/154
f 279/458/154 284/498/159 283/497/158
f 283/497/158 278/459/153 279/458/154
f 278/459/153 49/23/18 63/22/22
f 281/133/156 47/27/3 26/19/11
f 26/19/11 49/43/18 278/402/153
f 278/459/153 282/460/157 281/31/156
f 281/116/156 47/41/3 48/527/5
f 48/527/5 286/445/125 281/116/156
f 286/445/125 288/446/127 285/444/124
f 281/116/156 286/445/125 285/444/124
f 288/446/127 287/447/126 285/444/124
f 49/23/18 278/459/153 290/375/124
f 278/459/153 282/460/157 290/375/124
f 280/457/155 322/297/177 330/99/185
f 330/99/185 285/315/124 282/460/157
f 282/460/157 281/31/156 280/457/155
f 321/456/176 31/528/12 47/27/3
f 47/27/3 281/133/156 321/456/176
f 281/133/156 280/132/155 321/456/176
f 280/132/155 322/462/177 321/456/176
f 322/462/177 324/454/179 321/456/176
f 21/19/9 289/309/125 286/133/125
f 48/27/5 286/133/125 329/140/184
f 49/50/18 26/41/11 290/444/124
f 26/41/11 21/527/9 289/445/125
f 290/444/124 26/41/11 289/445/125
f 289/445/125 291/446/127 290/444/124
f 50/2/20 309/130/176 299/111/166
f 51/26/6 293/535/160 25/25/8
f 293/535/160 295/536/162 294/461/161
f 25/25/8 293/535/160 294/461/161
f 295/536/162 296/537/163 294/461/161
f 27/5/12 314/322/176 309/130/176
f 318/380/177 62/30/21 52/29/21
f 53/7/12 317/320/176 314/322/176
f 314/456/176 27/528/12 41/27/3
f 41/27/3 52/44/21 313/462/177
f 313/462/177 315/454/179 316/455/178
f 316/455/178 314/456/176 313/462/177
f 31/41/12 321/116/176 317/320/176
f 317/456/176 53/528/12 45/27/16
f 45/27/16 62/44/21 318/462/177
f 318/462/177 320/454/179 319/455/178
f 319/455/178 317/456/176 318/462/177
f 325/273/180 331/122/186 321/116/176
f 47/31/3 31/36/12 325/463/180
f 325/463/180 327/538/182 328/539/183
f 328/539/183 326/464/181 325/463/180
f 326/464/181 48/32/5 47/31/3
f 342/332/54 380/165/128 377/185/125
f 65/49/14 392/171/102 381/175/129
f 65/4/14 57/14/8 341/439/53
f 57/14/8 70/15/5 342/441/54
f 341/439/53 57/14/8 342/441/54
f 342/441/54 344/442/56 341/439/53
f 349/185/97 355/165/105 346/332/94
f 346/434/94 56/8/23 64/13/3
f 64/13/3 58/1/14 345/435/93
f 345/435/93 347/534/95 348/494/96
f 348/494/96 346/434/94 345/435/93
f 345/335/93 354/160/107 366/184/102
f 353/155/106 350/331/98 411/468/143
f 411/468/143 410/465/120 353/155/106
f 396/208/97 349/185/97 56/47/23
f 349/466/97 56/45/23 409/184/197
f 56/45/23 64/48/3 409/184/197
f 352/480/100 351/481/99 349/466/97
f 411/183/143 350/540/98 349/466/97
f 350/540/98 352/480/100 349/466/97
f 350/331/98 397/419/98 402/479/148
f 402/479/148 401/508/147 350/331/98
f 401/508/147 407/467/140 350/331/98
f 410/186/120 409/185/197 408/187/141
f 369/358/117 373/171/121 372/502/120
f 410/465/120 408/541/141 365/409/101
f 408/541/141 369/469/117 393/341/101
f 393/341/101 365/409/101 408/541/141
f 409/185/197 64/47/3 58/488/14
f 58/488/14 366/542/102 409/185/197
f 366/542/102 368/543/104 365/471/101
f 409/185/197 366/542/102 365/471/101
f 368/543/104 367/544/103 365/471/101
f 58/48/14 366/184/102 392/171/102
f 393/341/101 372/470/120 382/180/130
f 372/470/120 371/472/119 382/180/130
f 408/423/141 503/216/107 490/227/129
f 409/184/197 64/48/3 57/49/8
f 57/49/8 373/171/121 409/184/197
f 373/171/121 369/358/117 409/184/197
f 407/467/140 401/508/147 400/505/146
f 401/508/147 406/507/152 400/505/146
f 406/507/152 405/506/151 400/505/146
f 400/505/146 459/482/154 458/473/153
f 459/482/154 464/512/159 458/473/153
f 464/512/159 463/511/158 458/473/153
f 458/473/153 370/477/118 369/469/117
f 370/477/118 375/501/123 369/469/117
f 375/501/123 374/545/122 369/469/117
f 369/469/117 408/541/141 407/467/140
f 408/541/141 413/546/145 407/467/140
f 413/546/145 412/509/144 407/467/140
f 407/467/140 400/505/146 458/473/153
f 373/185/121 57/47/8 65/488/14
f 65/488/14 392/542/102 373/185/121
f 392/542/102 394/543/104 393/471/101
f 373/185/121 392/542/102 393/471/101
f 394/543/104 395/544/103 393/471/101
f 373/171/121 57/49/8 70/489/5
f 70/489/5 377/475/125 373/171/121
f 377/475/125 379/547/127 376/474/124
f 373/171/121 377/475/125 371/170/119
f 379/547/127 378/548/126 376/474/124
f 461/208/156 68/51/22 57/47/8
f 461/208/156 57/47/8 373/185/121
f 458/356/153 462/549/157 461/208/156
f 373/171/121 371/170/119 370/502/118
f 370/424/118 458/356/153 373/185/121
f 370/477/118 458/473/153 462/476/157
f 462/476/157 455/351/124 376/338/124
f 376/338/124 371/472/119 370/477/118
f 370/424/118 489/236/128 478/211/184
f 70/47/5 377/185/125 454/208/125
f 397/419/98 419/191/164 402/479/148
f 419/191/164 430/347/177 404/478/150
f 404/207/150 403/208/149 402/549/148
f 420/196/165 396/208/97 66/51/23
f 396/466/97 66/45/23 67/48/8
f 67/48/8 403/184/149 396/466/97
f 403/184/149 402/183/148 396/466/97
f 402/183/148 397/540/98 396/466/97
f 397/540/98 399/480/100 396/466/97
f 403/208/149 67/51/8 64/47/3
f 403/208/149 64/47/3 409/185/197
f 401/356/147 402/549/148 403/208/149
f 412/427/144 407/424/140 409/185/197
f 407/424/140 401/356/147 409/185/197
f 403/184/149 67/48/8 68/49/22
f 461/208/156 460/207/155 459/549/154
f 403/184/149 68/49/22 461/171/156
f 400/549/146 404/207/150 403/208/149
f 461/171/156 459/358/154 400/423/146
f 459/358/154 477/227/186 466/216/166
f 404/478/150 430/347/177 435/422/177
f 435/422/177 460/486/155 459/482/154
f 459/482/154 400/505/146 404/478/150
f 431/485/176 71/52/24 67/51/8
f 67/51/8 403/208/149 431/485/176
f 403/208/149 404/207/150 431/485/176
f 404/207/150 430/550/177 431/485/176
f 430/550/177 432/483/179 431/485/176
f 465/211/165 501/236/105 407/424/140
f 71/48/24 431/184/176 418/160/166
f 66/17/23 414/448/160 67/21/8
f 414/448/160 416/496/162 415/453/161
f 67/21/8 414/448/160 415/453/161
f 416/496/162 417/495/163 415/453/161
f 72/49/20 434/171/176 431/184/176
f 438/353/180 443/175/186 434/171/176
f 434/485/176 72/52/20 68/51/22
f 68/51/22 461/208/156 434/485/176
f 461/208/156 460/207/155 434/485/176
f 460/207/155 435/550/177 434/485/176
f 435/550/177 437/483/179 434/485/176
f 460/486/155 435/422/177 442/202/185
f 442/202/185 455/351/124 462/476/157
f 462/549/157 461/208/156 460/207/155
f 69/51/5 454/208/125 444/196/184
f 68/22/22 72/30/20 438/458/180
f 438/458/180 440/498/182 441/497/183
f 441/497/183 439/459/181 438/458/180
f 439/459/181 69/23/5 68/22/22
f 461/171/156 68/49/22 69/489/5
f 69/489/5 454/475/125 461/171/156
f 454/475/125 456/547/127 455/474/124
f 461/171/156 454/475/125 455/474/124
f 456/547/127 457/548/126 455/474/124
f 479/231/185 491/242/130 502/252/106
