# Blender 4.5.3 LTS
# www.blender.org
mtllib __clay_block_02_17.mtl
o clay_block_17
v 0.150000 0.150000 0.000000
v 0.000000 0.150000 -0.150000
v 0.150000 0.000000 -0.150000
v 0.075098 0.150000 -0.020039
v 0.150000 0.075098 -0.020039
v 0.078268 0.078268 -0.039505
v 0.020039 0.075098 -0.150000
v 0.020039 0.150000 -0.075098
v 0.039505 0.078268 -0.078268
v 0.150000 0.020039 -0.075098
v 0.075098 0.020039 -0.150000
v 0.078268 0.039505 -0.078268
v 0.850000 0.150000 0.000000
v 0.850000 0.000000 -0.150000
v 1.000000 0.150000 -0.150000
v 0.850000 0.075098 -0.020039
v 0.924902 0.150000 -0.020039
v 0.921732 0.078268 -0.039505
v 0.924902 0.020039 -0.150000
v 0.850000 0.020039 -0.075098
v 0.921732 0.039505 -0.078268
v 0.979961 0.150000 -0.075098
v 0.979961 0.075098 -0.150000
v 0.960495 0.078268 -0.078268
v 0.850000 0.150000 -1.000000
v 1.000000 0.150000 -0.850000
v 0.850000 0.000000 -0.850000
v 0.924902 0.150000 -0.979961
v 0.850000 0.075098 -0.979961
v 0.921732 0.078268 -0.960495
v 0.979961 0.075098 -0.850000
v 0.979961 0.150000 -0.924902
v 0.960495 0.078268 -0.921732
v 0.850000 0.020039 -0.924902
v 0.924902 0.020039 -0.850000
v 0.921732 0.039505 -0.921732
v 0.000000 0.150000 -0.850000
v 0.150000 0.150000 -1.000000
v 0.150000 0.000000 -0.850000
v 0.020039 0.150000 -0.924902
v 0.020039 0.075098 -0.850000
v 0.039505 0.078268 -0.921732
v 0.150000 0.075098 -0.979961
v 0.075098 0.150000 -0.979961
v 0.078268 0.078268 -0.960495
v 0.075098 0.020039 -0.850000
v 0.150000 0.020039 -0.924902
v 0.078268 0.039505 -0.921732
v 0.000000 0.850000 -0.150000
v 0.150000 0.850000 0.000000
v 0.150000 1.000000 -0.150000
v 0.020039 0.850000 -0.075098
v 0.020039 0.924902 -0.150000
v 0.039505 0.921732 -0.078268
v 0.150000 0.924902 -0.020039
v 0.075098 0.850000 -0.020039
v 0.078268 0.921732 -0.039505
v 0.075098 0.979961 -0.150000
v 0.150000 0.979961 -0.075098
v 0.078268 0.960495 -0.078268
v 0.850000 0.850000 0.000000
v 1.000000 0.850000 -0.150000
v 0.850000 1.000000 -0.150000
v 0.924902 0.850000 -0.020039
v 0.850000 0.924902 -0.020039
v 0.921732 0.921732 -0.039505
v 0.979961 0.924902 -0.150000
v 0.979961 0.850000 -0.075098
v 0.960495 0.921732 -0.078268
v 0.850000 0.979961 -0.075098
v 0.924902 0.979961 -0.150000
v 0.921732 0.960495 -0.078268
v 1.000000 0.850000 -0.850000
v 0.850000 0.850000 -1.000000
v 0.850000 1.000000 -0.850000
v 0.979961 0.850000 -0.924902
v 0.979961 0.924902 -0.850000
v 0.960495 0.921732 -0.921732
v 0.850000 0.924902 -0.979961
v 0.924902 0.850000 -0.979961
v 0.921732 0.921732 -0.960495
v 0.924902 0.979961 -0.850000
v 0.850000 0.979961 -0.924902
v 0.921732 0.960495 -0.921732
v 0.000000 0.850000 -0.850000
v 0.150000 1.000000 -0.850000
v 0.150000 0.850000 -1.000000
v 0.020039 0.924902 -0.850000
v 0.020039 0.850000 -0.924902
v 0.039505 0.921732 -0.921732
v 0.150000 0.979961 -0.924902
v 0.075098 0.979961 -0.850000
v 0.078268 0.960495 -0.921732
v 0.075098 0.850000 -0.979961
v 0.150000 0.924902 -0.979961
v 0.078268 0.921732 -0.960495
vn -0.1280 -0.1280 0.9835
vn -0.9835 -0.1280 0.1280
vn -0.1280 -0.9835 0.1280
vn -0.4916 -0.1216 0.8623
vn -0.1216 -0.4916 0.8623
vn -0.4488 -0.4488 0.7727
vn -0.8623 -0.4916 0.1216
vn -0.8623 -0.1216 0.4916
vn -0.7727 -0.4488 0.4488
vn -0.1216 -0.8623 0.4916
vn -0.4916 -0.8623 0.1216
vn -0.4488 -0.7727 0.4488
vn 0.1280 -0.1280 0.9835
vn 0.1280 -0.9835 0.1280
vn 0.9835 -0.1280 0.1280
vn 0.1216 -0.4916 0.8623
vn 0.4916 -0.1216 0.8623
vn 0.4488 -0.4488 0.7727
vn 0.4916 -0.8623 0.1216
vn 0.1216 -0.8623 0.4916
vn 0.4488 -0.7727 0.4488
vn 0.8623 -0.1216 0.4916
vn 0.8623 -0.4916 0.1216
vn 0.7727 -0.4488 0.4488
vn 0.1280 -0.1280 -0.9835
vn 0.9835 -0.1280 -0.1280
vn 0.1280 -0.9835 -0.1280
vn 0.4916 -0.1216 -0.8623
vn 0.1216 -0.4916 -0.8623
vn 0.4488 -0.4488 -0.7727
vn 0.8623 -0.4916 -0.1216
vn 0.8623 -0.1216 -0.4916
vn 0.7727 -0.4488 -0.4488
vn 0.1216 -0.8623 -0.4916
vn 0.4916 -0.8623 -0.1216
vn 0.4488 -0.7727 -0.4488
vn -0.9835 -0.1280 -0.1280
vn -0.1280 -0.1280 -0.9835
vn -0.1280 -0.9835 -0.1280
vn -0.8623 -0.1216 -0.4916
vn -0.8623 -0.4916 -0.1216
vn -0.7727 -0.4488 -0.4488
vn -0.1216 -0.4916 -0.8623
vn -0.4916 -0.1216 -0.8623
vn -0.4488 -0.4488 -0.7727
vn -0.4916 -0.8623 -0.1216
vn -0.1216 -0.8623 -0.4916
vn -0.4488 -0.7727 -0.4488
vn -0.9835 0.1280 0.1280
vn -0.1280 0.1280 0.9835
vn -0.1280 0.9835 0.1280
vn -0.8623 0.1216 0.4916
vn -0.8623 0.4916 0.1216
vn -0.7727 0.4488 0.4488
vn -0.1216 0.4916 0.8623
vn -0.4916 0.1216 0.8623
vn -0.4488 0.4488 0.7727
vn -0.4916 0.8623 0.1216
vn -0.1216 0.8623 0.4916
vn -0.4488 0.7727 0.4488
vn 0.1280 0.1280 0.9835
vn 0.9835 0.1280 0.1280
vn 0.1280 0.9835 0.1280
vn 0.4916 0.1216 0.8623
vn 0.1216 0.4916 0.8623
vn 0.4488 0.4488 0.7727
vn 0.8623 0.4916 0.1216
vn 0.8623 0.1216 0.4916
vn 0.7727 0.4488 0.4488
vn 0.1216 0.8623 0.4916
vn 0.4916 0.8623 0.1216
vn 0.4488 0.7727 0.4488
vn 0.9835 0.1280 -0.1280
vn 0.1280 0.1280 -0.9835
vn 0.1280 0.9835 -0.1280
vn 0.8623 0.1216 -0.4916
vn 0.8623 0.4916 -0.1216
vn 0.7727 0.4488 -0.4488
vn 0.1216 0.4916 -0.8623
vn 0.4916 0.1216 -0.8623
vn 0.4488 0.4488 -0.7727
vn 0.4916 0.8623 -0.1216
vn 0.1216 0.8623 -0.4916
vn 0.4488 0.7727 -0.4488
vn -0.9835 0.1280 -0.1280
vn -0.1280 0.9835 -0.1280
vn -0.1280 0.1280 -0.9835
vn -0.8623 0.4916 -0.1216
vn -0.8623 0.1216 -0.4916
vn -0.7727 0.4488 -0.4488
vn -0.1216 0.8623 -0.4916
vn -0.4916 0.8623 -0.1216
vn -0.4488 0.7727 -0.4488
vn -0.4916 0.1216 -0.8623
vn -0.1216 0.4916 -0.8623
vn -0.4488 0.4488 -0.7727
vt 0.075098 0.150000
vt 0.150000 0.075098
vt 0.150000 0.150000
vt 0.039505 0.078268
vt 0.020039 0.150000
vt 0.078268 0.039505
vt 0.150000 0.020039
vt 0.078268 0.078268
vt 0.850000 0.075098
vt 0.924902 0.150000
vt 0.850000 0.150000
vt 0.850000 0.020039
vt 0.921732 0.078268
vt 0.960495 0.078268
vt 0.979961 0.150000
vt 0.921732 0.039505
vt 0.850000 0.924902
vt 0.924902 0.850000
vt 0.850000 0.850000
vt 0.075098 0.850000
vt 0.150000 0.924902
vt 0.150000 0.850000
vt 0.020039 0.850000
vt 0.078268 0.921732
vt 0.039505 0.921732
vt 0.150000 0.979961
vt 0.078268 0.960495
vt 0.979961 0.850000
vt 0.921732 0.921732
vt 0.850000 0.979961
vt 0.921732 0.960495
vt 0.960495 0.921732
s 1
usemtl ClayMat_17
f 4/1/4 5/2/5 1/3/1
f 8/1/8 6/4/6 4/5/4
f 7/2/7 8/1/8 2/3/2
f 11/1/11 9/4/9 7/5/7
f 10/2/10 11/1/11 3/3/3
f 5/2/5 12/6/12 10/7/10
f 6/4/6 9/8/9 12/6/12
f 16/9/16 17/10/17 13/11/13
f 20/12/20 18/13/18 16/9/16
f 19/10/19 20/9/20 14/11/14
f 23/2/23 21/6/21 19/7/19
f 22/1/22 23/2/23 15/3/15
f 22/1/22 18/4/18 24/8/24
f 18/4/18 21/6/21 24/8/24
f 28/10/28 29/9/29 25/11/25
f 32/10/32 30/14/30 28/15/28
f 31/9/31 32/10/32 26/11/26
f 31/9/31 36/16/36 33/13/33
f 34/17/34 35/18/35 27/19/27
f 29/9/29 36/16/36 34/12/34
f 30/14/30 33/13/33 36/16/36
f 40/10/40 41/9/41 37/11/37
f 44/1/44 42/4/42 40/5/40
f 43/2/43 44/1/44 38/3/38
f 47/7/47 45/8/45 43/2/43
f 46/20/46 47/21/47 39/22/39
f 41/9/41 48/16/48 46/12/46
f 42/4/42 45/8/45 48/6/48
f 52/20/52 53/21/53 49/22/49
f 56/23/56 54/24/54 52/20/52
f 55/21/55 56/20/56 50/22/50
f 59/2/59 57/6/57 55/7/55
f 58/1/58 59/2/59 51/3/51
f 58/1/58 54/4/54 60/8/60
f 54/4/54 57/6/57 60/8/60
f 64/18/64 65/17/65 61/19/61
f 68/20/68 66/25/66 64/23/64
f 67/21/67 68/20/68 62/22/62
f 71/26/71 69/24/69 67/21/67
f 70/9/70 71/10/71 63/11/63
f 70/9/70 66/16/66 72/13/72
f 66/25/66 69/24/69 72/27/72
f 76/18/76 77/17/77 73/19/73
f 80/28/80 78/29/78 76/18/76
f 79/17/79 80/18/80 74/19/74
f 83/30/83 81/29/81 79/17/79
f 82/18/82 83/17/83 75/19/75
f 82/30/82 78/29/78 84/31/84
f 78/29/78 81/32/81 84/31/84
f 88/17/88 89/18/89 85/19/85
f 92/20/92 90/25/90 88/23/88
f 91/21/91 92/20/92 86/22/86
f 91/26/91 96/24/96 93/27/93
f 94/20/94 95/21/95 87/22/87
f 94/20/94 90/25/90 96/24/96
f 90/25/90 93/27/93 96/24/96
f 1/3/1 16/9/16 13/11/13
f 5/2/5 20/12/20 16/9/16
f 10/2/10 14/11/14 20/9/20
f 37/11/37 7/2/7 2/3/2
f 41/9/41 11/7/11 7/2/7
f 46/20/46 3/3/3 11/1/11
f 25/11/25 43/2/43 38/3/38
f 29/9/29 47/7/47 43/2/43
f 34/17/34 39/22/39 47/21/47
f 15/3/15 31/9/31 26/11/26
f 23/2/23 35/12/35 31/9/31
f 19/10/19 27/19/27 35/18/35
f 49/22/49 88/17/88 85/19/85
f 53/5/53 92/20/92 88/23/88
f 58/1/58 86/22/86 92/20/92
f 61/19/61 55/21/55 50/22/50
f 65/12/65 59/2/59 55/7/55
f 70/9/70 51/3/51 59/2/59
f 73/19/73 67/21/67 62/22/62
f 77/17/77 71/26/71 67/21/67
f 82/18/82 63/11/63 71/10/71
f 87/22/87 79/17/79 74/19/74
f 95/21/95 83/30/83 79/17/79
f 91/21/91 75/19/75 83/17/83
f 2/3/2 52/20/52 49/22/49
f 8/1/8 56/23/56 52/20/52
f 4/1/4 50/22/50 56/20/56
f 62/22/62 22/1/22 15/3/15
f 68/20/68 17/5/17 22/1/22
f 64/18/64 13/11/13 17/10/17
f 26/11/26 76/18/76 73/19/73
f 32/10/32 80/28/80 76/18/76
f 28/10/28 74/19/74 80/18/80
f 85/19/85 40/10/40 37/11/37
f 89/23/89 44/1/44 40/5/40
f 94/20/94 38/3/38 44/1/44
f 13/11/13 50/22/50 1/3/1
f 39/22/39 14/11/14 3/3/3
f 49/22/49 37/11/37 2/3/2
f 26/11/26 62/22/62 15/3/15
f 38/3/38 74/19/74 25/11/25
f 63/11/63 86/22/86 51/3/51
f 4/1/4 6/8/6 5/2/5
f 8/1/8 9/8/9 6/4/6
f 7/2/7 9/8/9 8/1/8
f 11/7/11 12/6/12 9/8/9
f 10/2/10 12/8/12 11/1/11
f 5/2/5 6/8/6 12/6/12
f 16/9/16 18/13/18 17/10/17
f 20/12/20 21/16/21 18/13/18
f 19/10/19 21/13/21 20/9/20
f 23/2/23 24/8/24 21/6/21
f 22/1/22 24/8/24 23/2/23
f 22/1/22 17/5/17 18/4/18
f 28/10/28 30/13/30 29/9/29
f 32/10/32 33/13/33 30/14/30
f 31/9/31 33/13/33 32/10/32
f 31/9/31 35/12/35 36/16/36
f 34/17/34 36/29/36 35/18/35
f 29/9/29 30/13/30 36/16/36
f 40/10/40 42/13/42 41/9/41
f 44/1/44 45/8/45 42/4/42
f 43/2/43 45/8/45 44/1/44
f 47/7/47 48/6/48 45/8/45
f 46/20/46 48/24/48 47/21/47
f 41/9/41 42/13/42 48/16/48
f 52/20/52 54/24/54 53/21/53
f 56/23/56 57/25/57 54/24/54
f 55/21/55 57/24/57 56/20/56
f 59/2/59 60/8/60 57/6/57
f 58/1/58 60/8/60 59/2/59
f 58/1/58 53/5/53 54/4/54
f 64/18/64 66/29/66 65/17/65
f 68/20/68 69/24/69 66/25/66
f 67/21/67 69/24/69 68/20/68
f 71/26/71 72/27/72 69/24/69
f 70/9/70 72/13/72 71/10/71
f 70/9/70 65/12/65 66/16/66
f 76/18/76 78/29/78 77/17/77
f 80/28/80 81/32/81 78/29/78
f 79/17/79 81/29/81 80/18/80
f 83/30/83 84/31/84 81/29/81
f 82/18/82 84/29/84 83/17/83
f 82/30/82 77/17/77 78/29/78
f 88/17/88 90/29/90 89/18/89
f 92/20/92 93/24/93 90/25/90
f 91/21/91 93/24/93 92/20/92
f 91/26/91 95/21/95 96/24/96
f 94/20/94 96/24/96 95/21/95
f 94/20/94 89/23/89 90/25/90
f 1/3/1 5/2/5 16/9/16
f 5/2/5 10/7/10 20/12/20
f 10/2/10 3/3/3 14/11/14
f 37/11/37 41/9/41 7/2/7
f 41/9/41 46/12/46 11/7/11
f 46/20/46 39/22/39 3/3/3
f 25/11/25 29/9/29 43/2/43
f 29/9/29 34/12/34 47/7/47
f 34/17/34 27/19/27 39/22/39
f 15/3/15 23/2/23 31/9/31
f 23/2/23 19/7/19 35/12/35
f 19/10/19 14/11/14 27/19/27
f 49/22/49 53/21/53 88/17/88
f 53/5/53 58/1/58 92/20/92
f 58/1/58 51/3/51 86/22/86
f 61/19/61 65/17/65 55/21/55
f 65/12/65 70/9/70 59/2/59
f 70/9/70 63/11/63 51/3/51
f 73/19/73 77/17/77 67/21/67
f 77/17/77 82/30/82 71/26/71
f 82/18/82 75/19/75 63/11/63
f 87/22/87 95/21/95 79/17/79
f 95/21/95 91/26/91 83/30/83
f 91/21/91 86/22/86 75/19/75
f 2/3/2 8/1/8 52/20/52
f 8/1/8 4/5/4 56/23/56
f 4/1/4 1/3/1 50/22/50
f 62/22/62 68/20/68 22/1/22
f 68/20/68 64/23/64 17/5/17
f 64/18/64 61/19/61 13/11/13
f 26/11/26 32/10/32 76/18/76
f 32/10/32 28/15/28 80/28/80
f 28/10/28 25/11/25 74/19/74
f 85/19/85 89/18/89 40/10/40
f 89/23/89 94/20/94 44/1/44
f 94/20/94 87/22/87 38/3/38
f 13/11/13 61/19/61 50/22/50
f 39/22/39 27/19/27 14/11/14
f 49/22/49 85/19/85 37/11/37
f 26/11/26 73/19/73 62/22/62
f 38/3/38 87/22/87 74/19/74
f 63/11/63 75/19/75 86/22/86
