# Blender 4.1.1
# www.blender.org
mtllib __clay_block_01_37.mtl
o clay_block_37
v -0.500000 0.500000 0.500000
v -0.500000 -0.500000 0.500000
v -1.500000 -0.500000 0.500000
v -1.500000 0.500000 0.500000
v 0.500000 -0.350000 0.500000
v 0.350000 -0.500000 0.500000
v 0.479904 -0.425000 0.500000
v 0.425000 -0.479904 0.500000
v 0.350000 -0.350000 -0.500000
v 0.500000 -0.350000 -0.350000
v 0.350000 -0.500000 -0.350000
v 0.424902 -0.350000 -0.479961
v 0.350000 -0.424902 -0.479961
v 0.421732 -0.421732 -0.460495
v 0.479961 -0.424902 -0.350000
v 0.479961 -0.350000 -0.424902
v 0.460495 -0.421732 -0.421732
v 0.350000 -0.479961 -0.424902
v 0.424902 -0.479961 -0.350000
v 0.421732 -0.460495 -0.421732
v -0.500000 -0.500000 -0.350000
v -0.500000 -0.350000 -0.500000
v -0.500000 -0.479904 -0.425000
v -0.500000 -0.425000 -0.479904
v 0.350000 0.500000 0.500000
v 0.500000 0.350000 0.500000
v 0.425000 0.479904 0.500000
v 0.479904 0.425000 0.500000
v 0.350000 0.500000 -0.350000
v 0.500000 0.350000 -0.350000
v 0.350000 0.350000 -0.500000
v 0.424902 0.479961 -0.350000
v 0.350000 0.479961 -0.424902
v 0.421732 0.460495 -0.421732
v 0.479961 0.350000 -0.424902
v 0.479961 0.424902 -0.350000
v 0.460495 0.421732 -0.421732
v 0.350000 0.424902 -0.479961
v 0.424902 0.350000 -0.479961
v 0.421732 0.421732 -0.460495
v -1.500000 -0.500000 -0.350000
v -1.500000 -0.350000 -0.500000
v -1.500000 -0.479904 -0.425000
v -1.500000 -0.425000 -0.479904
v -0.500000 0.500000 -0.350000
v -0.500000 0.350000 -0.500000
v -0.500000 0.479904 -0.425000
v -0.500000 0.425000 -0.479904
v -1.500000 0.350000 -0.500000
v -1.500000 0.500000 -0.350000
v -1.500000 0.425000 -0.479904
v -1.500000 0.479904 -0.425000
v -2.350000 -0.350000 -0.500000
v -2.350000 -0.500000 -0.350000
v -2.500000 -0.350000 -0.350000
v -2.350000 -0.424902 -0.479961
v -2.424901 -0.350000 -0.479961
v -2.421732 -0.421732 -0.460495
v -2.424901 -0.479961 -0.350000
v -2.350000 -0.479961 -0.424902
v -2.421732 -0.460495 -0.421732
v -2.479960 -0.350000 -0.424902
v -2.479960 -0.424902 -0.350000
v -2.460495 -0.421732 -0.421732
v -2.500000 0.350000 0.500000
v -2.350000 0.500000 0.500000
v -2.479904 0.425000 0.500000
v -2.425000 0.479904 0.500000
v -2.350000 0.500000 -0.350000
v -2.350000 0.350000 -0.500000
v -2.500000 0.350000 -0.350000
v -2.350000 0.479961 -0.424902
v -2.424901 0.479961 -0.350000
v -2.421732 0.460495 -0.421732
v -2.424901 0.350000 -0.479961
v -2.350000 0.424902 -0.479961
v -2.421732 0.421732 -0.460495
v -2.479960 0.424902 -0.350000
v -2.479960 0.350000 -0.424902
v -2.460495 0.421732 -0.421732
v 0.500000 -0.350000 1.350000
v 0.350000 -0.350000 1.500000
v 0.350000 -0.500000 1.350000
v 0.479961 -0.350000 1.424901
v 0.479961 -0.424902 1.350000
v 0.460495 -0.421732 1.421732
v 0.350000 -0.424902 1.479960
v 0.424902 -0.350000 1.479960
v 0.421732 -0.421732 1.460495
v 0.424902 -0.479961 1.350000
v 0.350000 -0.479961 1.424901
v 0.421732 -0.460495 1.421732
v -0.500000 0.500000 1.350000
v -0.500000 0.350000 1.500000
v -0.500000 0.479904 1.425000
v -0.500000 0.425000 1.479904
v 0.350000 0.500000 1.350000
v 0.350000 0.350000 1.500000
v 0.500000 0.350000 1.350000
v 0.350000 0.479961 1.424901
v 0.424902 0.479961 1.350000
v 0.421732 0.460495 1.421732
v 0.424902 0.350000 1.479960
v 0.350000 0.424902 1.479960
v 0.421732 0.421732 1.460495
v 0.479961 0.424902 1.350000
v 0.479961 0.350000 1.424901
v 0.460495 0.421732 1.421732
v -0.500000 -0.350000 1.500000
v -0.500000 -0.500000 1.350000
v -0.500000 -0.425000 1.479904
v -0.500000 -0.479904 1.425000
v -2.350000 -0.350000 1.500000
v -2.500000 -0.350000 1.350000
v -2.350000 -0.500000 1.350000
v -2.424901 -0.350000 1.479960
v -2.350000 -0.424902 1.479960
v -2.421732 -0.421732 1.460495
v -2.479960 -0.424902 1.350000
v -2.479960 -0.350000 1.424901
v -2.460495 -0.421732 1.421732
v -2.350000 -0.479961 1.424901
v -2.424901 -0.479961 1.350000
v -2.421732 -0.460495 1.421732
v -1.500000 -0.500000 1.350000
v -1.500000 -0.350000 1.500000
v -1.500000 -0.479904 1.425000
v -1.500000 -0.425000 1.479904
v -2.500000 -0.350000 0.500000
v -2.350000 -0.500000 0.500000
v -2.479904 -0.425000 0.500000
v -2.425000 -0.479904 0.500000
v -2.350000 0.500000 1.350000
v -2.500000 0.350000 1.350000
v -2.350000 0.350000 1.500000
v -2.424901 0.479961 1.350000
v -2.350000 0.479961 1.424901
v -2.421732 0.460495 1.421732
v -2.479960 0.350000 1.424901
v -2.479960 0.424902 1.350000
v -2.460495 0.421732 1.421732
v -2.350000 0.424902 1.479960
v -2.424901 0.350000 1.479960
v -2.421732 0.421732 1.460495
v -1.500000 0.350000 1.500000
v -1.500000 0.500000 1.350000
v -1.500000 0.425000 1.479904
v -1.500000 0.479904 1.425000
vn -0.4082 0.8165 0.4082
vn -0.4082 -0.8165 0.4082
vn -0.4082 0.8165 0.4083
vn 0.8999 -0.1185 0.4196
vn 0.1185 -0.8999 0.4196
vn 0.7952 -0.4591 0.3961
vn 0.4591 -0.7952 0.3961
vn 0.1280 -0.1280 -0.9835
vn 0.9835 -0.1280 -0.1280
vn 0.1280 -0.9835 -0.1280
vn 0.4916 -0.1216 -0.8623
vn 0.1216 -0.4916 -0.8623
vn 0.4488 -0.4488 -0.7727
vn 0.8623 -0.4916 -0.1216
vn 0.8623 -0.1216 -0.4916
vn 0.7727 -0.4488 -0.4488
vn 0.1216 -0.8623 -0.4916
vn 0.4916 -0.8623 -0.1216
vn 0.4488 -0.7727 -0.4488
vn -0.4196 -0.8999 -0.1185
vn -0.4196 -0.1185 -0.8999
vn -0.3961 -0.7952 -0.4591
vn -0.3961 -0.4591 -0.7952
vn 0.1185 0.8999 0.4196
vn 0.8999 0.1185 0.4196
vn 0.4591 0.7952 0.3961
vn 0.7952 0.4591 0.3961
vn 0.1280 0.9835 -0.1280
vn 0.9835 0.1280 -0.1280
vn 0.1280 0.1280 -0.9835
vn 0.4916 0.8623 -0.1216
vn 0.1216 0.8623 -0.4916
vn 0.4488 0.7727 -0.4488
vn 0.8623 0.1216 -0.4916
vn 0.8623 0.4916 -0.1216
vn 0.7727 0.4488 -0.4488
vn 0.1216 0.4916 -0.8623
vn 0.4916 0.1216 -0.8623
vn 0.4488 0.4488 -0.7727
vn -0.4196 0.8999 -0.1185
vn -0.4196 0.1185 -0.8999
vn -0.3961 0.7952 -0.4591
vn -0.3961 0.4591 -0.7952
vn -0.1280 -0.1280 -0.9835
vn -0.1280 -0.9835 -0.1280
vn -0.9835 -0.1280 -0.1280
vn -0.1216 -0.4916 -0.8623
vn -0.4916 -0.1216 -0.8623
vn -0.4488 -0.4488 -0.7727
vn -0.4916 -0.8623 -0.1216
vn -0.1216 -0.8623 -0.4916
vn -0.4488 -0.7727 -0.4488
vn -0.8623 -0.1216 -0.4916
vn -0.8623 -0.4916 -0.1216
vn -0.7727 -0.4488 -0.4488
vn -0.8999 0.1185 0.4196
vn -0.1185 0.8999 0.4196
vn -0.7952 0.4591 0.3961
vn -0.4591 0.7952 0.3961
vn -0.1280 0.9835 -0.1280
vn -0.1280 0.1280 -0.9835
vn -0.9835 0.1280 -0.1280
vn -0.1216 0.8623 -0.4916
vn -0.4916 0.8623 -0.1216
vn -0.4488 0.7727 -0.4488
vn -0.4916 0.1216 -0.8623
vn -0.1216 0.4916 -0.8623
vn -0.4488 0.4488 -0.7727
vn -0.8623 0.4916 -0.1216
vn -0.8623 0.1216 -0.4916
vn -0.7727 0.4488 -0.4488
vn 0.9835 -0.1280 0.1280
vn 0.1280 -0.1280 0.9835
vn 0.1280 -0.9835 0.1280
vn 0.8623 -0.1216 0.4916
vn 0.8623 -0.4916 0.1216
vn 0.7727 -0.4488 0.4488
vn 0.1216 -0.4916 0.8623
vn 0.4916 -0.1216 0.8623
vn 0.4488 -0.4488 0.7727
vn 0.4916 -0.8623 0.1216
vn 0.1216 -0.8623 0.4916
vn 0.4488 -0.7727 0.4488
vn -0.4196 0.8999 0.1185
vn -0.4196 0.1185 0.8999
vn -0.3961 0.7952 0.4591
vn -0.3961 0.4591 0.7952
vn 0.1280 0.9835 0.1280
vn 0.1280 0.1280 0.9835
vn 0.9835 0.1280 0.1280
vn 0.1216 0.8623 0.4916
vn 0.4916 0.8623 0.1216
vn 0.4488 0.7727 0.4488
vn 0.4916 0.1216 0.8623
vn 0.1216 0.4916 0.8623
vn 0.4488 0.4488 0.7727
vn 0.8623 0.4916 0.1216
vn 0.8623 0.1216 0.4916
vn 0.7727 0.4488 0.4488
vn -0.4196 -0.1185 0.8999
vn -0.4196 -0.8999 0.1185
vn -0.3961 -0.4591 0.7952
vn -0.3961 -0.7952 0.4591
vn -0.1280 -0.1280 0.9835
vn -0.9835 -0.1280 0.1280
vn -0.1280 -0.9835 0.1280
vn -0.4916 -0.1216 0.8623
vn -0.1216 -0.4916 0.8623
vn -0.4488 -0.4488 0.7727
vn -0.8623 -0.4916 0.1216
vn -0.8623 -0.1216 0.4916
vn -0.7727 -0.4488 0.4488
vn -0.1216 -0.8623 0.4916
vn -0.4916 -0.8623 0.1216
vn -0.4488 -0.7727 0.4488
vn -0.8999 -0.1185 0.4196
vn -0.1185 -0.8999 0.4196
vn -0.7952 -0.4591 0.3961
vn -0.4591 -0.7952 0.3961
vn -0.1280 0.9835 0.1280
vn -0.9835 0.1280 0.1280
vn -0.1280 0.1280 0.9835
vn -0.4916 0.8623 0.1216
vn -0.1216 0.8623 0.4916
vn -0.4488 0.7727 0.4488
vn -0.8623 0.1216 0.4916
vn -0.8623 0.4916 0.1216
vn -0.7727 0.4488 0.4488
vn -0.1216 0.4916 0.8623
vn -0.4916 0.1216 0.8623
vn -0.4488 0.4488 0.7727
vt -0.500000 -0.500000
vt 0.350000 -1.350000
vt -0.500000 -1.350000
vt -0.500000 0.350000
vt 0.350000 -0.500000
vt -1.500000 0.350000
vt -1.500000 -0.500000
vt -0.500000 -0.350000
vt -1.350000 0.350000
vt -1.350000 -0.350000
vt -1.500000 -0.350000
vt 0.479904 -0.425000
vt 0.425000 -0.479904
vt -2.350000 0.350000
vt -2.350000 -0.500000
vt -1.500000 0.500000
vt 0.350000 -0.350000
vt -1.500000 -1.350000
vt -2.350000 -1.350000
vt 0.350000 0.350000
vt -2.350000 -0.350000
vt 0.350000 0.500000
vt 0.500000 0.350000
vt -1.350000 -0.500000
vt -1.350000 0.500000
vt -2.425000 0.479904
vt -2.479904 0.425000
vt -2.500000 0.350000
vt 0.424902 -0.350000
vt 0.350000 -0.424902
vt 0.460495 -0.421732
vt 0.479961 -0.350000
vt 0.424902 0.350000
vt 0.460495 0.421732
vt 0.479961 0.350000
vt 0.350000 0.424902
vt 0.350000 -0.479961
vt 0.421732 -0.421732
vt 0.421732 -0.460495
vt 0.350000 0.479961
vt 0.421732 0.421732
vt 0.421732 0.460495
vt -2.350000 -0.424902
vt -2.424901 -0.350000
vt -2.350000 -0.479961
vt -2.421732 -0.421732
vt -2.424901 0.350000
vt -2.350000 0.424902
vt -2.350000 0.479961
vt -2.421732 0.421732
vt -2.421732 0.460495
vt -1.424901 -0.350000
vt -1.350000 -0.424902
vt -1.460495 -0.421732
vt -1.421732 -0.421732
vt 0.350000 -1.479960
vt 0.421732 -1.421732
vt 0.421732 -1.460495
vt 0.424902 -1.350000
vt 0.350000 -1.424901
vt -1.350000 -0.479961
vt -1.421732 -0.460495
vt -1.350000 0.424902
vt -1.424901 0.350000
vt -1.350000 0.479961
vt -1.421732 0.421732
vt -1.421732 0.460495
vt -1.460495 0.421732
vt -1.479960 -0.350000
vt -2.350000 -1.424901
vt -2.424901 -1.350000
vt -2.421732 -1.460495
vt -2.421732 -1.421732
vt -0.500000 -0.425000
vt -0.500000 -0.479904
vt -0.500000 0.425000
vt -0.500000 0.479904
vt 0.425000 -0.500000
vt -1.500000 0.425000
vt -0.500000 -1.425000
vt -1.500000 -0.425000
vt -1.500000 -0.479904
vt -1.500000 -1.425000
vt -1.479960 0.350000
vt -2.425000 -0.500000
vt -1.500000 0.479904
vt -0.500000 0.500000
vt 0.425000 0.479904
vt 0.479904 0.425000
vt 0.500000 -0.350000
vt -1.425000 -0.479904
vt -1.479904 -0.425000
vt -1.479904 0.425000
vt -1.425000 0.479904
vt -2.500000 -0.350000
vt -2.479904 -0.425000
vt -2.425000 -0.479904
vt -2.350000 0.500000
vt -2.421732 -0.460495
s 1
usemtl ClayMat_37
f 2/1/2 83/2/74 110/3/101
f 97/2/88 1/1/1 93/3/84
f 21/4/20 6/5/5 2/1/2
f 41/6/20 2/1/2 3/7/2
f 5/8/4 99/9/90 81/10/72
f 42/11/21 46/4/41 22/8/21
f 24/12/23 23/13/22 21/5/20
f 4/7/3 69/14/60 66/15/57
f 2/1/2 4/16/3 3/7/2
f 25/5/24 45/4/40 1/1/1
f 1/1/1 50/6/40 4/7/3
f 44/12/23 43/13/22 41/5/20
f 65/4/56 55/17/46 129/8/116
f 82/17/73 94/4/85 109/8/100
f 54/14/45 3/7/2 130/15/117
f 146/18/84 66/15/57 133/19/120
f 22/8/21 31/20/30 9/17/8
f 53/21/44 49/6/41 42/11/21
f 93/3/84 4/7/3 146/18/84
f 25/22/24 6/5/5 26/23/25
f 109/8/100 145/6/85 126/11/100
f 126/11/100 135/14/122 113/21/104
f 110/24/101 109/11/100 93/25/84
f 3/7/2 110/3/101 125/18/101
f 125/24/101 126/11/100 146/25/84
f 134/9/121 129/8/116 114/10/105
f 130/15/117 125/18/101 115/19/106
f 68/26/59 67/27/58 65/28/56
f 12/29/11 13/30/12 9/17/8
f 16/29/15 14/31/13 12/32/11
f 15/30/14 16/29/15 10/17/9
f 19/33/18 17/34/16 15/35/14
f 18/36/17 19/33/18 11/20/10
f 18/37/17 14/38/13 20/39/19
f 14/31/13 17/38/16 20/39/19
f 32/33/31 33/36/32 29/20/28
f 32/40/31 37/41/36 34/42/33
f 35/33/34 36/36/35 30/20/29
f 39/33/38 37/34/36 35/35/34
f 38/36/37 39/33/38 31/20/30
f 33/36/32 40/42/39 38/40/37
f 34/42/33 37/41/36 40/34/39
f 56/43/47 57/44/48 53/21/44
f 60/45/51 58/46/49 56/43/47
f 59/47/50 60/48/51 54/14/45
f 63/30/54 61/39/52 59/37/50
f 62/29/53 63/30/54 55/17/46
f 62/29/53 58/31/49 64/38/55
f 58/31/49 61/39/52 64/38/55
f 72/48/63 73/47/64 69/14/60
f 72/49/63 77/50/68 74/51/65
f 75/47/66 76/48/67 70/14/61
f 79/33/70 77/34/68 75/35/66
f 78/36/69 79/33/70 71/20/62
f 78/36/69 74/42/65 80/41/71
f 74/42/65 77/34/68 80/41/71
f 84/52/75 85/53/76 81/10/72
f 84/52/75 89/54/80 86/55/77
f 87/30/78 88/29/79 82/17/73
f 87/56/78 92/57/83 89/58/80
f 90/59/81 91/60/82 83/2/74
f 90/61/81 86/55/77 92/62/83
f 86/55/77 89/54/80 92/62/83
f 100/60/91 101/59/92 97/2/88
f 104/36/95 102/42/93 100/40/91
f 103/33/94 104/36/95 98/20/89
f 107/35/98 105/41/96 103/33/94
f 106/63/97 107/64/98 99/9/90
f 101/65/92 108/66/99 106/63/97
f 102/67/93 105/68/96 108/66/99
f 116/44/107 117/43/108 113/21/104
f 120/52/111 118/54/109 116/69/107
f 119/53/110 120/52/111 114/10/105
f 119/53/110 124/62/115 121/55/112
f 122/70/113 123/71/114 115/19/106
f 122/70/113 118/72/109 124/73/115
f 118/54/109 121/55/112 124/62/115
f 136/71/123 137/70/124 133/19/120
f 140/63/127 138/67/125 136/65/123
f 139/64/126 140/63/127 134/9/121
f 139/64/126 144/68/131 141/66/128
f 142/48/129 143/47/130 135/14/122
f 137/49/124 144/50/131 142/48/129
f 138/67/125 141/66/128 144/68/131
f 22/8/21 13/30/12 24/74/23
f 13/30/12 23/75/22 24/74/23
f 18/36/17 21/4/20 23/76/22
f 5/8/4 15/30/14 10/17/9
f 7/74/6 19/37/18 15/30/14
f 19/33/18 6/5/5 11/20/10
f 26/4/25 36/36/35 28/76/27
f 36/36/35 27/77/26 28/76/27
f 32/33/31 25/5/24 27/78/26
f 10/17/9 35/33/34 30/20/29
f 16/29/15 39/35/38 35/33/34
f 12/29/11 31/20/30 39/33/38
f 49/6/41 48/76/43 46/4/41
f 51/79/43 47/77/42 48/76/43
f 52/79/42 45/4/40 47/76/42
f 65/4/56 78/36/69 71/20/62
f 67/76/58 73/40/64 78/36/69
f 73/47/64 66/15/57 69/14/60
f 71/20/62 62/29/53 55/17/46
f 79/33/70 57/32/48 62/29/53
f 75/47/66 53/21/44 57/44/48
f 94/4/85 104/36/95 96/76/87
f 104/36/95 95/77/86 96/76/87
f 100/60/91 93/3/84 95/80/86
f 99/9/90 84/52/75 81/10/72
f 107/35/98 88/29/79 84/32/75
f 88/29/79 98/20/89 82/17/73
f 126/11/100 117/43/108 128/81/102
f 117/43/108 127/82/103 128/81/102
f 122/70/113 125/18/101 127/83/103
f 129/8/116 119/53/110 114/10/105
f 131/74/118 123/61/114 119/53/110
f 123/71/114 130/15/117 115/19/106
f 145/6/85 142/48/129 135/14/122
f 147/79/87 137/49/124 142/48/129
f 137/70/124 146/18/84 133/19/120
f 114/10/105 139/64/126 134/9/121
f 120/52/111 143/84/130 139/64/126
f 116/44/107 135/14/122 143/47/130
f 46/4/41 38/36/37 31/20/30
f 48/76/43 33/40/32 38/36/37
f 33/36/32 45/4/40 29/20/28
f 22/8/21 44/81/23 42/11/21
f 24/74/23 43/82/22 44/81/23
f 23/76/22 41/6/20 43/79/22
f 129/8/116 63/30/54 131/74/118
f 63/30/54 132/75/119 131/74/118
f 59/47/50 130/15/117 132/85/119
f 42/11/21 56/43/47 53/21/44
f 56/43/47 43/82/22 60/45/51
f 60/48/51 41/6/20 54/14/45
f 49/6/41 76/48/67 51/79/43
f 76/48/67 52/86/42 51/79/43
f 72/48/63 50/6/40 52/79/42
f 109/8/100 87/30/78 82/17/73
f 111/74/102 91/37/82 87/30/78
f 91/60/82 110/3/101 83/2/74
f 5/8/4 85/53/76 7/74/6
f 85/53/76 8/75/7 7/74/6
f 90/59/81 6/5/5 8/78/7
f 26/4/25 106/63/97 99/9/90
f 28/76/27 101/65/92 106/63/97
f 101/59/92 25/5/24 97/2/88
f 126/11/100 111/74/102 109/8/100
f 128/81/102 112/75/103 111/74/102
f 127/83/103 110/3/101 112/80/103
f 94/4/85 147/79/87 145/6/85
f 96/76/87 148/86/86 147/79/87
f 95/80/86 146/18/84 148/83/86
f 65/4/56 140/63/127 67/76/58
f 140/63/127 68/77/59 67/76/58
f 136/71/123 66/15/57 68/85/59
f 10/17/9 26/4/25 5/8/4
f 2/1/2 6/5/5 83/2/74
f 97/2/88 25/5/24 1/1/1
f 21/4/20 11/20/10 6/5/5
f 41/6/20 21/4/20 2/1/2
f 5/8/4 26/4/25 99/9/90
f 42/11/21 49/6/41 46/4/41
f 21/5/20 2/1/2 1/87/1
f 1/87/1 45/22/40 21/5/20
f 45/22/40 47/88/42 46/23/41
f 21/5/20 45/22/40 46/23/41
f 47/88/42 48/89/43 46/23/41
f 46/23/41 22/90/21 21/5/20
f 22/90/21 24/12/23 21/5/20
f 4/7/3 50/6/40 69/14/60
f 2/1/2 1/87/1 4/16/3
f 25/5/24 29/20/28 45/4/40
f 1/1/1 45/4/40 50/6/40
f 41/5/20 3/1/2 4/87/3
f 4/87/3 50/22/40 41/5/20
f 50/22/40 52/88/42 49/23/41
f 41/5/20 50/22/40 49/23/41
f 52/88/42 51/89/43 49/23/41
f 49/23/41 42/90/21 41/5/20
f 42/90/21 44/12/23 41/5/20
f 65/4/56 71/20/62 55/17/46
f 82/17/73 98/20/89 94/4/85
f 54/14/45 41/6/20 3/7/2
f 146/18/84 4/7/3 66/15/57
f 22/8/21 46/4/41 31/20/30
f 53/21/44 70/14/61 49/6/41
f 93/3/84 1/1/1 4/7/3
f 1/87/1 2/1/2 6/5/5
f 6/5/5 8/13/7 7/12/6
f 7/12/6 5/90/4 6/5/5
f 5/90/4 26/23/25 6/5/5
f 26/23/25 28/89/27 27/88/26
f 27/88/26 25/22/24 26/23/25
f 25/22/24 1/87/1 6/5/5
f 109/8/100 94/4/85 145/6/85
f 126/11/100 145/6/85 135/14/122
f 2/1/2 110/24/101 93/25/84
f 110/24/101 112/91/103 109/11/100
f 112/91/103 111/92/102 109/11/100
f 109/11/100 94/6/85 93/25/84
f 94/6/85 96/93/87 93/25/84
f 96/93/87 95/94/86 93/25/84
f 93/25/84 1/87/1 2/1/2
f 3/7/2 2/1/2 110/3/101
f 3/1/2 125/24/101 146/25/84
f 125/24/101 127/91/103 126/11/100
f 127/91/103 128/92/102 126/11/100
f 126/11/100 145/6/85 146/25/84
f 145/6/85 147/93/87 146/25/84
f 147/93/87 148/94/86 146/25/84
f 146/25/84 4/87/3 3/1/2
f 134/9/121 65/4/56 129/8/116
f 130/15/117 3/7/2 125/18/101
f 65/28/56 129/95/116 130/15/117
f 129/95/116 131/96/118 130/15/117
f 131/96/118 132/97/119 130/15/117
f 130/15/117 3/7/2 4/16/3
f 4/16/3 66/98/57 130/15/117
f 66/98/57 68/26/59 65/28/56
f 130/15/117 66/98/57 65/28/56
f 12/29/11 14/38/13 13/30/12
f 16/29/15 17/38/16 14/31/13
f 15/30/14 17/38/16 16/29/15
f 19/37/18 20/39/19 17/38/16
f 18/36/17 20/41/19 19/33/18
f 18/37/17 13/30/12 14/38/13
f 32/33/31 34/41/33 33/36/32
f 32/40/31 36/36/35 37/41/36
f 35/33/34 37/41/36 36/36/35
f 39/35/38 40/34/39 37/41/36
f 38/36/37 40/41/39 39/33/38
f 33/40/32 34/42/33 40/41/39
f 56/43/47 58/46/49 57/44/48
f 60/45/51 61/99/52 58/46/49
f 59/47/50 61/50/52 60/48/51
f 63/30/54 64/38/55 61/39/52
f 62/29/53 64/38/55 63/30/54
f 62/29/53 57/32/48 58/31/49
f 72/48/63 74/50/65 73/47/64
f 72/49/63 76/48/67 77/50/68
f 75/47/66 77/50/68 76/48/67
f 79/33/70 80/41/71 77/34/68
f 78/36/69 80/41/71 79/33/70
f 78/36/69 73/40/64 74/42/65
f 84/52/75 86/55/77 85/53/76
f 84/32/75 88/29/79 89/38/80
f 87/30/78 89/38/80 88/29/79
f 87/30/78 91/37/82 92/39/83
f 90/59/81 92/57/83 91/60/82
f 90/61/81 85/53/76 86/55/77
f 100/60/91 102/57/93 101/59/92
f 104/56/95 105/58/96 102/57/93
f 103/33/94 105/41/96 104/36/95
f 107/64/98 108/66/99 105/68/96
f 106/63/97 108/66/99 107/64/98
f 101/65/92 102/67/93 108/66/99
f 116/44/107 118/46/109 117/43/108
f 120/52/111 121/55/112 118/54/109
f 119/53/110 121/55/112 120/52/111
f 119/53/110 123/61/114 124/62/115
f 122/70/113 124/73/115 123/71/114
f 122/45/113 117/43/108 118/46/109
f 136/71/123 138/73/125 137/70/124
f 140/63/127 141/66/128 138/67/125
f 139/64/126 141/66/128 140/63/127
f 139/64/126 143/84/130 144/68/131
f 142/48/129 144/50/131 143/47/130
f 137/70/124 138/73/125 144/72/131
f 22/8/21 9/17/8 13/30/12
f 13/30/12 18/37/17 23/75/22
f 18/36/17 11/20/10 21/4/20
f 5/8/4 7/74/6 15/30/14
f 7/74/6 8/75/7 19/37/18
f 19/33/18 8/78/7 6/5/5
f 26/4/25 30/20/29 36/36/35
f 36/36/35 32/40/31 27/77/26
f 32/33/31 29/20/28 25/5/24
f 10/17/9 16/29/15 35/33/34
f 16/29/15 12/32/11 39/35/38
f 12/29/11 9/17/8 31/20/30
f 49/6/41 51/79/43 48/76/43
f 51/79/43 52/86/42 47/77/42
f 52/79/42 50/6/40 45/4/40
f 65/4/56 67/76/58 78/36/69
f 67/76/58 68/77/59 73/40/64
f 73/47/64 68/85/59 66/15/57
f 71/20/62 79/33/70 62/29/53
f 79/33/70 75/35/66 57/32/48
f 75/47/66 70/14/61 53/21/44
f 94/4/85 98/20/89 104/36/95
f 104/36/95 100/40/91 95/77/86
f 100/60/91 97/2/88 93/3/84
f 99/9/90 107/64/98 84/52/75
f 107/35/98 103/33/94 88/29/79
f 88/29/79 103/33/94 98/20/89
f 126/11/100 113/21/104 117/43/108
f 117/43/108 122/45/113 127/82/103
f 122/70/113 115/19/106 125/18/101
f 129/8/116 131/74/118 119/53/110
f 131/74/118 132/75/119 123/61/114
f 123/71/114 132/85/119 130/15/117
f 145/6/85 147/79/87 142/48/129
f 147/79/87 148/86/86 137/49/124
f 137/70/124 148/83/86 146/18/84
f 114/10/105 120/52/111 139/64/126
f 120/52/111 116/69/107 143/84/130
f 116/44/107 113/21/104 135/14/122
f 46/4/41 48/76/43 38/36/37
f 48/76/43 47/77/42 33/40/32
f 33/36/32 47/76/42 45/4/40
f 22/8/21 24/74/23 44/81/23
f 24/74/23 23/75/22 43/82/22
f 23/76/22 21/4/20 41/6/20
f 129/8/116 55/17/46 63/30/54
f 63/30/54 59/37/50 132/75/119
f 59/47/50 54/14/45 130/15/117
f 42/11/21 44/81/23 56/43/47
f 56/43/47 44/81/23 43/82/22
f 60/48/51 43/79/22 41/6/20
f 49/6/41 70/14/61 76/48/67
f 76/48/67 72/49/63 52/86/42
f 72/48/63 69/14/60 50/6/40
f 109/8/100 111/74/102 87/30/78
f 111/74/102 112/75/103 91/37/82
f 91/60/82 112/80/103 110/3/101
f 5/8/4 81/10/72 85/53/76
f 85/53/76 90/61/81 8/75/7
f 90/59/81 83/2/74 6/5/5
f 26/4/25 28/76/27 106/63/97
f 28/76/27 27/77/26 101/65/92
f 101/59/92 27/78/26 25/5/24
f 126/11/100 128/81/102 111/74/102
f 128/81/102 127/82/103 112/75/103
f 127/83/103 125/18/101 110/3/101
f 94/4/85 96/76/87 147/79/87
f 96/76/87 95/77/86 148/86/86
f 95/80/86 93/3/84 146/18/84
f 65/4/56 134/9/121 140/63/127
f 140/63/127 136/65/123 68/77/59
f 136/71/123 133/19/120 66/15/57
f 10/17/9 30/20/29 26/4/25
