# Blender 4.1.1
# www.blender.org
mtllib __clay_block_07_17.mtl
o clay_block_17
v -0.350000 -0.350000 0.500000
v -0.500000 -0.350000 0.350000
v -0.350000 -0.500000 0.350000
v -0.424902 -0.350000 0.479961
v -0.350000 -0.424902 0.479961
v -0.421732 -0.421732 0.460495
v -0.479961 -0.424902 0.350000
v -0.479961 -0.350000 0.424902
v -0.460495 -0.421732 0.421732
v -0.350000 -0.479961 0.424902
v -0.424902 -0.479961 0.350000
v -0.421732 -0.460495 0.421732
v 0.350000 -0.350000 0.500000
v 0.350000 -0.500000 0.350000
v 0.500000 -0.350000 0.350000
v 0.350000 -0.424902 0.479961
v 0.424902 -0.350000 0.479961
v 0.421732 -0.421732 0.460495
v 0.424902 -0.479961 0.350000
v 0.350000 -0.479961 0.424902
v 0.421732 -0.460495 0.421732
v 0.479961 -0.350000 0.424902
v 0.479961 -0.424902 0.350000
v 0.460495 -0.421732 0.421732
v 0.350000 -0.350000 -0.500000
v 0.500000 -0.350000 -0.350000
v 0.350000 -0.500000 -0.350000
v 0.424902 -0.350000 -0.479961
v 0.350000 -0.424902 -0.479961
v 0.421732 -0.421732 -0.460495
v 0.479961 -0.424902 -0.350000
v 0.479961 -0.350000 -0.424902
v 0.460495 -0.421732 -0.421732
v 0.350000 -0.479961 -0.424902
v 0.424902 -0.479961 -0.350000
v 0.421732 -0.460495 -0.421732
v -0.500000 -0.350000 -0.350000
v -0.350000 -0.350000 -0.500000
v -0.350000 -0.500000 -0.350000
v -0.479961 -0.350000 -0.424902
v -0.479961 -0.424902 -0.350000
v -0.460495 -0.421732 -0.421732
v -0.350000 -0.424902 -0.479961
v -0.424902 -0.350000 -0.479961
v -0.421732 -0.421732 -0.460495
v -0.424902 -0.479961 -0.350000
v -0.350000 -0.479961 -0.424902
v -0.421732 -0.460495 -0.421732
v 0.500000 0.500000 0.350000
v 0.350000 0.500000 0.500000
v 0.479904 0.500000 0.425000
v 0.425000 0.500000 0.479904
v 0.350000 0.500000 -0.500000
v 0.500000 0.500000 -0.350000
v 0.425000 0.500000 -0.479904
v 0.479904 0.500000 -0.425000
v -0.350000 0.500000 0.500000
v -0.500000 0.500000 0.350000
v -0.425000 0.500000 0.479904
v -0.479904 0.500000 0.425000
v -0.500000 0.500000 -0.350000
v -0.350000 0.500000 -0.500000
v -0.479904 0.500000 -0.425000
v -0.425000 0.500000 -0.479904
v -0.500000 1.500000 0.350000
v -0.350000 1.500000 0.500000
v -0.479904 1.500000 0.425000
v -0.425000 1.500000 0.479904
v 0.350000 1.500000 0.500000
v 0.500000 1.500000 0.350000
v 0.425000 1.500000 0.479904
v 0.479904 1.500000 0.425000
v 0.500000 1.500000 -0.350000
v 0.350000 1.500000 -0.500000
v 0.479904 1.500000 -0.425000
v 0.425000 1.500000 -0.479904
v -0.350000 1.500000 -0.500000
v -0.500000 1.500000 -0.350000
v -0.425000 1.500000 -0.479904
v -0.479904 1.500000 -0.425000
v -0.500000 2.350000 0.350000
v -0.350000 2.350000 0.500000
v -0.350000 2.500000 0.350000
v -0.479961 2.350000 0.424902
v -0.479961 2.424901 0.350000
v -0.460495 2.421732 0.421732
v -0.350000 2.424901 0.479961
v -0.424902 2.350000 0.479961
v -0.421732 2.421732 0.460495
v -0.424902 2.479960 0.350000
v -0.350000 2.479960 0.424902
v -0.421732 2.460495 0.421732
v 0.350000 2.350000 0.500000
v 0.500000 2.350000 0.350000
v 0.350000 2.500000 0.350000
v 0.424902 2.350000 0.479961
v 0.350000 2.424901 0.479961
v 0.421732 2.421732 0.460495
v 0.479961 2.424901 0.350000
v 0.479961 2.350000 0.424902
v 0.460495 2.421732 0.421732
v 0.350000 2.479960 0.424902
v 0.424902 2.479960 0.350000
v 0.421732 2.460495 0.421732
v 0.500000 2.350000 -0.350000
v 0.350000 2.350000 -0.500000
v 0.350000 2.500000 -0.350000
v 0.479961 2.350000 -0.424902
v 0.479961 2.424901 -0.350000
v 0.460495 2.421732 -0.421732
v 0.350000 2.424901 -0.479961
v 0.424902 2.350000 -0.479961
v 0.421732 2.421732 -0.460495
v 0.424902 2.479960 -0.350000
v 0.350000 2.479960 -0.424902
v 0.421732 2.460495 -0.421732
v -0.500000 2.350000 -0.350000
v -0.350000 2.500000 -0.350000
v -0.350000 2.350000 -0.500000
v -0.479961 2.424901 -0.350000
v -0.479961 2.350000 -0.424902
v -0.460495 2.421732 -0.421732
v -0.350000 2.479960 -0.424902
v -0.424902 2.479960 -0.350000
v -0.421732 2.460495 -0.421732
v -0.424902 2.350000 -0.479961
v -0.350000 2.424901 -0.479961
v -0.421732 2.421732 -0.460495
vn -0.1280 -0.1280 0.9835
vn -0.9835 -0.1280 0.1280
vn -0.1280 -0.9835 0.1280
vn -0.4916 -0.1216 0.8623
vn -0.1216 -0.4916 0.8623
vn -0.4488 -0.4488 0.7727
vn -0.8623 -0.4916 0.1216
vn -0.8623 -0.1216 0.4916
vn -0.7727 -0.4488 0.4488
vn -0.1216 -0.8623 0.4916
vn -0.4916 -0.8623 0.1216
vn -0.4488 -0.7727 0.4488
vn 0.1280 -0.1280 0.9835
vn 0.1280 -0.9835 0.1280
vn 0.9835 -0.1280 0.1280
vn 0.1216 -0.4916 0.8623
vn 0.4916 -0.1216 0.8623
vn 0.4488 -0.4488 0.7727
vn 0.4916 -0.8623 0.1216
vn 0.1216 -0.8623 0.4916
vn 0.4488 -0.7727 0.4488
vn 0.8623 -0.1216 0.4916
vn 0.8623 -0.4916 0.1216
vn 0.7727 -0.4488 0.4488
vn 0.1280 -0.1280 -0.9835
vn 0.9835 -0.1280 -0.1280
vn 0.1280 -0.9835 -0.1280
vn 0.4916 -0.1216 -0.8623
vn 0.1216 -0.4916 -0.8623
vn 0.4488 -0.4488 -0.7727
vn 0.8623 -0.4916 -0.1216
vn 0.8623 -0.1216 -0.4916
vn 0.7727 -0.4488 -0.4488
vn 0.1216 -0.8623 -0.4916
vn 0.4916 -0.8623 -0.1216
vn 0.4488 -0.7727 -0.4488
vn -0.9835 -0.1280 -0.1280
vn -0.1280 -0.1280 -0.9835
vn -0.1280 -0.9835 -0.1280
vn -0.8623 -0.1216 -0.4916
vn -0.8623 -0.4916 -0.1216
vn -0.7727 -0.4488 -0.4488
vn -0.1216 -0.4916 -0.8623
vn -0.4916 -0.1216 -0.8623
vn -0.4488 -0.4488 -0.7727
vn -0.4916 -0.8623 -0.1216
vn -0.1216 -0.8623 -0.4916
vn -0.4488 -0.7727 -0.4488
vn 0.8999 0.4196 0.1185
vn 0.1185 0.4196 0.8999
vn 0.7952 0.3961 0.4591
vn 0.4591 0.3961 0.7952
vn 0.1185 0.4196 -0.8999
vn 0.8999 0.4196 -0.1185
vn 0.4591 0.3961 -0.7952
vn 0.7952 0.3961 -0.4591
vn -0.1185 0.4196 0.8999
vn -0.8999 0.4196 0.1185
vn -0.4591 0.3961 0.7952
vn -0.7952 0.3961 0.4591
vn -0.8999 0.4196 -0.1185
vn -0.1185 0.4196 -0.8999
vn -0.7952 0.3961 -0.4591
vn -0.4591 0.3961 -0.7952
vn -0.8999 -0.4196 0.1185
vn -0.1185 -0.4196 0.8999
vn -0.7952 -0.3961 0.4591
vn -0.4591 -0.3961 0.7952
vn 0.1185 -0.4196 0.8999
vn 0.8999 -0.4196 0.1185
vn 0.4591 -0.3961 0.7952
vn 0.7952 -0.3961 0.4591
vn 0.8999 -0.4196 -0.1185
vn 0.1185 -0.4196 -0.8999
vn 0.7952 -0.3961 -0.4591
vn 0.4591 -0.3961 -0.7952
vn -0.1185 -0.4196 -0.8999
vn -0.8999 -0.4196 -0.1185
vn -0.4591 -0.3961 -0.7952
vn -0.7952 -0.3961 -0.4591
vn -0.9835 0.1280 0.1280
vn -0.1280 0.1280 0.9835
vn -0.1280 0.9835 0.1280
vn -0.8623 0.1216 0.4916
vn -0.8623 0.4916 0.1216
vn -0.7727 0.4488 0.4488
vn -0.1216 0.4916 0.8623
vn -0.4916 0.1216 0.8623
vn -0.4488 0.4488 0.7727
vn -0.4916 0.8623 0.1216
vn -0.1216 0.8623 0.4916
vn -0.4488 0.7727 0.4488
vn 0.1280 0.1280 0.9835
vn 0.9835 0.1280 0.1280
vn 0.1280 0.9835 0.1280
vn 0.4916 0.1216 0.8623
vn 0.1216 0.4916 0.8623
vn 0.4488 0.4488 0.7727
vn 0.8623 0.4916 0.1216
vn 0.8623 0.1216 0.4916
vn 0.7727 0.4488 0.4488
vn 0.1216 0.8623 0.4916
vn 0.4916 0.8623 0.1216
vn 0.4488 0.7727 0.4488
vn 0.9835 0.1280 -0.1280
vn 0.1280 0.1280 -0.9835
vn 0.1280 0.9835 -0.1280
vn 0.8623 0.1216 -0.4916
vn 0.8623 0.4916 -0.1216
vn 0.7727 0.4488 -0.4488
vn 0.1216 0.4916 -0.8623
vn 0.4916 0.1216 -0.8623
vn 0.4488 0.4488 -0.7727
vn 0.4916 0.8623 -0.1216
vn 0.1216 0.8623 -0.4916
vn 0.4488 0.7727 -0.4488
vn -0.9835 0.1280 -0.1280
vn -0.1280 0.9835 -0.1280
vn -0.1280 0.1280 -0.9835
vn -0.8623 0.4916 -0.1216
vn -0.8623 0.1216 -0.4916
vn -0.7727 0.4488 -0.4488
vn -0.1216 0.8623 -0.4916
vn -0.4916 0.8623 -0.1216
vn -0.4488 0.7727 -0.4488
vn -0.4916 0.1216 -0.8623
vn -0.1216 0.4916 -0.8623
vn -0.4488 0.4488 -0.7727
vt -0.350000 0.500000
vt 0.350000 -0.350000
vt -0.350000 -0.350000
vt 0.350000 0.500000
vt -0.350000 1.500000
vt -0.350000 0.350000
vt 0.350000 1.500000
vt 0.500000 -0.350000
vt -0.500000 0.350000
vt -0.350000 2.350000
vt 0.500000 0.350000
vt 0.350000 -0.500000
vt 0.350000 2.350000
vt -0.424902 -0.350000
vt -0.350000 -0.424902
vt -0.460495 -0.421732
vt -0.479961 -0.350000
vt -0.350000 -0.479961
vt -0.421732 -0.421732
vt -0.421732 -0.460495
vt 0.350000 -0.424902
vt 0.424902 -0.350000
vt 0.421732 -0.460495
vt 0.350000 -0.479961
vt 0.460495 -0.421732
vt 0.479961 -0.350000
vt 0.424902 0.350000
vt 0.460495 0.421732
vt 0.479961 0.350000
vt 0.350000 0.424902
vt 0.350000 0.350000
vt 0.421732 -0.421732
vt -0.350000 0.424902
vt -0.421732 0.460495
vt -0.350000 0.479961
vt -0.424902 0.350000
vt -0.424902 2.350000
vt -0.350000 2.424901
vt -0.479961 2.350000
vt -0.421732 2.421732
vt 0.424902 2.350000
vt 0.350000 2.424901
vt -0.460495 2.421732
vt 0.479961 2.350000
vt 0.421732 2.421732
vt 0.421732 0.460495
vt 0.350000 0.479961
vt 0.421732 0.421732
vt -0.460495 0.421732
vt -0.479961 0.350000
vt -0.421732 0.421732
vt 0.460495 2.421732
vt -0.425000 0.500000
vt 0.425000 0.500000
vt 0.479904 0.500000
vt -0.425000 1.500000
vt -0.479904 1.500000
vt 0.425000 1.500000
vt 0.479904 1.500000
vt -0.479904 0.500000
vt -0.500000 -0.350000
vt -0.350000 -0.500000
vt -0.479904 -0.425000
vt -0.425000 -0.479904
vt 0.425000 -0.479904
vt 0.479904 -0.425000
vt 0.479904 0.425000
vt 0.425000 0.479904
vt -0.425000 0.479904
vt -0.479904 0.425000
s 1
usemtl ClayMat_17
f 58/1/58 37/2/37 2/3/2
f 50/4/50 66/5/66 57/1/57
f 39/6/39 14/2/14 3/3/3
f 54/4/54 70/5/70 49/1/49
f 38/3/38 53/4/53 25/2/25
f 26/2/26 49/1/49 15/3/15
f 62/1/62 74/7/74 53/4/53
f 65/5/65 61/4/61 58/1/58
f 49/8/49 53/4/53 61/9/61
f 69/7/69 82/10/82 66/5/66
f 81/10/81 78/7/78 65/5/65
f 77/1/77 73/11/73 69/12/69
f 95/2/95 118/6/118 83/3/83
f 77/5/77 106/13/106 74/7/74
f 73/7/73 94/10/94 70/5/70
f 4/14/4 5/15/5 1/3/1
f 8/14/8 6/16/6 4/17/4
f 7/15/7 8/14/8 2/3/2
f 11/14/11 9/16/9 7/17/7
f 10/15/10 11/14/11 3/3/3
f 10/18/10 6/19/6 12/20/12
f 6/16/6 9/19/9 12/20/12
f 16/21/16 17/22/17 13/2/13
f 20/21/20 18/23/18 16/24/16
f 19/22/19 20/21/20 14/2/14
f 19/18/19 24/19/24 21/20/21
f 22/14/22 23/15/23 15/3/15
f 17/22/17 24/25/24 22/26/22
f 18/16/18 21/20/21 24/19/24
f 28/22/28 29/21/29 25/2/25
f 32/22/32 30/25/30 28/26/28
f 31/21/31 32/22/32 26/2/26
f 35/27/35 33/28/33 31/29/31
f 34/30/34 35/27/35 27/31/27
f 34/24/34 30/32/30 36/23/36
f 30/25/30 33/32/33 36/23/36
f 40/22/40 41/21/41 37/2/37
f 44/14/44 42/16/42 40/17/40
f 43/15/43 44/14/44 38/3/38
f 47/33/47 45/34/45 43/35/43
f 46/36/46 47/33/47 39/6/39
f 46/24/46 42/32/42 48/23/48
f 42/32/42 45/25/45 48/23/48
f 84/37/84 85/38/85 81/10/81
f 88/39/88 86/40/86 84/37/84
f 87/38/87 88/37/88 82/10/82
f 91/15/91 89/20/89 87/18/87
f 90/14/90 91/15/91 83/3/83
f 90/14/90 86/16/86 92/19/92
f 86/16/86 89/20/89 92/19/92
f 96/41/96 97/42/97 93/13/93
f 100/37/100 98/43/98 96/39/96
f 99/38/99 100/37/100 94/10/94
f 103/22/103 101/25/101 99/26/99
f 102/21/102 103/22/103 95/2/95
f 102/21/102 98/23/98 104/32/104
f 98/23/98 101/25/101 104/32/104
f 108/41/108 109/42/109 105/13/105
f 112/44/112 110/45/110 108/41/108
f 111/42/111 112/41/112 106/13/106
f 115/30/115 113/46/113 111/47/111
f 114/27/114 115/30/115 107/31/107
f 114/27/114 110/28/110 116/48/116
f 110/28/110 113/46/113 116/48/116
f 120/42/120 121/41/121 117/13/117
f 124/36/124 122/49/122 120/50/120
f 123/33/123 124/36/124 118/6/118
f 123/33/123 128/34/128 125/51/125
f 126/37/126 127/38/127 119/10/119
f 121/41/121 128/52/128 126/44/126
f 122/49/122 125/51/125 128/34/128
f 1/3/1 16/21/16 13/2/13
f 5/15/5 20/24/20 16/21/16
f 10/15/10 14/2/14 20/21/20
f 37/2/37 7/15/7 2/3/2
f 41/21/41 11/18/11 7/15/7
f 46/36/46 3/3/3 11/14/11
f 25/2/25 43/15/43 38/3/38
f 29/21/29 47/18/47 43/15/43
f 34/30/34 39/6/39 47/33/47
f 15/3/15 31/21/31 26/2/26
f 23/15/23 35/24/35 31/21/31
f 19/22/19 27/31/27 35/27/35
f 49/1/49 22/14/22 15/3/15
f 51/53/51 17/17/17 22/14/22
f 17/22/17 50/4/50 13/2/13
f 54/4/54 32/22/32 56/54/56
f 32/22/32 55/55/55 56/54/56
f 28/22/28 53/4/53 55/54/55
f 81/10/81 120/42/120 117/13/117
f 85/17/85 124/36/124 120/50/120
f 90/14/90 118/6/118 124/36/124
f 93/13/93 87/38/87 82/10/82
f 97/24/97 91/15/91 87/18/87
f 102/21/102 83/3/83 91/15/91
f 105/13/105 99/38/99 94/10/94
f 109/29/109 103/22/103 99/26/99
f 114/27/114 95/2/95 103/22/103
f 119/10/119 111/42/111 106/13/106
f 127/35/127 115/30/115 111/47/111
f 123/33/123 107/31/107 115/30/115
f 65/5/65 84/37/84 81/10/81
f 67/56/67 88/39/88 84/37/84
f 88/37/88 66/5/66 82/10/82
f 70/5/70 100/37/100 72/56/72
f 100/37/100 71/57/71 72/56/72
f 96/41/96 69/7/69 71/58/71
f 73/7/73 108/41/108 105/13/105
f 75/58/75 112/44/112 108/41/108
f 112/41/112 74/7/74 106/13/106
f 78/7/78 121/41/121 80/58/80
f 121/41/121 79/59/79 80/58/80
f 126/37/126 77/5/77 79/56/79
f 58/1/58 8/14/8 60/53/60
f 8/14/8 59/60/59 60/53/60
f 4/14/4 57/1/57 59/53/59
f 61/4/61 40/22/40 37/2/37
f 63/54/63 44/26/44 40/22/40
f 44/14/44 62/1/62 38/3/38
f 58/1/58 67/56/67 65/5/65
f 60/53/60 68/57/68 67/56/67
f 59/53/59 66/5/66 68/56/68
f 70/5/70 51/53/51 49/1/49
f 72/56/72 52/60/52 51/53/51
f 71/58/71 50/4/50 52/54/52
f 54/4/54 75/58/75 73/7/73
f 56/54/56 76/59/76 75/58/75
f 55/54/55 74/7/74 76/58/76
f 78/7/78 63/54/63 61/4/61
f 80/58/80 64/55/64 63/54/63
f 79/56/79 62/1/62 64/53/64
f 13/2/13 57/1/57 1/3/1
f 58/1/58 61/4/61 37/2/37
f 50/4/50 69/7/69 66/5/66
f 39/6/39 27/31/27 14/2/14
f 54/4/54 73/7/73 70/5/70
f 38/3/38 62/1/62 53/4/53
f 26/2/26 54/4/54 49/1/49
f 62/1/62 77/5/77 74/7/74
f 65/5/65 78/7/78 61/4/61
f 61/9/61 58/61/58 57/62/57
f 58/61/58 60/63/60 57/62/57
f 60/63/60 59/64/59 57/62/57
f 57/62/57 50/12/50 49/8/49
f 50/12/50 52/65/52 49/8/49
f 52/65/52 51/66/51 49/8/49
f 49/8/49 54/11/54 53/4/53
f 54/11/54 56/67/56 53/4/53
f 56/67/56 55/68/55 53/4/53
f 53/4/53 62/1/62 61/9/61
f 62/1/62 64/69/64 61/9/61
f 64/69/64 63/70/63 61/9/61
f 61/9/61 57/62/57 49/8/49
f 69/7/69 93/13/93 82/10/82
f 81/10/81 117/13/117 78/7/78
f 69/12/69 66/62/66 65/61/65
f 66/62/66 68/64/68 65/61/65
f 68/64/68 67/63/67 65/61/65
f 65/61/65 78/9/78 77/1/77
f 78/9/78 80/70/80 77/1/77
f 80/70/80 79/69/79 77/1/77
f 77/1/77 74/4/74 73/11/73
f 74/4/74 76/68/76 73/11/73
f 76/68/76 75/67/75 73/11/73
f 73/11/73 70/8/70 69/12/69
f 70/8/70 72/66/72 69/12/69
f 72/66/72 71/65/71 69/12/69
f 69/12/69 65/61/65 77/1/77
f 95/2/95 107/31/107 118/6/118
f 77/5/77 119/10/119 106/13/106
f 73/7/73 105/13/105 94/10/94
f 4/14/4 6/19/6 5/15/5
f 8/14/8 9/19/9 6/16/6
f 7/15/7 9/19/9 8/14/8
f 11/18/11 12/20/12 9/19/9
f 10/15/10 12/19/12 11/14/11
f 10/18/10 5/15/5 6/19/6
f 16/21/16 18/32/18 17/22/17
f 20/24/20 21/23/21 18/32/18
f 19/22/19 21/32/21 20/21/20
f 19/18/19 23/15/23 24/19/24
f 22/14/22 24/19/24 23/15/23
f 17/17/17 18/16/18 24/19/24
f 28/22/28 30/32/30 29/21/29
f 32/22/32 33/32/33 30/25/30
f 31/21/31 33/32/33 32/22/32
f 35/24/35 36/23/36 33/32/33
f 34/30/34 36/48/36 35/27/35
f 34/24/34 29/21/29 30/32/30
f 40/22/40 42/32/42 41/21/41
f 44/26/44 45/25/45 42/32/42
f 43/15/43 45/19/45 44/14/44
f 47/18/47 48/20/48 45/19/45
f 46/36/46 48/51/48 47/33/47
f 46/24/46 41/21/41 42/32/42
f 84/37/84 86/40/86 85/38/85
f 88/39/88 89/43/89 86/40/86
f 87/38/87 89/40/89 88/37/88
f 91/15/91 92/19/92 89/20/89
f 90/14/90 92/19/92 91/15/91
f 90/14/90 85/17/85 86/16/86
f 96/41/96 98/45/98 97/42/97
f 100/37/100 101/40/101 98/43/98
f 99/38/99 101/40/101 100/37/100
f 103/22/103 104/32/104 101/25/101
f 102/21/102 104/32/104 103/22/103
f 102/21/102 97/24/97 98/23/98
f 108/41/108 110/45/110 109/42/109
f 112/44/112 113/52/113 110/45/110
f 111/42/111 113/45/113 112/41/112
f 115/30/115 116/48/116 113/46/113
f 114/27/114 116/48/116 115/30/115
f 114/27/114 109/29/109 110/28/110
f 120/42/120 122/45/122 121/41/121
f 124/36/124 125/51/125 122/49/122
f 123/33/123 125/51/125 124/36/124
f 123/33/123 127/35/127 128/34/128
f 126/37/126 128/40/128 127/38/127
f 121/41/121 122/45/122 128/52/128
f 1/3/1 5/15/5 16/21/16
f 5/15/5 10/18/10 20/24/20
f 10/15/10 3/3/3 14/2/14
f 37/2/37 41/21/41 7/15/7
f 41/21/41 46/24/46 11/18/11
f 46/36/46 39/6/39 3/3/3
f 25/2/25 29/21/29 43/15/43
f 29/21/29 34/24/34 47/18/47
f 34/30/34 27/31/27 39/6/39
f 15/3/15 23/15/23 31/21/31
f 23/15/23 19/18/19 35/24/35
f 19/22/19 14/2/14 27/31/27
f 49/1/49 51/53/51 22/14/22
f 51/53/51 52/60/52 17/17/17
f 17/22/17 52/54/52 50/4/50
f 54/4/54 26/2/26 32/22/32
f 32/22/32 28/26/28 55/55/55
f 28/22/28 25/2/25 53/4/53
f 81/10/81 85/38/85 120/42/120
f 85/17/85 90/14/90 124/36/124
f 90/14/90 83/3/83 118/6/118
f 93/13/93 97/42/97 87/38/87
f 97/24/97 102/21/102 91/15/91
f 102/21/102 95/2/95 83/3/83
f 105/13/105 109/42/109 99/38/99
f 109/29/109 114/27/114 103/22/103
f 114/27/114 107/31/107 95/2/95
f 119/10/119 127/38/127 111/42/111
f 127/35/127 123/33/123 115/30/115
f 123/33/123 118/6/118 107/31/107
f 65/5/65 67/56/67 84/37/84
f 67/56/67 68/57/68 88/39/88
f 88/37/88 68/56/68 66/5/66
f 70/5/70 94/10/94 100/37/100
f 100/37/100 96/39/96 71/57/71
f 96/41/96 93/13/93 69/7/69
f 73/7/73 75/58/75 108/41/108
f 75/58/75 76/59/76 112/44/112
f 112/41/112 76/58/76 74/7/74
f 78/7/78 117/13/117 121/41/121
f 121/41/121 126/44/126 79/59/79
f 126/37/126 119/10/119 77/5/77
f 58/1/58 2/3/2 8/14/8
f 8/14/8 4/17/4 59/60/59
f 4/14/4 1/3/1 57/1/57
f 61/4/61 63/54/63 40/22/40
f 63/54/63 64/55/64 44/26/44
f 44/14/44 64/53/64 62/1/62
f 58/1/58 60/53/60 67/56/67
f 60/53/60 59/60/59 68/57/68
f 59/53/59 57/1/57 66/5/66
f 70/5/70 72/56/72 51/53/51
f 72/56/72 71/57/71 52/60/52
f 71/58/71 69/7/69 50/4/50
f 54/4/54 56/54/56 75/58/75
f 56/54/56 55/55/55 76/59/76
f 55/54/55 53/4/53 74/7/74
f 78/7/78 80/58/80 63/54/63
f 80/58/80 79/59/79 64/55/64
f 79/56/79 77/5/77 62/1/62
f 13/2/13 50/4/50 57/1/57
