# Blender 4.5.3 LTS
# www.blender.org
mtllib __clay_block_04_45.mtl
o clay_block_45
v -0.500000 -0.350000 0.500000
v -0.500000 -0.500000 0.350000
v -0.500000 -0.425000 0.479904
v -0.500000 -0.479904 0.425000
v 0.350000 -0.350000 0.500000
v 0.350000 -0.500000 0.350000
v 0.500000 -0.350000 0.350000
v 0.350000 -0.424902 0.479961
v 0.424902 -0.350000 0.479961
v 0.421732 -0.421732 0.460495
v 0.424902 -0.479961 0.350000
v 0.350000 -0.479961 0.424902
v 0.421732 -0.460495 0.421732
v 0.479961 -0.350000 0.424902
v 0.479961 -0.424902 0.350000
v 0.460495 -0.421732 0.421732
v 0.350000 -0.500000 -0.350000
v 0.350000 -0.350000 -0.500000
v 0.500000 -0.350000 -0.350000
v 0.350000 -0.479961 -0.424902
v 0.424902 -0.479961 -0.350000
v 0.421732 -0.460495 -0.421732
v 0.424902 -0.350000 -0.479961
v 0.350000 -0.424902 -0.479961
v 0.421732 -0.421732 -0.460495
v 0.479961 -0.424902 -0.350000
v 0.479961 -0.350000 -0.424902
v 0.460495 -0.421732 -0.421732
v 0.350000 0.500000 0.350000
v 0.350000 0.350000 0.500000
v 0.500000 0.350000 0.350000
v 0.350000 0.479961 0.424902
v 0.424902 0.479961 0.350000
v 0.421732 0.460495 0.421732
v 0.424902 0.350000 0.479961
v 0.350000 0.424902 0.479961
v 0.421732 0.421732 0.460495
v 0.479961 0.424902 0.350000
v 0.479961 0.350000 0.424902
v 0.460495 0.421732 0.421732
v 0.350000 0.500000 -0.350000
v 0.500000 0.350000 -0.350000
v 0.350000 0.350000 -0.500000
v 0.424902 0.479961 -0.350000
v 0.350000 0.479961 -0.424902
v 0.421732 0.460495 -0.421732
v 0.479961 0.350000 -0.424902
v 0.479961 0.424902 -0.350000
v 0.460495 0.421732 -0.421732
v 0.350000 0.424902 -0.479961
v 0.424902 0.350000 -0.479961
v 0.421732 0.421732 -0.460495
v -1.500000 -0.350000 0.500000
v -1.500000 -0.500000 0.350000
v -1.500000 -0.425000 0.479904
v -1.500000 -0.479904 0.425000
v -0.500000 -0.500000 -0.350000
v -0.500000 -0.350000 -0.500000
v -0.500000 -0.479904 -0.425000
v -0.500000 -0.425000 -0.479904
v -1.500000 0.500000 0.350000
v -1.500000 0.350000 0.500000
v -1.500000 0.479904 0.425000
v -1.500000 0.425000 0.479904
v -0.500000 0.350000 0.500000
v -0.500000 0.500000 0.350000
v -0.500000 0.425000 0.479904
v -0.500000 0.479904 0.425000
v -0.500000 0.500000 -0.350000
v -0.500000 0.350000 -0.500000
v -0.500000 0.479904 -0.425000
v -0.500000 0.425000 -0.479904
v -1.500000 0.350000 -0.500000
v -1.500000 0.500000 -0.350000
v -1.500000 0.425000 -0.479904
v -1.500000 0.479904 -0.425000
v -1.500000 -0.500000 -0.350000
v -1.500000 -0.350000 -0.500000
v -1.500000 -0.479904 -0.425000
v -1.500000 -0.425000 -0.479904
v -2.500000 0.350000 -0.500000
v -2.500000 0.500000 -0.350000
v -2.500000 0.425000 -0.479904
v -2.500000 0.479904 -0.425000
v -3.350000 -0.350000 0.500000
v -3.500000 -0.350000 0.350000
v -3.350000 -0.500000 0.350000
v -3.424901 -0.350000 0.479961
v -3.350000 -0.424902 0.479961
v -3.421732 -0.421732 0.460495
v -3.479960 -0.424902 0.350000
v -3.479960 -0.350000 0.424902
v -3.460495 -0.421732 0.421732
v -3.350000 -0.479961 0.424902
v -3.424901 -0.479961 0.350000
v -3.421732 -0.460495 0.421732
v -2.500000 -0.500000 0.350000
v -2.500000 -0.350000 0.500000
v -2.500000 -0.479904 0.425000
v -2.500000 -0.425000 0.479904
v -2.500000 -0.350000 -0.500000
v -2.500000 -0.500000 -0.350000
v -2.500000 -0.425000 -0.479904
v -2.500000 -0.479904 -0.425000
v -3.500000 -0.350000 -0.350000
v -3.350000 -0.350000 -0.500000
v -3.350000 -0.500000 -0.350000
v -3.479960 -0.350000 -0.424902
v -3.479960 -0.424902 -0.350000
v -3.460495 -0.421732 -0.421732
v -3.350000 -0.424902 -0.479961
v -3.424901 -0.350000 -0.479961
v -3.421732 -0.421732 -0.460495
v -3.424901 -0.479961 -0.350000
v -3.350000 -0.479961 -0.424902
v -3.421732 -0.460495 -0.421732
v -3.500000 0.350000 0.350000
v -3.350000 0.350000 0.500000
v -3.350000 0.500000 0.350000
v -3.479960 0.350000 0.424902
v -3.479960 0.424902 0.350000
v -3.460495 0.421732 0.421732
v -3.350000 0.424902 0.479961
v -3.424901 0.350000 0.479961
v -3.421732 0.421732 0.460495
v -3.424901 0.479961 0.350000
v -3.350000 0.479961 0.424902
v -3.421732 0.460495 0.421732
v -2.500000 0.350000 0.500000
v -2.500000 0.500000 0.350000
v -2.500000 0.425000 0.479904
v -2.500000 0.479904 0.425000
v -3.350000 0.500000 -0.350000
v -3.350000 0.350000 -0.500000
v -3.500000 0.350000 -0.350000
v -3.350000 0.479961 -0.424902
v -3.424901 0.479961 -0.350000
v -3.421732 0.460495 -0.421732
v -3.424901 0.350000 -0.479961
v -3.350000 0.424902 -0.479961
v -3.421732 0.421732 -0.460495
v -3.479960 0.424902 -0.350000
v -3.479960 0.350000 -0.424902
v -3.460495 0.421732 -0.421732
vn -0.4196 -0.1185 0.8999
vn -0.4196 -0.8999 0.1185
vn -0.3961 -0.4591 0.7952
vn -0.3961 -0.7952 0.4591
vn 0.1280 -0.1280 0.9835
vn 0.1280 -0.9835 0.1280
vn 0.9835 -0.1280 0.1280
vn 0.1216 -0.4916 0.8623
vn 0.4916 -0.1216 0.8623
vn 0.4488 -0.4488 0.7727
vn 0.4916 -0.8623 0.1216
vn 0.1216 -0.8623 0.4916
vn 0.4488 -0.7727 0.4488
vn 0.8623 -0.1216 0.4916
vn 0.8623 -0.4916 0.1216
vn 0.7727 -0.4488 0.4488
vn 0.1280 -0.9835 -0.1280
vn 0.1280 -0.1280 -0.9835
vn 0.9835 -0.1280 -0.1280
vn 0.1216 -0.8623 -0.4916
vn 0.4916 -0.8623 -0.1216
vn 0.4488 -0.7727 -0.4488
vn 0.4916 -0.1216 -0.8623
vn 0.1216 -0.4916 -0.8623
vn 0.4488 -0.4488 -0.7727
vn 0.8623 -0.4916 -0.1216
vn 0.8623 -0.1216 -0.4916
vn 0.7727 -0.4488 -0.4488
vn 0.1280 0.9835 0.1280
vn 0.1280 0.1280 0.9835
vn 0.9835 0.1280 0.1280
vn 0.1216 0.8623 0.4916
vn 0.4916 0.8623 0.1216
vn 0.4488 0.7727 0.4488
vn 0.4916 0.1216 0.8623
vn 0.1216 0.4916 0.8623
vn 0.4488 0.4488 0.7727
vn 0.8623 0.4916 0.1216
vn 0.8623 0.1216 0.4916
vn 0.7727 0.4488 0.4488
vn 0.1280 0.9835 -0.1280
vn 0.9835 0.1280 -0.1280
vn 0.1280 0.1280 -0.9835
vn 0.4916 0.8623 -0.1216
vn 0.1216 0.8623 -0.4916
vn 0.4488 0.7727 -0.4488
vn 0.8623 0.1216 -0.4916
vn 0.8623 0.4916 -0.1216
vn 0.7727 0.4488 -0.4488
vn 0.1216 0.4916 -0.8623
vn 0.4916 0.1216 -0.8623
vn 0.4488 0.4488 -0.7727
vn -0.4196 -0.8999 -0.1185
vn -0.4196 -0.1185 -0.8999
vn -0.3961 -0.7952 -0.4591
vn -0.3961 -0.4591 -0.7952
vn -0.4196 0.8999 0.1185
vn -0.4196 0.1185 0.8999
vn -0.3961 0.7952 0.4591
vn -0.3961 0.4591 0.7952
vn -0.4196 0.8999 -0.1185
vn -0.4196 0.1185 -0.8999
vn -0.3961 0.7952 -0.4591
vn -0.3961 0.4591 -0.7952
vn -0.1280 -0.1280 0.9835
vn -0.9835 -0.1280 0.1280
vn -0.1280 -0.9835 0.1280
vn -0.4916 -0.1216 0.8623
vn -0.1216 -0.4916 0.8623
vn -0.4488 -0.4488 0.7727
vn -0.8623 -0.4916 0.1216
vn -0.8623 -0.1216 0.4916
vn -0.7727 -0.4488 0.4488
vn -0.1216 -0.8623 0.4916
vn -0.4916 -0.8623 0.1216
vn -0.4488 -0.7727 0.4488
vn -0.9835 -0.1280 -0.1280
vn -0.1280 -0.1280 -0.9835
vn -0.1280 -0.9835 -0.1280
vn -0.8623 -0.1216 -0.4916
vn -0.8623 -0.4916 -0.1216
vn -0.7727 -0.4488 -0.4488
vn -0.1216 -0.4916 -0.8623
vn -0.4916 -0.1216 -0.8623
vn -0.4488 -0.4488 -0.7727
vn -0.4916 -0.8623 -0.1216
vn -0.1216 -0.8623 -0.4916
vn -0.4488 -0.7727 -0.4488
vn -0.9835 0.1280 0.1280
vn -0.1280 0.1280 0.9835
vn -0.1280 0.9835 0.1280
vn -0.8623 0.1216 0.4916
vn -0.8623 0.4916 0.1216
vn -0.7727 0.4488 0.4488
vn -0.1216 0.4916 0.8623
vn -0.4916 0.1216 0.8623
vn -0.4488 0.4488 0.7727
vn -0.4916 0.8623 0.1216
vn -0.1216 0.8623 0.4916
vn -0.4488 0.7727 0.4488
vn -0.1280 0.9835 -0.1280
vn -0.1280 0.1280 -0.9835
vn -0.9835 0.1280 -0.1280
vn -0.1216 0.8623 -0.4916
vn -0.4916 0.8623 -0.1216
vn -0.4488 0.7727 -0.4488
vn -0.4916 0.1216 -0.8623
vn -0.1216 0.4916 -0.8623
vn -0.4488 0.4488 -0.7727
vn -0.8623 0.4916 -0.1216
vn -0.8623 0.1216 -0.4916
vn -0.7727 0.4488 -0.4488
vt 0.350000 -0.424902
vt 0.424902 -0.350000
vt 0.350000 -0.350000
vt 0.421732 -0.460495
vt 0.350000 -0.479961
vt -0.350000 -0.479961
vt -0.421732 -0.421732
vt -0.421732 -0.460495
vt -0.424902 -0.350000
vt -0.350000 -0.424902
vt -0.350000 -0.350000
vt 0.460495 -0.421732
vt 0.479961 -0.350000
vt -0.460495 -0.421732
vt 0.350000 0.424902
vt 0.424902 0.350000
vt 0.350000 0.350000
vt 0.421732 -0.421732
vt 0.460495 0.421732
vt 0.479961 0.350000
vt 0.350000 0.479961
vt 0.421732 0.421732
vt 0.421732 0.460495
vt -0.424902 0.350000
vt -0.460495 0.421732
vt -0.479961 0.350000
vt -0.350000 0.424902
vt -0.350000 0.350000
vt -0.421732 0.460495
vt -0.421732 0.421732
vt -3.424901 -0.350000
vt -3.350000 -0.424902
vt -3.350000 -0.350000
vt -0.479961 -0.350000
vt -3.350000 -0.479961
vt -3.421732 -0.421732
vt -3.421732 -0.460495
vt -3.424901 0.350000
vt -3.350000 0.424902
vt -3.350000 0.350000
vt -3.350000 0.479961
vt -3.421732 0.421732
vt -0.350000 0.479961
vt -3.421732 0.460495
vt -0.500000 -0.350000
vt -0.500000 -0.425000
vt -0.500000 0.350000
vt -1.500000 0.425000
vt -1.500000 0.350000
vt -0.500000 0.425000
vt -1.500000 0.479904
vt -1.500000 -0.350000
vt -1.500000 -0.425000
vt -0.500000 0.479904
vt -2.500000 -0.350000
vt -2.500000 -0.425000
vt -2.500000 -0.479904
vt -2.500000 0.350000
vt -2.500000 0.425000
vt -0.500000 -0.479904
vt -1.500000 -0.479904
vt -2.500000 0.479904
vt -0.350000 0.500000
vt 0.500000 0.350000
vt 0.350000 -0.500000
vt -0.350000 -0.500000
vt -0.425000 -0.479904
vt -0.479904 -0.425000
vt -0.479904 0.425000
vt -0.425000 0.479904
vt 0.350000 0.500000
vt 0.425000 0.479904
vt 0.479904 0.425000
vt 0.500000 -0.350000
vt 0.479904 -0.425000
vt 0.425000 -0.479904
s 1
usemtl ClayMat_45
f 8/1/8 9/2/9 5/3/5
f 12/1/12 10/4/10 8/5/8
f 11/2/11 12/1/12 6/3/6
f 11/6/11 16/7/16 13/8/13
f 14/9/14 15/10/15 7/11/7
f 9/2/9 16/12/16 14/13/14
f 10/14/10 13/8/13 16/7/16
f 20/15/20 21/16/21 17/17/17
f 20/5/20 25/18/25 22/4/22
f 23/2/23 24/1/24 18/3/18
f 27/2/27 25/12/25 23/13/23
f 26/1/26 27/2/27 19/3/19
f 21/16/21 28/19/28 26/20/26
f 22/4/22 25/12/25 28/18/28
f 32/1/32 33/2/33 29/3/29
f 32/21/32 37/22/37 34/23/34
f 35/16/35 36/15/36 30/17/30
f 39/24/39 37/25/37 35/26/35
f 38/27/38 39/24/39 31/28/31
f 33/2/33 40/12/40 38/13/38
f 34/29/34 37/25/37 40/30/40
f 44/16/44 45/15/45 41/17/41
f 44/21/44 49/22/49 46/23/46
f 47/16/47 48/15/48 42/17/42
f 51/16/51 49/19/49 47/20/47
f 50/15/50 51/16/51 43/17/43
f 45/15/45 52/23/52 50/21/50
f 46/23/46 49/22/49 52/19/52
f 88/31/68 89/32/69 85/33/65
f 88/34/68 93/7/73 90/14/70
f 91/10/71 92/9/72 86/11/66
f 91/10/71 96/8/76 93/7/73
f 94/32/74 95/31/75 87/33/67
f 94/35/74 90/36/70 96/37/76
f 90/14/70 93/7/73 96/8/76
f 108/2/80 109/1/81 105/3/77
f 112/13/84 110/18/82 108/2/80
f 111/32/83 112/31/84 106/33/78
f 115/35/87 113/36/85 111/32/83
f 114/38/86 115/39/87 107/40/79
f 109/1/81 116/4/88 114/5/86
f 110/18/82 113/12/85 116/4/88
f 120/24/92 121/27/93 117/28/89
f 124/26/96 122/30/94 120/24/92
f 123/39/95 124/38/96 118/40/90
f 127/41/99 125/42/97 123/39/95
f 126/31/98 127/32/99 119/33/91
f 121/27/93 128/29/100 126/43/98
f 122/30/94 125/25/97 128/29/100
f 136/39/104 137/38/105 133/40/101
f 136/41/104 141/42/109 138/44/106
f 139/38/107 140/39/108 134/40/102
f 139/20/107 144/22/112 141/19/109
f 142/15/110 143/16/111 135/17/103
f 142/15/110 138/23/106 144/22/112
f 138/23/106 141/19/109 144/22/112
f 1/45/1 8/1/8 5/3/5
f 3/46/3 12/5/12 8/1/8
f 12/1/12 2/45/2 6/3/6
f 7/11/7 26/1/26 19/3/19
f 15/10/15 21/5/21 26/1/26
f 11/2/11 17/17/17 21/16/21
f 42/17/42 38/27/38 31/28/31
f 48/15/48 33/43/33 38/27/38
f 44/16/44 29/3/29 33/2/33
f 31/28/31 14/9/14 7/11/7
f 39/24/39 9/34/9 14/9/14
f 35/16/35 5/3/5 9/2/9
f 19/3/19 47/16/47 42/17/42
f 27/2/27 51/20/51 47/16/47
f 23/2/23 43/17/43 51/16/51
f 65/47/58 64/48/60 62/49/58
f 67/50/60 63/51/59 64/48/60
f 68/46/59 61/52/57 63/53/59
f 73/49/62 72/50/64 70/47/62
f 75/48/64 71/54/63 72/50/64
f 76/48/63 69/47/61 71/50/63
f 98/55/1 89/32/69 100/56/3
f 89/32/69 99/57/4 100/56/3
f 94/32/74 97/55/2 99/56/4
f 86/11/66 109/1/81 91/10/71
f 109/1/81 95/6/75 91/10/71
f 114/38/86 87/33/67 95/31/75
f 101/55/54 111/32/83 106/33/78
f 103/56/56 115/35/87 111/32/83
f 115/39/87 102/58/53 107/40/79
f 135/17/103 121/27/93 142/15/110
f 121/27/93 137/21/105 142/15/110
f 126/31/98 133/40/101 137/38/105
f 129/58/58 123/39/95 118/40/90
f 131/59/60 127/41/99 123/39/95
f 127/32/99 130/55/57 119/33/91
f 86/11/66 120/24/92 117/28/89
f 92/9/72 124/26/96 120/24/92
f 88/31/68 118/40/90 124/38/96
f 135/17/103 108/2/80 105/3/77
f 143/16/111 112/13/84 108/2/80
f 139/38/107 106/33/78 112/31/84
f 58/45/54 24/1/24 60/46/56
f 24/1/24 59/60/55 60/46/56
f 20/15/20 57/47/53 59/50/55
f 65/47/58 36/15/36 67/50/60
f 36/15/36 68/54/59 67/50/60
f 32/1/32 66/45/57 68/46/59
f 70/47/62 50/15/50 43/17/43
f 72/50/64 45/21/45 50/15/50
f 45/15/45 69/47/61 41/17/41
f 53/52/1 3/46/3 1/45/1
f 55/53/3 4/60/4 3/46/3
f 56/53/4 2/45/2 4/46/4
f 58/45/54 80/53/56 78/52/54
f 60/46/56 79/61/55 80/53/56
f 59/50/55 77/49/53 79/48/55
f 98/55/1 55/53/3 53/52/1
f 100/56/3 56/61/4 55/53/3
f 99/56/4 54/52/2 56/53/4
f 78/52/54 103/56/56 101/55/54
f 80/53/56 104/57/55 103/56/56
f 79/48/55 102/58/53 104/59/55
f 62/49/58 131/59/60 129/58/58
f 64/48/60 132/62/59 131/59/60
f 63/53/59 130/55/57 132/56/59
f 81/58/62 75/48/64 73/49/62
f 83/59/64 76/51/63 75/48/64
f 84/59/63 74/49/61 76/48/63
f 81/58/62 140/39/108 83/59/64
f 140/39/108 84/62/63 83/59/64
f 136/39/104 82/58/61 84/59/63
f 5/3/5 65/47/58 1/45/1
f 57/47/53 6/3/6 2/45/2
f 1/45/1 62/49/58 53/52/1
f 66/63/57 70/64/62 57/65/53
f 77/49/53 2/45/2 54/52/2
f 19/3/19 31/28/31 7/11/7
f 58/45/54 43/17/43 18/3/18
f 29/3/29 69/47/61 66/45/57
f 53/52/1 129/58/58 98/55/1
f 61/63/57 73/64/62 77/65/53
f 102/58/53 54/52/2 97/55/2
f 78/52/54 70/47/62 58/45/54
f 61/52/57 82/58/61 130/55/57
f 66/45/57 74/49/61 61/52/57
f 101/55/54 73/49/62 78/52/54
f 130/55/57 133/40/101 119/33/91
f 106/33/78 81/58/62 101/55/54
f 130/63/57 81/64/62 102/65/53
f 98/55/1 118/40/90 85/33/65
f 107/40/79 97/55/2 87/33/67
f 117/28/89 105/3/77 86/11/66
f 8/1/8 10/18/10 9/2/9
f 12/5/12 13/4/13 10/18/10
f 11/2/11 13/18/13 12/1/12
f 11/6/11 15/10/15 16/7/16
f 14/9/14 16/7/16 15/10/15
f 9/34/9 10/14/10 16/7/16
f 20/15/20 22/22/22 21/16/21
f 20/5/20 24/1/24 25/18/25
f 23/2/23 25/18/25 24/1/24
f 27/2/27 28/18/28 25/12/25
f 26/1/26 28/18/28 27/2/27
f 21/5/21 22/4/22 28/18/28
f 32/1/32 34/18/34 33/2/33
f 32/21/32 36/15/36 37/22/37
f 35/16/35 37/22/37 36/15/36
f 39/24/39 40/30/40 37/25/37
f 38/27/38 40/30/40 39/24/39
f 33/43/33 34/29/34 40/30/40
f 44/16/44 46/22/46 45/15/45
f 44/21/44 48/15/48 49/22/49
f 47/16/47 49/22/49 48/15/48
f 51/20/51 52/19/52 49/22/49
f 50/15/50 52/22/52 51/16/51
f 45/21/45 46/23/46 52/22/52
f 88/31/68 90/36/70 89/32/69
f 88/34/68 92/9/72 93/7/73
f 91/10/71 93/7/73 92/9/72
f 91/10/71 95/6/75 96/8/76
f 94/32/74 96/36/76 95/31/75
f 94/35/74 89/32/69 90/36/70
f 108/2/80 110/18/82 109/1/81
f 112/13/84 113/12/85 110/18/82
f 111/32/83 113/36/85 112/31/84
f 115/35/87 116/37/88 113/36/85
f 114/38/86 116/42/88 115/39/87
f 109/1/81 110/18/82 116/4/88
f 120/24/92 122/30/94 121/27/93
f 124/26/96 125/25/97 122/30/94
f 123/39/95 125/42/97 124/38/96
f 127/41/99 128/44/100 125/42/97
f 126/31/98 128/36/100 127/32/99
f 121/27/93 122/30/94 128/29/100
f 136/39/104 138/42/106 137/38/105
f 136/41/104 140/39/108 141/42/109
f 139/38/107 141/42/109 140/39/108
f 139/20/107 143/16/111 144/22/112
f 142/15/110 144/22/112 143/16/111
f 142/15/110 137/21/105 138/23/106
f 1/45/1 3/46/3 8/1/8
f 3/46/3 4/60/4 12/5/12
f 12/1/12 4/46/4 2/45/2
f 7/11/7 15/10/15 26/1/26
f 15/10/15 11/6/11 21/5/21
f 11/2/11 6/3/6 17/17/17
f 42/17/42 48/15/48 38/27/38
f 48/15/48 44/21/44 33/43/33
f 44/16/44 41/17/41 29/3/29
f 31/28/31 39/24/39 14/9/14
f 39/24/39 35/26/35 9/34/9
f 35/16/35 30/17/30 5/3/5
f 19/3/19 27/2/27 47/16/47
f 27/2/27 23/13/23 51/20/51
f 23/2/23 18/3/18 43/17/43
f 65/47/58 67/50/60 64/48/60
f 67/50/60 68/54/59 63/51/59
f 68/46/59 66/45/57 61/52/57
f 73/49/62 75/48/64 72/50/64
f 75/48/64 76/51/63 71/54/63
f 76/48/63 74/49/61 69/47/61
f 98/55/1 85/33/65 89/32/69
f 89/32/69 94/35/74 99/57/4
f 94/32/74 87/33/67 97/55/2
f 86/11/66 105/3/77 109/1/81
f 109/1/81 114/5/86 95/6/75
f 114/38/86 107/40/79 87/33/67
f 101/55/54 103/56/56 111/32/83
f 103/56/56 104/57/55 115/35/87
f 115/39/87 104/59/55 102/58/53
f 135/17/103 117/28/89 121/27/93
f 121/27/93 126/43/98 137/21/105
f 126/31/98 119/33/91 133/40/101
f 129/58/58 131/59/60 123/39/95
f 131/59/60 132/62/59 127/41/99
f 127/32/99 132/56/59 130/55/57
f 86/11/66 92/9/72 120/24/92
f 92/9/72 88/34/68 124/26/96
f 88/31/68 85/33/65 118/40/90
f 135/17/103 143/16/111 108/2/80
f 143/16/111 139/20/107 112/13/84
f 139/38/107 134/40/102 106/33/78
f 58/45/54 18/3/18 24/1/24
f 24/1/24 20/5/20 59/60/55
f 20/15/20 17/17/17 57/47/53
f 65/47/58 30/17/30 36/15/36
f 36/15/36 32/21/32 68/54/59
f 32/1/32 29/3/29 66/45/57
f 70/47/62 72/50/64 50/15/50
f 72/50/64 71/54/63 45/21/45
f 45/15/45 71/50/63 69/47/61
f 53/52/1 55/53/3 3/46/3
f 55/53/3 56/61/4 4/60/4
f 56/53/4 54/52/2 2/45/2
f 58/45/54 60/46/56 80/53/56
f 60/46/56 59/60/55 79/61/55
f 59/50/55 57/47/53 77/49/53
f 98/55/1 100/56/3 55/53/3
f 100/56/3 99/57/4 56/61/4
f 99/56/4 97/55/2 54/52/2
f 78/52/54 80/53/56 103/56/56
f 80/53/56 79/61/55 104/57/55
f 79/48/55 77/49/53 102/58/53
f 62/49/58 64/48/60 131/59/60
f 64/48/60 63/51/59 132/62/59
f 63/53/59 61/52/57 130/55/57
f 81/58/62 83/59/64 75/48/64
f 83/59/64 84/62/63 76/51/63
f 84/59/63 82/58/61 74/49/61
f 81/58/62 134/40/102 140/39/108
f 140/39/108 136/41/104 84/62/63
f 136/39/104 133/40/101 82/58/61
f 5/3/5 30/17/30 65/47/58
f 57/47/53 17/17/17 6/3/6
f 1/45/1 65/47/58 62/49/58
f 57/65/53 2/66/2 1/45/1
f 2/66/2 4/67/4 1/45/1
f 4/67/4 3/68/3 1/45/1
f 1/45/1 65/47/58 66/63/57
f 65/47/58 67/69/60 66/63/57
f 67/69/60 68/70/59 66/63/57
f 66/63/57 69/71/61 70/64/62
f 69/71/61 71/72/63 70/64/62
f 71/72/63 72/73/64 70/64/62
f 70/64/62 58/74/54 57/65/53
f 58/74/54 60/75/56 57/65/53
f 60/75/56 59/76/55 57/65/53
f 57/65/53 1/45/1 66/63/57
f 77/49/53 57/47/53 2/45/2
f 19/3/19 42/17/42 31/28/31
f 58/45/54 70/47/62 43/17/43
f 29/3/29 41/17/41 69/47/61
f 53/52/1 62/49/58 129/58/58
f 77/65/53 54/66/2 53/45/1
f 54/66/2 56/67/4 53/45/1
f 56/67/4 55/68/3 53/45/1
f 53/45/1 62/47/58 61/63/57
f 62/47/58 64/69/60 61/63/57
f 64/69/60 63/70/59 61/63/57
f 61/63/57 74/71/61 73/64/62
f 74/71/61 76/72/63 73/64/62
f 76/72/63 75/73/64 73/64/62
f 73/64/62 78/74/54 77/65/53
f 78/74/54 80/75/56 77/65/53
f 80/75/56 79/76/55 77/65/53
f 77/65/53 53/45/1 61/63/57
f 102/58/53 77/49/53 54/52/2
f 78/52/54 73/49/62 70/47/62
f 61/52/57 74/49/61 82/58/61
f 66/45/57 69/47/61 74/49/61
f 101/55/54 81/58/62 73/49/62
f 130/55/57 82/58/61 133/40/101
f 106/33/78 134/40/102 81/58/62
f 102/65/53 97/66/2 98/45/1
f 97/66/2 99/67/4 98/45/1
f 99/67/4 100/68/3 98/45/1
f 98/45/1 129/47/58 130/63/57
f 129/47/58 131/69/60 130/63/57
f 131/69/60 132/70/59 130/63/57
f 130/63/57 82/71/61 81/64/62
f 82/71/61 84/72/63 81/64/62
f 84/72/63 83/73/64 81/64/62
f 81/64/62 101/74/54 102/65/53
f 101/74/54 103/75/56 102/65/53
f 103/75/56 104/76/55 102/65/53
f 102/65/53 98/45/1 130/63/57
f 98/55/1 129/58/58 118/40/90
f 107/40/79 102/58/53 97/55/2
f 117/28/89 135/17/103 105/3/77
