# Blender 4.5.3 LTS
# www.blender.org
mtllib __clay_block_02_0.mtl
o clay_block_0
v -0.516667 0.150000 0.333333
v -0.666667 0.150000 0.183333
v -0.516667 0.000000 0.183333
v -0.591568 0.150000 0.313294
v -0.516667 0.075098 0.313294
v -0.588398 0.078268 0.293828
v -0.646627 0.075098 0.183333
v -0.646627 0.150000 0.258235
v -0.627162 0.078268 0.255065
v -0.516667 0.020039 0.258235
v -0.591568 0.020039 0.183333
v -0.588398 0.039505 0.255065
v 0.333333 0.000000 0.183333
v 0.333333 0.150000 0.333333
v 0.333333 0.020096 0.258333
v 0.333333 0.075000 0.313237
v -0.516667 0.000000 -0.516667
v -0.666667 0.150000 -0.516667
v -0.516667 0.150000 -0.666667
v -0.591568 0.020039 -0.516667
v -0.516667 0.020039 -0.591568
v -0.588398 0.039505 -0.588398
v -0.646627 0.150000 -0.591568
v -0.646627 0.075098 -0.516667
v -0.627162 0.078268 -0.588398
v -0.516667 0.075098 -0.646627
v -0.591568 0.150000 -0.646627
v -0.588398 0.078268 -0.627162
v -0.516667 1.000000 0.183333
v -0.666667 0.850000 0.183333
v -0.516667 0.850000 0.333333
v -0.591568 0.979961 0.183333
v -0.516667 0.979961 0.258235
v -0.588398 0.960495 0.255065
v -0.646627 0.850000 0.258235
v -0.646627 0.924902 0.183333
v -0.627162 0.921732 0.255065
v -0.516667 0.924902 0.313294
v -0.591568 0.850000 0.313294
v -0.588398 0.921732 0.293828
v -0.516667 1.000000 -0.516667
v -0.516667 0.850000 -0.666667
v -0.666667 0.850000 -0.516667
v -0.516667 0.979961 -0.591568
v -0.591568 0.979961 -0.516667
v -0.588398 0.960495 -0.588398
v -0.591568 0.850000 -0.646627
v -0.516667 0.924902 -0.646627
v -0.588398 0.921732 -0.627162
v -0.646627 0.924902 -0.516667
v -0.646627 0.850000 -0.591568
v -0.627162 0.921732 -0.588398
v 1.333333 0.150000 0.183333
v 1.183333 0.150000 0.333333
v 1.183333 0.000000 0.183333
v 1.313294 0.150000 0.258235
v 1.313294 0.075098 0.183333
v 1.293828 0.078268 0.255065
v 1.183333 0.075098 0.313294
v 1.258235 0.150000 0.313294
v 1.255065 0.078268 0.293828
v 1.258235 0.020039 0.183333
v 1.183333 0.020039 0.258235
v 1.255065 0.039505 0.255065
v 0.333333 0.150000 -0.666667
v 0.483333 0.000000 -0.516667
v 0.353429 0.075000 -0.646571
v 0.408333 0.020096 -0.591667
v 0.333333 1.000000 0.183333
v 0.333333 0.850000 0.333333
v 0.333333 0.979904 0.258333
v 0.333333 0.925000 0.313237
v 1.183333 0.850000 0.333333
v 1.333333 0.850000 0.183333
v 1.183333 1.000000 0.183333
v 1.258235 0.850000 0.313294
v 1.183333 0.924902 0.313294
v 1.255065 0.921732 0.293828
v 1.313294 0.924902 0.183333
v 1.313294 0.850000 0.258235
v 1.293828 0.921732 0.255065
v 1.183333 0.979961 0.258235
v 1.258235 0.979961 0.183333
v 1.255065 0.960495 0.255065
v 1.333333 0.850000 -0.666667
v 1.183333 1.000000 -0.666667
v 1.313237 0.925000 -0.666667
v 1.258333 0.979904 -0.666667
v 0.483333 1.000000 -0.516667
v 0.333333 0.850000 -0.666667
v 0.408333 0.979904 -0.591667
v 0.353429 0.925000 -0.646571
v 1.333333 0.150000 -0.666667
v 1.183333 0.000000 -0.666667
v 1.313237 0.075000 -0.666667
v 1.258333 0.020096 -0.666667
v 1.183333 0.150000 -1.666667
v 1.333333 0.150000 -1.516667
v 1.183333 0.000000 -1.516667
v 1.258235 0.150000 -1.646627
v 1.183333 0.075098 -1.646627
v 1.255065 0.078268 -1.627162
v 1.313294 0.075098 -1.516667
v 1.313294 0.150000 -1.591568
v 1.293828 0.078268 -1.588398
v 1.183333 0.020039 -1.591568
v 1.258235 0.020039 -1.516667
v 1.255065 0.039505 -1.588398
v 0.483333 0.000000 -1.516667
v 0.333333 0.150000 -1.516667
v 0.483333 0.150000 -1.666667
v 0.408432 0.020039 -1.516667
v 0.483333 0.020039 -1.591568
v 0.411602 0.039505 -1.588398
v 0.353373 0.150000 -1.591568
v 0.353373 0.075098 -1.516667
v 0.372838 0.078268 -1.588398
v 0.483333 0.075098 -1.646627
v 0.408432 0.150000 -1.646627
v 0.411602 0.078268 -1.627162
v 1.183333 1.000000 -1.516667
v 1.333333 0.850000 -1.516667
v 1.183333 0.850000 -1.666667
v 1.258235 0.979961 -1.516667
v 1.183333 0.979961 -1.591568
v 1.255065 0.960495 -1.588398
v 1.313294 0.850000 -1.591568
v 1.313294 0.924902 -1.516667
v 1.293828 0.921732 -1.588398
v 1.183333 0.924902 -1.646627
v 1.258235 0.850000 -1.646627
v 1.255065 0.921732 -1.627162
v 0.483333 1.000000 -1.516667
v 0.483333 0.850000 -1.666667
v 0.333333 0.850000 -1.516667
v 0.483333 0.979961 -1.591568
v 0.408432 0.979961 -1.516667
v 0.411602 0.960495 -1.588398
v 0.408432 0.850000 -1.646627
v 0.483333 0.924902 -1.646627
v 0.411602 0.921732 -1.627162
v 0.353373 0.924902 -1.516667
v 0.353373 0.850000 -1.591568
v 0.372838 0.921732 -1.588398
vn -0.1280 -0.1280 0.9835
vn -0.9835 -0.1280 0.1280
vn -0.1280 -0.9835 0.1280
vn -0.4916 -0.1216 0.8623
vn -0.1216 -0.4916 0.8623
vn -0.4488 -0.4489 0.7727
vn -0.8623 -0.4916 0.1216
vn -0.8623 -0.1216 0.4916
vn -0.7727 -0.4488 0.4488
vn -0.1216 -0.8623 0.4916
vn -0.4916 -0.8623 0.1216
vn -0.4488 -0.7727 0.4488
vn 0.4308 -0.8934 0.1273
vn 0.4196 -0.1185 0.8999
vn 0.3961 -0.7952 0.4591
vn 0.3961 -0.4591 0.7952
vn -0.1280 -0.9835 -0.1280
vn -0.9835 -0.1280 -0.1280
vn -0.1280 -0.1280 -0.9835
vn -0.4916 -0.8623 -0.1216
vn -0.1216 -0.8623 -0.4916
vn -0.4488 -0.7727 -0.4488
vn -0.8623 -0.1216 -0.4916
vn -0.8623 -0.4916 -0.1216
vn -0.7727 -0.4488 -0.4488
vn -0.1216 -0.4916 -0.8623
vn -0.4916 -0.1216 -0.8623
vn -0.4488 -0.4488 -0.7727
vn -0.1280 0.9835 0.1280
vn -0.9835 0.1280 0.1280
vn -0.1280 0.1280 0.9835
vn -0.4916 0.8623 0.1216
vn -0.1216 0.8623 0.4916
vn -0.4488 0.7727 0.4488
vn -0.8623 0.1216 0.4916
vn -0.8623 0.4916 0.1216
vn -0.7727 0.4488 0.4488
vn -0.1216 0.4916 0.8623
vn -0.4916 0.1216 0.8623
vn -0.4488 0.4488 0.7727
vn -0.1280 0.9835 -0.1280
vn -0.1280 0.1280 -0.9835
vn -0.9835 0.1280 -0.1280
vn -0.1216 0.8623 -0.4916
vn -0.4916 0.8623 -0.1216
vn -0.4488 0.7727 -0.4488
vn -0.4916 0.1216 -0.8623
vn -0.1216 0.4916 -0.8623
vn -0.4488 0.4488 -0.7727
vn -0.8623 0.4916 -0.1216
vn -0.8623 0.1216 -0.4916
vn -0.7727 0.4489 -0.4488
vn 0.9835 -0.1280 0.1280
vn 0.1280 -0.1280 0.9835
vn 0.1280 -0.9835 0.1280
vn 0.8623 -0.1216 0.4916
vn 0.8623 -0.4916 0.1216
vn 0.7727 -0.4488 0.4488
vn 0.1216 -0.4916 0.8623
vn 0.4916 -0.1216 0.8623
vn 0.4488 -0.4488 0.7727
vn 0.4916 -0.8623 0.1216
vn 0.1216 -0.8623 0.4916
vn 0.4488 -0.7727 0.4489
vn -0.1248 -0.1565 -0.9798
vn 0.1682 -0.9581 -0.2318
vn -0.1680 -0.6236 -0.7635
vn 0.0950 -0.8740 -0.4765
vn 0.4308 0.8934 0.1273
vn 0.4196 0.1185 0.8999
vn 0.3961 0.7952 0.4591
vn 0.3961 0.4591 0.7952
vn 0.1280 0.1280 0.9835
vn 0.9835 0.1280 0.1280
vn 0.1280 0.9835 0.1280
vn 0.4916 0.1216 0.8623
vn 0.1216 0.4916 0.8623
vn 0.4488 0.4488 0.7727
vn 0.8623 0.4916 0.1216
vn 0.8623 0.1216 0.4916
vn 0.7727 0.4488 0.4488
vn 0.1216 0.8623 0.4916
vn 0.4916 0.8623 0.1216
vn 0.4488 0.7727 0.4488
vn 0.8999 0.1185 -0.4196
vn 0.1102 0.9062 -0.4083
vn 0.7952 0.4591 -0.3961
vn 0.4591 0.7952 -0.3961
vn 0.1682 0.9581 -0.2318
vn -0.1248 0.1565 -0.9798
vn 0.0950 0.8740 -0.4765
vn -0.1680 0.6236 -0.7635
vn 0.8999 -0.1185 -0.4196
vn 0.1102 -0.9062 -0.4083
vn 0.7952 -0.4591 -0.3961
vn 0.4591 -0.7952 -0.3961
vn 0.1280 -0.1280 -0.9835
vn 0.9835 -0.1280 -0.1280
vn 0.1280 -0.9835 -0.1280
vn 0.4916 -0.1216 -0.8623
vn 0.1216 -0.4916 -0.8623
vn 0.4488 -0.4488 -0.7727
vn 0.8623 -0.4916 -0.1216
vn 0.8623 -0.1216 -0.4916
vn 0.7727 -0.4488 -0.4488
vn 0.1216 -0.8623 -0.4916
vn 0.4916 -0.8623 -0.1216
vn 0.4488 -0.7727 -0.4488
vn 0.1280 0.9835 -0.1280
vn 0.9835 0.1280 -0.1280
vn 0.1280 0.1280 -0.9835
vn 0.4916 0.8623 -0.1216
vn 0.1216 0.8623 -0.4916
vn 0.4488 0.7727 -0.4488
vn 0.8623 0.1216 -0.4916
vn 0.8623 0.4916 -0.1216
vn 0.7727 0.4488 -0.4488
vn 0.1216 0.4916 -0.8623
vn 0.4916 0.1216 -0.8623
vn 0.4488 0.4488 -0.7727
vt -0.591568 0.150000
vt -0.516667 0.075098
vt -0.516667 0.150000
vt -0.627162 0.078268
vt -0.588398 0.078268
vt -0.183333 0.075098
vt -0.258235 0.150000
vt -0.183333 0.150000
vt -0.183333 0.020039
vt -0.255065 0.078268
vt -0.516667 -0.258235
vt -0.591568 -0.183333
vt -0.516667 -0.183333
vt -0.516667 0.020039
vt -0.588398 0.039505
vt -0.591568 0.516667
vt -0.516667 0.591568
vt -0.516667 0.516667
vt 0.516667 0.075098
vt 0.588398 0.039505
vt 0.516667 0.020039
vt 0.591568 0.150000
vt 0.516667 0.150000
vt 0.646627 0.150000
vt 0.588398 0.078268
vt -0.588398 0.588398
vt -0.627162 0.588398
vt -0.588398 0.627162
vt -0.591568 -0.183333
vt -0.516667 -0.258235
vt -0.627162 -0.255065
vt -0.588398 -0.255065
vt -0.258235 0.850000
vt -0.183333 0.924902
vt -0.183333 0.850000
vt -0.313294 0.850000
vt -0.255065 0.921732
vt -0.516667 0.924902
vt -0.591568 0.850000
vt -0.516667 0.850000
vt -0.588398 -0.293828
vt -0.516667 -0.313294
vt 0.591568 0.850000
vt 0.627162 0.921732
vt 0.646627 0.850000
vt 0.516667 0.924902
vt 0.516667 0.850000
vt 0.516667 0.979961
vt 0.588398 0.921732
vt -0.313294 0.150000
vt 1.183333 0.075098
vt 1.258235 0.150000
vt 1.183333 0.150000
vt 1.255065 0.039505
vt 1.255065 0.078268
vt 1.258235 -0.183333
vt 1.183333 -0.258235
vt 1.183333 -0.183333
vt 1.293828 -0.255065
vt 1.255065 -0.255065
vt 1.293828 0.078268
vt 1.258235 0.850000
vt 1.183333 0.924902
vt 1.183333 0.850000
vt 1.293828 0.921732
vt 1.255065 0.921732
vt -0.183333 0.924902
vt -0.258235 0.850000
vt 1.313294 -0.183333
vt 1.183333 -0.313294
vt 1.255065 -0.293828
vt 1.183333 0.075098
vt 1.646627 0.150000
vt 1.588398 0.078268
vt 1.627162 0.078268
vt 1.516667 0.075098
vt 1.591568 0.150000
vt 1.516667 0.150000
vt 1.313294 1.516667
vt 1.255065 1.588398
vt 1.293828 1.588398
vt 1.183333 1.591568
vt 1.258235 1.516667
vt 1.183333 1.516667
vt 1.255065 1.627162
vt 0.408432 1.516667
vt 0.483333 1.591568
vt 0.483333 1.516667
vt 1.516667 0.075098
vt 1.588398 0.039505
vt 1.516667 0.020039
vt 1.516667 0.150000
vt 0.408432 0.150000
vt 0.372838 0.078268
vt 0.353373 0.150000
vt 0.483333 0.075098
vt 0.483333 0.150000
vt 0.483333 0.020039
vt 0.411602 0.078268
vt 1.591568 0.850000
vt 1.516667 0.924902
vt 1.516667 0.850000
vt 1.646627 0.850000
vt 1.588398 0.921732
vt 1.183333 0.979961
vt 0.483333 0.924902
vt 0.411602 0.960495
vt 0.483333 0.979961
vt 0.408432 0.850000
vt 0.483333 0.850000
vt 0.353373 0.850000
vt 0.411602 0.921732
vt 0.372838 1.588398
vt 0.353373 1.516667
vt 0.411602 1.588398
vt 0.411602 1.627162
vt 0.333333 0.150000
vt 0.333333 0.075000
vt 0.333333 0.020096
vt 0.333333 -0.183333
vt 0.333333 -0.258333
vt 0.333333 0.850000
vt 0.333333 0.925000
vt 0.333333 0.979904
vt 0.666667 0.850000
vt 0.666667 0.925000
vt -0.183333 0.979961
vt 1.183333 0.666667
vt 0.666667 0.150000
vt 0.666667 0.075000
vt 0.353429 0.075000
vt 0.408333 0.591667
vt 0.333333 -0.313237
vt 0.353429 0.925000
vt 0.353429 0.646571
vt 0.408333 0.591667
vt 0.483333 0.516667
vt 1.258333 0.666667
vt 1.313237 0.666667
vt 0.646571 0.075000
vt -0.333333 0.850000
vt -0.183333 1.000000
vt 1.333333 0.850000
vt 1.183333 1.000000
vt -0.588398 -0.255065
vt -0.627162 -0.255065
vt -0.516667 -0.313294
vt -0.588398 -0.293828
vt -0.646627 0.516667
vt 0.627162 0.078268
vt -0.183333 0.979961
vt -0.293828 0.921732
vt -0.588398 0.921732
vt -0.516667 0.979961
vt -0.313294 0.850000
vt -0.255065 0.921732
vt 1.183333 0.020039
vt 1.516667 0.979961
vt 1.627162 0.921732
vt 0.483333 1.646627
vt 0.666667 0.020096
vt 0.646571 0.925000
vt 0.666667 0.979904
vt -0.333333 0.150000
vt -0.313237 0.075000
vt -0.183333 0.000000
vt -0.258333 0.020096
vt 0.333333 0.666667
vt 0.516667 0.000000
vt 0.591667 0.020096
vt 0.483333 0.000000
vt 0.483333 1.000000
vt 0.591667 0.979904
vt 0.516667 1.000000
vt -0.258333 0.979904
vt -0.313237 0.925000
vt 1.333333 0.150000
vt 1.313237 0.075000
vt 1.183333 0.000000
vt 1.258333 0.020096
vt 1.258333 0.979904
vt 1.313237 0.925000
s 1
usemtl ClayMat_0
f 4/1/4 5/2/5 1/3/1
f 4/1/4 9/4/9 6/5/6
f 7/6/7 8/7/8 2/8/2
f 11/9/11 9/10/9 7/6/7
f 10/11/10 11/12/11 3/13/3
f 10/14/10 6/5/6 12/15/12
f 6/5/6 9/4/9 12/15/12
f 20/16/20 21/17/21 17/18/17
f 24/19/24 22/20/22 20/21/20
f 23/22/23 24/19/24 18/23/18
f 27/24/27 25/25/25 23/22/23
f 26/2/26 27/1/27 19/3/19
f 21/14/21 28/5/28 26/2/26
f 22/26/22 25/27/25 28/28/28
f 32/29/32 33/30/33 29/13/29
f 32/29/32 37/31/37 34/32/34
f 35/33/35 36/34/36 30/35/30
f 39/36/39 37/37/37 35/33/35
f 38/38/38 39/39/39 31/40/31
f 33/30/33 40/41/40 38/42/38
f 34/32/34 37/31/37 40/41/40
f 44/17/44 45/16/45 41/18/41
f 44/17/44 49/28/49 46/26/46
f 47/39/47 48/38/48 42/40/42
f 51/43/51 49/44/49 47/45/47
f 50/46/50 51/43/51 43/47/43
f 45/48/45 52/49/52 50/46/50
f 46/26/46 49/28/49 52/27/52
f 56/7/56 57/6/57 53/8/53
f 60/50/60 58/10/58 56/7/56
f 59/51/59 60/52/60 54/53/54
f 59/51/59 64/54/64 61/55/61
f 62/56/62 63/57/63 55/58/55
f 62/56/62 58/59/58 64/60/64
f 58/61/58 61/55/61 64/54/64
f 76/62/76 77/63/77 73/64/73
f 76/62/76 81/65/81 78/66/78
f 79/67/79 80/68/80 74/35/74
f 83/56/83 81/59/81 79/69/79
f 82/57/82 83/56/83 75/58/75
f 77/70/77 84/60/84 82/57/82
f 78/71/78 81/59/81 84/60/84
f 100/52/100 101/72/101 97/53/97
f 100/73/100 105/74/105 102/75/102
f 103/76/103 104/77/104 98/78/98
f 103/79/103 108/80/108 105/81/105
f 106/82/106 107/83/107 99/84/99
f 106/82/106 102/85/102 108/80/108
f 102/85/102 105/81/105 108/80/108
f 112/86/20 113/87/21 109/88/17
f 116/89/24 114/90/22 112/91/20
f 115/77/23 116/89/24 110/92/18
f 119/93/27 117/94/25 115/95/23
f 118/96/26 119/93/27 111/97/19
f 113/98/21 120/99/28 118/96/26
f 114/90/22 117/74/25 120/75/28
f 124/83/112 125/82/113 121/84/109
f 124/83/112 129/81/117 126/80/114
f 127/100/115 128/101/116 122/102/110
f 131/103/119 129/104/117 127/100/115
f 130/63/118 131/62/119 123/64/111
f 125/105/113 132/66/120 130/63/118
f 126/80/114 129/81/117 132/85/120
f 136/87/44 137/86/45 133/88/41
f 140/106/48 138/107/46 136/108/44
f 139/109/47 140/106/48 134/110/42
f 143/111/51 141/112/49 139/109/47
f 142/101/50 143/100/51 135/102/43
f 137/86/45 144/113/52 142/114/50
f 138/115/46 141/116/49 144/113/52
f 14/117/14 5/2/5 16/118/16
f 5/2/5 15/119/15 16/118/16
f 10/11/10 13/120/13 15/121/15
f 18/23/18 7/6/7 2/8/2
f 24/19/24 11/9/11 7/6/7
f 20/16/20 3/13/3 11/12/11
f 30/35/30 50/46/50 43/47/43
f 36/34/36 45/48/45 50/46/50
f 32/29/32 41/18/41 45/16/45
f 30/35/30 8/7/8 35/33/35
f 8/7/8 39/36/39 35/33/35
f 4/1/4 31/40/31 39/39/39
f 43/47/43 23/22/23 18/23/18
f 51/43/51 27/24/27 23/22/23
f 47/39/47 19/3/19 27/1/27
f 70/122/70 77/63/77 72/123/72
f 77/63/77 71/124/71 72/123/72
f 82/57/82 69/120/69 71/121/71
f 85/125/85 79/67/79 74/35/74
f 87/126/87 83/127/83 79/67/79
f 83/56/83 86/128/86 75/58/75
f 74/35/74 56/7/56 53/8/53
f 80/68/80 60/50/60 56/7/56
f 76/62/76 54/53/54 60/52/60
f 97/53/97 118/96/26 111/97/19
f 101/72/101 113/98/21 118/96/26
f 106/82/106 109/88/17 113/87/21
f 93/129/93 103/76/103 98/78/98
f 95/130/95 107/91/107 103/76/103
f 107/83/107 94/128/94 99/84/99
f 134/110/42 130/63/118 123/64/111
f 140/106/48 125/105/113 130/63/118
f 136/87/44 121/84/109 125/82/113
f 98/78/98 127/100/115 122/102/110
f 104/77/104 131/103/119 127/100/115
f 100/52/100 123/64/111 131/62/119
f 135/102/43 115/77/23 110/92/18
f 143/111/51 119/93/27 115/95/23
f 139/109/47 111/97/19 119/93/27
f 65/117/65 26/2/26 19/3/19
f 67/131/67 21/14/21 26/2/26
f 68/132/68 17/18/17 21/17/21
f 70/122/70 38/38/38 31/40/31
f 72/133/72 33/30/33 38/42/38
f 33/30/33 69/120/69 29/13/29
f 90/122/90 48/38/48 92/134/92
f 92/135/92 44/17/44 91/136/91
f 91/136/91 41/18/41 89/137/89
f 14/117/14 59/51/59 54/53/54
f 16/133/16 63/57/63 59/70/59
f 63/57/63 13/120/13 55/58/55
f 93/129/93 57/6/57 95/130/95
f 57/69/57 96/138/96 95/139/95
f 62/56/62 94/128/94 96/138/96
f 65/129/65 116/89/24 67/140/67
f 67/135/67 112/86/20 68/132/68
f 68/132/68 109/88/17 66/137/66
f 90/125/90 142/101/50 135/102/43
f 92/135/92 137/86/45 142/114/50
f 91/136/91 133/88/41 137/86/45
f 85/125/85 128/101/116 87/126/87
f 128/79/116 88/138/88 87/139/87
f 124/83/112 86/128/86 88/138/88
f 14/117/14 31/40/31 1/3/1
f 17/18/17 13/120/13 3/13/3
f 30/35/30 18/23/18 2/8/2
f 54/53/54 70/122/70 14/117/14
f 66/137/66 55/58/55 13/120/13
f 70/141/70 90/125/90 69/142/69
f 19/3/19 90/122/90 65/117/65
f 69/120/69 41/18/41 29/13/29
f 93/129/93 74/35/74 53/8/53
f 90/125/90 110/92/18 65/129/65
f 85/143/85 90/122/90 86/144/86
f 109/88/17 94/128/94 66/137/66
f 75/58/75 89/137/89 69/120/69
f 98/78/98 85/125/85 93/129/93
f 86/128/86 133/88/41 89/137/89
f 111/97/19 123/64/111 97/53/97
f 4/1/4 6/5/6 5/2/5
f 4/50/4 8/7/8 9/10/9
f 7/6/7 9/10/9 8/7/8
f 11/12/11 12/145/12 9/146/9
f 10/11/10 12/145/12 11/12/11
f 10/11/10 5/147/5 6/148/6
f 20/16/20 22/26/22 21/17/21
f 24/149/24 25/27/25 22/26/22
f 23/22/23 25/25/25 24/19/24
f 27/24/27 28/150/28 25/25/25
f 26/2/26 28/5/28 27/1/27
f 21/17/21 22/26/22 28/28/28
f 32/29/32 34/32/34 33/30/33
f 32/151/32 36/34/36 37/37/37
f 35/33/35 37/37/37 36/34/36
f 39/36/39 40/152/40 37/37/37
f 38/38/38 40/153/40 39/39/39
f 33/30/33 34/32/34 40/41/40
f 44/17/44 46/26/46 45/16/45
f 44/154/44 48/38/48 49/153/49
f 47/39/47 49/153/49 48/38/48
f 51/43/51 52/49/52 49/44/49
f 50/46/50 52/49/52 51/43/51
f 45/16/45 46/26/46 52/27/52
f 56/7/56 58/10/58 57/6/57
f 60/52/60 61/55/61 58/61/58
f 59/51/59 61/55/61 60/52/60
f 59/70/59 63/57/63 64/60/64
f 62/56/62 64/60/64 63/57/63
f 62/9/62 57/6/57 58/10/58
f 76/62/76 78/66/78 77/63/77
f 76/155/76 80/68/80 81/156/81
f 79/67/79 81/156/81 80/68/80
f 83/56/83 84/60/84 81/59/81
f 82/57/82 84/60/84 83/56/83
f 77/70/77 78/71/78 84/60/84
f 100/52/100 102/55/102 101/72/101
f 100/73/100 104/77/104 105/74/105
f 103/76/103 105/74/105 104/77/104
f 103/76/103 107/91/107 108/90/108
f 106/82/106 108/80/108 107/83/107
f 106/157/106 101/72/101 102/55/102
f 112/86/20 114/115/22 113/87/21
f 116/89/24 117/74/25 114/90/22
f 115/77/23 117/74/25 116/89/24
f 119/73/27 120/75/28 117/74/25
f 118/96/26 120/99/28 119/93/27
f 113/87/21 114/115/22 120/116/28
f 124/83/112 126/80/114 125/82/113
f 124/158/112 128/101/116 129/104/117
f 127/100/115 129/104/117 128/101/116
f 131/103/119 132/159/120 129/104/117
f 130/63/118 132/66/120 131/62/119
f 125/82/113 126/80/114 132/85/120
f 136/87/44 138/115/46 137/86/45
f 140/160/48 141/116/49 138/115/46
f 139/109/47 141/112/49 140/106/48
f 143/100/51 144/104/52 141/159/49
f 142/101/50 144/104/52 143/100/51
f 137/86/45 138/115/46 144/113/52
f 14/117/14 1/3/1 5/2/5
f 5/147/5 10/11/10 15/121/15
f 10/11/10 3/13/3 13/120/13
f 18/23/18 24/19/24 7/6/7
f 24/19/24 20/21/20 11/9/11
f 20/16/20 17/18/17 3/13/3
f 30/35/30 36/34/36 50/46/50
f 36/34/36 32/151/32 45/48/45
f 32/29/32 29/13/29 41/18/41
f 30/35/30 2/8/2 8/7/8
f 8/7/8 4/50/4 39/36/39
f 4/1/4 1/3/1 31/40/31
f 43/47/43 51/43/51 23/22/23
f 51/43/51 47/45/47 27/24/27
f 47/39/47 42/40/42 19/3/19
f 70/122/70 73/64/73 77/63/77
f 77/70/77 82/57/82 71/121/71
f 82/57/82 75/58/75 69/120/69
f 85/125/85 87/126/87 79/67/79
f 87/139/87 88/138/88 83/56/83
f 83/56/83 88/138/88 86/128/86
f 74/35/74 80/68/80 56/7/56
f 80/68/80 76/155/76 60/50/60
f 76/62/76 73/64/73 54/53/54
f 97/53/97 101/72/101 118/96/26
f 101/72/101 106/157/106 113/98/21
f 106/82/106 99/84/99 109/88/17
f 93/129/93 95/130/95 103/76/103
f 95/139/95 96/138/96 107/83/107
f 107/83/107 96/138/96 94/128/94
f 134/110/42 140/106/48 130/63/118
f 140/106/48 136/108/44 125/105/113
f 136/87/44 133/88/41 121/84/109
f 98/78/98 104/77/104 127/100/115
f 104/77/104 100/73/100 131/103/119
f 100/52/100 97/53/97 123/64/111
f 135/102/43 143/100/51 115/77/23
f 143/111/51 139/109/47 119/93/27
f 139/109/47 134/110/42 111/97/19
f 65/117/65 67/131/67 26/2/26
f 67/135/67 68/132/68 21/17/21
f 68/132/68 66/137/66 17/18/17
f 70/122/70 72/123/72 38/38/38
f 72/123/72 71/124/71 33/154/33
f 33/30/33 71/121/71 69/120/69
f 90/122/90 42/40/42 48/38/48
f 92/134/92 48/38/48 44/154/44
f 91/136/91 44/17/44 41/18/41
f 14/117/14 16/118/16 59/51/59
f 16/118/16 15/119/15 63/157/63
f 63/57/63 15/121/15 13/120/13
f 93/129/93 53/8/53 57/6/57
f 57/6/57 62/9/62 96/161/96
f 62/56/62 55/58/55 94/128/94
f 65/129/65 110/92/18 116/89/24
f 67/135/67 116/114/24 112/86/20
f 68/132/68 112/86/20 109/88/17
f 90/125/90 92/162/92 142/101/50
f 92/135/92 91/136/91 137/86/45
f 91/136/91 89/137/89 133/88/41
f 85/125/85 122/102/110 128/101/116
f 128/101/116 124/158/112 88/163/88
f 124/83/112 121/84/109 86/128/86
f 14/117/14 70/122/70 31/40/31
f 17/18/17 66/137/66 13/120/13
f 30/35/30 43/47/43 18/23/18
f 54/53/54 73/64/73 70/122/70
f 66/137/66 94/128/94 55/58/55
f 70/141/70 14/164/14 65/129/65
f 14/164/14 16/165/16 13/166/13
f 16/165/16 15/167/15 13/166/13
f 13/120/13 66/137/66 65/168/65
f 66/169/66 68/170/68 67/140/67
f 65/117/65 66/171/66 67/131/67
f 65/129/65 90/125/90 70/141/70
f 90/122/90 92/134/92 89/172/89
f 92/162/92 91/173/91 89/174/89
f 89/137/89 69/120/69 90/168/90
f 69/142/69 71/175/71 70/141/70
f 71/175/71 72/176/72 70/141/70
f 14/164/14 13/166/13 65/129/65
f 19/3/19 42/40/42 90/122/90
f 69/120/69 89/137/89 41/18/41
f 93/129/93 85/125/85 74/35/74
f 90/125/90 135/102/43 110/92/18
f 85/143/85 93/177/93 65/117/65
f 93/177/93 95/178/95 94/179/94
f 95/178/95 96/180/96 94/179/94
f 94/128/94 66/137/66 65/168/65
f 65/117/65 90/122/90 85/143/85
f 89/137/89 86/128/86 90/168/90
f 86/144/86 88/181/88 85/143/85
f 88/181/88 87/182/87 85/143/85
f 93/177/93 94/179/94 65/117/65
f 109/88/17 99/84/99 94/128/94
f 75/58/75 86/128/86 89/137/89
f 98/78/98 122/102/110 85/125/85
f 86/128/86 121/84/109 133/88/41
f 111/97/19 134/110/42 123/64/111
