# Blender 4.5.3 LTS
# www.blender.org
mtllib __clay_block_02_66.mtl
o clay_block_66
v 0.500000 0.500000 0.500000
v 0.500000 -0.500000 0.500000
v 0.500000 0.500000 1.500000
v 1.500000 -0.500000 0.500000
v 1.500000 0.500000 1.500000
v 1.500000 0.500000 0.500000
v 1.500000 -0.500000 1.500000
v 0.500000 -0.500000 1.500000
v -0.350000 -0.350000 -0.500000
v -0.350000 -0.500000 -0.350000
v -0.500000 -0.350000 -0.350000
v -0.350000 -0.424902 -0.479961
v -0.424902 -0.350000 -0.479961
v -0.421732 -0.421732 -0.460495
v -0.424902 -0.479961 -0.350000
v -0.350000 -0.479961 -0.424902
v -0.421732 -0.460495 -0.421732
v -0.479961 -0.350000 -0.424902
v -0.479961 -0.424902 -0.350000
v -0.460495 -0.421732 -0.421732
v 0.500000 0.500000 -0.350000
v 0.500000 0.350000 -0.500000
v 0.500000 0.479904 -0.425000
v 0.500000 0.425000 -0.479904
v -0.350000 0.500000 -0.350000
v -0.350000 0.350000 -0.500000
v -0.500000 0.350000 -0.350000
v -0.350000 0.479961 -0.424902
v -0.424902 0.479961 -0.350000
v -0.421732 0.460495 -0.421732
v -0.424902 0.350000 -0.479961
v -0.350000 0.424902 -0.479961
v -0.421732 0.421732 -0.460495
v -0.479961 0.424902 -0.350000
v -0.479961 0.350000 -0.424902
v -0.460495 0.421732 -0.421732
v 0.500000 -0.350000 -0.500000
v 0.500000 -0.500000 -0.350000
v 0.500000 -0.425000 -0.479904
v 0.500000 -0.479904 -0.425000
v 1.500000 0.500000 -0.350000
v 1.500000 0.350000 -0.500000
v 1.500000 0.479904 -0.425000
v 1.500000 0.425000 -0.479904
v 2.500000 -0.350000 0.500000
v 2.350000 -0.500000 0.500000
v 2.479904 -0.425000 0.500000
v 2.425000 -0.479904 0.500000
v 2.350000 -0.350000 -0.500000
v 2.500000 -0.350000 -0.350000
v 2.350000 -0.500000 -0.350000
v 2.424901 -0.350000 -0.479961
v 2.350000 -0.424902 -0.479961
v 2.421732 -0.421732 -0.460495
v 2.479960 -0.424902 -0.350000
v 2.479960 -0.350000 -0.424902
v 2.460495 -0.421732 -0.421732
v 2.350000 -0.479961 -0.424902
v 2.424901 -0.479961 -0.350000
v 2.421732 -0.460495 -0.421732
v 1.500000 -0.500000 -0.350000
v 1.500000 -0.350000 -0.500000
v 1.500000 -0.479904 -0.425000
v 1.500000 -0.425000 -0.479904
v 2.350000 0.500000 0.500000
v 2.500000 0.350000 0.500000
v 2.425000 0.479904 0.500000
v 2.479904 0.425000 0.500000
v 2.350000 0.500000 -0.350000
v 2.500000 0.350000 -0.350000
v 2.350000 0.350000 -0.500000
v 2.424901 0.479961 -0.350000
v 2.350000 0.479961 -0.424902
v 2.421732 0.460495 -0.421732
v 2.479960 0.350000 -0.424902
v 2.479960 0.424902 -0.350000
v 2.460495 0.421732 -0.421732
v 2.350000 0.424902 -0.479961
v 2.424901 0.350000 -0.479961
v 2.421732 0.421732 -0.460495
v -0.350000 -0.500000 0.500000
v -0.500000 -0.350000 0.500000
v -0.425000 -0.479904 0.500000
v -0.479904 -0.425000 0.500000
v -0.500000 0.350000 0.500000
v -0.350000 0.500000 0.500000
v -0.479904 0.425000 0.500000
v -0.425000 0.479904 0.500000
v 2.500000 -0.350000 1.500000
v 2.350000 -0.500000 1.500000
v 2.479904 -0.425000 1.500000
v 2.425000 -0.479904 1.500000
v 2.350000 0.500000 1.500000
v 2.500000 0.350000 1.500000
v 2.425000 0.479904 1.500000
v 2.479904 0.425000 1.500000
v -0.350000 -0.500000 2.350000
v -0.350000 -0.350000 2.500000
v -0.500000 -0.350000 2.350000
v -0.350000 -0.479961 2.424901
v -0.424902 -0.479961 2.350000
v -0.421732 -0.460495 2.421732
v -0.424902 -0.350000 2.479960
v -0.350000 -0.424902 2.479960
v -0.421732 -0.421732 2.460495
v -0.479961 -0.424902 2.350000
v -0.479961 -0.350000 2.424901
v -0.460495 -0.421732 2.421732
v -0.500000 -0.350000 1.500000
v -0.350000 -0.500000 1.500000
v -0.479904 -0.425000 1.500000
v -0.425000 -0.479904 1.500000
v -0.500000 0.350000 2.350000
v -0.350000 0.350000 2.500000
v -0.350000 0.500000 2.350000
v -0.479961 0.350000 2.424901
v -0.479961 0.424902 2.350000
v -0.460495 0.421732 2.421732
v -0.350000 0.424902 2.479960
v -0.424902 0.350000 2.479960
v -0.421732 0.421732 2.460495
v -0.424902 0.479961 2.350000
v -0.350000 0.479961 2.424901
v -0.421732 0.460495 2.421732
v 0.500000 0.350000 2.500000
v 0.500000 0.500000 2.350000
v 0.500000 0.425000 2.479904
v 0.500000 0.479904 2.425000
v -0.350000 0.500000 1.500000
v -0.500000 0.350000 1.500000
v -0.425000 0.479904 1.500000
v -0.479904 0.425000 1.500000
v 0.500000 -0.500000 2.350000
v 0.500000 -0.350000 2.500000
v 0.500000 -0.479904 2.425000
v 0.500000 -0.425000 2.479904
v 1.500000 0.350000 2.500000
v 1.500000 0.500000 2.350000
v 1.500000 0.425000 2.479904
v 1.500000 0.479904 2.425000
v 1.500000 -0.350000 2.500000
v 1.500000 -0.500000 2.350000
v 1.500000 -0.425000 2.479904
v 1.500000 -0.479904 2.425000
v 2.350000 -0.500000 2.350000
v 2.500000 -0.350000 2.350000
v 2.350000 -0.350000 2.500000
v 2.424901 -0.479961 2.350000
v 2.350000 -0.479961 2.424901
v 2.421732 -0.460495 2.421732
v 2.479960 -0.350000 2.424901
v 2.479960 -0.424902 2.350000
v 2.460495 -0.421732 2.421732
v 2.350000 -0.424902 2.479960
v 2.424901 -0.350000 2.479960
v 2.421732 -0.421732 2.460495
v 2.500000 0.350000 2.350000
v 2.350000 0.500000 2.350000
v 2.350000 0.350000 2.500000
v 2.479960 0.424902 2.350000
v 2.479960 0.350000 2.424901
v 2.460495 0.421732 2.421732
v 2.350000 0.479961 2.424901
v 2.424901 0.479961 2.350000
v 2.421732 0.460495 2.421732
v 2.424901 0.350000 2.479960
v 2.350000 0.424902 2.479960
v 2.421732 0.421732 2.460495
vn 0.4082 0.8165 0.4083
vn 0.4083 -0.8165 0.4082
vn 0.4083 0.8165 0.4083
vn 0.4082 -0.8165 0.4082
vn 0.4083 0.8165 0.4082
vn 0.4082 0.8165 0.4082
vn 0.4082 -0.8165 0.4083
vn -0.1280 -0.1280 -0.9835
vn -0.1280 -0.9835 -0.1280
vn -0.9835 -0.1280 -0.1280
vn -0.1216 -0.4916 -0.8623
vn -0.4916 -0.1216 -0.8623
vn -0.4488 -0.4488 -0.7727
vn -0.4916 -0.8623 -0.1216
vn -0.1216 -0.8623 -0.4916
vn -0.4488 -0.7727 -0.4488
vn -0.8623 -0.1216 -0.4916
vn -0.8623 -0.4916 -0.1216
vn -0.7727 -0.4488 -0.4488
vn 0.4196 0.8999 -0.1185
vn 0.4196 0.1185 -0.8999
vn 0.3961 0.7952 -0.4591
vn 0.3961 0.4591 -0.7952
vn -0.1280 0.9835 -0.1280
vn -0.1280 0.1280 -0.9835
vn -0.9835 0.1280 -0.1280
vn -0.1216 0.8623 -0.4916
vn -0.4916 0.8623 -0.1216
vn -0.4488 0.7727 -0.4488
vn -0.4916 0.1216 -0.8623
vn -0.1216 0.4916 -0.8623
vn -0.4488 0.4488 -0.7727
vn -0.8623 0.4916 -0.1216
vn -0.8623 0.1216 -0.4916
vn -0.7727 0.4488 -0.4488
vn 0.4196 -0.1185 -0.8999
vn 0.4196 -0.8999 -0.1185
vn 0.3961 -0.4591 -0.7952
vn 0.3961 -0.7952 -0.4591
vn 0.8999 -0.1185 0.4196
vn 0.1185 -0.8999 0.4196
vn 0.7952 -0.4591 0.3961
vn 0.4591 -0.7952 0.3961
vn 0.1280 -0.1280 -0.9835
vn 0.9835 -0.1280 -0.1280
vn 0.1280 -0.9835 -0.1280
vn 0.4916 -0.1216 -0.8623
vn 0.1216 -0.4916 -0.8623
vn 0.4488 -0.4488 -0.7727
vn 0.8623 -0.4916 -0.1216
vn 0.8623 -0.1216 -0.4916
vn 0.7727 -0.4488 -0.4488
vn 0.1216 -0.8623 -0.4916
vn 0.4916 -0.8623 -0.1216
vn 0.4488 -0.7727 -0.4488
vn 0.1185 0.8999 0.4196
vn 0.8999 0.1185 0.4196
vn 0.4591 0.7952 0.3961
vn 0.7952 0.4591 0.3961
vn 0.1280 0.9835 -0.1280
vn 0.9835 0.1280 -0.1280
vn 0.1280 0.1280 -0.9835
vn 0.4916 0.8623 -0.1216
vn 0.1216 0.8623 -0.4916
vn 0.4488 0.7727 -0.4488
vn 0.8623 0.1216 -0.4916
vn 0.8623 0.4916 -0.1216
vn 0.7727 0.4488 -0.4488
vn 0.1216 0.4916 -0.8623
vn 0.4916 0.1216 -0.8623
vn 0.4488 0.4488 -0.7727
vn -0.1185 -0.8999 0.4196
vn -0.8999 -0.1185 0.4196
vn -0.4591 -0.7952 0.3961
vn -0.7952 -0.4591 0.3961
vn -0.8999 0.1185 0.4196
vn -0.1185 0.8999 0.4196
vn -0.7952 0.4591 0.3961
vn -0.4591 0.7952 0.3961
vn -0.1280 -0.9835 0.1280
vn -0.1280 -0.1280 0.9835
vn -0.9835 -0.1280 0.1280
vn -0.1216 -0.8623 0.4916
vn -0.4916 -0.8623 0.1216
vn -0.4488 -0.7727 0.4488
vn -0.4916 -0.1216 0.8623
vn -0.1216 -0.4916 0.8623
vn -0.4488 -0.4488 0.7727
vn -0.8623 -0.4916 0.1216
vn -0.8623 -0.1216 0.4916
vn -0.7727 -0.4488 0.4488
vn -0.9835 0.1280 0.1280
vn -0.1280 0.1280 0.9835
vn -0.1280 0.9835 0.1280
vn -0.8623 0.1216 0.4916
vn -0.8623 0.4916 0.1216
vn -0.7727 0.4488 0.4488
vn -0.1216 0.4916 0.8623
vn -0.4916 0.1216 0.8623
vn -0.4488 0.4488 0.7727
vn -0.4916 0.8623 0.1216
vn -0.1216 0.8623 0.4916
vn -0.4488 0.7727 0.4488
vn 0.4196 0.1185 0.8999
vn 0.4196 0.8999 0.1185
vn 0.3961 0.4591 0.7952
vn 0.3961 0.7952 0.4591
vn 0.4196 -0.8999 0.1185
vn 0.4196 -0.1185 0.8999
vn 0.3961 -0.7952 0.4591
vn 0.3961 -0.4591 0.7952
vn 0.1280 -0.9835 0.1280
vn 0.9835 -0.1280 0.1280
vn 0.1280 -0.1280 0.9835
vn 0.4916 -0.8623 0.1216
vn 0.1216 -0.8623 0.4916
vn 0.4488 -0.7727 0.4488
vn 0.8623 -0.1216 0.4916
vn 0.8623 -0.4916 0.1216
vn 0.7727 -0.4488 0.4488
vn 0.1216 -0.4916 0.8623
vn 0.4916 -0.1216 0.8623
vn 0.4488 -0.4488 0.7727
vn 0.9835 0.1280 0.1280
vn 0.1280 0.9835 0.1280
vn 0.1280 0.1280 0.9835
vn 0.8623 0.4916 0.1216
vn 0.8623 0.1216 0.4916
vn 0.7727 0.4488 0.4488
vn 0.1216 0.8623 0.4916
vn 0.4916 0.8623 0.1216
vn 0.4488 0.7727 0.4488
vn 0.4916 0.1216 0.8623
vn 0.1216 0.4916 0.8623
vn 0.4488 0.4488 0.7727
vt 1.500000 -0.500000
vt 0.500000 0.500000
vt 0.500000 -0.500000
vt -0.500000 -0.500000
vt -1.500000 0.500000
vt -1.500000 -0.500000
vt 1.500000 -1.500000
vt 0.500000 -1.500000
vt -0.350000 -0.424902
vt -0.424902 -0.350000
vt -0.350000 -0.350000
vt -0.350000 0.424902
vt -0.421732 0.460495
vt -0.350000 0.479961
vt -0.424902 0.350000
vt -0.350000 0.350000
vt 0.350000 -0.479961
vt 0.421732 -0.421732
vt 0.421732 -0.460495
vt 0.424902 -0.350000
vt 0.350000 -0.424902
vt 0.350000 -0.350000
vt -0.460495 -0.421732
vt -0.479961 -0.350000
vt 0.460495 -0.421732
vt -0.421732 0.421732
vt 0.424902 0.350000
vt 0.460495 0.421732
vt 0.479961 0.350000
vt 0.350000 0.424902
vt 0.350000 0.350000
vt -0.460495 0.421732
vt -0.479961 0.350000
vt 0.421732 0.460495
vt 0.421732 0.421732
vt 2.424901 -0.350000
vt 2.350000 -0.424902
vt 2.350000 -0.350000
vt 0.479961 -0.350000
vt 2.350000 0.424902
vt 2.424901 0.350000
vt 2.350000 0.350000
vt 2.350000 -0.479961
vt 2.421732 -0.421732
vt 2.421732 -0.460495
vt 0.350000 0.479961
vt 2.350000 0.479961
vt 2.421732 0.421732
vt -0.350000 -2.424901
vt -0.424902 -2.350000
vt -0.350000 -2.350000
vt -0.421732 -0.460495
vt -0.350000 -0.479961
vt -0.421732 -0.421732
vt -2.350000 -0.424902
vt -2.424901 -0.350000
vt -2.350000 -0.350000
vt -2.350000 -0.479961
vt -2.421732 -0.421732
vt -2.424901 0.350000
vt -2.350000 0.424902
vt -2.350000 0.350000
vt -2.350000 0.479961
vt -2.421732 0.421732
vt -2.421732 0.460495
vt 2.424901 -2.350000
vt 2.350000 -2.424901
vt 2.350000 -2.350000
vt -2.421732 -0.460495
vt -2.479960 -0.350000
vt -2.460495 -0.421732
vt 2.421732 0.460495
vt -2.460495 0.421732
vt -2.479960 0.350000
vt 0.500000 0.350000
vt 0.500000 0.425000
vt 0.500000 0.479904
vt 1.500000 -0.350000
vt 1.500000 -0.425000
vt 1.500000 -0.479904
vt 1.500000 0.350000
vt 1.500000 0.425000
vt -0.500000 -0.350000
vt -0.500000 -0.425000
vt 2.350000 -0.500000
vt -0.500000 0.350000
vt -0.500000 0.425000
vt -0.500000 0.479904
vt 2.425000 -0.500000
vt -1.500000 -0.350000
vt -1.500000 -0.479904
vt -0.350000 -1.500000
vt -1.500000 0.350000
vt -1.500000 0.425000
vt -1.500000 0.479904
vt -0.425000 -1.500000
vt 0.500000 -2.350000
vt 1.500000 -2.350000
vt -0.500000 -0.479904
vt -0.350000 -0.500000
vt -0.425000 -0.500000
vt 0.500000 -0.350000
vt 0.500000 -0.425000
vt 0.500000 -0.479904
vt 1.500000 0.479904
vt -1.500000 -0.425000
vt 2.425000 -1.500000
vt 2.350000 -1.500000
vt 0.500000 -2.425000
vt 1.500000 -2.425000
vt 0.350000 0.500000
vt 0.350000 -0.500000
vt 2.350000 0.500000
vt 2.500000 0.350000
vt -0.425000 0.479904
vt -0.479904 0.425000
vt -2.425000 0.479904
vt -2.479904 0.425000
vt -2.500000 0.350000
vt 1.500000 0.500000
vt -0.500000 0.500000
vt -0.421732 -2.421732
vt 2.421732 -2.421732
vt 0.425000 -0.479904
vt 0.479904 -0.425000
vt 0.479904 0.425000
vt 0.425000 0.479904
vt 2.425000 -0.479904
vt 2.479904 -0.425000
vt 2.500000 -0.350000
vt 2.479904 0.425000
vt 2.425000 0.479904
vt -0.479904 -0.425000
vt -0.425000 -0.479904
vt -0.350000 0.500000
vt -2.500000 -0.350000
vt -2.350000 -0.500000
vt -2.479904 -0.425000
vt -2.425000 -0.479904
vt -2.350000 0.500000
s 1
usemtl ClayMat_66
f 4/1/4 1/2/1 2/3/2
f 2/4/2 3/5/3 8/6/4
f 2/3/2 7/7/7 8/8/4
f 5/7/5 1/3/1 3/8/3
f 7/1/7 3/2/3 8/3/4
f 4/4/4 5/5/5 7/6/7
f 12/9/11 13/10/12 9/11/8
f 16/12/15 14/13/13 12/14/11
f 15/15/14 16/12/15 10/16/9
f 15/17/14 20/18/19 17/19/16
f 18/20/17 19/21/18 11/22/10
f 13/10/12 20/23/19 18/24/17
f 14/25/13 17/19/16 20/18/19
f 28/12/27 29/15/28 25/16/24
f 28/14/27 33/26/32 30/13/29
f 31/15/30 32/12/31 26/16/25
f 35/27/34 33/28/32 31/29/30
f 34/30/33 35/27/34 27/31/26
f 29/15/28 36/32/35 34/33/33
f 30/34/29 33/28/32 36/35/35
f 52/36/47 53/37/48 49/38/44
f 56/20/51 54/25/49 52/39/47
f 55/21/50 56/20/51 50/22/45
f 55/21/50 60/19/55 57/18/52
f 58/40/53 59/41/54 51/42/46
f 58/43/53 54/44/49 60/45/55
f 54/25/49 57/18/52 60/19/55
f 72/41/63 73/40/64 69/42/60
f 76/30/67 74/34/65 72/46/63
f 75/27/66 76/30/67 70/31/61
f 75/27/66 80/28/71 77/35/68
f 78/40/69 79/41/70 71/42/62
f 73/47/64 80/48/71 78/40/69
f 74/34/65 77/35/68 80/28/71
f 100/49/83 101/50/84 97/51/80
f 104/9/87 102/52/85 100/53/83
f 103/10/86 104/9/87 98/11/81
f 103/10/86 108/23/91 105/54/88
f 106/55/89 107/56/90 99/57/82
f 101/58/84 108/59/91 106/55/89
f 102/52/85 105/54/88 108/23/91
f 116/60/95 117/61/96 113/62/92
f 120/15/99 118/32/97 116/33/95
f 119/12/98 120/15/99 114/16/93
f 119/12/98 124/13/103 121/26/100
f 122/50/101 123/49/102 115/51/94
f 122/63/101 118/64/97 124/65/103
f 118/32/97 121/26/100 124/13/103
f 148/66/115 149/67/116 145/68/112
f 152/55/119 150/69/117 148/58/115
f 151/56/118 152/55/119 146/57/113
f 155/70/122 153/59/120 151/56/118
f 154/37/121 155/36/122 147/38/114
f 154/37/121 150/45/117 156/44/123
f 150/69/117 153/59/120 156/71/123
f 160/61/127 161/60/128 157/62/124
f 160/61/127 165/65/132 162/64/129
f 163/67/130 164/66/131 158/68/125
f 167/40/134 165/72/132 163/47/130
f 166/41/133 167/40/134 159/42/126
f 161/60/128 168/73/135 166/74/133
f 162/64/129 165/65/132 168/73/135
f 22/75/21 32/12/31 24/76/23
f 32/12/31 23/77/22 24/76/23
f 28/12/27 21/75/20 23/76/22
f 27/31/26 18/20/17 11/22/10
f 35/27/34 13/39/12 18/20/17
f 31/15/30 9/11/8 13/10/12
f 62/78/36 53/37/48 64/79/38
f 53/37/48 63/80/39 64/79/38
f 58/40/53 61/81/37 63/82/39
f 45/83/40 55/21/50 50/22/45
f 47/84/42 59/17/54 55/21/50
f 59/41/54 46/85/41 51/42/46
f 66/86/57 76/30/67 68/87/59
f 76/30/67 67/88/58 68/87/59
f 72/41/63 65/85/56 67/89/58
f 50/22/45 75/27/66 70/31/61
f 56/20/51 79/29/70 75/27/66
f 52/36/47 71/42/62 79/41/70
f 109/90/73 106/55/89 99/57/82
f 106/55/89 112/91/74 101/58/84
f 101/50/84 110/92/72 97/51/80
f 130/93/76 117/61/96 132/94/78
f 117/61/96 131/95/79 132/94/78
f 122/50/101 129/92/77 131/96/79
f 125/75/104 119/12/98 114/16/93
f 127/76/106 123/14/102 119/12/98
f 123/49/102 126/97/105 115/51/94
f 99/57/82 116/60/95 113/62/92
f 107/24/90 120/15/99 116/33/95
f 103/10/86 114/16/93 120/15/99
f 141/78/109 154/37/121 147/38/114
f 143/79/111 149/43/116 154/37/121
f 149/67/116 142/98/108 145/68/112
f 157/62/124 151/56/118 146/57/113
f 161/60/128 155/70/122 151/56/118
f 166/41/133 147/38/114 155/36/122
f 82/83/73 19/21/18 84/84/75
f 19/21/18 83/99/74 84/84/75
f 15/15/14 81/100/72 83/101/74
f 37/102/36 12/9/11 9/11/8
f 39/103/38 16/53/15 12/9/11
f 16/12/15 38/75/37 10/16/9
f 85/86/76 34/30/33 27/31/26
f 87/87/78 29/46/28 34/30/33
f 29/15/28 86/100/77 25/16/24
f 62/78/36 39/103/38 37/102/36
f 64/79/38 40/104/39 39/103/38
f 63/82/39 38/75/37 40/76/39
f 22/75/21 44/82/23 42/81/21
f 24/76/23 43/105/22 44/82/23
f 23/76/22 41/81/20 43/82/22
f 42/81/21 78/40/69 71/42/62
f 78/40/69 43/105/22 73/47/64
f 73/40/64 41/81/20 69/42/60
f 82/83/73 111/106/75 109/90/73
f 84/84/75 112/91/74 111/106/75
f 83/101/74 110/92/72 112/96/74
f 130/93/76 87/87/78 85/86/76
f 132/94/78 88/88/79 87/87/78
f 131/96/79 86/100/77 88/101/79
f 89/90/40 47/84/42 45/83/40
f 91/106/42 48/99/43 47/84/42
f 92/107/43 46/85/41 48/89/43
f 66/86/57 96/94/59 94/93/57
f 68/87/59 95/95/58 96/94/59
f 67/89/58 93/108/56 95/107/58
f 134/102/109 104/9/87 136/103/111
f 104/9/87 135/104/110 136/103/111
f 100/49/83 133/97/108 135/109/110
f 134/102/109 143/79/111 141/78/109
f 136/103/111 144/80/110 143/79/111
f 135/109/110 142/98/108 144/110/110
f 137/81/104 127/76/106 125/75/104
f 139/82/106 128/77/107 127/76/106
f 140/110/107 126/97/105 128/109/107
f 89/90/40 152/55/119 91/106/42
f 91/106/42 148/58/115 92/91/43
f 148/66/115 90/108/41 92/107/43
f 137/81/104 167/40/134 139/82/106
f 139/82/106 163/47/130 140/105/107
f 163/67/130 138/98/105 140/110/107
f 94/93/57 160/61/127 157/62/124
f 96/94/59 164/63/131 160/61/127
f 164/66/131 93/108/56 158/68/125
f 85/86/76 11/22/10 82/83/73
f 10/16/9 2/3/2 81/100/72
f 9/11/8 22/75/21 37/102/36
f 6/1/6 21/75/20 1/3/1
f 21/111/20 38/112/37 22/75/21
f 1/3/1 25/16/24 86/100/77
f 37/102/36 42/81/21 62/78/36
f 38/75/37 4/1/4 2/3/2
f 65/85/56 41/81/20 6/1/6
f 41/111/20 61/112/37 42/75/21
f 62/78/36 71/42/62 49/38/44
f 50/22/45 66/86/57 45/83/40
f 45/83/40 94/93/57 89/90/40
f 65/113/56 46/85/41 66/114/57
f 61/81/37 46/85/41 4/1/4
f 4/1/4 90/108/41 7/7/7
f 93/108/56 6/1/6 5/7/5
f 81/100/72 8/8/4 110/92/72
f 88/115/79 87/116/78 85/86/76
f 130/93/76 82/83/73 109/90/73
f 3/8/3 86/100/77 129/92/77
f 89/90/40 157/62/124 146/57/113
f 93/113/56 90/85/41 94/114/57
f 7/7/7 145/68/112 142/98/108
f 158/68/125 5/7/5 138/98/105
f 113/62/92 109/90/73 99/57/82
f 134/102/109 114/16/93 98/11/81
f 110/92/72 133/97/108 97/51/80
f 131/115/79 132/116/78 130/86/76
f 126/97/105 129/92/77 115/51/94
f 141/78/109 125/75/104 134/102/109
f 128/117/107 127/118/106 125/119/104
f 138/98/105 3/8/3 126/97/105
f 8/8/4 142/98/108 133/97/108
f 147/38/114 137/81/104 141/78/109
f 140/117/107 139/118/106 137/119/104
f 4/1/4 6/120/6 1/2/1
f 2/4/2 1/121/1 3/5/3
f 2/3/2 4/1/4 7/7/7
f 5/7/5 6/1/6 1/3/1
f 7/1/7 5/120/5 3/2/3
f 4/4/4 6/121/6 5/5/5
f 12/9/11 14/54/13 13/10/12
f 16/53/15 17/52/16 14/54/13
f 15/15/14 17/26/16 16/12/15
f 15/17/14 19/21/18 20/18/19
f 18/20/17 20/18/19 19/21/18
f 13/39/12 14/25/13 20/18/19
f 28/12/27 30/26/29 29/15/28
f 28/14/27 32/12/31 33/26/32
f 31/15/30 33/26/32 32/12/31
f 35/27/34 36/35/35 33/28/32
f 34/30/33 36/35/35 35/27/34
f 29/46/28 30/34/29 36/35/35
f 52/36/47 54/44/49 53/37/48
f 56/20/51 57/18/52 54/25/49
f 55/21/50 57/18/52 56/20/51
f 55/21/50 59/17/54 60/19/55
f 58/40/53 60/48/55 59/41/54
f 58/43/53 53/37/48 54/44/49
f 72/41/63 74/48/65 73/40/64
f 76/30/67 77/35/68 74/34/65
f 75/27/66 77/35/68 76/30/67
f 75/27/66 79/29/70 80/28/71
f 78/40/69 80/48/71 79/41/70
f 73/47/64 74/72/65 80/48/71
f 100/49/83 102/122/85 101/50/84
f 104/9/87 105/54/88 102/52/85
f 103/10/86 105/54/88 104/9/87
f 103/10/86 107/24/90 108/23/91
f 106/55/89 108/59/91 107/56/90
f 101/58/84 102/69/85 108/59/91
f 116/60/95 118/64/97 117/61/96
f 120/15/99 121/26/100 118/32/97
f 119/12/98 121/26/100 120/15/99
f 119/12/98 123/14/102 124/13/103
f 122/50/101 124/122/103 123/49/102
f 122/63/101 117/61/96 118/64/97
f 148/66/115 150/123/117 149/67/116
f 152/55/119 153/59/120 150/69/117
f 151/56/118 153/59/120 152/55/119
f 155/70/122 156/71/123 153/59/120
f 154/37/121 156/44/123 155/36/122
f 154/37/121 149/43/116 150/45/117
f 160/61/127 162/64/129 161/60/128
f 160/61/127 164/63/131 165/65/132
f 163/67/130 165/123/132 164/66/131
f 167/40/134 168/48/135 165/72/132
f 166/41/133 168/48/135 167/40/134
f 161/60/128 162/64/129 168/73/135
f 22/75/21 26/16/25 32/12/31
f 32/12/31 28/14/27 23/77/22
f 28/12/27 25/16/24 21/75/20
f 27/31/26 35/27/34 18/20/17
f 35/27/34 31/29/30 13/39/12
f 31/15/30 26/16/25 9/11/8
f 62/78/36 49/38/44 53/37/48
f 53/37/48 58/43/53 63/80/39
f 58/40/53 51/42/46 61/81/37
f 45/83/40 47/84/42 55/21/50
f 47/84/42 48/99/43 59/17/54
f 59/41/54 48/89/43 46/85/41
f 66/86/57 70/31/61 76/30/67
f 76/30/67 72/46/63 67/88/58
f 72/41/63 69/42/60 65/85/56
f 50/22/45 56/20/51 75/27/66
f 56/20/51 52/39/47 79/29/70
f 52/36/47 49/38/44 71/42/62
f 109/90/73 111/106/75 106/55/89
f 106/55/89 111/106/75 112/91/74
f 101/50/84 112/96/74 110/92/72
f 130/93/76 113/62/92 117/61/96
f 117/61/96 122/63/101 131/95/79
f 122/50/101 115/51/94 129/92/77
f 125/75/104 127/76/106 119/12/98
f 127/76/106 128/77/107 123/14/102
f 123/49/102 128/109/107 126/97/105
f 99/57/82 107/56/90 116/60/95
f 107/24/90 103/10/86 120/15/99
f 103/10/86 98/11/81 114/16/93
f 141/78/109 143/79/111 154/37/121
f 143/79/111 144/80/110 149/43/116
f 149/67/116 144/110/110 142/98/108
f 157/62/124 161/60/128 151/56/118
f 161/60/128 166/74/133 155/70/122
f 166/41/133 159/42/126 147/38/114
f 82/83/73 11/22/10 19/21/18
f 19/21/18 15/17/14 83/99/74
f 15/15/14 10/16/9 81/100/72
f 37/102/36 39/103/38 12/9/11
f 39/103/38 40/104/39 16/53/15
f 16/12/15 40/76/39 38/75/37
f 85/86/76 87/87/78 34/30/33
f 87/87/78 88/88/79 29/46/28
f 29/15/28 88/101/79 86/100/77
f 62/78/36 64/79/38 39/103/38
f 64/79/38 63/80/39 40/104/39
f 63/82/39 61/81/37 38/75/37
f 22/75/21 24/76/23 44/82/23
f 24/76/23 23/77/22 43/105/22
f 23/76/22 21/75/20 41/81/20
f 42/81/21 44/82/23 78/40/69
f 78/40/69 44/82/23 43/105/22
f 73/40/64 43/82/22 41/81/20
f 82/83/73 84/84/75 111/106/75
f 84/84/75 83/99/74 112/91/74
f 83/101/74 81/100/72 110/92/72
f 130/93/76 132/94/78 87/87/78
f 132/94/78 131/95/79 88/88/79
f 131/96/79 129/92/77 86/100/77
f 89/90/40 91/106/42 47/84/42
f 91/106/42 92/91/43 48/99/43
f 92/107/43 90/108/41 46/85/41
f 66/86/57 68/87/59 96/94/59
f 68/87/59 67/88/58 95/95/58
f 67/89/58 65/85/56 93/108/56
f 134/102/109 98/11/81 104/9/87
f 104/9/87 100/53/83 135/104/110
f 100/49/83 97/51/80 133/97/108
f 134/102/109 136/103/111 143/79/111
f 136/103/111 135/104/110 144/80/110
f 135/109/110 133/97/108 142/98/108
f 137/81/104 139/82/106 127/76/106
f 139/82/106 140/105/107 128/77/107
f 140/110/107 138/98/105 126/97/105
f 89/90/40 146/57/113 152/55/119
f 91/106/42 152/55/119 148/58/115
f 148/66/115 145/68/112 90/108/41
f 137/81/104 159/42/126 167/40/134
f 139/82/106 167/40/134 163/47/130
f 163/67/130 158/68/125 138/98/105
f 94/93/57 96/94/59 160/61/127
f 96/94/59 95/95/58 164/63/131
f 164/66/131 95/107/58 93/108/56
f 85/86/76 27/31/26 11/22/10
f 10/16/9 38/75/37 2/3/2
f 9/11/8 26/16/25 22/75/21
f 6/1/6 41/81/20 21/75/20
f 1/121/1 2/4/2 38/112/37
f 38/112/37 40/124/39 39/125/38
f 39/125/38 37/102/36 38/112/37
f 37/102/36 22/75/21 38/112/37
f 22/75/21 24/126/23 23/127/22
f 23/127/22 21/111/20 22/75/21
f 21/111/20 1/121/1 38/112/37
f 1/3/1 21/75/20 25/16/24
f 37/102/36 22/75/21 42/81/21
f 38/75/37 61/81/37 4/1/4
f 65/85/56 69/42/60 41/81/20
f 6/121/6 4/4/4 61/112/37
f 61/112/37 63/124/39 64/125/38
f 64/125/38 62/102/36 61/112/37
f 62/102/36 42/75/21 61/112/37
f 42/75/21 44/126/23 43/127/22
f 43/127/22 41/111/20 42/75/21
f 41/111/20 6/121/6 61/112/37
f 62/78/36 42/81/21 71/42/62
f 50/22/45 70/31/61 66/86/57
f 45/83/40 66/86/57 94/93/57
f 6/120/6 4/1/4 46/85/41
f 46/85/41 48/128/43 47/129/42
f 47/129/42 45/130/40 46/85/41
f 45/130/40 66/114/57 46/85/41
f 66/114/57 68/131/59 67/132/58
f 67/132/58 65/113/56 66/114/57
f 65/113/56 6/120/6 46/85/41
f 61/81/37 51/42/46 46/85/41
f 4/1/4 46/85/41 90/108/41
f 93/108/56 65/85/56 6/1/6
f 81/100/72 2/3/2 8/8/4
f 85/86/76 82/83/73 81/100/72
f 82/83/73 84/133/75 81/100/72
f 84/133/75 83/134/74 81/100/72
f 81/100/72 2/3/2 1/2/1
f 1/2/1 86/135/77 81/100/72
f 86/135/77 88/115/79 85/86/76
f 81/100/72 86/135/77 85/86/76
f 130/93/76 85/86/76 82/83/73
f 3/8/3 1/3/1 86/100/77
f 89/90/40 94/93/57 157/62/124
f 5/120/5 7/1/7 90/85/41
f 90/85/41 92/128/43 91/129/42
f 91/129/42 89/130/40 90/85/41
f 89/130/40 94/114/57 90/85/41
f 94/114/57 96/131/59 95/132/58
f 95/132/58 93/113/56 94/114/57
f 93/113/56 5/120/5 90/85/41
f 7/7/7 90/108/41 145/68/112
f 158/68/125 93/108/56 5/7/5
f 113/62/92 130/93/76 109/90/73
f 134/102/109 125/75/104 114/16/93
f 110/92/72 8/8/4 133/97/108
f 130/86/76 109/83/73 110/100/72
f 109/83/73 111/133/75 110/100/72
f 111/133/75 112/134/74 110/100/72
f 110/100/72 8/3/4 3/2/3
f 3/2/3 129/135/77 110/100/72
f 129/135/77 131/115/79 130/86/76
f 110/100/72 129/135/77 130/86/76
f 126/97/105 3/8/3 129/92/77
f 141/78/109 137/81/104 125/75/104
f 125/119/104 134/136/109 133/137/108
f 134/136/109 136/138/111 133/137/108
f 136/138/111 135/139/110 133/137/108
f 133/137/108 8/6/4 3/5/3
f 3/5/3 126/140/105 133/137/108
f 126/140/105 128/117/107 125/119/104
f 133/137/108 126/140/105 125/119/104
f 138/98/105 5/7/5 3/8/3
f 8/8/4 7/7/7 142/98/108
f 147/38/114 159/42/126 137/81/104
f 137/119/104 141/136/109 142/137/108
f 141/136/109 143/138/111 142/137/108
f 143/138/111 144/139/110 142/137/108
f 142/137/108 7/6/7 5/5/5
f 5/5/5 138/140/105 142/137/108
f 138/140/105 140/117/107 137/119/104
f 142/137/108 138/140/105 137/119/104
