# Blender 5.1.2
# www.blender.org
mtllib scissors.mtl
o 円柱.004
v 0.018036 0.134890 -0.362160
v 0.018036 0.051611 -0.362160
v 0.130093 0.051611 -0.262385
v 0.130093 0.134890 -0.262385
v 0.479433 0.051611 0.038983
v 0.479433 0.134890 0.038983
v -1.825513 0.134889 2.866005
v -1.825513 0.051610 2.866005
v -1.790627 0.051610 2.816685
v -1.790627 0.134889 2.816685
v -1.705599 0.051610 2.721864
v -1.705599 0.134889 2.721864
v -0.120669 0.051611 0.840195
v -0.494704 0.051611 1.321613
v -0.890093 0.051610 1.792448
v -1.282970 0.051610 2.264528
v -1.282970 0.134889 2.264528
v -0.890093 0.134889 1.792448
v -0.494704 0.134889 1.321613
v -0.120669 0.134890 0.840195
v -0.419483 0.051611 0.616907
v -0.742993 0.051611 1.176404
v -1.087857 0.051610 1.725319
v -1.430208 0.051610 2.275479
v -0.563585 0.051611 0.524144
v -0.898827 0.051611 1.092505
v -1.219078 0.051610 1.668296
v -1.516047 0.051610 2.255624
v -1.430208 0.134889 2.275479
v -1.087856 0.134889 1.725319
v -0.742993 0.134889 1.176404
v -0.419483 0.134890 0.616907
v -1.516047 0.134889 2.255624
v -1.219078 0.134889 1.668296
v -0.898827 0.134889 1.092505
v -0.563585 0.134890 0.524144
v -0.064994 0.009595 0.054271
v -0.064994 0.266240 0.054271
v -0.016617 0.009595 0.041364
v -0.016617 0.266240 0.041364
v 0.033016 0.009595 0.047952
v 0.033016 0.266240 0.047952
v 0.076351 0.009595 0.073033
v 0.076351 0.266240 0.073033
v 0.106788 0.009595 0.112788
v 0.106788 0.266240 0.112788
v 0.119695 0.009595 0.161165
v 0.119695 0.266240 0.161165
v 0.113107 0.009595 0.210798
v 0.113107 0.266240 0.210798
v 0.088026 0.009595 0.254133
v 0.088026 0.266240 0.254133
v 0.048271 0.009595 0.284570
v 0.048271 0.266240 0.284570
v -0.000106 0.009595 0.297477
v -0.000106 0.266240 0.297477
v -0.049739 0.009595 0.290889
v -0.049739 0.266240 0.290889
v -0.093073 0.009595 0.265808
v -0.093073 0.266240 0.265808
v -0.123511 0.009595 0.226053
v -0.123511 0.266240 0.226053
v -0.136418 0.009595 0.177676
v -0.136418 0.266240 0.177676
v -0.129830 0.009595 0.128043
v -0.129830 0.266240 0.128043
v -0.104749 0.009595 0.084709
v -0.104749 0.266240 0.084709
v -0.013204 0.220832 -0.366174
v -0.013204 0.137554 -0.366174
v -0.125560 0.137554 -0.266737
v -0.125560 0.220832 -0.266737
v -0.475804 0.137554 0.033580
v -0.475804 0.220832 0.033580
v 1.820635 0.220831 2.867517
v 1.820635 0.137552 2.867517
v 1.785897 0.137552 2.818092
v 1.785897 0.220831 2.818092
v 1.701155 0.137552 2.723016
v 1.701155 0.220831 2.723016
v 0.121886 0.137553 0.836593
v 0.494473 0.137553 1.319132
v 0.888446 0.137553 1.791153
v 1.279902 0.137553 2.264412
v 1.279902 0.220831 2.264412
v 0.888446 0.220832 1.791153
v 0.494473 0.220832 1.319132
v 0.121886 0.220832 0.836593
v 0.421371 0.137553 0.614203
v 0.743198 0.137553 1.174670
v 1.086411 0.137553 1.724619
v 1.427107 0.137553 2.275805
v 0.565751 0.137553 0.521874
v 0.899283 0.137553 1.091240
v 1.217803 0.137553 1.667990
v 1.513005 0.137553 2.256208
v 1.427107 0.220831 2.275805
v 1.086410 0.220832 1.724619
v 0.743197 0.220832 1.174670
v 0.421371 0.220832 0.614203
v 1.513005 0.220831 2.256208
v 1.217803 0.220832 1.667990
v 0.899284 0.220832 1.091240
v 0.565751 0.220832 0.521874
v -2.098803 0.007651 -3.017941
v -2.098803 0.268184 -3.017941
v -1.900695 0.007651 -3.094329
v -1.900695 0.268184 -3.094329
v -1.673180 0.007651 -3.119107
v -1.673180 0.268184 -3.119107
v -1.416345 0.007651 -3.046060
v -1.416345 0.268184 -3.046060
v -1.251498 0.007651 -2.945403
v -1.251498 0.268184 -2.945403
v -1.150859 0.007651 -2.773460
v -1.150859 0.268184 -2.773460
v -1.044138 0.007651 -2.573308
v -1.044138 0.268184 -2.573308
v -0.931697 0.007651 -2.354480
v -0.931697 0.268184 -2.354480
v -0.814614 0.007651 -2.126979
v -0.814614 0.268184 -2.126979
v -0.705896 0.007651 -1.895364
v -0.705896 0.268184 -1.895364
v -0.601213 0.007651 -1.672719
v -0.601213 0.268184 -1.672719
v -0.507832 0.007651 -1.466007
v -0.507832 0.268184 -1.466007
v -0.433080 0.007651 -1.281332
v -0.433080 0.268184 -1.281332
v -0.377732 0.007651 -1.126822
v -0.377732 0.268184 -1.126822
v -0.311994 0.007651 -0.975922
v -0.311994 0.268184 -0.975922
v -0.534687 0.007651 -0.828548
v -0.534687 0.268184 -0.828548
v -0.942810 0.007651 -0.639829
v -0.942810 0.268184 -0.639829
v -1.155188 0.007651 -0.564795
v -1.155188 0.268184 -0.564795
v -1.382703 0.007651 -0.540017
v -1.382703 0.268184 -0.540017
v -1.611681 0.007651 -0.591884
v -1.611681 0.268184 -0.591884
v -1.758397 0.007651 -0.655678
v -1.758397 0.268184 -0.655678
v -1.931391 0.007651 -0.765877
v -1.931391 0.268184 -0.765877
v -2.093301 0.007651 -0.938885
v -2.093301 0.268184 -0.938885
v -2.236918 0.007651 -1.142381
v -2.236918 0.268184 -1.142381
v -2.359899 0.007651 -1.366981
v -2.359899 0.268184 -1.366981
v -2.462719 0.007651 -1.601497
v -2.462719 0.268184 -1.601497
v -2.536226 0.007651 -1.839474
v -2.536226 0.268184 -1.839474
v -2.560150 0.007651 -2.071975
v -2.560150 0.268184 -2.071975
v -2.537086 0.007651 -2.284354
v -2.537086 0.268184 -2.284354
v -2.502960 0.007651 -2.475020
v -2.502960 0.268184 -2.475020
v -2.404030 0.007651 -2.723038
v -2.404030 0.268184 -2.723038
v -2.258736 0.007651 -2.889462
v -2.258736 0.268184 -2.889462
v -0.013204 0.220832 -0.366174
v -0.013204 0.137554 -0.366174
v -0.125560 0.137554 -0.266737
v -0.125560 0.220832 -0.266737
v -0.475804 0.137554 0.033580
v -0.475804 0.220832 0.033580
v -0.002428 0.268184 -0.374444
v -0.002428 0.007651 -0.374444
v -0.156392 0.007651 -0.238769
v -0.156392 0.268184 -0.238769
v -0.508519 0.007651 0.063806
v -0.508519 0.268184 0.063806
v -1.873343 0.268184 -1.109680
v -1.640398 0.268184 -0.982907
v -1.747298 0.268184 -1.029388
v -2.314034 0.268184 -1.891918
v -2.331465 0.268184 -2.061321
v -2.217714 0.268184 -2.535695
v -2.314660 0.268184 -2.216063
v -2.289796 0.268184 -2.354985
v -0.693429 0.268184 -1.262722
v -0.741326 0.268184 -1.372670
v -0.781653 0.268184 -1.485248
v -2.185560 0.268184 -1.547653
v -2.095954 0.268184 -1.384006
v -2.260476 0.268184 -1.718524
v -1.991313 0.268184 -1.235736
v -1.307791 0.268184 -0.963169
v -1.153050 0.268184 -1.017840
v -1.995322 0.268184 -2.750565
v -1.473561 0.268184 -0.945116
v -2.111851 0.268184 -2.656954
v -1.685207 0.268184 -2.824275
v -1.144953 0.268184 -2.267158
v -1.226879 0.268184 -2.426600
v -1.304637 0.268184 -2.572433
v -1.498073 0.268184 -2.771053
v -1.377964 0.268184 -2.697713
v -0.855686 0.268184 -1.155343
v -1.850978 0.268184 -2.806222
v -1.059645 0.268184 -2.101398
v -0.980431 0.268184 -1.932640
v -0.836119 0.268184 -1.619805
v -0.904158 0.268184 -1.770418
v -1.850978 0.007651 -2.806222
v -1.685207 0.007651 -2.824275
v -1.304637 0.007651 -2.572433
v -1.377964 0.007651 -2.697713
v -1.498073 0.007651 -2.771053
v -1.747298 0.007651 -1.029388
v -1.307791 0.007651 -0.963169
v -1.473561 0.007651 -0.945116
v -1.640398 0.007651 -0.982907
v -2.314034 0.007651 -1.891918
v -2.260476 0.007651 -1.718524
v -2.289796 0.007651 -2.354985
v -2.314660 0.007651 -2.216063
v -2.331465 0.007651 -2.061321
v -1.995322 0.007651 -2.750565
v -0.693429 0.007651 -1.262722
v -0.741326 0.007651 -1.372670
v -0.781653 0.007651 -1.485248
v -1.059645 0.007651 -2.101398
v -0.980431 0.007651 -1.932640
v -1.144953 0.007651 -2.267158
v -0.836119 0.007651 -1.619805
v -0.904158 0.007651 -1.770418
v -1.226879 0.007651 -2.426600
v -2.185560 0.007651 -1.547653
v -2.095954 0.007651 -1.384006
v -1.991313 0.007651 -1.235736
v -1.873343 0.007651 -1.109680
v -2.217714 0.007651 -2.535695
v -2.111851 0.007651 -2.656954
v -0.855686 0.007651 -1.155343
v -1.153050 0.007651 -1.017840
v 2.111595 0.007651 -3.007647
v 2.111595 0.268184 -3.007647
v 1.913717 0.007651 -3.084629
v 1.913717 0.268184 -3.084629
v 1.686278 0.007651 -3.110091
v 1.686278 0.268184 -3.110091
v 1.429224 0.007651 -3.037817
v 1.429224 0.268184 -3.037817
v 1.264076 0.007651 -2.937656
v 1.264076 0.268184 -2.937656
v 1.162920 0.007651 -2.766016
v 1.162920 0.268184 -2.766016
v 1.055598 0.007651 -2.566186
v 1.055598 0.268184 -2.566186
v 0.942500 0.007651 -2.347696
v 0.942500 0.268184 -2.347696
v 0.824734 0.007651 -2.120548
v 0.824734 0.268184 -2.120548
v 0.715320 0.007651 -1.889260
v 0.715320 0.268184 -1.889260
v 0.609969 0.007651 -1.666932
v 0.609969 0.268184 -1.666932
v 0.515967 0.007651 -1.460501
v 0.515967 0.268184 -1.460501
v 0.440660 0.007651 -1.276051
v 0.440660 0.268184 -1.276051
v 0.384849 0.007651 -1.121708
v 0.384849 0.268184 -1.121708
v 0.318658 0.007651 -0.971007
v 0.318658 0.268184 -0.971007
v 0.540907 0.007651 -0.822964
v 0.540907 0.268184 -0.822964
v 0.948461 0.007651 -0.633020
v 0.948461 0.268184 -0.633020
v 1.160612 0.007651 -0.557347
v 1.160612 0.268184 -0.557347
v 1.388051 0.007651 -0.531886
v 1.388051 0.268184 -0.531886
v 1.617185 0.007651 -0.583065
v 1.617185 0.268184 -0.583065
v 1.764092 0.007651 -0.646417
v 1.764092 0.268184 -0.646417
v 1.937416 0.007651 -0.756095
v 1.937416 0.268184 -0.756095
v 2.099845 0.007651 -0.928617
v 2.099845 0.268184 -0.928617
v 2.244073 0.007651 -1.131680
v 2.244073 0.268184 -1.131680
v 2.367728 0.007651 -1.355910
v 2.367728 0.268184 -1.355910
v 2.471253 0.007651 -1.590115
v 2.471253 0.268184 -1.590115
v 2.545475 0.007651 -1.827870
v 2.545475 0.268184 -1.827870
v 2.570096 0.007651 -2.060299
v 2.570096 0.268184 -2.060299
v 2.547671 0.007651 -2.272746
v 2.547671 0.268184 -2.272746
v 2.514118 0.007651 -2.463514
v 2.514118 0.268184 -2.463514
v 2.415934 0.007651 -2.711828
v 2.415934 0.268184 -2.711828
v 2.271141 0.007651 -2.878688
v 2.271141 0.268184 -2.878688
v 0.018036 0.134890 -0.362159
v 0.018036 0.051611 -0.362159
v 0.130093 0.051611 -0.262385
v 0.130093 0.134890 -0.262385
v 0.479433 0.051611 0.038983
v 0.479433 0.134890 0.038983
v 0.007285 0.268184 -0.370462
v 0.007285 0.007651 -0.370462
v 0.160841 0.007651 -0.234325
v 0.160841 0.268184 -0.234325
v 0.512056 0.007651 0.069307
v 0.512056 0.268184 0.069307
v 1.880401 0.268184 -1.100072
v 1.647076 0.268184 -0.974000
v 1.754115 0.268184 -1.020159
v 2.323441 0.268184 -1.880982
v 2.341381 0.268184 -2.050333
v 2.229056 0.268184 -2.525045
v 2.325041 0.268184 -2.205124
v 2.300595 0.268184 -2.344120
v 0.700952 0.268184 -1.256660
v 0.749180 0.268184 -1.366462
v 0.789845 0.268184 -1.478919
v 2.193933 0.268184 -1.537105
v 2.103836 0.268184 -1.373728
v 2.269362 0.268184 -1.707750
v 1.998750 0.268184 -1.225773
v 1.314411 0.268184 -0.955262
v 1.159835 0.268184 -1.010397
v 2.007311 0.268184 -2.740583
v 1.480127 0.268184 -0.936710
v 2.123558 0.268184 -2.646621
v 1.697419 0.268184 -2.815225
v 1.155493 0.268184 -2.259734
v 1.237898 0.268184 -2.418928
v 1.316094 0.268184 -2.564527
v 1.510126 0.268184 -2.762565
v 1.389797 0.268184 -2.689586
v 0.862886 0.268184 -1.148793
v 1.863134 0.268184 -2.796674
v 1.069687 0.268184 -2.094230
v 0.989966 0.268184 -1.925711
v 0.844714 0.268184 -1.613312
v 0.913206 0.268184 -1.763720
v 1.863134 0.007651 -2.796674
v 1.697419 0.007651 -2.815225
v 1.316094 0.007651 -2.564527
v 1.389797 0.007651 -2.689586
v 1.510126 0.007651 -2.762565
v 1.754115 0.007651 -1.020159
v 1.314411 0.007651 -0.955262
v 1.480127 0.007651 -0.936710
v 1.647076 0.007651 -0.974000
v 2.323441 0.007651 -1.880982
v 2.269362 0.007651 -1.707750
v 2.300595 0.007651 -2.344120
v 2.325041 0.007651 -2.205124
v 2.341381 0.007651 -2.050333
v 2.007311 0.007651 -2.740583
v 0.700952 0.007651 -1.256660
v 0.749180 0.007651 -1.366462
v 0.789845 0.007651 -1.478919
v 1.069687 0.007651 -2.094230
v 0.989966 0.007651 -1.925711
v 1.155493 0.007651 -2.259734
v 0.844714 0.007651 -1.613312
v 0.913206 0.007651 -1.763720
v 1.237898 0.007651 -2.418928
v 2.193933 0.007651 -1.537105
v 2.103836 0.007651 -1.373728
v 1.998750 0.007651 -1.225773
v 1.880401 0.007651 -1.100072
v 2.229056 0.007651 -2.525045
v 2.123558 0.007651 -2.646621
v 0.862886 0.007651 -1.148793
v 1.159835 0.007651 -1.010397
v -2.668105 0.144559 -2.026132
v -2.747858 0.144559 -1.991858
v -2.747858 0.112561 -1.991858
v -2.668105 0.112561 -2.026132
v -3.752882 0.144559 -2.221637
v -3.809817 0.144559 -2.287163
v -3.809817 0.112561 -2.287163
v -3.752882 0.112561 -2.221637
v -2.557274 0.144559 -2.825447
v -2.500338 0.144559 -2.759922
v -2.500338 0.112561 -2.759922
v -2.557274 0.112561 -2.825447
v -3.642050 0.144559 -3.020952
v -3.562297 0.144559 -3.055227
v -3.562297 0.112561 -3.055227
v -3.642050 0.112561 -3.020952
v -2.556260 0.144559 -2.515325
v -2.612182 0.144559 -2.270729
v -2.556260 0.112561 -2.515325
v -2.612182 0.112561 -2.270729
v -2.198995 0.127681 -2.433644
v -2.254918 0.127681 -2.189047
v -2.519484 0.253003 -2.506607
v -2.575407 0.253003 -2.262011
v -2.198995 0.227208 -2.433644
v -2.254918 0.227208 -2.189047
v -2.524774 0.032207 -2.509705
v -2.580696 0.032207 -2.265109
v -2.198995 0.056741 -2.433644
v -2.254918 0.056741 -2.189047
v -2.258539 0.271531 -2.447257
v -2.318083 0.269433 -2.460871
v -2.377628 0.269433 -2.474484
v -2.461158 0.274011 -2.492805
v -2.527861 0.191714 -2.507268
v -2.584908 0.191714 -2.264911
v -2.517081 0.274011 -2.248208
v -2.433550 0.269433 -2.229888
v -2.374006 0.269433 -2.216274
v -2.314462 0.271531 -2.202661
v -2.258539 0.297962 -2.447257
v -2.318083 0.304466 -2.460871
v -2.377628 0.304466 -2.474484
v -2.437172 0.303510 -2.488098
v -2.496716 0.274478 -2.501712
v -2.552638 0.274478 -2.257115
v -2.493094 0.303510 -2.243501
v -2.433550 0.304466 -2.229888
v -2.374006 0.304466 -2.216274
v -2.314462 0.297962 -2.202661
v -2.530951 0.065406 -2.508837
v -2.461158 -0.015217 -2.492805
v -2.377628 -0.009852 -2.474484
v -2.318083 -0.009852 -2.460871
v -2.258539 -0.014412 -2.447257
v -2.314462 -0.014412 -2.202661
v -2.374006 -0.009852 -2.216274
v -2.433550 -0.009852 -2.229888
v -2.517081 -0.015217 -2.248208
v -2.590321 0.065406 -2.266135
v -2.496716 0.002966 -2.501712
v -2.437172 -0.026067 -2.488098
v -2.377628 -0.027023 -2.474484
v -2.318083 -0.027023 -2.460871
v -2.258539 -0.020519 -2.447257
v -2.314462 -0.020519 -2.202661
v -2.374006 -0.027023 -2.216274
v -2.433550 -0.027023 -2.229888
v -2.493094 -0.026067 -2.243501
v -2.552638 0.002966 -2.257115
v -2.499144 0.239956 -2.502027
v -2.556893 0.239956 -2.259777
v -2.466944 0.297962 -2.494905
v -2.522866 0.297962 -2.250308
v -2.500971 0.018394 -2.504373
v -2.556893 0.018394 -2.259777
v -2.466944 -0.020519 -2.494905
v -2.522866 -0.020519 -2.250309
v -2.269814 0.198551 -2.194589
v -2.284690 0.273583 -2.195854
v -2.213892 0.198551 -2.439185
v -2.228767 0.273583 -2.440450
v -2.213892 0.055050 -2.439185
v -2.228767 0.003860 -2.440450
v -2.284690 0.049074 -2.195854
v -2.284690 0.003860 -2.195854
vn 0.7518 -0.0000 0.6594
vn 0.7395 -0.0000 0.6732
vn 0.7818 -0.0000 0.6236
vn 0.8164 -0.0000 0.5775
vn -0.0000 -1.0000 -0.0000
vn -0.0000 1.0000 -0.0000
vn -0.8922 -0.0000 -0.4517
vn -0.8919 -0.0000 -0.4522
vn -0.8361 -0.0000 -0.5486
vn -0.8489 -0.0000 -0.5285
vn -0.8677 -0.0000 -0.4971
vn -0.8833 -0.0000 -0.4687
vn 0.8004 -0.0000 0.5995
vn 0.7951 -0.0000 0.6065
vn 0.7779 -0.0000 0.6284
vn 0.7672 -0.0000 0.6414
vn -0.0643 -0.0000 -0.9979
vn -0.4413 -0.0000 -0.8973
vn 0.3225 -0.0000 -0.9466
vn 0.6602 -0.0000 -0.7511
vn 0.3224 -0.0000 -0.9466
vn 0.8973 -0.0000 -0.4413
vn 0.6601 -0.0000 -0.7511
vn 0.9979 -0.0000 -0.0643
vn 0.9466 -0.0000 0.3225
vn 0.7511 -0.0000 0.6601
vn 0.9466 -0.0000 0.3224
vn 0.4413 -0.0000 0.8973
vn 0.0643 -0.0000 0.9979
vn -0.3225 -0.0000 0.9466
vn -0.6601 -0.0000 0.7511
vn -0.8973 -0.0000 0.4413
vn -0.9979 -0.0000 0.0643
vn -0.9466 -0.0000 -0.3225
vn -0.7511 -0.0000 -0.6602
vn -0.9466 -0.0000 -0.3224
vn -0.7511 -0.0000 -0.6601
vn -0.7415 -0.0000 0.6709
vn -0.7538 -0.0000 0.6571
vn -0.7836 -0.0000 0.6212
vn 0.8935 -0.0000 -0.4490
vn 0.8933 -0.0000 -0.4495
vn 0.8377 -0.0000 -0.5461
vn 0.8505 -0.0000 -0.5259
vn 0.8692 -0.0000 -0.4945
vn 0.8847 -0.0000 -0.4661
vn -0.7969 -0.0000 0.6041
vn -0.8022 -0.0000 0.5971
vn -0.7798 -0.0000 0.6261
vn -0.7691 -0.0000 0.6391
vn -0.2360 -0.0000 -0.9718
vn -0.4990 -0.0000 -0.8666
vn 0.0842 -0.0000 -0.9964
vn 0.4010 -0.0000 -0.9161
vn 0.7137 -0.0000 -0.7005
vn 0.8729 -0.0000 -0.4879
vn 0.8860 -0.0000 -0.4638
vn 0.8893 -0.0000 -0.4573
vn 0.9051 -0.0000 -0.4252
vn 0.9082 -0.0000 -0.4186
vn 0.9193 -0.0000 -0.3935
vn 0.9344 -0.0000 -0.3563
vn 0.9296 -0.0000 -0.3685
vn 0.9034 -0.0000 -0.4287
vn -0.8510 -0.0000 0.5252
vn 0.2222 -0.0000 0.9750
vn 0.3331 -0.0000 0.9429
vn -0.0571 -0.0000 0.9984
vn -0.3112 -0.0000 0.9503
vn -0.4695 -0.0000 0.8830
vn -0.6387 -0.0000 0.7694
vn -0.7754 -0.0000 0.6315
vn -0.8484 -0.0000 0.5293
vn -0.7754 -0.0000 0.6314
vn -0.9372 -0.0000 0.3489
vn -0.9799 -0.0000 0.1997
vn -1.0000 -0.0000 -0.0028
vn -0.9898 -0.0000 -0.1422
vn -0.9615 -0.0000 -0.2747
vn -0.8532 -0.0000 -0.5215
vn -0.6925 -0.0000 -0.7214
vn 0.8891 -0.0000 -0.4576
vn 0.6530 -0.0151 0.7572
vn 0.6304 -0.0079 0.7763
vn 0.6284 0.0026 0.7779
vn 0.6586 0.0057 0.7525
vn 0.6574 0.0069 0.7535
vn 0.6584 -0.0165 0.7524
vn 0.6551 0.0075 0.7555
vn 0.6678 0.0048 0.7443
vn 0.6653 -0.0165 0.7464
vn 0.6536 -0.0217 0.7566
vn 0.6646 -0.0176 0.7469
vn 0.4990 -0.0000 0.8666
vn 0.2360 -0.0000 0.9718
vn -0.0842 -0.0000 0.9964
vn -0.4010 -0.0000 0.9161
vn -0.7137 -0.0000 0.7005
vn -0.8729 -0.0000 0.4879
vn -0.8860 -0.0000 0.4638
vn -0.8893 -0.0000 0.4573
vn -0.9051 -0.0000 0.4252
vn -0.9082 -0.0000 0.4186
vn -0.9193 -0.0000 0.3935
vn -0.9344 -0.0000 0.3563
vn -0.9296 -0.0000 0.3685
vn -0.9168 -0.0000 0.3994
vn -0.2222 -0.0000 -0.9750
vn -0.3768 -0.0000 -0.9263
vn 0.0571 -0.0000 -0.9984
vn 0.3112 -0.0000 -0.9503
vn 0.4695 -0.0000 -0.8830
vn 0.6387 -0.0000 -0.7694
vn 0.7754 -0.0000 -0.6315
vn 0.8484 -0.0000 -0.5293
vn 0.9372 -0.0000 -0.3489
vn 0.9799 -0.0000 -0.1997
vn 1.0000 -0.0000 0.0028
vn 0.9898 -0.0000 0.1422
vn 0.9615 -0.0000 0.2747
vn 0.8532 -0.0000 0.5215
vn 0.6925 -0.0000 0.7214
vn -0.4872 -0.0000 -0.8733
vn -0.5519 -0.0000 -0.8339
vn 0.5016 -0.0000 -0.8651
vn 0.2389 -0.0000 -0.9710
vn -0.0812 -0.0000 -0.9967
vn -0.3983 -0.0000 -0.9173
vn -0.5186 -0.0000 -0.8550
vn -0.8615 -0.0000 -0.5077
vn -0.8714 -0.0000 -0.4905
vn -0.8846 -0.0000 -0.4664
vn -0.8879 -0.0000 -0.4600
vn -0.8960 -0.0000 -0.4440
vn -0.9038 -0.0000 -0.4279
vn -0.9069 -0.0000 -0.4213
vn -0.9181 -0.0000 -0.3963
vn -0.9333 -0.0000 -0.3591
vn -0.9285 -0.0000 -0.3713
vn -0.9021 -0.0000 -0.4314
vn 0.8494 -0.0000 0.5278
vn -0.3360 -0.0000 0.9419
vn -0.2251 -0.0000 0.9743
vn 0.0541 -0.0000 0.9985
vn 0.3083 -0.0000 0.9513
vn 0.4668 -0.0000 0.8844
vn 0.6364 -0.0000 0.7713
vn 0.7735 -0.0000 0.6338
vn 0.8468 -0.0000 0.5318
vn 0.8960 -0.0000 0.4440
vn 0.9361 -0.0000 0.3517
vn 0.9793 -0.0000 0.2027
vn 0.9793 -0.0000 0.2026
vn 1.0000 -0.0000 0.0002
vn 0.9903 -0.0000 -0.1392
vn 0.9623 -0.0000 -0.2719
vn 0.8548 -0.0000 -0.5189
vn 0.8548 -0.0000 -0.5190
vn 0.6946 -0.0000 -0.7193
vn 0.6946 -0.0000 -0.7194
vn -0.8878 -0.0000 -0.4603
vn -0.6307 -0.0025 0.7760
vn -0.6609 -0.0055 0.7504
vn -0.6546 0.0161 0.7558
vn -0.6608 0.0176 0.7504
vn -0.6329 0.0086 0.7742
vn -0.6596 -0.0068 0.7516
vn -0.6574 -0.0073 0.7535
vn -0.6674 0.0181 0.7445
vn -0.6557 0.0234 0.7547
vn -0.6701 -0.0046 0.7423
vn -0.6595 -0.0096 0.7516
vn -0.6675 0.0181 0.7444
vn -0.2389 -0.0000 0.9710
vn -0.5016 -0.0000 0.8651
vn 0.0812 -0.0000 0.9967
vn 0.3983 -0.0000 0.9173
vn 0.5186 -0.0000 0.8550
vn 0.8615 -0.0000 0.5077
vn 0.8714 -0.0000 0.4905
vn 0.8846 -0.0000 0.4664
vn 0.8879 -0.0000 0.4600
vn 0.9038 -0.0000 0.4279
vn 0.9069 -0.0000 0.4213
vn 0.9181 -0.0000 0.3963
vn 0.9333 -0.0000 0.3591
vn 0.9285 -0.0000 0.3713
vn 0.9156 -0.0000 0.4021
vn 0.3796 -0.0000 -0.9251
vn 0.2251 -0.0000 -0.9743
vn -0.0541 -0.0000 -0.9985
vn -0.3083 -0.0000 -0.9513
vn -0.4668 -0.0000 -0.8844
vn -0.6364 -0.0000 -0.7713
vn -0.7735 -0.0000 -0.6338
vn -0.8468 -0.0000 -0.5318
vn -0.9361 -0.0000 -0.3517
vn -0.9793 -0.0000 -0.2027
vn -1.0000 -0.0000 -0.0002
vn -0.9903 -0.0000 0.1392
vn -0.9623 -0.0000 0.2719
vn -0.8548 -0.0000 0.5189
vn -0.8548 -0.0000 0.5190
vn -0.6946 -0.0000 0.7194
vn -0.6946 -0.0000 0.7193
vn 0.4898 -0.0000 -0.8718
vn 0.5544 -0.0000 -0.8323
vn 0.3948 -0.0000 0.9188
vn -0.7549 -0.0000 0.6559
vn -0.5142 -0.0000 0.8577
vn -0.3948 -0.0000 -0.9187
vn -0.3948 -0.0000 -0.9188
vn 0.7548 -0.0000 -0.6559
vn 0.5142 -0.0000 -0.8577
vn -0.2229 -0.0000 0.9748
vn 0.9748 -0.0000 0.2229
vn -0.9748 -0.0000 -0.2229
vn 0.2229 -0.0000 -0.9748
vn 0.9416 -0.2589 0.2153
vn -0.9205 0.3291 -0.2105
vn -0.8154 0.5481 -0.1864
vn -0.8148 0.5490 -0.1863
vn 0.7201 0.6741 0.1646
vn 0.9338 0.2871 0.2135
vn -0.1726 -0.0214 0.9848
vn -0.1749 -0.0491 0.9834
vn -0.1944 -0.0163 0.9808
vn 0.3221 0.0108 -0.9466
vn 0.2298 0.0219 -0.9730
vn 0.2943 0.0317 -0.9552
vn 0.7390 -0.6522 0.1690
vn -0.9059 -0.3695 -0.2071
vn -0.8156 -0.5478 -0.1865
vn 0.4032 0.0944 -0.9102
vn 0.1144 -0.1244 -0.9856
vn 0.3644 0.0921 -0.9267
vn 0.3102 -0.0315 -0.9502
vn 0.3249 -0.0342 -0.9451
vn 0.2363 -0.0218 -0.9714
vn 0.2403 -0.0229 -0.9704
vn 0.1985 -0.0064 -0.9801
vn 0.2360 -0.0247 -0.9714
vn 0.2244 -0.0270 -0.9741
vn 0.2195 -0.0027 -0.9756
vn 0.2186 -0.0000 -0.9758
vn -0.2224 -0.0071 0.9749
vn -0.3221 -0.0108 0.9466
vn -0.2298 -0.0219 0.9730
vn -0.2186 -0.0000 0.9758
vn -0.2582 0.0181 0.9659
vn -0.2195 0.0027 0.9756
vn -0.0999 -0.0592 0.9932
vn -0.2406 0.0138 0.9705
vn -0.6283 0.7646 -0.1436
vn -0.6281 0.7648 -0.1436
vn -0.3954 0.9141 -0.0904
vn -0.1742 0.9839 -0.0398
vn -0.0153 0.9999 -0.0035
vn -0.0076 1.0000 -0.0017
vn 0.1032 0.9944 0.0236
vn -0.3462 -0.0683 0.9357
vn -0.3566 -0.0746 0.9313
vn -0.3402 -0.0697 0.9378
vn -0.2638 -0.0801 0.9613
vn 0.0401 0.1754 0.9837
vn -0.2745 -0.0536 0.9601
vn -0.2249 -0.0758 0.9714
vn -0.2190 -0.0028 0.9757
vn 0.2260 -0.0053 -0.9741
vn 0.3446 -0.0490 -0.9375
vn 0.2592 -0.0495 -0.9646
vn 0.2637 0.0800 -0.9613
vn 0.2190 0.0028 -0.9757
vn -0.1418 -0.2010 -0.9693
vn 0.2744 0.0535 -0.9601
vn -0.8142 -0.5499 -0.1862
vn -0.6444 -0.7504 -0.1473
vn -0.3954 -0.9141 -0.0904
vn -0.1742 -0.9839 -0.0398
vn -0.0153 -0.9999 -0.0035
vn -0.0076 -1.0000 -0.0017
vn 0.1032 -0.9944 0.0236
vn -0.2244 0.0270 0.9741
vn 0.2243 -0.0089 -0.9745
vn -0.6432 -0.7514 -0.1471
vn 0.2249 0.0758 -0.9714
vn -0.1159 0.1274 0.9851
vn -0.3487 -0.0000 0.9373
vn -0.2943 -0.0317 0.9552
vn 0.2224 0.0071 -0.9749
vn 0.6082 0.7815 0.1391
vn 0.3486 -0.0000 -0.9373
vn 0.3514 -0.0290 -0.9358
vn 0.6082 -0.7815 0.1391
vn 0.6082 -0.7815 0.1390
vn 0.8398 0.5047 0.2001
vn 0.7077 0.6878 0.1618
vn 0.7228 0.6696 0.1709
vn 0.6145 0.7763 0.1405
vn -0.0305 0.9995 -0.0070
vn -0.0610 0.9980 -0.0140
vn -0.0306 0.9995 -0.0070
vn 0.0726 0.9972 0.0166
vn -0.8825 0.4111 -0.2285
vn -0.8900 0.3956 -0.2268
vn -0.8214 0.5269 -0.2185
vn -0.9516 -0.2170 -0.2176
vn -0.9027 -0.3774 -0.2064
vn -0.9093 0.3353 -0.2465
vn -0.9527 0.2120 -0.2178
vn -0.8281 -0.5276 -0.1893
vn -0.9026 -0.3779 -0.2064
vn 0.0167 -0.9999 0.0038
vn 0.0335 -0.9994 0.0077
vn -0.0261 -0.9996 -0.0060
vn -0.0260 -0.9996 -0.0059
vn -0.0521 -0.9986 -0.0119
vn 0.7406 -0.6490 0.1739
vn 0.7447 -0.6437 0.1764
vn 0.6364 -0.7565 0.1509
vn 0.8376 -0.5091 0.1982
vn 0.8306 -0.5223 0.1931
vn 0.8363 -0.5119 0.1961
vn 0.8371 0.5096 0.1989
vn 0.8528 0.4845 0.1950
vn 0.8747 0.4357 0.2121
vn -0.8181 -0.0000 0.5750
vn 0.6574 0.0098 0.7535
vn -0.1767 -0.0192 0.9841
vn 0.4210 0.1019 -0.9013
vn 0.6082 0.7815 0.1390
vn -0.8785 0.4335 -0.2009
vn 0.6194 -0.7722 0.1416
vn 0.8266 -0.5301 0.1890
vt 0.508796 0.527866
vt 0.508796 0.972134
vt 0.537716 0.972134
vt 0.548672 0.972134
vt 0.537716 0.527866
vt 0.537716 0.527866
vt 0.508796 0.527866
vt 0.548672 0.527866
vt 0.537716 0.972134
vt 0.548672 0.972134
vt 0.548672 0.527866
vt 0.548672 0.972134
vt 0.548672 0.527866
vt 0.548672 0.972134
vt 0.548672 0.972134
vt 0.537716 0.972134
vt 0.537716 0.972134
vt 0.508796 0.972134
vt 0.537716 0.527866
vt 0.508796 0.527866
vt 0.937500 0.500000
vt 1.000000 0.500000
vt 1.000000 1.000000
vt 0.875000 0.500000
vt 0.937500 1.000000
vt 0.812500 0.500000
vt 0.875000 1.000000
vt 0.750000 0.500000
vt 0.812500 1.000000
vt 0.687500 0.500000
vt 0.750000 1.000000
vt 0.625000 0.500000
vt 0.687500 1.000000
vt 0.562500 0.500000
vt 0.625000 1.000000
vt 0.500000 0.500000
vt 0.562500 1.000000
vt 0.437500 0.500000
vt 0.500000 1.000000
vt 0.375000 0.500000
vt 0.437500 1.000000
vt 0.312500 0.500000
vt 0.375000 1.000000
vt 0.250000 0.500000
vt 0.312500 1.000000
vt 0.187500 0.500000
vt 0.250000 1.000000
vt 0.125000 0.500000
vt 0.187500 1.000000
vt 0.250000 0.490000
vt 0.158156 0.471731
vt 0.028269 0.341844
vt 0.062500 0.500000
vt 0.125000 1.000000
vt 0.000000 0.500000
vt 0.062500 1.000000
vt 0.919706 0.419706
vt 0.528269 0.158156
vt 0.841844 0.471731
vt 0.968750 0.500000
vt 0.968750 1.000000
vt 0.906250 0.500000
vt 0.906250 1.000000
vt 0.843750 0.500000
vt 0.843750 1.000000
vt 0.781250 0.500000
vt 0.781250 1.000000
vt 0.718750 0.500000
vt 0.718750 1.000000
vt 0.656250 0.500000
vt 0.656250 1.000000
vt 0.593750 0.500000
vt 0.593750 1.000000
vt 0.750000 0.010000
vt 0.796822 0.014612
vt 0.468750 0.500000
vt 0.468750 1.000000
vt 0.406250 0.500000
vt 0.406250 1.000000
vt 0.343750 0.500000
vt 0.343750 1.000000
vt 0.281250 0.500000
vt 0.281250 1.000000
vt 0.218750 0.500000
vt 0.218750 1.000000
vt 0.156250 0.500000
vt 0.156250 1.000000
vt 0.093750 0.500000
vt 0.093750 1.000000
vt 0.354795 0.098253
vt 0.449553 0.116663
vt 0.367925 0.119895
vt 0.143958 0.407352
vt 0.080294 0.419706
vt 0.122322 0.387185
vt 0.031250 0.500000
vt 0.031250 1.000000
vt 0.643958 0.407352
vt 0.616663 0.449553
vt 0.677905 0.428011
vt 0.854795 0.098253
vt 0.806961 0.092516
vt 0.341844 0.028269
vt 0.296822 0.014612
vt 0.250000 0.010000
vt 0.841844 0.028269
vt 0.531250 0.500000
vt 0.531250 1.000000
vt 1.000000 0.663538
vt 0.968750 0.663538
vt 0.968750 0.836462
vt 0.937500 0.663538
vt 0.937500 0.836462
vt 0.906250 0.663538
vt 0.906250 0.836462
vt 0.875000 0.663538
vt 0.875000 0.836462
vt 0.843750 0.663538
vt 0.843750 0.836462
vt 0.812500 0.663538
vt 0.812500 0.836462
vt 0.781250 0.663538
vt 0.781250 0.836462
vt 0.750000 0.663538
vt 0.750000 0.836462
vt 0.718750 0.663538
vt 0.718750 0.836462
vt 0.687500 0.663538
vt 0.687500 0.836462
vt 0.656250 0.663538
vt 0.656250 0.836462
vt 0.625000 0.663538
vt 0.625000 0.836462
vt 0.593750 0.663538
vt 0.593750 0.836462
vt 0.562500 0.663538
vt 0.562500 0.836462
vt 0.468750 0.663538
vt 0.468750 0.836462
vt 0.500000 0.836462
vt 0.437500 0.663538
vt 0.437500 0.836462
vt 0.406250 0.663538
vt 0.406250 0.836462
vt 0.375000 0.663538
vt 0.375000 0.836462
vt 0.343750 0.663538
vt 0.343750 0.836462
vt 0.312500 0.663538
vt 0.312500 0.836462
vt 0.281250 0.663538
vt 0.281250 0.836462
vt 0.250000 0.663538
vt 0.250000 0.836462
vt 0.218750 0.663538
vt 0.218750 0.836462
vt 0.187500 0.663538
vt 0.187500 0.836462
vt 0.156250 0.663538
vt 0.156250 0.836462
vt 0.125000 0.663538
vt 0.125000 0.836462
vt 0.093750 0.663538
vt 0.093750 0.836462
vt 0.062500 0.663538
vt 0.062500 0.836462
vt 0.031250 0.663538
vt 0.031250 0.836462
vt 0.000000 0.663538
vt 0.000000 0.836462
vt 0.557016 0.339844
vt 0.476048 0.363689
vt 0.414015 0.182561
vt 0.116663 0.449553
vt 0.711728 0.436949
vt 0.658156 0.471731
vt 0.490329 0.345708
vt 0.625000 0.000000
vt 0.375000 0.000000
vt 0.375000 0.014965
vt 0.375000 0.264965
vt 0.625000 0.264965
vt 0.625000 0.235035
vt 0.375000 0.514965
vt 0.625000 0.514965
vt 0.629988 0.490023
vt 0.370012 0.759977
vt 0.629988 0.759977
vt 0.625000 0.735035
vt 0.375000 0.735035
vt 0.125000 0.514965
vt 0.293329 0.756651
vt 0.625000 0.014965
vt 0.375000 0.235035
vt 0.626663 0.910015
vt 0.373337 0.910015
vt 0.375000 0.985035
vt 0.875000 0.514965
vt 0.706671 0.756651
vt 0.370012 0.490023
vt 0.371674 0.834996
vt 0.628326 0.834996
vt 0.216647 0.753326
vt 0.371674 0.834996
vt 0.783353 0.753326
vt 0.706671 0.756651
vt 0.373337 0.910015
vt 0.293329 0.756651
vt 0.216647 0.753326
vt 0.626663 0.910015
vt 0.628326 0.834996
vt 0.783353 0.753326
vt 0.000000 0.000000
vt 0.010000 0.250000
vt 0.341844 0.471731
vt 0.028269 0.158156
vt 0.419706 0.419706
vt 0.080294 0.080294
vt 0.471731 0.341844
vt 0.158156 0.028269
vt 0.490000 0.250000
vt 0.471731 0.158156
vt 0.419706 0.080294
vt 0.000000 1.000000
vt 0.510000 0.250000
vt 0.750000 0.490000
vt 0.528269 0.341844
vt 0.580294 0.419706
vt 0.580294 0.080294
vt 0.971731 0.341844
vt 0.658156 0.028269
vt 0.990000 0.250000
vt 0.971731 0.158156
vt 0.919706 0.080294
vt 0.050447 0.383337
vt 0.100167 0.362677
vt 0.084022 0.332673
vt 0.072689 0.265039
vt 0.014612 0.296822
vt 0.075533 0.299405
vt 0.083593 0.197545
vt 0.014612 0.203178
vt 0.075042 0.230699
vt 0.119715 0.142046
vt 0.050447 0.116663
vt 0.098281 0.166615
vt 0.172667 0.104304
vt 0.116663 0.050447
vt 0.207773 0.094247
vt 0.241741 0.091508
vt 0.203178 0.014612
vt 0.383337 0.050447
vt 0.306961 0.092516
vt 0.381709 0.141496
vt 0.485388 0.296822
vt 0.410962 0.264770
vt 0.409067 0.230749
vt 0.485388 0.203178
vt 0.394436 0.167885
vt 0.449553 0.383337
vt 0.389445 0.361242
vt 0.406932 0.298731
vt 0.377704 0.387283
vt 0.383337 0.449553
vt 0.352826 0.407522
vt 0.296822 0.485388
vt 0.280347 0.438042
vt 0.316157 0.428496
vt 0.245161 0.441249
vt 0.139764 0.124719
vt 0.399625 0.331320
vt 0.403663 0.198029
vt 0.211728 0.436949
vt 0.203178 0.485388
vt 0.177905 0.428010
vt 0.550447 0.383337
vt 0.622322 0.387185
vt 0.600167 0.362677
vt 0.703178 0.485388
vt 0.745161 0.441249
vt 0.796822 0.485388
vt 0.780347 0.438042
vt 0.883337 0.449553
vt 0.816157 0.428496
vt 0.949553 0.383337
vt 0.877704 0.387283
vt 0.852826 0.407522
vt 0.985388 0.296822
vt 0.906932 0.298730
vt 0.889445 0.361242
vt 0.985388 0.203178
vt 0.909068 0.230749
vt 0.910962 0.264770
vt 0.949553 0.116663
vt 0.867925 0.119895
vt 0.894436 0.167885
vt 0.883337 0.050447
vt 0.703178 0.014612
vt 0.741741 0.091508
vt 0.616663 0.050447
vt 0.672667 0.104304
vt 0.707773 0.094247
vt 0.550447 0.116663
vt 0.619715 0.142046
vt 0.639764 0.124719
vt 0.514612 0.203178
vt 0.583593 0.197545
vt 0.598281 0.166615
vt 0.514612 0.296822
vt 0.572689 0.265039
vt 0.575042 0.230699
vt 0.584022 0.332673
vt 0.575533 0.299405
vt 0.881709 0.141496
vt 0.899625 0.331320
vt 0.903663 0.198029
vt 1.000000 0.836462
vt 0.500000 0.663538
vt 0.668231 0.333806
vt 0.581769 0.676194
vt 0.125000 0.735035
vt 0.139965 0.500000
vt 0.139965 0.750000
vt 0.625000 0.985035
vt 0.860035 0.500000
vt 0.875000 0.735035
vt 0.860035 0.750000
s 1
usemtl マテリアル
f 16/1/1 17/2/1 12/2/2
f 10/3/3 7/4/4 9/5/3
f 24/6/5 16/1/5 11/7/5
f 28/8/5 24/6/5 9/5/5
f 29/9/6 10/3/6 12/2/6
f 33/10/6 7/4/6 10/3/6
f 28/8/7 8/11/8 7/4/8
f 2/11/9 25/11/10 36/12/10
f 25/11/10 26/13/11 35/14/11
f 26/13/11 27/13/12 34/15/12
f 27/13/12 28/8/7 33/10/7
f 1/4/6 36/12/6 32/16/6
f 36/12/6 35/14/6 31/17/6
f 35/14/6 34/15/6 30/9/6
f 34/15/6 33/10/6 29/9/6
f 4/3/6 32/16/6 20/18/6
f 32/16/6 31/17/6 19/2/6
f 31/17/6 30/9/6 18/2/6
f 30/9/6 29/9/6 17/2/6
f 2/11/5 3/5/5 21/19/5
f 25/11/5 21/19/5 22/6/5
f 26/13/5 22/6/5 23/5/5
f 27/13/5 23/5/5 24/6/5
f 3/5/5 5/7/5 13/1/5
f 21/19/5 13/1/5 14/20/5
f 22/6/5 14/20/5 15/1/5
f 23/5/5 15/1/5 16/1/5
f 5/7/13 6/2/13 20/18/14
f 13/1/14 20/18/14 19/2/15
f 14/20/15 19/2/15 18/2/16
f 15/1/16 18/2/16 17/2/1
f 39/21/17 37/22/18 38/23/18
f 41/24/19 39/21/17 40/25/17
f 43/26/20 41/24/19 42/27/21
f 45/28/22 43/26/20 44/29/23
f 47/30/24 45/28/22 46/31/22
f 49/32/25 47/30/24 48/33/24
f 51/34/26 49/32/25 50/35/27
f 53/36/28 51/34/26 52/37/26
f 55/38/29 53/36/28 54/39/28
f 57/40/30 55/38/29 56/41/29
f 59/42/31 57/40/30 58/43/30
f 61/44/32 59/42/31 60/45/31
f 63/46/33 61/44/32 62/47/32
f 65/48/34 63/46/33 64/49/33
f 38/50/6 68/51/6 64/52/6
f 67/53/35 65/48/34 66/54/36
f 37/55/18 67/53/35 68/56/37
f 41/57/5 59/58/5 39/59/5
f 80/2/38 85/2/39 84/1/39
f 78/3/40 80/2/38 77/5/40
f 79/7/5 84/1/5 92/6/5
f 77/5/5 92/6/5 96/8/5
f 97/9/6 85/2/6 80/2/6
f 101/10/6 97/9/6 78/3/6
f 96/8/41 101/10/41 75/4/42
f 70/11/43 69/4/43 104/12/44
f 93/11/44 104/12/44 103/14/45
f 94/13/45 103/14/45 102/15/46
f 95/13/46 102/15/46 101/10/41
f 69/4/6 72/3/6 100/16/6
f 104/12/6 100/16/6 99/17/6
f 103/14/6 99/17/6 98/9/6
f 102/15/6 98/9/6 97/9/6
f 72/3/6 74/2/6 88/18/6
f 100/16/6 88/18/6 87/2/6
f 99/17/6 87/2/6 86/2/6
f 98/9/6 86/2/6 85/2/6
f 89/19/5 71/5/5 70/11/5
f 90/6/5 89/19/5 93/11/5
f 91/5/5 90/6/5 94/13/5
f 92/6/5 91/5/5 95/13/5
f 81/1/5 73/7/5 71/5/5
f 82/20/5 81/1/5 89/19/5
f 83/1/5 82/20/5 90/6/5
f 84/1/5 83/1/5 91/5/5
f 88/18/47 74/2/48 73/7/48
f 87/2/49 88/18/47 81/1/47
f 86/2/50 87/2/49 82/20/49
f 85/2/39 86/2/50 83/1/50
f 16/1/1 12/2/2 11/7/2
f 10/3/3 11/7/2 12/2/2
f 9/5/3 7/4/4 8/11/4
f 10/3/3 9/5/3 11/7/2
f 24/6/5 11/7/5 9/5/5
f 28/8/5 9/5/5 8/11/5
f 29/9/6 12/2/6 17/2/6
f 33/10/6 10/3/6 29/9/6
f 28/8/7 7/4/8 33/10/7
f 2/11/9 36/12/10 1/4/9
f 25/11/10 35/14/11 36/12/10
f 26/13/11 34/15/12 35/14/11
f 27/13/12 33/10/7 34/15/12
f 1/4/6 32/16/6 4/3/6
f 36/12/6 31/17/6 32/16/6
f 35/14/6 30/9/6 31/17/6
f 34/15/6 29/9/6 30/9/6
f 4/3/6 20/18/6 6/2/6
f 32/16/6 19/2/6 20/18/6
f 31/17/6 18/2/6 19/2/6
f 30/9/6 17/2/6 18/2/6
f 2/11/5 21/19/5 25/11/5
f 25/11/5 22/6/5 26/13/5
f 26/13/5 23/5/5 27/13/5
f 27/13/5 24/6/5 28/8/5
f 3/5/5 13/1/5 21/19/5
f 21/19/5 14/20/5 22/6/5
f 22/6/5 15/1/5 23/5/5
f 23/5/5 16/1/5 24/6/5
f 5/7/13 20/18/14 13/1/14
f 13/1/14 19/2/15 14/20/15
f 14/20/15 18/2/16 15/1/16
f 15/1/16 17/2/1 16/1/1
f 39/21/17 38/23/18 40/25/17
f 41/24/19 40/25/17 42/27/21
f 43/26/20 42/27/21 44/29/23
f 45/28/22 44/29/23 46/31/22
f 47/30/24 46/31/22 48/33/24
f 49/32/25 48/33/24 50/35/27
f 51/34/26 50/35/27 52/37/26
f 53/36/28 52/37/26 54/39/28
f 55/38/29 54/39/28 56/41/29
f 57/40/30 56/41/29 58/43/30
f 59/42/31 58/43/30 60/45/31
f 61/44/32 60/45/31 62/47/32
f 63/46/33 62/47/32 64/49/33
f 65/48/34 64/49/33 66/54/36
f 38/50/6 62/214/6 40/215/6
f 40/215/6 60/216/6 42/217/6
f 62/214/6 60/216/6 40/215/6
f 42/217/6 58/218/6 44/219/6
f 44/219/6 56/220/6 46/221/6
f 58/218/6 56/220/6 44/219/6
f 46/221/6 54/105/6 48/222/6
f 48/222/6 52/103/6 50/223/6
f 54/105/6 52/103/6 48/222/6
f 54/105/6 46/221/6 56/220/6
f 58/218/6 42/217/6 60/216/6
f 62/214/6 38/50/6 64/52/6
f 64/52/6 68/51/6 66/94/6
f 67/53/35 66/54/36 68/56/37
f 37/55/18 68/56/37 38/224/18
f 39/59/5 61/225/5 37/226/5
f 37/226/5 63/227/5 67/176/5
f 67/176/5 63/227/5 65/228/5
f 63/227/5 37/226/5 61/225/5
f 61/225/5 39/59/5 59/58/5
f 59/58/5 41/57/5 57/229/5
f 57/229/5 43/230/5 55/231/5
f 55/231/5 45/232/5 53/74/5
f 53/74/5 47/233/5 51/106/5
f 51/106/5 47/233/5 49/234/5
f 47/233/5 53/74/5 45/232/5
f 45/232/5 55/231/5 43/230/5
f 43/230/5 57/229/5 41/57/5
f 80/2/38 84/1/39 79/7/38
f 78/3/40 76/11/327 75/4/327
f 77/5/40 80/2/38 79/7/38
f 78/3/40 77/5/40 76/11/327
f 79/7/5 92/6/5 77/5/5
f 77/5/5 96/8/5 76/11/5
f 97/9/6 80/2/6 78/3/6
f 101/10/6 78/3/6 75/4/6
f 96/8/41 75/4/42 76/11/42
f 70/11/43 104/12/44 93/11/44
f 93/11/44 103/14/45 94/13/45
f 94/13/45 102/15/46 95/13/46
f 95/13/46 101/10/41 96/8/41
f 69/4/6 100/16/6 104/12/6
f 104/12/6 99/17/6 103/14/6
f 103/14/6 98/9/6 102/15/6
f 102/15/6 97/9/6 101/10/6
f 72/3/6 88/18/6 100/16/6
f 100/16/6 87/2/6 99/17/6
f 99/17/6 86/2/6 98/9/6
f 98/9/6 85/2/6 97/9/6
f 89/19/5 70/11/5 93/11/5
f 90/6/5 93/11/5 94/13/5
f 91/5/5 94/13/5 95/13/5
f 92/6/5 95/13/5 96/8/5
f 81/1/5 71/5/5 89/19/5
f 82/20/5 89/19/5 90/6/5
f 83/1/5 90/6/5 91/5/5
f 84/1/5 91/5/5 92/6/5
f 88/18/47 73/7/48 81/1/47
f 87/2/49 81/1/47 82/20/49
f 86/2/50 82/20/49 83/1/50
f 85/2/39 83/1/50 84/1/39
usemtl マテリアル.001
f 107/60/51 105/22/52 106/23/52
f 109/21/53 107/60/51 108/61/51
f 111/62/54 109/21/53 110/25/53
f 113/24/55 111/62/54 112/63/54
f 115/64/56 113/24/55 114/27/55
f 117/26/57 115/64/56 116/65/56
f 119/66/58 117/26/57 118/29/57
f 121/28/22 119/66/58 120/67/58
f 123/68/59 121/28/22 122/31/22
f 125/30/60 123/68/59 124/69/59
f 127/70/61 125/30/60 126/33/60
f 129/32/62 127/70/61 128/71/61
f 131/72/63 129/32/62 130/35/62
f 133/34/64 131/72/63 132/73/63
f 179/74/5 137/74/5 135/75/5
f 180/39/65 138/39/65 137/36/65
f 139/76/66 137/36/67 138/39/67
f 141/38/68 139/76/66 140/77/66
f 143/78/69 141/38/68 142/41/68
f 145/40/70 143/78/69 144/79/69
f 147/80/71 145/40/70 146/43/70
f 149/42/72 147/80/71 148/81/71
f 151/82/73 149/42/72 150/45/74
f 153/44/32 151/82/73 152/83/73
f 155/84/75 153/44/32 154/47/32
f 157/46/76 155/84/75 156/85/75
f 159/86/77 157/46/76 158/49/76
f 161/48/78 159/86/77 160/87/77
f 163/88/79 161/48/78 162/54/78
f 165/53/80 163/88/79 164/89/79
f 189/90/6 128/91/6 190/92/6
f 188/93/6 162/94/6 187/95/6
f 167/96/81 165/53/80 166/56/80
f 105/55/52 167/96/81 168/97/81
f 224/98/5 163/99/5 241/100/5
f 228/101/5 135/75/5 243/102/5
f 134/103/6 136/104/6 178/104/6
f 176/34/82 133/34/64 134/37/64
f 136/104/6 138/105/6 180/105/6
f 177/75/5 135/75/5 133/106/5
f 175/37/83 169/4/84 170/11/85
f 176/34/86 170/11/85 171/5/87
f 172/3/88 169/4/84 175/37/83
f 177/107/89 171/5/87 173/7/90
f 174/2/91 172/3/88 178/108/92
f 173/7/90 174/2/91 180/39/93
f 227/109/94 213/110/95 208/111/95
f 213/110/95 214/112/96 201/113/96
f 214/112/96 217/114/97 205/115/97
f 216/116/98 206/117/98 205/115/97
f 215/118/99 204/119/99 206/117/98
f 236/120/100 203/121/100 204/119/99
f 233/122/101 202/123/101 203/121/100
f 231/124/32 209/125/32 202/123/101
f 232/126/102 210/127/102 209/125/32
f 235/128/103 212/129/103 210/127/102
f 234/130/104 211/131/104 212/129/103
f 230/132/105 191/133/105 211/131/104
f 229/134/106 190/135/106 191/133/105
f 228/136/107 189/137/107 190/135/106
f 219/138/108 196/139/108 197/140/109
f 220/141/110 199/142/110 196/139/108
f 221/143/111 182/144/111 199/142/110
f 218/145/112 183/146/112 182/144/111
f 218/145/112 240/147/113 181/148/113
f 240/147/113 239/149/114 195/150/114
f 239/149/114 238/151/115 193/152/115
f 238/151/115 237/153/22 192/154/22
f 237/153/22 223/155/116 194/156/116
f 223/155/116 222/157/117 184/158/117
f 222/157/117 226/159/118 185/160/118
f 226/159/118 225/161/119 187/162/119
f 225/161/119 224/163/120 188/164/120
f 224/163/120 241/165/121 186/166/121
f 241/165/121 242/167/122 200/168/122
f 242/167/122 227/169/94 198/170/94
f 243/171/123 207/172/123 189/173/124
f 246/23/125 245/22/125 247/60/126
f 248/61/126 247/60/126 249/21/127
f 250/25/127 249/21/127 251/62/128
f 252/63/128 251/62/128 253/24/129
f 254/27/130 253/24/130 255/64/131
f 256/65/131 255/64/131 257/26/132
f 258/29/132 257/26/132 259/66/133
f 260/67/133 259/66/133 261/28/134
f 262/31/134 261/28/134 263/68/135
f 264/69/135 263/68/135 265/30/136
f 266/33/136 265/30/136 267/70/137
f 268/71/137 267/70/137 269/32/138
f 270/35/138 269/32/138 271/72/139
f 272/73/139 271/72/139 273/34/140
f 275/75/5 277/74/5 319/74/5
f 277/36/141 278/39/141 320/39/141
f 278/39/142 277/36/142 279/76/143
f 280/77/143 279/76/143 281/38/144
f 282/41/144 281/38/144 283/78/145
f 284/79/145 283/78/145 285/40/146
f 286/43/146 285/40/146 287/80/147
f 288/81/147 287/80/147 289/42/148
f 290/45/148 289/42/148 291/82/149
f 292/83/149 291/82/149 293/44/150
f 294/47/150 293/44/150 295/84/151
f 296/85/151 295/84/151 297/46/152
f 298/49/153 297/46/152 299/86/154
f 300/87/154 299/86/154 301/48/155
f 302/54/155 301/48/155 303/88/156
f 304/89/156 303/88/156 305/53/157
f 330/92/6 268/91/6 329/90/6
f 327/95/6 304/174/6 328/93/6
f 306/56/158 305/53/157 307/96/159
f 308/97/160 307/96/159 245/55/125
f 382/175/5 305/176/5 381/100/5
f 275/75/5 368/101/5 383/102/5
f 276/104/6 274/103/6 315/103/6
f 274/37/140 273/34/140 316/34/161
f 276/104/6 318/104/6 320/105/6
f 275/75/5 317/75/5 316/106/5
f 309/4/162 315/37/163 316/34/164
f 311/5/165 310/11/166 316/34/164
f 312/3/167 318/108/168 315/37/163
f 313/7/169 311/5/165 317/107/170
f 314/2/171 320/39/172 318/108/168
f 314/2/171 313/7/169 319/36/173
f 348/111/174 353/110/174 367/109/175
f 341/113/176 354/112/176 353/110/174
f 345/115/177 357/114/177 354/112/176
f 345/115/177 346/117/178 356/116/178
f 346/117/179 344/119/180 355/118/180
f 344/119/180 343/121/181 376/120/181
f 343/121/181 342/123/182 373/122/182
f 342/123/182 349/125/150 371/124/150
f 349/125/150 350/127/183 372/126/183
f 350/127/183 352/129/184 375/128/184
f 352/129/184 351/131/185 374/130/185
f 351/131/185 331/133/186 370/132/186
f 331/133/186 330/135/187 369/134/187
f 330/135/187 329/137/188 368/136/188
f 337/140/189 336/139/190 359/138/190
f 336/139/190 339/142/191 360/141/191
f 339/142/191 322/144/192 361/143/192
f 322/144/192 323/146/193 358/145/193
f 321/148/194 380/147/194 358/145/193
f 335/150/195 379/149/195 380/147/194
f 333/152/196 378/151/196 379/149/195
f 332/154/134 377/153/134 378/151/196
f 334/156/197 363/155/197 377/153/134
f 324/158/198 362/157/198 363/155/197
f 325/160/199 366/159/199 362/157/198
f 327/162/200 365/161/200 366/159/199
f 328/164/201 364/163/201 365/161/200
f 326/166/202 381/165/203 364/163/201
f 340/168/204 382/167/205 381/165/203
f 338/170/175 367/169/175 382/167/205
f 347/172/206 383/171/206 368/177/207
f 107/60/51 106/23/52 108/61/51
f 109/21/53 108/61/51 110/25/53
f 111/62/54 110/25/53 112/63/54
f 113/24/55 112/63/54 114/27/55
f 115/64/56 114/27/55 116/65/56
f 117/26/57 116/65/56 118/29/57
f 119/66/58 118/29/57 120/67/58
f 121/28/22 120/67/58 122/31/22
f 123/68/59 122/31/22 124/69/59
f 125/30/60 124/69/59 126/33/60
f 127/70/61 126/33/60 128/71/61
f 129/32/62 128/71/61 130/35/62
f 131/72/63 130/35/62 132/73/63
f 133/34/64 132/73/63 134/37/64
f 179/74/5 135/75/5 177/75/5
f 180/39/65 137/36/65 179/36/65
f 139/76/66 138/39/67 140/77/66
f 141/38/68 140/77/66 142/41/68
f 143/78/69 142/41/68 144/79/69
f 145/40/70 144/79/69 146/43/70
f 147/80/71 146/43/70 148/81/71
f 149/42/72 148/81/71 150/45/74
f 151/82/73 150/45/74 152/83/73
f 153/44/32 152/83/73 154/47/32
f 155/84/75 154/47/32 156/85/75
f 157/46/76 156/85/75 158/49/76
f 159/86/77 158/49/76 160/87/77
f 161/48/78 160/87/77 162/54/78
f 163/88/79 162/54/78 164/89/79
f 165/53/80 164/89/79 166/56/80
f 162/94/6 160/235/6 187/95/6
f 187/95/6 160/235/6 185/236/6
f 185/236/6 158/52/6 184/237/6
f 158/52/6 185/236/6 160/235/6
f 154/214/6 192/238/6 156/239/6
f 156/239/6 184/237/6 158/52/6
f 194/240/6 184/237/6 156/239/6
f 150/216/6 195/241/6 152/242/6
f 152/242/6 193/243/6 154/214/6
f 146/218/6 183/244/6 148/245/6
f 148/245/6 181/246/6 150/216/6
f 142/220/6 199/247/6 144/248/6
f 144/248/6 199/247/6 146/218/6
f 142/220/6 196/249/6 199/247/6
f 138/105/6 197/250/6 140/251/6
f 140/251/6 196/249/6 142/220/6
f 197/250/6 196/249/6 140/251/6
f 134/103/6 132/252/6 136/104/6
f 136/104/6 207/253/6 138/105/6
f 132/252/6 189/90/6 136/104/6
f 128/91/6 189/90/6 130/223/6
f 130/223/6 189/90/6 132/252/6
f 148/245/6 183/244/6 181/246/6
f 152/242/6 195/241/6 193/243/6
f 156/239/6 192/238/6 194/240/6
f 136/104/6 189/90/6 207/253/6
f 126/222/6 190/92/6 128/91/6
f 126/222/6 191/254/6 190/92/6
f 120/255/6 209/256/6 122/221/6
f 122/221/6 210/257/6 124/258/6
f 209/256/6 210/257/6 122/221/6
f 124/258/6 211/259/6 126/222/6
f 211/259/6 191/254/6 126/222/6
f 154/214/6 193/243/6 192/238/6
f 116/260/6 204/261/6 118/219/6
f 118/219/6 202/262/6 120/255/6
f 116/260/6 206/263/6 204/261/6
f 112/264/6 205/265/6 114/217/6
f 114/217/6 206/263/6 116/260/6
f 205/265/6 206/263/6 114/217/6
f 108/266/6 208/267/6 110/215/6
f 110/215/6 201/268/6 112/264/6
f 198/269/6 108/266/6 106/50/6
f 208/267/6 108/266/6 198/269/6
f 110/215/6 208/267/6 201/268/6
f 150/216/6 181/246/6 195/241/6
f 205/265/6 112/264/6 201/268/6
f 146/218/6 182/270/6 183/244/6
f 146/218/6 199/247/6 182/270/6
f 204/261/6 203/271/6 118/219/6
f 203/271/6 202/262/6 118/219/6
f 209/256/6 120/255/6 202/262/6
f 212/272/6 124/258/6 210/257/6
f 212/272/6 211/259/6 124/258/6
f 138/105/6 207/253/6 197/250/6
f 106/50/6 200/273/6 198/269/6
f 106/50/6 168/274/6 200/273/6
f 200/273/6 166/51/6 186/275/6
f 168/274/6 166/51/6 200/273/6
f 162/94/6 188/93/6 164/174/6
f 164/174/6 186/275/6 166/51/6
f 188/93/6 186/275/6 164/174/6
f 167/96/81 166/56/80 168/97/81
f 105/55/52 168/97/81 106/224/52
f 159/276/5 225/277/5 226/278/5
f 159/276/5 161/228/5 225/277/5
f 225/277/5 161/228/5 224/98/5
f 163/99/5 224/98/5 161/228/5
f 167/279/5 242/175/5 165/176/5
f 165/176/5 241/100/5 163/99/5
f 241/100/5 165/176/5 242/175/5
f 167/279/5 105/226/5 242/175/5
f 242/175/5 105/226/5 227/280/5
f 227/280/5 107/281/5 213/282/5
f 107/281/5 227/280/5 105/226/5
f 111/283/5 214/284/5 109/59/5
f 109/59/5 213/282/5 107/281/5
f 214/284/5 213/282/5 109/59/5
f 115/285/5 216/286/5 113/57/5
f 113/57/5 217/287/5 111/283/5
f 216/286/5 217/287/5 113/57/5
f 119/288/5 233/289/5 117/230/5
f 117/230/5 215/290/5 115/285/5
f 215/290/5 216/286/5 115/285/5
f 123/291/5 232/292/5 121/232/5
f 121/232/5 231/293/5 119/288/5
f 127/294/5 229/295/5 125/233/5
f 125/233/5 234/296/5 123/291/5
f 131/297/5 228/101/5 129/234/5
f 129/234/5 228/101/5 127/294/5
f 135/75/5 131/297/5 133/106/5
f 139/298/5 244/299/5 137/74/5
f 137/74/5 243/102/5 135/75/5
f 244/299/5 243/102/5 137/74/5
f 143/300/5 220/301/5 141/231/5
f 141/231/5 219/302/5 139/298/5
f 220/301/5 219/302/5 141/231/5
f 147/303/5 218/304/5 145/229/5
f 145/229/5 220/301/5 143/300/5
f 218/304/5 221/305/5 145/229/5
f 151/306/5 239/307/5 149/58/5
f 149/58/5 240/308/5 147/303/5
f 239/307/5 240/308/5 149/58/5
f 155/309/5 237/310/5 153/225/5
f 153/225/5 238/311/5 151/306/5
f 159/276/5 226/278/5 157/227/5
f 157/227/5 222/312/5 155/309/5
f 222/312/5 157/227/5 226/278/5
f 223/313/5 155/309/5 222/312/5
f 153/225/5 237/310/5 238/311/5
f 135/75/5 228/101/5 131/297/5
f 125/233/5 230/314/5 234/296/5
f 121/232/5 232/292/5 231/293/5
f 238/311/5 239/307/5 151/306/5
f 237/310/5 155/309/5 223/313/5
f 111/283/5 217/287/5 214/284/5
f 240/308/5 218/304/5 147/303/5
f 117/230/5 236/315/5 215/290/5
f 117/230/5 233/289/5 236/315/5
f 221/305/5 220/301/5 145/229/5
f 231/293/5 233/289/5 119/288/5
f 232/292/5 123/291/5 235/316/5
f 123/291/5 234/296/5 235/316/5
f 219/302/5 244/299/5 139/298/5
f 125/233/5 229/295/5 230/314/5
f 229/295/5 127/294/5 228/101/5
f 134/103/6 178/104/6 175/103/6
f 176/34/82 134/37/64 175/37/82
f 136/104/6 180/105/6 178/104/6
f 177/75/5 133/106/5 176/106/5
f 175/37/83 170/11/85 176/34/86
f 176/34/86 171/5/87 177/107/89
f 172/3/88 175/37/83 178/108/92
f 177/107/89 173/7/90 179/36/328
f 174/2/91 178/108/92 180/39/93
f 173/7/90 180/39/93 179/36/328
f 227/109/94 208/111/95 198/317/94
f 213/110/95 201/113/96 208/111/95
f 214/112/96 205/115/97 201/113/96
f 216/116/98 205/115/97 217/114/97
f 215/118/99 206/117/98 216/116/98
f 236/120/100 204/119/99 215/118/99
f 233/122/101 203/121/100 236/120/100
f 231/124/32 202/123/101 233/122/101
f 232/126/102 209/125/32 231/124/32
f 235/128/103 210/127/102 232/126/102
f 234/130/104 212/129/103 235/128/103
f 230/132/105 211/131/104 234/130/104
f 229/134/106 191/133/105 230/132/105
f 228/136/107 190/135/106 229/134/106
f 219/138/108 197/140/109 244/318/109
f 220/141/110 196/139/108 219/138/108
f 221/143/111 199/142/110 220/141/110
f 218/145/112 182/144/111 221/143/111
f 218/145/112 181/148/113 183/146/112
f 240/147/113 195/150/114 181/148/113
f 239/149/114 193/152/115 195/150/114
f 238/151/115 192/154/22 193/152/115
f 237/153/22 194/156/116 192/154/22
f 223/155/116 184/158/117 194/156/116
f 222/157/117 185/160/118 184/158/117
f 226/159/118 187/162/119 185/160/118
f 225/161/119 188/164/120 187/162/119
f 224/163/120 186/166/121 188/164/120
f 241/165/121 200/168/122 186/166/121
f 242/167/122 198/170/94 200/168/122
f 207/172/123 244/319/109 197/320/109
f 243/171/123 189/173/124 228/177/124
f 207/172/123 243/171/123 244/319/109
f 246/23/125 247/60/126 248/61/126
f 248/61/126 249/21/127 250/25/127
f 250/25/127 251/62/128 252/63/128
f 252/63/128 253/24/129 254/27/129
f 254/27/130 255/64/131 256/65/131
f 256/65/131 257/26/132 258/29/132
f 258/29/132 259/66/133 260/67/133
f 260/67/133 261/28/134 262/31/134
f 262/31/134 263/68/135 264/69/135
f 264/69/135 265/30/136 266/33/136
f 266/33/136 267/70/137 268/71/137
f 268/71/137 269/32/138 270/35/138
f 270/35/138 271/72/139 272/73/139
f 272/73/139 273/34/140 274/37/140
f 275/75/5 319/74/5 317/75/5
f 277/36/141 320/39/141 319/36/141
f 278/39/142 279/76/143 280/77/143
f 280/77/143 281/38/144 282/41/144
f 282/41/144 283/78/145 284/79/145
f 284/79/145 285/40/146 286/43/146
f 286/43/146 287/80/147 288/81/147
f 288/81/147 289/42/148 290/45/148
f 290/45/148 291/82/149 292/83/149
f 292/83/149 293/44/150 294/47/150
f 294/47/150 295/84/151 296/85/151
f 296/85/151 297/46/152 298/49/153
f 298/49/153 299/86/154 300/87/154
f 300/87/154 301/48/155 302/54/155
f 302/54/155 303/88/156 304/89/156
f 304/89/156 305/53/157 306/56/158
f 325/236/6 302/94/6 327/95/6
f 302/94/6 325/236/6 300/235/6
f 300/235/6 324/237/6 298/52/6
f 298/52/6 334/240/6 296/239/6
f 296/239/6 332/238/6 294/214/6
f 334/240/6 332/238/6 296/239/6
f 294/214/6 333/243/6 292/242/6
f 292/242/6 335/241/6 290/216/6
f 333/243/6 335/241/6 292/242/6
f 290/216/6 321/246/6 288/245/6
f 288/245/6 323/244/6 286/218/6
f 321/246/6 323/244/6 288/245/6
f 286/218/6 322/270/6 284/248/6
f 284/248/6 339/247/6 282/220/6
f 282/220/6 336/249/6 280/251/6
f 280/251/6 337/250/6 278/105/6
f 336/249/6 337/250/6 280/251/6
f 278/105/6 347/253/6 276/104/6
f 276/104/6 272/252/6 274/103/6
f 272/252/6 329/90/6 270/223/6
f 270/223/6 329/90/6 268/91/6
f 276/104/6 329/90/6 272/252/6
f 347/253/6 329/90/6 276/104/6
f 284/248/6 322/270/6 339/247/6
f 300/235/6 325/236/6 324/237/6
f 334/240/6 298/52/6 324/237/6
f 282/220/6 339/247/6 336/249/6
f 268/91/6 331/254/6 266/222/6
f 331/254/6 351/259/6 266/222/6
f 264/258/6 350/257/6 262/221/6
f 262/221/6 349/256/6 260/255/6
f 266/222/6 351/259/6 264/258/6
f 351/259/6 352/272/6 264/258/6
f 262/221/6 350/257/6 349/256/6
f 260/255/6 343/271/6 258/219/6
f 258/219/6 344/261/6 256/260/6
f 256/260/6 346/263/6 254/217/6
f 254/217/6 346/263/6 252/264/6
f 252/264/6 345/265/6 250/215/6
f 250/215/6 341/268/6 248/266/6
f 345/265/6 341/268/6 250/215/6
f 248/266/6 348/267/6 246/50/6
f 246/50/6 348/267/6 338/269/6
f 258/219/6 343/271/6 344/261/6
f 344/261/6 346/263/6 256/260/6
f 332/238/6 333/243/6 294/214/6
f 335/241/6 321/246/6 290/216/6
f 248/266/6 341/268/6 348/267/6
f 252/264/6 346/263/6 345/265/6
f 322/270/6 286/218/6 323/244/6
f 260/255/6 342/262/6 343/271/6
f 349/256/6 342/262/6 260/255/6
f 350/257/6 264/258/6 352/272/6
f 337/250/6 347/253/6 278/105/6
f 331/254/6 268/91/6 330/92/6
f 340/273/6 308/274/6 338/269/6
f 338/269/6 308/274/6 246/50/6
f 308/274/6 340/273/6 306/51/6
f 340/273/6 326/275/6 306/51/6
f 306/51/6 326/275/6 304/174/6
f 304/174/6 327/95/6 302/94/6
f 326/275/6 328/93/6 304/174/6
f 306/56/158 307/96/159 308/97/160
f 308/97/160 245/55/125 246/224/125
f 365/277/5 301/228/5 366/278/5
f 366/278/5 301/228/5 299/276/5
f 301/228/5 365/277/5 303/99/5
f 365/277/5 364/98/5 303/99/5
f 303/99/5 381/100/5 305/176/5
f 305/176/5 382/175/5 307/279/5
f 303/99/5 364/98/5 381/100/5
f 367/280/5 307/279/5 382/175/5
f 307/279/5 367/280/5 245/226/5
f 245/226/5 353/282/5 247/281/5
f 247/281/5 354/284/5 249/59/5
f 249/59/5 357/287/5 251/283/5
f 354/284/5 357/287/5 249/59/5
f 251/283/5 356/286/5 253/57/5
f 253/57/5 356/286/5 255/285/5
f 255/285/5 355/290/5 257/230/5
f 257/230/5 376/315/5 259/288/5
f 355/290/5 376/315/5 257/230/5
f 259/288/5 371/293/5 261/232/5
f 261/232/5 372/292/5 263/291/5
f 371/293/5 372/292/5 261/232/5
f 263/291/5 374/296/5 265/233/5
f 265/233/5 370/314/5 267/294/5
f 263/291/5 375/316/5 374/296/5
f 267/294/5 368/101/5 269/234/5
f 269/234/5 368/101/5 271/297/5
f 271/297/5 275/75/5 273/106/5
f 275/75/5 383/102/5 277/74/5
f 277/74/5 384/299/5 279/298/5
f 384/299/5 359/302/5 279/298/5
f 279/298/5 359/302/5 281/231/5
f 281/231/5 360/301/5 283/300/5
f 283/300/5 361/305/5 285/229/5
f 285/229/5 358/304/5 287/303/5
f 287/303/5 380/308/5 289/58/5
f 289/58/5 379/307/5 291/306/5
f 291/306/5 378/311/5 293/225/5
f 293/225/5 377/310/5 295/309/5
f 378/311/5 377/310/5 293/225/5
f 295/309/5 363/313/5 297/227/5
f 297/227/5 362/312/5 299/276/5
f 363/313/5 362/312/5 297/227/5
f 299/276/5 362/312/5 366/278/5
f 285/229/5 361/305/5 358/304/5
f 289/58/5 380/308/5 379/307/5
f 281/231/5 359/302/5 360/301/5
f 271/297/5 368/101/5 275/75/5
f 245/226/5 367/280/5 353/282/5
f 354/284/5 247/281/5 353/282/5
f 255/285/5 356/286/5 355/290/5
f 363/313/5 295/309/5 377/310/5
f 291/306/5 379/307/5 378/311/5
f 356/286/5 251/283/5 357/287/5
f 287/303/5 358/304/5 380/308/5
f 376/315/5 373/289/5 259/288/5
f 371/293/5 259/288/5 373/289/5
f 283/300/5 360/301/5 361/305/5
f 375/316/5 263/291/5 372/292/5
f 374/296/5 370/314/5 265/233/5
f 368/101/5 267/294/5 369/295/5
f 369/295/5 267/294/5 370/314/5
f 277/74/5 383/102/5 384/299/5
f 276/104/6 315/103/6 318/104/6
f 274/37/140 316/34/161 315/37/161
f 276/104/6 320/105/6 278/105/6
f 275/75/5 316/106/5 273/106/5
f 309/4/162 316/34/164 310/11/166
f 311/5/165 316/34/164 317/107/170
f 312/3/167 315/37/163 309/4/162
f 313/7/169 317/107/170 319/36/173
f 314/2/171 318/108/168 312/3/167
f 314/2/171 319/36/173 320/39/172
f 348/111/174 367/109/175 338/317/175
f 341/113/176 353/110/174 348/111/174
f 345/115/177 354/112/176 341/113/176
f 345/115/177 356/116/178 357/114/177
f 346/117/179 355/118/180 356/116/179
f 344/119/180 376/120/181 355/118/180
f 343/121/181 373/122/182 376/120/181
f 342/123/182 371/124/150 373/122/182
f 349/125/150 372/126/183 371/124/150
f 350/127/183 375/128/184 372/126/183
f 352/129/184 374/130/185 375/128/184
f 351/131/185 370/132/186 374/130/185
f 331/133/186 369/134/187 370/132/186
f 330/135/187 368/136/188 369/134/187
f 337/140/189 359/138/190 384/318/189
f 336/139/190 360/141/191 359/138/190
f 339/142/191 361/143/192 360/141/191
f 322/144/192 358/145/193 361/143/192
f 321/148/194 358/145/193 323/146/193
f 335/150/195 380/147/194 321/148/194
f 333/152/196 379/149/195 335/150/195
f 332/154/134 378/151/196 333/152/196
f 334/156/197 377/153/134 332/154/134
f 324/158/198 363/155/197 334/156/197
f 325/160/199 362/157/198 324/158/198
f 327/162/200 366/159/199 325/160/199
f 328/164/201 365/161/200 327/162/200
f 326/166/202 364/163/201 328/164/201
f 340/168/204 381/165/203 326/166/202
f 338/170/175 382/167/205 340/168/204
f 384/319/189 347/172/206 337/320/189
f 347/172/206 368/177/207 329/173/207
f 383/171/206 347/172/206 384/319/189
usemtl マテリアル.002
f 388/178/208 385/179/208 386/180/208
f 390/181/209 391/182/209 392/183/210
f 398/184/211 399/185/212 400/186/211
f 394/187/213 395/188/213 396/189/214
f 393/190/6 389/191/6 401/192/6
f 387/193/215 386/180/215 389/194/210
f 404/195/216 402/196/216 385/197/216
f 392/198/5 396/189/5 403/199/5
f 391/182/217 390/181/217 397/200/217
f 399/185/218 398/184/218 393/190/214
f 395/188/216 394/187/216 401/201/216
f 405/202/216 406/195/216 414/195/219
f 402/203/220 408/203/221 407/192/222
f 464/203/223 410/203/224 409/192/224
f 420/196/225 430/196/226 408/196/227
f 406/196/216 405/201/216 409/201/224
f 465/204/228 466/201/229 409/201/230
f 470/205/231 468/206/231 413/199/219
f 404/205/232 403/199/232 411/199/233
f 435/202/234 445/202/235 411/202/236
f 469/195/215 470/195/215 414/195/215
f 419/201/237 401/201/238 407/201/239
f 418/201/240 455/204/241 457/201/242
f 418/201/240 428/201/243 427/201/244
f 416/201/218 417/201/245 427/201/244
f 416/201/218 426/201/218 425/201/218
f 424/196/246 463/196/247 464/196/248
f 423/196/215 424/196/246 434/196/215
f 422/196/249 423/196/215 433/196/215
f 421/207/250 422/196/249 432/196/251
f 456/207/252 458/207/253 430/196/226
f 408/203/221 430/203/254 429/208/255
f 458/203/256 431/203/257 428/208/257
f 431/203/258 432/203/259 427/192/259
f 432/203/259 433/209/6 426/192/6
f 433/209/260 434/203/260 425/192/260
f 444/210/261 404/195/262 412/195/263
f 443/210/264 460/210/265 462/210/266
f 443/210/264 453/210/267 452/210/268
f 441/210/215 442/210/249 452/210/268
f 441/210/215 451/210/215 450/195/215
f 439/202/269 467/202/270 468/202/271
f 438/202/218 439/202/269 449/202/218
f 437/202/245 438/202/218 448/202/218
f 436/202/272 437/202/245 447/202/273
f 459/211/274 461/202/275 445/202/235
f 412/205/276 411/199/233 445/199/277
f 462/205/278 461/199/278 446/199/279
f 453/212/280 446/199/280 447/199/281
f 452/205/281 447/199/281 448/206/5
f 451/205/282 448/206/282 449/206/282
f 430/203/254 458/203/256 457/208/256
f 421/207/250 431/207/283 458/207/253
f 455/204/241 419/201/237 429/201/284
f 454/205/285 445/199/277 461/199/278
f 436/202/272 446/202/286 461/202/275
f 460/210/265 444/210/261 454/210/287
f 463/196/247 406/196/288 410/196/289
f 415/201/290 425/201/218 466/201/229
f 434/203/291 464/203/223 466/192/223
f 467/202/270 405/202/292 413/202/293
f 440/195/215 450/195/215 470/195/215
f 450/205/294 449/206/295 468/206/231
f 444/210/296 460/210/297 459/211/298
f 436/202/299 459/211/298 460/210/297
f 437/202/300 436/202/301 443/210/301
f 438/202/6 437/202/300 442/210/302
f 439/202/303 438/202/303 441/210/303
f 469/195/304 467/202/305 439/202/306
f 405/213/307 406/213/307 463/213/308
f 406/213/309 405/213/310 467/213/305
f 424/196/311 415/201/311 465/213/312
f 423/196/313 416/201/313 415/201/314
f 422/196/315 417/201/316 416/201/313
f 421/207/317 418/201/317 417/201/316
f 456/207/318 455/204/319 418/201/320
f 420/196/321 419/201/322 455/204/319
f 419/213/322 420/213/321 402/213/323
f 435/213/324 403/213/325 404/213/326
f 403/213/216 401/213/216 402/213/216
f 388/178/208 386/180/208 387/193/208
f 390/181/209 392/183/210 389/194/210
f 398/184/211 400/186/211 397/200/211
f 394/187/213 396/189/214 393/190/214
f 386/321/6 402/203/6 389/191/6
f 389/191/6 398/184/6 390/322/6
f 390/322/6 398/184/6 397/200/6
f 398/184/6 389/191/6 393/190/6
f 393/190/6 401/192/6 394/187/6
f 401/192/6 389/191/6 402/203/6
f 402/203/6 386/321/6 385/323/6
f 387/193/215 389/194/210 392/183/210
f 404/195/216 385/197/216 388/324/216
f 396/189/5 392/198/5 399/185/5
f 399/185/5 391/325/5 400/186/5
f 392/198/5 391/325/5 399/185/5
f 392/198/5 404/205/5 387/326/5
f 387/326/5 404/205/5 388/327/5
f 392/198/5 403/199/5 404/205/5
f 403/199/5 396/189/5 395/188/5
f 391/182/217 397/200/217 400/186/217
f 399/185/218 393/190/214 396/189/214
f 395/188/216 401/201/216 403/202/216
f 405/202/216 414/195/219 413/202/219
f 402/203/220 407/192/222 401/192/220
f 464/203/223 409/192/224 466/192/223
f 420/196/225 408/196/227 402/196/329
f 406/196/216 409/201/224 410/196/224
f 465/204/228 409/201/230 405/201/292
f 470/205/231 413/199/219 414/205/219
f 404/205/232 411/199/233 412/205/276
f 435/202/234 411/202/236 403/202/330
f 469/195/215 414/195/215 406/195/215
f 419/201/237 407/201/239 429/201/284
f 418/201/240 457/201/242 428/201/243
f 418/201/240 427/201/244 417/201/245
f 416/201/218 427/201/244 426/201/218
f 416/201/218 425/201/218 415/201/290
f 424/196/246 464/196/248 434/196/215
f 423/196/215 434/196/215 433/196/215
f 422/196/249 433/196/215 432/196/251
f 421/207/250 432/196/251 431/207/283
f 456/207/252 430/196/226 420/196/225
f 408/203/221 429/208/255 407/192/222
f 458/203/256 428/208/257 457/208/256
f 431/203/258 427/192/259 428/208/258
f 432/203/259 426/192/6 427/192/259
f 433/209/260 425/192/260 426/192/260
f 444/210/261 412/195/263 454/210/287
f 443/210/264 462/210/266 453/210/267
f 443/210/264 452/210/268 442/210/249
f 441/210/215 452/210/268 451/210/215
f 441/210/215 450/195/215 440/195/215
f 439/202/269 468/202/271 449/202/218
f 438/202/218 449/202/218 448/202/218
f 437/202/245 448/202/218 447/202/273
f 436/202/272 447/202/273 446/202/286
f 459/211/274 445/202/235 435/202/234
f 412/205/276 445/199/277 454/205/285
f 462/205/278 446/199/279 453/212/279
f 453/212/280 447/199/281 452/205/281
f 452/205/281 448/206/5 451/205/5
f 451/205/282 449/206/282 450/205/282
f 430/203/254 457/208/256 429/208/255
f 421/207/250 458/207/253 456/207/252
f 455/204/241 429/201/284 457/201/242
f 454/205/285 461/199/278 462/205/278
f 436/202/272 461/202/275 459/211/274
f 460/210/265 454/210/287 462/210/266
f 463/196/247 410/196/289 464/196/248
f 415/201/290 466/201/229 465/204/228
f 434/203/291 466/192/223 425/192/331
f 467/202/270 413/202/293 468/202/271
f 440/195/215 470/195/215 469/195/215
f 450/205/294 468/206/231 470/205/231
f 444/210/296 459/211/298 435/202/324
f 436/202/299 460/210/297 443/210/299
f 437/202/300 443/210/301 442/210/302
f 438/202/6 442/210/302 441/210/6
f 439/202/303 441/210/303 440/195/303
f 469/195/304 439/202/306 440/195/332
f 405/213/307 463/213/308 465/213/312
f 406/213/309 467/213/305 469/213/304
f 424/196/311 465/213/312 463/196/308
f 423/196/313 415/201/314 424/196/314
f 422/196/315 416/201/313 423/196/313
f 421/207/317 417/201/316 422/196/315
f 456/207/318 418/201/320 421/207/333
f 420/196/321 455/204/319 456/207/318
f 419/213/322 402/213/323 401/213/334
f 435/213/324 404/213/326 444/213/296
f 403/213/216 402/213/216 404/213/216
